<svg width="129" height="38" viewBox="0 0 129 38" fill="none" xmlns="http://www.w3.org/2000/svg">
<path d="M14.3457 0C6.43836 0 0.00482178 6.39429 0.00482178 14.2511C0.00482178 24.7645 13.2359 37.2618 13.8002 37.7853C13.9481 37.9232 14.1434 38 14.3462 38C14.5491 38 14.7444 37.9232 14.8923 37.7853C15.4555 37.2577 28.6887 24.7614 28.6887 14.248C28.6887 6.39429 22.2541 0 14.3457 0ZM14.3457 22.168C12.5009 22.1693 10.7127 21.5348 9.28591 20.3726C7.85912 19.2104 6.88204 17.5925 6.52118 15.7947C6.16033 13.9968 6.43804 12.1302 7.30698 10.513C8.17592 8.8958 9.58231 7.62809 11.2865 6.92592C12.9906 6.22375 14.8871 6.13058 16.6526 6.66227C18.4182 7.19397 19.9436 8.31764 20.9688 9.84177C21.994 11.3659 22.4557 13.1962 22.275 15.0206C22.0944 16.8451 21.2827 18.5509 19.9782 19.8473C19.239 20.583 18.361 21.1667 17.3945 21.5649C16.428 21.9632 15.392 22.1681 14.3457 22.168Z" fill="white"/>
<path d="M22.6853 15.7882C23.074 14.2034 22.9825 12.5394 22.4223 11.0065C21.8622 9.47359 20.8584 8.14065 19.5381 7.17624C18.2178 6.21182 16.6402 5.65925 15.0048 5.5884C13.3693 5.51754 11.7496 5.93159 10.3502 6.77817C8.95093 7.62475 7.83494 8.86586 7.14339 10.3445C6.45183 11.8232 6.21578 13.4731 6.46508 15.0854C6.71438 16.6978 7.43783 18.2003 8.54395 19.4029C9.65008 20.6055 11.0892 21.4543 12.6793 21.8418C13.7352 22.0991 14.8315 22.1466 15.9058 21.9816C16.9801 21.8167 18.0112 21.4424 18.9403 20.8803C19.8695 20.3182 20.6784 19.5791 21.321 18.7054C21.9635 17.8317 22.4271 16.8404 22.6853 15.7882Z" fill="black"/>
<path d="M22.2158 10.8656C22.9987 12.8893 22.9445 15.1385 22.0653 17.1228C21.186 19.107 19.5524 20.7776 17.5216 21.5701C21.6565 20.0791 25.2406 14.5607 23.6051 10.339C21.9696 6.11726 15.8208 4.53514 11.5892 6.16559C12.596 5.77955 13.6906 5.59433 14.7695 5.6218C15.8483 5.64927 16.9111 5.88826 17.8968 6.32503C18.8824 6.7618 19.7716 7.38776 20.5131 8.16696C21.2547 8.94615 21.834 9.86324 22.2179 10.8656H22.2158Z" fill="#4D4D4D"/>
<path d="M6.90373 16.826C6.51387 15.8227 6.32642 14.7525 6.35214 13.6768C6.37786 12.6011 6.61624 11.5411 7.05362 10.5574C7.491 9.5737 8.11879 8.68571 8.90101 7.94429C9.68323 7.20287 10.5912 6.54619 11.5988 6.16031C7.37131 7.78136 3.89871 13.1223 5.52899 17.3376C7.15928 21.553 13.3519 23.1825 17.5972 21.5614C16.5916 21.9497 15.4461 22.0814 14.368 22.0563C13.2899 22.0312 12.2274 21.7946 11.2411 21.3599C10.2548 20.9253 9.36409 20.3012 8.61987 19.5232C7.87564 18.7453 7.29249 17.8288 6.90373 16.826Z" fill="#4D4D4D"/>
<path d="M10.0534 10.4917H15.0872V11.8662H11.584V13.3759H14.1576V14.6729H11.584V16.5544H15.2233V17.9289H10.0534V10.4917Z" fill="white"/>
<path d="M19.2317 13.4219V14.1782H16.0119V13.9979L17.5708 12.3164C17.996 11.8502 18.1859 11.5474 18.1859 11.2249C18.1927 11.1423 18.1819 11.0591 18.1541 10.9809C18.1263 10.9026 18.0822 10.8311 18.0247 10.771C17.9671 10.7109 17.8974 10.6636 17.8202 10.6321C17.743 10.6006 17.6599 10.5857 17.5765 10.5884C17.2066 10.5884 16.9628 10.8574 16.9628 11.2517C16.9664 11.3575 16.9773 11.4629 16.9954 11.5672H16.0969C16.0643 11.4474 16.0486 11.3237 16.0502 11.1996C16.0502 10.4631 16.6581 9.76735 17.5906 9.76735C18.4622 9.76735 19.1042 10.3645 19.1042 11.1531C19.105 11.4437 19.0224 11.7285 18.8661 11.9742C18.6621 12.2834 18.4276 12.5717 18.166 12.8346L17.5991 13.4261L19.2317 13.4219Z" fill="white"/>
<path d="M36.2294 21.3459H49.7135V17.6751H40.5846V13.9309H48.2862V10.5538H40.5846V7.42134H49.5657V3.84843H36.2294V21.3459ZM55.3955 21.664C57.2903 21.664 58.3976 21.0033 59.1356 19.951H59.185C59.2834 20.5872 59.4061 21.0767 59.603 21.3459H63.4908V21.1746C63.1466 20.9543 63.0482 20.3915 63.0482 19.3881V13.0744C63.0482 11.5081 62.5313 10.2846 61.4487 9.50146C60.5382 8.81625 59.2587 8.4736 57.364 8.4736C53.5502 8.4736 51.7539 10.4559 51.6555 12.7807H55.3465C55.4692 11.7284 56.1092 11.1655 57.3887 11.1655C58.5945 11.1655 59.1109 11.7039 59.1109 12.5115C59.1109 13.368 58.2745 13.6127 55.9124 13.9064C53.304 14.249 51.0897 15.081 51.0897 17.8464C51.0897 20.3181 52.8856 21.664 55.3955 21.664ZM56.675 19.1189C55.6908 19.1189 54.9529 18.7274 54.9529 17.724C54.9529 16.7696 55.5924 16.3781 57.1424 16.0355C57.9545 15.8397 58.6929 15.6439 59.2093 15.3747V16.8675C59.2093 18.2135 58.1761 19.1189 56.675 19.1189ZM69.9927 21.4927C71.0754 21.4927 71.8385 21.3948 72.1827 21.2969V18.3848C72.0353 18.3848 71.6416 18.4092 71.2969 18.4092C70.4359 18.4092 69.8943 18.1645 69.8943 17.1857V11.3124H72.1827V8.81625H69.8943V4.85175H65.9822V8.81625H64.309V11.3124H65.9822V18.0422C65.9822 20.7341 67.6553 21.4927 69.9927 21.4927ZM77.8262 21.664C79.7209 21.664 80.8283 21.0033 81.5662 19.951H81.6156C81.714 20.5872 81.8367 21.0767 82.0336 21.3459H85.9215V21.1746C85.5772 20.9543 85.4788 20.3915 85.4788 19.3881V13.0744C85.4788 11.5081 84.962 10.2846 83.8793 9.50146C82.9688 8.81625 81.6893 8.4736 79.7946 8.4736C75.9809 8.4736 74.1846 10.4559 74.0861 12.7807H77.7772C77.8999 11.7284 78.5398 11.1655 79.8193 11.1655C81.0251 11.1655 81.5415 11.7039 81.5415 12.5115C81.5415 13.368 80.7051 13.6127 78.343 13.9064C75.7346 14.249 73.5203 15.081 73.5203 17.8464C73.5203 20.3181 75.3166 21.664 77.8262 21.664ZM79.1057 19.1189C78.1214 19.1189 77.3835 18.7274 77.3835 17.724C77.3835 16.7696 78.023 16.3781 79.573 16.0355C80.3851 15.8397 81.1235 15.6439 81.6399 15.3747V16.8675C81.6399 18.2135 80.6067 19.1189 79.1057 19.1189ZM87.6688 21.3459H91.6798V14.4203C91.6798 12.8786 92.5656 11.7773 93.8941 11.7773C95.1983 11.7773 95.8625 12.6828 95.8625 14.0043V21.3459H99.8735V13.1967C99.8735 10.4069 98.2493 8.44915 95.4935 8.44915C93.7467 8.44915 92.5409 9.18331 91.6057 10.5293H91.5319V8.81625H87.6688V21.3459ZM108.075 21.7374C111.643 21.7374 113.956 19.486 114.054 16.5983H110.216C110.043 18.0177 109.28 18.7518 108.026 18.7518C106.303 18.7518 105.442 17.3325 105.442 15.1055C105.442 12.8297 106.303 11.4102 108.026 11.4102C109.157 11.4102 109.846 12.1444 110.092 13.2701H113.956C113.587 10.4559 111.397 8.4736 107.976 8.4736C103.99 8.4736 101.382 11.3369 101.382 15.1055C101.382 18.8742 104.015 21.7374 108.075 21.7374ZM121.73 21.713C123.329 21.713 124.609 21.2969 125.667 20.5628C126.774 19.8041 127.512 18.7274 127.783 17.6017H123.87C123.526 18.3848 122.837 18.8497 121.779 18.8497C120.13 18.8497 119.195 17.7975 118.949 16.1089H128.004C128.029 13.5638 127.291 11.3858 125.79 10.0153C124.707 9.03647 123.28 8.44915 121.483 8.44915C117.645 8.44915 115.012 11.3124 115.012 15.0566C115.012 18.8497 117.571 21.713 121.73 21.713ZM118.974 13.7351C119.244 12.2423 120.032 11.2879 121.558 11.2879C122.861 11.2879 123.797 12.2423 123.944 13.7351H118.974Z" fill="white"/>
<path d="M36.2294 32.9099H40.0078V32.0505H37.2651V30.6795H39.6504V29.8342H37.2651V28.6977H39.9863V27.831H36.2294V32.9099ZM40.8585 32.9099H41.8299V30.7932C41.8299 30.3101 42.0941 29.9975 42.4869 29.9975C42.8442 29.9975 43.0515 30.2107 43.0515 30.6227V32.9099H44.0225V30.7932C44.0225 30.3101 44.2727 29.9975 44.6799 29.9975C45.0368 29.9975 45.2441 30.2107 45.2441 30.6227V32.9099H46.2151V30.4593C46.2151 29.6637 45.7795 29.1665 45.0084 29.1665C44.5439 29.1665 44.1585 29.408 43.9084 29.8058H43.8939C43.7155 29.4222 43.3441 29.1665 42.8801 29.1665C42.3727 29.1665 42.0158 29.4222 41.8159 29.756H41.7945V29.2659H40.8585V32.9099ZM47.1008 34.1033H48.0722V32.498H48.0867C48.2936 32.8105 48.6295 33.0165 49.1434 33.0165C50.0864 33.0165 50.7289 32.2707 50.7289 31.0915C50.7289 29.955 50.1078 29.1665 49.1364 29.1665C48.6365 29.1665 48.2936 29.4009 48.0578 29.7205H48.0364V29.2659H47.1008V34.1033ZM48.9365 32.2139C48.3579 32.2139 48.0508 31.7805 48.0508 31.1199C48.0508 30.4664 48.2936 29.9478 48.9007 29.9478C49.5007 29.9478 49.7435 30.4309 49.7435 31.1199C49.7435 31.809 49.429 32.2139 48.9365 32.2139ZM53.2023 33.0165C54.3382 33.0165 55.1163 32.1783 55.1163 31.0915C55.1163 30.0047 54.3382 29.1665 53.2023 29.1665C52.0669 29.1665 51.2883 30.0047 51.2883 31.0915C51.2883 32.1783 52.0669 33.0165 53.2023 33.0165ZM53.2023 32.2778C52.6027 32.2778 52.2738 31.8018 52.2738 31.0915C52.2738 30.3811 52.6027 29.8981 53.2023 29.8981C53.7954 29.8981 54.1309 30.3811 54.1309 31.0915C54.1309 31.8018 53.7954 32.2778 53.2023 32.2778ZM56.5347 32.9099H57.4135L57.9134 31.1199C57.9917 30.8287 58.0848 30.4877 58.0848 30.4877H58.0988C58.0988 30.4877 58.1846 30.8287 58.2633 31.1199L58.7488 32.9099H59.6345L60.7271 29.2659H59.7845L59.3204 30.9565C59.2417 31.2549 59.156 31.6385 59.156 31.6385H59.1416C59.1416 31.6385 59.0488 31.2549 58.9701 30.9494L58.4916 29.2659H57.6632L57.2061 30.9494C57.1274 31.2478 57.0491 31.6385 57.0491 31.6385H57.0347C57.0347 31.6385 56.9489 31.2549 56.8707 30.9565L56.4276 29.2659H55.4636L56.5347 32.9099ZM62.9735 33.0165C63.916 33.0165 64.4947 32.4696 64.6303 31.8231H63.6733C63.5661 32.1002 63.3448 32.2707 62.966 32.2707C62.4162 32.2707 62.1018 31.9226 62.0305 31.3614H64.6876C64.6876 30.0615 64.0591 29.1665 62.8803 29.1665C61.8092 29.1665 61.0735 30.0047 61.0735 31.0844C61.0735 32.1712 61.7593 33.0165 62.9735 33.0165ZM62.8947 29.9123C63.3374 29.9123 63.6449 30.232 63.6733 30.6937H62.0449C62.1306 30.2178 62.3804 29.9123 62.8947 29.9123ZM66.3584 29.2659H65.4228V32.9099H66.3942V31.1341C66.3942 30.367 66.8513 30.0331 67.4868 30.097H67.5083V29.2517C67.451 29.2304 67.3867 29.2233 67.2795 29.2233C66.8513 29.2233 66.6011 29.4364 66.3798 29.8484H66.3584V29.2659ZM68.2124 32.9099H69.1839V29.2659H68.2124V32.9099ZM68.2124 28.6977H69.1839V27.831H68.2124V28.6977ZM71.0454 29.2659H70.0954V32.9099H71.0668V30.8429C71.0668 30.3456 71.3809 30.0047 71.8095 30.0047C72.2167 30.0047 72.445 30.2817 72.445 30.6724V32.9099H73.4164V30.5303C73.4164 29.7348 72.9095 29.1665 72.1524 29.1665C71.6525 29.1665 71.3166 29.3725 71.0668 29.7632H71.0454V29.2659ZM75.9148 34.1531C76.458 34.1531 76.9291 34.0252 77.2361 33.7411C77.5077 33.4925 77.6722 33.1444 77.6722 32.6329V29.2659H76.7362V29.6495H76.7222C76.5004 29.344 76.165 29.1665 75.7079 29.1665C74.7793 29.1665 74.1224 29.8626 74.1224 30.9494C74.1224 32.0505 74.9224 32.6898 75.7363 32.6898C76.2008 32.6898 76.4794 32.5051 76.6933 32.2636H76.7148V32.6613C76.7148 33.1586 76.4506 33.4214 75.9008 33.4214C75.4507 33.4214 75.2438 33.2438 75.1651 33.0165H74.2007C74.3008 33.7268 74.9149 34.1531 75.9148 34.1531ZM75.9008 31.9155C75.4008 31.9155 75.0724 31.5532 75.0724 30.9352C75.0724 30.3243 75.4008 29.9407 75.8933 29.9407C76.4794 29.9407 76.765 30.3954 76.765 30.9281C76.765 31.468 76.5149 31.9155 75.9008 31.9155ZM80.1469 32.9099H83.9255V32.0505H81.1826V30.6795H83.5681V29.8342H81.1826V28.6977H83.904V27.831H80.1469V32.9099ZM85.7262 29.2659H84.7762V32.9099H85.7476V30.8429C85.7476 30.3456 86.0616 30.0047 86.4903 30.0047C86.8975 30.0047 87.1262 30.2817 87.1262 30.6724V32.9099H88.0972V30.5303C88.0972 29.7348 87.5903 29.1665 86.8332 29.1665C86.3333 29.1665 85.9978 29.3725 85.7476 29.7632H85.7262V29.2659ZM88.6977 29.9052H89.2047V32.0433C89.2047 32.7324 89.7265 32.9171 90.1975 32.9171C90.5833 32.9171 90.8046 32.9029 90.8046 32.9029V32.1925C90.8046 32.1925 90.6406 32.1996 90.519 32.1996C90.3047 32.1996 90.1547 32.1073 90.1547 31.8374V29.9052H90.7832V29.2659H90.1547V28.1294H89.2047V29.2659H88.6977V29.9052ZM92.5047 29.2659H91.5692V32.9099H92.5406V31.1341C92.5406 30.367 92.9977 30.0331 93.6332 30.097H93.6546V29.2517C93.5978 29.2304 93.5335 29.2233 93.4263 29.2233C92.9977 29.2233 92.7475 29.4364 92.5262 29.8484H92.5047V29.2659ZM95.9754 33.0165C96.9184 33.0165 97.4966 32.4696 97.6326 31.8231H96.6756C96.5685 32.1002 96.3467 32.2707 95.9684 32.2707C95.4186 32.2707 95.1041 31.9226 95.0328 31.3614H97.6895C97.6895 30.0615 97.061 29.1665 95.8826 29.1665C94.8115 29.1665 94.0758 30.0047 94.0758 31.0844C94.0758 32.1712 94.7612 33.0165 95.9754 33.0165ZM95.8971 29.9123C96.3397 29.9123 96.6468 30.232 96.6756 30.6937H95.0468C95.1325 30.2178 95.3827 29.9123 95.8971 29.9123ZM98.4247 34.1033H99.3961V32.498H99.4106C99.6175 32.8105 99.9534 33.0165 100.468 33.0165C101.41 33.0165 102.053 32.2707 102.053 31.0915C102.053 29.955 101.432 29.1665 100.46 29.1665C99.9604 29.1665 99.6175 29.4009 99.3822 29.7205H99.3607V29.2659H98.4247V34.1033ZM100.26 32.2139C99.6818 32.2139 99.3747 31.7805 99.3747 31.1199C99.3747 30.4664 99.6175 29.9478 100.225 29.9478C100.825 29.9478 101.067 30.4309 101.067 31.1199C101.067 31.809 100.753 32.2139 100.26 32.2139ZM103.727 29.2659H102.791V32.9099H103.762V31.1341C103.762 30.367 104.219 30.0331 104.855 30.097H104.877V29.2517C104.819 29.2304 104.755 29.2233 104.648 29.2233C104.219 29.2233 103.969 29.4364 103.748 29.8484H103.727V29.2659ZM107.197 33.0165C108.14 33.0165 108.719 32.4696 108.854 31.8231H107.897C107.79 32.1002 107.569 32.2707 107.19 32.2707C106.64 32.2707 106.326 31.9226 106.254 31.3614H108.911C108.911 30.0615 108.283 29.1665 107.104 29.1665C106.033 29.1665 105.297 30.0047 105.297 31.0844C105.297 32.1712 105.983 33.0165 107.197 33.0165ZM107.119 29.9123C107.562 29.9123 107.869 30.232 107.897 30.6937H106.269C106.354 30.2178 106.604 29.9123 107.119 29.9123ZM110.597 29.2659H109.647V32.9099H110.618V30.8429C110.618 30.3456 110.932 30.0047 111.361 30.0047C111.768 30.0047 111.996 30.2817 111.996 30.6724V32.9099H112.968V30.5303C112.968 29.7348 112.461 29.1665 111.704 29.1665C111.204 29.1665 110.868 29.3725 110.618 29.7632H110.597V29.2659ZM115.574 33.0165C116.516 33.0165 117.095 32.4696 117.23 31.8231H116.273C116.166 32.1002 115.945 32.2707 115.566 32.2707C115.016 32.2707 114.702 31.9226 114.631 31.3614H117.288C117.288 30.0615 116.659 29.1665 115.48 29.1665C114.409 29.1665 113.674 30.0047 113.674 31.0844C113.674 32.1712 114.359 33.0165 115.574 33.0165ZM115.495 29.9123C115.938 29.9123 116.245 30.232 116.273 30.6937H114.645C114.731 30.2178 114.981 29.9123 115.495 29.9123ZM121.273 32.9099V29.2659H120.301V31.3685C120.301 31.8515 120.023 32.1925 119.566 32.1925C119.151 32.1925 118.959 31.9581 118.959 31.5319V29.2659H117.994V31.6953C117.994 32.4909 118.451 33.0094 119.266 33.0094C119.78 33.0094 120.066 32.8176 120.315 32.4838H120.337V32.9099H121.273ZM123.122 29.2659H122.186V32.9099H123.158V31.1341C123.158 30.367 123.615 30.0331 124.25 30.097H124.272V29.2517C124.215 29.2304 124.151 29.2233 124.044 29.2233C123.615 29.2233 123.365 29.4364 123.143 29.8484H123.122V29.2659ZM126.462 33.0165C127.376 33.0165 128.005 32.5761 128.005 31.8444C128.005 30.9921 127.326 30.8216 126.712 30.6937C126.19 30.5872 125.705 30.5587 125.705 30.2462C125.705 29.9834 125.955 29.8413 126.333 29.8413C126.747 29.8413 126.998 29.9834 127.041 30.374H127.919C127.848 29.6424 127.312 29.1665 126.348 29.1665C125.512 29.1665 124.855 29.543 124.855 30.3314C124.855 31.127 125.497 31.3046 126.155 31.4325C126.655 31.5319 127.119 31.5674 127.119 31.9155C127.119 32.1712 126.876 32.3346 126.447 32.3346C126.012 32.3346 125.712 32.1499 125.647 31.7308H124.748C124.805 32.5051 125.398 33.0165 126.462 33.0165Z" fill="white"/>
</svg>
