<svg width="83" height="69" viewBox="0 0 83 69" fill="none" xmlns="http://www.w3.org/2000/svg">
<path d="M3.89008 30.1422C3.75463 30.4807 3.61936 32.1499 3.48405 35.1502C3.39361 37.3157 3.26111 39.4277 3.08645 41.4861C2.91145 43.5445 2.64912 44.833 2.29975 45.3519C1.27318 45.3519 0.760193 45.645 0.760193 46.2317C0.760193 46.5925 0.855791 46.801 1.04774 46.8577C1.2394 46.9139 1.39725 46.9422 1.52149 46.9422C1.71314 46.9422 1.91614 46.8971 2.13053 46.8069C2.45746 46.6601 2.72259 46.4233 2.92562 46.0964C3.23028 46.0964 3.68705 46.2033 4.2961 46.4177C5.87508 46.9592 7.06483 47.2467 7.86582 47.2805L8.69483 47.2975C9.86777 47.2975 10.9112 46.9253 11.8247 46.1809C12.2985 45.7749 12.5353 45.4534 12.5353 45.2166C12.5353 45.1151 12.4901 45.0643 12.4 45.0643C12.2647 45.0643 12.1179 45.1629 11.9602 45.3603C11.802 45.5576 11.4805 45.8197 10.9957 46.1471C10.2962 46.5869 9.51249 46.8069 8.64408 46.8069C7.69672 46.8069 6.80559 46.6771 5.97097 46.4177L5.14193 46.1639C4.1493 45.8256 3.50647 45.6394 3.21332 45.6057C3.6757 44.6583 4.09309 43.2514 4.46518 41.3846C4.83743 39.5179 5.11924 37.6654 5.31116 35.8269C5.50282 33.9886 5.59874 32.4884 5.59874 31.3265C5.59874 30.4468 5.44072 29.9506 5.12511 29.8377C4.86546 29.7362 4.68516 29.6854 4.58365 29.6854C4.31293 29.6854 4.08174 29.8377 3.89008 30.1422Z" fill="url(#paint0_linear_47_3763)"/>
<path d="M11.6555 38.7031L11.6217 38.6184C11.5426 38.3252 11.3848 38.0291 11.148 37.7302C10.911 37.4314 10.4823 37.248 9.86215 37.1803C9.34326 37.1917 8.92028 37.3892 8.59332 37.7725C8.26594 38.156 8.02649 38.5622 7.87422 38.9906C7.72194 39.4194 7.64581 39.9439 7.64581 40.564C7.64581 41.3085 7.78701 41.9712 8.06882 42.5519C8.35062 43.1329 8.78497 43.4233 9.37145 43.4233C9.73234 43.4233 10.0568 43.1922 10.3443 42.7296C10.6319 42.2672 10.8883 41.771 11.114 41.2407C11.2943 40.8347 11.4525 40.5246 11.5878 40.3102V40.3779C11.5878 41.3366 11.8358 42.1036 12.3323 42.6788C12.8284 43.254 13.3643 43.5416 13.9394 43.5416H14.0409C14.8642 43.429 15.5015 42.583 15.9527 41.0039C16.2345 40.034 16.3757 39.4588 16.3757 39.2782C16.3757 39.1656 16.3192 39.1091 16.2065 39.1091C16.0374 39.1091 15.93 39.2502 15.885 39.532C15.7497 40.1299 15.5353 40.8093 15.2422 41.5706C14.9487 42.3319 14.5316 42.8086 13.9901 43.0003C13.8999 43.023 13.8152 43.0341 13.7364 43.0341C13.4544 43.0341 13.2231 42.8932 13.0428 42.6111C12.9186 42.3405 12.8566 42.0304 12.8566 41.6807C12.8566 41.0491 13.0315 40.1863 13.3811 39.0921C13.6291 38.2914 13.7534 37.7106 13.7534 37.3495L13.7364 37.0958C13.7137 36.7125 13.4431 36.4587 12.9243 36.3345L12.8059 36.3175C12.2532 36.3175 11.8696 37.1126 11.6555 38.7031ZM9.40537 42.2558V41.8837C9.49552 40.3385 9.7099 39.1826 10.0482 38.4154C10.2061 38.0884 10.3583 37.9248 10.505 37.9248C10.7306 37.9248 10.928 38.1392 11.0972 38.5676C11.2211 38.8835 11.2833 39.1599 11.2833 39.3966C11.2833 39.4871 11.2211 39.6674 11.0972 39.938C10.7136 40.784 10.4147 41.41 10.2005 41.816C9.91839 42.38 9.704 42.6618 9.55764 42.6618C9.45614 42.6618 9.40537 42.5265 9.40537 42.2558Z" fill="url(#paint1_linear_47_3763)"/>
<path d="M0.426939 48.8321C0.749462 48.8561 1.03304 48.9874 1.2781 49.2263C1.52273 49.4653 1.64533 49.752 1.64533 50.0864V59.8336C1.64533 60.2278 1.50481 60.5746 1.22434 60.8728C0.94345 61.1717 0.606113 61.3209 0.211914 61.3209H5.67696C5.55733 61.3091 5.44672 61.2433 5.34542 61.1237C5.24382 61.0046 5.15735 60.8641 5.08567 60.7027C5.014 60.5416 4.95716 60.3802 4.91539 60.2191C4.87335 60.0577 4.85274 59.9295 4.85274 59.8336V56.1605C5.42611 56.316 6.03532 56.3934 6.68034 56.3934C7.27757 56.3934 7.89876 56.3129 8.54379 56.1516C9.18884 55.9903 9.78012 55.7457 10.3177 55.4169C10.8552 55.0885 11.297 54.6705 11.6436 54.1627C11.9899 53.6551 12.1632 53.0548 12.1632 52.3619C12.1632 51.6094 11.9661 51.0033 11.5719 50.5432C11.1777 50.0836 10.6879 49.728 10.1026 49.4772C9.51729 49.2263 8.88423 49.056 8.20337 48.9664C7.52248 48.8769 6.88917 48.8321 6.30409 48.8321H0.426939ZM5.51569 55.9634C5.28856 55.9158 5.06775 55.8559 4.85274 55.7842V49.2263C4.98396 49.2025 5.10938 49.1905 5.22901 49.1905H5.6053C6.70406 49.1905 7.5105 49.4981 8.0242 50.1132C8.53759 50.7286 8.79464 51.5676 8.79464 52.6307C8.79464 53.049 8.75261 53.4611 8.66922 53.867C8.58556 54.2733 8.44221 54.6375 8.23921 54.96C8.0359 55.2825 7.77023 55.5424 7.44179 55.7395C7.11321 55.9366 6.70406 56.035 6.2145 56.035C5.97536 56.035 5.74242 56.0114 5.51569 55.9634Z" fill="url(#paint2_radial_47_3763)"/>
<path d="M14.9423 52.5411C14.1659 52.6964 13.4316 52.9236 12.739 53.222V55.6409C12.8703 55.2825 13.0822 54.9242 13.3749 54.5658C13.667 54.2074 13.9986 53.888 14.3687 53.6073C14.7389 53.3267 15.1331 53.0965 15.5509 52.9174C15.9687 52.7382 16.3688 52.6486 16.751 52.6486C16.9894 52.6486 17.1924 52.7086 17.3599 52.8278C17.527 52.9473 17.6614 53.1028 17.7627 53.2936C17.8641 53.4848 17.9388 53.6909 17.9868 53.9119C18.0343 54.133 18.0584 54.3391 18.0584 54.53V56.1605C17.7835 56.1963 17.455 56.2443 17.073 56.3038C16.6905 56.3638 16.2904 56.4472 15.8723 56.5547C15.4542 56.6622 15.0361 56.7907 14.6181 56.94C14.1999 57.0895 13.8236 57.2715 13.4893 57.4865C13.1548 57.7015 12.886 57.9496 12.683 58.23C12.4797 58.5108 12.3784 58.8364 12.3784 59.2066C12.3784 59.5291 12.45 59.8189 12.5934 60.0757C12.7367 60.3328 12.9218 60.5503 13.1488 60.7295C13.3756 60.9087 13.6354 61.0464 13.9283 61.1417C14.2208 61.2374 14.5106 61.2851 14.7973 61.2851C15.4423 61.2851 16.0364 61.1327 16.5802 60.8282C17.1236 60.5235 17.6163 60.1623 18.0584 59.7442C18.1301 60.2459 18.3272 60.6341 18.6497 60.9087C18.9722 61.1838 19.3843 61.3209 19.8861 61.3209H22.3228C22.0479 61.2851 21.8271 61.2015 21.6599 61.0701C21.4924 60.9389 21.3612 60.7775 21.2657 60.5862C21.1699 60.3954 21.1044 60.1832 21.0686 59.9502C21.0328 59.7174 21.0149 59.4815 21.0149 59.2425V54.9779C21.0149 54.4404 20.9011 53.9986 20.6744 53.652C20.4477 53.3056 20.152 53.0339 19.7877 52.8368C19.4236 52.6397 19.0175 52.5024 18.5696 52.4246C18.1216 52.3471 17.6771 52.3082 17.2353 52.3082C16.4827 52.3082 15.7184 52.386 14.9423 52.5411ZM15.6555 59.5291C15.4656 59.2306 15.3706 58.8903 15.3706 58.5077C15.3706 58.1615 15.4594 57.8748 15.6376 57.6476C15.8156 57.4211 16.0409 57.2357 16.3139 57.0923C16.5869 56.949 16.8777 56.8412 17.1863 56.7695C17.4948 56.698 17.7854 56.6443 18.0584 56.6084V59.2603C17.8565 59.4637 17.6281 59.6338 17.3731 59.771C17.1177 59.9084 16.8478 59.9769 16.5634 59.9769C16.1479 59.9769 15.8452 59.828 15.6555 59.5291Z" fill="url(#paint3_radial_47_3763)"/>
<path d="M25.6033 52.5411C24.8268 52.6964 24.0924 52.9236 23.3998 53.222V55.6409C23.5312 55.2825 23.7431 54.9242 24.0357 54.5658C24.3279 54.2074 24.6595 53.888 25.0297 53.6073C25.3996 53.3267 25.7938 53.0965 26.2119 52.9174C26.6296 52.7382 27.0297 52.6486 27.4117 52.6486C27.6504 52.6486 27.8533 52.7086 28.0206 52.8278C28.188 52.9473 28.3223 53.1028 28.4236 53.2936C28.5249 53.4848 28.5996 53.6909 28.6476 53.9119C28.6953 54.133 28.7193 54.3391 28.7193 54.53V56.1605C28.4445 56.1963 28.116 56.2443 27.7337 56.3038C27.3513 56.3638 26.9512 56.4472 26.5333 56.5547C26.1149 56.6622 25.697 56.7907 25.2791 56.94C24.8608 57.0895 24.4845 57.2715 24.1501 57.4865C23.8156 57.7015 23.5469 57.9496 23.3438 58.23C23.1405 58.5108 23.0392 58.8364 23.0392 59.2066C23.0392 59.5291 23.1109 59.8189 23.2543 60.0757C23.3976 60.3328 23.5827 60.5503 23.8097 60.7295C24.0364 60.9087 24.2963 61.0464 24.5892 61.1417C24.8817 61.2374 25.1716 61.2851 25.4583 61.2851C26.1033 61.2851 26.6973 61.1327 27.241 60.8282C27.7845 60.5235 28.2771 60.1623 28.7193 59.7442C28.791 60.2459 28.9879 60.6341 29.3104 60.9087C29.6329 61.1838 30.0452 61.3209 30.5469 61.3209H32.9837C32.7089 61.2851 32.4879 61.2015 32.3209 61.0701C32.1533 60.9389 32.0221 60.7775 31.9267 60.5862C31.8308 60.3954 31.7653 60.1832 31.7295 59.9502C31.6936 59.7174 31.6759 59.4815 31.6759 59.2425V54.9779C31.6759 54.4404 31.5622 53.9986 31.3353 53.652C31.1084 53.3056 30.813 53.0339 30.4487 52.8368C30.0844 52.6397 29.6784 52.5024 29.2306 52.4246C28.7825 52.3471 28.3378 52.3082 27.8962 52.3082C27.1437 52.3082 26.3793 52.386 25.6033 52.5411ZM26.3164 59.5291C26.1264 59.2306 26.0316 58.8903 26.0316 58.5077C26.0316 58.1615 26.1202 57.8748 26.2983 57.6476C26.4763 57.4211 26.7018 57.2357 26.9746 57.0923C27.2478 56.949 27.5387 56.8412 27.8471 56.7695C28.1558 56.698 28.4462 56.6443 28.7193 56.6084V59.2603C28.5173 59.4637 28.289 59.6338 28.0339 59.771C27.7786 59.9084 27.5088 59.9769 27.2241 59.9769C26.8087 59.9769 26.506 59.828 26.3164 59.5291Z" fill="url(#paint4_radial_47_3763)"/>
<path d="M36.9792 52.3887C36.7041 52.5024 36.4146 52.592 36.1101 52.6576C35.8054 52.7234 35.4978 52.7652 35.1874 52.7831C34.8765 52.801 34.596 52.8099 34.3452 52.8099H33.969C34.2436 52.9415 34.4258 53.1116 34.5153 53.3206C34.605 53.5297 34.6499 53.7715 34.6499 54.0462V59.9233C34.6499 60.2817 34.563 60.5924 34.39 60.8551C34.2168 61.118 33.9388 61.2732 33.5568 61.3209H38.6096C38.4544 61.3209 38.3167 61.2761 38.1976 61.1866C38.0779 61.0969 37.9764 60.9835 37.8929 60.846C37.8093 60.7089 37.7464 60.5624 37.7049 60.407C37.6629 60.2521 37.642 60.1087 37.642 59.9769V54.4762C37.9169 54.2612 38.2213 54.0731 38.556 53.9119C38.89 53.7506 39.2368 53.6699 39.5952 53.6699C40.0969 53.6699 40.4789 53.8252 40.7419 54.1358C41.0046 54.4466 41.1361 54.8346 41.1361 55.3004V59.6725C41.1361 59.8398 41.1209 60.0218 41.0913 60.2191C41.0613 60.416 41.0046 60.5952 40.9211 60.7566C40.8373 60.9177 40.7267 61.052 40.5895 61.1595C40.4521 61.267 40.2761 61.3209 40.061 61.3209H45.1138C44.7913 61.3209 44.5614 61.1928 44.4239 60.9358C44.2865 60.679 44.2002 60.3384 44.1643 59.9143C44.1285 59.4905 44.1254 59.0094 44.1553 58.4719C44.1849 57.9343 44.203 57.3852 44.2089 56.8234C44.2149 56.2622 44.188 55.7125 44.1285 55.175C44.0684 54.6375 43.9372 54.1568 43.7343 53.7327C43.5309 53.3087 43.2326 52.9683 42.8384 52.7114C42.4442 52.4546 41.9183 52.3261 41.2614 52.3261C40.5687 52.3261 39.9177 52.4935 39.3085 52.8278C38.6993 53.1623 38.1437 53.5565 37.642 54.0103V51.914C37.4747 52.1173 37.2537 52.2754 36.9792 52.3887Z" fill="url(#paint5_radial_47_3763)"/>
<path d="M31.0378 3.48429C30.2961 3.79148 29.7183 4.3691 29.4111 5.11088C29.2324 5.54222 29.1584 5.99895 29.1875 6.4515C28.888 6.11093 28.5128 5.84035 28.0815 5.66167C27.3399 5.35445 26.5229 5.35461 25.781 5.66182C24.7114 6.10486 24.2017 7.33535 24.6447 8.40504C24.7963 8.77066 25.081 9.05552 25.4468 9.20692C25.8122 9.35848 26.2152 9.35848 26.581 9.20692C26.8428 9.09857 27.0468 8.89454 27.1552 8.63276C27.2637 8.37078 27.2637 8.0823 27.1552 7.8205C27.0762 7.62949 26.9273 7.48061 26.7362 7.40148C26.5449 7.32232 26.3347 7.32232 26.1435 7.40148C26.0615 7.43538 26.0225 7.52946 26.0565 7.61163C26.0904 7.69373 26.1849 7.73237 26.2666 7.69862C26.3779 7.65242 26.5011 7.65242 26.613 7.69862C26.7249 7.74494 26.8119 7.83193 26.8581 7.9436C26.9336 8.1261 26.9337 8.32715 26.8581 8.50963C26.7825 8.69213 26.6404 8.83422 26.4579 8.90979C26.1714 9.02852 25.856 9.02852 25.5699 8.90979C25.2835 8.79124 25.0604 8.56821 24.9419 8.28191C24.7602 7.8431 24.7602 7.35986 24.9419 6.92121C25.1236 6.4824 25.4653 6.14064 25.9041 5.95894C26.213 5.83063 26.5534 5.83063 26.862 5.95864C27.1707 6.08649 27.4112 6.32706 27.5393 6.63629C27.5395 6.63649 27.5395 6.6366 27.5396 6.63677C27.5451 6.64991 27.5529 6.66194 27.5617 6.67327C27.5637 6.67589 27.5657 6.67845 27.5679 6.68091C27.577 6.69131 27.5872 6.70087 27.5992 6.70874C27.6 6.7093 27.6009 6.7096 27.6018 6.71016C27.6095 6.71507 27.6176 6.71969 27.6263 6.72333C28.3865 7.03821 28.9783 7.62948 29.2927 8.38853C29.606 9.14511 29.6066 9.97847 29.295 10.7365C28.9173 11.4976 28.317 12.1107 27.5657 12.5028C27.6323 12.1025 27.5127 11.677 27.2045 11.3687C26.884 11.0481 26.4576 10.8714 26.0042 10.8714C25.5507 10.8714 25.1243 11.0481 24.8038 11.3687C24.3818 11.7906 24.1494 12.3517 24.1494 12.9485C24.1494 13.1326 24.174 13.3125 24.217 13.4867L23.1495 12.4192C23.1894 12.3432 23.2129 12.2592 23.2129 12.1708C23.2129 12.027 23.1568 11.8914 23.0549 11.7896C22.8869 11.6217 22.6356 11.5903 22.4338 11.6908C22.2954 11.5129 22.2195 11.2958 22.2195 11.0667C22.2195 10.7943 22.3257 10.5381 22.5184 10.3454C22.7694 10.0944 23.178 10.0944 23.429 10.3454C23.5022 10.4186 23.5425 10.516 23.5425 10.6194C23.5425 10.7229 23.5022 10.8203 23.429 10.8935C23.3462 10.9763 23.211 10.9766 23.1279 10.8935C23.0913 10.8569 23.0913 10.7974 23.1459 10.7608C23.2088 10.8236 23.3106 10.8236 23.3734 10.7608C23.4362 10.698 23.4362 10.5962 23.3734 10.5334C23.2432 10.4032 23.031 10.4029 22.9005 10.5334C22.7384 10.6953 22.7384 10.959 22.9005 11.1209C23.1087 11.3292 23.4478 11.3295 23.6564 11.1209C23.7904 10.9871 23.8642 10.809 23.8642 10.6194C23.8642 10.4301 23.7904 10.252 23.6564 10.118C23.2798 9.74141 22.6673 9.74169 22.291 10.118C22.0375 10.3713 21.8979 10.7083 21.8979 11.0667C21.8979 11.1988 21.9171 11.3278 21.9538 11.4508C21.8307 11.4142 21.7017 11.395 21.5697 11.395C21.2113 11.395 20.8742 11.5346 20.6209 11.7881C20.2444 12.1645 20.2444 12.777 20.6209 13.1535C20.7549 13.2875 20.933 13.3613 21.1223 13.3613C21.3119 13.3613 21.49 13.2875 21.6238 13.1535C21.8322 12.9451 21.8322 12.606 21.6238 12.3976C21.4618 12.2357 21.1984 12.2354 21.0363 12.3976C20.906 12.5279 20.906 12.7401 21.0363 12.8705C21.099 12.9333 21.2009 12.9242 21.2637 12.8615C21.3265 12.7987 21.3265 12.6878 21.2637 12.625C21.3008 12.5886 21.36 12.5889 21.3964 12.625C21.4794 12.7081 21.4794 12.843 21.3964 12.9261C21.25 13.0725 20.9947 13.0725 20.8483 12.9261C20.5973 12.675 20.5973 12.2666 20.8483 12.0155C21.2031 11.6607 21.8 11.6334 22.1933 11.9318C22.0933 12.1335 22.1248 12.3842 22.2926 12.552C22.3943 12.6539 22.5298 12.71 22.6737 12.71C22.7621 12.71 22.8461 12.6865 22.9222 12.6466L23.9896 13.7141C23.8154 13.6712 23.6355 13.6465 23.4514 13.6465C22.8546 13.6465 22.2935 13.8789 21.8717 14.3009C21.551 14.6214 21.3742 15.0478 21.3742 15.5013C21.3742 15.9546 21.551 16.381 21.8717 16.7016C22.1251 16.9551 22.4579 17.0816 22.7907 17.0816C22.8627 17.0816 22.9346 17.0746 23.0057 17.0627C22.6137 17.8141 22.0006 18.4144 21.2394 18.792C20.4811 19.1034 19.6477 19.1029 18.8914 18.7898C18.1324 18.4754 17.5411 17.8836 17.2262 17.1234C17.2251 17.1206 17.2233 17.1183 17.222 17.1156C17.2188 17.1088 17.2155 17.102 17.2113 17.0957C17.2086 17.0916 17.2051 17.088 17.202 17.0842C17.1985 17.0798 17.1952 17.0753 17.1912 17.0712C17.1882 17.0682 17.1847 17.0658 17.1814 17.0631C17.1766 17.059 17.172 17.0547 17.1667 17.0512C17.1644 17.0497 17.162 17.0488 17.1597 17.0474C17.1531 17.0435 17.1465 17.0395 17.1392 17.0364C16.83 16.9083 16.5894 16.6678 16.4615 16.3591C16.3337 16.0505 16.3337 15.7103 16.4619 15.4012C16.6435 14.9624 16.9853 14.6207 17.4241 14.4389C17.8626 14.2571 18.346 14.2571 18.7848 14.4389C19.0711 14.5575 19.2941 14.7805 19.4127 15.067C19.5313 15.3533 19.5313 15.6687 19.4127 15.955C19.3371 16.1375 19.195 16.2796 19.0125 16.3552C18.8304 16.431 18.6293 16.431 18.4465 16.3552C18.3348 16.309 18.2478 16.222 18.2015 16.1101C18.1553 15.9985 18.1553 15.8754 18.2015 15.7637C18.2355 15.6815 18.1965 15.5875 18.1145 15.5536C18.033 15.5198 17.9384 15.5586 17.9044 15.6406C17.8252 15.8317 17.8252 16.0421 17.9044 16.2333C17.9835 16.4244 18.1324 16.5733 18.3234 16.6523C18.5853 16.761 18.8737 16.761 19.1357 16.6523C19.3975 16.5439 19.6015 16.3399 19.7098 16.0781C19.8614 15.7123 19.8614 15.3097 19.7098 14.9439C19.5584 14.5781 19.2736 14.2934 18.908 14.1418C17.8381 13.6985 16.6076 14.2084 16.1647 15.2781C15.8574 16.0199 15.8574 16.8368 16.1646 17.5786C16.3433 18.0099 16.6139 18.3852 16.9546 18.6847C16.502 18.6555 16.0452 18.7296 15.6138 18.9082C14.872 19.2154 14.2944 19.7932 13.9872 20.5349C13.5441 21.6046 14.0539 22.8351 15.1235 23.2781C15.4897 23.4297 15.8924 23.4297 16.2577 23.2781C16.6235 23.1267 16.9084 22.8418 17.0598 22.4761C17.1683 22.2143 17.1683 21.9258 17.0598 21.664C16.9514 21.402 16.7474 21.1981 16.4854 21.0896C16.0911 20.9258 15.637 21.1141 15.4737 21.5086C15.4396 21.5906 15.4787 21.6847 15.5607 21.7188C15.6425 21.7524 15.7369 21.7139 15.7708 21.6317C15.8663 21.401 16.1322 21.2913 16.3623 21.3867C16.5449 21.4625 16.6871 21.6046 16.7626 21.7871C16.8383 21.9694 16.8381 22.1704 16.7626 22.353C16.644 22.6394 16.421 22.8624 16.1346 22.981C15.8484 23.0997 15.5327 23.0997 15.2466 22.981C14.8078 22.7993 14.466 22.4575 14.2844 22.0187C14.1026 21.5801 14.1026 21.0968 14.2844 20.6581C14.5485 20.0206 15.2816 19.7167 15.9196 19.9807C15.9294 19.9847 15.9395 19.9877 15.9499 19.9897C15.953 19.9903 15.9562 19.9903 15.9593 19.9907C15.9667 19.9917 15.9741 19.9927 15.9816 19.9927C15.9831 19.9927 15.9846 19.9924 15.9861 19.9923C16.005 19.9918 16.0241 19.9883 16.0426 19.9806C16.8026 19.6656 17.6393 19.6653 18.3984 19.98C19.1547 20.2933 19.7445 20.8821 20.0602 21.6383C20.3314 22.4435 20.3404 23.3016 20.0864 24.1102C19.8504 23.7801 19.465 23.5638 19.0291 23.5638C18.0931 23.5638 17.3315 24.3253 17.3315 25.2613C17.3315 26.0714 17.7649 26.782 18.412 27.1738H16.9071C16.8385 26.9549 16.6338 26.7956 16.3926 26.7956C16.1549 26.7956 15.953 26.9505 15.8815 27.1645C15.3806 27.1 14.9919 26.6718 14.9919 26.1537C14.9919 25.7986 15.2808 25.5098 15.6358 25.5098C15.8496 25.5098 16.0234 25.6837 16.0234 25.8974C16.0234 26.0147 15.928 26.1102 15.8107 26.1102C15.7588 26.1102 15.7167 26.0681 15.7294 26.0037C15.8183 26.0037 15.8903 25.9318 15.8903 25.8429C15.8903 25.754 15.8183 25.6821 15.7294 25.6821C15.5451 25.6821 15.3951 25.8321 15.3951 26.0165C15.3951 26.2455 15.5815 26.4319 15.8107 26.4319C16.1053 26.4319 16.3451 26.1921 16.3451 25.8974C16.3451 25.5064 16.0269 25.1882 15.6358 25.1882C15.1034 25.1882 14.6703 25.6213 14.6703 26.1537C14.6703 26.6635 14.9562 27.1076 15.3759 27.3346C14.9562 27.5617 14.6703 28.0059 14.6703 28.5156C14.6703 29.048 15.1034 29.4812 15.6358 29.4812C16.0269 29.4812 16.3451 29.163 16.3451 28.772C16.3451 28.4771 16.1053 28.2373 15.8107 28.2373C15.5815 28.2373 15.3951 28.4237 15.3951 28.6529C15.3951 28.8373 15.5451 28.9873 15.7294 28.9873C15.8183 28.9873 15.884 28.9089 15.884 28.82C15.884 28.7313 15.8057 28.6529 15.7167 28.6529C15.7167 28.601 15.7588 28.559 15.8107 28.559C15.928 28.559 16.0234 28.6545 16.0234 28.772C16.0234 28.9857 15.8496 29.1595 15.6358 29.1595C15.2808 29.1595 14.9919 28.8707 14.9919 28.5156C14.9919 27.9974 15.3806 27.5692 15.8815 27.5047C15.9529 27.7188 16.1549 27.8738 16.3926 27.8738C16.6339 27.8738 16.8386 27.7144 16.9071 27.4954H18.4121C17.765 27.8872 17.3315 28.5979 17.3315 29.408C17.3315 30.344 18.0931 31.1056 19.0291 31.1056C19.4648 31.1056 19.8502 30.8894 20.0861 30.5595C20.3479 31.3957 20.3199 32.2654 20.0516 33.0504C19.3927 34.5993 17.6016 35.3347 16.0426 34.6887C16.0252 34.6816 16.0073 34.6783 15.9896 34.6774C15.9868 34.6772 15.9841 34.6767 15.9813 34.6767C15.9752 34.6767 15.9692 34.6776 15.9632 34.6783C15.9586 34.6788 15.9541 34.6788 15.9496 34.6797C15.9442 34.6808 15.939 34.6828 15.9338 34.6844C15.929 34.6859 15.9242 34.6868 15.9195 34.6887C15.2812 34.953 14.5484 34.6488 14.2843 34.0113C13.9091 33.1056 14.3408 32.0636 15.2465 31.6884C15.8378 31.4438 16.5177 31.7251 16.7626 32.3163C16.8381 32.4988 16.8382 32.6998 16.7626 32.8823C16.687 33.0648 16.5449 33.2069 16.3622 33.2825C16.1317 33.3784 15.8665 33.2682 15.7708 33.0375C15.7368 32.9553 15.6426 32.9165 15.5606 32.9505C15.4787 32.9845 15.4395 33.0786 15.4736 33.1606C15.6371 33.5551 16.0911 33.7434 16.4853 33.5796C16.7472 33.4712 16.9512 33.2672 17.0597 33.0054C17.1682 32.7435 17.1682 32.4549 17.0597 32.1932C16.747 31.4382 15.8783 31.0784 15.1234 31.3912C14.6053 31.6058 14.2016 32.0094 13.9871 32.5275C13.7724 33.0456 13.7724 33.6164 13.9871 34.1345C14.2943 34.8762 14.872 35.4539 15.6139 35.7612C15.9847 35.9148 16.3743 35.9916 16.7641 35.9916C16.8276 35.9916 16.891 35.9888 16.9544 35.9847C16.6138 36.2842 16.3432 36.6594 16.1645 37.0908C15.8573 37.8326 15.8573 38.6495 16.1647 39.3913C16.3792 39.9094 16.7828 40.313 17.3009 40.5276C17.5599 40.6349 17.8322 40.6886 18.1044 40.6886C18.3766 40.6886 18.6487 40.6349 18.9079 40.5276C19.2735 40.376 19.5584 40.0913 19.7098 39.7255C19.8613 39.3597 19.8613 38.9571 19.7098 38.5913C19.486 38.0509 18.8645 37.7933 18.3233 38.0169C17.929 38.1804 17.741 38.6342 17.9043 39.0287C17.9384 39.1108 18.0326 39.1499 18.1145 39.1157C18.1964 39.0818 18.2354 38.9877 18.2014 38.9055C18.106 38.675 18.2159 38.4096 18.4465 38.3141C18.6291 38.2387 18.8301 38.2385 19.0125 38.3142C19.195 38.3898 19.3371 38.5319 19.4126 38.7144C19.6575 39.3056 19.3759 39.9856 18.7848 40.2304C18.3459 40.4123 17.8626 40.4123 17.424 40.2304C16.9852 40.0487 16.6435 39.707 16.4618 39.2682C16.3337 38.9591 16.3335 38.6188 16.4615 38.3101C16.5893 38.0016 16.8299 37.7609 17.1391 37.633C17.1477 37.6294 17.1556 37.6248 17.1632 37.62C17.1643 37.6194 17.1654 37.619 17.1664 37.6183C17.1782 37.6105 17.1884 37.601 17.1975 37.5907C17.1998 37.5881 17.2018 37.5855 17.2039 37.5828C17.2126 37.5716 17.2203 37.5597 17.2257 37.5467C17.2258 37.5465 17.2261 37.5462 17.2262 37.546C17.5411 36.7858 18.1323 36.194 18.8915 35.8796C19.6478 35.5663 20.4813 35.5657 21.2393 35.8772C22.0003 36.2547 22.6132 36.8548 23.0053 37.6059C22.935 37.5942 22.8635 37.5869 22.7907 37.5869C22.4434 37.5869 22.1171 37.7221 21.8716 37.9678C21.5509 38.2883 21.3742 38.7147 21.3742 39.1681C21.3742 39.6215 21.5509 40.0478 21.8716 40.3685C22.3071 40.804 22.8791 41.0218 23.4514 41.0218C23.6329 41.0218 23.8141 40.9973 23.9913 40.9534L22.9218 42.0228C22.7188 41.9173 22.4631 41.947 22.2925 42.1172C22.1245 42.2853 22.0932 42.5365 22.1937 42.7383C21.7934 43.0482 21.2148 43.0206 20.8483 42.6539C20.7267 42.5323 20.6596 42.3706 20.6596 42.1986C20.6596 42.0265 20.7267 41.8647 20.8483 41.7431C20.999 41.5924 21.245 41.5918 21.3963 41.7431C21.4793 41.8262 21.4793 41.9613 21.3962 42.0442C21.361 42.0799 21.2993 42.0972 21.2635 42.0265C21.3265 41.9636 21.3265 41.8619 21.2638 41.799C21.201 41.7359 21.0992 41.7362 21.0364 41.7987C20.9731 41.8619 20.9382 41.9459 20.9382 42.0353C20.9382 42.1246 20.9731 42.2086 21.0361 42.2716C21.1933 42.4287 21.4672 42.429 21.6238 42.2716C21.832 42.0634 21.8322 41.7243 21.6238 41.5157C21.3475 41.2395 20.8977 41.2392 20.6208 41.5157C20.2444 41.8922 20.2444 42.5048 20.6208 42.8813C20.8823 43.1429 21.2259 43.2736 21.5696 43.2736C21.6991 43.2736 21.8287 43.2549 21.9539 43.2177C21.9171 43.341 21.8978 43.4703 21.8978 43.6026C21.8978 43.961 22.0374 44.2979 22.2909 44.5514C22.4791 44.7397 22.7264 44.8338 22.9736 44.8338C23.2208 44.8338 23.4682 44.7397 23.6564 44.5514C23.9329 44.2748 23.9329 43.8249 23.6564 43.5483C23.4478 43.3394 23.1085 43.34 22.9003 43.5483C22.7387 43.7104 22.7387 43.9739 22.9006 44.1361C23.0309 44.2663 23.2428 44.266 23.3732 44.1361C23.4361 44.0733 23.4272 43.9717 23.3644 43.9087C23.3015 43.8459 23.1908 43.8461 23.128 43.9086C23.0912 43.872 23.0912 43.8123 23.1278 43.7757C23.2109 43.6928 23.3461 43.6928 23.4289 43.7757C23.58 43.9269 23.58 44.1727 23.4289 44.324C23.178 44.575 22.7693 44.575 22.5183 44.324C22.3256 44.1313 22.2195 43.8751 22.2195 43.6026C22.2195 43.3737 22.2953 43.1567 22.4336 42.9788C22.5075 43.0158 22.5886 43.0376 22.6737 43.0376C22.8177 43.0376 22.953 42.9813 23.0548 42.8796C23.1566 42.7778 23.2128 42.6424 23.2128 42.4984C23.2128 42.4101 23.1894 42.3261 23.1495 42.25L24.2169 41.1826C24.174 41.3569 24.1493 41.5367 24.1493 41.7208C24.1493 42.3175 24.3817 42.8786 24.8037 43.3006C25.1346 43.6315 25.5694 43.7971 26.0041 43.7971C26.4388 43.7971 26.8735 43.6315 27.2044 43.3006C27.5126 42.9925 27.6322 42.5669 27.5656 42.1666C28.3168 42.5586 28.917 43.1715 29.2947 43.9323C29.6065 44.6905 29.606 45.5241 29.2926 46.2807C28.9782 47.0397 28.3864 47.6312 27.6263 47.9461C27.6224 47.9477 27.619 47.95 27.6153 47.9519C27.6097 47.9548 27.6039 47.9574 27.5986 47.9609C27.5942 47.9639 27.5905 47.9674 27.5865 47.9707C27.5823 47.9741 27.578 47.9771 27.5741 47.981C27.5706 47.9845 27.5677 47.9887 27.5645 47.9926C27.561 47.9968 27.5572 48.0007 27.5541 48.0054C27.55 48.0116 27.5468 48.0183 27.5436 48.025C27.5422 48.0277 27.5405 48.0301 27.5393 48.033C27.2753 48.6708 26.5418 48.9748 25.904 48.7104C25.4652 48.5287 25.1235 48.187 24.9418 47.7482C24.7601 47.3095 24.7601 46.8263 24.9418 46.3875C25.1866 45.7962 25.8665 45.5139 26.4578 45.7594C26.8346 45.9155 27.0141 46.349 26.858 46.7258C26.8116 46.8375 26.7248 46.9245 26.613 46.9706C26.5015 47.0174 26.3783 47.0168 26.2665 46.9706C26.1845 46.937 26.0903 46.9755 26.0564 47.0576C26.0223 47.1396 26.0613 47.2337 26.1434 47.2677C26.3345 47.3469 26.545 47.3468 26.7361 47.2679C26.9273 47.1888 27.0761 47.0398 27.1551 46.8487C27.3791 46.3082 27.1215 45.6863 26.5809 45.4623C26.2155 45.3109 25.8125 45.3109 25.4467 45.4623C25.081 45.6138 24.7962 45.8987 24.6446 46.2643C24.43 46.7825 24.43 47.3532 24.6446 47.8713C24.8592 48.3894 25.2628 48.793 25.7809 49.0076C26.1558 49.1629 26.5446 49.2364 26.9273 49.2364C27.7875 49.2364 28.6157 48.8634 29.1877 48.2138C29.1579 48.6677 29.2318 49.1258 29.411 49.5583C29.7182 50.3001 30.296 50.8777 31.0378 51.1851C31.2997 51.2936 31.5713 51.345 31.8385 51.345C32.6628 51.345 33.4464 50.8566 33.781 50.0488C33.9325 49.683 33.9325 49.2802 33.781 48.9146C33.6296 48.5488 33.3447 48.2639 32.9789 48.1125C32.717 48.0038 32.4285 48.0038 32.1668 48.1125C31.905 48.2209 31.701 48.4249 31.5925 48.6867C31.5133 48.8778 31.5133 49.0883 31.5925 49.2794C31.6716 49.4706 31.8205 49.6195 32.0115 49.6985C32.0938 49.7322 32.1877 49.6935 32.2216 49.6114C32.2555 49.5293 32.2166 49.4352 32.1346 49.4013C32.023 49.3551 31.936 49.2681 31.8896 49.1563C31.8434 49.0446 31.8434 48.9215 31.8896 48.8098C32.0459 48.4332 32.4796 48.2541 32.8558 48.4097C33.1422 48.5283 33.3653 48.7513 33.4838 49.0377C33.6024 49.324 33.6024 49.6394 33.4838 49.9257C33.3021 50.3645 32.9604 50.7062 32.5216 50.8879C32.083 51.0697 31.5998 51.0697 31.1609 50.8879C30.5233 50.6238 30.2195 49.8904 30.4835 49.2527C30.4841 49.2513 30.4843 49.2499 30.4848 49.2484C30.488 49.24 30.4908 49.2314 30.4926 49.2224C30.4936 49.2176 30.4936 49.2128 30.4941 49.208C30.4947 49.2024 30.4957 49.1969 30.4957 49.1912C30.4957 49.1855 30.4947 49.18 30.4941 49.1744C30.4936 49.1695 30.4936 49.1647 30.4926 49.1599C30.4909 49.1513 30.4882 49.1431 30.4851 49.1349C30.4844 49.1332 30.4842 49.1313 30.4835 49.1296C30.1686 48.3695 30.1685 47.5329 30.4829 46.7737C30.7933 46.0244 31.3743 45.4389 32.1203 45.1211C32.9057 44.8524 33.7759 44.8243 34.6128 45.086C34.2829 45.322 34.0667 45.7073 34.0667 46.143C34.0667 47.079 34.8282 47.8405 35.7642 47.8405C36.5743 47.8405 37.2849 47.4072 37.6767 46.7601V48.2651C37.4578 48.3337 37.2984 48.5384 37.2984 48.7795C37.2984 49.0173 37.4534 49.2192 37.6673 49.2907C37.6028 49.7915 37.1746 50.1801 36.6566 50.1801C36.3015 50.1801 36.0127 49.8913 36.0127 49.5362C36.0127 49.3225 36.1866 49.1486 36.4003 49.1486C36.5176 49.1486 36.6131 49.2441 36.6131 49.3616C36.6131 49.4131 36.5721 49.4556 36.5066 49.4428C36.5066 49.3539 36.4347 49.282 36.3458 49.282C36.2569 49.282 36.185 49.3539 36.185 49.4428C36.185 49.627 36.3349 49.777 36.5193 49.777C36.7483 49.777 36.9347 49.5906 36.9347 49.3616C36.9347 49.0668 36.6949 48.827 36.4003 48.827C36.0092 48.827 35.6911 49.1452 35.6911 49.5362C35.6911 50.0686 36.1242 50.5017 36.6566 50.5017C37.1664 50.5017 37.6105 50.216 37.8375 49.7963C38.0645 50.216 38.5086 50.5017 39.0185 50.5017C39.5509 50.5017 39.984 50.0686 39.984 49.5362C39.984 49.1452 39.6659 48.827 39.2748 48.827C38.9802 48.827 38.7402 49.0668 38.7402 49.3616C38.7402 49.5906 38.9264 49.777 39.1557 49.777C39.3401 49.777 39.49 49.627 39.49 49.4428C39.49 49.3539 39.4117 49.2882 39.3229 49.2882C39.234 49.2882 39.1557 49.3664 39.1557 49.4553C39.1039 49.4553 39.0618 49.4132 39.0618 49.3616C39.0618 49.2441 39.1573 49.1486 39.2748 49.1486C39.4884 49.1486 39.6624 49.3225 39.6624 49.5362C39.6624 49.8913 39.3734 50.1801 39.0185 50.1801C38.5003 50.1801 38.0721 49.7915 38.0076 49.2907C38.2216 49.2192 38.3765 49.0173 38.3765 48.7795C38.3765 48.5384 38.2172 48.3337 37.9983 48.2651V46.7601C38.3901 47.4071 39.1008 47.8405 39.9109 47.8405C40.8469 47.8405 41.6086 47.079 41.6086 46.143C41.6086 45.7072 41.3922 45.3218 41.0621 45.0859C41.8977 44.8241 42.7667 44.8518 43.5513 45.1196C44.2991 45.4371 44.8813 46.0232 45.1922 46.7737C45.5066 47.5329 45.5063 48.3695 45.1916 49.1296C45.1908 49.1313 45.1906 49.1332 45.19 49.1349C45.1869 49.1431 45.1842 49.1513 45.1825 49.1599C45.1815 49.1647 45.1815 49.1695 45.181 49.1744C45.1804 49.18 45.1795 49.1855 45.1795 49.1912C45.1795 49.1969 45.1804 49.2024 45.181 49.208C45.1815 49.2128 45.1816 49.2176 45.1825 49.2224C45.1843 49.2314 45.1871 49.24 45.1903 49.2484C45.1908 49.2499 45.191 49.2513 45.1916 49.2527C45.3197 49.5618 45.3197 49.9021 45.1919 50.2107C45.064 50.5193 44.8234 50.76 44.514 50.8879C44.0755 51.0698 43.5918 51.0698 43.1533 50.8879C42.7146 50.7062 42.3728 50.3645 42.1912 49.9257C41.9462 49.3345 42.228 48.6545 42.8192 48.4097C43.1961 48.2541 43.6292 48.4332 43.7853 48.8098C43.8315 48.9215 43.8315 49.0446 43.7853 49.1563C43.7391 49.2681 43.6521 49.355 43.5403 49.4013C43.4583 49.4352 43.4194 49.5293 43.4533 49.6113C43.4875 49.6934 43.5815 49.7327 43.6635 49.6985C43.8544 49.6195 44.0033 49.4706 44.0825 49.2794C44.1616 49.0883 44.1616 48.8778 44.0825 48.6867C43.8588 48.1465 43.2369 47.8888 42.696 48.1125C41.9412 48.4252 41.5813 49.2939 41.8941 50.0488C42.1086 50.567 42.5123 50.9704 43.0302 51.1851C43.2893 51.2923 43.5617 51.3461 43.8337 51.3461C44.106 51.3461 44.3781 51.2923 44.6372 51.1851C45.3791 50.8777 45.9567 50.3001 46.2639 49.5583C46.4432 49.1258 46.5172 48.6677 46.4874 48.2139C47.0594 48.8634 47.8876 49.2364 48.7482 49.2364C49.1307 49.2364 49.5196 49.1629 49.8943 49.0076C50.4123 48.7929 50.8159 48.3894 51.0304 47.8713C51.2453 47.3532 51.245 46.7825 51.0304 46.2643C50.7179 45.5096 49.8488 45.1498 49.094 45.4623C48.5534 45.6864 48.2958 46.3083 48.5198 46.8487C48.599 47.0398 48.7478 47.1888 48.9391 47.2679C49.1301 47.3468 49.3406 47.3466 49.5315 47.2677C49.6135 47.2337 49.6525 47.1396 49.6185 47.0576C49.5843 46.9755 49.4901 46.9373 49.4084 46.9706C49.2969 47.0168 49.1741 47.0171 49.062 46.9706C48.9501 46.9245 48.8631 46.8375 48.8169 46.7256C48.6609 46.349 48.8405 45.9155 49.2171 45.7594C49.8083 45.5149 50.4883 45.7963 50.7333 46.3875C50.9152 46.8263 50.9152 47.3095 50.7333 47.7482C50.5517 48.187 50.21 48.5287 49.7712 48.7104C49.1329 48.974 48.3998 48.6704 48.1357 48.033C48.1352 48.0318 48.1344 48.0308 48.1338 48.0297C48.13 48.0211 48.1257 48.0128 48.1205 48.0049C48.1188 48.0024 48.1167 48.0004 48.1148 47.998C48.1103 47.9919 48.1056 47.9859 48.1002 47.9805C48.0985 47.9788 48.0966 47.9776 48.0949 47.9761C48.0888 47.9705 48.0826 47.9651 48.0756 47.9605C48.0754 47.9604 48.0754 47.9604 48.0754 47.9604C48.067 47.9549 48.0582 47.9499 48.0487 47.946C46.4935 47.3018 45.7465 45.5216 46.3688 43.9626C46.4881 43.7179 46.6313 43.4845 46.7985 43.2675C46.7149 43.1994 46.6334 43.1281 46.5534 43.0545C46.3166 43.359 46.1184 43.6964 45.9668 44.0623C45.6775 44.7608 45.5783 45.5055 45.6667 46.2361C45.2126 45.6569 44.616 45.2005 43.9175 44.9111C43.8292 44.8746 43.7398 44.8421 43.6501 44.8116C43.6497 44.8114 43.6494 44.8112 43.649 44.8111C43.6478 44.8106 43.6465 44.8104 43.6453 44.81C43.228 44.6684 42.7976 44.5923 42.3661 44.5814C43.802 44.2038 45.1678 43.6514 46.4391 42.9481C46.36 42.871 46.2838 42.7905 46.2093 42.7083C43.7208 44.0689 40.868 44.8432 37.8375 44.8432C28.1833 44.8432 20.329 36.9888 20.329 27.3346C20.329 20.7987 23.9295 15.0888 29.2505 12.0814C29.3753 11.8881 29.5023 11.6966 29.6327 11.5079C29.3583 11.6508 29.0881 11.8007 28.8222 11.9571C29.1274 11.6399 29.3799 11.2798 29.5745 10.8914C29.5795 10.8836 29.5853 10.8764 29.589 10.8675C29.5919 10.8603 29.5944 10.853 29.5973 10.8458C29.9569 10.1069 30.1067 9.26928 30.0065 8.43119C30.3709 8.89644 30.8273 9.28262 31.3548 9.5665C31.4008 9.52393 31.4475 9.48399 31.4939 9.44292C31.5475 9.39539 31.6007 9.34721 31.6553 9.30164C31.1331 8.96563 30.7253 8.4807 30.4829 7.89548C30.1685 7.13643 30.1686 6.29984 30.4835 5.53973C30.4842 5.53804 30.4844 5.5363 30.4851 5.53461C30.4881 5.52641 30.4909 5.51804 30.4926 5.50944C30.4936 5.5046 30.4936 5.49978 30.4941 5.49494C30.4947 5.48933 30.4957 5.4838 30.4957 5.47815C30.4957 5.47245 30.4947 5.46691 30.4941 5.46127C30.4936 5.45647 30.4936 5.45169 30.4926 5.44689C30.4908 5.43786 30.488 5.42913 30.4847 5.42058C30.4842 5.41925 30.484 5.4179 30.4835 5.4166C30.2195 4.77896 30.5233 4.04553 31.1609 3.78136C31.5997 3.59947 32.0831 3.59947 32.5216 3.78136C32.9604 3.96307 33.3021 4.30482 33.4838 4.74363C33.6024 5.02992 33.6024 5.34529 33.4838 5.63159C33.3653 5.91804 33.1422 6.14107 32.8558 6.25965C32.6733 6.33534 32.4721 6.33534 32.2899 6.25965C32.1074 6.1841 31.9653 6.04196 31.8896 5.85932C31.7941 5.62876 31.904 5.36334 32.1346 5.26787C32.2167 5.23378 32.2557 5.13969 32.2216 5.0577C32.1877 4.97575 32.0933 4.93692 32.0115 4.97069C31.6171 5.1342 31.4291 5.58792 31.5925 5.98243C31.701 6.24439 31.9048 6.44843 32.1668 6.55678C32.4285 6.66545 32.717 6.66514 32.9789 6.55678C33.3447 6.40537 33.6296 6.12048 33.781 5.75471C33.9325 5.38909 33.9325 4.98628 33.781 4.6205C33.4465 3.81269 32.6623 3.32427 31.8383 3.32426C31.571 3.32426 31.2995 3.37565 31.0378 3.48422M29.7081 7.28833C29.4338 6.62604 29.4338 5.89639 29.7081 5.23393C29.8117 4.98387 29.9498 4.75479 30.1172 4.5516C30.0415 4.84857 30.0517 5.16896 30.1635 5.47549C29.7855 6.43779 29.8782 7.47428 30.3343 8.32487C30.0777 8.01707 29.8659 7.66923 29.7081 7.28833ZM29.5897 8.26552C29.2506 7.4466 28.6187 6.80531 27.8075 6.45183C27.674 6.16454 27.4615 5.92892 27.1933 5.76816C28.1466 5.86337 29.0195 6.46621 29.411 7.41147C29.5671 7.7883 29.6634 8.17975 29.7007 8.57464C29.6688 8.47054 29.6319 8.36738 29.5897 8.26552ZM24.9537 14.5708C24.9821 14.5642 25.0091 14.5503 25.0312 14.5282C25.094 14.4654 25.094 14.3637 25.0312 14.3008C24.6699 13.9396 24.4709 13.4592 24.4709 12.9484C24.4709 12.4376 24.6699 11.9573 25.0312 11.5961C25.2911 11.3362 25.6366 11.1929 26.0041 11.1929C26.3716 11.1929 26.7171 11.3362 26.977 11.5961C27.3583 11.9774 27.3583 12.5981 26.977 12.9794C26.7188 13.2376 26.2687 13.2376 26.0105 12.9794C25.8293 12.7982 25.8293 12.5032 26.0105 12.322C26.0734 12.2592 26.0734 12.1574 26.0105 12.0946C25.9477 12.0318 25.8459 12.0318 25.7831 12.0946C25.4764 12.4011 25.4764 12.9002 25.7831 13.2068C26.0046 13.4285 26.3223 13.5197 26.6241 13.4827C25.6602 14.2644 24.7795 15.1448 23.9968 16.1078C24.0013 16.0692 24.0042 16.0303 24.0042 15.9909C24.0042 15.7223 23.8996 15.4699 23.7097 15.2802C23.4031 14.9736 22.904 14.9736 22.5975 15.2802C22.5347 15.343 22.5347 15.4448 22.5975 15.5076C22.6603 15.5704 22.7621 15.5704 22.8249 15.5076C23.0061 15.3264 23.3011 15.3264 23.4823 15.5076C23.6114 15.6367 23.6826 15.8084 23.6826 15.9909C23.6826 16.1734 23.6114 16.345 23.4823 16.4741C23.101 16.8554 22.4803 16.8554 22.099 16.4741C21.8391 16.2142 21.6958 15.8687 21.6958 15.5012C21.6958 15.1337 21.8391 14.7882 22.099 14.5282C22.4602 14.167 22.9405 13.9681 23.4514 13.9681C23.9621 13.9681 24.4425 14.167 24.8037 14.5282C24.8273 14.5518 24.8563 14.5665 24.8868 14.5724C24.8969 14.5744 24.9072 14.5754 24.9175 14.5754C24.9297 14.5754 24.9418 14.5735 24.9537 14.5708ZM22.5199 12.3245C22.4353 12.2397 22.4353 12.1018 22.5199 12.017C22.5623 11.9748 22.618 11.9535 22.6737 11.9535C22.7294 11.9535 22.785 11.9746 22.8274 12.017C22.8685 12.0581 22.8912 12.1128 22.8912 12.1707C22.8912 12.2288 22.8685 12.2834 22.8274 12.3245C22.7863 12.3656 22.7299 12.3862 22.6735 12.3862C22.6173 12.3862 22.561 12.3657 22.5199 12.3245ZM17.9144 18.9081C16.9689 18.5165 16.366 17.6435 16.2709 16.6902C16.4317 16.9585 16.6674 17.1711 16.9547 17.3046C17.3082 18.1158 17.9495 18.7477 18.7684 19.0868C18.8703 19.129 18.9734 19.1659 19.0774 19.1978C18.6825 19.1605 18.2912 19.0642 17.9144 18.9081ZM21.3519 19.0932C21.358 19.0907 21.3643 19.0886 21.3704 19.086C21.3812 19.0816 21.3911 19.0759 21.4004 19.0696C21.7858 18.8757 22.1433 18.6246 22.4584 18.3219C21.6426 19.7083 21.009 21.2142 20.5906 22.8064C20.5797 22.3744 20.5036 21.9437 20.3618 21.5261C20.3614 21.5251 20.3613 21.5241 20.3609 21.5232C20.3608 21.5229 20.3607 21.5226 20.3606 21.5224C20.33 21.4326 20.2975 21.3431 20.2609 21.2546C19.9712 20.5552 19.514 19.9579 18.9338 19.5037C19.1044 19.5241 19.275 19.5354 19.4448 19.5354C20.1102 19.5354 20.7625 19.3806 21.3519 19.0932ZM15.7368 19.2053C16.3993 18.9307 17.1288 18.9307 17.7912 19.2053C18.1723 19.3631 18.5206 19.5748 18.8287 19.8315C17.978 19.3753 16.9411 19.283 15.9787 19.6607C15.6721 19.5488 15.3518 19.5383 15.055 19.6138C15.2581 19.4467 15.487 19.3088 15.7368 19.2053ZM17.6532 29.408C17.6532 28.3534 18.5112 27.4954 19.5658 27.4954C19.6547 27.4954 19.7266 27.4234 19.7266 27.3346C19.7266 27.2456 19.6547 27.1737 19.5658 27.1737C18.5112 27.1737 17.6532 26.3158 17.6532 25.2613C17.6532 24.5026 18.2704 23.8854 19.0291 23.8854C19.5686 23.8854 20.0074 24.3242 20.0074 24.8635C20.0074 25.2405 19.7008 25.547 19.3239 25.547C19.0676 25.547 18.859 25.3384 18.859 25.082C18.859 24.9931 18.7871 24.9211 18.6982 24.9211C18.6093 24.9211 18.5374 24.9931 18.5374 25.082C18.5374 25.5157 18.8903 25.8686 19.3239 25.8686C19.6371 25.8686 19.9172 25.7245 20.1016 25.4993C20.0396 26.1028 20.0074 26.7149 20.0074 27.3346C20.0074 27.954 20.0393 28.5662 20.1013 29.1695C19.9168 28.9445 19.6369 28.8006 19.3239 28.8006C18.8903 28.8006 18.5374 29.1535 18.5374 29.5872C18.5374 29.676 18.6093 29.748 18.6982 29.748C18.7871 29.748 18.859 29.676 18.859 29.5872C18.859 29.3308 19.0676 29.1223 19.3239 29.1223C19.7008 29.1223 20.0074 29.4288 20.0074 29.8058C20.0074 30.3451 19.5686 30.7839 19.0291 30.7839C18.2704 30.7839 17.6532 30.1667 17.6532 29.408ZM16.1752 27.3346C16.1752 27.2147 16.2727 27.1172 16.3926 27.1172C16.5125 27.1172 16.61 27.2147 16.61 27.3346C16.61 27.4545 16.5125 27.5521 16.3926 27.5521C16.2727 27.5521 16.1752 27.4545 16.1752 27.3346ZM20.352 33.1655C20.3548 33.1589 20.3582 33.1527 20.3609 33.1461C20.366 33.1339 20.3689 33.1214 20.3708 33.109C20.5036 32.7063 20.578 32.2838 20.5885 31.8546C21.0064 33.4484 21.6403 34.9555 22.4563 36.3433C22.1391 36.0384 21.7746 35.7823 21.3717 35.5837C21.3713 35.5836 21.3709 35.5833 21.3704 35.5831C21.3704 35.5831 21.3702 35.5829 21.37 35.5829C21.2848 35.5409 21.1984 35.5006 21.1097 35.4639C20.4103 35.1741 19.6646 35.0752 18.933 35.1643C19.5971 34.6422 20.0838 33.9431 20.352 33.1655ZM18.8277 34.837C18.5235 35.0913 18.1764 35.3044 17.7912 35.464C17.1288 35.7382 16.3993 35.7382 15.7368 35.464C15.4874 35.3607 15.2588 35.223 15.0559 35.0562C15.1816 35.0881 15.3113 35.1056 15.4427 35.1056C15.6214 35.1056 15.8024 35.073 15.9788 35.0086C16.3844 35.1679 16.8032 35.2445 17.2158 35.2445C17.782 35.2445 18.3357 35.1008 18.8277 34.837ZM16.4618 37.2137C16.736 36.5515 17.2519 36.0356 17.9144 35.7612C18.2914 35.605 18.683 35.5086 19.078 35.4713C18.9738 35.5032 18.8705 35.5401 18.7684 35.5823C17.9495 35.9216 17.3082 36.5534 16.9547 37.3647C16.666 37.4987 16.4295 37.7126 16.2687 37.9826C16.2943 37.7216 16.3586 37.4629 16.4618 37.2137ZM22.099 40.141C21.8391 39.8811 21.6958 39.5356 21.6958 39.1681C21.6958 38.8006 21.8391 38.4551 22.099 38.1951C22.4684 37.8255 23.1129 37.8255 23.4823 38.1951C23.6114 38.3243 23.6826 38.4959 23.6826 38.6784C23.6826 38.8609 23.6114 39.0325 23.4823 39.1617C23.3011 39.3429 23.0061 39.3429 22.8249 39.1617C22.7621 39.0988 22.6603 39.0988 22.5975 39.1617C22.5347 39.2245 22.5347 39.3262 22.5975 39.3891C22.8946 39.6862 23.4126 39.6862 23.7097 39.3891C23.8996 39.1994 24.0042 38.9469 24.0042 38.6784C24.0042 38.639 24.0013 38.6001 23.9968 38.5615C24.776 39.5203 25.6525 40.3968 26.6113 41.1759C26.3163 41.1415 26.0089 41.2364 25.7831 41.4623C25.4764 41.769 25.4764 42.268 25.7831 42.5747C25.8459 42.6375 25.9477 42.6375 26.0105 42.5747C26.0734 42.5119 26.0734 42.4101 26.0105 42.3473C25.8293 42.166 25.8293 41.8709 26.0105 41.6897C26.2769 41.4233 26.7107 41.4233 26.977 41.6897C27.3585 42.0712 27.3585 42.6917 26.977 43.0732C26.4405 43.6097 25.5676 43.6097 25.0312 43.0732C24.6699 42.712 24.4709 42.2315 24.4709 41.7208C24.4709 41.2099 24.6699 40.7297 25.0312 40.3684C25.094 40.3056 25.094 40.2038 25.0312 40.141C24.9683 40.0782 24.8666 40.0782 24.8037 40.141C24.4308 40.5138 23.9411 40.7002 23.4514 40.7002C22.9616 40.7002 22.4719 40.5138 22.099 40.141ZM22.5199 42.6521C22.4353 42.5675 22.4353 42.4294 22.5199 42.3446C22.6047 42.2595 22.7426 42.2598 22.8274 42.3446C22.8685 42.3857 22.8912 42.4404 22.8912 42.4984C22.8912 42.5565 22.8685 42.611 22.8274 42.6521C22.7863 42.6933 22.73 42.7138 22.6737 42.7138C22.6174 42.7138 22.5611 42.6933 22.5199 42.6521ZM29.7081 44.0623C29.4977 43.5544 29.1985 43.1006 28.8286 42.7158C30.2141 43.5303 31.7183 44.1634 33.309 44.5814C32.8769 44.5923 32.446 44.6685 32.0283 44.8104C32.0276 44.8107 32.0268 44.8108 32.0261 44.8111C32.0258 44.8112 32.0256 44.8113 32.0254 44.8114C31.9355 44.842 31.846 44.8745 31.7575 44.9111C31.059 45.2005 30.4623 45.6569 30.0082 46.2361C30.0967 45.5055 29.9975 44.7608 29.7081 44.0623ZM39.6743 45.0694C39.4482 45.2539 39.3034 45.5343 39.3034 45.8481C39.3034 46.2819 39.6564 46.6348 40.0902 46.6348C40.1791 46.6348 40.251 46.5628 40.251 46.474C40.251 46.3851 40.1791 46.3132 40.0902 46.3132C39.8336 46.3132 39.625 46.1046 39.625 45.8481C39.625 45.4714 39.9316 45.1648 40.3085 45.1648C40.8482 45.1648 41.2869 45.6036 41.2869 46.1429C41.2869 46.9016 40.6698 47.5188 39.9109 47.5188C38.8564 47.5188 37.9983 46.6608 37.9983 45.6064C37.9983 45.5175 37.9264 45.4456 37.8375 45.4456C37.7486 45.4456 37.6767 45.5175 37.6767 45.6064C37.6767 46.6608 36.8187 47.5188 35.7642 47.5188C35.0055 47.5188 34.3883 46.9016 34.3883 46.1429C34.3883 45.6036 34.8271 45.1648 35.3664 45.1648C35.7433 45.1648 36.0499 45.4714 36.0499 45.8481C36.0499 46.1046 35.8413 46.3132 35.5849 46.3132C35.496 46.3132 35.424 46.3851 35.424 46.474C35.424 46.5628 35.496 46.6348 35.5849 46.6348C36.0186 46.6348 36.3715 46.2819 36.3715 45.8481C36.3715 45.5353 36.2277 45.2554 36.0027 45.0709C36.606 45.1329 37.2181 45.1648 37.8375 45.1648C38.4577 45.1648 39.0702 45.1316 39.6743 45.0694ZM27.8085 48.217C28.7553 47.8038 29.4225 47.0062 29.7016 46.083C29.6651 46.4818 29.5687 46.8772 29.4111 47.2577C29.1367 47.9202 28.6208 48.4361 27.9584 48.7104C27.7088 48.8139 27.4496 48.8783 27.1881 48.9038C27.4515 48.7471 27.671 48.5129 27.8085 48.217ZM46.264 47.2577C46.1068 46.8782 46.0146 46.4882 45.9782 46.0991C46.2601 47.0155 46.9253 47.8062 47.8666 48.217C48.0034 48.5113 48.2213 48.7445 48.4828 48.9011C47.5291 48.8063 46.6559 48.2034 46.264 47.2577ZM29.7082 47.3809C29.867 46.9976 30.0786 46.652 30.3311 46.349C29.8775 47.1987 29.7864 48.2332 30.1637 49.1936C30.0524 49.4986 30.0416 49.8174 30.1161 50.1132C29.5079 49.3716 29.3162 48.327 29.7082 47.3809ZM45.5117 49.1935C45.8353 48.3698 45.8287 47.4695 45.4894 46.6507C45.4481 46.5509 45.4021 46.4539 45.3523 46.3595C45.601 46.6601 45.8099 47.002 45.9668 47.3809C46.2414 48.0433 46.2414 48.7728 45.9668 49.4353C45.8637 49.6845 45.7262 49.9129 45.5597 50.1156C45.637 49.8109 45.6209 49.4925 45.5117 49.1935ZM37.6202 48.7796C37.6202 48.6597 37.7176 48.5622 37.8375 48.5622C37.9575 48.5622 38.0549 48.6597 38.0549 48.7796C38.0549 48.8996 37.9575 48.9971 37.8375 48.9971C37.7176 48.9971 37.6202 48.8996 37.6202 48.7796Z" fill="url(#paint6_linear_47_3763)"/>
<path d="M43.0303 3.48419C42.5123 3.69887 42.1087 4.10233 41.8942 4.62046C41.5813 5.37539 41.9413 6.24406 42.6961 6.55675C43.2366 6.78054 43.8589 6.52298 44.0826 5.98239C44.1617 5.79126 44.1617 5.58084 44.0826 5.38983C44.0034 5.19871 43.8545 5.04981 43.6635 4.97066C43.5816 4.93676 43.4876 4.97584 43.4534 5.05766C43.4195 5.13982 43.4584 5.2339 43.5404 5.26784C43.6522 5.31414 43.7392 5.40113 43.7854 5.51282C43.8316 5.62447 43.8316 5.74763 43.7854 5.85928C43.7097 6.04193 43.5677 6.18407 43.3852 6.25961C43.203 6.3353 43.002 6.3353 42.8192 6.25961C42.2281 6.01475 41.9463 5.33475 42.1913 4.7436C42.3729 4.30479 42.7146 3.96303 43.1534 3.78132C43.5919 3.59943 44.0756 3.59943 44.5141 3.78132C44.8235 3.90933 45.0641 4.14995 45.192 4.45853C45.3198 4.76713 45.3198 5.10747 45.1916 5.41656C45.1911 5.41786 45.191 5.41922 45.1905 5.42055C45.1872 5.4291 45.1844 5.43782 45.1826 5.44685C45.1816 5.45165 45.1816 5.45644 45.1811 5.46124C45.1805 5.46688 45.1795 5.47241 45.1795 5.47812C45.1795 5.48377 45.1805 5.4893 45.181 5.49491C45.1816 5.49975 45.1816 5.50456 45.1826 5.50941C45.1843 5.51801 45.187 5.52637 45.1901 5.53458C45.1908 5.53627 45.191 5.53801 45.1916 5.5397C45.5064 6.29981 45.5067 7.1364 45.1923 7.89545C44.9274 8.53482 44.4652 9.05451 43.872 9.39094C43.9125 9.45186 43.9525 9.51449 43.9925 9.57688C44.0171 9.61531 44.042 9.65288 44.0667 9.69189C44.7008 9.40148 45.2453 8.97057 45.6667 8.43366C45.5784 9.16406 45.6776 9.9085 45.9668 10.6068C46.1782 11.1171 46.4792 11.5726 46.8514 11.9586C46.2645 11.6133 45.6573 11.2989 45.0302 11.0213C45.1984 11.2175 45.3685 11.4123 45.5327 11.6106C50.5641 14.083 54.2434 18.8999 55.1363 24.6275C55.2463 24.6354 55.3563 24.6437 55.4662 24.6523C55.475 24.653 55.4837 24.6537 55.4925 24.6543C55.5327 24.6575 55.573 24.6601 55.6132 24.6634C55.6379 24.6653 55.6625 24.6669 55.6872 24.669C55.7776 24.2225 56.173 23.8854 56.6461 23.8854C57.2886 23.8854 57.8281 24.3288 57.9786 24.9253C58.0914 24.9409 58.2044 24.9554 58.3169 24.9718C58.1789 24.1735 57.4832 23.5637 56.6461 23.5637C56.2101 23.5637 55.8246 23.78 55.589 24.1104C55.3273 23.2748 55.3549 22.4058 55.6225 21.6213C55.9401 20.8733 56.526 20.2909 57.2768 19.98C58.0353 19.6655 58.8721 19.6658 59.6325 19.9806C59.6424 19.9846 59.6526 19.9877 59.6632 19.9898C59.6652 19.9902 59.6673 19.9901 59.6693 19.9904C59.6777 19.9917 59.6862 19.9928 59.6947 19.9928C59.6957 19.9928 59.6967 19.9925 59.6976 19.9925C59.717 19.9921 59.7366 19.9885 59.7557 19.9806C60.392 19.7166 61.1267 20.0198 61.3909 20.658C61.7659 21.5637 61.3344 22.6059 60.4285 22.9809C60.142 23.0993 59.827 23.0996 59.5405 22.9809C59.2544 22.8623 59.0314 22.6393 58.9126 22.3529C58.7565 21.9762 58.9362 21.5428 59.3128 21.3866C59.5427 21.2907 59.8088 21.4013 59.9042 21.6316C59.9385 21.714 60.033 21.7521 60.1144 21.7187C60.1963 21.6846 60.2353 21.5905 60.2014 21.5085C60.0377 21.114 59.5832 20.9265 59.1897 21.0895C58.6491 21.3137 58.3915 21.9356 58.6155 22.476C58.7669 22.8417 59.0518 23.1266 59.4174 23.278C59.783 23.4296 60.186 23.4293 60.5516 23.278C61.6211 22.8351 62.1309 21.6045 61.688 20.5348C61.3808 19.7931 60.8032 19.2154 60.0613 18.9081C59.6291 18.7291 59.1716 18.6552 58.7183 18.6848C59.6562 17.8584 60.015 16.4956 59.5107 15.278C59.0672 14.2086 57.8381 13.6977 56.7673 14.1417C56.4017 14.2933 56.1168 14.578 55.9654 14.9438C55.814 15.3096 55.814 15.7122 55.9654 16.0778C56.0738 16.3398 56.2776 16.5438 56.5396 16.6522C56.8015 16.7609 57.0899 16.7609 57.3518 16.6522C57.5428 16.573 57.6917 16.4243 57.7708 16.2332C57.85 16.042 57.85 15.8314 57.7708 15.6405C57.7366 15.5583 57.6421 15.52 57.5607 15.5535C57.4787 15.5875 57.4398 15.6816 57.4737 15.7636C57.5199 15.8753 57.5199 15.9982 57.4737 16.11C57.4272 16.2219 57.3405 16.3087 57.2287 16.3551C57.0456 16.4311 56.8446 16.4307 56.6627 16.3551C56.4802 16.2795 56.3379 16.1374 56.2625 15.9549C56.0175 15.3637 56.2993 14.6837 56.8904 14.4388C57.7953 14.0635 58.8382 14.4952 59.2135 15.4011C59.4777 16.0386 59.1737 16.7722 58.536 17.0363C58.5353 17.0366 58.5347 17.0371 58.534 17.0374C58.5251 17.0413 58.5164 17.0459 58.5082 17.0513C58.5042 17.054 58.5009 17.0573 58.4972 17.0602C58.4927 17.0638 58.488 17.0672 58.484 17.0713C58.4801 17.0751 58.4771 17.0794 58.4737 17.0835C58.4705 17.0875 58.4669 17.0913 58.464 17.0956C58.4605 17.1008 58.458 17.1064 58.4552 17.1119C58.4532 17.1157 58.4507 17.1192 58.449 17.1233C58.1339 17.8835 57.5428 18.4753 56.7836 18.7897C56.0343 19.1 55.2096 19.103 54.4578 18.8005C53.7122 18.4352 53.0767 17.8397 52.6699 17.0627C52.7409 17.0745 52.8126 17.0815 52.8844 17.0815C53.2173 17.0815 53.5499 16.9548 53.8034 16.7015C54.1241 16.3809 54.3006 15.9545 54.3006 15.5012C54.3006 15.0477 54.1241 14.6213 53.8034 14.3008C53.3816 13.8788 52.8206 13.6464 52.2238 13.6464C52.0396 13.6464 51.8597 13.6711 51.6854 13.7141L52.753 12.6465C52.8292 12.6864 52.9132 12.7099 53.0015 12.7099C53.1454 12.7099 53.2807 12.6536 53.3825 12.5519C53.4843 12.4501 53.5405 12.3149 53.5405 12.1709C53.5405 12.086 53.519 12.0052 53.4822 11.9314C53.8755 11.6336 54.4721 11.6605 54.8268 12.0154C54.9483 12.1371 55.0155 12.2987 55.0155 12.4707C55.0155 12.6427 54.9483 12.8043 54.8268 12.926C54.6754 13.0769 54.43 13.0772 54.2787 12.926C54.1957 12.843 54.1957 12.7078 54.2787 12.6251C54.3148 12.5883 54.3748 12.5882 54.4115 12.643C54.3487 12.7058 54.3487 12.8076 54.4115 12.8704C54.4743 12.9332 54.5761 12.9332 54.6389 12.8704C54.702 12.8072 54.7369 12.7232 54.7369 12.634C54.7369 12.5447 54.702 12.4606 54.6389 12.3973C54.4768 12.2356 54.2133 12.2361 54.0512 12.3975C53.843 12.6059 53.843 12.945 54.0512 13.1534C54.1895 13.2917 54.371 13.3609 54.5529 13.3609C54.7344 13.3609 54.916 13.2916 55.0541 13.1534C55.2367 12.9711 55.3372 12.7286 55.3372 12.4707C55.3372 12.2128 55.2367 11.9703 55.0541 11.788C54.8007 11.5345 54.464 11.3949 54.1056 11.3949C53.9736 11.3949 53.8445 11.4141 53.7214 11.4507C53.7581 11.3277 53.7773 11.1987 53.7773 11.0666C53.7773 10.7081 53.6376 10.3712 53.3841 10.1179C53.0197 9.75324 52.3837 9.75324 52.0187 10.1179C51.8846 10.2519 51.8111 10.43 51.8111 10.6193C51.8111 10.8089 51.8846 10.987 52.0187 11.1208C52.2276 11.3292 52.5665 11.3291 52.7747 11.1207C52.9365 10.9587 52.9365 10.6954 52.7747 10.5333C52.6441 10.4029 52.4324 10.4029 52.3017 10.5333C52.2389 10.5961 52.248 10.6979 52.3108 10.7607C52.3736 10.8235 52.4845 10.8235 52.5473 10.7607C52.5837 10.7973 52.5837 10.8568 52.5473 10.8934C52.4644 10.976 52.329 10.9763 52.2461 10.8934C52.1729 10.8202 52.1327 10.7228 52.1327 10.6193C52.1327 10.5159 52.1729 10.4185 52.2461 10.3453C52.4889 10.1024 52.9132 10.1017 53.1567 10.3453C53.3495 10.538 53.4557 10.7942 53.4557 11.0666C53.4557 11.2957 53.3798 11.5128 53.2413 11.6907C53.04 11.5906 52.7888 11.6218 52.6202 11.7895C52.4499 11.9599 52.4201 12.2158 52.5258 12.4189L51.4582 13.4864C51.5012 13.3122 51.5258 13.1324 51.5258 12.9484C51.5258 12.3516 51.2934 11.7905 50.8713 11.3686C50.5509 11.048 50.1246 10.8713 49.6711 10.8713C49.2175 10.8713 48.7913 11.048 48.4706 11.3686C48.1625 11.6768 48.0429 12.1024 48.1095 12.5026C47.3585 12.1106 46.7584 11.498 46.3807 10.7374C46.0685 9.9791 46.0693 9.14534 46.3824 8.38843C46.6968 7.62938 47.2886 7.03811 48.0488 6.72323C48.0575 6.71962 48.0655 6.71499 48.0732 6.71009C48.0741 6.70953 48.0751 6.7092 48.0759 6.70861C48.0879 6.70071 48.0981 6.69114 48.1073 6.68067C48.1094 6.67832 48.1112 6.67591 48.1132 6.67344C48.1222 6.66196 48.13 6.64977 48.1356 6.63643C48.1356 6.63643 48.1357 6.63628 48.1358 6.63619C48.3999 5.99827 49.1346 5.69516 49.7713 5.95884C50.2101 6.14054 50.5518 6.4823 50.7334 6.92111C50.9152 7.35976 50.9152 7.843 50.7334 8.28181C50.4884 8.87295 49.809 9.15501 49.2172 8.90969C49.0347 8.83412 48.8927 8.69203 48.817 8.50953C48.7413 8.32705 48.7413 8.126 48.817 7.9435C48.9125 7.71295 49.177 7.60286 49.4085 7.69852C49.4911 7.73243 49.5844 7.69332 49.6186 7.61153C49.6525 7.52936 49.6136 7.43528 49.5316 7.40138C49.1368 7.23787 48.6832 7.42601 48.5199 7.8204C48.4115 8.0822 48.4115 8.37068 48.5199 8.63266C48.6283 8.89444 48.8324 9.09847 49.0941 9.20682C49.8492 9.51967 50.7177 9.15973 51.0305 8.40494C51.2451 7.8868 51.2453 7.31607 51.0305 6.79799C50.816 6.27983 50.4124 5.87637 49.8944 5.66172C48.677 5.15769 47.3141 5.51609 46.4876 6.4538C46.5171 6.00042 46.4431 5.5429 46.264 5.11078C45.9568 4.369 45.3792 3.79138 44.6372 3.48419C44.3784 3.37699 44.1064 3.32339 43.8343 3.32339C43.5621 3.32339 43.2897 3.37699 43.0303 3.48419ZM45.4894 8.01858C45.8287 7.19968 45.8354 6.29953 45.5116 5.47583C45.6209 5.17683 45.637 4.85832 45.5597 4.55364C45.7262 4.7563 45.8637 4.98473 45.9668 5.23391C46.2414 5.89636 46.2414 6.62584 45.9668 7.2883C45.8096 7.668 45.5999 8.01021 45.3503 8.31104C45.4006 8.2161 45.4478 8.11909 45.4894 8.01858ZM46.264 7.41144C46.6561 6.46529 47.5301 5.86245 48.4843 5.76804C48.2226 5.92455 48.0049 6.1575 47.8678 6.45168C47.0563 6.80514 46.4246 7.44647 46.0853 8.26548C46.0431 8.36738 46.0062 8.47064 45.9743 8.57479C46.0116 8.17982 46.1079 7.78834 46.264 7.41144ZM48.698 12.9794C48.3167 12.5981 48.3167 11.9774 48.698 11.5961C48.9581 11.3362 49.3036 11.1929 49.6711 11.1929C50.0386 11.1929 50.3841 11.3362 50.6438 11.5961C51.0051 11.9573 51.2042 12.4375 51.2042 12.9484C51.2042 13.4591 51.0051 13.9396 50.6438 14.3008C50.581 14.3636 50.581 14.4654 50.6438 14.5282C50.6677 14.5521 50.6973 14.5668 50.7282 14.5725C50.7379 14.5743 50.7477 14.5753 50.7575 14.5753C50.7709 14.5753 50.7841 14.5731 50.7971 14.5698C50.8242 14.5629 50.8501 14.5495 50.8713 14.5282C51.2325 14.167 51.7128 13.968 52.2238 13.968C52.7345 13.968 53.2148 14.167 53.576 14.5282C53.8361 14.7882 53.979 15.1337 53.979 15.5012C53.979 15.8687 53.8361 16.2142 53.576 16.4741C53.1947 16.8554 52.574 16.8554 52.1927 16.4741C52.0636 16.345 51.9923 16.1733 51.9923 15.9908C51.9923 15.8084 52.0636 15.6367 52.1927 15.5076C52.3742 15.3262 52.6686 15.3265 52.8501 15.5076C52.9129 15.5704 53.0147 15.5704 53.0775 15.5076C53.1403 15.4448 53.1403 15.343 53.0775 15.2802C52.7716 14.9739 52.2725 14.9736 51.9653 15.2802C51.7753 15.4699 51.6707 15.7223 51.6707 15.9908C51.6707 16.0308 51.6737 16.0702 51.6783 16.1093C50.8945 15.145 50.0119 14.2645 49.0465 13.482C49.3496 13.5206 49.6693 13.4295 49.8919 13.2068C50.0405 13.0582 50.1224 12.8608 50.1224 12.6507C50.1224 12.4405 50.0405 12.2431 49.8919 12.0946C49.829 12.0317 49.7273 12.0317 49.6645 12.0946C49.6017 12.1574 49.6017 12.2591 49.6645 12.3219C49.8457 12.5032 49.8457 12.7981 49.6645 12.9794C49.5354 13.1085 49.3583 13.173 49.1812 13.173C49.0042 13.173 48.8271 13.1085 48.698 12.9794ZM52.8476 12.3245C52.7628 12.2396 52.7628 12.1017 52.8476 12.0171C52.89 11.9747 52.9456 11.9535 53.0015 11.9535C53.0571 11.9535 53.1127 11.9747 53.1551 12.017C53.1963 12.0581 53.2189 12.1128 53.2189 12.1709C53.2189 12.2288 53.1963 12.2833 53.1551 12.3243V12.3245C53.114 12.3656 53.0578 12.3861 53.0015 12.3861C52.9452 12.3861 52.8888 12.3655 52.8476 12.3245ZM58.7193 17.3049C59.0142 17.1678 59.2477 16.9496 59.4045 16.6874C59.3102 17.6418 58.7071 18.516 57.7608 18.9081C57.3775 19.0668 56.9834 19.1615 56.5904 19.1971C57.5117 18.9172 58.3068 18.2501 58.7193 17.3049ZM53.2165 18.3215C53.5316 18.6243 53.8891 18.8754 54.2745 19.0693C54.2838 19.0758 54.2938 19.0815 54.3047 19.086C54.3113 19.0887 54.3179 19.0909 54.3244 19.0936C54.9135 19.3806 55.5654 19.5352 56.2305 19.5352C56.4003 19.5352 56.571 19.5239 56.7416 19.5034C56.1613 19.9578 55.7039 20.5551 55.4142 21.2546C55.2061 21.7569 55.097 22.2832 55.0843 22.8109C54.6659 21.217 54.033 19.7092 53.2165 18.3215ZM57.8839 19.2052C58.5461 18.9307 59.276 18.9307 59.9382 19.2052C60.1875 19.3085 60.416 19.446 60.6188 19.6126C60.3136 19.5351 59.9952 19.551 59.6962 19.6606C58.7354 19.2834 57.7009 19.3748 56.8513 19.8286C57.1546 19.5758 57.5004 19.3641 57.8839 19.2052Z" fill="url(#paint7_linear_47_3763)"/>
<path d="M47.1466 13.9518C50.6489 16.397 53.149 20.1812 53.9012 24.5555C54.0505 24.5619 54.1998 24.5707 54.3492 24.5787C53.543 19.7165 50.6334 15.5557 46.5901 13.065C46.7848 13.3558 46.9713 13.6509 47.1466 13.9518Z" fill="url(#paint8_linear_47_3763)"/>
<path d="M21.1005 27.3251C21.1005 36.5539 28.6087 44.0621 37.8376 44.0621C40.6868 44.0621 43.3717 43.3457 45.7227 42.0846C45.6417 41.9627 45.5658 41.8381 45.497 41.7107C43.2121 42.9322 40.6045 43.6259 37.8376 43.6259C28.8491 43.6259 21.5366 36.3135 21.5366 27.3251C21.5366 22.2169 23.8993 17.651 27.5885 14.66C27.842 14.2827 28.0754 13.8929 28.3594 13.539C23.9783 16.5604 21.1005 21.6125 21.1005 27.3251Z" fill="url(#paint9_linear_47_3763)"/>
<path d="M33.3614 8.256C30.716 11.0799 27.4392 14.2483 25.8896 18.9181C24.34 23.5878 26.1379 29.057 29.5461 31.3614C32.9542 33.6658 36.74 30.6995 35.2423 26.9983C33.7447 23.2972 30.8134 20.9197 30.8134 20.9197C33.9311 21.9158 36.0037 27.2031 36.0037 27.2031C37.2234 21.4731 31.5912 16.671 31.5912 16.671C34.8637 17.7796 36.0062 22.0928 36.0062 22.0928C36.1237 21.4332 36.2845 19.3374 36.2836 17.8022C36.2828 16.2671 33.5255 12.9185 33.5255 12.9185C35.6201 14.0151 36.5656 16.7132 36.5656 16.7132C37.3732 11.1391 39.2883 8.46994 39.2883 8.46994C37.8426 12.2069 37.7008 14.4548 37.7008 14.4548C40.157 12.2632 41.5742 12.1544 41.5742 12.1544C39.6806 13.104 37.7236 15.038 37.4596 15.9793C37.1956 16.9207 37.189 19.5969 37.189 19.5969C41.595 15.3768 43.0881 15.8762 43.0881 15.8762C39.4311 17.4729 37.1223 20.9179 37.1223 20.9179C36.8453 22.7376 37.2351 24.7692 37.2351 24.7692C40.9497 19.9223 44.1189 19.8764 44.1189 19.8764C39.5461 21.9235 37.3501 25.9812 37.3501 25.9812C36.952 30.0326 38.2486 33.9246 41.7296 33.7013C45.2105 33.4779 49.5257 28.6946 49.8462 22.584C50.1667 16.4733 45.6901 12.8693 42.7843 8.58538C39.8785 4.30151 41.9169 -2.97688e-05 41.9169 -2.97688e-05C40.6204 0.965772 36.0067 5.43211 33.3614 8.256Z" fill="url(#paint10_radial_47_3763)"/>
<path d="M50.3753 25.2502C49.3207 30.0176 46.0889 33.6613 43.0885 34.5689C44.0265 36.241 46.3685 36.5785 47.7736 34.7139C49.6051 32.2833 50.0092 29.435 50.0092 29.435C50.581 31.8633 47.9384 35.2918 47.9384 35.2918C52.1618 33.8414 53.0911 28.2769 53.0911 28.2769C53.6501 30.8505 51.2793 33.289 51.2793 33.289C51.7565 33.1071 53.1893 32.3901 54.1923 31.7874C55.1953 31.1847 56.3024 28.0693 56.3024 28.0693C56.4072 29.8683 55.0146 31.5445 55.0146 31.5445C58.9745 29.886 61.4701 30.0908 61.4701 30.0908C58.4607 30.6116 56.9359 31.4007 56.9359 31.4007C59.3317 32.1464 59.9587 33.0299 59.9587 33.0299C58.5954 32.1648 56.5638 31.6443 55.845 31.841C55.1261 32.0377 53.3745 33.0831 53.3745 33.0831C57.8608 34.3074 58.12 35.4792 58.12 35.4792C55.6421 33.7153 52.485 33.5576 52.485 33.5576C51.187 34.0903 50.0121 35.142 50.0121 35.142C54.6369 35.6686 55.9099 37.7219 55.9099 37.7219C52.7785 35.5362 49.2651 35.6925 49.2651 35.6925C46.4611 37.0214 44.426 39.3954 45.9373 41.5828C47.4486 43.7702 52.2674 44.7144 56.3868 42.527C60.5062 40.3397 61.1059 36.0003 62.7659 32.4209C64.426 28.8415 68.0369 28.4865 68.0369 28.4865C66.8971 28.018 62.1684 26.7544 59.2852 26.1332C57.2264 25.6895 54.9259 25.1046 52.4463 25.1045C51.7688 25.1045 51.0784 25.1481 50.3753 25.2502Z" fill="url(#paint11_radial_47_3763)"/>
<path d="M33.6739 34.2083C28.9857 35.0873 29.9625 38.0174 30.6461 39.3848C31.4136 40.5433 32.2909 39.7738 33.4151 39.0043C34.8185 38.0438 36.6066 37.0832 39.0458 39.8732C39.0458 39.8732 38.4449 34.1276 34.5124 34.127C34.248 34.127 33.9692 34.1529 33.6739 34.2083Z" fill="url(#paint12_linear_47_3763)"/>
<path d="M39.9372 39.4952C39.546 40.898 39.5067 42.3008 39.5342 42.2497C40.9732 39.571 42.0509 39.7074 42.9413 39.8437C43.3604 39.9079 43.7379 39.9721 44.0921 39.7429C45.1991 39.0266 45.427 37.0081 42.562 36.7476C42.4997 36.742 42.4388 36.7392 42.379 36.7392C41.0454 36.7393 40.3215 38.1172 39.9372 39.4952Z" fill="url(#paint13_linear_47_3763)"/>
<path d="M36.6773 40.9719C36.6773 41.5787 37.1693 42.0707 37.7761 42.0707C38.383 42.0707 38.8749 41.5787 38.8749 40.9719C38.8749 40.365 38.383 39.8731 37.7761 39.8731C37.1693 39.8731 36.6773 40.365 36.6773 40.9719Z" fill="url(#paint14_linear_47_3763)"/>
<path d="M0.856873 68.9053V64.2932H1.78948V66.1842H2.45824V64.2932H3.39605V68.9053H2.45824V66.8478H1.78948V68.9053H0.856873Z" fill="#EE3338"/>
<path d="M5.75568 67.5984V65.605C5.75568 65.1507 5.61649 64.9235 5.33805 64.9235C5.25434 64.9235 5.18344 64.9445 5.1254 64.9862C5.06729 65.0281 5.02454 65.0854 4.99731 65.158C4.96993 65.2306 4.95069 65.3023 4.9396 65.3732C4.92849 65.4441 4.92299 65.5214 4.92299 65.605V67.5984C4.92299 68.0512 5.06132 68.2774 5.33805 68.2774C5.61649 68.2774 5.75568 68.0512 5.75568 67.5984ZM3.9903 67.3883V65.8382C3.9903 64.7483 4.43957 64.2034 5.33805 64.2034C6.23824 64.2034 6.68837 64.7483 6.68837 65.8382V67.3653C6.68837 67.5498 6.67463 67.7202 6.64733 67.8765C6.62002 68.0327 6.57348 68.1809 6.50776 68.321C6.44197 68.4611 6.35825 68.5803 6.25663 68.6785C6.155 68.7767 6.02643 68.854 5.87097 68.9103C5.71557 68.9666 5.5379 68.9949 5.33805 68.9949C5.13991 68.9949 4.96311 68.9671 4.80771 68.9115C4.65223 68.8562 4.52413 68.7809 4.42336 68.6861C4.3225 68.5913 4.23926 68.4752 4.17355 68.3376C4.10775 68.2001 4.06075 68.0536 4.03258 67.8982C4.00442 67.7429 3.9903 67.5728 3.9903 67.3883Z" fill="#EE3338"/>
<path d="M7.26227 67.1911V64.2931H8.19488V67.1628C8.19488 67.3269 8.19573 67.446 8.19745 67.5203C8.19915 67.5947 8.20342 67.6851 8.21024 67.7919C8.21707 67.8986 8.22901 67.9734 8.24617 68.0161C8.26323 68.0588 8.28666 68.1049 8.31661 68.1545C8.34647 68.204 8.38534 68.2364 8.43321 68.2518C8.48101 68.2672 8.53912 68.2749 8.60739 68.2749C8.67574 68.2749 8.73385 68.2672 8.78164 68.2518C8.82942 68.2364 8.86829 68.2045 8.89824 68.1557C8.92812 68.107 8.95161 68.0614 8.96869 68.0186C8.98575 67.9759 8.9977 67.9021 9.00453 67.797C9.01136 67.692 9.01563 67.6032 9.01741 67.5306C9.01903 67.458 9.01996 67.3405 9.01996 67.1782V67.1628V64.2931H9.95259V67.1911C9.95259 67.338 9.94832 67.4712 9.93978 67.5908C9.93125 67.7103 9.91504 67.8342 9.89114 67.9622C9.86716 68.0904 9.83473 68.2035 9.79377 68.3018C9.75274 68.4 9.69804 68.494 9.62976 68.5837C9.56141 68.6734 9.48073 68.7472 9.38763 68.8053C9.29454 68.8633 9.1822 68.9094 9.0507 68.9437C8.91911 68.9778 8.77139 68.9949 8.60739 68.9949C8.44345 68.9949 8.29566 68.9778 8.16416 68.9437C8.03258 68.9094 7.92071 68.8633 7.82846 68.8053C7.73621 68.7472 7.65592 68.6734 7.58765 68.5837C7.5193 68.494 7.46467 68.4 7.42364 68.3018C7.38268 68.2035 7.34978 68.0904 7.32503 67.9622C7.30021 67.8342 7.2836 67.7103 7.27507 67.5908C7.26646 67.4712 7.26227 67.338 7.26227 67.1911Z" fill="#EE3338"/>
<path d="M10.4265 67.5857L11.372 67.4037C11.372 67.4977 11.3737 67.5806 11.3771 67.6522C11.3805 67.7239 11.3895 67.8021 11.404 67.8867C11.4186 67.9713 11.4382 68.0405 11.4629 68.0943C11.4877 68.148 11.5228 68.1933 11.568 68.2301C11.6133 68.2668 11.6667 68.2852 11.7282 68.2852C11.9126 68.2852 12.0049 68.1672 12.0049 67.9315C12.0049 67.6086 11.823 67.2876 11.4591 66.9681L11.1696 66.7222C11.0773 66.6452 11.0039 66.5813 10.9493 66.5299C10.8946 66.4787 10.8301 66.4095 10.7558 66.3225C10.6814 66.2353 10.6234 66.1512 10.5815 66.07C10.5396 65.9889 10.5038 65.8911 10.4739 65.7766C10.4441 65.6623 10.4291 65.5409 10.4291 65.4129C10.4291 65.0388 10.5478 64.7428 10.7853 64.5251C11.0227 64.3072 11.3378 64.1983 11.7307 64.1983C12.057 64.1983 12.3345 64.3145 12.5634 64.5468C12.7923 64.7791 12.9068 65.0593 12.9068 65.3872L12.9043 65.4205V65.4975L11.9408 65.6306C11.9408 65.6118 11.9421 65.5824 11.9446 65.5423C11.9472 65.5021 11.9485 65.4692 11.9485 65.4436C11.9485 65.382 11.9443 65.3232 11.9357 65.2668C11.9271 65.2104 11.9131 65.1541 11.8934 65.0976C11.8737 65.0413 11.8435 64.9964 11.8024 64.9632C11.7615 64.9299 11.7119 64.9133 11.6539 64.9133C11.5514 64.9133 11.4745 64.9533 11.4232 65.0337C11.372 65.1139 11.3464 65.2087 11.3464 65.3181C11.3464 65.4137 11.3613 65.5034 11.3913 65.587C11.4211 65.6708 11.4663 65.749 11.527 65.8215C11.5876 65.8941 11.6436 65.9544 11.6948 66.0022C11.7461 66.05 11.8144 66.1085 11.8998 66.1777C11.9852 66.2469 12.0459 66.2977 12.0817 66.3301C12.2132 66.4463 12.3242 66.5552 12.4149 66.6569C12.5053 66.7585 12.5907 66.8733 12.671 67.0015C12.7513 67.1295 12.8115 67.2679 12.8517 67.4165C12.8918 67.5652 12.9119 67.7258 12.9119 67.8982C12.9119 68.2211 12.7966 68.4855 12.566 68.6912C12.3354 68.8971 12.0553 69 11.7256 69C11.512 69 11.3224 68.9607 11.1568 68.8821C10.9911 68.8036 10.8574 68.6968 10.7558 68.5618C10.6541 68.427 10.576 68.2774 10.5213 68.1134C10.4666 67.9495 10.4351 67.7736 10.4265 67.5857Z" fill="#EE3338"/>
<path d="M13.3884 68.9053V64.2932H15.3126V64.9338H14.321V66.1893H15.0231V66.8452H14.321V68.2648H15.3126V68.9053H13.3884Z" fill="#EE3338"/>
<path d="M18.6126 67.5984V65.605C18.6126 65.1507 18.4734 64.9235 18.195 64.9235C18.1113 64.9235 18.0404 64.9445 17.9823 64.9862C17.9242 65.0281 17.8815 65.0854 17.8542 65.158C17.8269 65.2306 17.8076 65.3023 17.7965 65.3732C17.7854 65.4441 17.7799 65.5214 17.7799 65.605V67.5984C17.7799 68.0512 17.9183 68.2774 18.195 68.2774C18.4734 68.2774 18.6126 68.0512 18.6126 67.5984ZM16.8472 67.3883V65.8382C16.8472 64.7483 17.2965 64.2034 18.195 64.2034C19.0952 64.2034 19.5453 64.7483 19.5453 65.8382V67.3653C19.5453 67.5498 19.5316 67.7202 19.5043 67.8765C19.477 68.0327 19.4304 68.1809 19.3647 68.321C19.2989 68.4611 19.2152 68.5803 19.1136 68.6785C19.0119 68.7767 18.8834 68.854 18.7279 68.9103C18.5725 68.9666 18.3948 68.9949 18.195 68.9949C17.9968 68.9949 17.82 68.9671 17.6646 68.9115C17.5092 68.8562 17.3811 68.7809 17.2803 68.6861C17.1794 68.5913 17.0962 68.4752 17.0305 68.3376C16.9647 68.2001 16.9177 68.0536 16.8895 67.8982C16.8614 67.7429 16.8472 67.5728 16.8472 67.3883Z" fill="#EE3338"/>
<path d="M20.1396 68.9053V64.2932H22.0639V64.9338H21.0722V66.1893H21.7743V66.8452H21.0722V68.9053H20.1396Z" fill="#EE3338"/>
<path d="M24.0314 68.9053V64.9902H23.355V64.2932H25.6278V64.9902H24.9641V68.9053H24.0314Z" fill="#EE3338"/>
<path d="M26.9753 66.2124H27.2418C27.3136 66.2124 27.375 66.1885 27.4263 66.1406C27.4776 66.0928 27.5147 66.0321 27.5378 65.9587C27.5608 65.8853 27.5771 65.8178 27.5864 65.7562C27.5958 65.6948 27.6006 65.6367 27.6006 65.582C27.6006 65.5274 27.5967 65.471 27.589 65.413C27.5813 65.3548 27.5677 65.2904 27.548 65.2195C27.5283 65.1486 27.4959 65.0906 27.4507 65.0453C27.4054 65 27.3503 64.9773 27.2854 64.9773H26.9753V66.2124ZM26.0427 68.9053V64.2932H27.0573C27.288 64.2932 27.4908 64.3151 27.6659 64.3585C27.841 64.4021 27.9942 64.4705 28.1258 64.5635C28.2573 64.6567 28.3572 64.7823 28.4256 64.9402C28.4939 65.0982 28.5281 65.2873 28.5281 65.5078C28.5281 65.6034 28.5247 65.6889 28.5178 65.764C28.511 65.8391 28.4952 65.925 28.4704 66.0214C28.4457 66.1181 28.4119 66.2034 28.3692 66.2777C28.3265 66.3521 28.265 66.425 28.1848 66.4968C28.1045 66.5685 28.0097 66.6282 27.9004 66.6762C28.1771 67.5541 28.4179 68.2972 28.6229 68.9053H27.6569L27.1291 66.7812H26.9753V68.9053H26.0427Z" fill="#EE3338"/>
<path d="M29.9398 67.3448H30.4163L30.1832 65.6333L29.9398 67.3448ZM28.7714 68.9053L29.7681 64.2932H30.5932L31.5873 68.9053H30.6675L30.4779 67.9187H29.8758L29.6964 68.9053H28.7714Z" fill="#EE3338"/>
<path d="M32.958 68.2519C33.0467 68.2519 33.1168 68.2506 33.1681 68.248C33.2193 68.2455 33.2705 68.2391 33.3218 68.2289C33.373 68.2185 33.4106 68.2045 33.4346 68.1866C33.4585 68.1686 33.4806 68.1426 33.5011 68.1084C33.5217 68.0742 33.5349 68.0337 33.5408 67.9867C33.5468 67.9397 33.5499 67.8812 33.5499 67.8112V65.3284C33.5499 65.1764 33.5045 65.0757 33.414 65.026C33.3235 64.9765 33.1715 64.9509 32.958 64.9492V68.2519ZM31.9894 68.9053V64.2932H32.9528C33.2603 64.2932 33.5135 64.3209 33.7125 64.3765C33.9115 64.432 34.0678 64.5234 34.1814 64.6507C34.295 64.7779 34.3736 64.9304 34.4171 65.1081C34.4607 65.2858 34.4825 65.512 34.4825 65.7871V67.2987C34.4825 67.4627 34.4773 67.6058 34.4671 67.7279C34.4569 67.85 34.4376 67.9696 34.4095 68.0866C34.3813 68.2036 34.3428 68.3028 34.2942 68.3839C34.2454 68.4651 34.1827 68.5406 34.1059 68.6106C34.029 68.6808 33.9363 68.7361 33.8278 68.7771C33.7194 68.8182 33.5921 68.8497 33.446 68.8719C33.3 68.8942 33.1322 68.9053 32.9426 68.9053H31.9894Z" fill="#EE3338"/>
<path d="M35.0769 64.2932H36.0095V68.9053H35.0769V64.2932Z" fill="#EE3338"/>
<path d="M37.1009 68.9053V64.9902H36.4245V64.2932H38.6973V64.9902H38.0336V68.9053H37.1009Z" fill="#EE3338"/>
<path d="M39.1122 64.2932H40.0448V68.9053H39.1122V64.2932Z" fill="#EE3338"/>
<path d="M42.4048 67.5984V65.605C42.4048 65.1507 42.2654 64.9235 41.9871 64.9235C41.9033 64.9235 41.8325 64.9445 41.7742 64.9862C41.7161 65.0281 41.6736 65.0854 41.6463 65.158C41.619 65.2306 41.5998 65.3023 41.5886 65.3732C41.5774 65.4441 41.5718 65.5214 41.5718 65.605V67.5984C41.5718 68.0512 41.7102 68.2774 41.9871 68.2774C42.2654 68.2774 42.4048 68.0512 42.4048 67.5984ZM40.6392 67.3883V65.8382C40.6392 64.7483 41.0884 64.2034 41.9871 64.2034C42.8873 64.2034 43.3373 64.7483 43.3373 65.8382V67.3653C43.3373 67.5498 43.3237 67.7202 43.2963 67.8765C43.269 68.0327 43.2225 68.1809 43.1567 68.321C43.0909 68.4611 43.0071 68.5803 42.9056 68.6785C42.8038 68.7767 42.6754 68.854 42.5199 68.9103C42.3644 68.9666 42.1869 68.9949 41.9871 68.9949C41.7888 68.9949 41.6119 68.9671 41.4567 68.9115C41.3012 68.8562 41.1731 68.7809 41.0722 68.6861C40.9714 68.5913 40.8882 68.4752 40.8225 68.3376C40.7567 68.2001 40.7097 68.0536 40.6815 67.8982C40.6533 67.7429 40.6392 67.5728 40.6392 67.3883Z" fill="#EE3338"/>
<path d="M43.9317 68.9053V64.2907H44.6029L45.6151 66.7043V64.2907H46.3889V68.9053H45.7432L44.7337 66.3455V68.9053H43.9317Z" fill="#EE3338"/>
<path d="M47.9595 67.3448H48.436L48.2028 65.6333L47.9595 67.3448ZM46.7911 68.9053L47.7877 64.2932H48.6127L49.607 68.9053H48.687L48.4974 67.9187H47.8954L47.716 68.9053H46.7911Z" fill="#EE3338"/>
<path d="M50.009 68.9053V64.2932H50.9417V68.2648H51.8589V68.9053H50.009Z" fill="#EE3338"/>
<path d="M53.2577 67.5857L54.2031 67.4037C54.2031 67.4977 54.2048 67.5806 54.2082 67.6522C54.2116 67.7239 54.2206 67.8021 54.2352 67.8867C54.2497 67.9713 54.2694 68.0405 54.2942 68.0943C54.3189 68.148 54.3539 68.1933 54.3992 68.2301C54.4444 68.2668 54.4978 68.2852 54.5594 68.2852C54.7439 68.2852 54.836 68.1672 54.836 67.9315C54.836 67.6086 54.6542 67.2876 54.2903 66.9681L54.0008 66.7222C53.9085 66.6452 53.8351 66.5813 53.7804 66.5299C53.7257 66.4787 53.6613 66.4095 53.587 66.3225C53.5126 66.2353 53.4546 66.1512 53.4127 66.07C53.3708 65.9889 53.335 65.8911 53.3052 65.7766C53.2752 65.6623 53.2603 65.5409 53.2603 65.4129C53.2603 65.0388 53.379 64.7428 53.6164 64.5251C53.8538 64.3072 54.169 64.1983 54.5619 64.1983C54.8882 64.1983 55.1657 64.3145 55.3946 64.5468C55.6235 64.7791 55.738 65.0593 55.738 65.3872L55.7354 65.4205V65.4975L54.7719 65.6306C54.7719 65.6118 54.7733 65.5824 54.7758 65.5423C54.7785 65.5021 54.7797 65.4692 54.7797 65.4436C54.7797 65.382 54.7753 65.3232 54.7668 65.2668C54.7583 65.2104 54.7442 65.1541 54.7246 65.0976C54.7049 65.0413 54.6747 64.9964 54.6337 64.9632C54.5926 64.9299 54.5431 64.9133 54.485 64.9133C54.3825 64.9133 54.3057 64.9533 54.2545 65.0337C54.2031 65.1139 54.1775 65.2087 54.1775 65.3181C54.1775 65.4137 54.1926 65.5034 54.2223 65.587C54.2523 65.6708 54.2976 65.749 54.3581 65.8215C54.4188 65.8941 54.4748 65.9544 54.526 66.0022C54.5772 66.05 54.6456 66.1085 54.731 66.1777C54.8163 66.2469 54.877 66.2977 54.913 66.3301C55.0444 66.4463 55.1555 66.5552 55.246 66.6569C55.3366 66.7585 55.4219 66.8733 55.5023 67.0015C55.5825 67.1295 55.6427 67.2679 55.6829 67.4165C55.7229 67.5652 55.7431 67.7258 55.7431 67.8982C55.7431 68.2211 55.6278 68.4855 55.3972 68.6912C55.1665 68.8971 54.8865 69 54.5567 69C54.3432 69 54.1536 68.9607 53.9879 68.8821C53.8222 68.8036 53.6886 68.6968 53.587 68.5618C53.4853 68.427 53.4071 68.2774 53.3525 68.1134C53.2979 67.9495 53.2662 67.7736 53.2577 67.5857Z" fill="#EE3338"/>
<path d="M56.6577 68.9053V64.9902H55.9812V64.2932H58.2539V64.9902H57.5903V68.9053H56.6577Z" fill="#EE3338"/>
<path d="M59.6018 66.2124H59.8682C59.9399 66.2124 60.0015 66.1885 60.0527 66.1406C60.1039 66.0928 60.1411 66.0321 60.1641 65.9587C60.1872 65.8853 60.2033 65.8178 60.2128 65.7562C60.2221 65.6948 60.2269 65.6367 60.2269 65.582C60.2269 65.5274 60.223 65.471 60.2154 65.413C60.2077 65.3548 60.194 65.2904 60.1743 65.2195C60.1548 65.1486 60.1222 65.0906 60.077 65.0453C60.0317 65 59.9766 64.9773 59.9118 64.9773H59.6018V66.2124ZM58.6691 68.9053V64.2932H59.6837C59.9143 64.2932 60.1171 64.3151 60.2922 64.3585C60.4673 64.4021 60.6206 64.4705 60.7521 64.5635C60.8837 64.6567 60.9836 64.7823 61.0519 64.9402C61.1202 65.0982 61.1545 65.2873 61.1545 65.5078C61.1545 65.6034 61.1509 65.6889 61.1442 65.764C61.1373 65.8391 61.1216 65.925 61.0968 66.0214C61.0719 66.1181 61.0383 66.2034 60.9956 66.2777C60.9529 66.3521 60.8913 66.425 60.8111 66.4968C60.7307 66.5685 60.6359 66.6282 60.5267 66.6762C60.8034 67.5541 61.0443 68.2972 61.2493 68.9053H60.2832L59.7554 66.7812H59.6018V68.9053H58.6691Z" fill="#EE3338"/>
<path d="M61.6488 68.9053V64.2932H63.573V64.9338H62.5815V66.1893H63.2835V66.8452H62.5815V68.2648H63.573V68.9053H61.6488Z" fill="#EE3338"/>
<path d="M64.0112 68.9053V64.2932H65.9354V64.9338H64.9439V66.1893H65.6459V66.8452H64.9439V68.2648H65.9354V68.9053H64.0112Z" fill="#EE3338"/>
<path d="M66.8117 68.9053V64.9902H66.1351V64.2932H68.4078V64.9902H67.7442V68.9053H66.8117Z" fill="#EE3338"/>
<path d="M69.9784 68.9053V64.2932H71.9026V64.9338H70.9111V66.1893H71.613V66.8452H70.9111V68.9053H69.9784Z" fill="#EE3338"/>
<path d="M80.3266 68.2519C80.4153 68.2519 80.4855 68.2506 80.5367 68.248C80.5879 68.2455 80.6391 68.2391 80.6904 68.2289C80.7416 68.2185 80.7792 68.2045 80.8031 68.1866C80.827 68.1686 80.8493 68.1426 80.8698 68.1084C80.8903 68.0742 80.9035 68.0337 80.9095 67.9867C80.9154 67.9397 80.9184 67.8812 80.9184 67.8112V65.3284C80.9184 65.1764 80.8732 65.0757 80.7826 65.026C80.6921 64.9765 80.5401 64.9509 80.3266 64.9492V68.2519ZM79.358 68.9053V64.2932H80.3214C80.6288 64.2932 80.882 64.3209 81.0811 64.3765C81.28 64.432 81.4364 64.5234 81.55 64.6507C81.6636 64.7779 81.7421 64.9304 81.7857 65.1081C81.8293 65.2858 81.8511 65.512 81.8511 65.7871V67.2987C81.8511 67.4627 81.8459 67.6058 81.8357 67.7279C81.8254 67.85 81.8062 67.9696 81.7781 68.0866C81.7499 68.2036 81.7114 68.3028 81.6627 68.3839C81.6141 68.4651 81.5513 68.5406 81.4745 68.6106C81.3975 68.6808 81.3049 68.7361 81.1964 68.7771C81.0879 68.8182 80.9607 68.8497 80.8147 68.8719C80.6685 68.8942 80.5008 68.9053 80.3112 68.9053H79.358Z" fill="#EE3338"/>
<path d="M74.3431 67.5984V65.605C74.3431 65.1507 74.2037 64.9235 73.9253 64.9235C73.8416 64.9235 73.7708 64.9445 73.7125 64.9862C73.6544 65.0281 73.6119 65.0854 73.5846 65.158C73.5573 65.2306 73.5381 65.3023 73.5269 65.3732C73.5157 65.4441 73.5101 65.5214 73.5101 65.605V67.5984C73.5101 68.0512 73.6485 68.2774 73.9253 68.2774C74.2037 68.2774 74.3431 68.0512 74.3431 67.5984ZM72.5775 67.3883V65.8382C72.5775 64.7483 73.0266 64.2034 73.9253 64.2034C74.8256 64.2034 75.2756 64.7483 75.2756 65.8382V67.3653C75.2756 67.5498 75.2619 67.7202 75.2346 67.8765C75.2073 68.0327 75.1608 68.1809 75.095 68.321C75.0292 68.4611 74.9454 68.5803 74.8439 68.6785C74.7421 68.7767 74.6137 68.854 74.4582 68.9103C74.3027 68.9666 74.1252 68.9949 73.9253 68.9949C73.7271 68.9949 73.5502 68.9671 73.395 68.9115C73.2395 68.8562 73.1114 68.7809 73.0105 68.6861C72.9097 68.5913 72.8265 68.4752 72.7608 68.3376C72.695 68.2001 72.648 68.0536 72.6198 67.8982C72.5916 67.7429 72.5775 67.5728 72.5775 67.3883Z" fill="#EE3338"/>
<path d="M77.6967 67.5984V65.605C77.6967 65.1507 77.5573 64.9235 77.279 64.9235C77.1952 64.9235 77.1244 64.9445 77.0661 64.9862C77.0081 65.0281 76.9656 65.0854 76.9382 65.158C76.9109 65.2306 76.8917 65.3023 76.8805 65.3732C76.8694 65.4441 76.8638 65.5214 76.8638 65.605V67.5984C76.8638 68.0512 77.0022 68.2774 77.279 68.2774C77.5573 68.2774 77.6967 68.0512 77.6967 67.5984ZM75.9312 67.3883V65.8382C75.9312 64.7483 76.3803 64.2034 77.279 64.2034C78.1793 64.2034 78.6292 64.7483 78.6292 65.8382V67.3653C78.6292 67.5498 78.6156 67.7202 78.5883 67.8765C78.561 68.0327 78.5144 68.1809 78.4486 68.321C78.3828 68.4611 78.299 68.5803 78.1976 68.6785C78.0958 68.7767 77.9673 68.854 77.8118 68.9103C77.6563 68.9666 77.4788 68.9949 77.279 68.9949C77.0807 68.9949 76.9038 68.9671 76.7486 68.9115C76.5932 68.8562 76.465 68.7809 76.3641 68.6861C76.2634 68.5913 76.1801 68.4752 76.1144 68.3376C76.0486 68.2001 76.0016 68.0536 75.9734 67.8982C75.9453 67.7429 75.9312 67.5728 75.9312 67.3883Z" fill="#EE3338"/>
<path d="M47.0346 49.703C46.9415 50.1635 46.7654 50.604 46.5009 50.9862H55.714V53.0927L52.4614 58.9781C52.16 59.5167 51.8982 59.7859 51.6761 59.7859C51.2743 59.6863 51.0734 59.0732 51.0734 57.947C51.0734 57.6688 51.1036 57.2517 51.1643 56.6959C51.2249 56.1399 51.2554 55.7228 51.2554 55.4449C51.2554 53.3635 50.2893 52.3334 48.3575 52.3547C48.0082 52.3547 47.7232 52.3798 47.5023 52.4296C47.0531 52.5223 46.5934 52.7682 46.123 53.1674L47.5023 54.4184C47.8587 54.0051 48.0903 53.752 48.1973 53.6592C48.4896 53.4027 48.7924 53.2743 49.1061 53.2743C49.5266 53.2743 49.7371 53.3991 49.7371 53.6486C49.7371 53.784 49.6372 53.9872 49.4377 54.2581C48.9955 54.8498 48.7746 55.4876 48.7746 56.1719C48.7746 57.5122 49.3378 58.7311 50.4639 59.8288C51.4905 60.8339 52.3206 61.3364 52.9552 61.3364L56.7512 54.6643C57.2216 53.8375 57.521 53.2957 57.6493 53.0391V50.9862H58.7399L58.7614 49.703H47.0346Z" fill="url(#paint15_linear_47_3763)"/>
<path d="M58.804 43.9719V44.2178C59.1104 44.8952 59.3172 45.3977 59.4242 45.7254C59.5381 45.918 59.8392 46.0944 60.3277 46.2548C60.8158 46.4152 61.2027 46.7199 61.4877 47.169L62.1826 48.591C62.2681 48.6196 62.368 48.6338 62.482 48.6338C62.6175 48.6338 62.6996 48.6196 62.7281 48.591C62.7281 48.413 62.7208 48.2596 62.7066 48.1312C62.5639 47.8605 62.3895 47.3794 62.1826 46.6878C61.9617 45.9537 61.7978 45.4974 61.6908 45.3191C61.4984 44.9914 61.1206 44.7027 60.5576 44.4531C60.2154 44.3034 59.7698 44.143 59.221 43.9719H58.804ZM59.0071 50.9862H63.359V49.703H59.0071V50.9862ZM60.3438 52.312V60.5664L62.14 61.561V52.312H60.3438Z" fill="url(#paint16_linear_47_3763)"/>
<path d="M61.6697 42.0901L62.3432 42.8495C63.1988 43.8126 63.8294 44.8823 64.2357 46.0591C64.5281 46.9008 64.6742 47.6961 64.6742 48.4448V60.6942C64.7098 60.6942 65.0447 60.8584 65.6793 61.1866L66.2352 61.4752C66.3492 61.5322 66.442 61.5714 66.5134 61.5929V48.4235C66.5134 47.8315 66.4347 47.1718 66.278 46.4442C65.9073 44.7254 65.1302 43.2741 63.9471 42.0901H61.6697ZM66.8661 50.9862H67.9996V49.703H66.8661V50.9862ZM63.1237 50.9862H64.3427V49.703H63.1237V50.9862Z" fill="url(#paint17_linear_47_3763)"/>
<path d="M66.2244 42.0901L66.8979 42.8495C67.7535 43.8126 68.3841 44.8823 68.7904 46.0591C69.0828 46.9008 69.2289 47.6961 69.2289 48.4448V60.6942C69.2645 60.6942 69.5994 60.8584 70.234 61.1866L70.7899 61.4752C70.9039 61.5322 70.9967 61.5714 71.0681 61.5929V48.4235C71.0681 47.8315 70.9894 47.1718 70.8327 46.4442C70.462 44.7254 69.6849 43.2741 68.5018 42.0901H66.2244ZM71.4208 50.9862H72.5543V49.703H71.4208V50.9862ZM67.6784 50.9862H68.8974V49.703H67.6784V50.9862Z" fill="url(#paint18_linear_47_3763)"/>
<path d="M72.1161 49.703V50.9861H74.308V53.7523C74.3006 53.7594 74.2828 53.7809 74.2544 53.8166C74.0763 53.9737 73.9406 54.0917 73.848 54.1703V54.9636C74.2543 54.8211 74.6714 54.6608 75.0992 54.4825C76.0543 54.0834 77.1057 53.873 78.2533 53.8517C78.7665 53.8374 79.1711 53.8981 79.4669 54.0334C79.7626 54.1689 80.0673 54.4362 80.3811 54.8353V55.819C79.7609 55.3486 78.9412 55.1133 77.922 55.1133C76.2394 55.1133 74.8319 55.68 73.6985 56.8135C73.1138 57.3981 72.8218 57.9862 72.8218 58.5776C72.8218 59.1053 73.0069 59.5827 73.3777 60.0105C74.1403 60.8945 75.2239 61.3364 76.6282 61.3364C77.6474 61.3364 78.5422 61.1546 79.3119 60.7909C79.554 60.6769 79.8642 60.5096 80.2423 60.2884C80.3348 60.3527 80.3811 60.4989 80.3811 60.7269C81.3647 61.1332 81.9316 61.3646 82.0812 61.4219V57.3053C82.0812 55.4876 81.9279 54.2793 81.6215 53.6806C81.1652 52.7824 80.1353 52.3333 78.5315 52.3333C78.1466 52.3333 77.7578 52.369 77.3658 52.4403C76.4584 52.6047 75.9386 52.712 75.8065 52.7619C75.8025 52.7583 75.7983 52.7544 75.7941 52.7501C75.7656 52.7215 75.7369 52.7071 75.7086 52.7071V50.9861H82.8297V49.703H72.1161ZM73.5487 59.3048C73.5487 59.0268 73.7304 58.6704 74.0941 58.2356C74.9993 57.1521 76.2039 56.6103 77.7081 56.6103C78.1215 56.6103 78.6384 56.7139 79.2583 56.9204C80.0069 57.1699 80.3811 57.4515 80.3811 57.765C80.3811 58.0717 79.9034 58.5136 78.9485 59.0909C77.8506 59.754 76.639 60.0852 75.313 60.0852C74.2865 60.0852 73.6985 59.8251 73.5487 59.3048Z" fill="url(#paint19_linear_47_3763)"/>
<defs>
<linearGradient id="paint0_linear_47_3763" x1="0.760183" y1="38.4915" x2="12.5353" y2="38.4915" gradientUnits="userSpaceOnUse">
<stop stop-color="#F89734"/>
<stop offset="0.511236" stop-color="#F9ED42"/>
<stop offset="0.983791" stop-color="#F89734"/>
<stop offset="1" stop-color="#F89734"/>
</linearGradient>
<linearGradient id="paint1_linear_47_3763" x1="7.64583" y1="39.9296" x2="16.3757" y2="39.9296" gradientUnits="userSpaceOnUse">
<stop stop-color="#F89734"/>
<stop offset="0.511236" stop-color="#F9ED42"/>
<stop offset="0.983791" stop-color="#F89734"/>
<stop offset="1" stop-color="#F89734"/>
</linearGradient>
<radialGradient id="paint2_radial_47_3763" cx="0" cy="0" r="1" gradientUnits="userSpaceOnUse" gradientTransform="translate(6.18755 55.0765) scale(6.11149 6.11149)">
<stop stop-color="#90C84B"/>
<stop offset="0.579782" stop-color="#90C84B"/>
<stop offset="1" stop-color="#22984F"/>
</radialGradient>
<radialGradient id="paint3_radial_47_3763" cx="0" cy="0" r="1" gradientUnits="userSpaceOnUse" gradientTransform="translate(17.3506 56.8145) scale(4.74503)">
<stop stop-color="#90C84B"/>
<stop offset="0.579782" stop-color="#90C84B"/>
<stop offset="1" stop-color="#22984F"/>
</radialGradient>
<radialGradient id="paint4_radial_47_3763" cx="0" cy="0" r="1" gradientUnits="userSpaceOnUse" gradientTransform="translate(28.0115 56.8145) scale(4.74503)">
<stop stop-color="#90C84B"/>
<stop offset="0.579782" stop-color="#90C84B"/>
<stop offset="1" stop-color="#22984F"/>
</radialGradient>
<radialGradient id="paint5_radial_47_3763" cx="0" cy="0" r="1" gradientUnits="userSpaceOnUse" gradientTransform="translate(39.3353 56.6174) scale(5.2685)">
<stop stop-color="#90C84B"/>
<stop offset="0.579782" stop-color="#90C84B"/>
<stop offset="1" stop-color="#22984F"/>
</radialGradient>
<linearGradient id="paint6_linear_47_3763" x1="13.8262" y1="27.3352" x2="51.1915" y2="27.3352" gradientUnits="userSpaceOnUse">
<stop stop-color="#F89734"/>
<stop offset="0.511236" stop-color="#F9ED42"/>
<stop offset="0.983791" stop-color="#F89734"/>
<stop offset="1" stop-color="#F89734"/>
</linearGradient>
<linearGradient id="paint7_linear_47_3763" x1="41.7813" y1="14.1476" x2="61.8478" y2="14.1476" gradientUnits="userSpaceOnUse">
<stop stop-color="#F89734"/>
<stop offset="0.511236" stop-color="#F9ED42"/>
<stop offset="0.983791" stop-color="#F89734"/>
<stop offset="1" stop-color="#F89734"/>
</linearGradient>
<linearGradient id="paint8_linear_47_3763" x1="46.5901" y1="18.8218" x2="54.3492" y2="18.8218" gradientUnits="userSpaceOnUse">
<stop stop-color="#F89734"/>
<stop offset="0.511236" stop-color="#F9ED42"/>
<stop offset="0.983791" stop-color="#F89734"/>
<stop offset="1" stop-color="#F89734"/>
</linearGradient>
<linearGradient id="paint9_linear_47_3763" x1="21.1005" y1="28.8006" x2="45.7227" y2="28.8006" gradientUnits="userSpaceOnUse">
<stop stop-color="#F89734"/>
<stop offset="0.511236" stop-color="#F9ED42"/>
<stop offset="0.983791" stop-color="#F89734"/>
<stop offset="1" stop-color="#F89734"/>
</linearGradient>
<radialGradient id="paint10_radial_47_3763" cx="0" cy="0" r="1" gradientUnits="userSpaceOnUse" gradientTransform="translate(38.7549 19.8468) rotate(-38.0796) scale(14.2117)">
<stop stop-color="#90C84B"/>
<stop offset="0.579782" stop-color="#90C84B"/>
<stop offset="1" stop-color="#22984F"/>
</radialGradient>
<radialGradient id="paint11_radial_47_3763" cx="0" cy="0" r="1" gradientUnits="userSpaceOnUse" gradientTransform="translate(55.099 32.6296) rotate(-38.0796) scale(10.9171)">
<stop stop-color="#90C84B"/>
<stop offset="0.579782" stop-color="#90C84B"/>
<stop offset="1" stop-color="#22984F"/>
</radialGradient>
<linearGradient id="paint12_linear_47_3763" x1="30.0659" y1="37.0518" x2="39.0458" y2="37.0518" gradientUnits="userSpaceOnUse">
<stop stop-color="#F89734"/>
<stop offset="0.511236" stop-color="#F9ED42"/>
<stop offset="0.983791" stop-color="#F89734"/>
<stop offset="1" stop-color="#F89734"/>
</linearGradient>
<linearGradient id="paint13_linear_47_3763" x1="39.5273" y1="39.4952" x2="44.8579" y2="39.4952" gradientUnits="userSpaceOnUse">
<stop stop-color="#F89734"/>
<stop offset="0.511236" stop-color="#F9ED42"/>
<stop offset="0.983791" stop-color="#F89734"/>
<stop offset="1" stop-color="#F89734"/>
</linearGradient>
<linearGradient id="paint14_linear_47_3763" x1="36.6773" y1="40.9719" x2="38.8749" y2="40.9719" gradientUnits="userSpaceOnUse">
<stop stop-color="#F89734"/>
<stop offset="0.511236" stop-color="#F9ED42"/>
<stop offset="0.983791" stop-color="#F89734"/>
<stop offset="1" stop-color="#F89734"/>
</linearGradient>
<linearGradient id="paint15_linear_47_3763" x1="52.2953" y1="47.8348" x2="52.8731" y2="61.9929" gradientUnits="userSpaceOnUse">
<stop stop-color="#F89734"/>
<stop offset="0.511236" stop-color="#F9ED42"/>
<stop offset="0.983791" stop-color="#F89734"/>
<stop offset="1" stop-color="#F89734"/>
</linearGradient>
<linearGradient id="paint16_linear_47_3763" x1="61.066" y1="47.4768" x2="61.6439" y2="61.6349" gradientUnits="userSpaceOnUse">
<stop stop-color="#F89734"/>
<stop offset="0.511236" stop-color="#F9ED42"/>
<stop offset="0.983791" stop-color="#F89734"/>
<stop offset="1" stop-color="#F89734"/>
</linearGradient>
<linearGradient id="paint17_linear_47_3763" x1="64.8928" y1="47.3206" x2="65.4706" y2="61.4787" gradientUnits="userSpaceOnUse">
<stop stop-color="#F89734"/>
<stop offset="0.511236" stop-color="#F9ED42"/>
<stop offset="0.983791" stop-color="#F89734"/>
<stop offset="1" stop-color="#F89734"/>
</linearGradient>
<linearGradient id="paint18_linear_47_3763" x1="69.4399" y1="47.135" x2="70.0178" y2="61.2931" gradientUnits="userSpaceOnUse">
<stop stop-color="#F89734"/>
<stop offset="0.511236" stop-color="#F9ED42"/>
<stop offset="0.983791" stop-color="#F89734"/>
<stop offset="1" stop-color="#F89734"/>
</linearGradient>
<linearGradient id="paint19_linear_47_3763" x1="77.3288" y1="46.8129" x2="77.9066" y2="60.971" gradientUnits="userSpaceOnUse">
<stop stop-color="#F89734"/>
<stop offset="0.511236" stop-color="#F9ED42"/>
<stop offset="0.983791" stop-color="#F89734"/>
<stop offset="1" stop-color="#F89734"/>
</linearGradient>
</defs>
</svg>
