<svg width="84" height="69" viewBox="0 0 84 69" fill="none" xmlns="http://www.w3.org/2000/svg">
<path d="M4.23219 30.1422C4.09674 30.4807 3.96146 32.1499 3.82615 35.1502C3.73571 37.3157 3.60322 39.4277 3.42855 41.4861C3.25355 43.5445 2.99123 44.833 2.64186 45.3519C1.61528 45.3519 1.10229 45.645 1.10229 46.2317C1.10229 46.5925 1.19789 46.801 1.38985 46.8577C1.58151 46.9139 1.73935 46.9422 1.86359 46.9422C2.05524 46.9422 2.25824 46.8971 2.47263 46.8069C2.79957 46.6601 3.0647 46.4233 3.26773 46.0964C3.57238 46.0964 4.02916 46.2033 4.63821 46.4177C6.21718 46.9592 7.40693 47.2467 8.20792 47.2805L9.03693 47.2975C10.2099 47.2975 11.2533 46.9253 12.1668 46.1809C12.6406 45.7749 12.8774 45.4534 12.8774 45.2166C12.8774 45.1151 12.8322 45.0643 12.7421 45.0643C12.6068 45.0643 12.46 45.1629 12.3023 45.3603C12.1441 45.5576 11.8226 45.8197 11.3378 46.1471C10.6383 46.5869 9.85459 46.8069 8.98618 46.8069C8.03883 46.8069 7.14769 46.6771 6.31307 46.4177L5.48404 46.1639C4.4914 45.8256 3.84857 45.6394 3.55542 45.6057C4.0178 44.6583 4.43519 43.2514 4.80729 41.3846C5.17953 39.5179 5.46134 37.6654 5.65326 35.8269C5.84492 33.9886 5.94084 32.4884 5.94084 31.3265C5.94084 30.4468 5.78282 29.9506 5.46721 29.8377C5.20756 29.7362 5.02726 29.6854 4.92576 29.6854C4.65503 29.6854 4.42385 29.8377 4.23219 30.1422Z" fill="white"/>
<path d="M11.9976 38.7031L11.9638 38.6184C11.8847 38.3252 11.7269 38.0291 11.4901 37.7302C11.2531 37.4314 10.8244 37.248 10.2043 37.1803C9.68536 37.1917 9.26239 37.3892 8.93542 37.7725C8.60804 38.156 8.36859 38.5622 8.21632 38.9906C8.06404 39.4194 7.98792 39.9439 7.98792 40.564C7.98792 41.3085 8.12911 41.9712 8.41092 42.5519C8.69272 43.1329 9.12707 43.4233 9.71355 43.4233C10.0744 43.4233 10.3989 43.1922 10.6864 42.7296C10.974 42.2672 11.2304 41.771 11.4561 41.2407C11.6364 40.8347 11.7946 40.5246 11.9299 40.3102V40.3779C11.9299 41.3366 12.1779 42.1036 12.6744 42.6788C13.1705 43.254 13.7064 43.5416 14.2815 43.5416H14.383C15.2063 43.429 15.8436 42.583 16.2948 41.0039C16.5766 40.034 16.7178 39.4588 16.7178 39.2782C16.7178 39.1656 16.6613 39.1091 16.5486 39.1091C16.3795 39.1091 16.2721 39.2502 16.2271 39.532C16.0918 40.1299 15.8774 40.8093 15.5843 41.5706C15.2908 42.3319 14.8737 42.8086 14.3322 43.0003C14.242 43.023 14.1573 43.0341 14.0785 43.0341C13.7965 43.0341 13.5652 42.8932 13.3849 42.6111C13.2607 42.3405 13.1987 42.0304 13.1987 41.6807C13.1987 41.0491 13.3736 40.1863 13.7232 39.0921C13.9712 38.2914 14.0955 37.7106 14.0955 37.3495L14.0785 37.0958C14.0558 36.7125 13.7852 36.4587 13.2664 36.3345L13.148 36.3175C12.5953 36.3175 12.2117 37.1126 11.9976 38.7031ZM9.74747 42.2558V41.8837C9.83762 40.3385 10.052 39.1826 10.3903 38.4154C10.5482 38.0884 10.7004 37.9248 10.8471 37.9248C11.0727 37.9248 11.2701 38.1392 11.4393 38.5676C11.5632 38.8835 11.6254 39.1599 11.6254 39.3966C11.6254 39.4871 11.5632 39.6674 11.4393 39.938C11.0557 40.784 10.7568 41.41 10.5426 41.816C10.2605 42.38 10.0461 42.6618 9.89975 42.6618C9.79824 42.6618 9.74747 42.5265 9.74747 42.2558Z" fill="white"/>
<path d="M0.769041 48.8321C1.09156 48.8561 1.37514 48.9874 1.6202 49.2263C1.86483 49.4653 1.98743 49.752 1.98743 50.0864V59.8336C1.98743 60.2278 1.84692 60.5746 1.56644 60.8728C1.28555 61.1717 0.948215 61.3209 0.554016 61.3209H6.01906C5.89943 61.3091 5.78882 61.2433 5.68752 61.1237C5.58592 61.0046 5.49945 60.8641 5.42777 60.7027C5.3561 60.5416 5.29926 60.3802 5.2575 60.2191C5.21545 60.0577 5.19484 59.9295 5.19484 59.8336V56.1605C5.76821 56.316 6.37742 56.3934 7.02244 56.3934C7.61967 56.3934 8.24086 56.3129 8.88589 56.1516C9.53094 55.9903 10.1222 55.7457 10.6598 55.4169C11.1973 55.0885 11.6392 54.6705 11.9857 54.1627C12.332 53.6551 12.5053 53.0548 12.5053 52.3619C12.5053 51.6094 12.3082 51.0033 11.914 50.5432C11.5198 50.0836 11.03 49.728 10.4447 49.4772C9.85939 49.2263 9.22633 49.056 8.54547 48.9664C7.86459 48.8769 7.23127 48.8321 6.64619 48.8321H0.769041ZM5.8578 55.9634C5.63066 55.9158 5.40985 55.8559 5.19484 55.7842V49.2263C5.32606 49.2025 5.45148 49.1905 5.57111 49.1905H5.9474C7.04616 49.1905 7.85261 49.4981 8.3663 50.1132C8.8797 50.7286 9.13674 51.5676 9.13674 52.6307C9.13674 53.049 9.09471 53.4611 9.01132 53.867C8.92766 54.2733 8.78431 54.6375 8.58131 54.96C8.378 55.2825 8.11234 55.5424 7.7839 55.7395C7.45531 55.9366 7.04616 56.035 6.55661 56.035C6.31746 56.035 6.08452 56.0114 5.8578 55.9634Z" fill="white"/>
<path d="M15.2844 52.5411C14.508 52.6964 13.7737 52.9236 13.0811 53.222V55.6409C13.2124 55.2825 13.4243 54.9242 13.717 54.5658C14.0091 54.2074 14.3407 53.888 14.7108 53.6073C15.081 53.3267 15.4752 53.0965 15.893 52.9174C16.3108 52.7382 16.7109 52.6486 17.0931 52.6486C17.3315 52.6486 17.5345 52.7086 17.702 52.8278C17.8691 52.9473 18.0035 53.1028 18.1048 53.2936C18.2062 53.4848 18.2809 53.6909 18.3289 53.9119C18.3764 54.133 18.4005 54.3391 18.4005 54.53V56.1605C18.1256 56.1963 17.7971 56.2443 17.4151 56.3038C17.0326 56.3638 16.6325 56.4472 16.2144 56.5547C15.7963 56.6622 15.3782 56.7907 14.9602 56.94C14.542 57.0895 14.1657 57.2715 13.8314 57.4865C13.4969 57.7015 13.2281 57.9496 13.0251 58.23C12.8218 58.5108 12.7205 58.8364 12.7205 59.2066C12.7205 59.5291 12.7921 59.8189 12.9355 60.0757C13.0788 60.3328 13.2639 60.5503 13.4909 60.7295C13.7177 60.9087 13.9775 61.0464 14.2704 61.1417C14.5629 61.2374 14.8527 61.2851 15.1394 61.2851C15.7844 61.2851 16.3785 61.1327 16.9223 60.8282C17.4657 60.5235 17.9584 60.1623 18.4005 59.7442C18.4722 60.2459 18.6693 60.6341 18.9918 60.9087C19.3143 61.1838 19.7264 61.3209 20.2282 61.3209H22.6649C22.39 61.2851 22.1692 61.2015 22.002 61.0701C21.8345 60.9389 21.7033 60.7775 21.6078 60.5862C21.512 60.3954 21.4465 60.1832 21.4107 59.9502C21.3749 59.7174 21.357 59.4815 21.357 59.2425V54.9779C21.357 54.4404 21.2432 53.9986 21.0165 53.652C20.7898 53.3056 20.4941 53.0339 20.1298 52.8368C19.7657 52.6397 19.3596 52.5024 18.9117 52.4246C18.4637 52.3471 18.0192 52.3082 17.5774 52.3082C16.8248 52.3082 16.0605 52.386 15.2844 52.5411ZM15.9976 59.5291C15.8077 59.2306 15.7127 58.8903 15.7127 58.5077C15.7127 58.1615 15.8015 57.8748 15.9797 57.6476C16.1577 57.4211 16.383 57.2357 16.656 57.0923C16.929 56.949 17.2198 56.8412 17.5284 56.7695C17.8369 56.698 18.1275 56.6443 18.4005 56.6084V59.2603C18.1986 59.4637 17.9702 59.6338 17.7152 59.771C17.4598 59.9084 17.1899 59.9769 16.9055 59.9769C16.49 59.9769 16.1873 59.828 15.9976 59.5291Z" fill="white"/>
<path d="M25.9454 52.5411C25.1689 52.6964 24.4345 52.9236 23.7419 53.222V55.6409C23.8733 55.2825 24.0852 54.9242 24.3778 54.5658C24.67 54.2074 25.0016 53.888 25.3718 53.6073C25.7417 53.3267 26.1359 53.0965 26.554 52.9174C26.9717 52.7382 27.3718 52.6486 27.7538 52.6486C27.9925 52.6486 28.1954 52.7086 28.3628 52.8278C28.5301 52.9473 28.6644 53.1028 28.7657 53.2936C28.867 53.4848 28.9417 53.6909 28.9897 53.9119C29.0374 54.133 29.0614 54.3391 29.0614 54.53V56.1605C28.7866 56.1963 28.4581 56.2443 28.0758 56.3038C27.6934 56.3638 27.2933 56.4472 26.8754 56.5547C26.457 56.6622 26.0391 56.7907 25.6212 56.94C25.2029 57.0895 24.8266 57.2715 24.4922 57.4865C24.1577 57.7015 23.889 57.9496 23.6859 58.23C23.4826 58.5108 23.3813 58.8364 23.3813 59.2066C23.3813 59.5291 23.453 59.8189 23.5964 60.0757C23.7397 60.3328 23.9248 60.5503 24.1518 60.7295C24.3785 60.9087 24.6384 61.0464 24.9313 61.1417C25.2238 61.2374 25.5137 61.2851 25.8004 61.2851C26.4454 61.2851 27.0394 61.1327 27.5831 60.8282C28.1266 60.5235 28.6193 60.1623 29.0614 59.7442C29.1331 60.2459 29.33 60.6341 29.6525 60.9087C29.975 61.1838 30.3873 61.3209 30.889 61.3209H33.3258C33.051 61.2851 32.83 61.2015 32.663 61.0701C32.4954 60.9389 32.3642 60.7775 32.2688 60.5862C32.1729 60.3954 32.1074 60.1832 32.0716 59.9502C32.0357 59.7174 32.018 59.4815 32.018 59.2425V54.9779C32.018 54.4404 31.9043 53.9986 31.6774 53.652C31.4505 53.3056 31.1551 53.0339 30.7908 52.8368C30.4265 52.6397 30.0205 52.5024 29.5727 52.4246C29.1246 52.3471 28.6799 52.3082 28.2383 52.3082C27.4858 52.3082 26.7214 52.386 25.9454 52.5411ZM26.6585 59.5291C26.4686 59.2306 26.3737 58.8903 26.3737 58.5077C26.3737 58.1615 26.4623 57.8748 26.6404 57.6476C26.8184 57.4211 27.0439 57.2357 27.3168 57.0923C27.5899 56.949 27.8808 56.8412 28.1892 56.7695C28.4979 56.698 28.7883 56.6443 29.0614 56.6084V59.2603C28.8594 59.4637 28.6311 59.6338 28.376 59.771C28.1207 59.9084 27.8509 59.9769 27.5662 59.9769C27.1508 59.9769 26.8481 59.828 26.6585 59.5291Z" fill="white"/>
<path d="M37.3213 52.3887C37.0462 52.5024 36.7567 52.592 36.4522 52.6576C36.1475 52.7234 35.8399 52.7652 35.5295 52.7831C35.2186 52.801 34.9381 52.8099 34.6873 52.8099H34.3111C34.5857 52.9415 34.7679 53.1116 34.8574 53.3206C34.9471 53.5297 34.992 53.7715 34.992 54.0462V59.9233C34.992 60.2817 34.9051 60.5924 34.7321 60.8551C34.5589 61.118 34.2809 61.2732 33.8989 61.3209H38.9517C38.7965 61.3209 38.6588 61.2761 38.5397 61.1866C38.42 61.0969 38.3185 60.9835 38.235 60.846C38.1514 60.7089 38.0885 60.5624 38.047 60.407C38.005 60.2521 37.9841 60.1087 37.9841 59.9769V54.4762C38.259 54.2612 38.5634 54.0731 38.8981 53.9119C39.2322 53.7506 39.5789 53.6699 39.9373 53.6699C40.439 53.6699 40.821 53.8252 41.084 54.1358C41.3467 54.4466 41.4782 54.8346 41.4782 55.3004V59.6725C41.4782 59.8398 41.463 60.0218 41.4334 60.2191C41.4034 60.416 41.3467 60.5952 41.2632 60.7566C41.1794 60.9177 41.0688 61.052 40.9316 61.1595C40.7942 61.267 40.6182 61.3209 40.4032 61.3209H45.4559C45.1334 61.3209 44.9035 61.1928 44.766 60.9358C44.6286 60.679 44.5423 60.3384 44.5065 59.9143C44.4706 59.4905 44.4675 59.0094 44.4974 58.4719C44.527 57.9343 44.5451 57.3852 44.551 56.8234C44.557 56.2622 44.5301 55.7125 44.4706 55.175C44.4105 54.6375 44.2793 54.1568 44.0764 53.7327C43.873 53.3087 43.5747 52.9683 43.1805 52.7114C42.7863 52.4546 42.2604 52.3261 41.6035 52.3261C40.9108 52.3261 40.2598 52.4935 39.6506 52.8278C39.0414 53.1623 38.4858 53.5565 37.9841 54.0103V51.914C37.8168 52.1173 37.5959 52.2754 37.3213 52.3887Z" fill="white"/>
<path d="M31.3799 3.48423C30.6382 3.79142 30.0604 4.36904 29.7532 5.11082C29.5745 5.54216 29.5005 5.99889 29.5296 6.45144C29.2301 6.11087 28.8549 5.84029 28.4236 5.66161C27.682 5.35439 26.865 5.35455 26.1231 5.66176C25.0536 6.1048 24.5438 7.33529 24.9868 8.40498C25.1384 8.7706 25.4231 9.05546 25.7889 9.20685C26.1543 9.35842 26.5573 9.35842 26.9231 9.20685C27.1849 9.0985 27.3889 8.89448 27.4973 8.6327C27.6058 8.37072 27.6058 8.08224 27.4973 7.82043C27.4183 7.62943 27.2694 7.48055 27.0783 7.40142C26.887 7.32226 26.6768 7.32226 26.4856 7.40142C26.4036 7.43531 26.3646 7.5294 26.3986 7.61157C26.4325 7.69367 26.527 7.73231 26.6087 7.69856C26.72 7.65236 26.8432 7.65236 26.9551 7.69856C27.067 7.74488 27.154 7.83187 27.2002 7.94354C27.2757 8.12604 27.2758 8.32709 27.2002 8.50957C27.1246 8.69207 26.9825 8.83416 26.8 8.90973C26.5135 9.02846 26.1981 9.02846 25.912 8.90973C25.6256 8.79118 25.4025 8.56815 25.284 8.28185C25.1023 7.84304 25.1023 7.3598 25.284 6.92115C25.4657 6.48234 25.8074 6.14058 26.2462 5.95888C26.5551 5.83057 26.8955 5.83057 27.2041 5.95857C27.5128 6.08643 27.7533 6.327 27.8814 6.63623C27.8816 6.63643 27.8816 6.63653 27.8817 6.63671C27.8872 6.64985 27.895 6.66188 27.9038 6.67321C27.9058 6.67583 27.9078 6.67839 27.91 6.68085C27.9191 6.69125 27.9293 6.7008 27.9413 6.70868C27.9421 6.70923 27.943 6.70954 27.9439 6.7101C27.9516 6.71501 27.9597 6.71963 27.9684 6.72327C28.7286 7.03815 29.3204 7.62942 29.6348 8.38847C29.9481 9.14505 29.9487 9.97841 29.6371 10.7364C29.2594 11.4976 28.6591 12.1106 27.9078 12.5027C27.9744 12.1024 27.8548 11.6769 27.5466 11.3687C27.2261 11.048 26.7997 10.8713 26.3463 10.8713C25.8928 10.8713 25.4664 11.048 25.1459 11.3687C24.7239 11.7906 24.4915 12.3517 24.4915 12.9484C24.4915 13.1325 24.5162 13.3124 24.5591 13.4867L23.4917 12.4192C23.5315 12.3431 23.555 12.2591 23.555 12.1708C23.555 12.0269 23.4989 11.8914 23.397 11.7896C23.229 11.6216 22.9777 11.5903 22.7759 11.6908C22.6375 11.5128 22.5616 11.2958 22.5616 11.0667C22.5616 10.7942 22.6678 10.538 22.8605 10.3453C23.1115 10.0944 23.5201 10.0944 23.7711 10.3453C23.8443 10.4185 23.8846 10.5159 23.8846 10.6194C23.8846 10.7229 23.8443 10.8203 23.7711 10.8935C23.6883 10.9762 23.5531 10.9765 23.47 10.8935C23.4334 10.8569 23.4334 10.7974 23.488 10.7607C23.5509 10.8236 23.6527 10.8236 23.7155 10.7607C23.7783 10.6979 23.7783 10.5962 23.7155 10.5333C23.5853 10.4031 23.3731 10.4028 23.2426 10.5333C23.0805 10.6953 23.0805 10.9589 23.2426 11.1209C23.4508 11.3291 23.7899 11.3294 23.9985 11.1209C24.1325 10.987 24.2063 10.809 24.2063 10.6194C24.2063 10.43 24.1325 10.2519 23.9985 10.1179C23.6219 9.74135 23.0094 9.74163 22.6331 10.1179C22.3796 10.3713 22.24 10.7083 22.24 11.0667C22.24 11.1987 22.2592 11.3277 22.2959 11.4508C22.1728 11.4142 22.0438 11.3949 21.9118 11.3949C21.5534 11.3949 21.2163 11.5346 20.963 11.788C20.5865 12.1644 20.5865 12.7769 20.963 13.1534C21.097 13.2874 21.2751 13.3612 21.4645 13.3612C21.654 13.3612 21.8321 13.2874 21.9659 13.1534C22.1744 12.945 22.1744 12.606 21.9659 12.3975C21.8039 12.2356 21.5405 12.2353 21.3784 12.3975C21.2481 12.5279 21.2481 12.7401 21.3784 12.8704C21.4411 12.9332 21.543 12.9241 21.6058 12.8614C21.6686 12.7986 21.6686 12.6878 21.6058 12.625C21.6429 12.5885 21.7021 12.5888 21.7385 12.625C21.8215 12.708 21.8215 12.8429 21.7385 12.926C21.5921 13.0724 21.3368 13.0724 21.1904 12.926C20.9394 12.6749 20.9394 12.2665 21.1904 12.0154C21.5452 11.6607 22.1421 11.6333 22.5354 11.9317C22.4354 12.1334 22.4669 12.3842 22.6347 12.5519C22.7364 12.6538 22.8719 12.7099 23.0158 12.7099C23.1042 12.7099 23.1882 12.6864 23.2643 12.6466L24.3317 13.7141C24.1575 13.6711 23.9776 13.6464 23.7935 13.6464C23.1967 13.6464 22.6356 13.8788 22.2138 14.3008C21.8931 14.6214 21.7163 15.0478 21.7163 15.5012C21.7163 15.9546 21.8931 16.381 22.2138 16.7015C22.4672 16.955 22.8 17.0816 23.1329 17.0816C23.2048 17.0816 23.2767 17.0745 23.3478 17.0626C22.9558 17.814 22.3427 18.4143 21.5815 18.792C20.8232 19.1033 19.9898 19.1028 19.2335 18.7897C18.4745 18.4753 17.8832 17.8835 17.5683 17.1234C17.5672 17.1206 17.5654 17.1182 17.5641 17.1155C17.5609 17.1087 17.5576 17.1019 17.5534 17.0956C17.5507 17.0915 17.5472 17.088 17.5441 17.0842C17.5406 17.0798 17.5373 17.0752 17.5333 17.0712C17.5303 17.0682 17.5268 17.0658 17.5235 17.063C17.5187 17.0589 17.5141 17.0547 17.5088 17.0511C17.5065 17.0497 17.5041 17.0487 17.5018 17.0474C17.4952 17.0434 17.4886 17.0394 17.4813 17.0364C17.1721 16.9082 16.9315 16.6678 16.8036 16.359C16.6758 16.0504 16.6758 15.7102 16.804 15.4011C16.9856 14.9623 17.3274 14.6206 17.7662 14.4389C18.2047 14.257 18.6881 14.257 19.1269 14.4389C19.4132 14.5575 19.6362 14.7805 19.7548 15.0669C19.8734 15.3532 19.8734 15.6686 19.7548 15.9549C19.6792 16.1374 19.5371 16.2795 19.3546 16.3551C19.1725 16.431 18.9714 16.431 18.7886 16.3551C18.6769 16.3089 18.5899 16.2219 18.5436 16.1101C18.4974 15.9984 18.4974 15.8753 18.5436 15.7636C18.5776 15.6815 18.5386 15.5874 18.4566 15.5535C18.3751 15.5197 18.2805 15.5585 18.2465 15.6405C18.1673 15.8316 18.1673 16.0421 18.2465 16.2332C18.3256 16.4243 18.4745 16.5732 18.6655 16.6522C18.9274 16.7609 19.2158 16.7609 19.4778 16.6522C19.7396 16.5439 19.9436 16.3398 20.0519 16.078C20.2035 15.7123 20.2035 15.3096 20.0519 14.9438C19.9005 14.578 19.6157 14.2933 19.2501 14.1417C18.1802 13.6984 16.9497 14.2083 16.5068 15.278C16.1995 16.0198 16.1995 16.8368 16.5067 17.5785C16.6854 18.0099 16.956 18.3852 17.2967 18.6846C16.8441 18.6555 16.3873 18.7295 15.9559 18.9081C15.2141 19.2153 14.6365 19.7931 14.3293 20.5348C13.8862 21.6045 14.396 22.835 15.4656 23.2781C15.8318 23.4296 16.2345 23.4296 16.5998 23.2781C16.9656 23.1267 17.2505 22.8418 17.4019 22.476C17.5104 22.2142 17.5104 21.9257 17.4019 21.6639C17.2935 21.4019 17.0895 21.1981 16.8275 21.0896C16.4332 20.9258 15.9791 21.1141 15.8158 21.5086C15.7817 21.5905 15.8208 21.6846 15.9028 21.7187C15.9846 21.7523 16.079 21.7138 16.1129 21.6317C16.2084 21.401 16.4743 21.2912 16.7044 21.3867C16.887 21.4624 17.0292 21.6045 17.1047 21.787C17.1804 21.9693 17.1802 22.1704 17.1047 22.3529C16.9861 22.6393 16.7631 22.8624 16.4767 22.981C16.1905 23.0997 15.8748 23.0997 15.5887 22.981C15.1499 22.7992 14.8081 22.4575 14.6265 22.0187C14.4447 21.58 14.4447 21.0968 14.6265 20.658C14.8906 20.0205 15.6237 19.7166 16.2617 19.9806C16.2715 19.9846 16.2816 19.9876 16.292 19.9897C16.2951 19.9903 16.2983 19.9902 16.3014 19.9907C16.3088 19.9917 16.3162 19.9927 16.3237 19.9927C16.3252 19.9927 16.3267 19.9923 16.3282 19.9922C16.3471 19.9917 16.3662 19.9882 16.3847 19.9806C17.1447 19.6655 17.9815 19.6652 18.7405 19.98C19.4968 20.2933 20.0866 20.8821 20.4023 21.6382C20.6735 22.4435 20.6825 23.3016 20.4285 24.1102C20.1925 23.7801 19.8071 23.5637 19.3712 23.5637C18.4352 23.5637 17.6736 24.3253 17.6736 25.2613C17.6736 26.0713 18.107 26.782 18.7541 27.1737H17.2492C17.1806 26.9548 16.9759 26.7955 16.7347 26.7955C16.497 26.7955 16.2951 26.9504 16.2236 27.1644C15.7227 27.0999 15.334 26.6717 15.334 26.1537C15.334 25.7986 15.6229 25.5098 15.9779 25.5098C16.1917 25.5098 16.3655 25.6836 16.3655 25.8973C16.3655 26.0147 16.2701 26.1102 16.1528 26.1102C16.1009 26.1102 16.0588 26.0681 16.0715 26.0037C16.1604 26.0037 16.2324 25.9318 16.2324 25.8429C16.2324 25.7539 16.1604 25.682 16.0715 25.682C15.8872 25.682 15.7372 25.832 15.7372 26.0164C15.7372 26.2454 15.9236 26.4318 16.1528 26.4318C16.4474 26.4318 16.6872 26.192 16.6872 25.8973C16.6872 25.5063 16.369 25.1881 15.9779 25.1881C15.4455 25.1881 15.0124 25.6212 15.0124 26.1537C15.0124 26.6634 15.2983 27.1075 15.718 27.3346C15.2983 27.5616 15.0124 28.0058 15.0124 28.5156C15.0124 29.0479 15.4455 29.4811 15.9779 29.4811C16.369 29.4811 16.6872 29.1629 16.6872 28.7719C16.6872 28.4771 16.4474 28.2372 16.1528 28.2372C15.9236 28.2372 15.7372 28.4237 15.7372 28.6528C15.7372 28.8372 15.8872 28.9872 16.0715 28.9872C16.1604 28.9872 16.2261 28.9088 16.2261 28.82C16.2261 28.7312 16.1478 28.6528 16.0588 28.6528C16.0588 28.601 16.1009 28.5589 16.1528 28.5589C16.2701 28.5589 16.3655 28.6544 16.3655 28.7719C16.3655 28.9856 16.1917 29.1595 15.9779 29.1595C15.6229 29.1595 15.334 28.8707 15.334 28.5156C15.334 27.9974 15.7227 27.5692 16.2236 27.5047C16.295 27.7188 16.497 27.8737 16.7347 27.8737C16.976 27.8737 17.1807 27.7143 17.2493 27.4954H18.7542C18.1071 27.8872 17.6736 28.5979 17.6736 29.4079C17.6736 30.344 18.4352 31.1055 19.3712 31.1055C19.8069 31.1055 20.1923 30.8893 20.4283 30.5594C20.69 31.3957 20.662 32.2653 20.3937 33.0503C19.7348 34.5992 17.9437 35.3347 16.3847 34.6887C16.3673 34.6815 16.3494 34.6783 16.3317 34.6773C16.3289 34.6772 16.3262 34.6766 16.3234 34.6766C16.3173 34.6766 16.3113 34.6775 16.3053 34.6782C16.3007 34.6787 16.2962 34.6788 16.2917 34.6797C16.2863 34.6808 16.2811 34.6828 16.2759 34.6844C16.2711 34.6858 16.2663 34.6867 16.2616 34.6887C15.6233 34.9529 14.8906 34.6487 14.6264 34.0113C14.2512 33.1056 14.6829 32.0635 15.5886 31.6883C16.1799 31.4438 16.8598 31.7251 17.1047 32.3162C17.1802 32.4987 17.1803 32.6998 17.1047 32.8822C17.0291 33.0647 16.887 33.2069 16.7043 33.2824C16.4738 33.3783 16.2086 33.2681 16.1129 33.0374C16.0789 32.9553 15.9847 32.9165 15.9027 32.9504C15.8208 32.9845 15.7816 33.0785 15.8157 33.1605C15.9792 33.555 16.4332 33.7433 16.8274 33.5795C17.0893 33.4712 17.2933 33.2671 17.4018 33.0054C17.5103 32.7434 17.5103 32.4549 17.4018 32.1931C17.0891 31.4381 16.2204 31.0783 15.4655 31.3912C14.9474 31.6057 14.5437 32.0093 14.3292 32.5274C14.1145 33.0456 14.1145 33.6163 14.3292 34.1344C14.6364 34.8762 15.2141 35.4538 15.956 35.7611C16.3268 35.9148 16.7164 35.9915 17.1062 35.9915C17.1697 35.9915 17.2331 35.9887 17.2965 35.9847C16.9559 36.2841 16.6853 36.6594 16.5066 37.0907C16.1994 37.8325 16.1994 38.6495 16.5068 39.3913C16.7213 39.9094 17.1249 40.313 17.643 40.5275C17.902 40.6348 18.1743 40.6885 18.4465 40.6885C18.7187 40.6885 18.9908 40.6348 19.25 40.5275C19.6156 40.376 19.9005 40.0912 20.0519 39.7254C20.2034 39.3597 20.2034 38.957 20.0519 38.5912C19.8281 38.0508 19.2066 37.7932 18.6654 38.0169C18.2711 38.1804 18.0831 38.6341 18.2464 39.0286C18.2805 39.1107 18.3747 39.1498 18.4566 39.1156C18.5385 39.0817 18.5775 38.9876 18.5435 38.9055C18.4481 38.6749 18.558 38.4095 18.7886 38.314C18.9712 38.2386 19.1722 38.2385 19.3546 38.3142C19.5371 38.3897 19.6792 38.5318 19.7547 38.7143C19.9996 39.3055 19.718 39.9855 19.1269 40.2304C18.688 40.4122 18.2047 40.4122 17.7661 40.2304C17.3273 40.0487 16.9856 39.7069 16.8039 39.2681C16.6758 38.959 16.6756 38.6187 16.8036 38.3101C16.9314 38.0015 17.172 37.7609 17.4812 37.6329C17.4898 37.6293 17.4977 37.6248 17.5053 37.62C17.5064 37.6193 17.5075 37.6189 17.5085 37.6182C17.5203 37.6104 17.5305 37.6009 17.5396 37.5906C17.5419 37.5881 17.5439 37.5854 17.546 37.5827C17.5547 37.5715 17.5624 37.5596 17.5678 37.5467C17.5679 37.5464 17.5682 37.5462 17.5683 37.5459C17.8832 36.7857 18.4745 36.194 19.2336 35.8795C19.9899 35.5663 20.8234 35.5657 21.5814 35.8771C22.3424 36.2547 22.9553 36.8547 23.3475 37.6058C23.2771 37.5942 23.2056 37.5869 23.1328 37.5869C22.7855 37.5869 22.4592 37.7221 22.2137 37.9677C21.893 38.2883 21.7163 38.7147 21.7163 39.1681C21.7163 39.6215 21.893 40.0477 22.2137 40.3684C22.6492 40.8039 23.2212 41.0217 23.7935 41.0217C23.975 41.0217 24.1562 40.9973 24.3334 40.9534L23.2639 42.0228C23.061 41.9173 22.8052 41.9469 22.6346 42.1172C22.4666 42.2852 22.4353 42.5365 22.5358 42.7382C22.1355 43.0481 21.5569 43.0205 21.1904 42.6538C21.0688 42.5323 21.0017 42.3705 21.0017 42.1985C21.0017 42.0264 21.0688 41.8646 21.1904 41.7431C21.3411 41.5923 21.5871 41.5917 21.7385 41.7431C21.8214 41.8262 21.8214 41.9612 21.7383 42.0441C21.7031 42.0798 21.6414 42.0971 21.6056 42.0264C21.6686 41.9636 21.6686 41.8618 21.6059 41.799C21.5431 41.7359 21.4413 41.7362 21.3785 41.7987C21.3152 41.8618 21.2803 41.9458 21.2803 42.0352C21.2803 42.1246 21.3152 42.2086 21.3782 42.2716C21.5354 42.4286 21.8093 42.4289 21.9659 42.2716C22.1741 42.0633 22.1743 41.7242 21.9659 41.5157C21.6896 41.2394 21.2398 41.2391 20.9629 41.5157C20.5865 41.8922 20.5865 42.5048 20.9629 42.8812C21.2244 43.1429 21.5681 43.2736 21.9117 43.2736C22.0412 43.2736 22.1708 43.2548 22.296 43.2176C22.2592 43.341 22.2399 43.4703 22.2399 43.6026C22.2399 43.961 22.3795 44.2978 22.633 44.5513C22.8212 44.7396 23.0685 44.8337 23.3157 44.8337C23.5629 44.8337 23.8103 44.7396 23.9985 44.5513C24.275 44.2748 24.275 43.8248 23.9985 43.5482C23.7899 43.3394 23.4506 43.34 23.2424 43.5482C23.0808 43.7103 23.0808 43.9738 23.2427 44.1361C23.373 44.2663 23.5849 44.266 23.7153 44.1361C23.7782 44.0733 23.7693 43.9717 23.7065 43.9087C23.6436 43.8459 23.5329 43.846 23.4701 43.9085C23.4333 43.8719 23.4333 43.8123 23.47 43.7756C23.553 43.6927 23.6882 43.6927 23.771 43.7756C23.9221 43.9269 23.9221 44.1727 23.771 44.3239C23.5201 44.5749 23.1114 44.5749 22.8604 44.3239C22.6677 44.1312 22.5616 43.8751 22.5616 43.6026C22.5616 43.3736 22.6374 43.1567 22.7757 42.9787C22.8497 43.0158 22.9307 43.0375 23.0158 43.0375C23.1598 43.0375 23.2951 42.9813 23.3969 42.8795C23.4987 42.7778 23.5549 42.6424 23.5549 42.4984C23.5549 42.4101 23.5315 42.326 23.4916 42.2499L24.559 41.1825C24.5161 41.3568 24.4914 41.5367 24.4914 41.7208C24.4914 42.3174 24.7238 42.8785 25.1458 43.3006C25.4767 43.6315 25.9115 43.797 26.3462 43.797C26.7809 43.797 27.2156 43.6315 27.5465 43.3006C27.8547 42.9924 27.9743 42.5668 27.9077 42.1665C28.6589 42.5585 29.2591 43.1714 29.6368 43.9323C29.9486 44.6904 29.9481 45.524 29.6347 46.2806C29.3203 47.0397 28.7285 47.6311 27.9684 47.946C27.9645 47.9476 27.9611 47.95 27.9574 47.9519C27.9518 47.9548 27.946 47.9573 27.9407 47.9609C27.9363 47.9638 27.9326 47.9673 27.9286 47.9706C27.9244 47.974 27.9201 47.9771 27.9162 47.9809C27.9127 47.9845 27.9098 47.9886 27.9066 47.9925C27.9031 47.9967 27.8993 48.0007 27.8962 48.0053C27.8921 48.0115 27.8889 48.0182 27.8857 48.0249C27.8844 48.0277 27.8826 48.0301 27.8814 48.033C27.6174 48.6708 26.8839 48.9747 26.2461 48.7104C25.8073 48.5287 25.4656 48.1869 25.2839 47.7481C25.1022 47.3095 25.1022 46.8262 25.2839 46.3874C25.5287 45.7961 26.2086 45.5139 26.7999 45.7594C27.1767 45.9155 27.3562 46.3489 27.2001 46.7257C27.1537 46.8374 27.0669 46.9244 26.9551 46.9705C26.8436 47.0173 26.7204 47.0167 26.6086 46.9705C26.5266 46.9369 26.4324 46.9754 26.3985 47.0575C26.3644 47.1395 26.4034 47.2336 26.4855 47.2677C26.6766 47.3468 26.8871 47.3467 27.0782 47.2678C27.2694 47.1887 27.4182 47.0398 27.4972 46.8487C27.7212 46.3081 27.4636 45.6862 26.923 45.4622C26.5576 45.3108 26.1546 45.3108 25.7888 45.4622C25.4231 45.6138 25.1383 45.8987 24.9867 46.2643C24.7721 46.7824 24.7721 47.3531 24.9867 47.8712C25.2013 48.3893 25.6049 48.793 26.123 49.0075C26.4979 49.1628 26.8867 49.2364 27.2694 49.2364C28.1296 49.2364 28.9578 48.8633 29.5298 48.2137C29.5 48.6676 29.5739 49.1257 29.7531 49.5583C30.0603 50.3001 30.6381 50.8777 31.3799 51.185C31.6418 51.2935 31.9134 51.3449 32.1806 51.3449C33.0049 51.3449 33.7885 50.8565 34.1231 50.0488C34.2746 49.683 34.2746 49.2802 34.1231 48.9145C33.9717 48.5488 33.6868 48.2639 33.321 48.1125C33.0591 48.0038 32.7706 48.0038 32.5089 48.1125C32.2471 48.2208 32.0431 48.4248 31.9346 48.6867C31.8554 48.8778 31.8554 49.0882 31.9346 49.2793C32.0137 49.4705 32.1626 49.6194 32.3536 49.6984C32.4359 49.7322 32.5298 49.6935 32.5637 49.6114C32.5976 49.5292 32.5587 49.4352 32.4767 49.4012C32.3651 49.3551 32.2781 49.2681 32.2317 49.1562C32.1855 49.0446 32.1855 48.9214 32.2317 48.8098C32.388 48.4332 32.8217 48.254 33.1979 48.4096C33.4843 48.5282 33.7074 48.7512 33.8259 49.0377C33.9445 49.324 33.9445 49.6393 33.8259 49.9256C33.6442 50.3644 33.3025 50.7062 32.8637 50.8879C32.4251 51.0696 31.9419 51.0696 31.503 50.8879C30.8654 50.6237 30.5616 49.8903 30.8256 49.2527C30.8262 49.2512 30.8264 49.2498 30.8269 49.2484C30.8301 49.2399 30.8329 49.2313 30.8347 49.2224C30.8357 49.2176 30.8357 49.2127 30.8362 49.2079C30.8368 49.2023 30.8378 49.1968 30.8378 49.1911C30.8378 49.1854 30.8368 49.1799 30.8362 49.1743C30.8357 49.1695 30.8357 49.1647 30.8347 49.1598C30.833 49.1513 30.8303 49.143 30.8272 49.1349C30.8265 49.1331 30.8263 49.1313 30.8256 49.1295C30.5107 48.3694 30.5106 47.5328 30.825 46.7736C31.1354 46.0243 31.7164 45.4389 32.4624 45.121C33.2478 44.8524 34.118 44.8243 34.9549 45.086C34.625 45.3219 34.4088 45.7073 34.4088 46.1429C34.4088 47.0789 35.1703 47.8405 36.1063 47.8405C36.9164 47.8405 37.627 47.4071 38.0188 46.7601V48.265C37.7999 48.3336 37.6405 48.5383 37.6405 48.7795C37.6405 49.0173 37.7955 49.2192 38.0094 49.2907C37.9449 49.7915 37.5167 50.18 36.9987 50.18C36.6436 50.18 36.3548 49.8912 36.3548 49.5362C36.3548 49.3224 36.5287 49.1485 36.7424 49.1485C36.8597 49.1485 36.9552 49.244 36.9552 49.3615C36.9552 49.413 36.9142 49.4556 36.8487 49.4427C36.8487 49.3538 36.7768 49.2819 36.6879 49.2819C36.599 49.2819 36.5271 49.3538 36.5271 49.4427C36.5271 49.6269 36.677 49.7769 36.8614 49.7769C37.0904 49.7769 37.2768 49.5905 37.2768 49.3615C37.2768 49.0667 37.037 48.8269 36.7424 48.8269C36.3513 48.8269 36.0332 49.1451 36.0332 49.5362C36.0332 50.0686 36.4663 50.5017 36.9987 50.5017C37.5085 50.5017 37.9526 50.2159 38.1796 49.7962C38.4066 50.2159 38.8507 50.5017 39.3606 50.5017C39.893 50.5017 40.3261 50.0686 40.3261 49.5362C40.3261 49.1451 40.008 48.8269 39.6169 48.8269C39.3223 48.8269 39.0823 49.0667 39.0823 49.3615C39.0823 49.5905 39.2686 49.7769 39.4978 49.7769C39.6822 49.7769 39.8321 49.6269 39.8321 49.4427C39.8321 49.3538 39.7538 49.2882 39.665 49.2882C39.5761 49.2882 39.4978 49.3664 39.4978 49.4553C39.446 49.4553 39.4039 49.4132 39.4039 49.3615C39.4039 49.244 39.4994 49.1485 39.6169 49.1485C39.8305 49.1485 40.0045 49.3224 40.0045 49.5362C40.0045 49.8912 39.7155 50.18 39.3606 50.18C38.8424 50.18 38.4142 49.7915 38.3497 49.2907C38.5637 49.2192 38.7186 49.0173 38.7186 48.7795C38.7186 48.5383 38.5593 48.3336 38.3404 48.265V46.76C38.7322 47.4071 39.4429 47.8405 40.253 47.8405C41.189 47.8405 41.9507 47.0789 41.9507 46.1429C41.9507 45.7072 41.7343 45.3217 41.4042 45.0858C42.2398 44.824 43.1088 44.8517 43.8934 45.1195C44.6412 45.437 45.2234 46.0232 45.5343 46.7736C45.8487 47.5328 45.8484 48.3694 45.5337 49.1295C45.533 49.1313 45.5327 49.1331 45.5321 49.1349C45.529 49.143 45.5263 49.1513 45.5246 49.1598C45.5236 49.1647 45.5236 49.1695 45.5231 49.1743C45.5225 49.1799 45.5216 49.1854 45.5216 49.1911C45.5216 49.1968 45.5225 49.2023 45.5231 49.2079C45.5236 49.2127 45.5237 49.2176 45.5246 49.2224C45.5264 49.2313 45.5292 49.2399 45.5324 49.2484C45.5329 49.2498 45.5331 49.2512 45.5337 49.2527C45.6618 49.5618 45.6618 49.9021 45.534 50.2107C45.4061 50.5193 45.1655 50.7599 44.8561 50.8879C44.4176 51.0697 43.9339 51.0697 43.4954 50.8879C43.0567 50.7062 42.7149 50.3644 42.5333 49.9256C42.2884 49.3345 42.5701 48.6545 43.1613 48.4096C43.5382 48.254 43.9713 48.4332 44.1274 48.8098C44.1736 48.9214 44.1736 49.0446 44.1274 49.1562C44.0812 49.2681 43.9942 49.3549 43.8824 49.4012C43.8004 49.4352 43.7615 49.5292 43.7954 49.6112C43.8296 49.6934 43.9236 49.7326 44.0056 49.6984C44.1965 49.6194 44.3454 49.4705 44.4246 49.2793C44.5037 49.0882 44.5037 48.8778 44.4246 48.6867C44.2009 48.1464 43.579 47.8887 43.0381 48.1125C42.2833 48.4252 41.9234 49.2938 42.2362 50.0488C42.4507 50.5669 42.8544 50.9704 43.3723 51.185C43.6315 51.2923 43.9038 51.346 44.1758 51.346C44.4481 51.346 44.7202 51.2923 44.9793 51.185C45.7212 50.8777 46.2988 50.3001 46.606 49.5583C46.7853 49.1257 46.8593 48.6677 46.8295 48.2139C47.4015 48.8634 48.2297 49.2364 49.0903 49.2364C49.4728 49.2364 49.8617 49.1628 50.2364 49.0075C50.7544 48.7928 51.158 48.3893 51.3725 47.8712C51.5874 47.3531 51.5871 46.7824 51.3725 46.2643C51.06 45.5095 50.1909 45.1497 49.4361 45.4622C48.8955 45.6863 48.6379 46.3083 48.8619 46.8487C48.9411 47.0398 49.0899 47.1887 49.2812 47.2678C49.4722 47.3467 49.6827 47.3465 49.8736 47.2677C49.9556 47.2336 49.9946 47.1395 49.9606 47.0575C49.9264 46.9754 49.8322 46.9373 49.7505 46.9705C49.639 47.0167 49.5162 47.017 49.4041 46.9705C49.2922 46.9244 49.2052 46.8374 49.159 46.7256C49.003 46.3489 49.1826 45.9155 49.5592 45.7594C50.1504 45.5148 50.8304 45.7963 51.0754 46.3874C51.2573 46.8262 51.2573 47.3095 51.0754 47.7481C50.8938 48.1869 50.5521 48.5287 50.1133 48.7104C49.475 48.9739 48.7419 48.6703 48.4778 48.033C48.4773 48.0318 48.4765 48.0308 48.4759 48.0296C48.4722 48.021 48.4678 48.0127 48.4626 48.0049C48.4609 48.0024 48.4588 48.0003 48.4569 47.9979C48.4524 47.9918 48.4477 47.9858 48.4423 47.9804C48.4406 47.9788 48.4387 47.9775 48.437 47.976C48.4309 47.9705 48.4247 47.9651 48.4177 47.9604C48.4175 47.9603 48.4175 47.9603 48.4175 47.9603C48.4091 47.9548 48.4003 47.9499 48.3908 47.9459C46.8356 47.3017 46.0886 45.5215 46.7109 43.9625C46.8302 43.7178 46.9734 43.4844 47.1406 43.2675C47.057 43.1993 46.9755 43.1281 46.8955 43.0544C46.6587 43.3589 46.4605 43.6963 46.3089 44.0622C46.0196 44.7607 45.9204 45.5054 46.0088 46.236C45.5547 45.6568 44.9581 45.2004 44.2596 44.9111C44.1713 44.8745 44.0819 44.8421 43.9922 44.8115C43.9918 44.8114 43.9915 44.8112 43.9911 44.811C43.9899 44.8105 43.9886 44.8104 43.9874 44.8099C43.5701 44.6684 43.1397 44.5923 42.7082 44.5813C44.1441 44.2037 45.5099 43.6513 46.7812 42.9481C46.7021 42.8709 46.6259 42.7904 46.5514 42.7083C44.0629 44.0688 41.2101 44.8431 38.1796 44.8431C28.5255 44.8431 20.6711 36.9888 20.6711 27.3345C20.6711 20.7987 24.2716 15.0887 29.5926 12.0813C29.7174 11.888 29.8444 11.6965 29.9748 11.5079C29.7004 11.6507 29.4302 11.8006 29.1644 11.957C29.4695 11.6398 29.722 11.2798 29.9166 10.8913C29.9216 10.8835 29.9274 10.8764 29.9311 10.8675C29.934 10.8603 29.9365 10.853 29.9394 10.8458C30.299 10.1069 30.4488 9.26922 30.3486 8.43113C30.713 8.89638 31.1694 9.28256 31.6969 9.56644C31.7429 9.52387 31.7896 9.48393 31.836 9.44286C31.8896 9.39532 31.9428 9.34715 31.9974 9.30157C31.4752 8.96557 31.0674 8.48064 30.825 7.89542C30.5106 7.13637 30.5107 6.29978 30.8256 5.53967C30.8263 5.53798 30.8265 5.53624 30.8272 5.53455C30.8302 5.52635 30.833 5.51798 30.8347 5.50938C30.8357 5.50454 30.8357 5.49972 30.8362 5.49488C30.8368 5.48927 30.8378 5.48374 30.8378 5.47809C30.8378 5.47238 30.8368 5.46685 30.8362 5.46121C30.8357 5.45641 30.8357 5.45163 30.8347 5.44683C30.8329 5.4378 30.8301 5.42907 30.8268 5.42052C30.8263 5.41919 30.8261 5.41784 30.8256 5.41654C30.5616 4.7789 30.8654 4.04547 31.503 3.7813C31.9418 3.59941 32.4252 3.59941 32.8637 3.7813C33.3025 3.96301 33.6442 4.30476 33.8259 4.74357C33.9445 5.02986 33.9445 5.34523 33.8259 5.63153C33.7074 5.91798 33.4843 6.14101 33.1979 6.25959C33.0154 6.33528 32.8142 6.33528 32.632 6.25959C32.4495 6.18404 32.3074 6.0419 32.2317 5.85926C32.1362 5.6287 32.2461 5.36328 32.4767 5.26781C32.5588 5.23372 32.5978 5.13963 32.5637 5.05764C32.5298 4.97568 32.4354 4.93686 32.3536 4.97063C31.9592 5.13414 31.7712 5.58786 31.9346 5.98236C32.0431 6.24433 32.2469 6.44837 32.5089 6.55672C32.7706 6.66539 33.0591 6.66508 33.321 6.55672C33.6868 6.40531 33.9717 6.12042 34.1231 5.75465C34.2746 5.38903 34.2746 4.98622 34.1231 4.62044C33.7886 3.81262 33.0044 3.32421 32.1804 3.3242C31.9131 3.3242 31.6416 3.37559 31.3799 3.48415M30.0502 7.28827C29.7759 6.62598 29.7759 5.89633 30.0502 5.23387C30.1538 4.98381 30.2919 4.75473 30.4593 4.55154C30.3836 4.8485 30.3938 5.1689 30.5056 5.47543C30.1276 6.43773 30.2203 7.47422 30.6764 8.32481C30.4198 8.01701 30.208 7.66917 30.0502 7.28827ZM29.9318 8.26545C29.5927 7.44654 28.9608 6.80525 28.1496 6.45177C28.0161 6.16447 27.8036 5.92886 27.5354 5.7681C28.4887 5.86331 29.3616 6.46615 29.7531 7.41141C29.9092 7.78824 30.0055 8.17969 30.0428 8.57458C30.0109 8.47048 29.974 8.36732 29.9318 8.26545ZM25.2958 14.5707C25.3242 14.5642 25.3512 14.5503 25.3733 14.5282C25.4361 14.4654 25.4361 14.3636 25.3733 14.3008C25.012 13.9396 24.813 13.4591 24.813 12.9484C24.813 12.4375 25.012 11.9573 25.3733 11.596C25.6332 11.3361 25.9787 11.1929 26.3462 11.1929C26.7137 11.1929 27.0592 11.3361 27.3191 11.596C27.7004 11.9773 27.7004 12.598 27.3191 12.9793C27.0609 13.2375 26.6108 13.2375 26.3526 12.9793C26.1714 12.7981 26.1714 12.5032 26.3526 12.3219C26.4155 12.2591 26.4155 12.1573 26.3526 12.0945C26.2898 12.0317 26.188 12.0317 26.1252 12.0945C25.8185 12.4011 25.8185 12.9002 26.1252 13.2068C26.3467 13.4284 26.6644 13.5197 26.9662 13.4826C26.0023 14.2643 25.1216 15.1448 24.3389 16.1078C24.3434 16.0692 24.3463 16.0302 24.3463 15.9908C24.3463 15.7223 24.2417 15.4699 24.0518 15.2802C23.7452 14.9736 23.2461 14.9736 22.9396 15.2802C22.8768 15.343 22.8768 15.4447 22.9396 15.5076C23.0024 15.5704 23.1042 15.5704 23.167 15.5076C23.3483 15.3263 23.6432 15.3263 23.8244 15.5076C23.9535 15.6367 24.0247 15.8083 24.0247 15.9908C24.0247 16.1733 23.9535 16.345 23.8244 16.4741C23.4431 16.8554 22.8224 16.8554 22.4411 16.4741C22.1812 16.2141 22.0379 15.8686 22.0379 15.5011C22.0379 15.1336 22.1812 14.7881 22.4411 14.5282C22.8023 14.167 23.2826 13.968 23.7935 13.968C24.3042 13.968 24.7846 14.167 25.1458 14.5282C25.1694 14.5518 25.1984 14.5665 25.2289 14.5724C25.239 14.5743 25.2493 14.5753 25.2596 14.5753C25.2718 14.5753 25.2839 14.5735 25.2958 14.5707ZM22.862 12.3244C22.7774 12.2396 22.7774 12.1017 22.862 12.017C22.9044 11.9747 22.9601 11.9535 23.0158 11.9535C23.0715 11.9535 23.1271 11.9745 23.1695 12.017C23.2106 12.0581 23.2333 12.1127 23.2333 12.1707C23.2333 12.2288 23.2106 12.2833 23.1695 12.3244C23.1284 12.3656 23.072 12.3862 23.0156 12.3862C22.9594 12.3862 22.9031 12.3656 22.862 12.3244ZM18.2565 18.9081C17.311 18.5164 16.7081 17.6435 16.613 16.6901C16.7738 16.9584 17.0095 17.171 17.2968 17.3045C17.6503 18.1158 18.2916 18.7476 19.1105 19.0867C19.2124 19.129 19.3155 19.1658 19.4195 19.1977C19.0246 19.1604 18.6333 19.0641 18.2565 18.9081ZM21.694 19.0932C21.7001 19.0906 21.7064 19.0885 21.7125 19.086C21.7233 19.0815 21.7333 19.0759 21.7425 19.0695C22.1279 18.8757 22.4854 18.6245 22.8005 18.3218C21.9847 19.7083 21.3511 21.2141 20.9327 22.8064C20.9218 22.3744 20.8457 21.9436 20.7039 21.526C20.7035 21.5251 20.7034 21.5241 20.703 21.5231C20.7029 21.5228 20.7028 21.5226 20.7027 21.5223C20.6721 21.4325 20.6396 21.343 20.603 21.2546C20.3133 20.5552 19.8561 19.9579 19.2759 19.5036C19.4465 19.524 19.6171 19.5353 19.7869 19.5353C20.4523 19.5353 21.1046 19.3805 21.694 19.0932ZM16.0789 19.2052C16.7414 18.9307 17.4709 18.9307 18.1333 19.2052C18.5144 19.363 18.8627 19.5748 19.1708 19.8314C18.3201 19.3753 17.2832 19.2829 16.3208 19.6606C16.0142 19.5487 15.6939 19.5383 15.3971 19.6138C15.6002 19.4466 15.8291 19.3087 16.0789 19.2052ZM17.9953 29.4079C17.9953 28.3533 18.8533 27.4953 19.9079 27.4953C19.9968 27.4953 20.0687 27.4234 20.0687 27.3345C20.0687 27.2456 19.9968 27.1737 19.9079 27.1737C18.8533 27.1737 17.9953 26.3157 17.9953 25.2612C17.9953 24.5025 18.6125 23.8853 19.3712 23.8853C19.9107 23.8853 20.3495 24.3241 20.3495 24.8635C20.3495 25.2404 20.0429 25.5469 19.666 25.5469C19.4097 25.5469 19.2011 25.3384 19.2011 25.0819C19.2011 24.993 19.1292 24.9211 19.0403 24.9211C18.9514 24.9211 18.8795 24.993 18.8795 25.0819C18.8795 25.5157 19.2324 25.8686 19.666 25.8686C19.9792 25.8686 20.2593 25.7245 20.4437 25.4992C20.3817 26.1027 20.3495 26.7149 20.3495 27.3345C20.3495 27.954 20.3814 28.5661 20.4434 29.1695C20.2589 28.9445 19.979 28.8006 19.666 28.8006C19.2324 28.8006 18.8795 29.1535 18.8795 29.5871C18.8795 29.676 18.9514 29.7479 19.0403 29.7479C19.1292 29.7479 19.2011 29.676 19.2011 29.5871C19.2011 29.3308 19.4097 29.1222 19.666 29.1222C20.0429 29.1222 20.3495 29.4288 20.3495 29.8057C20.3495 30.345 19.9107 30.7838 19.3712 30.7838C18.6125 30.7838 17.9953 30.1666 17.9953 29.4079ZM16.5173 27.3345C16.5173 27.2147 16.6148 27.1171 16.7347 27.1171C16.8546 27.1171 16.9521 27.2147 16.9521 27.3345C16.9521 27.4545 16.8546 27.552 16.7347 27.552C16.6148 27.552 16.5173 27.4545 16.5173 27.3345ZM20.6941 33.1655C20.6969 33.1589 20.7003 33.1527 20.703 33.1461C20.7081 33.1338 20.711 33.1214 20.7129 33.1089C20.8457 32.7062 20.9201 32.2838 20.9306 31.8546C21.3485 33.4484 21.9824 34.9554 22.7984 36.3433C22.4812 36.0384 22.1167 35.7822 21.7138 35.5837C21.7134 35.5835 21.713 35.5832 21.7125 35.583C21.7125 35.583 21.7123 35.5829 21.7121 35.5828C21.6269 35.5409 21.5405 35.5005 21.4518 35.4638C20.7524 35.1741 20.0067 35.0751 19.2751 35.1642C19.9392 34.6421 20.4259 33.9431 20.6941 33.1655ZM19.1698 34.837C18.8656 35.0913 18.5185 35.3044 18.1333 35.464C17.4709 35.7382 16.7414 35.7382 16.0789 35.464C15.8295 35.3606 15.6009 35.223 15.398 35.0562C15.5237 35.0881 15.6534 35.1056 15.7848 35.1056C15.9635 35.1056 16.1445 35.073 16.3209 35.0086C16.7265 35.1678 17.1453 35.2444 17.5579 35.2444C18.1241 35.2444 18.6778 35.1007 19.1698 34.837ZM16.8039 37.2137C17.0781 36.5514 17.594 36.0355 18.2565 35.7611C18.6335 35.6049 19.0251 35.5085 19.4201 35.4712C19.3159 35.5031 19.2126 35.54 19.1105 35.5822C18.2916 35.9215 17.6503 36.5534 17.2968 37.3646C17.0081 37.4986 16.7716 37.7125 16.6108 37.9826C16.6364 37.7215 16.7007 37.4629 16.8039 37.2137ZM22.4411 40.141C22.1812 39.881 22.0379 39.5355 22.0379 39.168C22.0379 38.8005 22.1812 38.455 22.4411 38.1951C22.8105 37.8254 23.455 37.8254 23.8244 38.1951C23.9535 38.3242 24.0247 38.4959 24.0247 38.6783C24.0247 38.8608 23.9535 39.0325 23.8244 39.1616C23.6432 39.3428 23.3483 39.3428 23.167 39.1616C23.1042 39.0988 23.0024 39.0988 22.9396 39.1616C22.8768 39.2244 22.8768 39.3262 22.9396 39.389C23.2367 39.6861 23.7547 39.6861 24.0518 39.389C24.2417 39.1993 24.3463 38.9469 24.3463 38.6783C24.3463 38.6389 24.3434 38.6001 24.3389 38.5615C25.1181 39.5203 25.9946 40.3967 26.9534 41.1759C26.6584 41.1414 26.351 41.2363 26.1252 41.4622C25.8185 41.769 25.8185 42.2679 26.1252 42.5746C26.188 42.6374 26.2898 42.6374 26.3526 42.5746C26.4155 42.5118 26.4155 42.4101 26.3526 42.3472C26.1714 42.166 26.1714 41.8709 26.3526 41.6897C26.619 41.4233 27.0528 41.4233 27.3191 41.6897C27.7006 42.0711 27.7006 42.6916 27.3191 43.0731C26.7826 43.6096 25.9097 43.6096 25.3733 43.0731C25.012 42.7119 24.813 42.2315 24.813 41.7207C24.813 41.2099 25.012 40.7296 25.3733 40.3684C25.4361 40.3055 25.4361 40.2038 25.3733 40.141C25.3105 40.0781 25.2087 40.0781 25.1458 40.141C24.7729 40.5138 24.2832 40.7001 23.7935 40.7001C23.3037 40.7001 22.814 40.5137 22.4411 40.141ZM22.862 42.652C22.7774 42.5674 22.7774 42.4294 22.862 42.3446C22.9468 42.2594 23.0847 42.2598 23.1695 42.3446C23.2106 42.3857 23.2333 42.4403 23.2333 42.4983C23.2333 42.5564 23.2106 42.6109 23.1695 42.652C23.1284 42.6932 23.0721 42.7138 23.0158 42.7138C22.9595 42.7138 22.9032 42.6932 22.862 42.652ZM30.0502 44.0622C29.8398 43.5543 29.5406 43.1006 29.1707 42.7157C30.5562 43.5303 32.0604 44.1634 33.6511 44.5814C33.219 44.5922 32.7881 44.6685 32.3704 44.8104C32.3697 44.8107 32.3689 44.8107 32.3682 44.811C32.368 44.8112 32.3677 44.8112 32.3675 44.8113C32.2776 44.8419 32.1881 44.8744 32.0996 44.9111C31.4011 45.2004 30.8044 45.6569 30.3503 46.236C30.4388 45.5054 30.3396 44.7608 30.0502 44.0622ZM40.0164 45.0694C39.7903 45.2538 39.6455 45.5343 39.6455 45.8481C39.6455 46.2818 39.9985 46.6347 40.4323 46.6347C40.5212 46.6347 40.5931 46.5628 40.5931 46.4739C40.5931 46.385 40.5212 46.3131 40.4323 46.3131C40.1757 46.3131 39.9671 46.1045 39.9671 45.8481C39.9671 45.4713 40.2737 45.1647 40.6506 45.1647C41.1903 45.1647 41.629 45.6035 41.629 46.1429C41.629 46.9016 41.0119 47.5188 40.253 47.5188C39.1985 47.5188 38.3404 46.6608 38.3404 45.6064C38.3404 45.5174 38.2685 45.4455 38.1796 45.4455C38.0907 45.4455 38.0188 45.5174 38.0188 45.6064C38.0188 46.6608 37.1608 47.5188 36.1063 47.5188C35.3476 47.5188 34.7304 46.9016 34.7304 46.1429C34.7304 45.6035 35.1692 45.1647 35.7085 45.1647C36.0854 45.1647 36.392 45.4713 36.392 45.8481C36.392 46.1045 36.1834 46.3131 35.927 46.3131C35.8381 46.3131 35.7662 46.385 35.7662 46.4739C35.7662 46.5628 35.8381 46.6347 35.927 46.6347C36.3607 46.6347 36.7136 46.2818 36.7136 45.8481C36.7136 45.5352 36.5698 45.2553 36.3448 45.0709C36.9481 45.1328 37.5602 45.1647 38.1796 45.1647C38.7998 45.1647 39.4123 45.1315 40.0164 45.0694ZM28.1507 48.2169C29.0974 47.8037 29.7646 47.0061 30.0437 46.083C30.0072 46.4818 29.9108 46.8772 29.7532 47.2577C29.4788 47.9201 28.9629 48.436 28.3005 48.7104C28.0509 48.8139 27.7917 48.8782 27.5302 48.9037C27.7936 48.747 28.0131 48.5128 28.1507 48.2169ZM46.6061 47.2577C46.4489 46.8782 46.3567 46.4881 46.3203 46.099C46.6022 47.0154 47.2674 47.8062 48.2087 48.217C48.3455 48.5112 48.5634 48.7444 48.8249 48.9011C47.8712 48.8062 46.998 48.2034 46.6061 47.2577ZM30.0503 47.3808C30.2091 46.9976 30.4207 46.652 30.6732 46.3489C30.2196 47.1986 30.1285 48.2331 30.5058 49.1935C30.3945 49.4985 30.3837 49.8174 30.4582 50.1131C29.85 49.3716 29.6583 48.327 30.0503 47.3808ZM45.8538 49.1934C46.1774 48.3697 46.1708 47.4694 45.8315 46.6507C45.7902 46.5508 45.7442 46.4538 45.6944 46.3594C45.9431 46.6601 46.152 47.0019 46.3089 47.3808C46.5835 48.0432 46.5835 48.7727 46.3089 49.4352C46.2058 49.6844 46.0683 49.9129 45.9018 50.1155C45.9791 49.8109 45.963 49.4924 45.8538 49.1934ZM37.9623 48.7795C37.9623 48.6597 38.0597 48.5621 38.1796 48.5621C38.2996 48.5621 38.397 48.6597 38.397 48.7795C38.397 48.8995 38.2996 48.997 38.1796 48.997C38.0597 48.997 37.9623 48.8995 37.9623 48.7795Z" fill="white"/>
<path d="M43.3724 3.48419C42.8545 3.69887 42.4508 4.10233 42.2363 4.62046C41.9234 5.37539 42.2834 6.24406 43.0382 6.55675C43.5788 6.78054 44.201 6.52298 44.4247 5.98239C44.5038 5.79126 44.5038 5.58084 44.4247 5.38983C44.3455 5.19871 44.1966 5.04981 44.0056 4.97066C43.9237 4.93676 43.8297 4.97584 43.7955 5.05766C43.7616 5.13982 43.8005 5.2339 43.8825 5.26784C43.9943 5.31414 44.0813 5.40113 44.1275 5.51282C44.1737 5.62447 44.1737 5.74763 44.1275 5.85928C44.0518 6.04193 43.9098 6.18407 43.7273 6.25961C43.5451 6.3353 43.3441 6.3353 43.1613 6.25961C42.5702 6.01475 42.2884 5.33475 42.5334 4.7436C42.715 4.30479 43.0567 3.96303 43.4955 3.78132C43.934 3.59943 44.4177 3.59943 44.8562 3.78132C45.1656 3.90933 45.4062 4.14995 45.5341 4.45853C45.6619 4.76713 45.6619 5.10747 45.5337 5.41656C45.5332 5.41786 45.5331 5.41922 45.5326 5.42055C45.5293 5.4291 45.5265 5.43782 45.5247 5.44685C45.5237 5.45165 45.5237 5.45644 45.5232 5.46124C45.5226 5.46688 45.5216 5.47241 45.5216 5.47812C45.5216 5.48377 45.5226 5.4893 45.5232 5.49491C45.5237 5.49975 45.5237 5.50456 45.5247 5.50941C45.5264 5.51801 45.5291 5.52637 45.5322 5.53458C45.5329 5.53627 45.5331 5.53801 45.5337 5.5397C45.8485 6.29981 45.8488 7.1364 45.5344 7.89545C45.2695 8.53482 44.8073 9.05451 44.2141 9.39094C44.2546 9.45186 44.2946 9.51449 44.3346 9.57688C44.3592 9.61531 44.3841 9.65288 44.4088 9.69189C45.0429 9.40148 45.5874 8.97057 46.0088 8.43366C45.9205 9.16406 46.0197 9.9085 46.3089 10.6068C46.5203 11.1171 46.8213 11.5726 47.1935 11.9586C46.6067 11.6133 45.9994 11.2989 45.3723 11.0213C45.5405 11.2175 45.7106 11.4123 45.8748 11.6106C50.9062 14.083 54.5855 18.8999 55.4784 24.6275C55.5884 24.6354 55.6984 24.6437 55.8083 24.6523C55.8171 24.653 55.8258 24.6537 55.8346 24.6543C55.8748 24.6575 55.9151 24.6601 55.9553 24.6634C55.98 24.6653 56.0046 24.6669 56.0293 24.669C56.1197 24.2225 56.5151 23.8854 56.9882 23.8854C57.6307 23.8854 58.1702 24.3288 58.3207 24.9253C58.4335 24.9409 58.5465 24.9554 58.659 24.9718C58.521 24.1735 57.8253 23.5637 56.9882 23.5637C56.5522 23.5637 56.1667 23.78 55.9311 24.1104C55.6694 23.2748 55.697 22.4058 55.9646 21.6213C56.2822 20.8733 56.8681 20.2909 57.6189 19.98C58.3774 19.6655 59.2142 19.6658 59.9746 19.9806C59.9845 19.9846 59.9947 19.9877 60.0053 19.9898C60.0073 19.9902 60.0094 19.9901 60.0114 19.9904C60.0198 19.9917 60.0283 19.9928 60.0368 19.9928C60.0378 19.9928 60.0388 19.9925 60.0397 19.9925C60.0591 19.9921 60.0787 19.9885 60.0978 19.9806C60.7342 19.7166 61.4688 20.0198 61.733 20.658C62.108 21.5637 61.6765 22.6059 60.7706 22.9809C60.4841 23.0993 60.1691 23.0996 59.8826 22.9809C59.5965 22.8623 59.3735 22.6393 59.2547 22.3529C59.0986 21.9762 59.2783 21.5428 59.6549 21.3866C59.8848 21.2907 60.1509 21.4013 60.2463 21.6316C60.2806 21.714 60.3751 21.7521 60.4565 21.7187C60.5384 21.6846 60.5774 21.5905 60.5435 21.5085C60.3798 21.114 59.9253 20.9265 59.5318 21.0895C58.9912 21.3137 58.7336 21.9356 58.9576 22.476C59.109 22.8417 59.3939 23.1266 59.7595 23.278C60.1251 23.4296 60.5281 23.4293 60.8937 23.278C61.9632 22.8351 62.473 21.6045 62.0301 20.5348C61.7229 19.7931 61.1453 19.2154 60.4034 18.9081C59.9712 18.7291 59.5137 18.6552 59.0604 18.6848C59.9983 17.8584 60.3571 16.4956 59.8528 15.278C59.4093 14.2086 58.1802 13.6977 57.1094 14.1417C56.7438 14.2933 56.4589 14.578 56.3075 14.9438C56.1561 15.3096 56.1561 15.7122 56.3075 16.0778C56.4159 16.3398 56.6197 16.5438 56.8817 16.6522C57.1436 16.7609 57.432 16.7609 57.6939 16.6522C57.8849 16.573 58.0338 16.4243 58.1129 16.2332C58.1921 16.042 58.1921 15.8314 58.1129 15.6405C58.0787 15.5583 57.9842 15.52 57.9028 15.5535C57.8208 15.5875 57.7819 15.6816 57.8158 15.7636C57.862 15.8753 57.862 15.9982 57.8158 16.11C57.7693 16.2219 57.6826 16.3087 57.5708 16.3551C57.3877 16.4311 57.1867 16.4307 57.0048 16.3551C56.8223 16.2795 56.68 16.1374 56.6046 15.9549C56.3596 15.3637 56.6414 14.6837 57.2325 14.4388C58.1374 14.0635 59.1803 14.4952 59.5557 15.4011C59.8198 16.0386 59.5158 16.7722 58.8781 17.0363C58.8774 17.0366 58.8769 17.0371 58.8761 17.0374C58.8672 17.0413 58.8585 17.0459 58.8503 17.0513C58.8463 17.054 58.843 17.0573 58.8393 17.0602C58.8348 17.0638 58.8301 17.0672 58.8261 17.0713C58.8222 17.0751 58.8192 17.0794 58.8158 17.0835C58.8126 17.0875 58.809 17.0913 58.8061 17.0956C58.8027 17.1008 58.8001 17.1064 58.7973 17.1119C58.7953 17.1157 58.7928 17.1192 58.7911 17.1233C58.476 17.8835 57.8849 18.4753 57.1257 18.7897C56.3764 19.1 55.5517 19.103 54.7999 18.8005C54.0543 18.4352 53.4188 17.8397 53.012 17.0627C53.083 17.0745 53.1547 17.0815 53.2265 17.0815C53.5594 17.0815 53.892 16.9548 54.1455 16.7015C54.4662 16.3809 54.6427 15.9545 54.6427 15.5012C54.6427 15.0477 54.4662 14.6213 54.1455 14.3008C53.7237 13.8788 53.1627 13.6464 52.5659 13.6464C52.3817 13.6464 52.2018 13.6711 52.0275 13.7141L53.0951 12.6465C53.1713 12.6864 53.2553 12.7099 53.3436 12.7099C53.4875 12.7099 53.6228 12.6536 53.7246 12.5519C53.8264 12.4501 53.8826 12.3149 53.8826 12.1709C53.8826 12.086 53.8611 12.0052 53.8243 11.9314C54.2176 11.6336 54.8142 11.6605 55.1689 12.0154C55.2904 12.1371 55.3576 12.2987 55.3576 12.4707C55.3576 12.6427 55.2904 12.8043 55.1689 12.926C55.0175 13.0769 54.7721 13.0772 54.6208 12.926C54.5378 12.843 54.5378 12.7078 54.6208 12.6251C54.6569 12.5883 54.7169 12.5882 54.7536 12.643C54.6908 12.7058 54.6908 12.8076 54.7536 12.8704C54.8164 12.9332 54.9182 12.9332 54.981 12.8704C55.0441 12.8072 55.079 12.7232 55.079 12.634C55.079 12.5447 55.0441 12.4606 54.981 12.3973C54.819 12.2356 54.5554 12.2361 54.3933 12.3975C54.1851 12.6059 54.1851 12.945 54.3933 13.1534C54.5316 13.2917 54.7131 13.3609 54.895 13.3609C55.0765 13.3609 55.2581 13.2916 55.3962 13.1534C55.5788 12.9711 55.6793 12.7286 55.6793 12.4707C55.6793 12.2128 55.5788 11.9703 55.3962 11.788C55.1428 11.5345 54.8061 11.3949 54.4477 11.3949C54.3157 11.3949 54.1866 11.4141 54.0635 11.4507C54.1002 11.3277 54.1194 11.1987 54.1194 11.0666C54.1194 10.7081 53.9797 10.3712 53.7262 10.1179C53.3618 9.75324 52.7258 9.75324 52.3608 10.1179C52.2267 10.2519 52.1532 10.43 52.1532 10.6193C52.1532 10.8089 52.2267 10.987 52.3608 11.1208C52.5697 11.3292 52.9086 11.3291 53.1168 11.1207C53.2786 10.9587 53.2786 10.6954 53.1168 10.5333C52.9862 10.4029 52.7745 10.4029 52.6438 10.5333C52.581 10.5961 52.5901 10.6979 52.6529 10.7607C52.7157 10.8235 52.8266 10.8235 52.8894 10.7607C52.9258 10.7973 52.9258 10.8568 52.8894 10.8934C52.8065 10.976 52.6711 10.9763 52.5882 10.8934C52.515 10.8202 52.4748 10.7228 52.4748 10.6193C52.4748 10.5159 52.515 10.4185 52.5882 10.3453C52.831 10.1024 53.2554 10.1017 53.4988 10.3453C53.6916 10.538 53.7978 10.7942 53.7978 11.0666C53.7978 11.2957 53.7219 11.5128 53.5834 11.6907C53.3821 11.5906 53.1309 11.6218 52.9623 11.7895C52.792 11.9599 52.7622 12.2158 52.8679 12.4189L51.8003 13.4864C51.8433 13.3122 51.8679 13.1324 51.8679 12.9484C51.8679 12.3516 51.6355 11.7905 51.2134 11.3686C50.893 11.048 50.4667 10.8713 50.0132 10.8713C49.5596 10.8713 49.1334 11.048 48.8127 11.3686C48.5046 11.6768 48.385 12.1024 48.4516 12.5026C47.7006 12.1106 47.1005 11.498 46.7228 10.7374C46.4106 9.9791 46.4114 9.14534 46.7245 8.38843C47.0389 7.62938 47.6307 7.03811 48.3909 6.72323C48.3996 6.71962 48.4076 6.71499 48.4153 6.71009C48.4162 6.70953 48.4172 6.7092 48.418 6.70861C48.43 6.70071 48.4402 6.69114 48.4495 6.68067C48.4515 6.67832 48.4533 6.67591 48.4553 6.67344C48.4643 6.66196 48.4721 6.64977 48.4777 6.63643C48.4777 6.63643 48.4778 6.63628 48.4779 6.63619C48.742 5.99827 49.4767 5.69516 50.1134 5.95884C50.5522 6.14054 50.8939 6.4823 51.0755 6.92111C51.2574 7.35976 51.2574 7.843 51.0755 8.28181C50.8305 8.87295 50.1511 9.15501 49.5593 8.90969C49.3768 8.83412 49.2348 8.69203 49.1591 8.50953C49.0834 8.32705 49.0834 8.126 49.1591 7.9435C49.2546 7.71295 49.5191 7.60286 49.7506 7.69852C49.8332 7.73243 49.9265 7.69332 49.9607 7.61153C49.9946 7.52936 49.9557 7.43528 49.8737 7.40138C49.4789 7.23787 49.0253 7.42601 48.862 7.8204C48.7536 8.0822 48.7536 8.37068 48.862 8.63266C48.9704 8.89444 49.1745 9.09847 49.4362 9.20682C50.1913 9.51967 51.0598 9.15973 51.3726 8.40494C51.5872 7.8868 51.5874 7.31607 51.3726 6.79799C51.1581 6.27983 50.7545 5.87637 50.2365 5.66172C49.0191 5.15769 47.6562 5.51609 46.8297 6.4538C46.8592 6.00042 46.7852 5.5429 46.6061 5.11078C46.2989 4.369 45.7213 3.79138 44.9794 3.48419C44.7205 3.37699 44.4485 3.32339 44.1764 3.32339C43.9042 3.32339 43.6319 3.37699 43.3724 3.48419ZM45.8315 8.01858C46.1708 7.19968 46.1775 6.29953 45.8537 5.47583C45.963 5.17683 45.9791 4.85832 45.9018 4.55364C46.0683 4.7563 46.2058 4.98473 46.3089 5.23391C46.5835 5.89636 46.5835 6.62584 46.3089 7.2883C46.1517 7.668 45.942 8.01021 45.6924 8.31104C45.7427 8.2161 45.7899 8.11909 45.8315 8.01858ZM46.6061 7.41144C46.9982 6.46529 47.8722 5.86245 48.8264 5.76804C48.5647 5.92455 48.347 6.1575 48.2099 6.45168C47.3984 6.80514 46.7667 7.44647 46.4274 8.26548C46.3852 8.36738 46.3483 8.47064 46.3164 8.57479C46.3537 8.17982 46.45 7.78834 46.6061 7.41144ZM49.0401 12.9794C48.6588 12.5981 48.6588 11.9774 49.0401 11.5961C49.3002 11.3362 49.6457 11.1929 50.0132 11.1929C50.3807 11.1929 50.7262 11.3362 50.9859 11.5961C51.3472 11.9573 51.5463 12.4375 51.5463 12.9484C51.5463 13.4591 51.3472 13.9396 50.9859 14.3008C50.9231 14.3636 50.9231 14.4654 50.9859 14.5282C51.0098 14.5521 51.0394 14.5668 51.0703 14.5725C51.08 14.5743 51.0898 14.5753 51.0996 14.5753C51.113 14.5753 51.1262 14.5731 51.1392 14.5698C51.1663 14.5629 51.1922 14.5495 51.2134 14.5282C51.5746 14.167 52.0549 13.968 52.5659 13.968C53.0766 13.968 53.5569 14.167 53.9181 14.5282C54.1782 14.7882 54.3211 15.1337 54.3211 15.5012C54.3211 15.8687 54.1782 16.2142 53.9181 16.4741C53.5368 16.8554 52.9161 16.8554 52.5348 16.4741C52.4057 16.345 52.3344 16.1733 52.3344 15.9908C52.3344 15.8084 52.4057 15.6367 52.5348 15.5076C52.7163 15.3262 53.0107 15.3265 53.1922 15.5076C53.255 15.5704 53.3568 15.5704 53.4196 15.5076C53.4824 15.4448 53.4824 15.343 53.4196 15.2802C53.1137 14.9739 52.6146 14.9736 52.3074 15.2802C52.1174 15.4699 52.0128 15.7223 52.0128 15.9908C52.0128 16.0308 52.0158 16.0702 52.0204 16.1093C51.2366 15.145 50.354 14.2645 49.3886 13.482C49.6917 13.5206 50.0114 13.4295 50.234 13.2068C50.3826 13.0582 50.4645 12.8608 50.4645 12.6507C50.4645 12.4405 50.3826 12.2431 50.234 12.0946C50.1711 12.0317 50.0694 12.0317 50.0066 12.0946C49.9438 12.1574 49.9438 12.2591 50.0066 12.3219C50.1878 12.5032 50.1878 12.7981 50.0066 12.9794C49.8775 13.1085 49.7004 13.173 49.5233 13.173C49.3463 13.173 49.1692 13.1085 49.0401 12.9794ZM53.1897 12.3245C53.1049 12.2396 53.1049 12.1017 53.1897 12.0171C53.2321 11.9747 53.2877 11.9535 53.3436 11.9535C53.3992 11.9535 53.4548 11.9747 53.4972 12.017C53.5384 12.0581 53.561 12.1128 53.561 12.1709C53.561 12.2288 53.5384 12.2833 53.4972 12.3243V12.3245C53.4561 12.3656 53.3999 12.3861 53.3436 12.3861C53.2873 12.3861 53.2309 12.3655 53.1897 12.3245ZM59.0614 17.3049C59.3563 17.1678 59.5899 16.9496 59.7466 16.6874C59.6523 17.6418 59.0492 18.516 58.1029 18.9081C57.7196 19.0668 57.3255 19.1615 56.9325 19.1971C57.8538 18.9172 58.6489 18.2501 59.0614 17.3049ZM53.5586 18.3215C53.8737 18.6243 54.2312 18.8754 54.6166 19.0693C54.6259 19.0758 54.6359 19.0815 54.6468 19.086C54.6534 19.0887 54.66 19.0909 54.6665 19.0936C55.2556 19.3806 55.9075 19.5352 56.5726 19.5352C56.7424 19.5352 56.9131 19.5239 57.0837 19.5034C56.5034 19.9578 56.046 20.5551 55.7563 21.2546C55.5482 21.7569 55.4391 22.2832 55.4264 22.8109C55.008 21.217 54.3751 19.7092 53.5586 18.3215ZM58.226 19.2052C58.8882 18.9307 59.6181 18.9307 60.2803 19.2052C60.5296 19.3085 60.7581 19.446 60.9609 19.6126C60.6557 19.5351 60.3373 19.551 60.0383 19.6606C59.0775 19.2834 58.043 19.3748 57.1934 19.8286C57.4967 19.5758 57.8425 19.3641 58.226 19.2052Z" fill="white"/>
<path d="M47.4888 13.9518C50.9911 16.397 53.4912 20.1812 54.2434 24.5555C54.3927 24.5619 54.542 24.5707 54.6914 24.5787C53.8852 19.7165 50.9756 15.5557 46.9323 13.065C47.127 13.3558 47.3135 13.6509 47.4888 13.9518Z" fill="white"/>
<path d="M21.4426 27.3251C21.4426 36.5539 28.9508 44.0621 38.1797 44.0621C41.029 44.0621 43.7138 43.3457 46.0648 42.0846C45.9838 41.9627 45.9079 41.8381 45.8391 41.7107C43.5542 42.9322 40.9466 43.6259 38.1797 43.6259C29.1912 43.6259 21.8787 36.3135 21.8787 27.3251C21.8787 22.2169 24.2414 17.651 27.9306 14.66C28.1841 14.2827 28.4176 13.8929 28.7015 13.539C24.3204 16.5604 21.4426 21.6125 21.4426 27.3251Z" fill="white"/>
<path d="M33.7035 8.256C31.0581 11.0799 27.7813 14.2483 26.2317 18.9181C24.6821 23.5878 26.48 29.057 29.8882 31.3614C33.2963 33.6658 37.0821 30.6995 35.5844 26.9983C34.0868 23.2972 31.1555 20.9197 31.1555 20.9197C34.2732 21.9158 36.3458 27.2031 36.3458 27.2031C37.5655 21.4731 31.9333 16.671 31.9333 16.671C35.2058 17.7796 36.3483 22.0928 36.3483 22.0928C36.4658 21.4332 36.6266 19.3374 36.6257 17.8022C36.6249 16.2671 33.8676 12.9185 33.8676 12.9185C35.9622 14.0151 36.9077 16.7132 36.9077 16.7132C37.7153 11.1391 39.6304 8.46994 39.6304 8.46994C38.1847 12.2069 38.0429 14.4548 38.0429 14.4548C40.4991 12.2632 41.9163 12.1544 41.9163 12.1544C40.0227 13.104 38.0657 15.038 37.8017 15.9793C37.5377 16.9207 37.5311 19.5969 37.5311 19.5969C41.9371 15.3768 43.4302 15.8762 43.4302 15.8762C39.7732 17.4729 37.4644 20.9179 37.4644 20.9179C37.1874 22.7376 37.5772 24.7692 37.5772 24.7692C41.2918 19.9223 44.461 19.8764 44.461 19.8764C39.8882 21.9235 37.6922 25.9812 37.6922 25.9812C37.2941 30.0326 38.5907 33.9246 42.0717 33.7013C45.5526 33.4779 49.8678 28.6946 50.1883 22.584C50.5088 16.4733 46.0322 12.8693 43.1264 8.58538C40.2206 4.30151 42.259 -2.97688e-05 42.259 -2.97688e-05C40.9625 0.965772 36.3488 5.43211 33.7035 8.256Z" fill="white"/>
<path d="M50.7174 25.2503C49.6628 30.0177 46.431 33.6614 43.4306 34.569C44.3686 36.2411 46.7106 36.5786 48.1157 34.7139C49.9472 32.2834 50.3514 29.4351 50.3514 29.4351C50.9231 31.8634 48.2805 35.2918 48.2805 35.2918C52.5039 33.8415 53.4332 28.2769 53.4332 28.2769C53.9922 30.8506 51.6214 33.2891 51.6214 33.2891C52.0986 33.1071 53.5314 32.3902 54.5344 31.7875C55.5374 31.1848 56.6445 28.0693 56.6445 28.0693C56.7493 29.8684 55.3567 31.5446 55.3567 31.5446C59.3166 29.8861 61.8122 30.0908 61.8122 30.0908C58.8028 30.6117 57.278 31.4007 57.278 31.4007C59.6738 32.1464 60.3008 33.03 60.3008 33.03C58.9375 32.1648 56.9059 31.6444 56.1871 31.8411C55.4682 32.0377 53.7166 33.0831 53.7166 33.0831C58.2029 34.3075 58.4621 35.4793 58.4621 35.4793C55.9842 33.7154 52.8271 33.5577 52.8271 33.5577C51.5291 34.0903 50.3542 35.142 50.3542 35.142C54.979 35.6686 56.252 37.7219 56.252 37.7219C53.1206 35.5362 49.6072 35.6926 49.6072 35.6926C46.8032 37.0214 44.7681 39.3955 46.2794 41.5829C47.7907 43.7703 52.6095 44.7144 56.7289 42.5271C60.8483 40.3398 61.448 36.0004 63.108 32.421C64.7681 28.8416 68.379 28.4866 68.379 28.4866C67.2392 28.018 62.5105 26.7545 59.6273 26.1332C57.5685 25.6896 55.268 25.1046 52.7884 25.1046C52.1109 25.1046 51.4205 25.1482 50.7174 25.2503Z" fill="white"/>
<path d="M34.016 34.2083C29.3278 35.0873 30.3046 38.0174 30.9882 39.3848C31.7557 40.5433 32.633 39.7738 33.7572 39.0043C35.1606 38.0438 36.9488 37.0832 39.3879 39.8732C39.3879 39.8732 38.787 34.1276 34.8545 34.127C34.5901 34.127 34.3113 34.1529 34.016 34.2083Z" fill="white"/>
<path d="M40.2793 39.4952C39.8881 40.8981 39.8488 42.3009 39.8763 42.2498C41.3153 39.571 42.393 39.7074 43.2834 39.8438C43.7025 39.908 44.08 39.9722 44.4342 39.7429C45.5412 39.0267 45.7691 37.0082 42.9041 36.7477C42.8418 36.742 42.7809 36.7393 42.7211 36.7393C41.3875 36.7394 40.6636 38.1173 40.2793 39.4952Z" fill="white"/>
<path d="M37.0194 40.9719C37.0194 41.5788 37.5114 42.0707 38.1182 42.0707C38.7251 42.0707 39.217 41.5788 39.217 40.9719C39.217 40.3651 38.7251 39.8731 38.1182 39.8731C37.5114 39.8731 37.0194 40.3651 37.0194 40.9719Z" fill="white"/>
<path d="M1.19897 68.9052V64.2931H2.13159V66.1841H2.80034V64.2931H3.73815V68.9052H2.80034V66.8477H2.13159V68.9052H1.19897Z" fill="white"/>
<path d="M6.09778 67.5985V65.6051C6.09778 65.1507 5.95859 64.9236 5.68015 64.9236C5.59644 64.9236 5.52554 64.9445 5.46751 64.9863C5.4094 65.0282 5.36664 65.0854 5.33941 65.158C5.31203 65.2306 5.29279 65.3023 5.2817 65.3733C5.27059 65.4442 5.26509 65.5214 5.26509 65.6051V67.5985C5.26509 68.0512 5.40342 68.2775 5.68015 68.2775C5.95859 68.2775 6.09778 68.0512 6.09778 67.5985ZM4.3324 67.3884V65.8383C4.3324 64.7484 4.78168 64.2035 5.68015 64.2035C6.58034 64.2035 7.03047 64.7484 7.03047 65.8383V67.3654C7.03047 67.5499 7.01673 67.7203 6.98943 67.8765C6.96212 68.0328 6.91558 68.1809 6.84986 68.3211C6.78408 68.4612 6.70035 68.5803 6.59873 68.6786C6.4971 68.7768 6.36854 68.854 6.21307 68.9104C6.05767 68.9667 5.88 68.9949 5.68015 68.9949C5.48201 68.9949 5.30521 68.9672 5.14981 68.9116C4.99433 68.8562 4.86624 68.781 4.76547 68.6862C4.6646 68.5914 4.58136 68.4753 4.51565 68.3377C4.44986 68.2002 4.40285 68.0537 4.37468 67.8982C4.34652 67.7429 4.3324 67.5729 4.3324 67.3884Z" fill="white"/>
<path d="M7.60437 67.1911V64.2931H8.53698V67.1629C8.53698 67.3269 8.53783 67.4461 8.53955 67.5204C8.54125 67.5947 8.54552 67.6852 8.55234 67.7919C8.55918 67.8987 8.57112 67.9735 8.58827 68.0162C8.60533 68.0588 8.62876 68.1049 8.65871 68.1546C8.68858 68.2041 8.72744 68.2365 8.77532 68.2519C8.82311 68.2672 8.88122 68.275 8.94949 68.275C9.01784 68.275 9.07595 68.2672 9.12374 68.2519C9.17152 68.2365 9.21039 68.2045 9.24034 68.1558C9.27022 68.1071 9.29372 68.0615 9.31079 68.0186C9.32785 67.976 9.33981 67.9021 9.34663 67.7971C9.35346 67.692 9.35773 67.6033 9.35951 67.5307C9.36114 67.458 9.36207 67.3406 9.36207 67.1783V67.1629V64.2931H10.2947V67.1911C10.2947 67.3381 10.2904 67.4712 10.2819 67.5909C10.2733 67.7103 10.2571 67.8343 10.2332 67.9623C10.2093 68.0905 10.1768 68.2036 10.1359 68.3018C10.0948 68.4 10.0401 68.4941 9.97186 68.5837C9.90351 68.6734 9.82283 68.7473 9.72974 68.8053C9.63664 68.8634 9.5243 68.9094 9.3928 68.9437C9.26122 68.9779 9.11349 68.9949 8.94949 68.9949C8.78556 68.9949 8.63776 68.9779 8.50626 68.9437C8.37468 68.9094 8.26281 68.8634 8.17056 68.8053C8.07832 68.7473 7.99802 68.6734 7.92975 68.5837C7.8614 68.4941 7.80678 68.4 7.76574 68.3018C7.72478 68.2036 7.69188 68.0905 7.66714 67.9623C7.64231 67.8343 7.6257 67.7103 7.61718 67.5909C7.60856 67.4712 7.60437 67.3381 7.60437 67.1911Z" fill="white"/>
<path d="M10.7686 67.5857L11.7141 67.4037C11.7141 67.4977 11.7158 67.5806 11.7192 67.6522C11.7226 67.7239 11.7316 67.8021 11.7461 67.8867C11.7607 67.9713 11.7803 68.0405 11.805 68.0943C11.8298 68.148 11.8649 68.1933 11.9101 68.2301C11.9554 68.2668 12.0088 68.2852 12.0703 68.2852C12.2547 68.2852 12.347 68.1672 12.347 67.9315C12.347 67.6086 12.1651 67.2876 11.8012 66.9681L11.5117 66.7222C11.4194 66.6452 11.346 66.5813 11.2914 66.5299C11.2367 66.4787 11.1722 66.4095 11.0979 66.3225C11.0235 66.2353 10.9655 66.1512 10.9236 66.07C10.8817 65.9889 10.8459 65.8911 10.816 65.7766C10.7862 65.6623 10.7712 65.5409 10.7712 65.4129C10.7712 65.0388 10.8899 64.7428 11.1274 64.5251C11.3648 64.3072 11.6799 64.1983 12.0728 64.1983C12.3991 64.1983 12.6766 64.3145 12.9055 64.5468C13.1344 64.7791 13.2489 65.0593 13.2489 65.3872L13.2464 65.4205V65.4975L12.2829 65.6306C12.2829 65.6118 12.2842 65.5824 12.2867 65.5423C12.2893 65.5021 12.2906 65.4692 12.2906 65.4436C12.2906 65.382 12.2864 65.3232 12.2778 65.2668C12.2692 65.2104 12.2552 65.1541 12.2355 65.0976C12.2158 65.0413 12.1856 64.9964 12.1445 64.9632C12.1036 64.9299 12.054 64.9133 11.996 64.9133C11.8935 64.9133 11.8166 64.9533 11.7653 65.0337C11.7141 65.1139 11.6885 65.2087 11.6885 65.3181C11.6885 65.4137 11.7034 65.5034 11.7334 65.587C11.7632 65.6708 11.8084 65.749 11.8691 65.8215C11.9297 65.8941 11.9857 65.9544 12.0369 66.0022C12.0882 66.05 12.1565 66.1085 12.2419 66.1777C12.3273 66.2469 12.388 66.2977 12.4238 66.3301C12.5553 66.4463 12.6664 66.5552 12.757 66.6569C12.8474 66.7585 12.9329 66.8733 13.0131 67.0015C13.0934 67.1295 13.1536 67.2679 13.1938 67.4165C13.2339 67.5652 13.254 67.7258 13.254 67.8982C13.254 68.2211 13.1387 68.4855 12.9081 68.6912C12.6775 68.8971 12.3974 69 12.0677 69C11.8542 69 11.6645 68.9607 11.4989 68.8821C11.3332 68.8036 11.1995 68.6968 11.0979 68.5618C10.9962 68.427 10.9181 68.2774 10.8634 68.1134C10.8087 67.9495 10.7772 67.7736 10.7686 67.5857Z" fill="white"/>
<path d="M13.7305 68.9052V64.2931H15.6547V64.9338H14.6631V66.1892H15.3652V66.8451H14.6631V68.2647H15.6547V68.9052H13.7305Z" fill="white"/>
<path d="M18.9547 67.5985V65.6051C18.9547 65.1507 18.8155 64.9236 18.5371 64.9236C18.4534 64.9236 18.3825 64.9445 18.3244 64.9863C18.2663 65.0282 18.2236 65.0854 18.1963 65.158C18.169 65.2306 18.1497 65.3023 18.1386 65.3733C18.1275 65.4442 18.122 65.5214 18.122 65.6051V67.5985C18.122 68.0512 18.2604 68.2775 18.5371 68.2775C18.8155 68.2775 18.9547 68.0512 18.9547 67.5985ZM17.1893 67.3884V65.8383C17.1893 64.7484 17.6386 64.2035 18.5371 64.2035C19.4373 64.2035 19.8874 64.7484 19.8874 65.8383V67.3654C19.8874 67.5499 19.8737 67.7203 19.8464 67.8765C19.8191 68.0328 19.7725 68.1809 19.7068 68.3211C19.641 68.4612 19.5573 68.5803 19.4557 68.6786C19.354 68.7768 19.2255 68.854 19.07 68.9104C18.9146 68.9667 18.7369 68.9949 18.5371 68.9949C18.3389 68.9949 18.1621 68.9672 18.0067 68.9116C17.8513 68.8562 17.7232 68.781 17.6224 68.6862C17.5215 68.5914 17.4383 68.4753 17.3726 68.3377C17.3068 68.2002 17.2598 68.0537 17.2316 67.8982C17.2035 67.7429 17.1893 67.5729 17.1893 67.3884Z" fill="white"/>
<path d="M20.4817 68.9052V64.2931H22.406V64.9338H21.4143V66.1892H22.1164V66.8451H21.4143V68.9052H20.4817Z" fill="white"/>
<path d="M24.3735 68.9052V64.9901H23.6971V64.2931H25.9699V64.9901H25.3062V68.9052H24.3735Z" fill="white"/>
<path d="M27.3174 66.2123H27.5839C27.6557 66.2123 27.7171 66.1884 27.7684 66.1405C27.8197 66.0927 27.8568 66.032 27.8799 65.9586C27.903 65.8853 27.9192 65.8178 27.9285 65.7562C27.9379 65.6947 27.9427 65.6367 27.9427 65.5819C27.9427 65.5273 27.9388 65.471 27.9311 65.4129C27.9234 65.3547 27.9098 65.2904 27.8901 65.2194C27.8704 65.1485 27.838 65.0905 27.7928 65.0452C27.7475 64.9999 27.6924 64.9772 27.6275 64.9772H27.3174V66.2123ZM26.3848 68.9052V64.2931H27.3994C27.6301 64.2931 27.8329 64.315 28.008 64.3584C28.1831 64.402 28.3363 64.4705 28.4679 64.5634C28.5994 64.6567 28.6993 64.7822 28.7677 64.9401C28.836 65.0981 28.8702 65.2873 28.8702 65.5077C28.8702 65.6033 28.8668 65.6888 28.8599 65.7639C28.8531 65.839 28.8373 65.925 28.8125 66.0213C28.7878 66.118 28.754 66.2033 28.7113 66.2777C28.6686 66.352 28.6071 66.4249 28.5269 66.4968C28.4466 66.5684 28.3518 66.6282 28.2425 66.6761C28.5192 67.554 28.76 68.2971 28.965 68.9052H27.999L27.4712 66.7812H27.3174V68.9052H26.3848Z" fill="white"/>
<path d="M30.2819 67.3447H30.7584L30.5253 65.6333L30.2819 67.3447ZM29.1135 68.9052L30.1102 64.2931H30.9353L31.9294 68.9052H31.0096L30.82 67.9187H30.2179L30.0385 68.9052H29.1135Z" fill="white"/>
<path d="M33.3001 68.2518C33.3888 68.2518 33.4589 68.2506 33.5102 68.2479C33.5614 68.2455 33.6126 68.2391 33.6639 68.2288C33.7151 68.2185 33.7527 68.2045 33.7767 68.1865C33.8006 68.1685 33.8227 68.1426 33.8432 68.1083C33.8638 68.0742 33.877 68.0337 33.883 67.9866C33.8889 67.9396 33.892 67.8811 33.892 67.8112V65.3284C33.892 65.1763 33.8466 65.0756 33.7561 65.026C33.6656 64.9764 33.5136 64.9508 33.3001 64.9491V68.2518ZM32.3315 68.9052V64.2931H33.295C33.6024 64.2931 33.8556 64.3209 34.0546 64.3764C34.2536 64.432 34.4099 64.5234 34.5235 64.6506C34.6371 64.7778 34.7157 64.9304 34.7592 65.108C34.8028 65.2857 34.8246 65.5119 34.8246 65.787V67.2986C34.8246 67.4626 34.8194 67.6057 34.8092 67.7278C34.799 67.8499 34.7797 67.9696 34.7516 68.0866C34.7234 68.2036 34.6849 68.3027 34.6363 68.3839C34.5875 68.465 34.5248 68.5406 34.448 68.6105C34.3711 68.6807 34.2784 68.7361 34.1699 68.777C34.0615 68.8182 33.9342 68.8497 33.7881 68.8718C33.6421 68.8942 33.4743 68.9052 33.2847 68.9052H32.3315Z" fill="white"/>
<path d="M35.419 64.2931H36.3516V68.9052H35.419V64.2931Z" fill="white"/>
<path d="M37.443 68.9052V64.9901H36.7666V64.2931H39.0394V64.9901H38.3757V68.9052H37.443Z" fill="white"/>
<path d="M39.4543 64.2931H40.3869V68.9052H39.4543V64.2931Z" fill="white"/>
<path d="M42.7469 67.5985V65.6051C42.7469 65.1507 42.6075 64.9236 42.3292 64.9236C42.2454 64.9236 42.1746 64.9445 42.1163 64.9863C42.0582 65.0282 42.0157 65.0854 41.9884 65.158C41.9611 65.2306 41.9419 65.3023 41.9307 65.3733C41.9195 65.4442 41.9139 65.5214 41.9139 65.6051V67.5985C41.9139 68.0512 42.0524 68.2775 42.3292 68.2775C42.6075 68.2775 42.7469 68.0512 42.7469 67.5985ZM40.9813 67.3884V65.8383C40.9813 64.7484 41.4305 64.2035 42.3292 64.2035C43.2294 64.2035 43.6794 64.7484 43.6794 65.8383V67.3654C43.6794 67.5499 43.6658 67.7203 43.6384 67.8765C43.6111 68.0328 43.5646 68.1809 43.4988 68.3211C43.433 68.4612 43.3492 68.5803 43.2477 68.6786C43.1459 68.7768 43.0175 68.854 42.862 68.9104C42.7065 68.9667 42.529 68.9949 42.3292 68.9949C42.1309 68.9949 41.954 68.9672 41.7988 68.9116C41.6433 68.8562 41.5152 68.781 41.4143 68.6862C41.3135 68.5914 41.2303 68.4753 41.1646 68.3377C41.0988 68.2002 41.0518 68.0537 41.0236 67.8982C40.9954 67.7429 40.9813 67.5729 40.9813 67.3884Z" fill="white"/>
<path d="M44.2738 68.9052V64.2906H44.945L45.9572 66.7042V64.2906H46.731V68.9052H46.0853L45.0758 66.3455V68.9052H44.2738Z" fill="white"/>
<path d="M48.3016 67.3447H48.7781L48.5449 65.6333L48.3016 67.3447ZM47.1332 68.9052L48.1298 64.2931H48.9548L49.9491 68.9052H49.0291L48.8395 67.9187H48.2375L48.0581 68.9052H47.1332Z" fill="white"/>
<path d="M50.3511 68.9052V64.2931H51.2838V68.2647H52.2009V68.9052H50.3511Z" fill="white"/>
<path d="M53.5999 67.5857L54.5453 67.4037C54.5453 67.4977 54.547 67.5806 54.5504 67.6522C54.5538 67.7239 54.5628 67.8021 54.5774 67.8867C54.5918 67.9713 54.6115 68.0405 54.6363 68.0943C54.661 68.148 54.6961 68.1933 54.7414 68.2301C54.7865 68.2668 54.8399 68.2852 54.9015 68.2852C55.086 68.2852 55.1782 68.1672 55.1782 67.9315C55.1782 67.6086 54.9963 67.2876 54.6325 66.9681L54.3429 66.7222C54.2506 66.6452 54.1772 66.5813 54.1226 66.5299C54.0678 66.4787 54.0034 66.4095 53.9291 66.3225C53.8548 66.2353 53.7968 66.1512 53.7549 66.07C53.713 65.9889 53.6771 65.8911 53.6473 65.7766C53.6174 65.6623 53.6025 65.5409 53.6025 65.4129C53.6025 65.0388 53.7212 64.7428 53.9586 64.5251C54.196 64.3072 54.5111 64.1983 54.904 64.1983C55.2303 64.1983 55.5079 64.3145 55.7368 64.5468C55.9656 64.7791 56.0802 65.0593 56.0802 65.3872L56.0775 65.4205V65.4975L55.1141 65.6306C55.1141 65.6118 55.1155 65.5824 55.118 65.5423C55.1206 65.5021 55.1219 65.4692 55.1219 65.4436C55.1219 65.382 55.1175 65.3232 55.109 65.2668C55.1005 65.2104 55.0863 65.1541 55.0668 65.0976C55.0471 65.0413 55.0168 64.9964 54.9759 64.9632C54.9347 64.9299 54.8852 64.9133 54.8272 64.9133C54.7246 64.9133 54.6478 64.9533 54.5966 65.0337C54.5453 65.1139 54.5197 65.2087 54.5197 65.3181C54.5197 65.4137 54.5347 65.5034 54.5645 65.587C54.5945 65.6708 54.6398 65.749 54.7003 65.8215C54.7609 65.8941 54.817 65.9544 54.8682 66.0022C54.9194 66.05 54.9878 66.1085 55.0731 66.1777C55.1585 66.2469 55.2191 66.2977 55.2551 66.3301C55.3866 66.4463 55.4977 66.5552 55.5881 66.6569C55.6787 66.7585 55.7641 66.8733 55.8445 67.0015C55.9247 67.1295 55.9849 67.2679 56.0251 67.4165C56.0651 67.5652 56.0853 67.7258 56.0853 67.8982C56.0853 68.2211 55.97 68.4855 55.7394 68.6912C55.5087 68.8971 55.2286 69 54.8989 69C54.6854 69 54.4958 68.9607 54.3301 68.8821C54.1643 68.8036 54.0307 68.6968 53.9291 68.5618C53.8275 68.427 53.7493 68.2774 53.6947 68.1134C53.64 67.9495 53.6084 67.7736 53.5999 67.5857Z" fill="white"/>
<path d="M56.9999 68.9052V64.9901H56.3234V64.2931H58.5961V64.9901H57.9324V68.9052H56.9999Z" fill="white"/>
<path d="M59.9438 66.2123H60.2102C60.2819 66.2123 60.3435 66.1884 60.3947 66.1405C60.4459 66.0927 60.4832 66.032 60.5061 65.9586C60.5292 65.8853 60.5454 65.8178 60.5548 65.7562C60.5641 65.6947 60.569 65.6367 60.569 65.5819C60.569 65.5273 60.5651 65.471 60.5575 65.4129C60.5497 65.3547 60.5361 65.2904 60.5164 65.2194C60.4968 65.1485 60.4642 65.0905 60.4191 65.0452C60.3738 64.9999 60.3187 64.9772 60.2538 64.9772H59.9438V66.2123ZM59.0111 68.9052V64.2931H60.0257C60.2563 64.2931 60.4591 64.315 60.6343 64.3584C60.8093 64.402 60.9626 64.4705 61.0942 64.5634C61.2258 64.6567 61.3257 64.7822 61.394 64.9401C61.4622 65.0981 61.4965 65.2873 61.4965 65.5077C61.4965 65.6033 61.493 65.6888 61.4863 65.7639C61.4793 65.839 61.4636 65.925 61.4388 66.0213C61.414 66.118 61.3803 66.2033 61.3376 66.2777C61.295 66.352 61.2334 66.4249 61.1531 66.4968C61.0728 66.5684 60.978 66.6282 60.8687 66.6761C61.1454 67.554 61.3864 68.2971 61.5913 68.9052H60.6253L60.0974 66.7812H59.9438V68.9052H59.0111Z" fill="white"/>
<path d="M61.991 68.9052V64.2931H63.9152V64.9338H62.9237V66.1892H63.6256V66.8451H62.9237V68.2647H63.9152V68.9052H61.991Z" fill="white"/>
<path d="M64.3533 68.9052V64.2931H66.2775V64.9338H65.286V66.1892H65.9879V66.8451H65.286V68.2647H66.2775V68.9052H64.3533Z" fill="white"/>
<path d="M67.1537 68.9052V64.9901H66.4772V64.2931H68.7499V64.9901H68.0862V68.9052H67.1537Z" fill="white"/>
<path d="M70.3204 68.9052V64.2931H72.2446V64.9338H71.2531V66.1892H71.9551V66.8451H71.2531V68.9052H70.3204Z" fill="white"/>
<path d="M80.6687 68.2518C80.7575 68.2518 80.8276 68.2506 80.8788 68.2479C80.93 68.2455 80.9812 68.2391 81.0326 68.2288C81.0838 68.2185 81.1213 68.2045 81.1452 68.1865C81.1691 68.1685 81.1915 68.1426 81.2119 68.1083C81.2324 68.0742 81.2456 68.0337 81.2517 67.9866C81.2576 67.9396 81.2605 67.8811 81.2605 67.8112V65.3284C81.2605 65.1763 81.2154 65.0756 81.1247 65.026C81.0343 64.9764 80.8822 64.9508 80.6687 64.9491V68.2518ZM79.7002 68.9052V64.2931H80.6636C80.971 64.2931 81.2242 64.3209 81.4233 64.3764C81.6222 64.432 81.7786 64.5234 81.8922 64.6506C82.0058 64.7778 82.0843 64.9304 82.1279 65.108C82.1715 65.2857 82.1932 65.5119 82.1932 65.787V67.2986C82.1932 67.4626 82.1881 67.6057 82.1778 67.7278C82.1676 67.8499 82.1484 67.9696 82.1203 68.0866C82.092 68.2036 82.0536 68.3027 82.0048 68.3839C81.9563 68.465 81.8934 68.5406 81.8166 68.6105C81.7397 68.6807 81.647 68.7361 81.5386 68.777C81.4301 68.8182 81.3029 68.8497 81.1569 68.8718C81.0107 68.8942 80.843 68.9052 80.6534 68.9052H79.7002Z" fill="white"/>
<path d="M74.6852 67.5985V65.6051C74.6852 65.1507 74.5459 64.9236 74.2675 64.9236C74.1837 64.9236 74.113 64.9445 74.0546 64.9863C73.9966 65.0282 73.9541 65.0854 73.9268 65.158C73.8995 65.2306 73.8802 65.3023 73.8691 65.3733C73.8579 65.4442 73.8523 65.5214 73.8523 65.6051V67.5985C73.8523 68.0512 73.9907 68.2775 74.2675 68.2775C74.5459 68.2775 74.6852 68.0512 74.6852 67.5985ZM72.9197 67.3884V65.8383C72.9197 64.7484 73.3688 64.2035 74.2675 64.2035C75.1678 64.2035 75.6178 64.7484 75.6178 65.8383V67.3654C75.6178 67.5499 75.6041 67.7203 75.5768 67.8765C75.5495 68.0328 75.5029 68.1809 75.4371 68.3211C75.3714 68.4612 75.2876 68.5803 75.1861 68.6786C75.0843 68.7768 74.9558 68.854 74.8004 68.9104C74.6449 68.9667 74.4674 68.9949 74.2675 68.9949C74.0692 68.9949 73.8923 68.9672 73.7372 68.9116C73.5817 68.8562 73.4535 68.781 73.3527 68.6862C73.2519 68.5914 73.1686 68.4753 73.1029 68.3377C73.0371 68.2002 72.9901 68.0537 72.962 67.8982C72.9338 67.7429 72.9197 67.5729 72.9197 67.3884Z" fill="white"/>
<path d="M78.0387 67.5985V65.6051C78.0387 65.1507 77.8994 64.9236 77.621 64.9236C77.5372 64.9236 77.4665 64.9445 77.4081 64.9863C77.3501 65.0282 77.3076 65.0854 77.2803 65.158C77.253 65.2306 77.2337 65.3023 77.2226 65.3733C77.2114 65.4442 77.2058 65.5214 77.2058 65.6051V67.5985C77.2058 68.0512 77.3442 68.2775 77.621 68.2775C77.8994 68.2775 78.0387 68.0512 78.0387 67.5985ZM76.2732 67.3884V65.8383C76.2732 64.7484 76.7223 64.2035 77.621 64.2035C78.5213 64.2035 78.9713 64.7484 78.9713 65.8383V67.3654C78.9713 67.5499 78.9576 67.7203 78.9303 67.8765C78.903 68.0328 78.8565 68.1809 78.7907 68.3211C78.7249 68.4612 78.6411 68.5803 78.5396 68.6786C78.4378 68.7768 78.3093 68.854 78.1539 68.9104C77.9984 68.9667 77.8209 68.9949 77.621 68.9949C77.4227 68.9949 77.2458 68.9672 77.0907 68.9116C76.9352 68.8562 76.807 68.781 76.7062 68.6862C76.6054 68.5914 76.5222 68.4753 76.4564 68.3377C76.3907 68.2002 76.3436 68.0537 76.3155 67.8982C76.2873 67.7429 76.2732 67.5729 76.2732 67.3884Z" fill="white"/>
<path d="M47.3767 49.703C47.2835 50.1635 47.1074 50.604 46.843 50.9862H56.056V53.0927L52.8034 58.9781C52.5021 59.5167 52.2402 59.7859 52.0182 59.7859C51.6164 59.6863 51.4155 59.0732 51.4155 57.947C51.4155 57.6688 51.4457 57.2517 51.5063 56.6959C51.567 56.1399 51.5974 55.7228 51.5974 55.4449C51.5974 53.3635 50.6313 52.3334 48.6996 52.3547C48.3503 52.3547 48.0653 52.3798 47.8443 52.4296C47.3951 52.5223 46.9355 52.7682 46.4651 53.1674L47.8443 54.4184C48.2007 54.0051 48.4324 53.752 48.5393 53.6592C48.8316 53.4027 49.1344 53.2743 49.4482 53.2743C49.8686 53.2743 50.0791 53.3991 50.0791 53.6486C50.0791 53.784 49.9792 53.9872 49.7797 54.2581C49.3376 54.8498 49.1166 55.4876 49.1166 56.1719C49.1166 57.5122 49.6798 58.7311 50.806 59.8288C51.8325 60.8339 52.6626 61.3364 53.2972 61.3364L57.0933 54.6643C57.5636 53.8375 57.863 53.2957 57.9914 53.0391V50.9862H59.082L59.1034 49.703H47.3767Z" fill="white"/>
<path d="M59.1461 43.9719V44.2178C59.4526 44.8952 59.6594 45.3977 59.7663 45.7254C59.8803 45.918 60.1814 46.0944 60.6698 46.2548C61.158 46.4152 61.5448 46.7199 61.8298 47.169L62.5248 48.591C62.6103 48.6196 62.7102 48.6338 62.8242 48.6338C62.9596 48.6338 63.0417 48.6196 63.0702 48.591C63.0702 48.413 63.0629 48.2596 63.0488 48.1312C62.906 47.8605 62.7316 47.3794 62.5248 46.6878C62.3039 45.9537 62.1399 45.4974 62.033 45.3191C61.8405 44.9914 61.4627 44.7027 60.8998 44.4531C60.5575 44.3034 60.112 44.143 59.5632 43.9719H59.1461ZM59.3493 50.9862H63.7012V49.703H59.3493V50.9862ZM60.6859 52.312V60.5664L62.4822 61.561V52.312H60.6859Z" fill="white"/>
<path d="M62.0118 42.09L62.6854 42.8495C63.5409 43.8125 64.1716 44.8822 64.5779 46.059C64.8702 46.9007 65.0164 47.696 65.0164 48.4448V60.6941C65.0519 60.6941 65.3869 60.8584 66.0215 61.1865L66.5773 61.4752C66.6913 61.5322 66.7842 61.5714 66.8556 61.5928V48.4234C66.8556 47.8315 66.7768 47.1718 66.6202 46.4442C66.2494 44.7253 65.4724 43.274 64.2892 42.09H62.0118ZM67.2083 50.9861H68.3417V49.703H67.2083V50.9861ZM63.4659 50.9861H64.6848V49.703H63.4659V50.9861Z" fill="white"/>
<path d="M66.5665 42.09L67.2401 42.8495C68.0956 43.8125 68.7263 44.8822 69.1326 46.059C69.4249 46.9007 69.5711 47.696 69.5711 48.4448V60.6941C69.6066 60.6941 69.9416 60.8584 70.5762 61.1865L71.132 61.4752C71.246 61.5322 71.3389 61.5714 71.4103 61.5928V48.4234C71.4103 47.8315 71.3315 47.1718 71.1749 46.4442C70.8042 44.7253 70.0271 43.274 68.8439 42.09H66.5665ZM71.763 50.9861H72.8964V49.703H71.763V50.9861ZM68.0206 50.9861H69.2395V49.703H68.0206V50.9861Z" fill="white"/>
<path d="M72.4583 49.703V50.9862H74.6501V53.7523C74.6428 53.7595 74.625 53.7809 74.5965 53.8166C74.4185 53.9738 74.2827 54.0917 74.1902 54.1703V54.9636C74.5965 54.8211 75.0135 54.6609 75.4413 54.4825C76.3965 54.0834 77.4478 53.8731 78.5954 53.8518C79.1087 53.8375 79.5133 53.8982 79.809 54.0335C80.1047 54.1689 80.4095 54.4363 80.7232 54.8354V55.819C80.103 55.3487 79.2833 55.1134 78.2642 55.1134C76.5816 55.1134 75.1741 55.6801 74.0406 56.8135C73.456 57.3982 73.1639 57.9862 73.1639 58.5777C73.1639 59.1053 73.349 59.5828 73.7198 60.0105C74.4825 60.8946 75.566 61.3364 76.9704 61.3364C77.9896 61.3364 78.8843 61.1547 79.6541 60.791C79.8962 60.677 80.2063 60.5097 80.5844 60.2884C80.6769 60.3528 80.7232 60.499 80.7232 60.7269C81.7069 61.1333 82.2738 61.3646 82.4233 61.4219V57.3054C82.4233 55.4876 82.2701 54.2794 81.9637 53.6806C81.5074 52.7825 80.4775 52.3334 78.8736 52.3334C78.4887 52.3334 78.0999 52.3691 77.708 52.4403C76.8006 52.6048 76.2808 52.712 76.1487 52.7619C76.1446 52.7583 76.1405 52.7544 76.1363 52.7502C76.1078 52.7215 76.079 52.7072 76.0508 52.7072V50.9862H83.1719V49.703H72.4583ZM73.8908 59.3048C73.8908 59.0269 74.0725 58.6705 74.4362 58.2357C75.3415 57.1522 76.546 56.6104 78.0503 56.6104C78.4636 56.6104 78.9806 56.7139 79.6005 56.9205C80.3491 57.1699 80.7232 57.4515 80.7232 57.765C80.7232 58.0717 80.2455 58.5136 79.2907 59.0909C78.1928 59.754 76.9811 60.0853 75.6552 60.0853C74.6287 60.0853 74.0406 59.8251 73.8908 59.3048Z" fill="white"/>
</svg>
