<svg width="24" height="24" viewBox="0 0 24 24" fill="none" xmlns="http://www.w3.org/2000/svg">
<path d="M21.3916 15.6748C21.3684 15.636 21.344 15.5988 21.3196 15.566C21.0772 15.2272 20.7168 15.0033 20.3056 14.9356C19.8964 14.868 19.4816 14.9644 19.144 15.2068L14.672 18.4H9.99998C9.77958 18.4 9.6 18.2208 9.6 18.0001C9.6 17.7793 9.77958 17.6001 9.99998 17.6001H12.6C13.372 17.6001 14 16.9721 14 16.2001C14 16.1957 13.9996 16.1589 13.9992 16.1549C13.9744 15.3833 13.3236 14.7817 12.568 14.8001H7.36444C6.90323 14.8041 6.45403 14.9693 6.10003 15.2645L4.14403 16.8925C4.05281 16.9689 4.00003 17.0813 4.00003 17.2001V22.0001C4.00003 22.2213 4.17923 22.4001 4.40001 22.4001H14.3244C14.974 22.3993 15.6068 22.1705 16.1069 21.7565L20.9561 17.7497C21.6148 17.2804 21.806 16.3692 21.3916 15.6748ZM20.4696 17.1156L15.5972 21.14C15.2396 21.436 14.7872 21.5992 14.324 21.6H4.8V17.3876L6.61237 15.8788C6.82519 15.7016 7.09439 15.6024 7.368 15.6L12.5808 15.5996C12.9124 15.5992 13.1892 15.85 13.2 16.2C13.2 16.5308 12.9308 16.8 12.6 16.8H9.99998C9.33839 16.8 8.79998 17.3384 8.79998 18C8.79998 18.6616 9.33839 19.2 9.99998 19.2H14.8C14.8832 19.2 14.9644 19.174 15.0332 19.1256L19.61 15.8572C19.7748 15.7388 19.9752 15.6928 20.176 15.7248C20.3764 15.758 20.5516 15.8668 20.672 16.0348C20.684 16.0512 20.6947 16.068 20.7052 16.0852C20.9076 16.424 20.8136 16.8692 20.4696 17.1156Z"/>
<path d="M4.38802 16.4H0V17.2H3.98798V23.2H0V24H4.38802C4.6088 24 4.788 23.8212 4.788 23.6V16.8C4.788 16.5788 4.6088 16.4 4.38802 16.4Z"/>
<path d="M2.00002 20C1.33842 20 0.800018 20.5384 0.800018 21.2C0.800018 21.8616 1.33842 22.4 2.00002 22.4C2.66161 22.4 3.20002 21.8616 3.20002 21.2C3.20002 20.5384 2.66161 20 2.00002 20ZM2.00002 21.6C1.77961 21.6 1.60003 21.4208 1.60003 21.2C1.60003 20.9792 1.77961 20.8 2.00002 20.8C2.22042 20.8 2.4 20.9792 2.4 21.2C2.4 21.4208 2.22042 21.6 2.00002 21.6Z"/>
<path d="M23.6 12.4H0.399984C0.179203 12.4 0 12.5788 0 12.8C0 14.3436 1.25602 15.6 2.79998 15.6H21.2C22.7436 15.6 24 14.3436 24 12.8C24 12.5789 23.8212 12.4 23.6 12.4ZM21.2 14.8H2.79998C1.83398 14.8 1.026 14.1116 0.840375 13.2H23.1596C22.974 14.1116 22.166 14.8 21.2 14.8Z"/>
<path d="M12 2C6.26559 2 1.59998 6.66561 1.59998 12.4V12.8C1.59998 13.0212 1.77919 13.2 1.99997 13.2H22C22.2212 13.2 22.4 13.0212 22.4 12.8V12.4C22.4 6.66556 17.7348 2 12 2ZM2.4 12.4C2.4 7.10675 6.70678 2.79997 12 2.79997C17.2932 2.79997 21.6 7.10675 21.6 12.4H2.4Z"/>
<path d="M5.42081 6.56274C5.1412 6.87713 4.88203 7.21356 4.65042 7.56315L5.31722 8.00513C5.52844 7.68671 5.76441 7.37992 6.0188 7.09393L5.42081 6.56274Z"/>
<path d="M12 3.59998C9.75361 3.60119 7.61479 4.44996 5.97801 5.98877L6.52603 6.57157C8.01403 5.17235 9.9584 4.40116 12.0004 4.39999L12 3.59998Z"/>
<path d="M13.2 0H10.8V0.800016H13.2V0Z"/>
<path d="M12.4 0.400024H11.6V2.40004H12.4V0.400024Z"/>
</svg>
