<svg width="24" height="24" viewBox="0 0 24 24" fill="none" xmlns="http://www.w3.org/2000/svg">
<path d="M11.9987 20.5783C6.38036 20.5783 1.72258 17.0421 1.31475 12.4916H22.6826C22.2748 17.0421 17.617 20.5783 11.9987 20.5783ZM18.1536 22.7194H5.84375V20.4388C7.6414 21.3403 9.74492 21.8608 11.9987 21.8608C14.2525 21.8608 16.356 21.3403 18.1536 20.4388V22.7194ZM11.0328 9.30412C11.8806 8.45628 12.9807 8.02699 13.9305 8.12358C13.2597 8.54213 12.4709 9.17534 11.6875 9.95342C11.2635 10.3773 10.8879 10.7959 10.5659 11.2037H9.94346C10.0991 10.5383 10.4693 9.86756 11.0328 9.30412ZM18.057 5.32247C19.0444 4.3351 19.8708 3.19212 20.4986 1.94181C20.5523 1.83449 20.6274 1.73253 20.7186 1.64131C21.1747 1.18519 21.9153 1.18519 22.366 1.64131C22.8221 2.09743 22.8221 2.83795 22.366 3.28871C22.2748 3.37993 22.1728 3.44969 22.0655 3.50872C20.8152 4.13655 19.6722 4.96294 18.6795 5.9503C17.6921 6.93767 16.9409 7.68892 16.4579 8.17187C16.3667 8.05382 16.2701 7.93576 16.1574 7.82844C16.0555 7.72648 15.9428 7.6299 15.8301 7.54404C16.3184 7.06109 17.075 6.30983 18.057 5.32247ZM13.308 11.2037H12.267C12.3743 11.091 12.4816 10.9784 12.5943 10.8657C13.469 9.99099 14.3437 9.31486 14.993 8.99289C14.6978 9.59926 14.0915 10.3988 13.308 11.2037ZM15.0305 11.2037C15.3579 10.8066 15.6369 10.4203 15.8569 10.0715C15.8891 10.4364 15.8516 10.8227 15.7389 11.2037H15.0305ZM23.9973 11.8477C23.9973 11.4935 23.7075 11.2037 23.3534 11.2037H17.0643C17.1931 10.5866 17.1824 9.96952 17.0482 9.40608C17.4614 8.99289 18.3414 8.11285 19.5971 6.85717C20.4879 5.9664 21.5182 5.22051 22.6504 4.6517C22.8812 4.53901 23.0904 4.3834 23.2836 4.19558C24.2388 3.24041 24.2388 1.68424 23.2836 0.729072C22.3285 -0.226097 20.7723 -0.226097 19.8171 0.729072C19.6239 0.922252 19.4737 1.1369 19.361 1.36227C18.7922 2.48916 18.0517 3.51945 17.1555 4.41559C15.9052 5.6659 15.0305 6.54057 14.612 6.95913C13.1792 6.60497 11.4406 7.08792 10.1313 8.39725C9.3049 9.22363 8.80585 10.2271 8.6395 11.2091H4.91005C4.1266 10.9569 3.55779 10.1037 3.71877 8.94459C3.87975 7.78551 3.63291 7.08255 3.32168 6.65326C2.75824 5.86444 1.91039 5.83761 1.91039 5.83761C1.55623 5.82151 1.25572 6.09519 1.23963 6.44935C1.22353 6.80351 1.4972 7.10402 1.85136 7.12011C1.85136 7.12011 2.10357 7.15231 2.27529 7.39379C2.45773 7.65136 2.54359 8.07528 2.447 8.76215C2.30748 9.74414 2.51676 10.5759 2.92995 11.2091H0.643987C0.289824 11.2091 5.34058e-05 11.4989 5.34058e-05 11.853C5.34058e-05 15.019 1.77624 17.8631 4.55588 19.7037V23.3687C4.55588 23.7229 4.84565 24.0126 5.19982 24.0126H18.7922C19.1464 24.0126 19.4361 23.7229 19.4361 23.3687V19.7037C22.2158 17.8577 23.9973 15.0137 23.9973 11.8477Z"/>
<path d="M1.24499 5.5209C1.57232 5.38138 1.72258 5.00038 1.57769 4.67305C1.57769 4.67305 1.28255 3.99155 1.28792 3.19737C1.28792 2.73052 1.39524 2.21537 1.78697 1.80754C2.26992 1.31386 2.89776 1.22264 3.48266 1.34069C3.82073 1.41045 4.14806 1.5446 4.4271 1.72169L3.40217 2.26903C3.1285 2.41392 2.99435 2.73588 3.09094 3.03638L3.3968 3.98619L2.88702 4.07204C2.53823 4.13107 2.30212 4.46377 2.36114 4.81257C2.42017 5.16137 2.75287 5.39747 3.10167 5.33845L4.34124 5.1238C4.52369 5.09161 4.68467 4.98428 4.78126 4.8233C4.87785 4.66232 4.89932 4.46914 4.84029 4.29206L4.47003 3.14907L5.83302 2.42465C5.99937 2.33342 6.12279 2.17781 6.16035 1.98999C6.19792 1.80218 6.15499 1.609 6.03693 1.45875C5.01737 0.165513 2.46847 -0.725262 0.869364 0.916769C0.214698 1.58753 0.0054193 2.42465 5.31881e-05 3.19737C-0.00531293 4.26522 0.397146 5.1882 0.397146 5.1882C0.542031 5.51553 0.917659 5.66578 1.24499 5.5209Z"/>
<path d="M9.08488 2.03295C9.08488 2.03295 9.66979 1.57146 10.4318 1.37291C10.8825 1.25486 11.4084 1.22266 11.9021 1.49633C12.5085 1.8344 12.7553 2.41931 12.7929 3.01494C12.8143 3.35838 12.766 3.70717 12.6694 4.02377L11.8753 3.17593C11.6606 2.95055 11.3172 2.90762 11.0542 3.07397L10.2279 3.61058L10.0132 3.13837C9.86297 2.8164 9.48197 2.67688 9.16001 2.82176C8.83804 2.97202 8.69852 3.35301 8.8434 3.67498L9.36928 4.81796C9.44978 4.98967 9.59466 5.1131 9.77174 5.16676C9.94882 5.22042 10.142 5.18822 10.2976 5.09163L11.3065 4.43696L12.3582 5.56922C12.487 5.70873 12.6748 5.78386 12.8626 5.77313C13.0558 5.7624 13.2275 5.66581 13.3456 5.51555C14.3276 4.19012 14.5315 1.49097 12.5299 0.374816C11.7196 -0.0813036 10.8503 -0.0652052 10.1044 0.127975C9.06878 0.401647 8.28533 1.02412 8.28533 1.02412C8.00629 1.24413 7.96336 1.64659 8.18337 1.92562C8.40338 2.20466 8.80584 2.25296 9.08488 2.03295Z"/>
<path d="M8.8917 7.2219C9.19757 7.39898 9.59466 7.29166 9.76638 6.98042C9.94346 6.67455 9.83614 6.27746 9.5249 6.10575C7.5609 4.98423 7.6575 3.22414 7.6575 3.22414C7.68433 2.86998 7.42139 2.55874 7.06722 2.53191C6.71306 2.50508 6.40182 2.76802 6.37499 3.12219C6.38036 3.12755 6.14425 5.65499 8.8917 7.2219Z"/>
<path d="M6.3589 8.04837C6.76136 8.04837 7.09406 8.3757 7.09406 8.78352C7.09406 9.18598 6.76672 9.51868 6.3589 9.51868C5.95107 9.51868 5.62374 9.19135 5.62374 8.78352C5.62374 8.3757 5.95644 8.04837 6.3589 8.04837ZM4.34124 8.77816C4.34124 9.89431 5.24811 10.7958 6.3589 10.7958C7.47505 10.7958 8.37656 9.88894 8.37656 8.77816C8.37656 7.66201 7.46968 6.7605 6.3589 6.7605C5.24275 6.7605 4.34124 7.66737 4.34124 8.77816Z"/>
</svg>
