<svg width="24" height="24" viewBox="0 0 24 24" fill="none" xmlns="http://www.w3.org/2000/svg">
<path d="M12 1.19997C10.1317 1.19722 8.29464 1.67992 6.66896 2.60077C5.04329 3.52161 3.68473 4.84901 2.72642 6.45289C1.76811 8.05676 1.24292 9.8821 1.20233 11.75C1.16173 13.6179 1.60711 15.4644 2.49483 17.1084L1.25043 21.2544C1.19652 21.4336 1.18529 21.623 1.21764 21.8073C1.24999 21.9917 1.32501 22.1659 1.43672 22.3161C1.54843 22.4663 1.69372 22.5883 1.86099 22.6723C2.02825 22.7563 2.21285 22.8 2.40003 22.8C2.51705 22.7998 2.63343 22.7828 2.74563 22.7496L6.89163 21.5052C8.33872 22.2858 9.94495 22.7257 11.5879 22.7913C13.2308 22.857 14.867 22.5467 16.3717 21.884C17.8765 21.2214 19.2101 20.2239 20.2709 18.9676C21.3316 17.7113 22.0916 16.2294 22.4927 14.6349C22.8939 13.0404 22.9257 11.3753 22.5857 9.76664C22.2457 8.15796 21.5428 6.64816 20.5308 5.35232C19.5187 4.05648 18.2242 3.00882 16.7458 2.28922C15.2674 1.56962 13.6442 1.19707 12 1.19997ZM12 5.99997C12.2374 5.99997 12.4694 6.07035 12.6667 6.2022C12.8641 6.33406 13.0179 6.52148 13.1087 6.74075C13.1995 6.96002 13.2233 7.2013 13.177 7.43408C13.1307 7.66685 13.0164 7.88067 12.8486 8.0485C12.6807 8.21632 12.4669 8.33061 12.2341 8.37691C12.0014 8.42321 11.7601 8.39945 11.5408 8.30862C11.3215 8.2178 11.1341 8.06399 11.0023 7.86665C10.8704 7.66931 10.8 7.43731 10.8 7.19997C10.8 6.88171 10.9265 6.57648 11.1515 6.35144C11.3765 6.1264 11.6818 5.99997 12 5.99997ZM13.2 18H12C11.6818 18 11.3765 17.8735 11.1515 17.6485C10.9265 17.4235 10.8 17.1182 10.8 16.8V12C10.4818 12 10.1765 11.8735 9.9515 11.6485C9.72646 11.4235 9.60003 11.1182 9.60003 10.8C9.60003 10.4817 9.72646 10.1765 9.9515 9.95144C10.1765 9.7264 10.4818 9.59997 10.8 9.59997H12C12.3183 9.59997 12.6235 9.7264 12.8486 9.95144C13.0736 10.1765 13.2 10.4817 13.2 10.8V15.6C13.5183 15.6 13.8235 15.7264 14.0486 15.9514C14.2736 16.1765 14.4 16.4817 14.4 16.8C14.4 17.1182 14.2736 17.4235 14.0486 17.6485C13.8235 17.8735 13.5183 18 13.2 18Z"/>
</svg>
