<svg width="24" height="24" viewBox="0 0 24 24" fill="none" xmlns="http://www.w3.org/2000/svg">
<path d="M23.7162 5.7936C23.5122 5.57085 23.2219 5.44312 22.9198 5.44312H22.5993C21.7589 5.44312 21.0698 6.07443 20.9963 6.91161L20.6496 10.8622C20.6189 11.2123 20.3306 11.4763 19.9791 11.4763H16.9779C16.0162 11.4763 15.2338 12.2587 15.2338 13.2204V13.3937C15.2338 13.9747 15.7065 14.4474 16.2875 14.4474H16.9307L16.2973 16.5162C16.2968 16.5177 16.2963 16.5193 16.2959 16.5208L15.8117 18.1022C15.7548 18.2879 15.8592 18.4844 16.0449 18.5413C16.0792 18.5518 16.1139 18.5568 16.1479 18.5568C16.2984 18.5568 16.4376 18.4594 16.4839 18.3081L16.8923 16.9744H21.7143L22.1227 18.3081C22.169 18.4594 22.3082 18.5568 22.4587 18.5568C22.4928 18.5568 22.5275 18.5518 22.5618 18.5413C22.7474 18.4844 22.8518 18.2878 22.795 18.1022L21.6458 14.3491C21.8475 14.292 22.0424 14.2107 22.2252 14.1059C22.3936 14.0094 22.4519 13.7945 22.3553 13.6261C22.2588 13.4577 22.0439 13.3994 21.8755 13.496C21.5922 13.6584 21.269 13.7443 20.9408 13.7443H17.4063C17.4052 13.7443 17.404 13.7443 17.4029 13.7443H16.2876C16.0943 13.7443 15.937 13.5871 15.937 13.3938V13.2205C15.937 12.6465 16.404 12.1795 16.978 12.1795H19.9792C20.6979 12.1795 21.2873 11.6396 21.3501 10.9237L21.6968 6.97307C21.7381 6.50169 22.1262 6.14619 22.5994 6.14619H22.9199C23.0268 6.14619 23.1256 6.18965 23.1978 6.26854C23.2701 6.34743 23.3048 6.44957 23.2954 6.55616L22.8153 12.027C22.8035 12.1619 22.7772 12.2954 22.7372 12.4237C22.6795 12.6091 22.783 12.8062 22.9684 12.8639C23.154 12.9217 23.3508 12.8181 23.4086 12.6328C23.4635 12.4565 23.4996 12.2734 23.5158 12.0884L23.9959 6.61761C24.0222 6.31672 23.9203 6.01635 23.7162 5.7936ZM17.666 14.4474H20.9404L21.4989 16.2713H17.1075L17.666 14.4474Z"/>
<path d="M7.02203 11.4763H4.02081C3.6693 11.4763 3.38111 11.2123 3.35036 10.8622L3.00367 6.91161C2.93022 6.07443 2.24107 5.44312 1.40065 5.44312H1.08016C0.7781 5.44312 0.487804 5.57085 0.283757 5.7936C0.0797106 6.01635 -0.0221955 6.31672 0.00414821 6.61771L0.484241 12.0885C0.540913 12.7341 0.835287 13.3308 1.31318 13.7686C1.61341 14.0436 1.96989 14.2409 2.35408 14.3497L1.20499 18.1022C1.14813 18.2879 1.25257 18.4845 1.43819 18.5413C1.4725 18.5518 1.50719 18.5568 1.54127 18.5568C1.69169 18.5568 1.83096 18.4595 1.87727 18.3081L2.28564 16.9745H7.10767L7.51604 18.3081C7.56235 18.4595 7.70157 18.5568 7.85204 18.5568C7.88616 18.5568 7.92085 18.5518 7.95512 18.5413C8.14074 18.4845 8.24518 18.2879 8.18832 18.1022L7.7041 16.5209C7.70363 16.5193 7.70316 16.5178 7.7027 16.5162L7.06923 14.4474H7.71249C8.29351 14.4474 8.7661 13.9748 8.7661 13.3938V13.2205C8.7661 12.2587 7.98371 11.4763 7.02203 11.4763ZM2.50094 16.2713L3.05941 14.4474H6.33385L6.89232 16.2713H2.50094ZM8.06298 13.3937C8.06298 13.587 7.90576 13.7442 7.71249 13.7442H6.59743C6.59603 13.7442 6.59467 13.7442 6.59326 13.7442H3.05922C2.98403 13.7442 2.91006 13.7394 2.83722 13.731C2.83717 13.731 2.83708 13.731 2.83699 13.731C1.95743 13.6293 1.26396 12.9311 1.18465 12.027L0.704553 6.55621C0.695178 6.44957 0.729866 6.34743 0.802147 6.26854C0.874381 6.18964 0.973099 6.14619 1.08011 6.14619H1.4006C1.8738 6.14619 2.26183 6.50164 2.30317 6.97307L2.64986 10.9236V10.9236C2.71267 11.6395 3.30203 12.1794 4.02077 12.1794H7.02198C7.59596 12.1794 8.06293 12.6464 8.06293 13.2204L8.06298 13.3937Z"/>
<path d="M14.6694 17.3972C14.5243 16.8396 14.0206 16.4501 13.4444 16.4501H13.2268V10.0501H17.5559C17.8052 10.0501 18.0386 9.93919 18.1962 9.74593C18.3538 9.55262 18.4155 9.30165 18.3652 9.05734C18.214 8.32215 17.5595 7.78857 16.809 7.78857H9.4999C9.3057 7.78857 9.14834 7.94598 9.14834 8.14014C9.14834 8.33429 9.3057 8.4917 9.4999 8.4917H16.809C17.2274 8.4917 17.5922 8.78917 17.6765 9.19895C17.6867 9.24882 17.6651 9.28468 17.6513 9.30165C17.6375 9.31857 17.6067 9.34698 17.5559 9.34698H6.44399C6.39313 9.34698 6.36238 9.31857 6.34855 9.30165C6.33477 9.28473 6.31311 9.24882 6.32338 9.19899C6.40766 8.78917 6.77244 8.4917 7.19084 8.4917H7.85103C8.04523 8.4917 8.20259 8.33429 8.20259 8.14014C8.20259 7.94598 8.04523 7.78857 7.85103 7.78857H7.19084C6.44028 7.78857 5.78582 8.32215 5.63464 9.05738C5.58444 9.3017 5.64604 9.55266 5.80363 9.74593C5.96122 9.93919 6.19461 10.0501 6.44399 10.0501H10.7731V16.4501H10.5555C9.97929 16.4501 9.47557 16.8396 9.3305 17.3972L9.24795 17.7144C9.19512 17.9176 9.23844 18.1294 9.36683 18.2955C9.49526 18.4616 9.68933 18.5569 9.89923 18.5569H14.1006C14.3106 18.5569 14.5046 18.4616 14.633 18.2955C14.7614 18.1294 14.8047 17.9176 14.7519 17.7144L14.6694 17.3972ZM11.4762 10.0501H12.5237V16.4501H11.4762V10.0501ZM9.93823 17.8537L10.011 17.5742C10.0754 17.3264 10.2994 17.1532 10.5555 17.1532H13.4443C13.7005 17.1532 13.9244 17.3264 13.9888 17.5742L14.0616 17.8537H9.93823Z"/>
</svg>
