<svg width="80" height="80" viewBox="0 0 80 80" fill="none" xmlns="http://www.w3.org/2000/svg">
<path d="M60.4035 19.2359L54.8293 22.791L29.111 39.1941L27.594 40.1619C27.094 40.4808 29.5803 38.8951 21.7412 43.8949C23.3612 41.6857 23.3439 38.7891 21.8954 36.6399C29.8074 31.594 26.0526 33.9887 27.1045 33.3177L51.5354 17.736L57.0561 14.2156C57.2482 16.3999 58.5544 18.2634 60.4035 19.2359Z" fill="#78B9EB"/>
<path d="M60.1344 60.915C58.3434 61.9709 57.1206 63.8878 57.0356 66.0958L51.4472 62.5313L27.103 47.003C26.5584 46.6557 29.0529 48.2461 21.8924 43.6808C23.3962 41.4565 23.3037 38.5232 21.7491 36.4337C28.3044 40.6149 27.3543 40.0091 27.594 40.1619L29.1094 41.1282C31.394 42.5852 56.5744 58.6445 60.1344 60.915Z" fill="#3D9AE2"/>
<path d="M63.3291 26.1337C65.2916 26.1337 67.147 25.6804 68.7994 24.8731C76.6665 21.0289 78.2325 10.4901 71.8289 4.52295C69.6005 2.44873 66.6134 1.1803 63.3291 1.1803C58.7747 1.1803 54.7899 3.62123 52.6135 7.26591C52.6135 7.26591 52.6135 7.26591 52.6119 7.26591C51.4946 9.13559 50.8525 11.3215 50.8525 13.6568C50.8524 20.5468 56.4392 26.1337 63.3291 26.1337ZM63.3291 7.35888C69.3741 7.35888 71.9934 15.1639 67.0149 18.7654C65.9794 19.5145 64.7045 19.9551 63.3291 19.9551C57.9361 19.9551 55.0786 13.6014 58.548 9.56044C59.7016 8.21341 61.4155 7.35888 63.3291 7.35888Z" fill="#FFDA44"/>
<path d="M72.0303 75.2833C80.0116 67.5193 74.5039 53.8661 63.3291 53.8661C56.4383 53.8661 50.8524 59.4543 50.8524 66.3428C50.8524 77.3302 64.1458 82.9745 72.0303 75.2833ZM63.3291 60.0447C69.6599 60.0447 72.073 68.5016 66.5238 71.7707C62.3851 74.2191 57.0326 71.2513 57.0326 66.3428C57.0326 64.0561 58.2507 62.0529 60.0746 60.9496C61.0252 60.3752 62.1379 60.0447 63.3291 60.0447Z" fill="#FF5023"/>
<path d="M6.23673 46.9983C8.46516 50.3929 12.3067 52.634 16.6706 52.634C18.4898 52.634 20.2178 52.2452 21.7775 51.5433C26.1211 49.5935 29.1473 45.2294 29.1473 40.1573C29.1473 33.2674 23.5604 27.6821 16.6706 27.6821C13.3736 27.6821 10.3756 28.9617 8.14563 31.0515C3.69908 35.2071 2.92033 41.9518 6.23673 46.9983ZM16.6708 33.8607C20.1487 33.8607 22.9673 36.6793 22.9673 40.1573C22.9673 46.1597 15.2175 48.8155 11.5923 43.8823C9.24548 40.7274 10.3927 36.0859 14.0758 34.4177C14.8672 34.0606 15.7469 33.8607 16.6708 33.8607Z" fill="#7ED63E"/>
<path d="M8.14576 31.0516C10.3144 31.8463 12.3147 32.9921 14.0756 34.4179C10.3848 36.0894 9.25108 40.7354 11.5922 43.8824C13.8447 46.9474 18.2337 47.3177 20.9686 44.759C21.51 46.6113 21.7995 48.5721 21.7995 50.6007C21.7995 50.9169 21.7932 51.2302 21.7775 51.5433C20.2179 52.2452 18.49 52.6339 16.6706 52.6339C12.3065 52.6339 8.46514 50.393 6.23671 46.9983C2.93343 41.9719 3.68015 35.2248 8.14576 31.0516Z" fill="#6DC82A"/>
<path d="M50.8524 13.657C50.8524 11.3215 51.4944 9.13558 52.6118 7.26605C52.6134 7.26605 52.6134 7.26605 52.6134 7.26605C54.7301 7.72715 56.7255 8.50933 58.548 9.56058C55.0793 13.6007 57.9347 19.9552 63.3291 19.9552C64.7046 19.9552 65.9793 19.5146 67.0149 18.7656C67.9057 20.6635 68.5179 22.7157 68.7996 24.8732C67.1471 25.6805 65.2916 26.1338 63.3293 26.1338C56.4393 26.1337 50.8524 20.5468 50.8524 13.657Z" fill="#FFCD00"/>
<path d="M50.8524 66.3429C50.8524 63.156 52.0485 60.2462 54.0157 58.0413C56.2063 58.6818 58.2476 59.6733 60.0746 60.9496C58.2507 62.0527 57.0326 64.0562 57.0326 66.3429C57.0326 71.9015 63.7402 74.7141 67.7136 70.8627C68.4722 72.9322 68.9113 75.1558 68.9711 77.4739C60.7616 81.6474 50.8524 75.701 50.8524 66.3429Z" fill="#FF3501"/>
<path d="M58.2947 19.1809C63.1133 23.5862 70.8059 20.0878 70.8059 13.657C70.8059 9.53374 67.4523 6.17859 63.3291 6.17859C56.5253 6.17859 53.2575 14.597 58.2947 19.1809ZM63.3291 8.53921C66.1508 8.53921 68.4453 10.8353 68.4453 13.657C68.4453 17.8073 63.7428 20.2045 60.3909 17.8448C56.2886 14.9578 58.3692 8.53921 63.3291 8.53921Z" fill="black"/>
<path d="M75.6453 64.0185C74.9969 64.0783 74.5184 64.6527 74.5767 65.3011C75.1843 71.9555 69.9372 77.6392 63.3291 77.6392C52.5733 77.6392 47.8308 63.7733 56.6108 57.2671C62.1459 53.1597 70.1803 54.9055 73.4011 61.2219C73.697 61.8027 74.4067 62.0339 74.9875 61.7382C75.5698 61.4422 75.7995 60.731 75.5037 60.1502C71.518 52.3255 61.4711 50.3505 54.8224 55.6676C54.6328 55.8191 54.3699 55.838 54.1653 55.7075L30.5765 40.6637C30.4213 40.5646 30.3271 40.3932 30.3277 40.209C30.3279 40.1771 30.3279 40.1451 30.3277 40.1134C30.3269 39.9293 30.4212 39.758 30.5765 39.659L54.4027 24.4632C54.5931 24.3418 54.8403 24.3498 55.0189 24.4878C63.8541 31.3081 76.9861 25.0539 76.9861 13.6573C76.9861 6.12655 70.8595 0 63.3291 0C54.4469 0 47.9816 8.3678 50.0513 16.8553C50.1053 17.0775 50.0081 17.3095 49.8153 17.4325L47.4202 18.9606C46.8694 19.3115 46.7088 20.0417 47.0597 20.5911C47.4091 21.1403 48.1392 21.3025 48.6886 20.9514L50.4769 19.8112C50.7438 19.6409 51.0975 19.7367 51.2453 20.0165C51.6347 20.7545 52.09 21.4523 52.6035 22.1021C52.8024 22.354 52.7425 22.7214 52.472 22.894L30.6407 36.8173C30.3327 37.0137 29.9274 36.8521 29.8299 36.5001C29.6008 35.6742 29.2949 34.8799 28.9208 34.1246C28.7993 33.8792 28.8835 33.5817 29.1146 33.4343L44.7086 23.4895C45.2578 23.1401 45.42 22.41 45.0689 21.8606C44.718 21.3114 43.9894 21.1492 43.4385 21.5003L27.8087 31.4676C27.5823 31.6121 27.2833 31.5684 27.1101 31.3631C24.5909 28.3782 20.8195 26.4848 16.6145 26.5018C9.33682 26.5312 3.30636 32.3457 3.02417 39.6179C2.72246 47.3937 8.96088 53.814 16.6706 53.814C20.8529 53.814 24.6018 51.9255 27.1087 48.9557C27.2819 48.7505 27.5808 48.7069 27.8073 48.8513L49.7325 62.836C49.9325 62.9636 50.0352 63.2022 49.9842 63.4338C48.126 71.8767 54.5944 79.9995 63.3294 79.9995C71.3183 79.9995 77.6593 73.1306 76.9281 65.0868C76.8697 64.4386 76.2951 63.9571 75.6453 64.0185ZM63.4767 2.36156C69.6876 2.43562 74.7043 7.60452 74.6245 13.8154C74.4945 23.9239 61.9427 28.8543 55.0008 21.2818C48.3567 14.0176 53.5841 2.24343 63.4767 2.36156ZM16.6707 51.4536C10.2163 51.4536 5.00901 46.0127 5.39448 39.4782C5.73292 33.7404 10.4132 29.1295 16.1552 28.874C22.6496 28.5851 27.9669 33.7871 27.9669 40.1588C27.9669 46.3682 22.9148 51.4536 16.6707 51.4536ZM28.9194 46.1944C29.2932 45.4399 29.599 44.6455 29.828 43.8202C29.9257 43.4684 30.331 43.3069 30.6388 43.5032L52.2767 57.3036C52.5586 57.4833 52.6242 57.8641 52.423 58.1308C51.9378 58.7739 51.5077 59.4611 51.1405 60.1855C50.9872 60.4879 50.6092 60.5947 50.3235 60.4124L29.1132 46.8846C28.8819 46.7374 28.7977 46.4401 28.9194 46.1944Z" fill="black"/>
<path d="M55.8618 66.7458C56.0712 70.6833 59.3413 73.8214 63.3293 73.8214C67.4525 73.8214 70.8061 70.4661 70.8061 66.343C70.8061 62.2197 67.4525 58.8646 63.3293 58.8646C59.0063 58.8644 55.6138 62.5363 55.8618 66.7458ZM68.4453 66.3428C68.4453 69.1645 66.1508 71.4606 63.3291 71.4606C61.3052 71.4606 59.5521 70.2803 58.7227 68.5697C57.0765 65.1819 59.569 61.225 63.3291 61.225C66.1508 61.225 68.4453 63.5211 68.4453 66.3428Z" fill="black"/>
<path d="M16.9225 32.6851C16.2694 32.6615 15.7264 33.1745 15.7044 33.826C15.6823 34.4776 16.1937 35.0221 16.8453 35.0442C21.4687 35.1939 23.483 40.8732 20.1108 43.9437C16.8605 46.9123 11.5544 44.597 11.5544 40.1588C11.5544 38.6763 12.1948 37.2695 13.3138 36.2953C13.8064 35.8687 13.8583 35.1228 13.4302 34.6303C13.002 34.1393 12.2561 34.0873 11.7652 34.5154C10.13 35.9365 9.1936 37.9934 9.1936 40.1588C9.1936 46.9345 17.5375 50.2051 22.1487 45.2437C26.4747 40.569 23.375 32.8995 16.9225 32.6851Z" fill="black"/>
</svg>
