<svg width="49" height="48" viewBox="0 0 49 48" fill="none" xmlns="http://www.w3.org/2000/svg">
<g clip-path="url(#clip0_7_7147)">
<path d="M24.7341 16C20.3141 16 16.7341 19.58 16.7341 24C16.7341 28.42 20.3141 32 24.7341 32C29.1541 32 32.7341 28.42 32.7341 24C32.7341 19.58 29.1541 16 24.7341 16ZM42.6141 22C41.6941 13.66 35.0741 7.04 26.7341 6.12V2H22.7341V6.12C14.3941 7.04 7.77413 13.66 6.85413 22H2.73413V26H6.85413C7.77413 34.34 14.3941 40.96 22.7341 41.88V46H26.7341V41.88C35.0741 40.96 41.6941 34.34 42.6141 26H46.7341V22H42.6141ZM24.7341 38C16.9941 38 10.7341 31.74 10.7341 24C10.7341 16.26 16.9941 10 24.7341 10C32.4741 10 38.7341 16.26 38.7341 24C38.7341 31.74 32.4741 38 24.7341 38Z" fill="#4CA443"/>
</g>
<defs>
<clipPath id="clip0_7_7147">
<rect width="48" height="48" fill="white" transform="translate(0.734131)"/>
</clipPath>
</defs>
</svg>
