<svg width="24" height="24" viewBox="0 0 24 24" fill="none" xmlns="http://www.w3.org/2000/svg">
<path d="M6.47642 21.1664C6.2573 21.1664 6.0397 21.0981 5.854 20.9638C5.50807 20.7131 5.34648 20.2822 5.44063 19.8663L6.72728 14.1986L2.36377 10.3719C2.04302 10.0919 1.92049 9.6485 2.05218 9.24276C2.18386 8.83778 2.54215 8.55106 2.96635 8.51185L8.73981 7.9877L11.0224 2.64592C11.1907 2.25345 11.574 2 11.9999 2C12.4258 2 12.8091 2.25345 12.9774 2.645L15.2601 7.9877L21.0326 8.51185C21.4577 8.55015 21.816 8.83778 21.9477 9.24276C22.0794 9.64774 21.9576 10.0919 21.6369 10.3719L17.2733 14.1979L18.56 19.8654C18.6543 20.2822 18.4926 20.7131 18.1468 20.963C17.8018 21.213 17.3417 21.2322 16.9784 21.0138L11.9999 18.0388L7.02148 21.0155C6.85317 21.1155 6.66563 21.1664 6.47642 21.1664ZM11.9999 16.7571C12.1891 16.7571 12.3765 16.808 12.545 16.9079L17.2434 19.718L16.0291 14.3686C15.9424 13.9879 16.0717 13.5904 16.3659 13.3328L20.486 9.71946L15.035 9.22445C14.6425 9.18859 14.305 8.94185 14.1516 8.58021L11.9999 3.53919L9.84564 8.58097C9.69397 8.94017 9.35643 9.18691 8.96488 9.22277L3.51309 9.71778L7.63306 13.3312C7.92818 13.5895 8.05727 13.9862 7.96983 14.3679L6.75643 19.7171L11.4549 16.9079C11.6232 16.808 11.8107 16.7571 11.9999 16.7571ZM8.69571 8.091C8.69571 8.091 8.69571 8.09192 8.6948 8.09268L8.69571 8.091ZM15.3025 8.08856L15.3034 8.09024C15.3034 8.08932 15.3034 8.08932 15.3025 8.08856Z"/>
</svg>
