<svg width="24" height="24" viewBox="0 0 24 24" fill="none" xmlns="http://www.w3.org/2000/svg">
<path d="M12.3192 23.1998C12.232 23.1127 12.1111 23.0625 11.9878 23.0625C11.8645 23.0625 11.7435 23.1127 11.6564 23.1998C11.5692 23.287 11.519 23.408 11.519 23.5312C11.519 23.6545 11.5692 23.7755 11.6564 23.8627C11.7435 23.9498 11.8645 24 11.9878 24C12.1111 24 12.232 23.9498 12.3192 23.8627C12.4063 23.7755 12.4565 23.6545 12.4565 23.5312C12.4565 23.408 12.4064 23.287 12.3192 23.1998Z"/>
<path d="M21.495 15.3315L19.9313 14.9579V14.3377C20.7993 13.7891 21.3773 12.8216 21.3773 11.7212V9.97432C21.3773 8.2684 19.9895 6.88057 18.2835 6.88057C17.3633 6.88057 16.536 7.28491 15.9688 7.92471C15.472 6.20426 13.8831 4.94238 12.0049 4.94238H12.0048C10.1235 4.94238 8.53247 6.20824 8.03845 7.93291C7.47108 7.28838 6.64083 6.88057 5.71664 6.88057C4.01067 6.88057 2.6228 8.26845 2.6228 9.97432V11.7212C2.6228 12.8217 3.20086 13.7891 4.0688 14.3377V14.9579L2.50514 15.3315C1.03013 15.6838 0 16.9889 0 18.5053V21.6563C0 21.9152 0.209906 22.125 0.46875 22.125H4.21702V23.5313C4.21702 23.7902 4.42692 24 4.68577 24H9.82814C10.087 24 10.2969 23.7902 10.2969 23.5313C10.2969 23.2724 10.087 23.0625 9.82814 23.0625H7.7355V20.9995C7.7355 20.7406 7.52559 20.5307 7.26675 20.5307C7.00791 20.5307 6.798 20.7406 6.798 20.9995V23.0625H5.15447V20.9476C5.15447 19.3579 6.23419 17.9889 7.78017 17.6185L10.0856 17.066L11.569 20.4408C11.6438 20.611 11.8122 20.7209 11.9981 20.7209H11.9981C12.184 20.7209 12.3524 20.6111 12.4272 20.4409L13.9091 17.071L16.2079 17.6201C17.7553 17.9897 18.8359 19.359 18.8359 20.9498V21.4729C18.812 21.5292 18.7987 21.5912 18.7987 21.6562C18.7987 21.7213 18.812 21.7833 18.8359 21.8396V23.0625H17.202V20.9995C17.202 20.7406 16.9921 20.5307 16.7333 20.5307C16.4744 20.5307 16.2645 20.7406 16.2645 20.9995V23.0625H13.9688C13.71 23.0625 13.5 23.2724 13.5 23.5313C13.5 23.7902 13.71 24 13.9688 24H19.3047C19.5635 24 19.7734 23.7902 19.7734 23.5313V22.125H23.5312C23.7901 22.125 24 21.9152 24 21.6563V18.5053C24 16.9889 22.9699 15.6838 21.495 15.3315ZM18.2835 7.81807C19.4724 7.81807 20.4398 8.78538 20.4398 9.97432V10.0904V10.1375H19.099C18.0863 10.1375 17.091 9.87157 16.214 9.36752C16.4768 8.47305 17.305 7.81807 18.2835 7.81807ZM16.1271 11.6447C16.1288 11.5969 16.1299 10.3843 16.1299 10.3843C17.0514 10.8375 18.0674 11.075 19.0991 11.075H20.4398V11.7213C20.4398 12.9102 19.4724 13.8775 18.2835 13.8775C17.0945 13.8775 16.1271 12.9101 16.1271 11.7212V11.6447ZM8.81719 9.06743C8.81719 7.30981 10.2472 5.87993 12.0048 5.87993C13.7625 5.87993 15.1924 7.30985 15.1924 9.06743V9.12856L13.4527 8.10645C13.2553 7.99043 13.003 8.03407 12.8559 8.20952C12.18 9.01615 11.1887 9.47881 10.1362 9.47881H8.81719V9.06743ZM3.5602 10.0904V9.97432C3.5602 8.78534 4.52756 7.81807 5.71655 7.81807C6.69497 7.81807 7.52325 8.47306 7.78598 9.36757C6.90891 9.87157 5.91375 10.1375 4.90092 10.1375H3.5602V10.0904ZM3.5602 11.7212V11.075H4.90097C5.93372 11.075 6.95067 10.8371 7.87289 10.383V11.7212C7.87289 12.9102 6.90553 13.8775 5.71655 13.8775C4.52756 13.8775 3.5602 12.9101 3.5602 11.7212ZM4.21702 20.9476V21.1875H2.8125V19.1049C2.8125 18.846 2.60259 18.6362 2.34375 18.6362C2.08491 18.6362 1.875 18.846 1.875 19.1049V21.1875H0.9375V18.5053C0.9375 17.4246 1.67166 16.4944 2.72283 16.2433L4.20867 15.8884L5.17842 18.2112C4.57191 18.9647 4.21702 19.9197 4.21702 20.9476ZM5.71664 17.0669L5.00475 15.3617C5.00555 15.3505 5.0062 15.3393 5.0062 15.3279V14.7318C5.23444 14.7856 5.47209 14.815 5.71655 14.815C5.95992 14.815 6.19645 14.7858 6.4238 14.7325V15.2982C6.42328 15.3071 6.42305 15.3159 6.42305 15.3247C6.42305 15.3394 6.42445 15.3541 6.42586 15.3688L5.71664 17.0669ZM7.56173 16.7068C7.28494 16.7731 7.02042 16.8654 6.76927 16.9792L7.22583 15.886L8.71191 16.2421C8.82717 16.2697 8.93948 16.3062 9.04819 16.3506L7.56173 16.7068ZM9.88842 15.7298C9.59414 15.5472 9.27127 15.4121 8.93039 15.3304L7.3613 14.9545V14.3397C7.75153 14.0937 8.08298 13.7632 8.33006 13.3737C8.68345 14.0642 9.22584 14.6423 9.88842 15.04V15.7298ZM13.1687 16.4256L11.9982 19.0875L10.8259 16.4204V15.4537C11.1996 15.5653 11.5953 15.6256 12.0048 15.6256C12.4088 15.6256 12.7995 15.5669 13.1687 15.4581V16.4256ZM12.0048 14.6881C10.2471 14.6881 8.81719 13.2581 8.81719 11.5006V10.4164H10.1362C11.3326 10.4164 12.4665 9.94348 13.3043 9.10662L15.1897 10.2142V11.6106C15.1313 13.3174 13.7256 14.6881 12.0048 14.6881ZM14.1062 15.0488C14.7729 14.6525 15.3191 14.0739 15.6752 13.382C15.9218 13.7678 16.2513 14.0954 16.6387 14.3397V14.9545L15.0696 15.3304C14.7267 15.4126 14.402 15.549 14.1062 15.7332V15.0488ZM16.4257 16.7083L14.9432 16.3541C15.0546 16.3082 15.1698 16.2705 15.2881 16.2421L16.7706 15.8869L17.229 16.985C16.9746 16.8691 16.7064 16.7754 16.4257 16.7083ZM17.5732 15.3758C17.575 15.3588 17.5764 15.3416 17.5764 15.3245C17.5764 15.3201 17.5763 15.3157 17.5762 15.3114V14.7325C17.8035 14.7859 18.0401 14.815 18.2835 14.815C18.5279 14.815 18.7656 14.7856 18.9938 14.7317V15.3279C18.9938 15.3364 18.9944 15.3448 18.9949 15.3532L18.2792 17.0669L17.5732 15.3758ZM23.0625 21.1875H22.125V19.1049C22.125 18.846 21.9151 18.6362 21.6562 18.6362C21.3974 18.6362 21.1875 18.846 21.1875 19.1049V21.1875H19.7734V20.9499C19.7734 19.9234 19.4197 18.9696 18.8149 18.2168L19.7877 15.8875L21.2772 16.2433C22.3283 16.4944 23.0625 17.4246 23.0625 18.5053V21.1875Z"/>
<path d="M10.7591 10.9772C10.672 10.89 10.551 10.8398 10.4277 10.8398C10.3045 10.8398 10.1835 10.89 10.0963 10.9772C10.0091 11.0644 9.95898 11.1853 9.95898 11.3086C9.95898 11.4319 10.0091 11.5528 10.0963 11.64C10.1836 11.7272 10.3045 11.7773 10.4277 11.7773C10.5515 11.7773 10.672 11.7272 10.7591 11.64C10.8468 11.5528 10.8965 11.4319 10.8965 11.3086C10.8965 11.1853 10.8468 11.0644 10.7591 10.9772Z"/>
<path d="M13.8936 10.9772C13.8065 10.89 13.6855 10.8398 13.5623 10.8398C13.439 10.8398 13.318 10.89 13.2309 10.9772C13.1437 11.0644 13.0935 11.1853 13.0935 11.3086C13.0935 11.4319 13.1436 11.5528 13.2309 11.64C13.3181 11.7272 13.439 11.7773 13.5623 11.7773C13.6855 11.7773 13.8065 11.7272 13.8936 11.64C13.9813 11.5528 14.031 11.4319 14.031 11.3086C14.031 11.1853 13.9813 11.0644 13.8936 10.9772Z"/>
<path d="M12.9022 12.555C12.7191 12.372 12.4224 12.372 12.2393 12.555C12.1006 12.6936 11.8751 12.6936 11.7365 12.555C11.5534 12.372 11.2567 12.372 11.0736 12.555C10.8905 12.7381 10.8905 13.0349 11.0736 13.218C11.3257 13.47 11.6567 13.5961 11.9879 13.5961C12.319 13.5961 12.6501 13.4701 12.9022 13.218C13.0853 13.0349 13.0853 12.7381 12.9022 12.555Z"/>
<path d="M19.3818 2.53125H19.0603C18.8015 2.53125 18.5916 2.74111 18.5916 3C18.5916 3.25889 18.8015 3.46875 19.0603 3.46875H19.3818C19.6407 3.46875 19.8506 3.25889 19.8506 3C19.8506 2.74111 19.6407 2.53125 19.3818 2.53125Z"/>
<path d="M21.6562 2.53125H21.3347C21.0759 2.53125 20.866 2.74111 20.866 3C20.866 3.25889 21.0758 3.46875 21.3347 3.46875H21.6562C21.9151 3.46875 22.125 3.25889 22.125 3C22.125 2.74111 21.9151 2.53125 21.6562 2.53125Z"/>
<path d="M20.3584 3.50781C20.0996 3.50781 19.8896 3.71767 19.8896 3.97656V4.29808C19.8896 4.55697 20.0995 4.76683 20.3584 4.76683C20.6172 4.76683 20.8271 4.55697 20.8271 4.29808V3.97656C20.8271 3.71767 20.6172 3.50781 20.3584 3.50781Z"/>
<path d="M20.3584 1.2334C20.0996 1.2334 19.8896 1.44326 19.8896 1.70215V2.02366C19.8896 2.28255 20.0995 2.49241 20.3584 2.49241C20.6172 2.49241 20.8271 2.28255 20.8271 2.02366V1.70215C20.8271 1.44326 20.6172 1.2334 20.3584 1.2334Z"/>
<path d="M2.6391 2.53125H2.31763C2.05878 2.53125 1.84888 2.74111 1.84888 3C1.84888 3.25889 2.05878 3.46875 2.31763 3.46875H2.6391C2.89794 3.46875 3.10785 3.25889 3.10785 3C3.10785 2.74111 2.89794 2.53125 2.6391 2.53125Z"/>
<path d="M4.91351 2.53125H4.59204C4.3332 2.53125 4.12329 2.74111 4.12329 3C4.12329 3.25889 4.33315 3.46875 4.59204 3.46875H4.91351C5.17235 3.46875 5.38226 3.25889 5.38226 3C5.38226 2.74111 5.17235 2.53125 4.91351 2.53125Z"/>
<path d="M3.61572 3.50781C3.35688 3.50781 3.14697 3.71767 3.14697 3.97656V4.29808C3.14697 4.55697 3.35683 4.76683 3.61572 4.76683C3.87457 4.76683 4.08447 4.55697 4.08447 4.29808V3.97656C4.08447 3.71767 3.87457 3.50781 3.61572 3.50781Z"/>
<path d="M3.61572 1.2334C3.35688 1.2334 3.14697 1.44326 3.14697 1.70215V2.02366C3.14697 2.28255 3.35683 2.49241 3.61572 2.49241C3.87457 2.49241 4.08447 2.28255 4.08447 2.02366V1.70215C4.08447 1.44326 3.87457 1.2334 3.61572 1.2334Z"/>
<path d="M12 1.7854C11.7412 1.7854 11.5312 1.99526 11.5312 2.25415V3.48743C11.5312 3.74632 11.7412 3.95618 12 3.95618C12.2588 3.95618 12.4688 3.74632 12.4688 3.48743V2.25415C12.4688 1.99526 12.2588 1.7854 12 1.7854Z"/>
<path d="M12.3314 0.137344C12.2442 0.0501563 12.1233 0 12 0C11.8767 0 11.7558 0.0501563 11.6686 0.137344C11.5814 0.224531 11.5312 0.345469 11.5312 0.46875C11.5312 0.592031 11.5814 0.712969 11.6686 0.800156C11.7558 0.887344 11.8767 0.9375 12 0.9375C12.1233 0.9375 12.2442 0.887344 12.3314 0.800156C12.4186 0.712969 12.4688 0.592031 12.4688 0.46875C12.4688 0.345469 12.4186 0.224531 12.3314 0.137344Z"/>
<path d="M10.3573 1.88063L9.67133 1.19466C9.48824 1.01161 9.19152 1.01161 9.00838 1.19466C8.82533 1.37771 8.82533 1.67452 9.00838 1.85761L9.69439 2.54358C9.78594 2.63513 9.90589 2.68088 10.0258 2.68088C10.1458 2.68088 10.2658 2.63513 10.3573 2.54358C10.5403 2.36053 10.5403 2.06372 10.3573 1.88063Z"/>
<path d="M14.9916 1.16878C14.8085 0.985732 14.5117 0.985732 14.3286 1.16878L13.6197 1.87767C13.4367 2.06072 13.4367 2.35753 13.6197 2.54062C13.7113 2.63217 13.8312 2.67792 13.9512 2.67792C14.0712 2.67792 14.1911 2.63217 14.2827 2.54062L14.9916 1.83173C15.1746 1.64869 15.1746 1.35187 14.9916 1.16878Z"/>
</svg>
