<svg width="24" height="24" viewBox="0 0 24 24" fill="none" xmlns="http://www.w3.org/2000/svg">
<path d="M22.3935 7.30602H19.878V2.77009C19.878 1.79406 19.0583 1 18.0509 1H1.82705C0.819609 1 0 1.79406 0 2.77009V14.6392C0 15.6153 0.819609 16.4093 1.82705 16.4093H2.90602V19.1311C2.90602 19.4079 3.06839 19.6607 3.32475 19.7829C3.4298 19.8331 3.54314 19.8577 3.65592 19.8577C3.81839 19.8577 3.97969 19.8066 4.11337 19.707L7.88522 16.8955V18.3013C7.88522 19.1595 8.60592 19.8577 9.49172 19.8577H17.005L20.4818 22.4493C20.6155 22.5489 20.7767 22.6 20.9392 22.6C21.052 22.6 21.1653 22.5754 21.2704 22.5252C21.5267 22.403 21.6891 22.1502 21.6891 21.8734V19.8577H22.3935C23.2793 19.8577 24 19.1595 24 18.3013V8.86253C24 8.00425 23.2793 7.30602 22.3935 7.30602ZM4.40597 17.6552V15.6827C4.40597 15.2814 4.0702 14.9561 3.65597 14.9561H1.82705C1.64977 14.9561 1.5 14.811 1.5 14.6392V2.77009C1.5 2.59834 1.64972 2.45324 1.82705 2.45324H18.0509C18.2282 2.45324 18.378 2.59834 18.378 2.77009V14.6392C18.378 14.811 18.2282 14.9561 18.0509 14.9561H8.28225C8.11683 14.9561 7.95605 15.0091 7.82489 15.1068L4.40597 17.6552ZM22.5 18.3013C22.5 18.3562 22.4502 18.4045 22.3935 18.4045H20.9391C20.5248 18.4045 20.1891 18.7298 20.1891 19.1311V20.3975L17.7174 18.5552C17.5863 18.4574 17.4255 18.4045 17.2601 18.4045H9.49167C9.43491 18.4045 9.38517 18.3562 9.38517 18.3013V16.4093H18.0509C19.0583 16.4093 19.878 15.6153 19.878 14.6392V8.75926H22.3935C22.4503 8.75926 22.5 8.80748 22.5 8.86244V18.3013ZM8.28103 7.31542C8.27944 7.31542 8.27789 7.31542 8.27625 7.31542C7.86206 7.31292 7.52836 6.98558 7.53094 6.5843C7.53703 5.64337 7.96552 4.88056 8.70656 4.49154C9.47475 4.08827 10.4743 4.14113 11.253 4.62629C12.0015 5.09264 12.3977 5.85477 12.3418 6.71927C12.3119 7.62945 11.696 8.16238 11.2005 8.59118C10.632 9.08306 10.284 9.42066 10.2907 10.1317C10.2945 10.533 9.96187 10.8613 9.54764 10.865C9.54534 10.865 9.54295 10.865 9.54066 10.865C9.12961 10.865 8.79459 10.5442 8.79084 10.1451C8.77753 8.73936 9.60042 8.02728 10.2013 7.50734C10.6519 7.11741 10.8361 6.93226 10.8427 6.66768C10.843 6.65692 10.8435 6.64611 10.8443 6.63535C10.8744 6.21118 10.642 5.97339 10.4417 5.8486C10.1262 5.65205 9.70655 5.61944 9.42117 5.76926C9.16486 5.90382 9.03352 6.18107 9.03094 6.59334C9.02831 6.99307 8.69306 7.31542 8.28103 7.31542ZM10.3293 12.7275C10.3293 13.1288 9.99352 13.4541 9.57928 13.4541H9.50222C9.08798 13.4541 8.75222 13.1288 8.75222 12.7275C8.75222 12.3262 9.08798 12.0009 9.50222 12.0009H9.57928C9.99352 12.0009 10.3293 12.3262 10.3293 12.7275Z" />
</svg>
