<svg width="24" height="24" viewBox="0 0 24 24" fill="none" xmlns="http://www.w3.org/2000/svg">
<path d="M12.0051 14.3118L3.02634 5.33346C2.77971 5.08625 2.44995 4.95025 2.09834 4.95025C1.74654 4.95025 1.41698 5.08625 1.16995 5.33346L0.38361 6.1202C0.136195 6.36703 0 6.69698 0 7.04859C0 7.4002 0.136195 7.72976 0.38361 7.97678L11.0736 18.6669C11.3214 18.9149 11.6525 19.0507 12.0045 19.0498C12.358 19.0507 12.6888 18.9151 12.9368 18.6669L23.6164 7.98673C23.8638 7.73971 24 7.41015 24 7.05834C24 6.70673 23.8638 6.37717 23.6164 6.12995L22.83 5.34342C22.3182 4.83161 21.4851 4.83161 20.9735 5.34342L12.0051 14.3118Z"/>
</svg>
