<svg width="24" height="24" viewBox="0 0 24 24" xmlns="http://www.w3.org/2000/svg">
<path d="M23.2969 8.48438H20.8223L15.4084 1.71704C15.1659 1.4139 14.7234 1.36463 14.4202 1.60726C14.1169 1.84984 14.0677 2.29229 14.3104 2.59552L19.0215 8.48438H4.97855L9.68967 2.59552C9.93225 2.29229 9.88308 1.84979 9.57989 1.60726C9.27661 1.36463 8.83416 1.41385 8.59162 1.71704L3.1777 8.48438H0.703125C0.314812 8.48438 0 8.79919 0 9.18751V10.5938C0 10.9821 0.314812 11.2969 0.703125 11.2969H23.2969C23.6852 11.2969 24 10.9821 24 10.5938V9.18751C24 8.79919 23.6852 8.48438 23.2969 8.48438Z" fill="#4CA443" />
<path d="M4.24581 22.0369C4.33206 22.3388 4.60796 22.5469 4.92188 22.5469H19.0781C19.3921 22.5469 19.668 22.3388 19.7542 22.0369L22.421 12.7031H1.57904L4.24581 22.0369ZM15.2205 18.9157L15.9236 14.697C15.9875 14.3139 16.3497 14.055 16.7328 14.119C17.1159 14.1828 17.3746 14.5451 17.3108 14.9281L16.6076 19.1469C16.5503 19.4908 16.2524 19.7346 15.9149 19.7346C15.8765 19.7346 15.8376 19.7314 15.7985 19.7249C15.4154 19.661 15.1567 19.2987 15.2205 18.9157ZM11.2969 14.8125C11.2969 14.4242 11.6117 14.1094 12 14.1094C12.3883 14.1094 12.7031 14.4242 12.7031 14.8125V19.0312C12.7031 19.4196 12.3883 19.7344 12 19.7344C11.6117 19.7344 11.2969 19.4196 11.2969 19.0312V14.8125ZM7.3141 14.119C7.69721 14.0552 8.05942 14.3139 8.12326 14.697L8.82638 18.9157C8.89023 19.2987 8.63148 19.661 8.24842 19.7249C8.20932 19.7314 8.17037 19.7346 8.13198 19.7346C7.79443 19.7346 7.49659 19.4909 7.43926 19.1469L6.73613 14.9281C6.67229 14.5451 6.93104 14.1828 7.3141 14.119Z" fill="#4CA443" />
</svg>
