<svg width="24" height="24" viewBox="0 0 24 24" fill="none" xmlns="http://www.w3.org/2000/svg">
<path d="M6.47642 21.1664C6.2573 21.1664 6.0397 21.0981 5.854 20.9638C5.50807 20.7131 5.34648 20.2822 5.44063 19.8663L6.72728 14.1986L2.36377 10.3719C2.04302 10.0919 1.92049 9.6485 2.05218 9.24276C2.18386 8.83778 2.54215 8.55106 2.96635 8.51185L8.73981 7.9877L11.0224 2.64592C11.1907 2.25345 11.574 2 11.9999 2C12.4258 2 12.8091 2.25345 12.9774 2.645L15.2601 7.9877L21.0326 8.51185C21.4577 8.55015 21.816 8.83778 21.9477 9.24276C22.0794 9.64774 21.9576 10.0919 21.6369 10.3719L17.2733 14.1979L18.56 19.8654C18.6543 20.2822 18.4926 20.7131 18.1468 20.963C17.8018 21.213 17.3417 21.2322 16.9784 21.0138L11.9999 18.0388L7.02148 21.0155C6.85317 21.1155 6.66563 21.1664 6.47642 21.1664Z"/>
</svg>
