<svg width="24" height="24" viewBox="0 0 24 24" fill="none" xmlns="http://www.w3.org/2000/svg">
<g clip-path="url(#clip0_1_422)">
<path d="M9.96761 21.9286C9.57259 21.923 9.19581 21.7615 8.91929 21.4793L0.44297 13.0179C-0.144245 12.4355 -0.148141 11.4873 0.43429 10.9C0.43715 10.8971 0.44006 10.8942 0.44297 10.8913L8.91934 2.43002C9.54753 1.89203 10.4929 1.96516 11.0309 2.59341C11.5111 3.15409 11.5111 3.98099 11.0309 4.54162L3.61788 11.9547L11.1058 19.3677C11.6865 19.9518 11.6865 20.8952 11.1058 21.4793C10.8077 21.7843 10.3937 21.9477 9.96761 21.9286Z" fill="#fff"/>
<path d="M22.5024 13.4523H1.53618C0.709085 13.4523 0.0385742 12.7818 0.0385742 11.9547C0.0385742 11.1276 0.709085 10.4571 1.53618 10.4571H22.5024C23.3294 10.4571 24 11.1276 24 11.9547C24 12.7818 23.3294 13.4523 22.5024 13.4523Z" fill="#fff"/>
</g>
<defs>
<clipPath id="clip0_1_422">
<rect width="24" height="24" fill="white"/>
</clipPath>
</defs>
</svg>
