<svg width="65" height="66" viewBox="0 0 65 66" fill="none" xmlns="http://www.w3.org/2000/svg">
<g clip-path="url(#clip0_7_6692)">
<path d="M60 0.985229H5.00001C2.23857 0.985229 0 3.2238 0 5.98523V60.9852C0 63.7466 2.23857 65.9852 5.00001 65.9852H60C62.7614 65.9852 65 63.7466 65 60.9852V5.98523C65 3.2238 62.7614 0.985229 60 0.985229Z" fill="#A5D1A1"/>
<path d="M53.4239 40.7323H19.9239V34.2672C19.9239 34.0664 20.0036 33.8738 20.1456 33.7319C20.2876 33.5899 20.4801 33.5101 20.6809 33.5101H53.4269C53.6277 33.5101 53.8202 33.5899 53.9622 33.7319C54.1041 33.8738 54.1839 34.0664 54.1839 34.2672V39.9763C54.1839 40.177 54.1041 40.3696 53.9622 40.5116C53.8202 40.6535 53.6277 40.7333 53.4269 40.7333L53.4239 40.7323Z" fill="#3F3F3F"/>
<path d="M53.429 40.7323H51.592V33.5101H53.425C53.6258 33.5101 53.8184 33.5899 53.9603 33.7319C54.1023 33.8738 54.1821 34.0664 54.1821 34.2672V39.9763C54.1818 40.1762 54.1025 40.3679 53.9614 40.5095C53.8203 40.6512 53.6289 40.7312 53.429 40.7323Z" fill="#0D0D0D"/>
<path d="M40.593 36.2391H33.511C33.3795 36.2437 33.2489 36.2148 33.1315 36.1552C33.0142 36.0955 32.9139 36.0071 32.84 35.8981L31.408 33.5101H42.696L41.264 35.8981C41.1902 36.0071 41.0899 36.0955 40.9725 36.1552C40.8551 36.2148 40.7246 36.2437 40.593 36.2391Z" fill="#F9EFEF"/>
<path d="M42.6961 33.5101L41.2641 35.8981C41.1903 36.0072 41.09 36.0957 40.9726 36.1553C40.8553 36.215 40.7247 36.2438 40.5931 36.2391H38.7391C38.8706 36.2438 39.0013 36.215 39.1186 36.1553C39.236 36.0957 39.3363 36.0072 39.4101 35.8981L40.8421 33.5101H42.6961Z" fill="#E1D3CE"/>
<path d="M54.5599 33.5936H21.8139C21.6133 33.5934 21.421 33.5135 21.2793 33.3715C21.1375 33.2296 21.0579 33.0372 21.0579 32.8366V27.1275C21.0579 27.0281 21.0775 26.9296 21.1155 26.8378C21.1536 26.746 21.2093 26.6625 21.2796 26.5922C21.3499 26.5219 21.4334 26.4662 21.5252 26.4281C21.6171 26.3901 21.7155 26.3705 21.8149 26.3705H54.5609C54.6603 26.3705 54.7587 26.3901 54.8506 26.4281C54.9424 26.4662 55.0259 26.5219 55.0961 26.5922C55.1664 26.6625 55.2222 26.746 55.2602 26.8378C55.2983 26.9296 55.3179 27.0281 55.3179 27.1275V32.8366C55.3179 32.936 55.2983 33.0345 55.2602 33.1263C55.2222 33.2182 55.1664 33.3016 55.0961 33.3719C55.0259 33.4422 54.9424 33.498 54.8506 33.536C54.7587 33.574 54.6603 33.5936 54.5609 33.5936H54.5599Z" fill="#3F3F3F"/>
<path d="M54.5611 33.5936H52.7281V26.3715H54.5611C54.7619 26.3715 54.9544 26.4512 55.0964 26.5932C55.2383 26.7352 55.3181 26.9277 55.3181 27.1285V32.8376C55.3181 33.0384 55.2383 33.2309 55.0964 33.3729C54.9544 33.5148 54.7619 33.5946 54.5611 33.5946V33.5936Z" fill="#0D0D0D"/>
<path d="M41.7289 29.1005H34.6509C34.5193 29.105 34.3888 29.0761 34.2714 29.0165C34.1541 28.9569 34.0538 28.8684 33.9799 28.7595L32.5479 26.3715H43.8309L42.3989 28.7595C42.3251 28.8685 42.2248 28.957 42.1075 29.0166C41.9901 29.0763 41.8595 29.1051 41.7279 29.1005H41.7289Z" fill="#F9EFEF"/>
<path d="M43.8282 26.3715L42.3961 28.7595C42.3224 28.8685 42.222 28.957 42.1047 29.0166C41.9873 29.0763 41.8567 29.1051 41.7251 29.1005H39.8712C40.0027 29.105 40.1333 29.0761 40.2506 29.0165C40.368 28.9569 40.4683 28.8684 40.5421 28.7595L41.9742 26.3715H43.8282Z" fill="#E1D3CE"/>
<path d="M50.8351 26.3715H18.0891C17.8883 26.3715 17.6958 26.2917 17.5538 26.1497C17.4118 26.0078 17.3321 25.8152 17.3321 25.6144V19.9063C17.3321 19.7055 17.4118 19.513 17.5538 19.371C17.6958 19.229 17.8883 19.1493 18.0891 19.1493H50.8351C51.0359 19.1493 51.2284 19.229 51.3704 19.371C51.5123 19.513 51.5921 19.7055 51.5921 19.9063V25.6144C51.5921 25.8152 51.5123 26.0078 51.3704 26.1497C51.2284 26.2917 51.0359 26.3715 50.8351 26.3715Z" fill="#3F3F3F"/>
<path d="M50.835 26.3715H49.002V19.1493H50.835C51.0358 19.1493 51.2283 19.229 51.3703 19.371C51.5123 19.513 51.592 19.7055 51.592 19.9063V25.6144C51.592 25.8152 51.5123 26.0078 51.3703 26.1497C51.2283 26.2917 51.0358 26.3715 50.835 26.3715Z" fill="#0D0D0D"/>
<path d="M38.0041 21.8783H30.9231C30.7915 21.883 30.6609 21.8541 30.5435 21.7945C30.4261 21.7348 30.3259 21.6463 30.2521 21.5373L28.8231 19.1493H40.1111L38.6791 21.5373C38.6052 21.6463 38.5049 21.7347 38.3875 21.7943C38.2702 21.854 38.1396 21.8829 38.0081 21.8783H38.0041Z" fill="#F9EFEF"/>
<path d="M40.106 19.1493L38.674 21.5373C38.6002 21.6463 38.4999 21.7348 38.3825 21.7945C38.2652 21.8541 38.1346 21.883 38.003 21.8783H36.149C36.2806 21.883 36.4112 21.8541 36.5285 21.7945C36.6459 21.7348 36.7462 21.6463 36.82 21.5373L38.252 19.1493H40.106Z" fill="#E1D3CE"/>
<path d="M40.3351 40.1743C40.336 40.6698 40.1433 41.1459 39.7981 41.5013C37.4672 44.0037 34.6405 45.993 31.4981 47.3423C30.4562 47.7352 29.3394 47.8894 28.2301 47.7934C25.8771 47.5934 21.2771 47.0123 19.1861 45.4293V43.7893C21.2771 45.3733 25.8771 45.9543 28.2301 46.1543C29.3395 46.2498 30.4562 46.0954 31.4981 45.7023C34.6404 44.3533 37.4671 42.3644 39.7981 39.8624C39.9424 39.714 40.061 39.5426 40.1491 39.3553C40.2712 39.6111 40.3348 39.8909 40.3351 40.1743Z" fill="#FFBFAB"/>
<path d="M39.8901 38.9483C39.6323 38.6403 39.2838 38.4215 38.8944 38.3231C38.5049 38.2247 38.0943 38.2517 37.7211 38.4003L32.8771 40.3273C32.1649 40.6108 31.3767 40.6405 30.6451 40.4113L29.1901 39.9553C29.1295 39.9365 29.0758 39.9003 29.0357 39.8511C28.9955 39.8019 28.9708 39.742 28.9645 39.6789C28.9582 39.6157 28.9706 39.5521 29.0003 39.496C29.0299 39.4399 29.0754 39.3937 29.1311 39.3633L30.4311 38.6513C30.7699 38.4636 31.0277 38.1578 31.1554 37.7921C31.283 37.4264 31.2715 37.0266 31.1232 36.6688C30.9748 36.3111 30.6999 36.0205 30.3509 35.8526C30.0019 35.6846 29.6033 35.651 29.2311 35.7582L23.5312 37.4353C22.5043 37.7371 21.4395 37.8903 20.3692 37.8903H19.1952L18.7042 37.8393V45.4294H19.1952C21.2862 47.0124 25.8861 47.5945 28.2391 47.7935C29.3485 47.8894 30.4652 47.7353 31.5071 47.3424C34.6495 45.9935 37.4762 44.0046 39.8071 41.5024C40.135 41.1632 40.3258 40.7147 40.3426 40.2433C40.3594 39.7719 40.2011 39.3109 39.8981 38.9493L39.8901 38.9483Z" fill="#FFC4B4"/>
<path d="M18.8352 46.1814H16.3082V37.4554H18.8352C18.9283 37.4554 19.0175 37.4924 19.0834 37.5583C19.1492 37.6241 19.1862 37.7134 19.1862 37.8064V45.8315C19.1859 45.9244 19.1488 46.0134 19.083 46.079C19.0172 46.1446 18.9281 46.1814 18.8352 46.1814Z" fill="#F9EFEF"/>
<path d="M18.8349 46.181H16.3079V42.9672H19.1859V45.831C19.1856 45.924 19.1486 46.013 19.0828 46.0786C19.017 46.1442 18.9278 46.181 18.8349 46.181Z" fill="#EFE2DD"/>
<path d="M16.335 47.0302H10.0479C9.9998 47.0302 9.95212 47.0207 9.90765 47.0022C9.86318 46.9837 9.82279 46.9567 9.78879 46.9226C9.75479 46.8885 9.72785 46.8481 9.70952 46.8035C9.69119 46.759 9.68182 46.7113 9.68195 46.6632V36.9733C9.68195 36.8762 9.72051 36.7831 9.78915 36.7145C9.85778 36.6459 9.95088 36.6073 10.0479 36.6073H16.335C16.3831 36.6072 16.4308 36.6165 16.4753 36.6349C16.5199 36.6532 16.5603 36.6801 16.5944 36.7141C16.6285 36.7481 16.6556 36.7885 16.674 36.833C16.6925 36.8775 16.702 36.9251 16.702 36.9733V46.6632C16.702 46.7605 16.6633 46.8538 16.5945 46.9227C16.5256 46.9915 16.4323 47.0302 16.335 47.0302Z" fill="#009445"/>
<path d="M16.3349 47.0291H10.0479C9.95088 47.0291 9.85778 46.9906 9.78914 46.922C9.72051 46.8533 9.68195 46.7602 9.68195 46.6631V43.3632H16.7009V46.6631C16.7009 46.7603 16.6624 46.8535 16.5938 46.9223C16.5252 46.9911 16.4321 47.0299 16.3349 47.0302V47.0291Z" fill="#4CA443"/>
</g>
<defs>
<clipPath id="clip0_7_6692">
<rect width="65" height="65" fill="white" transform="translate(0 0.985229)"/>
</clipPath>
</defs>
</svg>
