<svg width="24" height="24" viewBox="0 0 24 24" fill="none" xmlns="http://www.w3.org/2000/svg">
<path d="M18.7566 0.00756836H8.50078C7.48297 0.00880883 6.50721 0.413679 5.78752 1.13337C5.06782 1.85307 4.66295 2.82883 4.66171 3.84663V6.21569C4.66171 6.51406 4.78024 6.80021 4.99122 7.01119C5.2022 7.22217 5.48834 7.34069 5.78671 7.34069C6.08508 7.34069 6.37123 7.22217 6.58221 7.01119C6.79319 6.80021 6.91171 6.51406 6.91171 6.21569V3.84663C6.91221 3.42534 7.07979 3.02144 7.37769 2.72354C7.67559 2.42564 8.07948 2.25806 8.50078 2.25757H18.7566C19.1776 2.25844 19.581 2.42619 19.8786 2.72407C20.1761 3.02194 20.3434 3.42562 20.3437 3.84663V20.1535C20.3434 20.5748 20.1759 20.9787 19.8781 21.2766C19.5802 21.5745 19.1764 21.7421 18.7551 21.7426H8.50078C8.07948 21.7421 7.67559 21.5745 7.37769 21.2766C7.07979 20.9787 6.91221 20.5748 6.91171 20.1535V17.4127C6.91171 17.1144 6.79319 16.8282 6.58221 16.6172C6.37123 16.4063 6.08508 16.2877 5.78671 16.2877C5.48834 16.2877 5.2022 16.4063 4.99122 16.6172C4.78024 16.8282 4.66171 17.1144 4.66171 17.4127V20.1535C4.66295 21.1713 5.06782 22.1471 5.78752 22.8668C6.50721 23.5865 7.48297 23.9913 8.50078 23.9926H18.7566C19.774 23.9908 20.7493 23.5857 21.4686 22.8661C22.1879 22.1465 22.5925 21.171 22.5937 20.1535V3.84663C22.5925 2.82915 22.1879 1.85368 21.4686 1.13404C20.7493 0.414394 19.774 0.00930476 18.7566 0.00756836Z"/>
<path d="M17.0925 11.1812L13.0894 7.18046C12.8811 6.97211 12.5994 6.85378 12.3048 6.85088C12.0102 6.84799 11.7262 6.96077 11.5139 7.16499C11.0592 7.60233 11.07 8.34296 11.5162 8.78921L13.6008 10.8751H2.53125C2.23288 10.8751 1.94673 10.9937 1.73575 11.2047C1.52478 11.4156 1.40625 11.7018 1.40625 12.0001C1.40625 12.2985 1.52478 12.5847 1.73575 12.7956C1.94673 13.0066 2.23288 13.1251 2.53125 13.1251H13.6013L11.4966 15.2298C11.2855 15.4408 11.1669 15.727 11.1669 16.0254C11.1669 16.3238 11.2854 16.61 11.4963 16.821C11.7073 17.032 11.9935 17.1506 12.2919 17.1507C12.5903 17.1507 12.8765 17.0322 13.0875 16.8212L17.0925 12.8176C17.2001 12.7103 17.2854 12.5827 17.3437 12.4423C17.4019 12.3019 17.4319 12.1514 17.4319 11.9994C17.4319 11.8474 17.4019 11.6969 17.3437 11.5565C17.2854 11.4161 17.2001 11.2886 17.0925 11.1812Z"/>
</svg>
