<svg width="24" height="24" viewBox="0 0 24 24" fill="none" xmlns="http://www.w3.org/2000/svg">
<path d="M15.2344 1.92188H12.6429C12.5259 0.868687 11.6308 0.046875 10.5469 0.046875H6.79688C5.71298 0.046875 4.81786 0.868687 4.70081 1.92188H2.10938C0.946266 1.92188 0 2.86814 0 4.03125V21.8438C0 23.0069 0.946266 23.9531 2.10938 23.9531H15.2344C16.3975 23.9531 17.3438 23.0069 17.3438 21.8438V4.03125C17.3438 2.86814 16.3975 1.92188 15.2344 1.92188ZM6.09375 2.15625C6.09375 1.76855 6.40917 1.45312 6.79688 1.45312H10.5469C10.9346 1.45312 11.25 1.76855 11.25 2.15625V2.85938H6.09375V2.15625ZM15.9375 21.8438C15.9375 22.2315 15.6221 22.5469 15.2344 22.5469H2.10938C1.72167 22.5469 1.40625 22.2315 1.40625 21.8438V4.03125C1.40625 3.64355 1.72167 3.32812 2.10938 3.32812H4.6875V3.5625C4.6875 3.95081 5.00231 4.26562 5.39062 4.26562H11.9531C12.3414 4.26562 12.6562 3.95081 12.6562 3.5625V3.32812H15.2344C15.6221 3.32812 15.9375 3.64355 15.9375 4.03125V21.8438Z" />
<path d="M6.99591 8.69032C6.72132 8.41573 6.27615 8.41573 6.00155 8.69032L4.50999 10.1819L4.01284 9.68468C3.73824 9.41009 3.29307 9.41009 3.01848 9.68468C2.74388 9.95927 2.74388 10.4044 3.01848 10.679L4.01284 11.6734C4.28743 11.948 4.7326 11.948 5.00719 11.6734L6.99596 9.68468C7.27051 9.41013 7.27051 8.96491 6.99591 8.69032Z" />
<path d="M6.00155 17.9515L4.50999 19.4431L4.01284 18.9459C3.73824 18.6713 3.29307 18.6713 3.01848 18.9459C2.74388 19.2205 2.74388 19.6657 3.01848 19.9402L4.01284 20.9347C4.28743 21.2092 4.7326 21.2092 5.00719 20.9347L6.99591 18.9459C7.27051 18.6713 7.27051 18.2262 6.99591 17.9516C6.72132 17.677 6.27615 17.6769 6.00155 17.9515Z" />
<path d="M3.51562 16.3041C3.79022 16.5787 4.23539 16.5787 4.50998 16.3041L5.00718 15.8069L5.50439 16.3041C5.77898 16.5787 6.22415 16.5787 6.49875 16.3041C6.77334 16.0295 6.77334 15.5843 6.49875 15.3097L6.00154 14.8125L6.49875 14.3153C6.77334 14.0407 6.77334 13.5955 6.49875 13.3209C6.22415 13.0463 5.77898 13.0463 5.50439 13.3209L5.00718 13.8181L4.50998 13.3209C4.23539 13.0463 3.79022 13.0463 3.51562 13.3209C3.24103 13.5955 3.24103 14.0407 3.51562 14.3153L4.01283 14.8125L3.51562 15.3097C3.24103 15.5843 3.24103 16.0295 3.51562 16.3041Z" />
<path d="M13.8281 5.67188H3.98438C3.59606 5.67188 3.28125 5.98669 3.28125 6.375C3.28125 6.76331 3.59606 7.07812 3.98438 7.07812H13.8281C14.2164 7.07812 14.5312 6.76331 14.5312 6.375C14.5312 5.98669 14.2164 5.67188 13.8281 5.67188Z" />
<path d="M13.8281 9.42188H9.60938C9.22106 9.42188 8.90625 9.73669 8.90625 10.125C8.90625 10.5133 9.22106 10.8281 9.60938 10.8281H13.8281C14.2164 10.8281 14.5312 10.5133 14.5312 10.125C14.5312 9.73669 14.2164 9.42188 13.8281 9.42188Z" />
<path d="M13.8281 14.1094H9.60938C9.22106 14.1094 8.90625 14.4242 8.90625 14.8125C8.90625 15.2008 9.22106 15.5156 9.60938 15.5156H13.8281C14.2164 15.5156 14.5312 15.2008 14.5312 14.8125C14.5312 14.4242 14.2164 14.1094 13.8281 14.1094Z" />
<path d="M13.8281 18.7969H9.60938C9.22106 18.7969 8.90625 19.1117 8.90625 19.5C8.90625 19.8883 9.22106 20.2031 9.60938 20.2031H13.8281C14.2164 20.2031 14.5312 19.8883 14.5312 19.5C14.5312 19.1117 14.2164 18.7969 13.8281 18.7969Z" />
<path d="M21.8906 2.85938C20.7275 2.85938 19.7812 3.80564 19.7812 4.96875V5.67188H19.5469C19.1586 5.67188 18.8438 5.98669 18.8438 6.375C18.8438 6.76331 19.1586 7.07812 19.5469 7.07812H19.7812V18.0938C19.7812 19.6762 20.2793 21.2454 21.1875 22.5399V23.25C21.1875 23.6383 21.5023 23.9531 21.8906 23.9531C22.2789 23.9531 22.5938 23.6383 22.5938 23.25V22.5399C23.502 21.2454 24 19.6763 24 18.0938V4.96875C24 3.80564 23.0537 2.85938 21.8906 2.85938ZM21.8906 20.9901C21.54 20.3067 21.3145 19.5606 21.2279 18.7969H22.5533C22.4668 19.5605 22.2412 20.3067 21.8906 20.9901ZM22.5938 17.3906H21.1875V7.07812H22.5938V17.3906ZM22.5938 5.67188H21.1875V4.96875C21.1875 4.58105 21.5029 4.26562 21.8906 4.26562C22.2783 4.26562 22.5938 4.58105 22.5938 4.96875V5.67188Z" />
</svg>
