<svg width="24" height="24" viewBox="0 0 24 24" fill="none" xmlns="http://www.w3.org/2000/svg">
<path d="M10.1478 21C9.95136 21 9.76292 20.9256 9.62398 20.7933C9.48504 20.6609 9.40698 20.4813 9.40698 20.2941V13.5071L2.53919 6.31059C2.26884 6.02674 2.09078 5.67422 2.02661 5.29583C1.96244 4.91743 2.01492 4.52942 2.17769 4.17889C2.34046 3.82836 2.60652 3.53038 2.94357 3.32112C3.28063 3.11185 3.67418 3.0003 4.07648 3H19.9235C20.3258 3.0003 20.7194 3.11185 21.0564 3.32112C21.3935 3.53038 21.6595 3.82836 21.8223 4.17889C21.9851 4.52942 22.0376 4.91743 21.9734 5.29583C21.9092 5.67422 21.7312 6.02674 21.4608 6.31059L14.593 13.5071V17.4706C14.5929 17.5763 14.5679 17.6807 14.5199 17.776C14.4718 17.8713 14.4018 17.9551 14.3152 18.0212L10.6109 20.8447C10.4795 20.9451 10.3162 20.9999 10.1478 21ZM4.07648 4.41176C3.9612 4.41204 3.84847 4.44414 3.75193 4.50419C3.6554 4.56424 3.5792 4.64966 3.53256 4.75011C3.48592 4.85056 3.47084 4.96174 3.48914 5.07019C3.50744 5.17864 3.55833 5.27971 3.63567 5.36118L10.6961 12.7729C10.817 12.8997 10.8855 13.064 10.8887 13.2353V18.8259L13.1113 17.1176V13.2353C13.1109 13.0591 13.1796 12.8892 13.3039 12.7588L20.3643 5.34706C20.4371 5.26523 20.484 5.16547 20.4997 5.0593C20.5155 4.95312 20.4994 4.84488 20.4533 4.74706C20.4072 4.64924 20.333 4.56585 20.2392 4.50652C20.1455 4.44719 20.036 4.41434 19.9235 4.41176H4.07648Z"/>
</svg>
