<svg width="24" height="24" viewBox="0 0 24 24" fill="none" xmlns="http://www.w3.org/2000/svg">
<path d="M3.30462 24H20.6954C22.5185 24 24 22.5733 24 20.8178V4.95998C24 3.20442 22.5185 1.77774 20.6954 1.77774H19.3846V0.888872C19.3846 0.399978 18.9692 0 18.4615 0C17.9538 0 17.5384 0.399978 17.5384 0.888872V1.77774H6.46157V0.888872C6.46157 0.399978 6.04613 0 5.53843 0C5.03073 0 4.61537 0.399978 4.61537 0.888872V1.77774H3.30462C1.48155 1.77774 0 3.20442 0 4.95998V20.8178C0 22.5733 1.48155 24 3.30462 24ZM1.8462 4.95998C1.8462 4.18667 2.50157 3.55556 3.30462 3.55556H4.61537V4.44444C4.61537 4.93333 5.03073 5.33331 5.53843 5.33331C6.04613 5.33331 6.46149 4.93333 6.46149 4.44444V3.55556H17.5384V4.44444C17.5384 4.93333 17.9538 5.33331 18.4615 5.33331C18.9692 5.33331 19.3846 4.93333 19.3846 4.44444V3.55556H20.6953C21.4984 3.55556 22.1537 4.18667 22.1537 4.95998V7.55556H1.8462V4.95998ZM1.8462 9.33331H22.1539V20.8178C22.1539 21.5911 21.4985 22.2222 20.6955 22.2222H3.30462C2.50157 22.2222 1.8462 21.5911 1.8462 20.8178V9.33331Z"/>
</svg>
