<svg width="66" height="66" viewBox="0 0 66 66" fill="none" xmlns="http://www.w3.org/2000/svg">
<path d="M60.2119 0.930542H5.21191C2.45049 0.930542 0.211914 3.16912 0.211914 5.93054V60.9305C0.211914 63.692 2.45049 65.9305 5.21191 65.9305H60.2119C62.9733 65.9305 65.2119 63.692 65.2119 60.9305V5.93054C65.2119 3.16912 62.9733 0.930542 60.2119 0.930542Z" fill="#A5D1A1"/>
<path d="M25.8438 47.8134C23.3508 47.8134 20.9599 48.8037 19.197 50.5666C17.4342 52.3294 16.4438 54.7203 16.4438 57.2133V59.4134H21.7038L22.5038 58.7673L23.2589 59.4134H27.3278L35.7598 47.8134H25.8438Z" fill="#F9F9F9"/>
<path d="M40.0289 47.8134H35.7579L31.4659 51.3274L27.3259 54.6913V59.4134H42.6179L43.3949 58.8193L44.1719 59.4134H49.4319V57.2133C49.4319 55.9787 49.1887 54.7561 48.7161 53.6154C48.2435 52.4748 47.5508 51.4384 46.6777 50.5655C45.8045 49.6926 44.7679 49.0002 43.6271 48.528C42.4863 48.0558 41.2636 47.813 40.0289 47.8134Z" fill="white"/>
<path d="M21.7009 59.4155V54.7735C21.7009 54.5674 21.7828 54.3698 21.9285 54.2241C22.0742 54.0783 22.2718 53.9965 22.4779 53.9965C22.684 53.9965 22.8816 54.0783 23.0273 54.2241C23.1731 54.3698 23.2549 54.5674 23.2549 54.7735V59.4155H21.7009Z" fill="#BDBFB4"/>
<path d="M43.394 53.9965C43.1879 53.9965 42.9903 54.0783 42.8445 54.224C42.6988 54.3697 42.6169 54.5674 42.6169 54.7734V59.4155H44.171V54.7734C44.171 54.5674 44.0891 54.3697 43.9434 54.224C43.7977 54.0783 43.6 53.9965 43.394 53.9965Z" fill="#D7D9CC"/>
<path d="M30.929 57.0004C31.4548 57.0004 31.881 56.5742 31.881 56.0485C31.881 55.5227 31.4548 55.0966 30.929 55.0966C30.4033 55.0966 29.9771 55.5227 29.9771 56.0485C29.9771 56.5742 30.4033 57.0004 30.929 57.0004Z" fill="#D7D9CC"/>
<path d="M38.8849 57.0004C39.4106 57.0004 39.8369 56.5742 39.8369 56.0485C39.8369 55.5227 39.4106 55.0966 38.8849 55.0966C38.3591 55.0966 37.9329 55.5227 37.9329 56.0485C37.9329 56.5742 38.3591 57.0004 38.8849 57.0004Z" fill="#D7D9CC"/>
<path d="M49.8339 30.9327L32.9339 29.3837L16.0339 30.9327V38.0839H49.8339V30.9327Z" fill="#7E3D2F"/>
<path d="M48.1028 41.6806C50.0656 41.6806 51.6568 40.0895 51.6568 38.1266C51.6568 36.1638 50.0656 34.5726 48.1028 34.5726C46.14 34.5726 44.5488 36.1638 44.5488 38.1266C44.5488 40.0895 46.14 41.6806 48.1028 41.6806Z" fill="#E3B098"/>
<path d="M32.9349 51.3896C41.4804 51.3896 48.4079 44.9487 48.4079 37.0036C48.4079 29.0584 41.4804 22.6176 32.9349 22.6176C24.3894 22.6176 17.4619 29.0584 17.4619 37.0036C17.4619 44.9487 24.3894 51.3896 32.9349 51.3896Z" fill="#FBC4AC"/>
<path d="M20.5699 37.0045C20.5699 29.5475 26.6699 23.4155 34.4899 22.6905C33.9785 22.6432 33.4605 22.6192 32.9359 22.6185C25.2809 22.6185 18.9249 27.7865 17.6829 34.5745C17.2163 34.5801 16.7554 34.6775 16.3264 34.8612C15.8975 35.0449 15.509 35.3113 15.183 35.6452C14.5246 36.3195 14.1611 37.2277 14.1724 38.17C14.1836 39.1123 14.5688 40.0115 15.2431 40.6699C15.9174 41.3282 16.8256 41.6917 17.7679 41.6805C17.94 41.6821 18.1118 41.6667 18.2809 41.6345C19.4375 44.5609 21.4612 47.0637 24.0805 48.8075C26.6999 50.5512 29.7898 51.4525 32.9359 51.3904C33.4605 51.3904 33.9785 51.3664 34.4899 51.3184C26.6729 50.5934 20.5699 44.4615 20.5699 37.0045Z" fill="#E3B098"/>
<path d="M45.028 7.93054C43.7506 7.93058 42.5003 8.29972 41.4277 8.99358C40.3551 9.68743 39.5058 10.6764 38.982 11.8416C38.4582 10.6765 37.6089 9.68757 36.5363 8.99379C35.4637 8.30001 34.2135 7.93091 32.936 7.93091C31.6586 7.93091 30.4084 8.30001 29.3358 8.99379C28.2632 9.68757 27.4139 10.6765 26.89 11.8416C26.4937 10.9624 25.9103 10.1802 25.1806 9.54962C24.4508 8.91906 23.5923 8.4553 22.6649 8.19068C21.7374 7.92607 20.7635 7.86698 19.8109 8.01753C18.8583 8.16808 17.95 8.52465 17.1493 9.06237C16.3487 9.60008 15.675 10.306 15.1753 11.1309C14.6756 11.9557 14.3618 12.8797 14.2559 13.8383C14.15 14.7969 14.2545 15.7671 14.5621 16.6811C14.8698 17.5952 15.3731 18.4311 16.0371 19.1307V27.8307L32.937 29.3798L49.837 27.8307V19.1307C50.7315 18.1905 51.3305 17.0084 51.5596 15.7311C51.7887 14.4537 51.6379 13.1372 51.1259 11.9448C50.6138 10.7523 49.7631 9.73632 48.6792 9.02276C47.5953 8.3092 46.3257 7.92943 45.028 7.93054Z" fill="white"/>
<path d="M19.145 27.8303V19.1304C18.3425 18.287 17.7762 17.2472 17.5031 16.1155C17.2301 14.9838 17.2598 13.8002 17.5895 12.6836C17.9191 11.5671 18.537 10.5571 19.3809 9.75517C20.2249 8.95325 21.2651 8.38773 22.397 8.11549C21.0057 7.77933 19.5429 7.90247 18.2273 8.46653C16.9118 9.03058 15.8141 10.0052 15.0983 11.2448C14.3826 12.4844 14.0873 13.9224 14.2565 15.3437C14.4257 16.765 15.0503 18.0935 16.0371 19.1304V27.8303L32.937 29.3793L34.491 29.2373L19.145 27.8303Z" fill="#F9F9F9"/>
<path d="M32.9359 42.6597C34.6849 44.8467 37.2629 43.9407 38.6229 43.2217C38.6971 43.1808 38.7597 43.1218 38.8049 43.0501C38.85 42.9785 38.8762 42.8965 38.881 42.812C38.8858 42.7274 38.8691 42.643 38.8323 42.5667C38.7955 42.4904 38.74 42.4246 38.6709 42.3757C37.8919 41.8307 37.4379 40.6367 36.7939 40.0367C35.7939 39.1047 34.0709 38.5367 32.9359 39.5667C31.8009 38.5377 30.0779 39.1037 29.0779 40.0367C28.4339 40.6367 27.9779 41.8307 27.2009 42.3757C27.1318 42.4246 27.0763 42.4904 27.0395 42.5667C27.0027 42.643 26.986 42.7274 26.9908 42.812C26.9956 42.8965 27.0218 42.9785 27.0669 43.0501C27.1121 43.1218 27.1747 43.1808 27.2489 43.2217C28.6089 43.9397 31.1869 44.8467 32.9359 42.6597Z" fill="#7E3D2F"/>
<path d="M41.465 38.8164C41.2589 38.8164 41.0613 38.7345 40.9156 38.5888C40.7698 38.4431 40.688 38.2454 40.688 38.0394V36.3814C40.688 36.1753 40.7698 35.9777 40.9156 35.8319C41.0613 35.6862 41.2589 35.6044 41.465 35.6044C41.6711 35.6044 41.8687 35.6862 42.0144 35.8319C42.1601 35.9777 42.242 36.1753 42.242 36.3814V38.0394C42.242 38.2454 42.1601 38.4431 42.0144 38.5888C41.8687 38.7345 41.6711 38.8164 41.465 38.8164Z" fill="#3B484A"/>
<path d="M42.599 41.2548H40.34C40.2379 41.2548 40.1369 41.2347 40.0426 41.1956C39.9484 41.1566 39.8627 41.0993 39.7906 41.0272C39.7184 40.955 39.6612 40.8693 39.6221 40.7751C39.5831 40.6808 39.563 40.5797 39.563 40.4776C39.563 40.3756 39.5831 40.2746 39.6221 40.1803C39.6612 40.086 39.7184 40.0003 39.7906 39.9282C39.8627 39.856 39.9484 39.7988 40.0426 39.7597C40.1369 39.7207 40.2379 39.7006 40.34 39.7006H42.599C42.701 39.7006 42.8021 39.7207 42.8963 39.7597C42.9906 39.7988 43.0763 39.856 43.1484 39.9282C43.2206 40.0003 43.2778 40.086 43.3168 40.1803C43.3559 40.2746 43.376 40.3756 43.376 40.4776C43.376 40.5797 43.3559 40.6808 43.3168 40.7751C43.2778 40.8693 43.2206 40.955 43.1484 41.0272C43.0763 41.0993 42.9906 41.1566 42.8963 41.1956C42.8021 41.2347 42.701 41.2548 42.599 41.2548Z" fill="#F98084"/>
<path d="M24.4069 38.8164C24.2008 38.8164 24.0032 38.7345 23.8575 38.5888C23.7118 38.4431 23.6299 38.2454 23.6299 38.0394V36.3814C23.6299 36.1753 23.7118 35.9777 23.8575 35.8319C24.0032 35.6862 24.2008 35.6044 24.4069 35.6044C24.613 35.6044 24.8106 35.6862 24.9563 35.8319C25.102 35.9777 25.1839 36.1753 25.1839 36.3814V38.0394C25.1839 38.1414 25.1638 38.2424 25.1247 38.3367C25.0857 38.431 25.0285 38.5166 24.9563 38.5888C24.8842 38.6609 24.7985 38.7182 24.7042 38.7572C24.61 38.7963 24.5089 38.8164 24.4069 38.8164Z" fill="#3B484A"/>
<path d="M25.536 41.2548H23.277C23.175 41.2548 23.0739 41.2347 22.9796 41.1956C22.8854 41.1566 22.7997 41.0993 22.7276 41.0272C22.6554 40.955 22.5982 40.8693 22.5591 40.7751C22.5201 40.6808 22.5 40.5797 22.5 40.4776C22.5 40.3756 22.5201 40.2746 22.5591 40.1803C22.5982 40.086 22.6554 40.0003 22.7276 39.9282C22.7997 39.856 22.8854 39.7988 22.9796 39.7597C23.0739 39.7207 23.175 39.7006 23.277 39.7006H25.536C25.638 39.7006 25.7391 39.7207 25.8333 39.7597C25.9276 39.7988 26.0133 39.856 26.0854 39.9282C26.1576 40.0003 26.2148 40.086 26.2538 40.1803C26.2929 40.2746 26.313 40.3756 26.313 40.4776C26.313 40.5797 26.2929 40.6808 26.2538 40.7751C26.2148 40.8693 26.1576 40.955 26.0854 41.0272C26.0133 41.0993 25.9276 41.1566 25.8333 41.1956C25.7391 41.2347 25.638 41.2548 25.536 41.2548Z" fill="#F98084"/>
<path d="M32.9359 25.5565C32.7299 25.5565 32.5322 25.4746 32.3865 25.3289C32.2408 25.1832 32.1589 24.9856 32.1589 24.7795V16.1055C32.1589 15.8994 32.2408 15.7018 32.3865 15.5561C32.5322 15.4104 32.7299 15.3285 32.9359 15.3285C33.142 15.3285 33.3396 15.4104 33.4854 15.5561C33.6311 15.7018 33.7129 15.8994 33.7129 16.1055V24.7775C33.7132 24.8797 33.6933 24.981 33.6544 25.0755C33.6154 25.17 33.5582 25.2558 33.4861 25.3282C33.4139 25.4006 33.3281 25.458 33.2337 25.4972C33.1393 25.5363 33.0381 25.5565 32.9359 25.5565Z" fill="#D7D9CC"/>
<path d="M25.1469 25.5565C24.9408 25.5565 24.7432 25.4746 24.5975 25.3289C24.4517 25.1832 24.3699 24.9856 24.3699 24.7795V16.1055C24.3699 15.8994 24.4517 15.7018 24.5975 15.5561C24.7432 15.4104 24.9408 15.3285 25.1469 15.3285C25.353 15.3285 25.5506 15.4104 25.6963 15.5561C25.842 15.7018 25.9239 15.8994 25.9239 16.1055V24.7775C25.9241 24.8797 25.9042 24.981 25.8653 25.0755C25.8264 25.17 25.7692 25.2558 25.697 25.3282C25.6248 25.4006 25.5391 25.458 25.4447 25.4972C25.3503 25.5363 25.2491 25.5565 25.1469 25.5565Z" fill="#D7D9CC"/>
<path d="M40.726 25.5565C40.5199 25.5565 40.3223 25.4746 40.1766 25.3289C40.0309 25.1832 39.949 24.9856 39.949 24.7795V16.1055C39.949 15.8994 40.0309 15.7018 40.1766 15.5561C40.3223 15.4104 40.5199 15.3285 40.726 15.3285C40.9321 15.3285 41.1297 15.4104 41.2754 15.5561C41.4211 15.7018 41.503 15.8994 41.503 16.1055V24.7775C41.5033 24.8797 41.4833 24.981 41.4444 25.0755C41.4055 25.17 41.3483 25.2558 41.2761 25.3282C41.2039 25.4006 41.1182 25.458 41.0238 25.4972C40.9294 25.5363 40.8282 25.5565 40.726 25.5565Z" fill="#D7D9CC"/>
<path d="M49.8348 27.8334H16.0378V30.9325H49.8348V27.8334Z" fill="#F9F9F9"/>
<path d="M19.1461 27.8334H16.0381V30.9315H19.1461V27.8334Z" fill="#BDBFB4"/>
</svg>
