<svg width="24" height="24" viewBox="0 0 24 24" fill="none" xmlns="http://www.w3.org/2000/svg">
<g clip-path="url(#clip0_1_422)">
<path d="M2.07135 9.96761C2.07697 9.57259 2.23844 9.19581 2.52063 8.91929L10.982 0.44297C11.5644 -0.144245 12.5126 -0.148141 13.0999 0.43429C13.1028 0.43715 13.1057 0.44006 13.1086 0.44297L21.5699 8.91934C22.1079 9.54753 22.0348 10.4929 21.4065 11.0309C20.8458 11.5111 20.019 11.5111 19.4583 11.0309L12.0453 3.61788L4.63222 11.1058C4.04811 11.6865 3.10474 11.6865 2.52063 11.1058C2.21565 10.8077 2.05222 10.3937 2.07135 9.96761Z"/>
<path d="M10.5476 22.5024L10.5476 1.53624C10.5476 0.709146 11.2182 0.0386353 12.0452 0.0386353C12.8723 0.0386353 13.5428 0.709146 13.5428 1.53624L13.5428 22.5024C13.5428 23.3295 12.8723 24 12.0452 24C11.2182 24 10.5476 23.3295 10.5476 22.5024Z"/>
</g>
<defs>
<clipPath id="clip0_1_422">
<rect width="24" height="24" fill="white" transform="translate(24) rotate(90)"/>
</clipPath>
</defs>
</svg>
