<svg width="24" height="24" viewBox="0 0 24 24" fill="none" xmlns="http://www.w3.org/2000/svg">
<g clip-path="url(#clip0_1_422)">
<path d="M21.9286 14.0324C21.923 14.4274 21.7616 14.8042 21.4794 15.0807L13.018 23.557C12.4356 24.1442 11.4874 24.1481 10.9001 23.5657C10.8972 23.5628 10.8943 23.5599 10.8914 23.557L2.43008 15.0807C1.89209 14.4525 1.96522 13.5071 2.59347 12.9691C3.15415 12.4889 3.98105 12.4889 4.54168 12.9691L11.9547 20.3821L19.3678 12.8942C19.9519 12.3135 20.8953 12.3135 21.4794 12.8942C21.7843 13.1923 21.9478 13.6063 21.9286 14.0324Z"/>
<path d="M13.4524 1.49758L13.4524 22.4638C13.4524 23.2909 12.7818 23.9614 11.9548 23.9614C11.1277 23.9614 10.4572 23.2909 10.4572 22.4638L10.4572 1.49758C10.4572 0.670489 11.1277 -2.17757e-05 11.9548 -2.17757e-05C12.7818 -2.17757e-05 13.4524 0.670489 13.4524 1.49758Z"/>
</g>
<defs>
<clipPath id="clip0_1_422">
<rect width="24" height="24" fill="white" transform="translate(0 24) rotate(-90)"/>
</clipPath>
</defs>
</svg>
