<svg width="24" height="24" viewBox="0 0 24 24" fill="none" xmlns="http://www.w3.org/2000/svg">
<path d="M16.9653 18.5625C16.7061 18.5625 16.4957 18.7725 16.4957 19.0312C16.4957 19.29 16.7061 19.5 16.9653 19.5C17.2245 19.5 17.4349 19.29 17.4349 19.0312C17.4349 18.7725 17.2245 18.5625 16.9653 18.5625Z"/>
<path d="M18.1214 17.0467L15.8895 16.3042L15.0883 14.7045C15.8101 13.9711 16.3113 13.0007 16.4803 11.9885L16.5802 11.3906H17.4348C18.2115 11.3906 18.8435 10.7598 18.8435 9.98438V7.03125C18.8435 3.15422 15.6838 0 11.8 0C7.90627 0 4.75652 3.14517 4.75652 7.03125V9.98438C4.75652 10.5954 5.14913 11.1165 5.69565 11.31V11.8594C5.69565 12.6348 6.32759 13.2656 7.10435 13.2656H7.51672C7.72028 13.707 7.98375 14.1159 8.30437 14.4832C8.37086 14.5595 8.44021 14.6334 8.51126 14.7054L7.71046 16.3042L5.47857 17.0468C2.88352 17.9106 1 20.6377 1 23.5312C1 23.7901 1.21022 24 1.46957 24H22.1304C22.3897 24 22.6 23.7901 22.6 23.5312C22.6 20.6377 20.7165 17.9106 18.1214 17.0467ZM17.9043 9.98438C17.9043 10.2428 17.6937 10.4531 17.4348 10.4531H16.7181C16.8375 9.53016 16.917 8.54798 16.949 7.58063C16.95 7.55334 16.9507 7.52681 16.9516 7.5H17.9043V9.98438ZM6.16522 10.4531C5.9063 10.4531 5.69565 10.2428 5.69565 9.98438V7.5H6.64878C6.65033 7.54889 6.65197 7.59802 6.6538 7.64747C6.65385 7.64916 6.65394 7.6508 6.65399 7.65248C6.65399 7.65263 6.65399 7.65277 6.65399 7.65291C6.68686 8.59378 6.76537 9.55045 6.88201 10.4531H6.16522V10.4531ZM7.10435 12.3281C6.84543 12.3281 6.63478 12.1178 6.63478 11.8594V11.3906H7.01973L7.11966 11.9887C7.13872 12.1024 7.16215 12.2156 7.18925 12.3281H7.10435ZM6.63558 6.5625H5.7135C5.95133 3.42089 8.5777 0.9375 11.8 0.9375C15.008 0.9375 17.6459 3.42056 17.8865 6.5625H16.9645C16.9307 3.97373 14.8189 1.875 12.2203 1.875H11.3798C8.78126 1.875 6.66934 3.97373 6.63558 6.5625ZM11.3797 2.8125H12.2203C14.3243 2.8125 16.0273 4.53052 16.0261 6.62859C16.0261 6.77611 16.0249 6.90455 16.0224 7.02141C16.0224 7.02291 16.0224 7.02445 16.0224 7.026L15.435 6.94223C13.8395 6.7148 12.3329 5.96283 11.1929 4.8248C11.1048 4.73691 10.9854 4.6875 10.8609 4.6875C9.59981 4.6875 8.39265 5.26106 7.59467 6.23006C7.79132 4.32136 9.40771 2.8125 11.3797 2.8125ZM8.16275 12.3281C7.92768 11.5475 7.65872 9.25064 7.59927 7.77877L8.23126 6.93755C8.81169 6.16523 9.71471 5.68537 10.6753 5.6303C11.9392 6.83105 13.5743 7.62398 15.3023 7.87027L15.9935 7.96889C15.9473 8.94788 15.8529 9.93028 15.7176 10.8338C15.7176 10.8341 15.7175 10.8344 15.7175 10.8347C15.6745 11.1252 15.6406 11.3122 15.554 11.8343C15.3053 13.3233 14.1923 14.6698 12.7231 15.0365C12.1185 15.1872 11.4814 15.1871 10.8771 15.0365C9.95973 14.8075 9.11855 14.1739 8.57568 13.2656H9.53294C9.72678 13.8112 10.2487 14.2031 10.8609 14.2031H11.8C12.5783 14.2031 13.2087 13.5739 13.2087 12.7969C13.2087 12.0215 12.5768 11.3906 11.8 11.3906H10.8609C10.2351 11.3906 9.72086 11.7941 9.53214 12.3281H8.16275ZM10.8214 15.9851C11.1435 16.0529 11.4718 16.0875 11.8 16.0875C12.0569 16.0875 12.3138 16.066 12.5679 16.0244L11.7382 16.9004L10.8214 15.9851ZM11.0926 17.5818L9.60323 19.1541C9.19321 18.3706 8.84089 17.5553 8.55192 16.7205L9.11122 15.6038L11.0926 17.5818ZM14.4092 15.445L15.048 16.7205C14.7585 17.5566 14.4061 18.3723 13.9965 19.1548L12.4025 17.5635L14.4092 15.445ZM10.3913 12.7969C10.3913 12.5381 10.6016 12.3281 10.8609 12.3281H11.8C12.0589 12.3281 12.2696 12.5384 12.2696 12.7969C12.2696 13.0557 12.0592 13.2656 11.8 13.2656H10.8609C10.602 13.2656 10.3913 13.0553 10.3913 12.7969ZM1.95791 23.0625C2.144 20.7404 3.69211 18.6297 5.77557 17.9361L7.75216 17.2785C8.11429 18.2782 8.56291 19.2497 9.08868 20.1726C9.08958 20.1742 9.09042 20.1758 9.09131 20.1773L9.09136 20.1774C9.47551 20.8519 9.90789 21.511 10.3767 22.1368L10.9543 23.0625H1.95791ZM11.8 22.6447L11.1632 21.624C11.156 21.6126 11.1484 21.6015 11.1404 21.5907C10.7601 21.0844 10.4054 20.5548 10.0823 20.0128L11.7569 18.245L13.5215 20.0064C13.1963 20.5524 12.8403 21.0841 12.4597 21.5906C12.4367 21.6212 12.4694 21.573 11.8 22.6447ZM12.6457 23.0625L13.2233 22.1368C13.6941 21.5087 14.1296 20.8443 14.5176 20.1619C14.52 20.1577 14.5222 20.1535 14.5245 20.1494C14.5248 20.1489 14.5251 20.1484 14.5254 20.1479C15.0445 19.2338 15.4884 18.2707 15.8478 17.2785L17.8244 17.9361C19.9079 18.6297 21.456 20.7404 21.6421 23.0625H12.6457Z"/>
<path d="M20.2307 21.1655C19.9169 20.5385 19.4572 19.9814 18.9014 19.5546C18.6958 19.3966 18.401 19.435 18.2429 19.6403C18.0848 19.8455 18.1232 20.1398 18.3288 20.2976C18.7727 20.6385 19.1398 21.0835 19.3905 21.5845C19.5066 21.8165 19.7888 21.9098 20.0204 21.7943C20.2524 21.6787 20.3465 21.3971 20.2307 21.1655Z"/>
</svg>
