<svg width="24" height="24" viewBox="0 0 24 24" fill="none" xmlns="http://www.w3.org/2000/svg">
<path d="M14.0324 2.07141C14.4274 2.07703 14.8042 2.2385 15.0807 2.52069L23.557 10.9821C24.1442 11.5645 24.1481 12.5127 23.5657 13.1C23.5628 13.1029 23.5599 13.1058 23.557 13.1087L15.0807 21.57C14.4525 22.108 13.5071 22.0348 12.9691 21.4066C12.4889 20.8459 12.4889 20.019 12.9691 19.4584L20.3821 12.0453L12.8942 4.63228C12.3135 4.04818 12.3135 3.1048 12.8942 2.52069C13.1923 2.21571 13.6063 2.05228 14.0324 2.07141Z" fill="#fff" />
<path d="M1.49764 10.5477L22.4638 10.5477C23.2909 10.5477 23.9614 11.2182 23.9614 12.0453C23.9614 12.8724 23.2909 13.5429 22.4638 13.5429L1.49764 13.5429C0.67055 13.5429 3.92595e-05 12.8724 3.92595e-05 12.0453C3.92595e-05 11.2182 0.67055 10.5477 1.49764 10.5477Z" fill="#fff"/>
</svg>
