<svg width="80" height="80" viewBox="0 0 80 80" fill="none" xmlns="http://www.w3.org/2000/svg">
<g clip-path="url(#clip0_40_2)">
<path d="M21.7812 50.4948L28.2028 48.9823C28.5133 48.9092 28.8308 49.0729 28.9512 49.3682L31.4422 55.4771C31.6511 55.9893 32.3644 56.0211 32.6178 55.5295L47.3189 27.0237L35.758 21.0615L21.057 49.5671C20.8034 50.0589 21.2428 50.6215 21.7812 50.4948Z" fill="#EAB14D"/>
<path d="M41.6975 24.1245L28.7947 49.1435C28.8603 49.2054 28.9153 49.2801 28.9514 49.3682L31.4423 55.4771C31.6512 55.9893 32.3645 56.021 32.618 55.5295L47.3191 27.0237L41.6975 24.1245Z" fill="#E7A52E"/>
<path d="M58.2187 50.4948L51.7972 48.9823C51.4867 48.9092 51.1692 49.0729 51.0487 49.3682L48.5578 55.4771C48.3489 55.9893 47.6356 56.0211 47.3822 55.5295L32.6811 27.0237L44.242 21.0615L58.9431 49.5673C59.1966 50.0589 58.7572 50.6215 58.2187 50.4948Z" fill="#EAB14D"/>
<path d="M58.9431 49.5671L44.242 21.0613L38.6989 23.9201L51.6167 48.9681C51.6763 48.9651 51.7367 48.9679 51.7972 48.9821L58.2188 50.4946C58.7572 50.6215 59.1966 50.0588 58.9431 49.5671Z" fill="#E7A52E"/>
<path d="M43.0756 2.64434C44.1536 3.9834 45.9739 4.47121 47.577 3.85043C49.9273 2.94027 52.5172 4.43559 52.9042 6.92605C53.1681 8.62465 54.5008 9.9573 56.1995 10.2214C58.6901 10.6084 60.1853 13.1982 59.2751 15.5486C58.6543 17.1515 59.1422 18.972 60.4812 20.05C62.4447 21.6304 62.4447 24.6209 60.4812 26.2012C59.1422 27.2792 58.6543 29.0995 59.2751 30.7026C60.1853 33.0529 58.69 35.6428 56.1995 36.0298C54.5009 36.2937 53.1683 37.6264 52.9042 39.3251C52.5172 41.8157 49.9273 43.3109 47.577 42.4007C45.974 41.78 44.1536 42.2678 43.0756 43.6068C41.4951 45.5703 38.5047 45.5703 36.9243 43.6068C35.8464 42.2678 34.0261 41.78 32.4229 42.4007C30.0726 43.3109 27.4828 41.8156 27.0958 39.3251C26.8318 37.6265 25.4992 36.2939 23.8004 36.0298C21.3098 35.6428 19.8147 33.0529 20.7248 30.7026C21.3456 29.0996 20.8578 27.2792 19.5187 26.2012C17.5553 24.6207 17.5553 21.6303 19.5187 20.05C20.8578 18.972 21.3456 17.1517 20.7248 15.5486C19.8147 13.1982 21.31 10.6084 23.8004 10.2214C25.499 9.95746 26.8317 8.6248 27.0958 6.92605C27.4828 4.43543 30.0726 2.94027 32.4229 3.85043C34.0259 4.47121 35.8464 3.9834 36.9243 2.64434C38.5047 0.681055 41.4953 0.681055 43.0756 2.64434Z" fill="#FC8086"/>
<path d="M40 37.9323C48.1774 37.9323 54.8065 31.3032 54.8065 23.1257C54.8065 14.9483 48.1774 8.31915 40 8.31915C31.8225 8.31915 25.1934 14.9483 25.1934 23.1257C25.1934 31.3032 31.8225 37.9323 40 37.9323Z" fill="#FBE77B"/>
<path d="M40 8.31903C38.3196 8.31903 36.7051 8.59934 35.1996 9.11512C41.0209 11.1092 45.2059 16.6284 45.2059 23.1256C45.2059 29.6228 41.0209 35.1422 35.1996 37.1361C36.7051 37.6518 38.3198 37.9322 40 37.9322C48.1775 37.9322 54.8065 31.3029 54.8065 23.1256C54.8065 14.9482 48.1775 8.31903 40 8.31903Z" fill="#FFD064"/>
<path d="M40.2879 27.8407L44.9987 30.9545C45.4015 31.2207 45.9189 30.8448 45.7901 30.3795L44.2845 24.937C44.2287 24.7353 44.2987 24.5196 44.4625 24.3892L48.8797 20.8712C49.2573 20.5704 49.0597 19.9623 48.5773 19.9409L42.9359 19.6911C42.7267 19.6818 42.5434 19.5486 42.47 19.3525L40.489 14.0645C40.3197 13.6125 39.6801 13.6125 39.5109 14.0645L37.53 19.3526C37.4565 19.5487 37.2731 19.682 37.064 19.6912L31.4226 19.941C30.9403 19.9625 30.7428 20.5706 31.1203 20.8714L35.5375 24.3893C35.7012 24.5198 35.7712 24.7354 35.7154 24.9371L34.2098 30.3796C34.0811 30.845 34.5984 31.2209 35.0012 30.9546L39.712 27.8409C39.8867 27.7253 40.1133 27.7253 40.2879 27.8407Z" fill="#E7A52E"/>
<path d="M10.7015 72.2381L26.3915 78.0781C27.724 78.5741 29.1345 78.8281 30.5564 78.8281H46.7262C48.989 78.8281 51.2053 78.185 53.1167 76.9739L73.3629 65.5514C74.6987 64.3653 74.9462 62.372 73.9414 60.8952C72.8419 59.2792 71.0229 58.9984 69.0214 59.9448L49.3097 68.6241L49.3329 66.748C49.0719 64.123 47.0508 62.0162 44.4389 61.6467L32.4351 60.2647C29.6661 59.8728 28.2823 58.945 25.8684 57.5328C22.5728 55.6048 18.8234 54.5887 15.0051 54.5887H10.7015V72.2381Z" fill="#FFECE3"/>
<path d="M69.0215 59.9447L50.1826 68.2397C49.9112 68.4838 49.6222 68.6239 49.3098 68.6239L30.5564 69.2202C29.1345 69.2202 27.724 68.9663 26.3915 68.4702L10.7015 62.6302V72.238L26.3915 78.0781C27.724 78.5741 29.1345 78.8281 30.5564 78.8281H46.7262C48.989 78.8281 51.2053 78.185 53.1167 76.9739L73.3629 65.5514C74.6987 64.3653 74.9462 62.372 73.9414 60.8952C72.8419 59.2792 71.0229 58.9984 69.0215 59.9447Z" fill="#FFDDCE"/>
<path d="M13.0856 74.6195C13.0856 75.7608 12.1605 76.6859 11.0192 76.6859H7.50922C6.36797 76.6859 5.44281 75.7608 5.44281 74.6195V52.2037C5.44281 51.0625 6.36797 50.1373 7.50922 50.1373H11.0192C12.1605 50.1373 13.0856 51.0625 13.0856 52.2037V74.6195Z" fill="#7C8B96"/>
<path d="M74.9137 60.2357C73.5072 58.1687 71.125 57.6618 68.5387 58.8782L50.5076 66.8176L50.5083 66.7625C50.5087 66.7189 50.5069 66.6751 50.5026 66.6318C50.1872 63.46 47.7626 60.9328 44.6065 60.4864C44.5965 60.4848 44.5865 60.4836 44.5764 60.4825L32.5879 59.1021C30.0558 58.7412 28.8094 57.8943 26.4634 56.5212C22.9917 54.4903 19.0306 53.4168 15.0084 53.4168H14.2609V52.2037C14.2609 50.4181 12.8083 48.9653 11.0225 48.9653H7.51263C5.72701 48.9653 4.27435 50.4181 4.27435 52.2037V74.6195C4.27435 76.4051 5.72701 77.8579 7.51263 77.8579H11.0226C12.7445 77.8579 14.1528 76.5061 14.2514 74.8086L25.9862 79.1765C27.4547 79.7229 28.9936 80 30.5598 80H46.7297C49.2084 80 51.6254 79.3015 53.7217 77.98L73.9423 66.572C75.3581 65.7725 76.5979 62.7111 74.9137 60.2357ZM72.6708 64.5984L52.5444 75.9532C52.5269 75.9631 52.5098 75.9734 52.4928 75.984C50.7667 77.0779 48.7737 77.6562 46.7297 77.6562H30.5598C29.2736 77.6562 28.0097 77.4287 26.8037 76.9798L14.2609 72.3112V63.809C14.2609 63.1617 13.7362 62.6371 13.089 62.6371C12.4419 62.6371 11.9172 63.1617 11.9172 63.809V74.6196C11.9172 75.1129 11.5159 75.5143 11.0225 75.5143H7.51263C7.01935 75.5143 6.6181 75.1131 6.6181 74.6196V52.2039C6.6181 51.7106 7.01935 51.3092 7.51263 51.3092H11.0226C11.5159 51.3092 11.9173 51.7104 11.9173 52.2039V58.3289C11.9173 58.9762 12.442 59.5007 13.0892 59.5007C13.7364 59.5007 14.2611 58.9762 14.2611 58.3289V55.7606H15.0087C18.6154 55.7606 22.1672 56.7231 25.2803 58.5442C27.7675 59.9979 29.2784 61.0007 32.2745 61.4248C32.2845 61.4264 32.2945 61.4276 32.3047 61.4287L44.2926 62.809C46.3487 63.1062 47.9314 64.7421 48.164 66.8023L48.1559 67.452C41.1911 67.3714 38.5415 67.6842 34.0848 67.0336L32.0097 66.7306C31.3697 66.6376 30.7742 67.0803 30.6808 67.7207C30.5873 68.3612 31.0306 68.9562 31.6711 69.0496L33.7462 69.3526C38.4809 70.0442 41.2117 69.7067 49.3134 69.7957C49.4756 69.7957 49.6464 69.7579 49.7856 69.6964L69.4973 61.0171C69.507 61.0129 69.5165 61.0084 69.5261 61.004C70.5876 60.5021 72.0479 60.1901 72.9762 61.5542C73.6262 62.51 73.4904 63.7984 72.6708 64.5984Z" fill="black"/>
<path d="M18.7873 27.1142C19.7329 27.8753 20.0737 29.1475 19.6354 30.2797C18.4537 33.3308 20.3975 36.6865 23.6239 37.1879C24.4135 37.3106 25.0851 37.7573 25.5064 38.3895L20.0189 49.0301C19.6895 49.669 19.7596 50.4178 20.202 50.9843C20.6443 51.5506 21.3535 51.7998 22.0534 51.6354L28.0389 50.2258L30.3606 55.9197C30.632 56.5853 31.2467 57.0186 31.9648 57.0504C31.9931 57.0517 32.0212 57.0523 32.0492 57.0523C32.7335 57.0523 33.3465 56.6803 33.6631 56.0665L38.799 46.1078C39.5946 46.299 40.4117 46.2993 41.2084 46.1078L46.3443 56.0665C46.6607 56.6803 47.2739 57.0523 47.9582 57.0523C47.9862 57.0523 48.0143 57.0517 48.0426 57.0504C48.7606 57.0186 49.3753 56.5851 49.6468 55.9197L51.9685 50.2258L57.954 51.6354C58.6539 51.8003 59.3631 51.5509 59.8054 50.9843C60.2478 50.4178 60.3179 49.669 59.9885 49.0301L54.501 38.3895C54.9223 37.7573 55.5939 37.3106 56.3834 37.1879C59.6165 36.6854 61.551 33.3245 60.372 30.2797C59.9335 29.1475 60.2743 27.8753 61.2201 27.1142C63.767 25.064 63.7659 21.1864 61.2201 19.137C60.2745 18.3759 59.9337 17.1037 60.372 15.9717C61.5534 12.9204 59.6098 9.56482 56.3836 9.06341C55.1839 8.877 54.2526 7.94575 54.0662 6.74622C53.5639 3.5131 50.2028 1.57841 47.1579 2.75763C46.0254 3.19607 44.7537 2.85513 43.9925 1.9095C41.9406 -0.639558 38.0628 -0.633933 36.0154 1.9095C35.2542 2.85513 33.9823 3.19575 32.8501 2.75763C29.799 1.57607 26.4431 3.51982 25.9418 6.74622C25.7554 7.94575 24.8242 8.877 23.6246 9.06341C20.3915 9.56591 18.4571 12.9267 19.636 15.9717C20.0745 17.1037 19.7337 18.3759 18.7879 19.137C16.2387 21.1889 16.2435 25.0667 18.7873 27.1142ZM32.1012 53.9812L30.0398 48.9254C29.6993 48.0908 28.8156 47.6347 27.9376 47.8415L22.6234 49.0933L26.6117 41.3597C27.8689 43.4517 30.4854 44.4094 32.8495 43.4936C33.9814 43.0547 35.2535 43.3959 36.015 44.3418C36.2248 44.6025 36.4578 44.8376 36.7079 45.0489L32.1012 53.9812ZM52.069 47.8415C51.1917 47.6358 50.3076 48.0909 49.967 48.9256L47.9056 53.9812L43.2989 45.0489C43.549 44.8378 43.782 44.6026 43.9918 44.3418C44.7532 43.3962 46.0254 43.0558 47.1571 43.4936C49.5217 44.4092 52.1381 43.4514 53.395 41.3597L57.3832 49.0933L52.069 47.8415ZM20.2568 20.9629C22.0009 19.5592 22.6295 17.2133 21.821 15.1256C21.1803 13.4711 22.2342 11.6514 23.9839 11.3795C26.196 11.0358 27.9134 9.31841 28.2571 7.10607C28.5295 5.35357 30.3518 4.30341 32.0032 4.94325C34.0912 5.75169 36.4368 5.12325 37.8406 3.37919C38.9532 1.99685 41.0559 1.99982 42.1662 3.37919C43.5698 5.12294 45.9157 5.75154 48.0037 4.94325C49.6576 4.30247 51.4778 5.35638 51.7496 7.10607C52.0934 9.31825 53.8107 11.0356 56.0231 11.3795C57.7762 11.6518 58.8253 13.4743 58.1857 15.1256C57.3773 17.2133 58.0059 19.5592 59.7498 20.9629C61.1318 22.0753 61.1292 24.1783 59.7498 25.2884C58.0057 26.6922 57.3771 29.0381 58.1857 31.1259C58.8264 32.7804 57.7725 34.6001 56.0229 34.872C53.8107 35.2158 52.0934 36.9331 51.7496 39.1454C51.4776 40.8956 49.6581 41.9484 48.0035 41.3081C45.916 40.5003 43.57 41.1284 42.1662 42.8723C41.0539 44.2543 38.9509 44.2517 37.8406 42.8723C36.4392 41.1312 34.0942 40.4986 32.0031 41.3081C30.3493 41.949 28.529 40.8953 28.2571 39.1454C27.9134 36.9333 26.196 35.2159 23.9837 34.872C22.2306 34.5997 21.1815 32.7772 21.821 31.1259C22.6295 29.0381 22.0009 26.6922 20.2568 25.2884C18.8748 24.1759 18.8778 22.0729 20.2568 20.9629Z" fill="black"/>
<path d="M25.2342 24.7129C24.5981 24.832 24.1787 25.4442 24.2978 26.0803C25.7094 33.6268 32.3145 39.1043 40.0034 39.1043C48.814 39.1043 55.982 31.9364 55.982 23.1257C55.982 14.3151 48.814 7.14716 40.0034 7.14716C32.3156 7.14716 25.7106 12.6236 24.2981 20.1687C24.179 20.8048 24.5981 21.417 25.2344 21.5362C25.8711 21.655 26.4828 21.2361 26.6019 20.6C27.8069 14.1631 33.4429 9.49091 40.0034 9.49091C47.5217 9.49091 53.6383 15.6075 53.6383 23.1257C53.6383 30.644 47.5217 36.7606 40.0034 36.7606C33.442 36.7606 27.8058 32.0878 26.6015 25.6495C26.4826 25.0132 25.8706 24.5953 25.2342 24.7129Z" fill="black"/>
<path d="M48.6324 18.7703L43.4201 18.5393L41.5898 13.6532C41.0407 12.1881 38.9657 12.1884 38.4168 13.6534L36.5867 18.5395L31.3742 18.7704C29.8129 18.8393 29.1681 20.8118 30.3937 21.7881L34.4749 25.0387L33.0839 30.0675C32.6667 31.5757 34.3454 32.795 35.6509 31.9326L40.0034 29.0556L44.3562 31.9328C45.6568 32.792 47.3417 31.5807 46.9231 30.0675L45.532 25.0387L49.6132 21.7881C50.8374 20.8126 50.1951 18.8392 48.6324 18.7703ZM43.7359 23.4728C43.2037 23.8967 42.9771 24.5942 43.1585 25.2496L44.2018 29.0207L40.9376 26.8631C40.9376 26.8631 40.9374 26.8629 40.9373 26.8629C40.6537 26.6756 40.3285 26.5818 40.0034 26.5818C39.6782 26.5818 39.3529 26.6756 39.069 26.8631L35.8048 29.0207L36.8481 25.2498C37.0296 24.5942 36.8029 23.8967 36.2707 23.4728L33.2101 21.035L37.1195 20.8618C37.7989 20.8317 38.3921 20.4006 38.6307 19.7637L40.0032 16.0996L41.3759 19.7639C41.6145 20.4006 42.2078 20.8317 42.8875 20.8618L46.7964 21.035L43.7359 23.4728Z" fill="black"/>
</g>
<defs>
<clipPath id="clip0_40_2">
<rect width="80" height="80" fill="white"/>
</clipPath>
</defs>
</svg>
