<svg width="24" height="24" viewBox="0 0 24 24" fill="none" xmlns="http://www.w3.org/2000/svg">
<path d="M19.3793 9.98529L5.88976 2.30787C4.45885 1.49097 3 2.38437 3 3.9909V20.0183C3 21.3793 3.88609 22 4.70964 22C5.09747 22 5.49262 21.8776 5.8851 21.6388L19.4352 13.3447C20.1164 12.9263 20.4989 12.3069 20.4869 11.645C20.4756 10.9825 20.0725 10.3771 19.3793 9.98529ZM18.5271 11.8632L4.97773 20.1553C4.88659 20.2112 4.81475 20.2391 4.76552 20.2531C4.75222 20.2039 4.73891 20.128 4.73891 20.0183V3.99157C4.73891 3.82659 4.76885 3.74344 4.76885 3.72282C4.82206 3.72614 4.9152 3.75342 5.03228 3.81994L18.5198 11.4974C18.6861 11.5925 18.7353 11.675 18.7513 11.657C18.7427 11.6796 18.6861 11.7641 18.5271 11.8632Z" />
</svg>
