<svg width="66" height="66" viewBox="0 0 66 66" fill="none" xmlns="http://www.w3.org/2000/svg">
<rect width="65" height="65" transform="translate(0.23407 0.282104)" fill="#A5D1A1"/>
<path d="M60.2341 0.282104H5.23407C2.47265 0.282104 0.23407 2.52068 0.23407 5.2821V60.2821C0.23407 63.0435 2.47265 65.2821 5.23407 65.2821H60.2341C62.9955 65.2821 65.2341 63.0435 65.2341 60.2821V5.2821C65.2341 2.52068 62.9955 0.282104 60.2341 0.282104Z" fill="#A5D1A1"/>
<path d="M23.5901 44.892C20.5331 44.892 17.2841 45.903 17.2841 47.778C17.2841 49.653 20.5331 50.664 23.5901 50.664C26.6471 50.664 29.8961 49.653 29.8961 47.778C29.8961 45.903 26.6471 44.892 23.5901 44.892Z" fill="#FFDB56"/>
<path d="M23.5901 25.2162C21.2252 25.2188 18.9579 26.1595 17.2856 27.8317C15.6134 29.504 14.6728 31.7713 14.6701 34.1363C14.6701 37.1903 16.1231 40.4733 18.9881 43.8953C20.273 45.4333 21.7051 46.842 23.2641 48.1013C23.3576 48.1736 23.4724 48.2128 23.5906 48.2128C23.7087 48.2128 23.8236 48.1736 23.9171 48.1013C25.476 46.842 26.9082 45.4333 28.1931 43.8953C31.0581 40.4733 32.511 37.1903 32.511 34.1363C32.5084 31.7711 31.5676 29.5037 29.8952 27.8314C28.2227 26.1591 25.9552 25.2186 23.5901 25.2162ZM26.9351 34.1363C26.9351 34.7978 26.7389 35.4445 26.3713 35.9946C26.0038 36.5447 25.4814 36.9735 24.8701 37.2266C24.2589 37.4798 23.5864 37.5461 22.9375 37.417C22.2886 37.2879 21.6926 36.9693 21.2248 36.5015C20.757 36.0337 20.4384 35.4377 20.3094 34.7888C20.1803 34.14 20.2465 33.4674 20.4997 32.8562C20.7529 32.2449 21.1816 31.7225 21.7317 31.355C22.2818 30.9874 22.9285 30.7912 23.5901 30.7912C24.0298 30.7908 24.4652 30.8771 24.8715 31.0452C25.2778 31.2132 25.647 31.4597 25.958 31.7706C26.2689 32.0815 26.5156 32.4506 26.6837 32.8569C26.8519 33.2631 26.9383 33.6986 26.9381 34.1383L26.9351 34.1363Z" fill="#4CA443"/>
<path d="M47.377 29.9722C45.216 29.2135 42.8611 29.2135 40.7 29.9722C39.648 30.4012 39.0681 31.0302 39.0681 31.7442C39.0681 32.4582 39.647 33.0882 40.7 33.5162C42.8611 34.2749 45.216 34.2749 47.377 33.5162C48.429 33.0872 49.009 32.4582 49.009 31.7442C49.009 31.0302 48.429 30.4012 47.377 29.9722Z" fill="#FFDB56"/>
<path d="M23.5901 49.3314C20.9181 49.3314 18.0991 48.5583 17.4321 47.1112C17.3347 47.3197 17.2842 47.5471 17.2841 47.7772C17.2841 49.6514 20.5331 50.6635 23.5901 50.6635C26.6471 50.6635 29.8961 49.6514 29.8961 47.7772C29.896 47.5471 29.8455 47.3198 29.7481 47.1112C29.0811 48.5583 26.2601 49.3314 23.5901 49.3314Z" fill="#FFBB24"/>
<path d="M47.3771 32.1839C45.2161 32.9426 42.8611 32.9426 40.7 32.1839C40.1078 31.9855 39.598 31.5966 39.25 31.078C39.1322 31.2803 39.0695 31.5099 39.0681 31.744C39.0681 32.4579 39.647 33.0879 40.7 33.5158C42.8611 34.2745 45.2161 34.2745 47.3771 33.5158C48.4291 33.0869 49.0081 32.4579 49.0081 31.744C49.0066 31.5099 48.9439 31.2803 48.8261 31.078C48.4784 31.5965 47.9689 31.9853 47.3771 32.1839Z" fill="#FFBB24"/>
<path d="M44.039 14.2821C42.1887 14.2842 40.4148 15.0202 39.1064 16.3285C37.7981 17.6369 37.0621 19.4108 37.06 21.2611C37.06 23.6381 38.186 26.1881 40.407 28.8411C41.4001 30.0298 42.5071 31.1187 43.712 32.0921C43.8055 32.1644 43.9203 32.2035 44.0385 32.2035C44.1567 32.2035 44.2715 32.1644 44.365 32.0921C45.57 31.1187 46.6769 30.0298 47.67 28.8411C49.891 26.1881 51.017 23.6411 51.017 21.2611C51.0149 19.411 50.2791 17.6372 48.9709 16.3289C47.6628 15.0206 45.8891 14.2845 44.039 14.2821V14.2821ZM46.61 21.2611C46.61 21.7696 46.4592 22.2667 46.1767 22.6895C45.8942 23.1123 45.4927 23.4418 45.0229 23.6364C44.5531 23.831 44.0362 23.8819 43.5374 23.7827C43.0387 23.6835 42.5806 23.4386 42.221 23.0791C41.8615 22.7195 41.6166 22.2614 41.5174 21.7627C41.4182 21.264 41.4691 20.747 41.6637 20.2772C41.8583 19.8074 42.1878 19.4059 42.6106 19.1234C43.0334 18.8409 43.5305 18.6901 44.039 18.6901C44.7209 18.6901 45.3748 18.961 45.857 19.4431C46.3392 19.9253 46.61 20.5792 46.61 21.2611Z" fill="#4CA443"/>
<path d="M23.5901 25.2162C23.256 25.2166 22.9221 25.2356 22.5901 25.2732C24.7667 25.5229 26.7756 26.5637 28.235 28.1978C29.6943 29.8319 30.5022 31.9454 30.5051 34.1363C30.5051 37.1903 29.0521 40.4733 26.1871 43.8953C25.086 45.2045 23.8822 46.4237 22.5871 47.5413C22.9871 47.8833 23.2361 48.0793 23.2651 48.1013C23.3586 48.1736 23.4734 48.2128 23.5916 48.2128C23.7098 48.2128 23.8246 48.1736 23.9181 48.1013C25.4771 46.842 26.9092 45.4333 28.1941 43.8953C31.0591 40.4733 32.5121 37.1903 32.5121 34.1363C32.5094 31.771 31.5685 29.5034 29.8958 27.831C28.2232 26.1587 25.9554 25.2183 23.5901 25.2162Z" fill="#009445"/>
<path d="M44.0392 14.2821C43.7046 14.2825 43.3704 14.3069 43.0392 14.3551C44.6979 14.5985 46.2139 15.43 47.3107 16.6979C48.4075 17.9658 49.0121 19.5856 49.0143 21.2621C49.0143 23.6391 47.8882 26.1891 45.6672 28.8421C44.8604 29.8017 43.9823 30.6989 43.0403 31.5261C43.4403 31.8741 43.6922 32.0731 43.7182 32.0931C43.8117 32.1654 43.9266 32.2045 44.0447 32.2045C44.1629 32.2045 44.2777 32.1654 44.3712 32.0931C45.5762 31.1197 46.6831 30.0309 47.6762 28.8421C49.8972 26.1891 51.0233 23.6421 51.0233 21.2621C51.0214 19.4108 50.2848 17.6359 48.9754 16.3271C47.6659 15.0184 45.8906 14.2829 44.0392 14.2821V14.2821Z" fill="#009445"/>
<path d="M31.8651 48.3109C31.7276 48.3049 31.5977 48.2461 31.5025 48.1467C31.4073 48.0473 31.3542 47.915 31.3542 47.7774C31.3542 47.6397 31.4073 47.5074 31.5025 47.408C31.5977 47.3086 31.7276 47.2498 31.8651 47.2439H32.5651C32.7026 47.2498 32.8325 47.3086 32.9277 47.408C33.0228 47.5074 33.076 47.6397 33.076 47.7774C33.076 47.915 33.0228 48.0473 32.9277 48.1467C32.8325 48.2461 32.7026 48.3049 32.5651 48.3109H31.8651ZM34.6831 48.2979C34.5416 48.2979 34.4059 48.2417 34.3058 48.1416C34.2058 48.0416 34.1496 47.9059 34.1496 47.7644C34.1496 47.6229 34.2058 47.4872 34.3058 47.3871C34.4059 47.2871 34.5416 47.2309 34.6831 47.2309H35.3831C35.5206 47.2368 35.6505 47.2956 35.7457 47.395C35.8408 47.4944 35.894 47.6267 35.894 47.7644C35.894 47.902 35.8408 48.0343 35.7457 48.1337C35.6505 48.2331 35.5206 48.2919 35.3831 48.2979H34.6831ZM37.5021 48.2849C37.3646 48.2789 37.2347 48.2201 37.1395 48.1207C37.0443 48.0213 36.9912 47.889 36.9912 47.7514C36.9912 47.6137 37.0443 47.4814 37.1395 47.382C37.2347 47.2826 37.3646 47.2238 37.5021 47.2179H38.2021C38.3396 47.2238 38.4695 47.2826 38.5647 47.382C38.6598 47.4814 38.713 47.6137 38.713 47.7514C38.713 47.889 38.6598 48.0213 38.5647 48.1207C38.4695 48.2201 38.3396 48.2789 38.2021 48.2849H37.5021ZM40.3211 48.2719C40.1836 48.2659 40.0537 48.2071 39.9585 48.1077C39.8633 48.0083 39.8102 47.876 39.8102 47.7384C39.8102 47.6007 39.8633 47.4684 39.9585 47.369C40.0537 47.2696 40.1836 47.2108 40.3211 47.2049H41.0211C41.1586 47.2108 41.2885 47.2696 41.3837 47.369C41.4788 47.4684 41.532 47.6007 41.532 47.7384C41.532 47.876 41.4788 48.0083 41.3837 48.1077C41.2885 48.2071 41.1586 48.2659 41.0211 48.2719H40.3211ZM43.1391 48.2589C43.0016 48.2529 42.8717 48.1941 42.7765 48.0947C42.6813 47.9953 42.6282 47.863 42.6282 47.7254C42.6282 47.5877 42.6813 47.4554 42.7765 47.356C42.8717 47.2566 43.0016 47.1978 43.1391 47.1919H43.8391C43.9766 47.1978 44.1065 47.2566 44.2017 47.356C44.2968 47.4554 44.35 47.5877 44.35 47.7254C44.35 47.863 44.2968 47.9953 44.2017 48.0947C44.1065 48.1941 43.9766 48.2529 43.8391 48.2589H43.1391ZM45.9581 48.2459C45.8206 48.2399 45.6907 48.1811 45.5955 48.0817C45.5003 47.9823 45.4472 47.85 45.4472 47.7124C45.4472 47.5747 45.5003 47.4424 45.5955 47.343C45.6907 47.2436 45.8206 47.1848 45.9581 47.1789H46.0581C46.2361 47.178 46.4138 47.1653 46.5901 47.1409C46.7272 47.1279 46.864 47.1683 46.972 47.2537C47.0799 47.3392 47.1507 47.463 47.1696 47.5994C47.1884 47.7358 47.1539 47.8742 47.0731 47.9857C46.9923 48.0973 46.8716 48.1733 46.7361 48.1979C46.5131 48.2287 46.2882 48.2447 46.0631 48.2459H45.9631H45.9581ZM48.6121 47.4459C48.4989 47.4447 48.389 47.4076 48.2983 47.34C48.2075 47.2723 48.1407 47.1776 48.1073 47.0694C48.0739 46.9612 48.0757 46.8453 48.1125 46.7382C48.1494 46.6312 48.2192 46.5386 48.3121 46.4739C48.4826 46.3558 48.6438 46.2248 48.7941 46.0819C48.8979 45.9925 49.032 45.9465 49.1687 45.9532C49.3055 45.96 49.4345 46.019 49.5289 46.1181C49.6234 46.2172 49.6762 46.3488 49.6765 46.4858C49.6767 46.6227 49.6243 46.7545 49.5301 46.8539C49.34 47.0361 49.136 47.2032 48.9201 47.3539C48.8293 47.4144 48.7221 47.4455 48.6131 47.4429L48.6121 47.4459ZM50.2991 45.2459C50.2138 45.2454 50.1299 45.2245 50.0544 45.1849C49.9789 45.1454 49.9139 45.0883 49.865 45.0185C49.816 44.9487 49.7845 44.8682 49.773 44.7837C49.7616 44.6992 49.7705 44.6132 49.7991 44.5329C49.8687 44.3374 49.9229 44.1368 49.9611 43.9329C49.9876 43.7939 50.0682 43.6712 50.1853 43.5916C50.3023 43.5121 50.4461 43.4824 50.5851 43.5089C50.7241 43.5354 50.8468 43.616 50.9263 43.7331C51.0058 43.8501 51.0356 43.9939 51.0091 44.1329C50.9603 44.3912 50.8914 44.6453 50.8031 44.8929C50.7655 44.9962 50.6969 45.0854 50.6067 45.1483C50.5165 45.2111 50.409 45.2445 50.2991 45.2439V45.2459ZM50.3851 42.4749C50.2695 42.4746 50.157 42.4369 50.0647 42.3673C49.9724 42.2977 49.9051 42.2 49.8731 42.0889C49.8157 41.8898 49.7428 41.6955 49.6551 41.5079C49.6024 41.3807 49.6008 41.2382 49.6506 41.1099C49.7005 40.9816 49.7979 40.8775 49.9226 40.8194C50.0474 40.7612 50.1897 40.7534 50.3201 40.7977C50.4504 40.8419 50.5586 40.9348 50.6221 41.0569C50.7332 41.2953 50.8255 41.542 50.8981 41.7949C50.9208 41.8743 50.9248 41.958 50.9098 42.0392C50.8947 42.1205 50.861 42.1972 50.8112 42.2632C50.7615 42.3292 50.6971 42.3828 50.6232 42.4197C50.5492 42.4566 50.4677 42.4758 50.3851 42.4759V42.4749ZM48.8381 40.1749C48.7183 40.1749 48.602 40.1343 48.5081 40.0599C48.3453 39.9314 48.1728 39.8157 47.9921 39.7139C47.8688 39.6444 47.7781 39.5288 47.74 39.3924C47.702 39.2561 47.7196 39.1102 47.7891 38.9869C47.8586 38.8635 47.9742 38.7729 48.1105 38.7348C48.2469 38.6967 48.3928 38.7144 48.5161 38.7839C48.7447 38.9128 48.963 39.0593 49.1691 39.2219C49.2557 39.2908 49.3188 39.3848 49.3496 39.4911C49.3805 39.5974 49.3775 39.7107 49.3412 39.8152C49.3048 39.9198 49.2369 40.0105 49.1467 40.0747C49.0566 40.139 48.9488 40.1736 48.8381 40.1739V40.1749ZM46.2381 39.2079H46.2131C46.1538 39.2079 46.0937 39.2079 46.0331 39.2079H45.5331C45.4611 39.211 45.3892 39.1995 45.3217 39.1741C45.2543 39.1487 45.1927 39.1099 45.1406 39.0601C45.0886 39.0102 45.0472 38.9503 45.0189 38.8841C44.9906 38.8178 44.976 38.7464 44.976 38.6744C44.976 38.6023 44.9906 38.531 45.0189 38.4647C45.0472 38.3984 45.0886 38.3385 45.1406 38.2887C45.1927 38.2388 45.2543 38.2001 45.3217 38.1746C45.3892 38.1492 45.4611 38.1378 45.5331 38.1409H46.0331C46.1081 38.1409 46.1851 38.1409 46.2601 38.1459C46.398 38.154 46.5274 38.2153 46.6211 38.3169C46.7147 38.4184 46.7654 38.5523 46.7624 38.6905C46.7594 38.8286 46.7031 38.9602 46.6051 39.0576C46.5071 39.155 46.3752 39.2107 46.2371 39.2129L46.2381 39.2079ZM43.4191 39.2079H42.7191C42.6471 39.211 42.5752 39.1995 42.5078 39.1741C42.4403 39.1487 42.3787 39.1099 42.3266 39.0601C42.2746 39.0102 42.2332 38.9503 42.2049 38.8841C42.1766 38.8178 42.162 38.7464 42.162 38.6744C42.162 38.6023 42.1766 38.531 42.2049 38.4647C42.2332 38.3984 42.2746 38.3385 42.3266 38.2887C42.3787 38.2388 42.4403 38.2001 42.5078 38.1746C42.5752 38.1492 42.6471 38.1378 42.7191 38.1409H43.4191C43.4911 38.1378 43.563 38.1492 43.6304 38.1746C43.6979 38.2001 43.7595 38.2388 43.8115 38.2887C43.8636 38.3385 43.905 38.3984 43.9333 38.4647C43.9616 38.531 43.9762 38.6023 43.9762 38.6744C43.9762 38.7464 43.9616 38.8178 43.9333 38.8841C43.905 38.9503 43.8636 39.0102 43.8115 39.0601C43.7595 39.1099 43.6979 39.1487 43.6304 39.1741C43.563 39.1995 43.4911 39.211 43.4191 39.2079ZM40.6001 39.2079H39.9001C39.8281 39.211 39.7562 39.1995 39.6888 39.1741C39.6213 39.1487 39.5597 39.1099 39.5076 39.0601C39.4556 39.0102 39.4142 38.9503 39.3859 38.8841C39.3576 38.8178 39.343 38.7464 39.343 38.6744C39.343 38.6023 39.3576 38.531 39.3859 38.4647C39.4142 38.3984 39.4556 38.3385 39.5076 38.2887C39.5597 38.2388 39.6213 38.2001 39.6888 38.1746C39.7562 38.1492 39.8281 38.1378 39.9001 38.1409H40.6001C40.6721 38.1378 40.744 38.1492 40.8114 38.1746C40.8789 38.2001 40.9405 38.2388 40.9925 38.2887C41.0446 38.3385 41.086 38.3984 41.1143 38.4647C41.1426 38.531 41.1572 38.6023 41.1572 38.6744C41.1572 38.7464 41.1426 38.8178 41.1143 38.8841C41.086 38.9503 41.0446 39.0102 40.9925 39.0601C40.9405 39.1099 40.8789 39.1487 40.8114 39.1741C40.744 39.1995 40.6721 39.211 40.6001 39.2079ZM37.7811 39.2079H37.0811C37.0091 39.211 36.9372 39.1995 36.8698 39.1741C36.8023 39.1487 36.7407 39.1099 36.6886 39.0601C36.6366 39.0102 36.5952 38.9503 36.5669 38.8841C36.5386 38.8178 36.524 38.7464 36.524 38.6744C36.524 38.6023 36.5386 38.531 36.5669 38.4647C36.5952 38.3984 36.6366 38.3385 36.6886 38.2887C36.7407 38.2388 36.8023 38.2001 36.8698 38.1746C36.9372 38.1492 37.0091 38.1378 37.0811 38.1409H37.7811C37.9186 38.1468 38.0485 38.2056 38.1437 38.305C38.2388 38.4044 38.292 38.5367 38.292 38.6744C38.292 38.812 38.2388 38.9443 38.1437 39.0437C38.0485 39.1431 37.9186 39.2019 37.7811 39.2079ZM35.0631 38.6769C34.9626 38.677 34.8641 38.6485 34.7791 38.5949C34.5498 38.4502 34.3357 38.2827 34.1401 38.0949C34.0381 37.9967 33.9793 37.8621 33.9766 37.7206C33.9739 37.5791 34.0274 37.4423 34.1256 37.3404C34.2237 37.2384 34.3583 37.1796 34.4998 37.1769C34.6413 37.1741 34.7781 37.2277 34.8801 37.3259C35.0233 37.4637 35.1801 37.5867 35.3481 37.6929C35.4464 37.7543 35.522 37.8462 35.5635 37.9545C35.6049 38.0628 35.6099 38.1816 35.5776 38.293C35.5454 38.4044 35.4777 38.5022 35.3849 38.5717C35.292 38.6411 35.179 38.6784 35.0631 38.6779V38.6769ZM33.5121 36.4169C33.3885 36.4167 33.2688 36.3736 33.1734 36.295C33.0781 36.2164 33.0129 36.1071 32.9891 35.9859C32.94 35.7335 32.9152 35.477 32.9151 35.2199V35.1779C32.9169 35.0376 32.9738 34.9037 33.0736 34.8051C33.1733 34.7065 33.3078 34.6511 33.4481 34.6509H33.4541C33.5242 34.6517 33.5934 34.6663 33.6578 34.6938C33.7223 34.7214 33.7806 34.7614 33.8296 34.8116C33.8785 34.8617 33.9171 34.9211 33.9431 34.9861C33.9691 35.0512 33.982 35.1208 33.9811 35.1909V35.2209C33.9811 35.4095 33.9991 35.5977 34.0351 35.7829C34.0501 35.8602 34.0479 35.9399 34.0285 36.0162C34.0092 36.0925 33.9731 36.1637 33.923 36.2244C33.873 36.2852 33.8101 36.3342 33.7388 36.3678C33.6676 36.4014 33.5898 36.4189 33.5111 36.4189L33.5121 36.4169ZM34.0951 33.7389C33.997 33.7387 33.9009 33.7115 33.8172 33.6602C33.7336 33.609 33.6657 33.5357 33.6209 33.4484C33.5762 33.3611 33.5564 33.2632 33.5636 33.1654C33.5709 33.0675 33.605 32.9736 33.6621 32.8939C33.8204 32.6735 34.0007 32.4698 34.2001 32.2859C34.2516 32.2384 34.3119 32.2015 34.3776 32.1774C34.4433 32.1532 34.5132 32.1422 34.5831 32.1451C34.6531 32.1479 34.7218 32.1645 34.7854 32.1939C34.849 32.2233 34.9061 32.2649 34.9536 32.3164C35.0011 32.3679 35.0379 32.4282 35.0621 32.4939C35.0862 32.5596 35.0972 32.6295 35.0944 32.6994C35.0916 32.7694 35.075 32.8381 35.0456 32.9017C35.0162 32.9653 34.9746 33.0224 34.9231 33.0699C34.777 33.2049 34.645 33.3543 34.5291 33.5159C34.4794 33.5828 34.4147 33.637 34.3401 33.6744C34.2656 33.7117 34.1834 33.7311 34.1001 33.7309L34.0951 33.7389ZM36.4441 32.3269C36.3102 32.3245 36.182 32.272 36.085 32.1796C35.988 32.0872 35.9293 31.9617 35.9205 31.8281C35.9117 31.6944 35.9535 31.5623 36.0375 31.458C36.1215 31.3537 36.2416 31.2848 36.3741 31.2649C36.5498 31.2416 36.7268 31.2299 36.9041 31.2299H37.1481C37.2201 31.2268 37.292 31.2382 37.3594 31.2637C37.4269 31.2891 37.4885 31.3278 37.5405 31.3777C37.5926 31.4275 37.634 31.4874 37.6623 31.5537C37.6906 31.62 37.7052 31.6913 37.7052 31.7634C37.7052 31.8354 37.6906 31.9068 37.6623 31.973C37.634 32.0393 37.5926 32.0992 37.5405 32.1491C37.4885 32.1989 37.4269 32.2377 37.3594 32.2631C37.292 32.2885 37.2201 32.3 37.1481 32.2969H36.9131C36.783 32.297 36.653 32.3057 36.5241 32.3229C36.4986 32.3228 36.4732 32.3208 36.4481 32.3169L36.4441 32.3269Z" fill="#726DA8"/>
</svg>
