<svg width="24" height="24" viewBox="0 0 24 24" xmlns="http://www.w3.org/2000/svg">
<path d="M20.1213 15.7632C20.0482 15.675 19.9762 15.5867 19.9056 15.5016C18.935 14.3277 18.3479 13.6191 18.3479 10.2958C18.3479 8.57517 17.9362 7.1634 17.1248 6.10458C16.5267 5.32238 15.718 4.72898 14.6521 4.29046C14.6384 4.28282 14.6262 4.27281 14.6159 4.2609C14.2326 2.97708 13.1834 2.11722 12.0002 2.11722C10.817 2.11722 9.76827 2.97708 9.38489 4.25957C9.37465 4.27106 9.36258 4.28075 9.34916 4.28826C6.86181 5.31222 5.65299 7.27678 5.65299 10.2944C5.65299 13.6191 5.06665 14.3277 4.09519 15.5003C4.0246 15.5855 3.95268 15.6719 3.87946 15.7619C3.69028 15.9901 3.57042 16.2676 3.53405 16.5617C3.4977 16.8559 3.54636 17.1544 3.6743 17.4216C3.94652 17.9952 4.52665 18.3513 5.18887 18.3513H18.8164C19.4754 18.3513 20.0517 17.9956 20.3248 17.4247C20.4532 17.1573 20.5024 16.8587 20.4664 16.5642C20.4302 16.2697 20.3105 15.9918 20.1213 15.7632Z" fill="#4CA443" />
<path d="M12 21.8822C12.6375 21.8818 13.263 21.7087 13.8101 21.3815C14.3572 21.0542 14.8056 20.5851 15.1076 20.0236C15.1218 19.9967 15.1289 19.9666 15.1281 19.9361C15.1272 19.9057 15.1185 19.8759 15.1028 19.85C15.087 19.8239 15.0648 19.8024 15.0383 19.7874C15.0119 19.7725 14.9819 19.7646 14.9514 19.7646H9.04939C9.01893 19.7646 8.98894 19.7723 8.96237 19.7871C8.9358 19.8021 8.91355 19.8237 8.89779 19.8498C8.882 19.8758 8.87326 19.9056 8.87239 19.9359C8.87151 19.9664 8.87854 19.9967 8.89279 20.0236C9.19478 20.5849 9.64307 21.0541 10.1901 21.3813C10.7371 21.7086 11.3625 21.8816 12 21.8822Z" fill="#4CA443" />
</svg>
