<svg width="66" height="66" viewBox="0 0 66 66" fill="none" xmlns="http://www.w3.org/2000/svg">
<g clip-path="url(#clip0_7_6705)">
<path d="M60.2119 0.985229H5.21191C2.45049 0.985229 0.211914 3.2238 0.211914 5.98523V60.9852C0.211914 63.7466 2.45049 65.9852 5.21191 65.9852H60.2119C62.9734 65.9852 65.2119 63.7466 65.2119 60.9852V5.98523C65.2119 3.2238 62.9734 0.985229 60.2119 0.985229Z" fill="#A5D1A1"/>
<path d="M50.6921 40.7323H17.1921V34.2671C17.1921 34.0664 17.2718 33.8738 17.4138 33.7319C17.5558 33.5899 17.7483 33.5101 17.9491 33.5101H50.6951C50.8959 33.5101 51.0884 33.5899 51.2304 33.7319C51.3723 33.8738 51.4521 34.0664 51.4521 34.2671V39.9763C51.4521 40.177 51.3723 40.3696 51.2304 40.5116C51.0884 40.6535 50.8959 40.7333 50.6951 40.7333L50.6921 40.7323Z" fill="#3F3F3F"/>
<path d="M50.6926 40.7323H48.8557V33.5101H50.6886C50.8894 33.5101 51.0819 33.5899 51.2239 33.7319C51.3659 33.8738 51.4457 34.0664 51.4457 34.2672V39.9763C51.4454 40.1762 51.3661 40.3679 51.225 40.5095C51.0839 40.6512 50.8925 40.7312 50.6926 40.7323Z" fill="#263238"/>
<path d="M37.861 36.2391H30.779C30.6474 36.2437 30.5169 36.2148 30.3995 36.1552C30.2821 36.0955 30.1818 36.0071 30.108 35.8981L28.676 33.5101H39.964L38.532 35.8981C38.4581 36.0071 38.3578 36.0955 38.2405 36.1552C38.1231 36.2148 37.9925 36.2437 37.861 36.2391Z" fill="#F9EFEF"/>
<path d="M39.964 33.5101L38.5321 35.8981C38.4583 36.0072 38.3579 36.0957 38.2406 36.1553C38.1232 36.2149 37.9926 36.2438 37.861 36.2391H36.007C36.1386 36.2438 36.2692 36.2149 36.3866 36.1553C36.5039 36.0957 36.6043 36.0072 36.678 35.8981L38.11 33.5101H39.964Z" fill="#E1D3CE"/>
<path d="M51.8279 33.5936H19.0819C18.8813 33.5934 18.689 33.5135 18.5472 33.3715C18.4055 33.2296 18.3259 33.0372 18.3259 32.8366V27.1275C18.3259 27.0281 18.3454 26.9296 18.3835 26.8378C18.4215 26.746 18.4773 26.6625 18.5476 26.5922C18.6179 26.5219 18.7013 26.4662 18.7932 26.4281C18.885 26.3901 18.9835 26.3705 19.0829 26.3705H51.8289C51.9283 26.3705 52.0267 26.3901 52.1186 26.4281C52.2104 26.4662 52.2939 26.5219 52.3642 26.5922C52.4345 26.6625 52.4902 26.746 52.5283 26.8378C52.5663 26.9296 52.5859 27.0281 52.5859 27.1275V32.8366C52.5859 32.936 52.5663 33.0345 52.5283 33.1263C52.4902 33.2182 52.4345 33.3016 52.3642 33.3719C52.2939 33.4422 52.2104 33.498 52.1186 33.536C52.0267 33.574 51.9273 33.5936 51.8279 33.5936Z" fill="#3F3F3F"/>
<path d="M51.8288 33.5936H49.9958V26.3715H51.8288C52.0295 26.3715 52.2221 26.4512 52.3641 26.5932C52.506 26.7351 52.5858 26.9277 52.5858 27.1285V32.8376C52.5858 33.0384 52.506 33.2309 52.3641 33.3729C52.2221 33.5148 52.0295 33.5936 51.8288 33.5936Z" fill="#0D0D0D"/>
<path d="M38.9971 29.1005H31.9191C31.7875 29.105 31.657 29.0761 31.5396 29.0165C31.4223 28.9569 31.3219 28.8684 31.2481 28.7595L29.8161 26.3715H41.0991L39.6671 28.7595C39.5933 28.8685 39.493 28.957 39.3756 29.0166C39.2583 29.0763 39.1287 29.1051 38.9971 29.1005Z" fill="#F9EFEF"/>
<path d="M41.0959 26.3715L39.6639 28.7595C39.5901 28.8685 39.4898 28.957 39.3724 29.0166C39.255 29.0763 39.1244 29.1051 38.9928 29.1005H37.1389C37.2704 29.105 37.401 29.0761 37.5183 29.0165C37.6357 28.9569 37.736 28.8684 37.8099 28.7595L39.2419 26.3715H41.0959Z" fill="#E1D3CE"/>
<path d="M48.1028 26.3715H15.3568C15.156 26.3715 14.9635 26.2917 14.8215 26.1497C14.6796 26.0078 14.5998 25.8152 14.5998 25.6144V19.9063C14.5998 19.7055 14.6796 19.513 14.8215 19.371C14.9635 19.229 15.156 19.1493 15.3568 19.1493H48.1028C48.3036 19.1493 48.4961 19.229 48.6381 19.371C48.78 19.513 48.8598 19.7055 48.8598 19.9063V25.6144C48.8598 25.8152 48.78 26.0078 48.6381 26.1497C48.4961 26.2917 48.3036 26.3715 48.1028 26.3715Z" fill="#3F3F3F"/>
<path d="M48.1027 26.3715H46.2697V19.1493H48.1027C48.3035 19.1493 48.496 19.229 48.638 19.371C48.78 19.513 48.8597 19.7055 48.8597 19.9063V25.6144C48.8597 25.8152 48.78 26.0078 48.638 26.1497C48.496 26.2917 48.3035 26.3715 48.1027 26.3715Z" fill="#0D0D0D"/>
<path d="M35.272 21.8783H28.191C28.0594 21.883 27.9288 21.8541 27.8115 21.7945C27.6941 21.7348 27.5938 21.6463 27.52 21.5373L26.091 19.1493H37.379L35.947 21.5373C35.8732 21.6463 35.7728 21.7347 35.6555 21.7943C35.5381 21.854 35.4076 21.8829 35.276 21.8783H35.272Z" fill="#F9EFEF"/>
<path d="M37.3737 19.1493L35.9417 21.5373C35.8679 21.6463 35.7676 21.7348 35.6502 21.7945C35.5329 21.8541 35.4023 21.883 35.2707 21.8783H33.4167C33.5483 21.883 33.6789 21.8541 33.7962 21.7945C33.9136 21.7348 34.0139 21.6463 34.0877 21.5373L35.5197 19.1493H37.3737Z" fill="#E1D3CE"/>
<path d="M37.6028 40.1743C37.6037 40.6698 37.411 41.1459 37.0658 41.5013C34.7349 44.0037 31.9082 45.993 28.7658 47.3423C27.7239 47.7352 26.6072 47.8894 25.4978 47.7933C23.1448 47.5933 18.5448 47.0123 16.4538 45.4293V43.7893C18.5448 45.3733 23.1448 45.9543 25.4978 46.1543C26.6072 46.2498 27.724 46.0954 28.7658 45.7023C31.9081 44.3533 34.7348 42.3644 37.0658 39.8623C37.2101 39.7139 37.3287 39.5426 37.4168 39.3553C37.5389 39.6111 37.6025 39.8909 37.6028 40.1743Z" fill="#FFBFAB"/>
<path d="M37.1579 38.9483C36.9 38.6403 36.5516 38.4214 36.1621 38.323C35.7726 38.2247 35.3621 38.2517 34.9889 38.4003L30.1449 40.3273C29.4326 40.6108 28.6444 40.6405 27.9129 40.4113L26.4579 39.9553C26.3973 39.9365 26.3435 39.9003 26.3034 39.8511C26.2633 39.8019 26.2385 39.742 26.2322 39.6789C26.2259 39.6157 26.2384 39.5521 26.268 39.496C26.2976 39.4399 26.3432 39.3937 26.3989 39.3633L27.6989 38.6513C28.0376 38.4636 28.2955 38.1578 28.4231 37.7921C28.5507 37.4264 28.5393 37.0266 28.3909 36.6688C28.2425 36.3111 27.9676 36.0205 27.6186 35.8526C27.2696 35.6846 26.871 35.651 26.4989 35.7582L20.7989 37.4353C19.772 37.7371 18.7072 37.8903 17.6369 37.8903H16.4629L15.9719 37.8393V45.4294H16.4629C18.5539 47.0124 23.1539 47.5945 25.5069 47.7935C26.6162 47.8894 27.733 47.7353 28.7749 47.3424C31.9172 45.9935 34.744 44.0046 37.0749 41.5023C37.4028 41.1632 37.5935 40.7147 37.6103 40.2433C37.6271 39.7719 37.4688 39.3109 37.1659 38.9493L37.1579 38.9483Z" fill="#FFC4B4"/>
<path d="M16.1029 46.1814H13.5759V37.4554H16.1029C16.196 37.4554 16.2852 37.4924 16.3511 37.5583C16.4169 37.6241 16.4539 37.7133 16.4539 37.8064V45.8314C16.4536 45.9244 16.4165 46.0134 16.3507 46.079C16.2849 46.1446 16.1958 46.1814 16.1029 46.1814Z" fill="#F9EFEF"/>
<path d="M16.1029 46.181H13.5759V42.9672H16.4539V45.831C16.4536 45.924 16.4165 46.0129 16.3507 46.0786C16.2849 46.1442 16.1958 46.181 16.1029 46.181Z" fill="#EFE2DD"/>
<path d="M13.6029 47.0301H7.31589C7.26774 47.0301 7.22007 47.0207 7.1756 47.0022C7.13113 46.9837 7.09073 46.9567 7.05673 46.9226C7.02273 46.8885 6.9958 46.848 6.97746 46.8035C6.95913 46.759 6.94976 46.7113 6.94989 46.6632V36.9733C6.94989 36.8762 6.98845 36.7831 7.05709 36.7145C7.12573 36.6459 7.21882 36.6073 7.31589 36.6073H13.6029C13.651 36.6072 13.6988 36.6165 13.7433 36.6349C13.7878 36.6532 13.8283 36.6801 13.8623 36.7141C13.8964 36.7481 13.9235 36.7885 13.9419 36.833C13.9604 36.8775 13.9699 36.9251 13.9699 36.9733V46.6632C13.9699 46.7605 13.9312 46.8538 13.8624 46.9227C13.7936 46.9915 13.7002 47.0301 13.6029 47.0301Z" fill="#009445"/>
<path d="M13.6029 47.0291H7.31589C7.21882 47.0291 7.12572 46.9906 7.05709 46.922C6.98845 46.8533 6.94989 46.7602 6.94989 46.6631V43.3632H13.9689V46.6631C13.9689 46.7603 13.9304 46.8535 13.8618 46.9223C13.7931 46.9911 13.7001 47.0289 13.6029 47.0291Z" fill="#4CA443"/>
<path d="M58.474 37.7029C58.474 42.385 54.6778 46.1815 49.9954 46.1815C45.3146 46.1815 41.5178 42.3866 41.5178 37.7029C41.5178 33.0228 45.3112 29.225 49.9954 29.225C54.6778 29.225 58.474 33.0205 58.474 37.7029Z" fill="#39B54A"/>
<path d="M58.4735 37.7029C58.4735 42.385 54.6772 46.1815 49.9948 46.1815V29.225C54.6772 29.225 58.4735 33.0205 58.4735 37.7029Z" fill="#30963E"/>
<path d="M54.4958 36.4508L49.5573 41.3889C49.1332 41.8125 48.4458 41.8125 48.0222 41.3889L45.3092 38.6751C44.8848 38.2515 44.8848 37.5643 45.3092 37.1408C45.7327 36.7164 46.4202 36.7164 46.8437 37.1408L48.7899 39.0862L52.9607 34.9154C53.3848 34.4913 54.0722 34.4913 54.4958 34.9154C54.9193 35.339 54.9193 36.0264 54.4958 36.4508Z" fill="white"/>
<path d="M54.4951 36.4508L49.9948 40.9508V37.8807L52.9601 34.9154C53.3842 34.4913 54.0716 34.4913 54.4951 34.9154C54.9187 35.339 54.9187 36.0264 54.4951 36.4508Z" fill="#E6E6E6"/>
</g>
<defs>
<clipPath id="clip0_7_6705">
<rect width="65" height="65" fill="white" transform="translate(0.211914 0.985229)"/>
</clipPath>
</defs>
</svg>
