<svg width="24" height="24" viewBox="0 0 24 24" fill="none" xmlns="http://www.w3.org/2000/svg">
<path d="M11.0011 13.8344L9.30619 8.7497C9.2223 8.49951 8.98943 8.33142 8.7258 8.33142H6.28003V9.55431H8.28483L9.97974 14.639C10.0636 14.8892 10.2965 15.0573 10.5601 15.0573H15.4517C15.7243 15.0573 15.9646 14.8764 16.0392 14.6133L17.2621 10.3332C17.3147 10.1487 17.2779 9.95049 17.1624 9.79703C17.0469 9.64417 16.8665 9.55431 16.6746 9.55431H11.1716V10.7772H15.8637L14.9901 13.8344H11.0011Z"/>
<path d="M9.94897 16.5857C9.94897 17.0915 10.3604 17.5029 10.8661 17.5029C11.3719 17.5029 11.7833 17.0915 11.7833 16.5857C11.7833 16.08 11.3719 15.6686 10.8661 15.6686C10.3604 15.6686 9.94897 16.08 9.94897 16.5857Z"/>
<path d="M13.6174 16.5857C13.6174 17.0915 14.0288 17.5029 14.5346 17.5029C15.0403 17.5029 15.4518 17.0915 15.4518 16.5857C15.4518 16.08 15.0403 15.6686 14.5346 15.6686C14.0288 15.6686 13.6174 16.08 13.6174 16.5857Z"/>
<path d="M14.9934 1.92993L14.6876 3.1152C18.7379 4.16015 21.5664 7.81328 21.5664 11.9999C21.5664 15.6208 19.4478 18.8396 16.2554 20.3204L17.2215 18.3884L16.1276 17.8412L14.2933 21.5098C14.2052 21.6851 14.207 21.8932 14.2986 22.0666C14.39 22.241 14.5593 22.3601 14.7536 22.3885L19.0337 22.9999L19.2069 21.789L16.7525 21.4388C20.3808 19.7642 22.7893 16.1107 22.7893 11.9999C22.7893 7.25528 19.5834 3.1152 14.9934 1.92993Z"/>
<path d="M2 12C2 16.7447 5.2059 20.8847 9.7959 22.07L10.1016 20.8847C6.05141 19.8398 3.22289 16.1867 3.22289 12C3.22289 8.37911 5.34144 5.16038 8.5339 3.67954L7.56777 5.6115L8.66168 6.15875L10.496 2.49009C10.5841 2.31484 10.5823 2.10675 10.4906 1.93329C10.3993 1.75893 10.23 1.63981 10.0356 1.61144L5.75554 1L5.58237 2.21094L8.0368 2.56115C4.40845 4.23575 2 7.88918 2 12Z"/>
</svg>
