<svg width="65" height="66" viewBox="0 0 65 66" fill="none" xmlns="http://www.w3.org/2000/svg">
<g clip-path="url(#clip0_7_6670)">
<path d="M60 0.985229H5C2.23858 0.985229 0 3.22381 0 5.98523V60.9852C0 63.7467 2.23858 65.9852 5 65.9852H60C62.7614 65.9852 65 63.7467 65 60.9852V5.98523C65 3.22381 62.7614 0.985229 60 0.985229Z" fill="#A5D1A1"/>
<path d="M49.374 17.7622V45.4722L46.358 50.3592H45.17L42.154 45.4722V17.7622H49.374Z" fill="#4CA443"/>
<path d="M49.373 17.7632V45.4722L46.357 50.3592H45.763V17.7632H49.373Z" fill="#009445"/>
<path d="M15 18.7692H39.773V50.3582H15V18.7692Z" fill="white"/>
<path d="M27.387 18.7692H39.774V50.3582H27.387V18.7692Z" fill="#F6F6F6"/>
<path d="M21.974 31.6742L19.785 29.0542L21.33 27.7622L22.182 28.7802L24.27 26.9092L25.614 28.4092L21.974 31.6742Z" fill="#4CA443"/>
<path d="M27.387 28.5392H35.173V30.5532H27.387V28.5392Z" fill="#A17852"/>
<path d="M21.974 37.4652L19.785 34.8482L21.33 33.5562L22.182 34.5742L24.27 32.7032L25.614 34.2032L21.974 37.4652Z" fill="#4CA443"/>
<path d="M27.387 34.3302H35.173V36.3442H27.387V34.3302Z" fill="#A17852"/>
<path d="M21.974 43.2562L19.785 40.6392L21.33 39.3472L22.182 40.3652L24.27 38.4942L25.614 39.9942L21.974 43.2562Z" fill="#4CA443"/>
<path d="M27.387 40.1222H35.173V42.1362H27.387V40.1222Z" fill="#A17852"/>
<path d="M19.461 15.9852H21.475V21.7192H19.461V15.9852Z" fill="#BD9B7B"/>
<path d="M24.073 15.9852H26.087V21.7192H24.073V15.9852Z" fill="#BD9B7B"/>
<path d="M28.686 15.9852H30.7V21.7192H28.686V15.9852Z" fill="#A17852"/>
<path d="M33.298 15.9852H35.312V21.7192H33.298V15.9852Z" fill="#A17852"/>
<path d="M49.374 45.4692L46.358 50.3562H45.17L42.154 45.4692H49.374Z" fill="#FFD499"/>
<path d="M42.153 17.7622H49.374V24.1062H42.153V17.7622Z" fill="#009445"/>
<path d="M45.763 17.7622H49.374V24.1062H45.763V17.7622Z" fill="#065F2F"/>
<path d="M45.763 45.4692H49.374L46.358 50.3562H45.764L45.763 45.4692Z" fill="#FFB74F"/>
</g>
<defs>
<clipPath id="clip0_7_6670">
<rect width="65" height="65" fill="white" transform="translate(0 0.985229)"/>
</clipPath>
</defs>
</svg>
