<svg width="80" height="80" viewBox="0 0 80 80" fill="none" xmlns="http://www.w3.org/2000/svg">
<g clip-path="url(#clip0_40_44)">
<path d="M61.5636 78.4375H4.6886C2.96266 78.4375 1.5636 77.0384 1.5636 75.3125V4.6875C1.5636 2.96156 2.96266 1.5625 4.6886 1.5625H61.5636C63.2895 1.5625 64.6886 2.96156 64.6886 4.6875V75.3125C64.6886 77.0384 63.2895 78.4375 61.5636 78.4375Z" fill="white"/>
<path d="M33.1266 35.625C40.2027 35.625 45.9391 29.8886 45.9391 22.8125C45.9391 15.7364 40.2027 10 33.1266 10C26.0504 10 20.3141 15.7364 20.3141 22.8125C20.3141 29.8886 26.0504 35.625 33.1266 35.625Z" fill="#FE6663"/>
<path d="M37.1886 21.1719V22.1875C37.1886 24.4311 35.3697 26.25 33.1261 26.25C30.8825 26.25 29.0636 24.4311 29.0636 22.1875V21.1719C29.0636 18.9283 30.8825 17.1094 33.1261 17.1094C35.3697 17.1094 37.1886 18.9283 37.1886 21.1719Z" fill="#FFCDAC"/>
<path d="M33.1261 26.25C29.1605 26.25 25.7723 28.7136 24.4023 32.1927C26.6898 34.3211 29.755 35.625 33.1261 35.625C36.4972 35.625 39.5623 34.3211 41.8498 32.1927C40.4798 28.7136 37.0917 26.25 33.1261 26.25Z" fill="#A5DDFF"/>
<path d="M68.2147 25.0922L69.1075 23.5458C70.4883 21.1544 73.5461 20.335 75.9376 21.7156C78.329 23.0964 79.1484 26.1542 77.7678 28.5458L58.1051 62.6025L49.4448 57.6025L57.9264 42.9119L68.2147 25.0922Z" fill="#FFBC53"/>
<path d="M75.9378 21.7156C73.5464 20.3348 70.4884 21.1542 69.1077 23.5458L66.7863 27.5666L75.4466 32.5666L77.768 28.5458C79.1486 26.1544 78.3292 23.0964 75.9378 21.7156Z" fill="#FE6663"/>
<path d="M58.1052 62.6025L48.0608 70L49.4449 57.6025L58.1052 62.6025Z" fill="#9AD8FF"/>
<path d="M64.6886 62.2388C63.8258 62.2388 63.1261 62.9383 63.1261 63.8013V75.3125C63.1261 76.1741 62.4252 76.875 61.5636 76.875H4.6886C3.82704 76.875 3.1261 76.1741 3.1261 75.3125V4.6875C3.1261 3.82594 3.82704 3.125 4.6886 3.125H61.5636C62.4252 3.125 63.1261 3.82594 63.1261 4.6875V21.6797C63.1261 22.5427 63.8258 23.2422 64.6886 23.2422C65.5514 23.2422 66.2511 22.5427 66.2511 21.6797V4.6875C66.2511 2.10281 64.1483 0 61.5636 0H4.6886C2.10391 0 0.00109863 2.10281 0.00109863 4.6875V75.3125C0.00109863 77.8972 2.10391 80 4.6886 80H61.5636C64.1483 80 66.2511 77.8972 66.2511 75.3125V63.8013C66.2511 62.9383 65.5514 62.2388 64.6886 62.2388Z" fill="black"/>
<path d="M47.5011 22.8125C47.5011 14.8861 41.0525 8.4375 33.1261 8.4375C25.1997 8.4375 18.7511 14.8861 18.7511 22.8125C18.7511 26.9245 20.487 30.6383 23.2639 33.2608C23.3159 33.3164 23.3713 33.3691 23.4317 33.417C25.9897 35.7575 29.3939 37.1873 33.1259 37.1873C36.858 37.1873 40.2622 35.7573 42.8202 33.417C42.8806 33.3691 42.9359 33.3163 42.988 33.2608C45.7652 30.6383 47.5011 26.9245 47.5011 22.8125ZM33.1261 11.5625C39.3294 11.5625 44.3761 16.6092 44.3761 22.8125C44.3761 25.3073 43.5588 27.6141 42.1792 29.4817C41.0269 27.7727 39.4298 26.4434 37.5756 25.6228C38.3116 24.6717 38.7511 23.4803 38.7511 22.1875V21.1719C38.7511 18.0702 36.2278 15.5469 33.1261 15.5469C30.0244 15.5469 27.5011 18.0702 27.5011 21.1719V22.1875C27.5011 23.4803 27.9406 24.6717 28.6766 25.6228C26.8223 26.4434 25.2253 27.7727 24.073 29.4817C22.6934 27.6141 21.8761 25.3073 21.8761 22.8125C21.8761 16.6092 26.9228 11.5625 33.1261 11.5625ZM30.6261 22.1875V21.1719C30.6261 19.7934 31.7477 18.6719 33.1261 18.6719C34.5045 18.6719 35.6261 19.7934 35.6261 21.1719V22.1875C35.6261 23.5659 34.5045 24.6875 33.1261 24.6875C31.7477 24.6875 30.6261 23.5659 30.6261 22.1875ZM26.3306 31.7706C27.7039 29.3355 30.2666 27.8125 33.1261 27.8125C35.9856 27.8125 38.5483 29.3355 39.9216 31.7706C38.032 33.2075 35.6775 34.0625 33.1261 34.0625C30.5747 34.0625 28.22 33.2075 26.3306 31.7706Z" fill="black"/>
<path d="M41.5636 68.4375H33.1261C32.2633 68.4375 31.5636 69.137 31.5636 70C31.5636 70.863 32.2633 71.5625 33.1261 71.5625H41.5636C42.4264 71.5625 43.1261 70.863 43.1261 70C43.1261 69.137 42.4264 68.4375 41.5636 68.4375Z" fill="black"/>
<path d="M41.5636 59.6875H19.3761C18.5133 59.6875 17.8136 60.387 17.8136 61.25C17.8136 62.113 18.5133 62.8125 19.3761 62.8125H41.5636C42.4264 62.8125 43.1261 62.113 43.1261 61.25C43.1261 60.387 42.4264 59.6875 41.5636 59.6875Z" fill="black"/>
<path d="M41.5636 50.9375H19.3761C18.5133 50.9375 17.8136 51.637 17.8136 52.5C17.8136 53.363 18.5133 54.0625 19.3761 54.0625H41.5636C42.4264 54.0625 43.1261 53.363 43.1261 52.5C43.1261 51.637 42.4264 50.9375 41.5636 50.9375Z" fill="black"/>
<path d="M13.8071 42.6453C13.5167 42.3547 13.1135 42.1875 12.701 42.1875C12.29 42.1875 11.8868 42.3547 11.5964 42.6453C11.3057 42.9359 11.1385 43.3391 11.1385 43.75C11.1385 44.1609 11.3056 44.5641 11.5964 44.8547C11.8885 45.1453 12.29 45.3125 12.701 45.3125C13.1135 45.3125 13.5151 45.1453 13.8071 44.8547C14.0978 44.5641 14.2651 44.1609 14.2651 43.75C14.2651 43.3391 14.0979 42.9359 13.8071 42.6453Z" fill="black"/>
<path d="M13.8071 51.3953C13.5151 51.1047 13.1135 50.9375 12.701 50.9375C12.29 50.9375 11.8885 51.1047 11.5964 51.3953C11.3057 51.6859 11.1385 52.0891 11.1385 52.5C11.1385 52.9109 11.3056 53.3141 11.5964 53.6047C11.8885 53.8953 12.29 54.0625 12.701 54.0625C13.1135 54.0625 13.5151 53.8953 13.8071 53.6047C14.0978 53.3141 14.2651 52.9109 14.2651 52.5C14.2651 52.0891 14.0979 51.6859 13.8071 51.3953Z" fill="black"/>
<path d="M12.701 59.6875C12.29 59.6875 11.8885 59.8547 11.5964 60.1453C11.3057 60.4359 11.1385 60.8391 11.1385 61.25C11.1385 61.6609 11.3056 62.0641 11.5964 62.3547C11.8868 62.6453 12.29 62.8125 12.701 62.8125C13.1135 62.8125 13.5167 62.6453 13.8071 62.3547C14.0978 62.0641 14.2651 61.6609 14.2651 61.25C14.2651 60.8391 14.0979 60.4359 13.8071 60.1453C13.5151 59.8547 13.1135 59.6875 12.701 59.6875Z" fill="black"/>
<path d="M41.5636 42.1875H19.3761C18.5133 42.1875 17.8136 42.887 17.8136 43.75C17.8136 44.613 18.5133 45.3125 19.3761 45.3125H41.5636C42.4264 45.3125 43.1261 44.613 43.1261 43.75C43.1261 42.887 42.4264 42.1875 41.5636 42.1875Z" fill="black"/>
<path d="M76.719 20.3625C75.2011 19.4861 73.4326 19.2533 71.7392 19.7068C70.0461 20.1606 68.6308 21.2465 67.7545 22.7645L48.0917 56.8212C47.984 57.0079 47.9159 57.215 47.892 57.4292L46.5079 69.8267C46.4392 70.4436 46.742 71.0428 47.2795 71.3533C47.5222 71.4933 47.7917 71.5626 48.0606 71.5626C48.3875 71.5626 48.7131 71.4603 48.9873 71.2583L59.0317 63.8608C59.2053 63.7329 59.3506 63.5706 59.4583 63.3839L79.1209 29.3272C80.9303 26.1934 79.8528 22.1718 76.719 20.3625ZM50.7326 60.1503L55.2548 62.7612L50.0098 66.624L50.7326 60.1503ZM57.5333 60.4681L51.5793 57.0306L67.3583 29.7009L73.3122 33.1384L57.5333 60.4681ZM76.4147 27.7645L74.8745 30.4322L68.9206 26.9947L70.4608 24.327C70.9198 23.5318 71.6611 22.9631 72.5479 22.7254C73.4351 22.4876 74.3614 22.6098 75.1564 23.0689C75.9515 23.5279 76.5203 24.2692 76.7579 25.1561C76.9956 26.0429 76.8737 26.9693 76.4147 27.7645Z" fill="black"/>
</g>
<defs>
<clipPath id="clip0_40_44">
<rect width="80" height="80" fill="white"/>
</clipPath>
</defs>
</svg>
