<svg width="24" height="24" viewBox="0 0 24 24" fill="none" xmlns="http://www.w3.org/2000/svg">
<path d="M19.9238 8.61094C20.2 8.3348 20.2 7.88708 19.9238 7.61093C19.6477 7.33479 19.2 7.33479 18.9238 7.61093L19.9238 8.61094ZM3.86738 15.8892C3.86738 16.2797 4.18397 16.5963 4.57449 16.5963L10.9385 16.5963C11.329 16.5963 11.6456 16.2797 11.6456 15.8892C11.6456 15.4986 11.329 15.182 10.9385 15.182L5.2816 15.182L5.2816 9.52516C5.2816 9.13463 4.96502 8.81805 4.57449 8.81805C4.18397 8.81805 3.86738 9.13463 3.86738 9.52516L3.86738 15.8892ZM12.2921 10.1716L11.7921 10.6716L12.2921 10.1716ZM15.8276 11.7072L16.3276 12.2072L15.8276 11.7072ZM13.8276 11.7072L14.3276 11.2072L13.8276 11.7072ZM18.9238 7.61093L15.3276 11.2072L16.3276 12.2072L19.9238 8.61094L18.9238 7.61093ZM14.3276 11.2072L12.7921 9.67161L11.7921 10.6716L13.3276 12.2072L14.3276 11.2072ZM9.79204 9.67161L4.07449 15.3892L5.0745 16.3892L10.792 10.6716L9.79204 9.67161ZM12.7921 9.67161C11.9636 8.84318 10.6205 8.84317 9.79204 9.67161L10.792 10.6716C11.0682 10.3955 11.5159 10.3955 11.7921 10.6716L12.7921 9.67161ZM15.3276 11.2072C15.0515 11.4833 14.6037 11.4833 14.3276 11.2072L13.3276 12.2072C14.156 13.0356 15.4992 13.0356 16.3276 12.2072L15.3276 11.2072Z" />
</svg>
