<svg width="24" height="24" viewBox="0 0 24 24" fill="none" xmlns="http://www.w3.org/2000/svg">
<path d="M12.9491 15.3546L10.1782 12.6164L10.2109 12.5836C12.1091 10.4673 13.4618 8.03456 14.2582 5.45999H17.4546V3.27273H9.81819V1.0909H7.63635V3.27273H0V5.44363H12.1854C11.4491 7.54907 10.2982 9.54543 8.72724 11.2909C7.7127 10.1618 6.87268 8.93456 6.20724 7.63636H4.02546C4.8218 9.41452 5.91275 11.0946 7.27635 12.6109L1.72907 18.0927L3.27273 19.6364L8.7273 14.1818L12.12 17.5746L12.9491 15.3546Z" fill="#ffffff" />
<path d="M19.0909 9.81819H16.9091L12 22.9091H14.1818L15.4091 19.6364H20.5909L21.8182 22.9091H24L19.0909 9.81819ZM16.2273 17.4545L18 12.7254L19.7728 17.4545H16.2273Z" fill="#ffffff" />
</svg>
