<svg width="24" height="24" viewBox="0 0 24 24" fill="none" xmlns="http://www.w3.org/2000/svg">
<path d="M0.8 9.60999H3.7864C4.05216 9.60954 4.31026 9.52089 4.5202 9.35793C4.73014 9.19497 4.88005 8.96693 4.9464 8.70959C5.11 8.82959 5.2688 8.94199 5.436 9.04599C5.3893 9.18616 5.38234 9.33653 5.41588 9.48042C5.44941 9.62431 5.52214 9.7561 5.626 9.86119L5.7496 9.73759L5.6264 9.86119L10.1556 14.3812C10.3056 14.5312 10.5091 14.6154 10.7212 14.6154C10.9333 14.6154 11.1368 14.5312 11.2868 14.3812L19.7668 5.90119C19.9163 5.75123 20.0002 5.54813 20.0002 5.33639C20.0002 5.12465 19.9163 4.92154 19.7668 4.77159L15.2424 0.242387C15.0925 0.0930203 14.8894 0.00915527 14.6778 0.00915527C14.4662 0.00915527 14.2631 0.0930203 14.1132 0.242387L12.1296 2.22639L11.9092 2.03999C11.6706 1.82552 11.3756 1.68387 11.059 1.63177C10.7424 1.57967 10.4176 1.6193 10.1228 1.74599C8.63576 2.2935 7.07899 2.6288 5.4984 2.74199C5.45023 2.62179 5.38266 2.51031 5.2984 2.41199C5.18565 2.28513 5.04728 2.18364 4.89241 2.11421C4.73755 2.04477 4.56972 2.00898 4.4 2.00919H0.8C0.587827 2.00919 0.384344 2.09347 0.234315 2.2435C0.0842859 2.39353 4.00037e-07 2.59701 4.00037e-07 2.80919V8.80919C-0.000104725 8.91431 0.0205103 9.01843 0.060667 9.11558C0.100824 9.21273 0.159735 9.30102 0.234032 9.37539C0.308329 9.44976 0.396556 9.50876 0.493669 9.54901C0.590781 9.58927 0.694876 9.60999 0.8 9.60999ZM7.04 8.44679C7.26484 8.6718 7.39114 8.97689 7.39114 9.29499C7.39114 9.61309 7.26484 9.91817 7.04 10.1432L6.1908 9.29519L7.04 8.44679ZM10.72 13.8164L9.8712 12.9692C10.0961 12.745 10.4008 12.619 10.7184 12.619C11.036 12.619 11.3407 12.745 11.5656 12.9692L10.72 13.8164ZM18.3524 6.18319C18.1277 5.95819 18.0015 5.65319 18.0015 5.33519C18.0015 5.01719 18.1277 4.71219 18.3524 4.48719L19.2 5.33439L18.3524 6.18319ZM14.6772 0.808387L15.5264 1.65799C15.301 1.88239 14.9959 2.00837 14.6778 2.00837C14.3597 2.00837 14.0546 1.88239 13.8292 1.65799L14.6772 0.808387ZM13.262 2.22479C13.6375 2.59929 14.1461 2.8096 14.6764 2.8096C15.2067 2.8096 15.7153 2.59929 16.0908 2.22479L17.788 3.91999C17.4138 4.29534 17.2036 4.80375 17.2036 5.33379C17.2036 5.86382 17.4138 6.37224 17.788 6.74759L12.1316 12.4044C11.7566 12.0302 11.2485 11.82 10.7188 11.82C10.1891 11.82 9.68096 12.0302 9.306 12.4044L7.6072 10.7088C7.9819 10.3338 8.19237 9.82532 8.19237 9.29519C8.19237 8.76506 7.9819 8.25661 7.6072 7.88159L10.4048 5.08519C10.4771 5.01231 10.5746 4.97001 10.6772 4.96703C10.7798 4.96405 10.8796 5.00063 10.956 5.06919C11.0188 5.12519 11.1456 5.23599 11.3004 5.37039C10.9217 5.63996 10.6294 6.01371 10.4591 6.44623C10.2888 6.87875 10.2477 7.35143 10.3409 7.80685C10.4341 8.26226 10.6576 8.6808 10.9841 9.01163C11.3107 9.34246 11.7263 9.57133 12.1805 9.67044C12.6346 9.76955 13.1078 9.73464 13.5425 9.56994C13.9772 9.40524 14.3547 9.11784 14.6292 8.74267C14.9036 8.36749 15.0633 7.92068 15.0886 7.45652C15.114 6.99236 15.004 6.53083 14.772 6.12799C14.9274 5.87535 15.0045 5.58237 14.9936 5.28599C14.9873 5.08552 14.9402 4.88843 14.8554 4.70669C14.7705 4.52496 14.6496 4.36236 14.5 4.22879L12.7428 2.74479L13.262 2.22479ZM14.1508 6.66479C14.2694 6.93061 14.3132 7.22381 14.2772 7.51268C14.2413 7.80155 14.1271 8.0751 13.9469 8.30376C13.7668 8.53242 13.5275 8.70748 13.2551 8.81002C12.9827 8.91256 12.6874 8.93868 12.4012 8.88554C12.115 8.83241 11.8487 8.70205 11.6312 8.50856C11.4138 8.31507 11.2533 8.06581 11.1672 7.78773C11.0812 7.50965 11.0727 7.21333 11.1429 6.93081C11.213 6.64829 11.3591 6.39032 11.5652 6.18479C11.6743 6.07863 11.7988 5.9895 11.9344 5.92039C12.2492 6.19279 12.5156 6.42239 12.5156 6.42239C12.7334 6.62036 13.0052 6.74911 13.2963 6.79227C13.5875 6.83543 13.8849 6.79106 14.1508 6.66479ZM10.4348 2.48319C10.5918 2.41572 10.7649 2.39493 10.9334 2.42331C11.1018 2.45169 11.2586 2.52803 11.3848 2.64319L13.9752 4.83239C14.1091 4.95937 14.1872 5.13429 14.1923 5.31876C14.1974 5.50324 14.1291 5.6822 14.0024 5.81639C13.8732 5.93635 13.704 6.00385 13.5277 6.0057C13.3515 6.00755 13.1808 5.94361 13.0492 5.82639C13.0492 5.82639 11.7416 4.69719 11.4892 4.47119C11.2604 4.26641 10.9618 4.15712 10.6549 4.16583C10.3479 4.17453 10.056 4.30057 9.8392 4.51799L5.9416 8.41559C5.63823 8.22871 5.34698 8.02283 5.0696 7.79919L5.5692 3.53919C7.23258 3.41722 8.87051 3.06173 10.4348 2.48319ZM0.8 2.80919H4.4C4.45632 2.80922 4.512 2.82115 4.5634 2.84419C4.61479 2.86723 4.66074 2.90086 4.69824 2.94289C4.73573 2.98492 4.76393 3.03439 4.78099 3.08807C4.79804 3.14175 4.80356 3.19842 4.7972 3.25439L4.1852 8.45439C4.17405 8.55246 4.12703 8.64294 4.05319 8.70844C3.97935 8.77394 3.8839 8.80982 3.7852 8.80919L0.8 8.81039V2.80919Z"/>
<path d="M23.2 16.8108H21.6C21.4601 16.811 21.3227 16.8482 21.2018 16.9184C21.0808 16.9886 20.9804 17.0894 20.9108 17.2108H20C19.7404 17.2101 19.488 17.126 19.28 16.9708L18.6192 16.4748C18.3687 16.2852 18.0819 16.1492 17.7767 16.0752C17.4715 16.0011 17.1542 15.9907 16.8448 16.0444L10.6048 17.0892C10.3553 17.1273 10.122 17.2364 9.93282 17.4035C9.74365 17.5706 9.60658 17.7887 9.53798 18.0316L7.67318 16.6716C7.47722 16.5299 7.2457 16.4455 7.00452 16.4279C6.76333 16.4103 6.52202 16.4602 6.30758 16.572C6.09548 16.6769 5.91687 16.8389 5.79186 17.0398C5.66685 17.2407 5.60039 17.4725 5.59998 17.7092C5.59972 17.8994 5.64167 18.0874 5.72281 18.2595C5.80394 18.4316 5.92224 18.5835 6.06918 18.7044L11.9256 23.4132C12.419 23.8002 13.0281 24.0103 13.6552 24.01C13.9414 24.0115 14.2257 23.9631 14.4952 23.8668L19.5972 22.08C19.7265 22.034 19.8628 22.0109 20 22.0116H20.9116C20.9812 22.1327 21.0815 22.2334 21.2023 22.3036C21.3231 22.3738 21.4602 22.411 21.6 22.4116H23.2C23.4122 22.4116 23.6156 22.3273 23.7657 22.1773C23.9157 22.0272 24 21.8237 24 21.6116V17.6116C24.0001 17.5064 23.9795 17.4023 23.9393 17.3052C23.8992 17.208 23.8402 17.1197 23.7659 17.0454C23.6916 16.971 23.6034 16.912 23.5063 16.8717C23.4092 16.8315 23.3051 16.8108 23.2 16.8108ZM19.3304 21.3268L14.2264 23.1132C13.9229 23.211 13.6 23.2327 13.2861 23.1764C12.9722 23.1201 12.677 22.9876 12.4264 22.7904C12.4204 22.7856 6.57318 18.0844 6.57318 18.0848C6.51842 18.0388 6.47449 17.9813 6.44455 17.9164C6.41461 17.8514 6.39939 17.7807 6.39998 17.7092C6.40068 17.6208 6.42621 17.5344 6.47368 17.4599C6.52114 17.3853 6.5886 17.3256 6.66838 17.2876C6.75135 17.2434 6.84493 17.2231 6.93875 17.2288C7.03256 17.2345 7.12297 17.2661 7.19998 17.32L12.3492 21.0716C12.4835 21.1678 12.6461 21.2166 12.8112 21.2102C12.9763 21.2039 13.1347 21.1427 13.2612 21.0364L14.9472 19.6092H16.4C16.5061 19.6092 16.6078 19.567 16.6828 19.492C16.7578 19.417 16.8 19.3153 16.8 19.2092C16.8 19.1031 16.7578 19.0013 16.6828 18.9263C16.6078 18.8513 16.5061 18.8092 16.4 18.8092H10.764C10.7017 18.8096 10.6401 18.7972 10.5828 18.7727C10.5256 18.7483 10.474 18.7124 10.4312 18.6672C10.386 18.6231 10.3506 18.57 10.3273 18.5114C10.304 18.4527 10.2933 18.3898 10.296 18.3268C10.3073 18.213 10.3571 18.1066 10.4371 18.0249C10.5171 17.9433 10.6225 17.8913 10.736 17.8776L16.9884 16.8304C17.1896 16.7979 17.3954 16.8062 17.5934 16.8549C17.7913 16.9035 17.9775 16.9915 18.1408 17.1136L18.8 17.6124C19.1467 17.871 19.5674 18.0113 20 18.0124H20.8V21.2124H20C19.7719 21.2117 19.5453 21.2504 19.3304 21.3268ZM11.7036 19.6116H13.7084L12.7808 20.3964L11.7036 19.6116ZM21.6 21.6116V17.6116H23.2V21.6116H21.6Z"/>
</svg>
