<svg width="20" height="20" viewBox="0 0 20 20" fill="none" xmlns="http://www.w3.org/2000/svg">
<path d="M3.33329 6.66669H16.6666V17.5C16.6666 17.721 16.5788 17.933 16.4225 18.0893C16.2663 18.2456 16.0543 18.3334 15.8333 18.3334H4.16663C3.94561 18.3334 3.73365 18.2456 3.57737 18.0893C3.42109 17.933 3.33329 17.721 3.33329 17.5V6.66669ZM5.83329 4.16669V2.50002C5.83329 2.27901 5.92109 2.06704 6.07737 1.91076C6.23365 1.75448 6.44561 1.66669 6.66663 1.66669H13.3333C13.5543 1.66669 13.7663 1.75448 13.9225 1.91076C14.0788 2.06704 14.1666 2.27901 14.1666 2.50002V4.16669H18.3333V5.83335H1.66663V4.16669H5.83329ZM7.49996 3.33335V4.16669H12.5V3.33335H7.49996ZM7.49996 10V15H9.16663V10H7.49996ZM10.8333 10V15H12.5V10H10.8333Z"/>
</svg>
