<svg width="24" height="24" viewBox="0 0 24 24" fill="none" xmlns="http://www.w3.org/2000/svg">
<path d="M4.07422 15.3891C3.79807 15.6652 3.79807 16.1129 4.07422 16.3891C4.35036 16.6652 4.79808 16.6652 5.07422 16.3891L4.07422 15.3891ZM20.1307 8.11084C20.1307 7.72031 19.8141 7.40373 19.4236 7.40373L13.0596 7.40373C12.669 7.40373 12.3524 7.72031 12.3524 8.11084C12.3524 8.50137 12.669 8.81795 13.0596 8.81795L18.7164 8.81795L18.7164 14.4748C18.7164 14.8654 19.033 15.182 19.4236 15.182C19.8141 15.182 20.1307 14.8654 20.1307 14.4748L20.1307 8.11084ZM11.706 13.8284L12.206 13.3284L11.706 13.8284ZM8.17044 12.2928L7.67043 11.7928L8.17044 12.2928ZM10.1704 12.2928L9.67044 12.7928L10.1704 12.2928ZM5.07422 16.3891L8.67044 12.7928L7.67043 11.7928L4.07422 15.3891L5.07422 16.3891ZM9.67044 12.7928L11.206 14.3284L12.206 13.3284L10.6705 11.7928L9.67044 12.7928ZM14.206 14.3284L19.9236 8.61084L18.9236 7.61084L13.206 13.3284L14.206 14.3284ZM11.206 14.3284C12.0344 15.1568 13.3776 15.1568 14.206 14.3284L13.206 13.3284C12.9299 13.6045 12.4821 13.6045 12.206 13.3284L11.206 14.3284ZM8.67044 12.7928C8.94658 12.5167 9.3943 12.5167 9.67044 12.7928L10.6705 11.7928C9.84202 10.9644 8.49887 10.9644 7.67043 11.7928L8.67044 12.7928Z"/>
</svg>
