<svg width="386" height="303" viewBox="0 0 386 303" fill="none" xmlns="http://www.w3.org/2000/svg">
<g clip-path="url(#clip0_7_5724)">
<path d="M11.0856 273.66C11.0856 273.66 -15.3832 237.869 23.7184 205.249C39.4322 192.14 100.554 182.907 49.1655 109.783C18.95 66.7826 62.841 4.16057 132.894 43.9256C192.517 77.7686 233.976 5.70557 286.761 0.925573C326.913 -2.71343 351.06 46.6716 326.839 85.0696C299.659 128.153 351.48 120.917 362.746 135.179C382.582 160.29 318.212 190.093 347.74 221.989C377.81 254.473 357.188 273.665 357.188 273.665L11.0856 273.66Z" fill="#A5D1A1"/>
<path d="M310.279 274.678H1.11947C0.826966 274.678 0.54645 274.562 0.339623 274.356C0.132795 274.149 0.0166016 273.87 0.0166016 273.578C0.0166016 273.286 0.132795 273.006 0.339623 272.8C0.54645 272.594 0.826966 272.478 1.11947 272.478H310.279C310.423 272.478 310.566 272.506 310.701 272.562C310.834 272.617 310.956 272.698 311.059 272.8C311.161 272.902 311.242 273.024 311.297 273.157C311.353 273.29 311.381 273.434 311.381 273.578C311.381 273.722 311.353 273.865 311.297 273.999C311.242 274.132 311.161 274.254 311.059 274.356C310.956 274.458 310.834 274.539 310.701 274.594C310.566 274.65 310.423 274.678 310.279 274.678Z" fill="#4CA443"/>
<path d="M360.513 274.678H313.971C313.678 274.678 313.398 274.562 313.191 274.356C312.984 274.149 312.868 273.87 312.868 273.578C312.868 273.286 312.984 273.006 313.191 272.8C313.398 272.594 313.678 272.478 313.971 272.478H360.516C360.809 272.478 361.089 272.594 361.296 272.8C361.502 273.006 361.619 273.286 361.619 273.578C361.619 273.87 361.502 274.149 361.296 274.356C361.089 274.562 360.809 274.678 360.516 274.678H360.513Z" fill="#4CA443"/>
<path opacity="0.5" d="M320.934 143.022H318.127V140.222C318.127 140.005 318.041 139.797 317.887 139.644C317.733 139.49 317.524 139.404 317.307 139.404C317.089 139.404 316.881 139.49 316.727 139.644C316.573 139.797 316.487 140.005 316.487 140.222V143.022H313.679C313.462 143.022 313.253 143.108 313.1 143.262C312.945 143.415 312.859 143.623 312.859 143.84C312.859 144.057 312.945 144.265 313.1 144.418C313.253 144.572 313.462 144.658 313.679 144.658H316.487V147.458C316.487 147.675 316.573 147.883 316.727 148.036C316.881 148.19 317.089 148.276 317.307 148.276C317.524 148.276 317.733 148.19 317.887 148.036C318.041 147.883 318.127 147.675 318.127 147.458V144.658H320.934C321.152 144.658 321.36 144.572 321.515 144.418C321.668 144.265 321.754 144.057 321.754 143.84C321.754 143.623 321.668 143.415 321.515 143.262C321.36 143.108 321.152 143.022 320.934 143.022Z" fill="#11AFD3"/>
<path d="M66.4654 204.432H63.6581V201.632C63.6581 201.415 63.5716 201.207 63.4178 201.054C63.264 200.9 63.0554 200.814 62.8379 200.814C62.6204 200.814 62.4118 200.9 62.258 201.054C62.1042 201.207 62.0178 201.415 62.0178 201.632V204.432H59.2105C58.9929 204.432 58.7844 204.518 58.6306 204.672C58.4768 204.825 58.3904 205.033 58.3904 205.25C58.3904 205.467 58.4768 205.675 58.6306 205.828C58.7844 205.982 58.9929 206.068 59.2105 206.068H62.0178V208.868C62.0178 209.085 62.1042 209.293 62.258 209.446C62.4118 209.6 62.6204 209.686 62.8379 209.686C63.0554 209.686 63.264 209.6 63.4178 209.446C63.5716 209.293 63.6581 209.085 63.6581 208.868V206.068H66.4654C66.6828 206.068 66.8915 205.982 67.0453 205.828C67.1991 205.675 67.2855 205.467 67.2855 205.25C67.2855 205.033 67.1991 204.825 67.0453 204.672C66.8915 204.518 66.6828 204.432 66.4654 204.432Z" fill="#4CA443"/>
<path d="M23.7804 261.551H21.9436V259.719C21.9436 259.577 21.887 259.44 21.7862 259.34C21.6855 259.239 21.5488 259.183 21.4062 259.183C21.2638 259.183 21.127 259.239 21.0263 259.34C20.9255 259.44 20.8688 259.577 20.8688 259.719V261.551H19.0301C18.8876 261.551 18.7508 261.607 18.6501 261.708C18.5493 261.808 18.4927 261.945 18.4927 262.087C18.4927 262.229 18.5493 262.365 18.6501 262.466C18.7508 262.566 18.8876 262.623 19.0301 262.623H20.8668V264.451C20.8668 264.593 20.9235 264.729 21.0243 264.83C21.125 264.93 21.2618 264.987 21.4042 264.987C21.5468 264.987 21.6835 264.93 21.7842 264.83C21.885 264.729 21.9416 264.593 21.9416 264.451V262.621H23.7784C23.921 262.621 24.0576 262.564 24.1584 262.464C24.2592 262.363 24.3158 262.227 24.3158 262.085C24.3158 261.943 24.2592 261.806 24.1584 261.706C24.0576 261.605 23.921 261.549 23.7784 261.549L23.7804 261.551Z" fill="#4CA443"/>
<path opacity="0.5" d="M87.9373 19.0505H85.13V16.2505C85.13 16.0336 85.0436 15.8255 84.8898 15.6721C84.736 15.5187 84.5273 15.4325 84.3099 15.4325C84.0923 15.4325 83.8837 15.5187 83.7299 15.6721C83.5761 15.8255 83.4897 16.0336 83.4897 16.2505V19.0505H80.6824C80.4649 19.0505 80.2563 19.1367 80.1025 19.2901C79.9487 19.4435 79.8623 19.6516 79.8623 19.8685C79.8623 20.0854 79.9487 20.2935 80.1025 20.4469C80.2563 20.6003 80.4649 20.6865 80.6824 20.6865H83.4897V23.4865C83.4897 23.7035 83.5761 23.9115 83.7299 24.0649C83.8837 24.2183 84.0923 24.3045 84.3099 24.3045C84.5273 24.3045 84.736 24.2183 84.8898 24.0649C85.0436 23.9115 85.13 23.7035 85.13 23.4865V20.6865H87.9373C88.1547 20.6865 88.3634 20.6003 88.5172 20.4469C88.671 20.2935 88.7574 20.0854 88.7574 19.8685C88.7574 19.6516 88.671 19.4435 88.5172 19.2901C88.3634 19.1367 88.1547 19.0505 87.9373 19.0505Z" fill="#4CA443"/>
<path opacity="0.8" d="M130.512 215.328H127.705V212.528C127.705 212.311 127.619 212.103 127.465 211.949C127.311 211.796 127.103 211.71 126.885 211.71C126.667 211.71 126.459 211.796 126.306 211.949C126.151 212.103 126.065 212.311 126.065 212.528V215.328H123.258C123.04 215.328 122.832 215.414 122.678 215.567C122.524 215.721 122.438 215.929 122.438 216.146C122.438 216.363 122.524 216.571 122.678 216.724C122.832 216.878 123.04 216.964 123.258 216.964H126.065V219.764C126.065 219.981 126.151 220.189 126.306 220.342C126.459 220.496 126.667 220.582 126.885 220.582C127.103 220.582 127.311 220.496 127.465 220.342C127.619 220.189 127.705 219.981 127.705 219.764V216.964H130.512C130.73 216.964 130.939 216.878 131.092 216.724C131.246 216.571 131.333 216.363 131.333 216.146C131.333 215.929 131.246 215.721 131.092 215.567C130.939 215.414 130.73 215.328 130.512 215.328Z" fill="#4CA443"/>
<path d="M228.44 18.1585H225.633V15.3585C225.633 15.1416 225.546 14.9335 225.393 14.7801C225.239 14.6267 225.03 14.5405 224.813 14.5405C224.595 14.5405 224.386 14.6267 224.233 14.7801C224.08 14.9335 223.992 15.1416 223.992 15.3585V18.1585H221.185C220.968 18.1585 220.759 18.2447 220.606 18.3981C220.452 18.5515 220.365 18.7596 220.365 18.9765C220.365 19.1935 220.452 19.4015 220.606 19.555C220.759 19.7084 220.968 19.7945 221.185 19.7945H223.992V22.5945C223.992 22.8115 224.08 23.0195 224.233 23.173C224.386 23.3264 224.595 23.4125 224.813 23.4125C225.03 23.4125 225.239 23.3264 225.393 23.173C225.546 23.0195 225.633 22.8115 225.633 22.5945V19.7905H228.44C228.658 19.7905 228.866 19.7044 229.02 19.551C229.174 19.3975 229.26 19.1895 229.26 18.9725C229.26 18.7556 229.174 18.5475 229.02 18.3941C228.866 18.2407 228.658 18.1545 228.44 18.1545V18.1585Z" fill="#025AA2"/>
<path opacity="0.6" d="M147.517 30.2206H145.927V28.6336C145.927 28.5105 145.878 28.3925 145.79 28.3055C145.703 28.2185 145.585 28.1696 145.461 28.1696C145.338 28.1696 145.22 28.2185 145.133 28.3055C145.045 28.3925 144.996 28.5105 144.996 28.6336V30.2206H143.405C143.282 30.2206 143.164 30.2695 143.076 30.3565C142.989 30.4435 142.94 30.5615 142.94 30.6846C142.94 30.8076 142.989 30.9256 143.076 31.0127C143.164 31.0997 143.282 31.1486 143.405 31.1486H144.996V32.7386C144.996 32.8616 145.045 32.9796 145.133 33.0667C145.22 33.1537 145.338 33.2026 145.461 33.2026C145.585 33.2026 145.703 33.1537 145.79 33.0667C145.878 32.9796 145.927 32.8616 145.927 32.7386V31.1486H147.518C147.641 31.1486 147.759 31.0997 147.847 31.0127C147.934 30.9256 147.983 30.8076 147.983 30.6846C147.983 30.5615 147.934 30.4435 147.847 30.3565C147.759 30.2695 147.641 30.2206 147.518 30.2206H147.517Z" fill="#BDE7FF"/>
<path d="M56.6979 177.272C56.7073 178.336 56.4 179.379 55.815 180.269C55.2299 181.159 54.3936 181.855 53.4115 182.271C52.4295 182.687 51.3458 182.803 50.2976 182.604C49.2495 182.406 48.284 181.902 47.5231 181.156C46.7622 180.41 46.2402 179.456 46.023 178.414C45.806 177.372 45.9034 176.289 46.3031 175.303C46.7029 174.316 47.387 173.47 48.269 172.871C49.1508 172.273 50.191 171.948 51.2578 171.939C52.6882 171.927 54.065 172.482 55.0852 173.482C56.1054 174.482 56.6855 175.845 56.6979 177.272Z" fill="#4CA443"/>
<path d="M48.9329 177.591L51.0744 179.626L53.8817 175.783" stroke="white" stroke-width="1.684" stroke-linecap="round" stroke-linejoin="round"/>
<path d="M340.616 104.329C340.627 105.578 340.266 106.803 339.58 107.848C338.893 108.893 337.91 109.711 336.757 110.2C335.604 110.688 334.332 110.824 333.101 110.591C331.869 110.358 330.736 109.766 329.842 108.89C328.949 108.014 328.335 106.894 328.081 105.67C327.826 104.447 327.94 103.176 328.41 102.017C328.879 100.858 329.682 99.8642 330.718 99.161C331.753 98.4577 332.974 98.0765 334.227 98.0656C335.059 98.0583 335.884 98.2146 336.655 98.5254C337.427 98.8362 338.129 99.2955 338.722 99.8771C339.316 100.459 339.788 101.152 340.113 101.915C340.439 102.679 340.609 103.499 340.616 104.329Z" fill="#4CA443"/>
<path d="M331.495 104.704L334.01 107.094L337.303 102.58" stroke="white" stroke-width="1.978" stroke-linecap="round" stroke-linejoin="round"/>
<g opacity="0.25">
<path opacity="0.25" d="M266.273 62.5706V193.611C266.272 196.34 265.185 198.957 263.25 200.887C261.315 202.817 258.692 203.901 255.955 203.902H95.4667C92.7308 203.9 90.1075 202.815 88.1729 200.886C86.2383 198.956 85.1503 196.34 85.148 193.611V62.5706C85.1473 61.2189 85.4139 59.8803 85.9323 58.6314C86.4506 57.3825 87.2107 56.2477 88.169 55.2919C89.1273 54.3361 90.265 53.578 91.5173 53.0609C92.7694 52.5439 94.1114 52.278 95.4667 52.2786H255.955C257.311 52.278 258.652 52.5439 259.905 53.061C261.157 53.578 262.295 54.3361 263.253 55.2919C264.211 56.2477 264.971 57.3825 265.489 58.6314C266.008 59.8804 266.274 61.2189 266.273 62.5706Z" fill="#594157"/>
<path opacity="0.25" d="M266.273 62.5706V80.8916H85.148V62.5706C85.1473 61.2189 85.4139 59.8803 85.9323 58.6314C86.4506 57.3825 87.2107 56.2477 88.169 55.2919C89.1273 54.3361 90.265 53.578 91.5173 53.0609C92.7694 52.5439 94.1114 52.278 95.4667 52.2786H255.955C257.311 52.278 258.652 52.5439 259.905 53.061C261.157 53.578 262.295 54.3361 263.253 55.2919C264.211 56.2477 264.971 57.3825 265.489 58.6314C266.008 59.8804 266.274 61.2189 266.273 62.5706Z" fill="#594157"/>
<path opacity="0.25" d="M110.643 89.0016H94.6616C93.3748 89.0016 92.3315 90.0421 92.3315 91.3256V107.266C92.3315 108.55 93.3748 109.59 94.6616 109.59H110.643C111.93 109.59 112.973 108.55 112.973 107.266V91.3256C112.973 90.0421 111.93 89.0016 110.643 89.0016Z" fill="#594157"/>
<path opacity="0.25" d="M140.051 89.0016H124.07C122.783 89.0016 121.74 90.0421 121.74 91.3256V107.266C121.74 108.55 122.783 109.59 124.07 109.59H140.051C141.339 109.59 142.381 108.55 142.381 107.266V91.3256C142.381 90.0421 141.339 89.0016 140.051 89.0016Z" fill="#594157"/>
<path opacity="0.25" d="M169.459 89.0016H153.477C152.191 89.0016 151.147 90.0421 151.147 91.3256V107.266C151.147 108.55 152.191 109.59 153.477 109.59H169.459C170.746 109.59 171.789 108.55 171.789 107.266V91.3256C171.789 90.0421 170.746 89.0016 169.459 89.0016Z" fill="#594157"/>
<path opacity="0.25" d="M198.867 89.0016H182.886C181.599 89.0016 180.556 90.0421 180.556 91.3256V107.266C180.556 108.55 181.599 109.59 182.886 109.59H198.867C200.155 109.59 201.197 108.55 201.197 107.266V91.3256C201.197 90.0421 200.155 89.0016 198.867 89.0016Z" fill="#594157"/>
<path opacity="0.25" d="M228.275 89.0016H212.294C211.008 89.0016 209.964 90.0421 209.964 91.3256V107.266C209.964 108.55 211.008 109.59 212.294 109.59H228.275C229.563 109.59 230.605 108.55 230.605 107.266V91.3256C230.605 90.0421 229.563 89.0016 228.275 89.0016Z" stroke="#594157" stroke-width="1.302" stroke-miterlimit="10"/>
<path opacity="0.25" d="M257.684 89.0016H241.702C240.416 89.0016 239.372 90.0421 239.372 91.3256V107.266C239.372 108.55 240.416 109.59 241.702 109.59H257.684C258.971 109.59 260.014 108.55 260.014 107.266V91.3256C260.014 90.0421 258.971 89.0016 257.684 89.0016Z" fill="#594157"/>
<path opacity="0.25" d="M94.6616 116.626H110.643C111.262 116.626 111.854 116.871 112.291 117.307C112.728 117.743 112.974 118.334 112.974 118.951V134.89C112.974 135.506 112.728 136.098 112.292 136.533C111.855 136.969 111.263 137.214 110.644 137.214H94.6626C94.0445 137.214 93.4517 136.969 93.0146 136.533C92.5775 136.098 92.3318 135.506 92.3315 134.89V118.95C92.3315 118.334 92.577 117.743 93.014 117.307C93.4509 116.871 94.0436 116.626 94.6616 116.626Z" fill="#594157"/>
<path opacity="0.25" d="M124.07 116.626H140.051C140.67 116.626 141.262 116.871 141.7 117.307C142.137 117.743 142.382 118.334 142.382 118.951V134.89C142.382 135.506 142.137 136.098 141.701 136.533C141.263 136.969 140.671 137.214 140.052 137.214H124.071C123.453 137.214 122.861 136.969 122.424 136.533C121.986 136.098 121.74 135.506 121.74 134.89V118.95C121.74 118.334 121.985 117.743 122.423 117.307C122.86 116.871 123.452 116.626 124.07 116.626Z" fill="#594157"/>
<path opacity="0.25" d="M169.459 116.626H153.477C152.191 116.626 151.147 117.667 151.147 118.95V134.89C151.147 136.174 152.191 137.214 153.477 137.214H169.459C170.746 137.214 171.789 136.174 171.789 134.89V118.95C171.789 117.667 170.746 116.626 169.459 116.626Z" stroke="#594157" stroke-width="1.302" stroke-miterlimit="10"/>
<path opacity="0.25" d="M182.886 116.626H198.867C199.486 116.626 200.078 116.871 200.515 117.307C200.953 117.743 201.198 118.334 201.198 118.951V134.89C201.198 135.506 200.953 136.098 200.517 136.533C200.079 136.969 199.487 137.214 198.868 137.214H182.887C182.269 137.214 181.677 136.969 181.239 136.533C180.802 136.098 180.557 135.506 180.556 134.89V118.95C180.556 118.334 180.801 117.743 181.238 117.307C181.676 116.871 182.268 116.626 182.886 116.626Z" fill="#594157"/>
<path opacity="0.25" d="M212.294 116.626H228.275C228.894 116.626 229.487 116.871 229.924 117.307C230.361 117.743 230.606 118.334 230.606 118.951V134.89C230.606 135.506 230.361 136.098 229.925 136.533C229.488 136.969 228.895 137.214 228.276 137.214H212.295C211.677 137.214 211.085 136.969 210.648 136.533C210.211 136.098 209.965 135.506 209.964 134.89V118.95C209.964 118.334 210.21 117.743 210.647 117.307C211.084 116.871 211.676 116.626 212.294 116.626Z" fill="#594157"/>
<path opacity="0.25" d="M241.702 116.626H257.684C257.991 116.626 258.293 116.686 258.576 116.803C258.859 116.92 259.116 117.091 259.332 117.307C259.548 117.523 259.72 117.779 259.836 118.061C259.954 118.343 260.014 118.645 260.014 118.95V134.89C260.014 135.507 259.768 136.098 259.331 136.534C258.894 136.97 258.301 137.215 257.683 137.215H241.702C241.397 137.215 241.094 137.155 240.811 137.038C240.528 136.921 240.272 136.75 240.055 136.534C239.839 136.318 239.667 136.062 239.55 135.78C239.432 135.498 239.372 135.195 239.372 134.89V118.95C239.372 118.334 239.618 117.743 240.055 117.307C240.492 116.871 241.085 116.626 241.702 116.626Z" fill="#594157"/>
<path opacity="0.25" d="M94.6616 144.25H110.643C110.949 144.25 111.252 144.31 111.535 144.427C111.818 144.544 112.075 144.715 112.291 144.931C112.507 145.147 112.678 145.403 112.795 145.685C112.913 145.967 112.973 146.269 112.973 146.574V162.514C112.973 162.819 112.913 163.121 112.795 163.403C112.678 163.685 112.507 163.942 112.291 164.157C112.075 164.373 111.818 164.544 111.535 164.661C111.252 164.778 110.949 164.838 110.643 164.838H94.6626C94.0445 164.838 93.4517 164.593 93.0146 164.157C92.5775 163.722 92.3318 163.13 92.3315 162.514V146.574C92.3315 145.958 92.577 145.367 93.014 144.931C93.4509 144.495 94.0436 144.25 94.6616 144.25Z" fill="#594157"/>
<path opacity="0.25" d="M140.051 144.25H124.07C122.783 144.25 121.74 145.291 121.74 146.574V162.514C121.74 163.798 122.783 164.838 124.07 164.838H140.051C141.339 164.838 142.381 163.798 142.381 162.514V146.574C142.381 145.291 141.339 144.25 140.051 144.25Z" fill="#594157"/>
<path opacity="0.25" d="M153.477 144.25H169.459C169.765 144.25 170.068 144.31 170.351 144.427C170.634 144.544 170.89 144.715 171.107 144.931C171.323 145.147 171.495 145.403 171.611 145.685C171.729 145.967 171.789 146.269 171.789 146.574V162.514C171.789 162.819 171.729 163.121 171.611 163.403C171.495 163.685 171.323 163.942 171.107 164.157C170.89 164.373 170.634 164.544 170.351 164.661C170.068 164.778 169.765 164.838 169.459 164.838H153.478C152.861 164.838 152.268 164.593 151.831 164.157C151.394 163.722 151.148 163.13 151.147 162.514V146.574C151.147 145.958 151.393 145.367 151.83 144.931C152.267 144.495 152.86 144.25 153.477 144.25Z" fill="#594157"/>
<path opacity="0.25" d="M182.886 144.25H198.867C199.174 144.25 199.477 144.31 199.76 144.427C200.042 144.544 200.299 144.715 200.515 144.931C200.731 145.147 200.904 145.403 201.02 145.685C201.137 145.967 201.197 146.269 201.197 146.574V162.514C201.197 163.131 200.952 163.722 200.515 164.158C200.077 164.594 199.485 164.839 198.866 164.839H182.886C182.58 164.839 182.277 164.779 181.994 164.662C181.712 164.545 181.454 164.374 181.238 164.158C181.022 163.942 180.85 163.686 180.733 163.404C180.616 163.122 180.556 162.819 180.556 162.514V146.574C180.556 145.958 180.801 145.367 181.238 144.931C181.676 144.495 182.268 144.25 182.886 144.25Z" fill="#594157"/>
<path opacity="0.25" d="M228.275 144.25H212.294C211.008 144.25 209.964 145.291 209.964 146.574V162.514C209.964 163.798 211.008 164.838 212.294 164.838H228.275C229.563 164.838 230.605 163.798 230.605 162.514V146.574C230.605 145.291 229.563 144.25 228.275 144.25Z" fill="#594157"/>
<path opacity="0.25" d="M241.702 144.25H257.684C257.991 144.25 258.293 144.31 258.576 144.427C258.859 144.544 259.116 144.715 259.332 144.931C259.548 145.147 259.72 145.403 259.836 145.685C259.954 145.967 260.014 146.269 260.014 146.574V162.514C260.014 162.819 259.954 163.121 259.836 163.403C259.72 163.685 259.548 163.942 259.332 164.157C259.116 164.373 258.859 164.544 258.576 164.661C258.293 164.778 257.991 164.838 257.684 164.838H241.703C241.086 164.838 240.493 164.593 240.056 164.157C239.619 163.722 239.373 163.13 239.372 162.514V146.574C239.372 145.958 239.618 145.367 240.055 144.931C240.492 144.495 241.085 144.25 241.702 144.25Z" fill="#594157"/>
<path opacity="0.25" d="M94.6626 171.874H110.643C110.949 171.874 111.252 171.934 111.535 172.051C111.818 172.168 112.075 172.339 112.291 172.555C112.507 172.771 112.678 173.027 112.795 173.309C112.913 173.591 112.973 173.893 112.973 174.198V190.138C112.973 190.443 112.913 190.745 112.795 191.027C112.678 191.309 112.507 191.566 112.291 191.781C112.075 191.997 111.818 192.168 111.535 192.285C111.252 192.402 110.949 192.462 110.643 192.462H94.6616C94.3556 192.462 94.0526 192.402 93.7699 192.285C93.4872 192.168 93.2304 191.997 93.014 191.781C92.7976 191.566 92.626 191.309 92.5089 191.027C92.3918 190.745 92.3315 190.443 92.3315 190.138V174.199C92.3315 173.582 92.5771 172.991 93.0143 172.555C93.4515 172.119 94.0444 171.874 94.6626 171.874Z" stroke="#594157" stroke-width="1.302" stroke-miterlimit="10"/>
<path opacity="0.25" d="M124.071 171.874H140.051C140.357 171.874 140.661 171.934 140.944 172.051C141.226 172.168 141.483 172.339 141.7 172.555C141.915 172.771 142.088 173.027 142.204 173.309C142.321 173.591 142.381 173.893 142.381 174.198V190.138C142.381 190.443 142.321 190.745 142.204 191.027C142.088 191.309 141.915 191.566 141.7 191.781C141.483 191.997 141.226 192.168 140.944 192.285C140.661 192.402 140.357 192.462 140.051 192.462H124.07C123.764 192.462 123.461 192.402 123.178 192.285C122.896 192.168 122.639 191.997 122.423 191.781C122.206 191.566 122.035 191.309 121.917 191.027C121.8 190.745 121.74 190.443 121.74 190.138V174.199C121.74 173.582 121.985 172.991 122.423 172.555C122.86 172.119 123.453 171.874 124.071 171.874Z" fill="#594157"/>
<path opacity="0.25" d="M153.477 171.874H169.459C170.077 171.874 170.67 172.119 171.107 172.555C171.544 172.991 171.79 173.582 171.79 174.199V190.138C171.79 190.754 171.544 191.346 171.108 191.781C170.671 192.217 170.078 192.462 169.46 192.462H153.477C153.171 192.462 152.869 192.402 152.586 192.285C152.303 192.168 152.047 191.997 151.83 191.781C151.613 191.566 151.442 191.309 151.325 191.027C151.207 190.745 151.147 190.443 151.147 190.138V174.198C151.147 173.582 151.393 172.991 151.83 172.555C152.267 172.119 152.86 171.874 153.477 171.874Z" fill="#594157"/>
<path opacity="0.25" d="M198.867 171.874H182.886C181.599 171.874 180.556 172.915 180.556 174.198V190.138C180.556 191.422 181.599 192.462 182.886 192.462H198.867C200.155 192.462 201.197 191.422 201.197 190.138V174.198C201.197 172.915 200.155 171.874 198.867 171.874Z" fill="#594157"/>
<path opacity="0.25" d="M212.295 171.874H228.275C228.582 171.874 228.885 171.934 229.168 172.051C229.45 172.168 229.707 172.339 229.924 172.555C230.139 172.771 230.312 173.027 230.428 173.309C230.545 173.591 230.605 173.893 230.605 174.198V190.138C230.605 190.443 230.545 190.745 230.428 191.027C230.312 191.309 230.139 191.566 229.924 191.781C229.707 191.997 229.45 192.168 229.168 192.285C228.885 192.402 228.582 192.462 228.275 192.462H212.294C211.988 192.462 211.685 192.402 211.403 192.285C211.12 192.168 210.863 191.997 210.647 191.781C210.43 191.566 210.259 191.309 210.141 191.027C210.024 190.745 209.964 190.443 209.964 190.138V174.199C209.964 173.582 210.21 172.991 210.647 172.555C211.084 172.119 211.677 171.874 212.295 171.874Z" fill="#594157"/>
<path opacity="0.25" d="M241.702 171.874H257.684C258.302 171.874 258.895 172.119 259.332 172.555C259.769 172.991 260.015 173.582 260.015 174.199V190.138C260.015 190.754 259.77 191.346 259.333 191.781C258.896 192.217 258.303 192.462 257.685 192.462H241.702C241.397 192.462 241.094 192.402 240.811 192.285C240.528 192.168 240.272 191.997 240.055 191.781C239.839 191.566 239.667 191.309 239.55 191.027C239.432 190.745 239.372 190.443 239.372 190.138V174.198C239.372 173.582 239.618 172.991 240.055 172.555C240.492 172.119 241.085 171.874 241.702 171.874Z" fill="#594157"/>
<path opacity="0.25" d="M99.8078 68.2377C99.8078 68.9782 99.5877 69.702 99.1752 70.3177C98.7627 70.9334 98.1764 71.4133 97.4905 71.6967C96.8047 71.9801 96.0499 72.0542 95.3217 71.9097C94.5936 71.7653 93.9247 71.4087 93.3997 70.8851C92.8747 70.3615 92.5173 69.6944 92.3724 68.9681C92.2276 68.2418 92.302 67.489 92.586 66.8049C92.8701 66.1208 93.3513 65.536 93.9686 65.1246C94.5859 64.7132 95.3117 64.4937 96.054 64.4937C97.0496 64.4937 98.0044 64.8881 98.7083 65.5903C99.4123 66.2924 99.8078 67.2447 99.8078 68.2377Z" fill="#594157"/>
<path opacity="0.25" d="M131.77 68.2377C131.77 68.9782 131.55 69.702 131.137 70.3177C130.725 70.9334 130.139 71.4133 129.453 71.6967C128.767 71.9801 128.012 72.0542 127.284 71.9097C126.556 71.7653 125.888 71.4087 125.362 70.8851C124.837 70.3615 124.48 69.6944 124.335 68.9681C124.19 68.2418 124.264 67.489 124.548 66.8049C124.833 66.1208 125.314 65.536 125.931 65.1246C126.548 64.7132 127.274 64.4937 128.016 64.4937C129.012 64.4937 129.967 64.8881 130.671 65.5903C131.375 66.2924 131.77 67.2447 131.77 68.2377Z" fill="#594157"/>
<path opacity="0.25" d="M163.738 68.2377C163.738 68.9782 163.518 69.702 163.105 70.3177C162.693 70.9334 162.107 71.4133 161.421 71.6967C160.735 71.9801 159.98 72.0542 159.252 71.9097C158.523 71.7653 157.855 71.4087 157.33 70.8851C156.805 70.3615 156.448 69.6944 156.303 68.9681C156.158 68.2418 156.232 67.489 156.516 66.8049C156.8 66.1208 157.281 65.536 157.899 65.1246C158.516 64.7132 159.242 64.4937 159.984 64.4937C160.98 64.4937 161.934 64.8881 162.639 65.5903C163.343 66.2924 163.738 67.2447 163.738 68.2377Z" fill="#594157"/>
<path opacity="0.25" d="M195.703 68.2377C195.703 68.9782 195.482 69.702 195.07 70.3177C194.658 70.9334 194.072 71.4133 193.386 71.6967C192.7 71.9801 191.945 72.0542 191.217 71.9097C190.488 71.7653 189.82 71.4087 189.295 70.8851C188.77 70.3615 188.412 69.6944 188.268 68.9681C188.122 68.2418 188.197 67.489 188.481 66.8049C188.765 66.1208 189.246 65.536 189.864 65.1246C190.481 64.7132 191.206 64.4937 191.949 64.4937C192.442 64.4937 192.93 64.5905 193.386 64.7787C193.841 64.9668 194.255 65.2426 194.603 65.5903C194.952 65.9379 195.229 66.3507 195.417 66.8049C195.606 67.2591 195.703 67.746 195.703 68.2377Z" fill="#594157"/>
<path opacity="0.25" d="M227.668 68.2377C227.668 68.9782 227.448 69.702 227.035 70.3177C226.623 70.9334 226.037 71.4133 225.351 71.6967C224.665 71.9801 223.91 72.0542 223.182 71.9097C222.454 71.7653 221.785 71.4087 221.26 70.8851C220.735 70.3615 220.378 69.6944 220.232 68.9681C220.088 68.2418 220.162 67.489 220.446 66.8049C220.731 66.1208 221.212 65.536 221.829 65.1246C222.446 64.7132 223.172 64.4937 223.914 64.4937C224.91 64.4937 225.865 64.8881 226.569 65.5903C227.273 66.2924 227.668 67.2447 227.668 68.2377Z" fill="#594157"/>
<path opacity="0.25" d="M259.633 68.2377C259.633 68.9782 259.413 69.702 259 70.3177C258.588 70.9334 258.002 71.4133 257.316 71.6967C256.63 71.9801 255.875 72.0542 255.147 71.9097C254.418 71.7653 253.75 71.4087 253.225 70.8851C252.7 70.3615 252.343 69.6944 252.198 68.9681C252.053 68.2418 252.127 67.489 252.411 66.8049C252.695 66.1208 253.176 65.536 253.794 65.1246C254.411 64.7132 255.137 64.4937 255.879 64.4937C256.372 64.4937 256.861 64.5905 257.316 64.7787C257.771 64.9668 258.185 65.2426 258.533 65.5903C258.882 65.9379 259.159 66.3507 259.347 66.8049C259.536 67.2591 259.633 67.746 259.633 68.2377Z" fill="#594157"/>
<path opacity="0.25" d="M96.0542 68.2376V50.6616" stroke="#594157" stroke-width="5.414" stroke-miterlimit="10" stroke-linecap="round"/>
<path opacity="0.25" d="M128.019 68.2376V50.6616" stroke="#594157" stroke-width="5.414" stroke-miterlimit="10" stroke-linecap="round"/>
<path opacity="0.25" d="M159.984 68.2376V50.6616" stroke="#594157" stroke-width="5.414" stroke-miterlimit="10" stroke-linecap="round"/>
<path opacity="0.25" d="M223.914 68.2376V50.6616" stroke="#594157" stroke-width="5.414" stroke-miterlimit="10" stroke-linecap="round"/>
<path opacity="0.25" d="M255.879 68.2376V50.6616" stroke="#594157" stroke-width="5.414" stroke-miterlimit="10" stroke-linecap="round"/>
<path opacity="0.25" d="M167.388 149.015C166.789 149.227 166.178 149.405 165.558 149.548C165.997 151.047 166.232 152.598 166.259 154.159H169.579C169.491 152.239 168.715 150.414 167.393 149.015H167.388ZM164.643 147.101C164.905 147.661 165.135 148.235 165.332 148.821C165.818 148.708 166.296 148.579 166.765 148.421C166.134 147.868 165.417 147.422 164.642 147.101H164.643ZM163.624 146.738C163.045 146.58 162.45 146.487 161.85 146.463V149.241C162.765 149.228 163.678 149.139 164.578 148.974C164.315 148.206 163.996 147.459 163.623 146.738H163.624ZM164.806 149.71C163.831 149.891 162.843 149.988 161.851 150V154.159H165.495C165.471 152.651 165.24 151.154 164.805 149.71H164.806ZM161.47 146.455C161.34 146.455 161.219 146.455 161.089 146.463H161.85C161.72 146.455 161.598 146.455 161.469 146.455H161.47ZM159.315 146.738C158.943 147.457 158.625 148.202 158.36 148.967C159.26 149.135 160.173 149.227 161.088 149.242V146.464C160.488 146.488 159.894 146.58 159.314 146.738H159.315ZM156.174 148.41C156.645 148.568 157.123 148.701 157.607 148.81C157.807 148.228 158.037 147.656 158.296 147.098C157.524 147.421 156.807 147.864 156.173 148.41H156.174ZM158.134 149.702C157.703 151.15 157.472 152.65 157.446 154.16H161.089V150.001C160.097 149.986 159.108 149.886 158.133 149.701L158.134 149.702ZM155.56 149.002C154.231 150.404 153.453 152.235 153.365 154.162H156.685C156.714 152.596 156.947 151.04 157.38 149.534C156.763 149.394 156.154 149.215 155.559 148.999L155.56 149.002ZM161.851 154.921V159.089C162.841 159.104 163.827 159.205 164.799 159.389C165.236 157.939 165.469 156.436 165.495 154.923L161.851 154.921ZM166.256 154.921C166.234 156.486 165.999 158.04 165.555 159.541C166.174 159.687 166.785 159.865 167.385 160.074C168.715 158.675 169.494 156.846 169.58 154.921H166.256ZM157.625 160.276C157.139 160.389 156.654 160.518 156.175 160.676C156.816 161.23 157.54 161.68 158.321 162.009C158.06 161.436 157.826 160.863 157.619 160.273L157.625 160.276ZM165.317 160.268C165.12 160.86 164.887 161.44 164.621 162.005C165.405 161.679 166.131 161.226 166.767 160.664C166.287 160.507 165.8 160.378 165.314 160.264L165.317 160.268ZM161.852 159.848V162.628C162.444 162.598 163.029 162.506 163.601 162.353C163.98 161.633 164.301 160.885 164.564 160.116C163.669 159.949 162.76 159.859 161.849 159.845L161.852 159.848ZM158.378 160.131C158.65 160.896 158.974 161.641 159.35 162.36C159.918 162.515 160.502 162.607 161.09 162.635V159.848C160.18 159.865 159.271 159.958 158.376 160.128L158.378 160.131ZM156.686 154.922H153.366C153.451 156.852 154.23 158.687 155.561 160.091C156.163 159.877 156.777 159.696 157.398 159.549C156.951 158.045 156.711 156.487 156.684 154.918L156.686 154.922ZM157.447 154.922C157.478 156.435 157.713 157.938 158.148 159.388C159.121 159.207 160.107 159.107 161.095 159.088V154.918L157.447 154.922Z" fill="#594157"/>
<path opacity="0.25" d="M161.085 162.628C161.214 162.635 161.336 162.635 161.465 162.635C161.594 162.635 161.716 162.635 161.845 162.628" fill="#594157"/>
<path opacity="0.25" d="M96.5986 100.724L101.575 104.875L108.747 94.9336" stroke="#594157" stroke-width="3.906" stroke-linecap="round" stroke-linejoin="round"/>
<path opacity="0.25" d="M214.784 100.724L219.761 104.875L226.933 94.9336" stroke="#594157" stroke-width="3.906" stroke-linecap="round" stroke-linejoin="round"/>
<path opacity="0.25" d="M125.986 182.362L130.963 186.513L138.134 176.572" stroke="#594157" stroke-width="3.906" stroke-linecap="round" stroke-linejoin="round"/>
</g>
<path d="M262.73 59.0355V190.077C262.728 192.806 261.64 195.422 259.706 197.352C257.771 199.281 255.148 200.367 252.412 200.369H91.9223C89.1864 200.367 86.5633 199.281 84.6288 197.352C82.6943 195.422 81.6066 192.806 81.6045 190.077V59.0355C81.604 57.6839 81.8705 56.3455 82.3887 55.0967C82.9071 53.8479 83.6672 52.7132 84.6253 51.7575C85.5835 50.8018 86.7212 50.0438 87.9732 49.5268C89.2252 49.0098 90.5672 48.744 91.9223 48.7445H252.412C253.768 48.744 255.109 49.0098 256.361 49.5268C257.614 50.0438 258.751 50.8018 259.709 51.7575C260.668 52.7132 261.428 53.8479 261.946 55.0967C262.464 56.3455 262.731 57.6839 262.73 59.0355Z" fill="white"/>
<path d="M262.73 59.0355V77.3565H81.6045V59.0355C81.604 57.6839 81.8705 56.3455 82.3887 55.0967C82.9071 53.8479 83.6672 52.7132 84.6253 51.7575C85.5835 50.8018 86.7212 50.0438 87.9732 49.5268C89.2252 49.0098 90.5672 48.744 91.9223 48.7445H252.412C253.768 48.744 255.109 49.0098 256.361 49.5268C257.614 50.0438 258.751 50.8018 259.709 51.7575C260.668 52.7132 261.428 53.8479 261.946 55.0967C262.464 56.3455 262.731 57.6839 262.73 59.0355Z" fill="#4CA443"/>
<path d="M91.1181 85.4675H107.1C107.405 85.4675 107.708 85.5277 107.991 85.6444C108.274 85.7612 108.531 85.9324 108.747 86.1482C108.963 86.364 109.135 86.6202 109.252 86.9022C109.37 87.1841 109.43 87.4863 109.43 87.7915V103.732C109.43 104.037 109.37 104.339 109.252 104.621C109.135 104.903 108.963 105.159 108.747 105.375C108.531 105.591 108.274 105.762 107.991 105.879C107.708 105.996 107.405 106.056 107.1 106.056H91.1191C90.5009 106.056 89.908 105.811 89.4709 105.375C89.0337 104.939 88.7881 104.348 88.7881 103.731V87.7915C88.7881 87.1752 89.0336 86.5841 89.4706 86.1482C89.9075 85.7124 90.5002 85.4675 91.1181 85.4675Z" fill="#E4E4E4"/>
<path d="M136.508 85.4675H120.527C119.24 85.4675 118.197 86.508 118.197 87.7915V103.732C118.197 105.015 119.24 106.056 120.527 106.056H136.508C137.795 106.056 138.838 105.015 138.838 103.732V87.7915C138.838 86.508 137.795 85.4675 136.508 85.4675Z" fill="#E4E4E4"/>
<path d="M165.917 85.4675H149.935C148.649 85.4675 147.605 86.508 147.605 87.7915V103.732C147.605 105.015 148.649 106.056 149.935 106.056H165.917C167.204 106.056 168.247 105.015 168.247 103.732V87.7915C168.247 86.508 167.204 85.4675 165.917 85.4675Z" fill="#E4E4E4"/>
<path d="M195.324 85.4675H179.342C178.056 85.4675 177.012 86.508 177.012 87.7915V103.732C177.012 105.015 178.056 106.056 179.342 106.056H195.324C196.611 106.056 197.654 105.015 197.654 103.732V87.7915C197.654 86.508 196.611 85.4675 195.324 85.4675Z" fill="#E4E4E4"/>
<path d="M224.732 85.4675H208.751C207.464 85.4675 206.421 86.508 206.421 87.7915V103.732C206.421 105.015 207.464 106.056 208.751 106.056H224.732C226.02 106.056 227.062 105.015 227.062 103.732V87.7915C227.062 86.508 226.02 85.4675 224.732 85.4675Z" stroke="#E4E4E4" stroke-width="1.302" stroke-miterlimit="10"/>
<path d="M254.141 85.4675H238.159C236.873 85.4675 235.829 86.508 235.829 87.7915V103.732C235.829 105.015 236.873 106.056 238.159 106.056H254.141C255.428 106.056 256.471 105.015 256.471 103.732V87.7915C256.471 86.508 255.428 85.4675 254.141 85.4675Z" fill="#E4E4E4"/>
<path d="M91.1191 113.092H107.1C107.405 113.092 107.708 113.152 107.991 113.269C108.274 113.386 108.531 113.557 108.747 113.773C108.963 113.988 109.135 114.245 109.252 114.527C109.37 114.809 109.43 115.111 109.43 115.416V131.356C109.43 131.973 109.184 132.564 108.747 133C108.31 133.436 107.717 133.681 107.099 133.681H91.1191C90.5009 133.681 89.908 133.436 89.4709 133C89.0337 132.564 88.7881 131.973 88.7881 131.356V115.417C88.7881 114.8 89.0337 114.209 89.4709 113.773C89.908 113.337 90.5009 113.092 91.1191 113.092Z" fill="#E4E4E4"/>
<path d="M120.528 113.092H136.508C136.814 113.092 137.117 113.152 137.399 113.269C137.682 113.386 137.94 113.557 138.155 113.773C138.372 113.988 138.543 114.245 138.661 114.527C138.778 114.809 138.838 115.111 138.838 115.416V131.356C138.838 131.661 138.778 131.963 138.661 132.245C138.543 132.527 138.372 132.783 138.155 132.999C137.94 133.215 137.682 133.386 137.399 133.503C137.117 133.62 136.814 133.68 136.508 133.68H120.527C120.221 133.68 119.918 133.62 119.635 133.503C119.353 133.386 119.096 133.215 118.879 132.999C118.663 132.783 118.491 132.527 118.374 132.245C118.257 131.963 118.197 131.661 118.197 131.356V115.417C118.197 114.8 118.442 114.209 118.879 113.773C119.316 113.337 119.909 113.092 120.528 113.092Z" fill="#E4E4E4"/>
<path d="M149.936 113.092H165.917C166.222 113.092 166.525 113.152 166.808 113.269C167.091 113.386 167.348 113.557 167.564 113.773C167.78 113.988 167.952 114.245 168.069 114.527C168.186 114.809 168.247 115.111 168.247 115.416V131.356C168.247 131.661 168.186 131.963 168.069 132.245C167.952 132.527 167.78 132.783 167.564 132.999C167.348 133.215 167.091 133.386 166.808 133.503C166.525 133.62 166.222 133.68 165.917 133.68H149.935C149.629 133.68 149.326 133.62 149.044 133.503C148.761 133.386 148.504 133.215 148.288 132.999C148.071 132.783 147.9 132.527 147.782 132.245C147.665 131.963 147.605 131.661 147.605 131.356V115.417C147.605 114.8 147.851 114.209 148.288 113.773C148.725 113.337 149.317 113.092 149.936 113.092Z" stroke="#E4E4E4" stroke-width="1.302" stroke-miterlimit="10"/>
<path d="M179.342 113.092H195.324C195.942 113.092 196.535 113.337 196.972 113.773C197.409 114.209 197.655 114.8 197.655 115.417V131.356C197.655 131.972 197.409 132.563 196.972 132.999C196.536 133.435 195.942 133.68 195.325 133.68H179.343C178.726 133.68 178.132 133.435 177.695 132.999C177.258 132.564 177.012 131.972 177.012 131.356V115.416C177.012 114.8 177.258 114.208 177.695 113.773C178.132 113.337 178.725 113.092 179.342 113.092Z" fill="#E4E4E4"/>
<path d="M208.752 113.092H224.732C225.038 113.092 225.342 113.152 225.625 113.269C225.906 113.386 226.164 113.557 226.379 113.773C226.596 113.988 226.768 114.245 226.885 114.527C227.002 114.809 227.062 115.111 227.062 115.416V131.356C227.062 131.661 227.002 131.963 226.885 132.245C226.768 132.527 226.596 132.783 226.379 132.999C226.164 133.215 225.906 133.386 225.625 133.503C225.342 133.62 225.038 133.68 224.732 133.68H208.751C208.445 133.68 208.142 133.62 207.859 133.503C207.577 133.386 207.32 133.215 207.103 132.999C206.887 132.783 206.715 132.527 206.598 132.245C206.481 131.963 206.421 131.661 206.421 131.356V115.417C206.421 114.8 206.666 114.209 207.103 113.773C207.541 113.337 208.134 113.092 208.752 113.092Z" fill="#E4E4E4"/>
<path d="M238.159 113.092H254.141C254.759 113.092 255.352 113.337 255.789 113.773C256.226 114.209 256.472 114.8 256.472 115.417V131.356C256.472 131.973 256.226 132.564 255.789 133C255.352 133.436 254.759 133.681 254.141 133.681H238.159C237.853 133.681 237.551 133.621 237.268 133.504C236.985 133.387 236.727 133.216 236.512 133C236.295 132.784 236.124 132.528 236.007 132.246C235.889 131.964 235.829 131.661 235.829 131.356V115.416C235.829 114.8 236.075 114.208 236.512 113.773C236.949 113.337 237.542 113.092 238.159 113.092Z" fill="#E4E4E4"/>
<path d="M91.1181 140.716H107.1C107.405 140.716 107.708 140.776 107.991 140.893C108.274 141.01 108.531 141.181 108.747 141.397C108.963 141.612 109.135 141.869 109.252 142.151C109.37 142.433 109.43 142.735 109.43 143.04V158.98C109.43 159.597 109.184 160.188 108.747 160.624C108.31 161.06 107.717 161.305 107.099 161.305H91.1191C90.5009 161.305 89.908 161.06 89.4709 160.624C89.0337 160.188 88.7881 159.597 88.7881 158.98V143.04C88.7881 142.424 89.0336 141.833 89.4706 141.397C89.9075 140.961 90.5002 140.716 91.1181 140.716Z" fill="#E4E4E4"/>
<path d="M120.527 140.716H136.508C136.814 140.716 137.117 140.776 137.399 140.893C137.682 141.01 137.94 141.181 138.155 141.397C138.372 141.612 138.543 141.869 138.661 142.151C138.778 142.433 138.838 142.735 138.838 143.04V158.98C138.838 159.285 138.778 159.587 138.661 159.869C138.543 160.151 138.372 160.407 138.155 160.623C137.94 160.839 137.682 161.01 137.399 161.127C137.117 161.244 136.814 161.304 136.508 161.304H120.528C119.91 161.304 119.316 161.059 118.879 160.623C118.442 160.188 118.197 159.596 118.197 158.98V143.04C118.197 142.424 118.442 141.833 118.879 141.397C119.316 140.961 119.909 140.716 120.527 140.716Z" fill="#E4E4E4"/>
<path d="M149.935 140.716H165.917C166.222 140.716 166.525 140.776 166.808 140.893C167.091 141.01 167.348 141.181 167.564 141.397C167.78 141.612 167.952 141.869 168.069 142.151C168.186 142.433 168.247 142.735 168.247 143.04V158.98C168.247 159.285 168.186 159.587 168.069 159.869C167.952 160.151 167.78 160.407 167.564 160.623C167.348 160.839 167.091 161.01 166.808 161.127C166.525 161.244 166.222 161.304 165.917 161.304H149.936C149.318 161.304 148.725 161.059 148.288 160.623C147.851 160.188 147.605 159.596 147.605 158.98V143.04C147.605 142.424 147.851 141.833 148.288 141.397C148.725 140.961 149.317 140.716 149.935 140.716Z" fill="#E4E4E4"/>
<path d="M179.342 140.716H195.324C195.63 140.716 195.933 140.776 196.215 140.893C196.498 141.01 196.755 141.181 196.971 141.397C197.188 141.612 197.359 141.869 197.476 142.151C197.594 142.433 197.654 142.735 197.654 143.04V158.98C197.654 159.597 197.408 160.188 196.971 160.624C196.534 161.06 195.941 161.305 195.323 161.305H179.342C179.036 161.305 178.734 161.245 178.451 161.128C178.168 161.011 177.911 160.84 177.694 160.624C177.478 160.408 177.306 160.152 177.19 159.87C177.072 159.588 177.012 159.285 177.012 158.98V143.04C177.012 142.424 177.258 141.833 177.695 141.397C178.132 140.961 178.725 140.716 179.342 140.716Z" fill="#E4E4E4"/>
<path d="M208.751 140.716H224.732C225.038 140.716 225.342 140.776 225.625 140.893C225.906 141.01 226.164 141.181 226.379 141.397C226.596 141.612 226.768 141.869 226.885 142.151C227.002 142.433 227.062 142.735 227.062 143.04V158.98C227.062 159.285 227.002 159.587 226.885 159.869C226.768 160.151 226.596 160.407 226.379 160.623C226.164 160.839 225.906 161.01 225.625 161.127C225.342 161.244 225.038 161.304 224.732 161.304H208.752C208.134 161.304 207.541 161.059 207.103 160.623C206.667 160.188 206.421 159.596 206.421 158.98V143.04C206.421 142.424 206.666 141.833 207.103 141.397C207.541 140.961 208.133 140.716 208.751 140.716Z" fill="#E4E4E4"/>
<path d="M238.159 140.716H254.141C254.446 140.716 254.75 140.776 255.033 140.893C255.316 141.01 255.572 141.181 255.789 141.397C256.005 141.612 256.176 141.869 256.293 142.151C256.411 142.433 256.471 142.735 256.471 143.04V158.98C256.471 159.285 256.411 159.587 256.293 159.869C256.176 160.151 256.005 160.407 255.789 160.623C255.572 160.839 255.316 161.01 255.033 161.127C254.75 161.244 254.446 161.304 254.141 161.304H238.16C237.543 161.304 236.95 161.059 236.513 160.623C236.076 160.188 235.829 159.596 235.829 158.98V143.04C235.829 142.424 236.075 141.833 236.512 141.397C236.949 140.961 237.542 140.716 238.159 140.716Z" fill="#E4E4E4"/>
<path d="M91.1191 168.34H107.1C107.405 168.34 107.708 168.4 107.991 168.517C108.274 168.634 108.531 168.805 108.747 169.021C108.963 169.236 109.135 169.493 109.252 169.775C109.37 170.056 109.43 170.359 109.43 170.664V186.604C109.43 186.909 109.37 187.211 109.252 187.493C109.135 187.775 108.963 188.031 108.747 188.247C108.531 188.463 108.274 188.634 107.991 188.751C107.708 188.868 107.405 188.928 107.1 188.928H91.1191C90.5011 188.928 89.9083 188.683 89.4712 188.247C89.0341 187.811 88.7884 187.22 88.7881 186.604V170.665C88.7881 170.048 89.0337 169.457 89.4709 169.021C89.908 168.585 90.5009 168.34 91.1191 168.34Z" stroke="#E4E4E4" stroke-width="1.302" stroke-miterlimit="10"/>
<path d="M120.527 168.34H136.508C137.127 168.34 137.719 168.585 138.156 169.021C138.594 169.457 138.839 170.048 138.839 170.665V186.604C138.839 187.22 138.594 187.811 138.156 188.247C137.72 188.683 137.127 188.928 136.509 188.928H120.527C120.221 188.928 119.918 188.868 119.635 188.751C119.353 188.634 119.096 188.463 118.879 188.247C118.663 188.031 118.491 187.775 118.374 187.493C118.257 187.211 118.197 186.909 118.197 186.604V170.664C118.197 170.048 118.442 169.456 118.879 169.021C119.316 168.585 119.909 168.34 120.527 168.34Z" fill="#E4E4E4"/>
<path d="M149.935 168.34H165.917C166.535 168.34 167.128 168.585 167.565 169.021C168.002 169.457 168.248 170.048 168.248 170.665V186.604C168.248 187.22 168.002 187.811 167.565 188.247C167.129 188.683 166.535 188.928 165.918 188.928H149.935C149.629 188.928 149.326 188.868 149.044 188.751C148.761 188.634 148.504 188.463 148.288 188.247C148.071 188.031 147.9 187.775 147.782 187.493C147.665 187.211 147.605 186.909 147.605 186.604V170.664C147.605 170.048 147.851 169.456 148.288 169.021C148.725 168.585 149.317 168.34 149.935 168.34Z" fill="#E4E4E4"/>
<path d="M195.324 168.34H179.342C178.056 168.34 177.012 169.38 177.012 170.664V186.604C177.012 187.887 178.056 188.928 179.342 188.928H195.324C196.611 188.928 197.654 187.887 197.654 186.604V170.664C197.654 169.38 196.611 168.34 195.324 168.34Z" fill="#E4E4E4"/>
<path d="M208.751 168.34H224.732C225.351 168.34 225.943 168.585 226.381 169.021C226.818 169.457 227.063 170.048 227.063 170.665V186.604C227.063 187.22 226.818 187.811 226.381 188.247C225.944 188.683 225.352 188.928 224.733 188.928H208.751C208.445 188.928 208.142 188.868 207.859 188.751C207.577 188.634 207.32 188.463 207.103 188.247C206.887 188.031 206.715 187.775 206.598 187.493C206.481 187.211 206.421 186.909 206.421 186.604V170.664C206.421 170.048 206.666 169.456 207.103 169.021C207.541 168.585 208.133 168.34 208.751 168.34Z" fill="#E4E4E4"/>
<path d="M238.159 168.34H254.141C254.759 168.34 255.352 168.585 255.789 169.021C256.226 169.457 256.472 170.048 256.472 170.665V186.604C256.472 187.22 256.226 187.811 255.79 188.247C255.353 188.683 254.76 188.928 254.142 188.928H238.159C237.853 188.928 237.551 188.868 237.268 188.751C236.985 188.634 236.728 188.463 236.512 188.247C236.295 188.031 236.124 187.775 236.007 187.493C235.889 187.211 235.829 186.909 235.829 186.604V170.664C235.829 170.048 236.075 169.456 236.512 169.021C236.949 168.585 237.542 168.34 238.159 168.34Z" fill="#E4E4E4"/>
<path d="M96.2634 64.7036C96.2634 65.4441 96.0432 66.168 95.6307 66.7837C95.2182 67.3994 94.632 67.8792 93.9461 68.1626C93.2602 68.446 92.5054 68.5201 91.7773 68.3757C91.0491 68.2312 90.3803 67.8746 89.8553 67.351C89.3304 66.8274 88.9728 66.1603 88.828 65.434C88.6832 64.7078 88.7575 63.955 89.0416 63.2708C89.3257 62.5867 89.8068 62.002 90.4241 61.5906C91.0414 61.1792 91.7672 60.9596 92.5096 60.9596C93.5052 60.9596 94.46 61.3541 95.1639 62.0562C95.8678 62.7583 96.2634 63.7106 96.2634 64.7036Z" fill="#BDE7FF"/>
<path d="M124.475 68.4476C126.547 68.4476 128.229 66.7714 128.229 64.7036C128.229 62.6358 126.547 60.9596 124.475 60.9596C122.402 60.9596 120.721 62.6358 120.721 64.7036C120.721 66.7714 122.402 68.4476 124.475 68.4476Z" fill="#BDE7FF"/>
<path d="M156.44 68.4476C158.513 68.4476 160.194 66.7714 160.194 64.7036C160.194 62.6358 158.513 60.9596 156.44 60.9596C154.366 60.9596 152.686 62.6358 152.686 64.7036C152.686 66.7714 154.366 68.4476 156.44 68.4476Z" fill="#BDE7FF"/>
<path d="M192.159 64.7036C192.159 65.4441 191.938 66.168 191.526 66.7837C191.113 67.3994 190.527 67.8792 189.842 68.1626C189.155 68.446 188.401 68.5201 187.672 68.3757C186.944 68.2312 186.275 67.8746 185.75 67.351C185.226 66.8274 184.868 66.1603 184.723 65.434C184.578 64.7078 184.652 63.955 184.937 63.2708C185.221 62.5867 185.702 62.002 186.32 61.5906C186.936 61.1792 187.662 60.9596 188.405 60.9596C189.401 60.9596 190.355 61.3541 191.059 62.0562C191.763 62.7583 192.159 63.7106 192.159 64.7036Z" fill="#BDE7FF"/>
<path d="M224.124 64.7036C224.124 65.4441 223.903 66.168 223.491 66.7837C223.078 67.3994 222.493 67.8792 221.806 68.1626C221.12 68.446 220.365 68.5201 219.637 68.3757C218.909 68.2312 218.241 67.8746 217.715 67.351C217.191 66.8274 216.833 66.1603 216.688 65.434C216.543 64.7078 216.617 63.955 216.902 63.2708C217.186 62.5867 217.667 62.002 218.285 61.5906C218.901 61.1792 219.627 60.9596 220.37 60.9596C220.862 60.9596 221.351 61.0564 221.806 61.2446C222.262 61.4328 222.675 61.7085 223.024 62.0562C223.373 62.4039 223.649 62.8166 223.838 63.2708C224.027 63.7251 224.124 64.2119 224.124 64.7036Z" fill="#BDE7FF"/>
<path d="M256.089 64.7036C256.089 65.4441 255.868 66.168 255.456 66.7837C255.044 67.3994 254.457 67.8792 253.772 68.1626C253.086 68.446 252.331 68.5201 251.603 68.3757C250.874 68.2312 250.205 67.8746 249.681 67.351C249.156 66.8274 248.798 66.1603 248.653 65.434C248.508 64.7078 248.583 63.955 248.867 63.2708C249.151 62.5867 249.632 62.002 250.249 61.5906C250.867 61.1792 251.592 60.9596 252.335 60.9596C253.33 60.9596 254.285 61.3541 254.989 62.0562C255.694 62.7583 256.089 63.7106 256.089 64.7036Z" fill="#BDE7FF"/>
<path d="M92.5098 64.7036V47.1276" stroke="#330000" stroke-width="5.414" stroke-miterlimit="10" stroke-linecap="round"/>
<path d="M124.475 64.7036V47.1276" stroke="#330000" stroke-width="5.414" stroke-miterlimit="10" stroke-linecap="round"/>
<path d="M156.44 64.7036V47.1276" stroke="#330000" stroke-width="5.414" stroke-miterlimit="10" stroke-linecap="round"/>
<path d="M220.37 64.7036V47.1276" stroke="#330000" stroke-width="5.414" stroke-miterlimit="10" stroke-linecap="round"/>
<path d="M252.335 64.7036V47.1276" stroke="#330000" stroke-width="5.414" stroke-miterlimit="10" stroke-linecap="round"/>
<path d="M157.541 159.094C157.67 159.101 157.791 159.101 157.921 159.101C158.05 159.101 158.171 159.101 158.301 159.094" fill="white"/>
<path d="M93.0542 97.1905L98.0311 101.342L105.203 91.4005" stroke="#4CA443" stroke-width="3.906" stroke-linecap="round" stroke-linejoin="round"/>
<path d="M211.241 97.1905L216.218 101.342L223.39 91.4005" stroke="#4CA443" stroke-width="3.906" stroke-linecap="round" stroke-linejoin="round"/>
<path d="M122.443 178.827L127.42 182.978L134.591 173.037" stroke="#4CA443" stroke-width="3.906" stroke-linecap="round" stroke-linejoin="round"/>
<g opacity="0.25">
<path opacity="0.25" d="M226.443 107.92L215.162 114.874L220.327 123.208L231.608 116.254L226.443 107.92Z" fill="#594157"/>
<path opacity="0.25" d="M215.156 114.877C216.458 113.008 218.13 111.425 220.071 110.229C222.011 109.032 224.179 108.247 226.437 107.922L215.156 114.877Z" fill="#594157"/>
<path opacity="0.25" d="M311.438 107.918L306.274 116.252L317.554 123.206L322.72 114.872L311.438 107.918Z" fill="#594157"/>
<path opacity="0.25" d="M322.719 114.877C321.417 113.008 319.745 111.425 317.805 110.229C315.864 109.032 313.697 108.247 311.439 107.922L322.719 114.877Z" fill="#594157"/>
<path opacity="0.25" d="M279.317 100.559H258.565V107.326H279.317V100.559Z" fill="#594157"/>
<path opacity="0.25" d="M283.064 86.8386V100.558H254.817V86.8386C263.912 83.3701 273.969 83.3701 283.064 86.8386Z" fill="#594157"/>
<path opacity="0.25" d="M256.417 100.559V86.8416" stroke="#594157" stroke-width="1.083" stroke-miterlimit="10"/>
<path opacity="0.25" d="M258.671 100.559V86.8416" stroke="#594157" stroke-width="1.083" stroke-miterlimit="10"/>
<path opacity="0.25" d="M260.925 100.559V86.8416" stroke="#594157" stroke-width="1.083" stroke-miterlimit="10"/>
<path opacity="0.25" d="M263.181 100.559V86.8416" stroke="#594157" stroke-width="1.083" stroke-miterlimit="10"/>
<path opacity="0.25" d="M265.436 100.559V86.8416" stroke="#594157" stroke-width="1.083" stroke-miterlimit="10"/>
<path opacity="0.25" d="M267.691 100.559V86.8416" stroke="#594157" stroke-width="1.083" stroke-miterlimit="10"/>
<path opacity="0.25" d="M269.946 100.559V86.8416" stroke="#594157" stroke-width="1.083" stroke-miterlimit="10"/>
<path opacity="0.25" d="M272.2 100.559V86.8416" stroke="#594157" stroke-width="1.083" stroke-miterlimit="10"/>
<path opacity="0.25" d="M274.455 100.559V86.8416" stroke="#594157" stroke-width="1.083" stroke-miterlimit="10"/>
<path opacity="0.25" d="M276.71 100.559V86.8416" stroke="#594157" stroke-width="1.083" stroke-miterlimit="10"/>
<path opacity="0.25" d="M278.965 100.559V86.8416" stroke="#594157" stroke-width="1.083" stroke-miterlimit="10"/>
<path opacity="0.25" d="M281.22 100.559V86.8416" stroke="#594157" stroke-width="1.083" stroke-miterlimit="10"/>
<path opacity="0.25" d="M283.064 86.8386H254.817C263.912 83.3701 273.969 83.3701 283.064 86.8386Z" fill="#594157"/>
<path opacity="0.25" d="M326.767 244.118C358.703 212.264 358.703 160.62 326.767 128.766C294.83 96.9122 243.051 96.9122 211.115 128.766C179.178 160.62 179.178 212.264 211.115 244.118C243.051 275.971 294.83 275.971 326.767 244.118Z" fill="#594157"/>
<path opacity="0.7" d="M321.036 238.402C349.808 209.705 349.808 163.179 321.036 134.482C292.265 105.785 245.616 105.785 216.846 134.482C188.074 163.179 188.074 209.705 216.846 238.402C245.616 267.099 292.265 267.099 321.036 238.402Z" fill="#594157"/>
<path opacity="0.25" d="M319.212 236.584C346.977 208.891 346.977 163.993 319.212 136.3C291.447 108.608 246.432 108.608 218.668 136.3C190.903 163.993 190.903 208.891 218.668 236.584C246.432 264.276 291.447 264.276 319.212 236.584Z" fill="#594157"/>
<path opacity="0.25" d="M335.616 186.441H328.617" stroke="#594157" stroke-width="5.414" stroke-miterlimit="10" stroke-linecap="round"/>
<path opacity="0.25" d="M268.941 252.943V245.962" stroke="#594157" stroke-width="5.414" stroke-miterlimit="10" stroke-linecap="round"/>
<path opacity="0.25" d="M202.266 186.441H209.265" stroke="#594157" stroke-width="5.414" stroke-miterlimit="10" stroke-linecap="round"/>
<path opacity="0.25" d="M268.941 119.94V126.921" stroke="#594157" stroke-width="5.414" stroke-miterlimit="10" stroke-linecap="round"/>
<path opacity="0.25" d="M326.681 219.695L320.62 216.204" stroke="#594157" stroke-width="3.248" stroke-miterlimit="10" stroke-linecap="round"/>
<path opacity="0.25" d="M235.6 244.032L239.1 237.987" stroke="#594157" stroke-width="3.248" stroke-miterlimit="10" stroke-linecap="round"/>
<path opacity="0.25" d="M211.2 153.188L217.261 156.679" stroke="#594157" stroke-width="3.248" stroke-miterlimit="10" stroke-linecap="round"/>
<path opacity="0.25" d="M302.281 128.851L298.781 134.896" stroke="#594157" stroke-width="3.248" stroke-miterlimit="10" stroke-linecap="round"/>
<path opacity="0.25" d="M302.268 244.04L298.77 237.994" stroke="#594157" stroke-width="3.248" stroke-miterlimit="10" stroke-linecap="round"/>
<path opacity="0.25" d="M211.192 219.682L217.254 216.193" stroke="#594157" stroke-width="3.248" stroke-miterlimit="10" stroke-linecap="round"/>
<path opacity="0.25" d="M235.614 128.843L239.112 134.889" stroke="#594157" stroke-width="3.248" stroke-miterlimit="10" stroke-linecap="round"/>
<path opacity="0.25" d="M326.689 153.201L320.627 156.69" stroke="#594157" stroke-width="3.248" stroke-miterlimit="10" stroke-linecap="round"/>
<path opacity="0.25" d="M286.291 212.386C285.942 212.387 285.598 212.305 285.287 212.148C284.977 211.99 284.708 211.761 284.502 211.48L266.456 186.786L284.211 138.803C284.414 138.255 284.827 137.809 285.36 137.564C285.892 137.32 286.5 137.296 287.05 137.499C287.599 137.701 288.047 138.113 288.291 138.644C288.537 139.175 288.561 139.782 288.357 140.33L271.419 186.098L288.071 208.883C288.311 209.211 288.457 209.6 288.49 210.005C288.523 210.411 288.443 210.818 288.257 211.18C288.073 211.543 287.79 211.847 287.442 212.06C287.094 212.272 286.694 212.384 286.286 212.383L286.291 212.386Z" fill="#594157"/>
<path opacity="0.25" d="M274.466 186.441C274.466 187.531 274.143 188.596 273.535 189.503C272.928 190.409 272.065 191.115 271.056 191.532C270.046 191.95 268.935 192.059 267.863 191.846C266.791 191.633 265.807 191.109 265.034 190.338C264.261 189.567 263.735 188.585 263.522 187.516C263.308 186.447 263.418 185.339 263.836 184.332C264.254 183.325 264.963 182.464 265.871 181.859C266.779 181.253 267.848 180.93 268.941 180.93C270.406 180.93 271.811 181.511 272.848 182.544C273.884 183.578 274.466 184.979 274.466 186.441Z" fill="#594157"/>
</g>
<path d="M222.898 104.384L211.619 111.34L216.785 119.674L228.065 112.718L222.898 104.384Z" fill="#4CA443"/>
<path d="M211.621 111.339C212.921 109.469 214.594 107.887 216.535 106.691C218.475 105.494 220.643 104.709 222.9 104.384L211.621 111.339Z" fill="#4CA443"/>
<path d="M307.895 104.383L302.731 112.718L314.011 119.672L319.176 111.338L307.895 104.383Z" fill="#4CA443"/>
<path d="M319.177 111.339C317.875 109.469 316.203 107.887 314.262 106.69C312.321 105.494 310.154 104.709 307.896 104.384L319.177 111.339Z" fill="#4CA443"/>
<path d="M275.774 97.0245H255.022V103.792H275.774V97.0245Z" fill="#4CA443"/>
<path d="M279.521 83.3046V97.0246H251.274V83.3046C260.369 79.836 270.426 79.836 279.521 83.3046Z" fill="#4CA443"/>
<path d="M252.872 97.0246V83.3076" stroke="#101747" stroke-width="1.083" stroke-miterlimit="10"/>
<path d="M255.127 97.0246V83.3076" stroke="#101747" stroke-width="1.083" stroke-miterlimit="10"/>
<path d="M257.382 97.0246V83.3076" stroke="#101747" stroke-width="1.083" stroke-miterlimit="10"/>
<path d="M259.637 97.0246V83.3076" stroke="#101747" stroke-width="1.083" stroke-miterlimit="10"/>
<path d="M261.892 97.0246V83.3076" stroke="#101747" stroke-width="1.083" stroke-miterlimit="10"/>
<path d="M264.147 97.0246V83.3076" stroke="#101747" stroke-width="1.083" stroke-miterlimit="10"/>
<path d="M266.401 97.0246V83.3076" stroke="#101747" stroke-width="1.083" stroke-miterlimit="10"/>
<path d="M268.656 97.0246V83.3076" stroke="#101747" stroke-width="1.083" stroke-miterlimit="10"/>
<path d="M270.911 97.0246V83.3076" stroke="#101747" stroke-width="1.083" stroke-miterlimit="10"/>
<path d="M273.166 97.0246V83.3076" stroke="#101747" stroke-width="1.083" stroke-miterlimit="10"/>
<path d="M275.421 97.0246V83.3076" stroke="#101747" stroke-width="1.083" stroke-miterlimit="10"/>
<path d="M277.676 97.0246V83.3076" stroke="#101747" stroke-width="1.083" stroke-miterlimit="10"/>
<path d="M279.521 83.3046H251.274C260.369 79.836 270.426 79.836 279.521 83.3046Z" fill="#4CA443"/>
<path d="M323.223 240.583C355.16 208.729 355.16 157.085 323.223 125.231C291.287 93.3773 239.508 93.3772 207.572 125.231C175.635 157.085 175.635 208.729 207.572 240.583C239.508 272.436 291.287 272.436 323.223 240.583Z" fill="#4CA443"/>
<path opacity="0.7" d="M317.493 234.867C346.265 206.17 346.265 159.644 317.493 130.947C288.722 102.25 242.073 102.25 213.302 130.947C184.53 159.644 184.53 206.17 213.302 234.867C242.073 263.564 288.722 263.564 317.493 234.867Z" fill="#E4E4E4"/>
<path d="M265.398 253.819C304.663 253.819 336.494 222.071 336.494 182.908C336.494 143.745 304.663 111.997 265.398 111.997C226.133 111.997 194.302 143.745 194.302 182.908C194.302 222.071 226.133 253.819 265.398 253.819Z" fill="white"/>
<path d="M332.073 182.908H325.074" stroke="#4CA443" stroke-width="5.414" stroke-miterlimit="10" stroke-linecap="round"/>
<path d="M265.398 249.41V242.429" stroke="#4CA443" stroke-width="5.414" stroke-miterlimit="10" stroke-linecap="round"/>
<path d="M198.723 182.908H205.722" stroke="#4CA443" stroke-width="5.414" stroke-miterlimit="10" stroke-linecap="round"/>
<path d="M265.398 116.406V123.387" stroke="#4CA443" stroke-width="5.414" stroke-miterlimit="10" stroke-linecap="round"/>
<g opacity="0.3">
<g opacity="0.3">
<g opacity="0.3">
<path opacity="0.3" d="M323.138 216.161L317.077 212.67" stroke="#101747" stroke-width="3.248" stroke-miterlimit="10" stroke-linecap="round"/>
</g>
<g opacity="0.3">
<path opacity="0.3" d="M232.057 240.498L235.557 234.453" stroke="#101747" stroke-width="3.248" stroke-miterlimit="10" stroke-linecap="round"/>
</g>
<g opacity="0.3">
<path opacity="0.3" d="M207.656 149.654L213.717 153.145" stroke="#101747" stroke-width="3.248" stroke-miterlimit="10" stroke-linecap="round"/>
</g>
<g opacity="0.3">
<path opacity="0.3" d="M298.738 125.317L295.238 131.362" stroke="#101747" stroke-width="3.248" stroke-miterlimit="10" stroke-linecap="round"/>
</g>
<g opacity="0.3">
<path opacity="0.3" d="M298.723 240.506L295.225 234.46" stroke="#101747" stroke-width="3.248" stroke-miterlimit="10" stroke-linecap="round"/>
</g>
<g opacity="0.3">
<path opacity="0.3" d="M207.649 216.147L213.711 212.658" stroke="#101747" stroke-width="3.248" stroke-miterlimit="10" stroke-linecap="round"/>
</g>
<g opacity="0.3">
<path opacity="0.3" d="M232.07 125.309L235.568 131.355" stroke="#101747" stroke-width="3.248" stroke-miterlimit="10" stroke-linecap="round"/>
</g>
<g opacity="0.3">
<path opacity="0.3" d="M323.146 149.667L317.084 153.156" stroke="#101747" stroke-width="3.248" stroke-miterlimit="10" stroke-linecap="round"/>
</g>
</g>
</g>
<path d="M282.747 208.851C282.398 208.852 282.054 208.77 281.743 208.612C281.434 208.455 281.164 208.226 280.959 207.945L262.913 183.252L280.675 135.269C280.775 134.997 280.928 134.748 281.125 134.536C281.322 134.323 281.56 134.151 281.823 134.03C282.086 133.909 282.372 133.841 282.662 133.83C282.952 133.818 283.241 133.864 283.513 133.964C283.786 134.065 284.035 134.218 284.249 134.414C284.462 134.611 284.634 134.847 284.755 135.11C284.877 135.373 284.945 135.657 284.957 135.946C284.968 136.236 284.922 136.524 284.821 136.796L267.877 182.563L284.528 205.349C284.768 205.677 284.914 206.066 284.947 206.471C284.98 206.877 284.899 207.284 284.714 207.646C284.53 208.009 284.247 208.313 283.899 208.526C283.551 208.738 283.151 208.85 282.743 208.849L282.747 208.851Z" fill="#4CA443"/>
<path d="M265.397 188.418C268.448 188.418 270.922 185.951 270.922 182.907C270.922 179.863 268.448 177.396 265.397 177.396C262.345 177.396 259.872 179.863 259.872 182.907C259.872 185.951 262.345 188.418 265.397 188.418Z" fill="#330000"/>
<path d="M331.402 266.131L333.394 269.57L335.934 269.08L334.19 265.055" fill="#FDAEB3"/>
<path d="M335.93 268.829C335.397 269.174 334.767 269.342 334.132 269.307C333.858 269.222 333.572 269.177 333.285 269.173C333.085 269.221 332.736 269.79 332.589 269.953C332.179 270.307 331.728 270.609 331.245 270.853C330.89 271.019 329.54 271.488 329.298 272.007C329.275 272.058 329.266 272.113 329.27 272.169C329.275 272.224 329.293 272.278 329.324 272.324C329.354 272.37 329.396 272.408 329.445 272.434C329.494 272.461 329.549 272.474 329.606 272.473C330.014 272.473 331.131 272.442 331.912 272.434C332.399 272.431 332.884 272.359 333.352 272.221C334.502 271.897 335.634 271.51 336.742 271.062C336.779 270.653 336.726 270.241 336.586 269.855C336.445 269.469 336.222 269.119 335.93 268.829Z" fill="#594157"/>
<path d="M313.489 232.698C303.731 226.444 304.936 235.785 304.936 235.785L332.458 268.271C333.01 268.23 333.543 268.053 334.008 267.757C334.474 267.46 334.859 267.053 335.129 266.571C335.129 266.571 324.506 239.822 313.489 232.698Z" fill="#330000"/>
<path d="M316.704 204.836C317.432 206.557 317.724 208.429 317.555 210.289C317.295 213.045 316.663 215.38 316.432 217.889C316.2 220.398 313.275 235.372 313.275 235.372C313.275 235.372 305.367 237.766 304.796 235.42C303.643 230.674 302.007 204.995 302.007 204.995C306.869 205.905 311.864 205.851 316.704 204.836Z" fill="#330000"/>
<path d="M319.696 204.1C319.696 204.1 322.043 210.4 314.208 217.632C312.171 219.513 310.316 220.226 307.818 222.532C305.962 224.248 294.568 235.5 294.568 235.5C294.568 235.5 287.528 229.919 288.412 227.673C290.2 223.127 302.838 200.361 302.838 200.361C302.838 200.361 312.884 201.481 319.696 204.1Z" fill="#330000"/>
<path d="M278.936 266.168L277.966 270.059L280.55 270.183L282.645 266.499" fill="#FDAEB3"/>
<path d="M296.659 230.332C295.981 217.254 288.411 227.678 288.411 227.678L278.438 267.556C279.289 268.344 280.403 268.789 281.564 268.805C281.564 268.805 297.337 243.413 296.659 230.332Z" fill="#330000"/>
<path d="M322.346 160.883C319.099 162.474 313.654 161.099 313.654 161.099L315.481 155.299L316.265 152.825C316.265 152.825 316.823 152.35 317.646 151.691C320.178 149.658 325.224 145.939 323.91 149.566C322.167 154.365 322.346 160.883 322.346 160.883Z" fill="#FDAEB3"/>
<path d="M319.336 152.459C318.324 153.729 316.995 154.709 315.481 155.301L316.266 152.827C316.266 152.827 316.823 152.352 317.647 151.693L317.918 151.644L319.336 152.459Z" fill="#E58099"/>
<path d="M312.378 141.646C312.378 141.646 310.265 152.179 311.937 153.946C313.608 155.713 321.418 152.465 321.418 152.465C321.418 152.465 327.524 146.775 327.092 141.632C326.727 137.293 317.591 133.665 313.665 138.149C312.959 139.195 312.518 140.396 312.378 141.649V141.646Z" fill="#FDAEB3"/>
<path d="M311.544 134.569C311.544 134.569 309.823 139.986 313.894 141.944C316.594 143.244 319.68 143.532 319.675 144.863C319.67 146.194 320.243 145.231 320.839 144.985C322.103 144.464 322.731 146.208 321.951 147.843C321.356 149.09 321.428 151.049 323.324 151.521C324.478 150.014 325.55 148.445 326.533 146.821C327.384 145.31 329.583 139.986 326.023 138.821C325.838 138.17 325.51 137.568 325.064 137.059C324.617 136.55 324.062 136.146 323.44 135.877C320.031 134.317 316.83 134.777 314.386 134.885C313.262 134.932 312.04 132.594 311.544 134.569Z" fill="#332929"/>
<path d="M304.806 170.216C303.531 169.705 301.687 168.866 299.752 167.949C298.235 167.228 296.663 166.459 295.267 165.766C292.672 164.491 290.663 163.466 290.663 163.466C290.663 163.466 292.344 158.306 293.426 158.085C294.066 157.953 298.896 158.835 302.699 159.568C303.511 159.722 304.279 159.875 304.941 160.016C306.408 160.292 307.394 160.494 307.394 160.494L304.806 170.216Z" fill="#FDAEB3"/>
<path d="M290.664 163.459C288.237 162.24 287.228 160.659 284.597 155.64C283.649 153.84 281.539 149.624 280.715 147.884L281.617 145.46C282.113 145.76 289.018 152.42 289.922 153.471C291.365 155.15 293.431 158.078 293.431 158.078C294.464 159.89 293.092 164.688 290.664 163.459Z" fill="#FDAEB3"/>
<path d="M313.711 161.651C309.746 160.335 300.813 158.736 300.813 158.736C300.813 158.736 298.371 164.211 298.273 168.207C301.156 170.016 308.391 172.223 308.391 172.223" fill="#4CA443"/>
<path d="M324.257 185.81C324.151 186.039 324.035 186.278 323.921 186.51C323.345 187.65 322.787 188.798 322.291 189.956C318.287 199.188 319.696 204.11 319.696 204.11C313.123 204.967 302.129 201.68 302.129 201.68C302.129 201.68 302.156 200.743 302.139 200.01C301.959 193.061 302.184 186.108 302.812 179.186C302.891 178.505 302.972 177.843 303.07 177.198C303.331 174.481 304.001 171.818 305.054 169.298C308.792 161.752 313.655 161.098 313.655 161.098C316.549 161.41 319.47 161.338 322.345 160.886C330.192 165.374 328.137 177.681 324.257 185.81Z" fill="#4CA443"/>
<path d="M290.344 175.802C290.344 175.802 290.012 170.389 290.938 169.787C291.487 169.43 296.304 168.487 300.109 167.787C300.922 167.632 301.697 167.494 302.365 167.38C303.825 167.103 304.823 166.932 304.823 166.932L305.982 176.932C301.551 176.902 290.344 175.802 290.344 175.802Z" fill="#FDAEB3"/>
<path d="M290.94 169.785C289.54 168.583 288.034 167.507 286.442 166.571C285.216 165.925 280.526 164.1 277.247 162.632C276.079 162.111 274.95 161.51 273.866 160.832L272.853 162.399C272.853 162.399 277.545 167.021 281.828 170.734C286.11 174.447 287.635 175.547 290.343 175.8C293.051 176.053 292.566 171.09 290.94 169.785Z" fill="#FDAEB3"/>
<path d="M317.143 176.931C312.201 179.741 304.511 179.316 302.806 179.184C302.885 178.503 302.966 177.841 303.064 177.196L317.143 176.931Z" fill="#4CA443"/>
<path d="M318.418 176.47C312.272 178.995 302.502 177.65 302.502 177.65C301.657 174.297 301.3 170.84 301.443 167.386C303.994 166.538 311.701 165.301 311.701 165.301C311.701 165.301 319.534 164.317 320.683 169.609C321.872 175.072 318.418 176.47 318.418 176.47Z" fill="#4CA443"/>
<path d="M273.387 162.922C273.002 162.532 272.488 162.293 271.941 162.25C271.583 162.244 271.231 162.148 270.92 161.972C270.608 161.796 270.346 161.544 270.157 161.24C270.417 160.381 270.851 159.585 271.433 158.902C271.633 158.778 272.667 159.558 273.004 159.678C273.341 159.798 273.28 160.46 274.387 161.153" fill="#FDAEB3"/>
<path d="M273.492 160.462C273.486 160.025 273.372 159.596 273.16 159.214C273.06 159.014 272.819 158.3 272.695 158.298C272.571 158.296 272.409 158.455 272.36 158.641C272.339 158.93 272.346 159.22 272.379 159.508" fill="#FDAEB3"/>
<path d="M313.654 161.099L314.674 159.771C317.202 160.289 319.805 160.32 322.345 159.861V160.883L319.124 161.551C317.292 161.878 315.407 161.722 313.654 161.099Z" fill="#074829"/>
<path d="M314.674 164.772L314.931 167.823C314.931 167.823 320.07 167.623 322.933 166.246L322.352 164.497C319.825 165.013 317.231 165.105 314.674 164.772Z" fill="#074829"/>
<path d="M280.754 269.826C280.061 270.056 279.325 270.13 278.6 270.041C278.6 270.041 278.341 269.477 277.915 269.472C277.49 269.467 276.965 270.058 276.676 270.192C276.387 270.326 270.897 272 272.741 272.371C272.807 272.45 279.258 272.471 280.67 272.471C280.751 272.471 280.831 272.444 280.894 272.392C280.957 272.341 281.001 272.269 281.018 272.189C281.151 271.8 281.197 271.387 281.152 270.978C281.106 270.569 280.97 270.176 280.754 269.826Z" fill="#594157"/>
<path d="M312.346 164.843C313.087 164.56 313.877 164.427 314.671 164.454C315.464 164.48 316.243 164.664 316.964 164.996C318.454 165.555 319.67 166.665 320.361 168.095C321.051 169.525 321.163 171.165 320.674 172.675" fill="#4CA443"/>
<path d="M312.346 164.843C313.087 164.56 313.877 164.427 314.671 164.454C315.464 164.48 316.243 164.664 316.964 164.996C318.454 165.555 319.67 166.665 320.361 168.095C321.051 169.525 321.163 171.165 320.674 172.675" stroke="white" stroke-width="0.247" stroke-miterlimit="10" stroke-linecap="round"/>
<path d="M319.924 162.498C320.028 163.143 319.961 163.804 319.73 164.415C319.498 165.026 319.111 165.567 318.607 165.983" fill="#4CA443"/>
<path d="M319.924 162.498C320.028 163.143 319.961 163.804 319.73 164.415C319.498 165.026 319.111 165.567 318.607 165.983" stroke="white" stroke-width="0.247" stroke-miterlimit="10" stroke-linecap="round"/>
<path d="M277.413 144.074C277.413 144.074 277.349 141.591 277.94 140.928C278.53 140.265 279.656 140.192 279.803 141.075C279.951 141.958 277.678 143.357 277.678 143.357L277.413 144.074Z" fill="#FDAEB3"/>
<path d="M106.38 232.219C105.466 239.019 101.768 265.281 101.768 265.281H98.9759C98.9759 265.281 96.6098 243.681 97.4038 238.539C98.2059 233.378 98.7513 231.769 98.5067 229.497C98.4826 229.241 97.2875 224.032 96.309 219.743C96.1636 219.135 96.0283 218.551 95.908 217.999C95.3946 215.783 95.0056 214.126 95.0056 214.126H106.389C106.389 214.126 106.62 230.411 106.38 232.219Z" fill="#FDAEB3"/>
<path d="M105.553 217.604C102.327 218.988 96.5764 219.717 96.3117 219.749C96.1663 219.141 96.031 218.557 95.9106 218.005L95.9267 217.885L98.6869 216.733C98.6869 216.733 108.858 216.176 105.553 217.604Z" fill="#E58099"/>
<path d="M101.768 265.28C101.725 265.692 101.797 266.107 101.976 266.48C102.651 268.103 103.666 269.564 104.952 270.764L105.176 271.364L103.542 271.498C102.67 270.997 101.833 270.438 101.036 269.824C100.879 269.556 100.275 268.382 100.097 268.024C99.9183 267.666 99.1573 266.993 99.1573 266.68C99.0875 266.206 98.9829 265.738 98.8445 265.28C99.1922 264.987 99.5582 264.715 99.9403 264.468C100.097 264.424 100.79 264.357 100.79 264.357L101.768 265.28Z" fill="#FDAEB3"/>
<path d="M98.9097 264.652C98.2275 265.624 97.868 266.785 97.882 267.971C98.1422 269.46 98.3232 270.963 98.4244 272.471H98.8064L99.433 269.128C99.433 269.128 102.199 272.167 102.826 272.319C103.918 272.435 105.017 272.486 106.115 272.471C106.25 272.471 108.221 272.029 104.951 270.757C104.951 270.757 104.973 271.404 103.676 270.735C102.361 269.943 101.226 268.887 100.342 267.635C99.6559 266.755 99.1673 265.737 98.9097 264.652Z" fill="#423D73"/>
<path d="M96.9768 213.263C96.9768 213.263 96.9769 214.383 96.8766 216.208C96.8445 216.728 96.8124 217.308 96.7643 217.936C96.4128 222.912 95.5333 227.836 94.1405 232.627C92.1192 239.188 83.2863 264.754 83.2863 264.754L80.5261 264.37C80.5261 264.37 82.5554 243.149 84.0563 238.156C85.5572 233.163 87.9554 231.211 88.0276 228.93C88.0677 227.63 87.4822 223.009 86.9689 219.271C86.8004 218.015 86.64 216.863 86.5107 215.971C86.3513 214.851 86.246 214.131 86.246 214.131L96.9768 213.263Z" fill="#FDAEB3"/>
<path d="M83.285 264.75C83.1865 265.15 83.2007 265.57 83.3261 265.963C83.7709 267.663 84.5746 269.249 85.6832 270.614L85.8215 271.241L84.1853 271.15C83.3901 270.535 82.6378 269.867 81.9334 269.15C81.8161 268.864 81.379 267.618 81.2517 267.236C81.1243 266.854 80.4626 266.086 80.5057 265.776C80.5015 265.298 80.4623 264.821 80.3884 264.349C80.7732 264.106 81.1731 263.888 81.5855 263.695C81.747 263.673 82.4428 263.701 82.4428 263.701L83.285 264.75Z" fill="#FDAEB3"/>
<path d="M80.541 263.736C79.7315 264.605 79.2157 265.706 79.0661 266.883C79.1186 268.395 79.0908 269.909 78.9829 271.418L79.3609 271.47L80.4417 268.245C80.4417 268.245 82.7637 271.634 83.3633 271.87C84.4293 272.134 85.51 272.334 86.5997 272.47C86.733 272.488 88.7433 272.32 85.6843 270.613C85.6843 270.613 85.6171 271.257 84.424 270.413C83.2312 269.447 82.2524 268.245 81.5496 266.883C80.9913 265.918 80.6473 264.845 80.541 263.736Z" fill="#423D73"/>
<path d="M97.4337 217.483C97.2222 217.653 96.9969 217.806 96.76 217.939C93.7592 219.692 88.5446 219.404 86.9645 219.275C86.7961 218.019 86.6357 216.867 86.5063 215.975C89.8149 215.807 94.7859 215.675 96.8723 216.215C97.8508 216.464 98.1967 216.865 97.4337 217.483Z" fill="#E58099"/>
<path d="M119.232 154.517C119.232 154.517 119.318 158.007 118.21 158.837C117.366 159.469 109.963 159.246 106.491 159.104C105.403 159.056 104.699 159.023 104.699 159.023L105.115 155.604L105.502 152.422L119.232 154.517Z" fill="#FDAEB3"/>
<path d="M117.687 154.899C119.195 154.102 120.805 153.516 122.474 153.158C124.726 152.782 134.783 150.21 134.783 150.21L135.566 152.175C135.566 152.175 126.241 158.053 117.127 159.088L117.687 154.899Z" fill="#FDAEB3"/>
<path d="M134.783 150.21C135.1 149.946 135.365 149.626 135.566 149.266C135.812 148.646 136.29 148.144 136.898 147.866C137.581 147.626 138.11 147.285 138.302 147.366C138.493 147.447 138.43 147.886 138.046 148.056C137.662 148.226 137.108 148.656 137.137 148.788C137.761 148.563 138.365 148.285 138.942 147.957C139.665 147.656 140.411 147.41 141.172 147.22C141.414 147.263 141.243 147.804 140.314 148.167C139.612 148.44 139.222 148.797 139.279 148.967C139.484 149.206 139.605 149.505 139.624 149.819C139.643 150.133 139.56 150.445 139.387 150.707C139.209 151.101 138.936 151.445 138.594 151.709C138.251 151.973 137.848 152.149 137.421 152.22C136.714 152.209 136.007 152.249 135.306 152.34" fill="#FDAEB3"/>
<path d="M108.837 152.764C108.837 152.764 108.837 157.472 108.219 159.387C106.809 159.467 105.396 159.449 103.989 159.333C103.115 159.269 102.16 159.169 101.16 159.006C100.733 158.933 100.297 158.852 99.8511 158.761V150.983C102.899 151.273 105.91 151.869 108.837 152.764Z" fill="#4CA443"/>
<path d="M103.994 159.334C103.12 159.27 102.165 159.17 101.165 159.007L100.947 158.681L101.502 156.295C101.502 156.295 102.821 157.945 103.994 159.334Z" fill="#D43304"/>
<path d="M104.039 184.2C104.039 184.2 97.8627 188.256 85.6018 184.554C85.6018 184.554 87.593 177.532 86.9202 172.932C86.5222 171.08 85.9168 169.278 85.1156 167.561C84.5511 166.245 83.9124 164.861 83.2597 163.505C82.1318 161.156 80.9678 158.905 80.1126 157.291C79.9408 156.963 79.8401 156.603 79.8169 156.234C79.7938 155.865 79.8488 155.495 79.9783 155.149C80.1078 154.802 80.3091 154.487 80.5688 154.223C80.8286 153.959 81.1411 153.753 81.4861 153.617C87.3395 151.405 93.6098 150.507 99.8508 150.986C100.378 152.201 101.315 156.293 101.843 157.065C104.472 160.912 104.149 161.329 103.589 164.204C102.802 168.241 102.029 178.094 104.039 184.2Z" fill="#4CA443"/>
<path d="M86.0142 160.912C86.0142 160.912 85.6874 164.759 85.1229 167.562C84.5584 166.246 83.9198 164.862 83.2671 163.506L86.0142 160.912Z" fill="#D43304"/>
<path d="M86.3581 183.595C86.3581 183.595 84.1834 185.427 83.4335 191.711C82.6835 197.995 86.3581 217.442 86.3581 217.442C86.3581 217.442 91.9827 220.135 106.682 217.442C106.682 217.442 106.982 193.731 103.682 182.922L86.3581 183.595Z" fill="#330000"/>
<path d="M88.201 149.542C88.201 149.542 86.8535 151.942 85.9331 152.189C85.9331 152.189 90.2072 153.882 92.9513 153.65C93.8054 153.532 94.6216 153.223 95.3385 152.746C96.0556 152.268 96.6548 151.635 97.0911 150.893C96.4128 150.788 95.7908 150.456 95.3276 149.951C94.8644 149.446 94.5878 148.798 94.5435 148.115" fill="#FDAEB3"/>
<path d="M94.8499 144.464C94.8499 144.464 94.7938 145.084 94.7386 145.696C94.6825 146.223 94.6384 146.742 94.6273 146.853C94.507 148.14 94.5531 149.168 94.3677 150.89L88.2026 149.548C88.2026 149.548 89.2985 148.381 88.5646 142.474L94.7386 144.427L94.8499 144.464Z" fill="#FDAEB3"/>
<path d="M94.8501 144.464C94.8501 144.464 94.794 145.084 94.7388 145.696C93.7767 145.699 92.8164 145.612 91.8704 145.437L94.7388 144.427L94.8501 144.464Z" fill="#E58099"/>
<path d="M89.7887 128.919C89.7887 128.919 91.6635 127.553 93.2075 128.732C94.7515 129.911 94.945 132.357 94.1911 134.021C93.4371 135.685 89.5601 130.55 89.5601 130.55" fill="#332929"/>
<path d="M98.0671 143.14C98.0802 143.393 98.0118 143.643 97.8721 143.854C97.7322 144.065 97.5283 144.226 97.2901 144.313C94.7975 145.274 92.1085 145.617 89.4537 145.313C85.3841 144.725 81.4459 133.587 89.6452 129.813C91.2394 129.087 97.5136 134.04 98.0671 143.14Z" fill="#FDAEB3"/>
<path d="M80.2339 136.943C80.2339 136.943 78.8172 137.273 78.4492 138.116C78.4492 138.116 80.1697 137.353 80.9196 137.971" fill="#332F62"/>
<path d="M81.5354 137.289C81.5354 137.289 78.4554 138.048 76.5775 135.943C73.9837 133.036 78.9356 126.976 82.9831 132.608" fill="#332929"/>
<path d="M80.666 138.307C80.4972 138.236 80.3473 138.127 80.2281 137.988C80.1088 137.849 80.0236 137.684 79.9792 137.507C79.7835 136.411 79.8683 135.284 80.2257 134.229C80.583 133.174 81.2014 132.227 82.0235 131.474C82.0235 131.474 82.6542 130.907 83.0943 131.244" fill="#4CA443"/>
<path d="M88.7801 146.198C88.7801 146.198 82.0546 144.305 80.4494 137.851C78.8443 131.397 88.6086 125.038 92.7143 131.182C92.7143 131.182 89.8067 131.799 89.0047 133.953C88.2026 136.107 88.7139 139.232 87.8627 138.698C87.645 138.57 87.3946 138.508 87.142 138.519C86.8895 138.53 86.6457 138.614 86.4403 138.761C86.2349 138.908 86.0768 139.112 85.9852 139.347C85.8937 139.582 85.8726 139.838 85.9247 140.085C86.0801 141.092 87.6431 142.301 88.4432 143.659C88.6696 144.037 88.8163 144.457 88.8742 144.894C88.9321 145.33 88.9001 145.774 88.7801 146.198Z" fill="#332929"/>
<path d="M92.7336 130.033C92.7336 130.033 95.8807 133.233 89.2625 136.399C89.5943 135.146 87.8008 132.079 87.8008 132.079" fill="#332929"/>
<path d="M68.8293 200.224L95.8524 193.77C96.2401 193.677 96.4791 193.289 96.3863 192.902L92.0207 174.719C91.9279 174.332 91.5383 174.094 91.1506 174.186L64.1274 180.641C63.7397 180.733 63.5007 181.122 63.5935 181.509L67.9591 199.692C68.052 200.078 68.4415 200.317 68.8293 200.224Z" fill="#423D73"/>
<path d="M69.3434 199.039L94.8563 192.946L90.637 175.371L65.124 181.464L69.3434 199.039Z" fill="white"/>
<path d="M92.694 181.231L91.3892 181.545L93.0249 188.296L94.3298 187.981L92.694 181.231Z" fill="#9E9DBA"/>
<path d="M80.1168 177.643C80.1168 177.643 76.6578 177.107 76.0352 175.872C75.5619 174.932 77.0969 167.704 77.8529 164.323C78.0935 163.264 78.2539 162.579 78.2539 162.579L81.5535 163.594L84.6245 164.539L80.1168 177.643Z" fill="#FDAEB3"/>
<path d="M80.0145 176.058C80.533 177.679 80.8249 179.364 80.8817 181.065C80.8526 183.343 81.6046 193.672 81.6046 193.672L79.5262 194.091C79.5262 194.091 75.3824 183.897 75.981 174.764L80.0145 176.058Z" fill="#FDAEB3"/>
<path d="M79.5273 194.091C79.5977 195.103 79.78 196.105 80.0708 197.077C80.9992 199.122 83.6099 197.177 83.9017 196.623C83.9017 196.623 83.1427 196.715 82.6114 195.259C82.414 194.88 82.1354 194.55 81.7952 194.291C81.7006 194.095 81.6363 193.886 81.6047 193.671" fill="#FDAEB3"/>
<path d="M79.9864 155.151C79.011 158.482 78.2261 161.865 77.6353 165.285C79.7251 166.139 81.9527 166.61 84.2103 166.674C85.0684 164.526 85.7288 162.304 86.1835 160.037" fill="#4CA443"/>
<path d="M180.94 247.337C180.94 247.337 191.793 246.75 191.806 244.551C191.816 242.841 185.176 244.288 185.176 244.288C188.799 243.257 192.347 241.98 195.795 240.467C196.557 240.136 197.241 239.649 197.8 239.036C198.074 238.725 198.25 238.341 198.309 237.931C198.366 237.521 198.301 237.103 198.122 236.729C197.558 235.763 196.201 235.685 195.088 235.819C190.619 236.358 187.476 238.742 183.452 240.757C186.361 239.27 189.058 237.403 191.473 235.206C193.73 233.194 196.357 231.306 197.861 228.618C198.804 226.933 199.178 224.444 197.509 223.058C195.889 221.714 193.57 222.342 191.794 222.964C186.983 224.677 182.869 227.919 180.084 232.19C180.793 230.211 181.346 228.18 181.735 226.115C181.892 225.283 181.949 224.258 181.26 223.765C180.366 223.126 179.173 223.981 178.478 224.83C176.791 226.897 175.513 229.265 174.715 231.809C175.263 226.127 175.805 220.332 174.566 214.759C174.343 213.47 173.841 212.244 173.095 211.168C172.716 210.635 172.209 210.205 171.619 209.919C171.03 209.632 170.378 209.498 169.723 209.529C168.498 209.776 167.406 210.462 166.652 211.456C163.963 214.457 162.432 218.315 162.334 222.339C162.237 226.362 163.578 230.29 166.119 233.417C164.795 232.031 163.303 230.814 161.679 229.792C161.315 229.563 160.777 229.366 160.506 229.698C160.386 229.887 160.343 230.115 160.388 230.335C160.638 233.035 162.454 235.303 164.198 237.389C162.412 235.345 160.176 233.741 157.663 232.705C155.151 231.668 152.432 231.227 149.72 231.416C149.394 231.398 149.067 231.456 148.766 231.587C148.466 231.718 148.2 231.917 147.992 232.169C147.823 232.51 147.767 232.895 147.831 233.269C148.12 235.979 150.517 237.944 152.874 239.322C154.857 240.482 156.944 241.451 159.028 242.422C157.835 242.252 156.628 242.21 155.427 242.296C155.29 242.288 155.152 242.309 155.024 242.358C154.896 242.406 154.779 242.48 154.68 242.576C154.364 242.987 154.81 243.544 155.23 243.847C158.279 246.026 161.997 247.069 165.738 246.792" fill="#40C749"/>
<path opacity="0.45" d="M193.265 227.13C193.398 227.03 193.529 227.246 193.401 227.343C189.942 229.932 186.768 232.88 183.931 236.137C181.173 239.454 178.714 243.008 176.583 246.757C176.566 246.782 176.54 246.799 176.511 246.807C176.482 246.814 176.451 246.81 176.425 246.796C176.399 246.782 176.378 246.758 176.368 246.73C176.357 246.702 176.358 246.671 176.369 246.643C180.064 238.913 186.356 232.115 193.266 227.13H193.265ZM177.647 229.922C175.541 235.298 174.596 241.057 174.872 246.822C174.873 246.85 174.886 246.877 174.906 246.896C174.927 246.916 174.955 246.926 174.983 246.925C175.012 246.923 175.039 246.911 175.058 246.89C175.077 246.869 175.087 246.841 175.086 246.813C175.103 241.099 176.065 235.427 177.934 230.026C177.995 229.863 177.709 229.755 177.646 229.917L177.647 229.922ZM170.775 218.727C169.825 228.202 170.61 237.771 173.093 246.966C173.134 247.117 173.35 247.041 173.321 246.894C172.309 242.184 171.573 237.42 171.115 232.625C170.784 228.005 170.725 223.369 170.937 218.742C170.937 218.65 170.781 218.633 170.771 218.726L170.775 218.727ZM162.345 232.627C165.146 236.597 168.251 243.94 171.929 247.141C171.959 247.166 171.997 247.178 172.036 247.176C172.075 247.173 172.112 247.156 172.139 247.127C172.165 247.099 172.18 247.061 172.179 247.022C172.179 246.983 172.163 246.946 172.136 246.918C168.811 243.27 165.552 236.434 162.57 232.483C162.47 232.348 162.245 232.483 162.344 232.627H162.345ZM192.536 238.779C186.979 241.279 181.25 244.219 176.542 248.126C176.396 248.247 176.542 248.494 176.707 248.383C181.891 244.95 186.907 241.571 192.609 239.006C192.747 238.944 192.676 238.716 192.532 238.779H192.536ZM157.985 238.094C162.03 240.505 166.357 245.651 170.768 247.331C170.907 247.384 171.022 247.19 170.88 247.121C166.606 245.038 162.237 240.236 158.101 237.876C157.962 237.797 157.849 238.013 157.985 238.095V238.094Z" fill="white"/>
<path d="M182.611 272.473H167.249L163.091 246.693H186.769L182.611 272.473Z" fill="#330000"/>
<path d="M182.595 272.473H177.938L182.112 246.693H186.764L182.595 272.473Z" fill="#332929"/>
<path d="M207.794 48.7416H174.74C174.779 48.3418 174.888 47.952 175.063 47.5906C176.412 45.4655 177.973 43.4826 179.723 41.6726C183.107 40.6961 186.564 39.9909 190.06 39.5636L195.875 39.1886C195.875 39.1886 203.264 40.8996 205.751 42.6726C207.203 44.3506 207.937 46.5298 207.794 48.7416Z" fill="#4CA443"/>
<path d="M196.839 48.7416H174.74C174.785 48.3429 174.894 47.9541 175.063 47.5906C175.92 47.3528 176.823 47.3456 177.683 47.5696L179.031 47.9246H193.405C196.214 47.9246 196.839 48.7416 196.839 48.7416Z" fill="#D43304"/>
<path d="M194.384 33.7996C194.536 32.9628 194.57 32.1088 194.484 31.2626C194.269 30.4364 193.874 29.668 193.326 29.0126C192.908 29.0705 192.498 29.171 192.101 29.3126C192.122 29.3576 192.101 31.0306 192.101 31.0306C192.101 31.0306 192.519 33.4306 192.64 33.6756C192.841 34.1002 193.069 34.5114 193.323 34.9066C193.516 34.8621 193.706 34.8009 193.889 34.7236L194.384 33.7996Z" fill="#FDAEB3"/>
<path d="M191.381 42.4726C190.948 42.4964 190.522 42.3678 190.175 42.1095C189.829 41.8512 189.584 41.4795 189.485 41.0596C189.365 40.6582 189.211 40.2677 189.024 39.8926C188.777 39.3446 188.484 38.7446 188.299 38.2486L190.239 36.8346L194.375 33.8046C194.375 33.8046 194.889 37.6746 195.879 39.1936C195.886 39.1896 196.214 42.1946 191.381 42.4726Z" fill="#FDAEB3"/>
<path d="M192.334 36.1326C191.431 37.5462 190.315 38.8127 189.025 39.8876C188.778 39.3396 188.485 38.7396 188.3 38.2436L190.24 36.8296L192.334 36.1326Z" fill="#E58099"/>
<path d="M193.629 32.0165C193.721 32.7758 193.738 33.542 193.681 34.3045C193.673 34.3881 193.659 34.471 193.639 34.5525C193.627 34.6363 193.608 34.7192 193.585 34.8005C192.93 37.3885 184.911 40.3565 184.668 40.2005C180.187 37.3275 178.634 26.6915 179.102 25.9855C179.615 25.2095 185.967 24.4745 186.099 24.4625C186.23 24.4505 192.335 24.8905 192.335 24.8905C192.897 27.2403 193.33 29.6192 193.629 32.0165Z" fill="#FDAEB3"/>
<path d="M176.176 23.4836C176.176 23.4836 176.377 28.1286 184.025 26.2706C186.124 25.7606 187.977 25.2846 189.019 25.8446C190.583 30.7516 190.633 33.1066 191.187 32.9126C191.88 32.6706 190.002 28.5946 192.39 29.0346C194.221 29.3716 194.379 33.7996 194.379 33.7996C194.379 33.7996 194.535 34.1606 194.599 33.1306C194.638 32.5146 195.062 22.5576 193.547 20.4706C193.151 19.8967 192.552 19.4929 191.87 19.3396C191.188 19.1864 190.474 19.2949 189.869 19.6436C189.869 19.6436 189.997 14.6056 182.757 18.3206C178.578 20.4656 176.556 19.0066 176.567 19.1366C176.081 20.5315 175.947 22.0245 176.176 23.4836Z" fill="#332929"/>
<path d="M186.512 82.1116C186.229 82.446 185.917 82.7552 185.58 83.0356C185.22 83.3079 184.794 83.4804 184.344 83.5356C183.815 83.7394 183.355 84.0911 183.02 84.5486C182.84 84.7676 183.02 84.8666 183.398 84.7866C183.776 84.7066 184.264 84.4096 184.424 84.4096C184.583 84.4096 184.583 84.6026 184.424 84.9536C184.209 85.3771 183.919 85.7582 183.567 86.0786C183.308 86.2786 182.591 86.6786 182.512 86.9126C182.432 87.1466 182.492 87.2706 182.871 87.1506C183.311 86.9561 183.737 86.7305 184.145 86.4756C184.322 86.3738 184.484 86.2483 184.626 86.1026C184.97 86.1978 185.328 86.2343 185.684 86.2106C185.864 86.1781 186.035 86.1037 186.18 85.9936C186.233 85.9855 186.285 85.9731 186.336 85.9566C186.674 85.8196 186.853 84.6476 187.037 84.3296C187.558 83.7915 188.122 83.2972 188.724 82.8516L186.512 82.1116Z" fill="#FDAEB3"/>
<path d="M177.474 51.0106C177.154 50.9016 176.874 50.6992 176.671 50.4296C176.564 50.3226 176.413 50.1396 176.251 49.9456C176.101 49.8376 175.961 49.7456 175.841 49.6656C175.658 49.5383 175.439 49.4687 175.216 49.4656H175.183V49.4516C173.619 49.4196 172.919 48.7416 171 48.7416C171 48.7416 175.485 46.5906 178.191 48.1176C178.569 48.1808 178.951 48.2202 179.334 48.2356C180.121 48.2466 179.895 48.6446 179.646 48.7736C179.473 48.8198 179.296 48.8533 179.118 48.8736L179.161 48.9166C179.279 49.0456 179.388 49.1746 179.485 49.2926C179.83 49.7126 180.293 50.2606 180.379 50.3466C180.497 50.4866 180.422 50.5726 180.422 50.5726C180.597 50.8276 178.866 51.6976 177.474 51.0106Z" fill="#FDAEB3"/>
<path d="M202.459 70.8625C202.459 70.8625 197.559 70.1355 197.195 69.1975C196.999 66.3571 196.979 63.5074 197.136 60.6645C197.152 59.9115 197.173 59.1965 197.198 58.5815C197.227 57.2305 197.262 56.3115 197.262 56.3115L206.418 57.1685C205.559 61.1035 202.459 70.8625 202.459 70.8625Z" fill="#FDAEB3"/>
<path d="M197.198 69.1965C195.858 70.2151 194.613 71.3506 193.475 72.5896C192.666 73.5576 190.149 77.3806 188.217 80.0226C187.533 80.9622 186.783 81.8531 185.974 82.6886L187.183 83.8885C187.183 83.8885 192.196 80.5885 196.328 77.4825C200.459 74.3765 201.726 73.2286 202.463 70.8676C203.201 68.5066 198.668 67.9965 197.198 69.1965Z" fill="#FDAEB3"/>
<path d="M196.839 48.7416L197.148 57.1036C197.148 57.1036 202.085 58.8286 206.534 57.7726C206.534 57.7726 209.341 51.1526 207.114 44.8256" fill="#4CA443"/>
<path d="M188.406 64.7045V47.1285" stroke="#330000" stroke-width="5.414" stroke-miterlimit="10" stroke-linecap="round"/>
</g>
<defs>
<clipPath id="clip0_7_5724">
<rect width="385" height="302" fill="white" transform="translate(0.0166016 0.730591)"/>
</clipPath>
</defs>
</svg>
