<svg width="160" height="221" viewBox="0 0 160 221" fill="none" xmlns="http://www.w3.org/2000/svg">
<g clip-path="url(#clip0_7_6566)">
<mask id="mask0_7_6566" style="mask-type:luminance" maskUnits="userSpaceOnUse" x="0" y="0" width="160" height="220">
<path d="M159.517 0.807007H0.516602V219.807H159.517V0.807007Z" fill="white"/>
</mask>
<g mask="url(#mask0_7_6566)">
<path d="M103.554 106.768C103.591 106.154 103.652 105.543 103.702 104.931C103.754 104.319 103.828 103.71 103.889 103.1C104.007 101.877 104.18 100.663 104.329 99.4452C104.344 99.322 104.456 99.2345 104.579 99.249C104.669 99.2603 104.74 99.3232 104.766 99.4037L104.768 99.4106C105.242 100.902 105.648 102.413 106.089 103.914L106.693 106.182C106.884 106.942 107.078 107.7 107.249 108.466C106.97 107.733 106.714 106.993 106.455 106.254L105.712 104.027C105.253 102.532 104.761 101.046 104.337 99.5402L104.775 99.5062C104.591 100.719 104.431 101.936 104.216 103.144C104.112 103.749 104.018 104.355 103.905 104.959C103.788 105.562 103.683 106.166 103.554 106.768Z" fill="#231F20"/>
<path d="M107.748 106.068C107.134 105.009 106.559 103.931 105.995 102.848C105.421 101.768 104.881 100.673 104.343 99.5768C104.286 99.4617 104.333 99.3221 104.449 99.2655C104.547 99.2171 104.665 99.2466 104.731 99.3271C105.617 100.389 106.49 101.463 107.345 102.551C108.195 103.643 109.043 104.737 109.846 105.868C108.883 104.87 107.967 103.832 107.053 102.793C106.143 101.751 105.251 100.693 104.373 99.624L104.761 99.3737C105.288 100.475 105.814 101.578 106.305 102.697C106.806 103.811 107.296 104.931 107.748 106.068Z" fill="#231F20"/>
<path d="M110.944 102.672C109.922 102.194 108.915 101.678 107.916 101.15C106.913 100.62 105.922 100.047 104.933 99.4762C104.822 99.412 104.784 99.2699 104.849 99.1585C104.902 99.0667 105.012 99.0258 105.11 99.051C106.377 99.378 107.639 99.7233 108.895 100.09C110.149 100.464 111.403 100.839 112.641 101.274C111.349 101.043 110.073 100.751 108.798 100.459C107.523 100.16 106.256 99.8391 104.992 99.5007L105.169 99.0755C106.137 99.6497 107.101 100.228 108.056 100.838C109.028 101.429 109.995 102.032 110.944 102.672Z" fill="#231F20"/>
<path d="M104.652 98.9762C104.652 98.9762 105.112 98.9284 105.799 98.9039C106.485 98.8819 107.399 98.8925 108.31 98.9403C109.222 98.9919 110.131 99.0806 110.811 99.1781C111.491 99.2774 111.943 99.3756 111.943 99.3756C111.943 99.3756 111.483 99.424 110.797 99.4485C110.109 99.4712 109.196 99.4598 108.284 99.4114C107.373 99.3598 106.465 99.2705 105.784 99.173C105.104 99.0737 104.652 98.9762 104.652 98.9762Z" fill="#231F20"/>
<path d="M97.7603 83.3938C97.7603 83.3938 99.0588 85.0919 98.5595 90.8857C98.5595 90.8857 101.956 90.4857 102.256 95.28C104.453 94.0819 105.051 96.8788 105.051 99.2756C102.256 101.474 99.6587 100.875 98.7595 98.0775C97.161 99.4756 94.3646 96.3794 94.1646 93.2825C92.2674 93.6819 90.0703 89.6863 90.0703 89.6863L97.7603 83.3938Z" fill="#F36433"/>
<path d="M98.7596 97.8415L98.8231 97.8496C98.8992 97.871 98.9596 97.9295 98.9841 98.005C99.4752 99.5326 100.478 100.374 101.81 100.374C102.74 100.374 103.777 99.9547 104.815 99.1603C104.799 97.2383 104.372 95.2289 103.217 95.2289C102.968 95.2289 102.682 95.3163 102.368 95.4874C102.298 95.5264 102.212 95.5257 102.141 95.4867C102.071 95.4477 102.025 95.3754 102.02 95.2949C101.778 91.4144 99.4544 91.1125 98.7483 91.1125C98.6514 91.1125 98.5923 91.1188 98.5867 91.1194C98.5125 91.1264 98.4458 91.1031 98.3949 91.054C98.3446 91.005 98.3188 90.9352 98.3244 90.8647C98.7131 86.3572 97.9937 84.3641 97.6944 83.7528L90.3735 89.7433C91.0306 90.8742 92.8008 93.3333 94.1163 93.0515C94.1848 93.0377 94.2534 93.0534 94.3075 93.0943C94.3622 93.1358 94.3961 93.1987 94.3999 93.2672C94.5634 95.8012 96.4876 98.1867 97.8591 98.1867C98.1358 98.1867 98.3861 98.0899 98.6043 97.8993L98.7596 97.8415ZM101.81 100.846C100.371 100.846 99.2312 99.9779 98.6414 98.4509C98.4037 98.5892 98.1414 98.6584 97.8591 98.6584C96.1726 98.6584 94.2251 96.0748 93.9509 93.5452C92.0072 93.6144 89.949 89.9547 89.8635 89.7999C89.8088 89.7006 89.8333 89.576 89.9207 89.5037L97.6113 83.2113C97.661 83.171 97.7258 83.1534 97.788 83.1591C97.8516 83.1666 97.9088 83.1993 97.9478 83.2503C98.0025 83.3213 99.2564 85.0345 98.8162 90.6421C99.6714 90.661 102.088 91.0635 102.463 94.9201C102.729 94.8119 102.981 94.7572 103.217 94.7572C105.085 94.7572 105.287 97.9169 105.287 99.2754C105.287 99.3484 105.254 99.4163 105.197 99.4609C104.045 100.367 102.873 100.846 101.81 100.846Z" fill="#231F20"/>
<path d="M97.7601 96.0158L97.7224 96.0126C97.5935 95.9919 97.5067 95.8705 97.5275 95.7416L98.3261 90.8472C98.3475 90.7189 98.4644 90.629 98.5971 90.6529C98.7254 90.6736 98.8128 90.795 98.7921 90.9233L97.9928 95.8177C97.9739 95.9334 97.874 96.0158 97.7601 96.0158Z" fill="#231F20"/>
<path d="M101.556 98.7127C101.496 98.7127 101.435 98.6894 101.389 98.6435C101.297 98.5517 101.297 98.402 101.389 98.3101C101.691 98.0083 101.94 96.3466 102.02 95.263C102.03 95.1334 102.15 95.0378 102.273 95.0447C102.403 95.0548 102.5 95.168 102.491 95.2976C102.456 95.763 102.257 98.1089 101.723 98.6435C101.677 98.6894 101.616 98.7127 101.556 98.7127Z" fill="#231F20"/>
<path d="M96.0626 93.8184C95.2413 93.8184 94.149 93.5228 94.1031 93.5102C93.9767 93.4756 93.9031 93.346 93.9377 93.2209C93.9717 93.0951 94.0975 93.0196 94.227 93.0548C94.2377 93.058 95.3054 93.3467 96.0626 93.3467C96.1927 93.3467 96.2984 93.4523 96.2984 93.5825C96.2984 93.7127 96.1927 93.8184 96.0626 93.8184Z" fill="#231F20"/>
<path d="M98.7596 98.3134C98.6471 98.3134 98.5477 98.2329 98.5276 98.1184C98.5049 97.9901 98.5898 97.8681 98.7187 97.8454C99.3369 97.7354 100.411 97.4222 100.66 97.0473C100.733 96.9385 100.88 96.9108 100.988 96.9819C101.096 97.0542 101.126 97.2008 101.053 97.309C100.611 97.9731 98.9841 98.2769 98.8005 98.3096L98.7596 98.3134Z" fill="#231F20"/>
<path d="M131.613 98.8461C131.613 98.8461 134.669 101.902 133.963 104.253C133.258 106.604 131.535 107.779 129.655 107.309C127.774 106.839 131.613 98.8461 131.613 98.8461Z" fill="#FAB5A7"/>
<path d="M131.678 99.2611C130.755 101.242 128.914 105.683 129.469 106.866C129.525 106.985 129.602 107.053 129.712 107.08C129.964 107.143 130.217 107.176 130.465 107.176C131.952 107.176 133.175 106.058 133.737 104.185C134.284 102.365 132.361 100.019 131.678 99.2611ZM130.465 107.648C130.179 107.648 129.887 107.611 129.597 107.538C129.35 107.477 129.158 107.313 129.043 107.066C128.255 105.389 131.076 99.4195 131.4 98.7441C131.433 98.6749 131.497 98.6265 131.573 98.6139C131.651 98.6001 131.726 98.6258 131.779 98.6793C131.908 98.8082 134.927 101.863 134.189 104.321C133.573 106.373 132.146 107.648 130.465 107.648Z" fill="#040606"/>
<path d="M86.1416 200.672C86.1416 200.672 86.8233 207.719 87.8457 213.06C88.8688 218.402 91.2546 222.267 92.3916 214.993C93.5285 207.718 95.1094 202.137 92.9506 200.432C90.7912 198.727 87.7219 196.908 87.7219 196.908L86.1416 200.672Z" fill="#F9DB2C"/>
<path d="M86.3815 200.709C86.4507 201.402 87.1172 208.005 88.0775 213.017C88.7912 216.746 89.9237 218.76 90.6267 218.76C90.8468 218.76 91.6071 218.485 92.1586 214.958C92.3806 213.533 92.617 212.192 92.8459 210.897C93.7313 205.872 94.4305 201.903 92.8038 200.618C91.0223 199.211 88.5881 197.709 87.8335 197.252L86.3815 200.709ZM90.6267 219.231C89.2691 219.231 88.1554 215.931 87.614 213.106C86.601 207.814 85.913 200.766 85.9067 200.696L85.9237 200.581L87.5046 196.818C87.531 196.755 87.5832 196.707 87.648 196.685C87.7115 196.664 87.7832 196.672 87.8423 196.707C87.8725 196.724 90.9493 198.553 93.0962 200.248C94.9443 201.707 94.2589 205.596 93.31 210.978C93.0823 212.272 92.8465 213.61 92.6239 215.03C92.1825 217.857 91.5291 219.231 90.6267 219.231Z" fill="#231F20"/>
<path d="M73.9826 212.152C73.9826 212.152 73.8688 213.743 68.2998 213.289C62.7316 212.834 54.3222 209.879 52.0493 216.585C56.9358 219.881 77.7323 220.449 78.414 218.289C79.0956 216.13 79.7779 210.333 73.9826 212.152Z" fill="#F9DB2C"/>
<path d="M52.3338 216.488C55.317 218.339 63.7929 219.336 70.3831 219.336C75.5043 219.336 78.0196 218.757 78.1894 218.218C78.5705 217.012 79.0176 214.358 77.9857 212.95C77.2889 211.999 75.9935 211.796 74.1749 212.339C74.0215 212.73 73.3235 213.606 70.1423 213.606C69.5776 213.606 68.9512 213.579 68.2809 213.524C67.2062 213.436 66.0454 213.258 64.8154 213.071C62.9323 212.784 60.9851 212.486 59.1649 212.486C55.5042 212.486 53.3286 213.759 52.3338 216.488ZM70.3837 219.807C63.4376 219.807 54.8638 218.768 51.9173 216.78C51.8294 216.721 51.7921 216.61 51.8257 216.509C52.8656 213.443 55.1971 212.014 59.1649 212.014C61.0207 212.014 62.9858 212.314 64.8865 212.604C66.1077 212.791 67.2609 212.968 68.3193 213.053C68.977 213.107 69.5901 213.134 70.1423 213.134C73.5423 213.134 73.7467 212.135 73.7486 212.125C73.7624 212.037 73.8272 211.953 73.9115 211.927C76.0168 211.265 77.5279 211.526 78.3661 212.671C79.5081 214.228 79.0748 216.98 78.639 218.361C78.2416 219.619 73.2965 219.807 70.3837 219.807Z" fill="#231F20"/>
<path d="M13.1938 92.5565C12.9371 92.5565 12.6964 92.3981 12.603 92.1433L11.1341 88.1232C11.0149 87.7968 11.1824 87.4358 11.5092 87.3163C11.8346 87.1981 12.1957 87.3647 12.3156 87.6911L13.7845 91.7119C13.9036 92.0377 13.7359 92.3987 13.4091 92.5182C13.3379 92.544 13.2654 92.5565 13.1938 92.5565Z" fill="#040606"/>
<path d="M121.773 110.044C121.617 110.044 121.461 109.987 121.339 109.87C121.088 109.63 121.079 109.233 121.318 108.981L125.104 105.015C125.345 104.764 125.742 104.755 125.993 104.995C126.244 105.234 126.253 105.633 126.014 105.883L122.228 109.85C122.104 109.979 121.939 110.044 121.773 110.044Z" fill="#040606"/>
<path d="M60.0033 176.236C60.0033 176.236 59.8896 179.646 59.8896 182.374C59.8896 185.102 65.0024 187.147 69.4352 189.761C73.8678 192.376 85.913 201.127 85.913 201.127L87.8447 195.899C87.8447 195.899 82.0501 189.307 68.4127 183.056C64.7761 181.237 65.3446 180.669 65.3446 178.964C65.3446 177.259 65.3446 176.804 65.3446 176.804L60.0033 176.236Z" fill="#2B322B"/>
<path d="M60.231 176.498C60.2052 177.339 60.1254 180.108 60.1254 182.374C60.1254 184.38 63.3071 186.113 66.6757 187.947C67.624 188.464 68.6062 188.999 69.5551 189.558C73.591 191.939 84.0415 199.481 85.7997 200.755L87.5743 195.953C86.7713 195.093 80.8219 189.004 68.3144 183.27C65.1294 181.678 65.025 180.98 65.0911 179.554C65.0999 179.372 65.1087 179.177 65.1087 178.964V177.016L60.231 176.498ZM85.9129 201.363L85.7746 201.319C85.6538 201.231 73.6878 192.544 69.3155 189.965C68.3736 189.409 67.3951 188.877 66.4493 188.361C62.8029 186.375 59.6538 184.66 59.6538 182.374C59.6538 179.674 59.7663 176.263 59.7675 176.229C59.77 176.163 59.7994 176.101 59.8486 176.058C59.8982 176.016 59.964 175.997 60.0284 176.002L65.3696 176.57C65.4897 176.583 65.5803 176.684 65.5803 176.804V178.964C65.5803 179.185 65.5715 179.387 65.5627 179.575C65.5067 180.778 65.4809 181.326 68.5182 182.845C82.0374 189.041 87.9635 195.677 88.022 195.743C88.0799 195.808 88.0962 195.9 88.066 195.981L86.1343 201.209C86.1091 201.279 86.0519 201.332 85.9815 201.353L85.9129 201.363Z" fill="#040606"/>
<path d="M76.8226 176.463L73.186 212.948L77.8457 212.038L82.3915 176.35L76.8226 176.463Z" fill="#2B322B"/>
<path d="M77.0368 176.695L73.4524 212.655L77.6335 211.839L82.1234 176.591L77.0368 176.695ZM73.1864 213.184C73.128 213.184 73.0714 213.162 73.0273 213.123C72.9726 213.072 72.9443 212.998 72.9519 212.924L76.5884 176.439C76.6004 176.321 76.6991 176.229 76.8179 176.227L82.3869 176.114C82.4516 176.117 82.5214 176.141 82.5673 176.192C82.6126 176.243 82.634 176.311 82.6258 176.38L78.08 212.068C78.0674 212.169 77.9913 212.25 77.8913 212.27L73.2317 213.179L73.1864 213.184Z" fill="#040606"/>
<path d="M119.916 105.712C119.916 105.712 115.192 113.243 110.615 112.8C106.039 112.357 91.2764 99.2158 75.6286 99.068C75.6286 99.068 75.1884 102.523 67.2494 103.545C59.3101 104.567 57.471 102.169 57.471 102.169C57.471 102.169 50.533 104.679 38.8706 106.008C27.2085 107.336 20.2697 106.746 16.7272 89.4711C11.8554 91.5378 9.49365 92.2761 9.49365 92.2761C9.49365 92.2761 15.3988 124.759 48.6138 116.49C46.2515 128.302 45.9567 137.899 49.3519 143.067C49.3519 143.067 75.8405 144.594 94.5784 140.644C94.5382 140.208 94.525 140.114 94.525 140.114C94.525 140.114 88.3241 117.819 87.1431 113.243C86.1106 109.256 86.6998 108.813 89.6528 110.733C92.6051 112.652 102.496 120.773 110.615 121.216C118.735 121.658 125.378 110.88 125.378 110.88L119.916 105.712Z" fill="white"/>
<path d="M49.4847 142.838C50.2891 142.881 55.0835 143.121 61.6179 143.121C70.7112 143.121 83.7406 142.658 94.3238 140.456C94.3012 140.22 94.2917 140.153 94.2917 140.147C94.2358 139.955 88.0826 117.828 86.9149 113.302C86.3647 111.178 86.2949 110.165 86.6653 109.686C87.0922 109.136 87.894 109.308 89.7811 110.534C90.2597 110.846 90.9023 111.307 91.7154 111.89C95.9682 114.938 103.882 120.612 110.629 120.98C117.974 121.377 124.205 112.253 125.074 110.917L119.96 106.078C119.118 107.353 115.118 113.053 111.008 113.054C110.869 113.054 110.731 113.047 110.593 113.034C109.019 112.882 106.317 111.299 102.895 109.294C96.2109 105.379 86.132 99.4737 75.8154 99.3064C75.584 100.1 74.2823 102.878 67.279 103.779C65.9635 103.949 64.7279 104.034 63.6079 104.034C59.4104 104.034 57.8216 102.845 57.404 102.442C56.335 102.807 49.5345 105.03 38.8972 106.242C36.1269 106.558 34.2195 106.692 32.5192 106.692C24.8521 106.693 19.5005 103.858 16.5545 89.8001C12.6791 91.4366 10.4242 92.2164 9.76705 92.4353C10.2785 94.8309 15.7569 117.602 38.3769 117.602C41.5587 117.602 44.9834 117.151 48.5569 116.262C48.636 116.241 48.7182 116.265 48.7767 116.32C48.835 116.375 48.8607 116.457 48.8455 116.537C46.2503 129.511 46.4592 138.117 49.4847 142.838ZM61.6179 143.593C54.4632 143.593 49.3888 143.306 49.3385 143.303C49.2643 143.298 49.196 143.259 49.155 143.197C46.0256 138.433 45.7485 129.799 48.3105 116.807C44.8298 117.648 41.4899 118.074 38.3769 118.074C14.2241 118.074 9.30825 92.5762 9.26153 92.3183C9.24065 92.2014 9.30945 92.0869 9.4232 92.051C9.44704 92.0435 11.8334 91.2913 16.6351 89.2535C16.6995 89.2252 16.7732 89.2284 16.837 89.2624C16.8996 89.2951 16.9438 89.3542 16.9581 89.4234C19.8394 103.473 24.8455 106.221 32.5192 106.221C34.2006 106.221 36.092 106.087 38.8444 105.773C50.3456 104.463 57.3217 101.972 57.3905 101.947C57.4875 101.913 57.5963 101.944 57.6582 102.026C57.6693 102.039 58.9338 103.563 63.6079 103.563C64.7077 103.563 65.9226 103.478 67.2193 103.311C74.8885 102.324 75.3903 99.0712 75.3947 99.0385C75.4098 98.9202 75.5098 98.8322 75.6286 98.8322H75.6312C86.1383 98.9315 96.365 104.923 103.133 108.887C106.505 110.862 109.168 112.422 110.639 112.565C110.761 112.577 110.884 112.582 111.007 112.582C115.277 112.582 119.672 105.657 119.716 105.587C119.754 105.528 119.816 105.487 119.887 105.478C119.957 105.47 120.026 105.493 120.078 105.541L125.54 110.709C125.621 110.785 125.637 110.909 125.578 111.004C125.315 111.431 119.04 121.464 111.105 121.464C110.938 121.464 110.771 121.46 110.603 121.451C103.72 121.075 95.7324 115.35 91.4406 112.273C90.6326 111.694 89.9943 111.236 89.5239 110.93C88.8221 110.474 87.8286 109.868 87.3016 109.868C87.1413 109.868 87.0765 109.925 87.0382 109.975C86.6653 110.456 87.1966 112.509 87.3721 113.183C88.5385 117.706 94.6898 139.828 94.752 140.051C94.7583 140.08 94.7722 140.177 94.8137 140.622C94.8243 140.742 94.7445 140.851 94.6275 140.875C83.9682 143.122 70.7929 143.593 61.6179 143.593Z" fill="#040606"/>
<path d="M46.7167 146.168C46.7167 146.168 43.9115 166.839 45.3878 174.959C57.198 178.945 87.7552 178.354 93.9554 172.744C92.755 154.989 92.1526 146.852 91.8577 143.15C69.7178 148.716 46.7167 146.168 46.7167 146.168Z" fill="#2B322B"/>
<path d="M48.5262 174.78C53.2879 176.354 61.4185 177.292 70.327 177.292C83.0822 177.292 93.3768 175.47 96.6436 172.644C95.4746 155.363 94.8753 147.239 94.576 143.446C82.8036 146.37 70.815 146.985 62.8056 146.985C55.8934 146.985 50.9494 146.536 49.8514 146.426C49.5554 148.687 47.2088 167.157 48.5262 174.78ZM70.327 177.763C61.287 177.763 53.0312 176.799 48.243 175.182C48.1619 175.155 48.1018 175.085 48.0865 175.001C46.6205 166.938 49.386 146.343 49.4134 146.136C49.4314 146.01 49.5485 145.917 49.6733 145.934C49.7262 145.939 55.0061 146.514 62.8056 146.514C70.8502 146.514 82.9193 145.89 94.7313 142.921C94.7998 142.904 94.8703 142.918 94.9262 142.958C94.9828 142.999 95.0187 143.062 95.0237 143.131C95.3167 146.809 95.9179 154.93 97.1215 172.728C97.1265 172.8 97.0982 172.871 97.0448 172.919C93.0932 176.494 80.1827 177.763 70.327 177.763Z" fill="#040606"/>
<path d="M49.3521 143.067C49.3521 145.282 49.6477 146.168 49.6477 146.168C49.6477 146.168 72.6488 148.716 94.7887 143.15C94.6843 141.828 94.6182 141.072 94.5785 140.644C75.8406 144.594 49.3521 143.067 49.3521 143.067Z" fill="#2B322B"/>
<path d="M49.8335 145.95C50.7726 146.045 55.7632 146.514 62.8056 146.514C70.8068 146.514 82.7873 145.898 94.5383 142.97C94.4609 141.999 94.4056 141.354 94.3678 140.929C83.7551 143.129 70.7188 143.593 61.6179 143.593C55.3603 143.593 50.6957 143.373 49.5891 143.316C49.6051 144.811 49.7606 145.64 49.8335 145.95ZM62.8056 146.985C54.9796 146.985 49.6746 146.408 49.6218 146.402C49.5302 146.392 49.4528 146.329 49.424 146.243C49.411 146.205 49.1162 145.295 49.1162 143.067C49.1162 143.002 49.1432 142.94 49.1899 142.895C49.2373 142.851 49.298 142.827 49.3655 142.832C49.4159 142.834 54.4761 143.121 61.6179 143.121C70.7703 143.121 83.9104 142.651 94.5301 140.414C94.5961 140.399 94.6647 140.415 94.7187 140.455C94.7728 140.494 94.8074 140.556 94.8137 140.623C94.8527 141.051 94.92 141.808 95.0237 143.131C95.0332 143.246 94.9577 143.35 94.8464 143.378C82.9873 146.36 70.8766 146.985 62.8056 146.985Z" fill="#040606"/>
<path d="M86.6653 84.0328C86.6653 84.0328 89.0152 86.8315 92.1487 83.697C95.2828 80.563 93.2686 74.9661 90.1345 74.6303C87.0011 74.2944 85.3221 78.8837 85.3221 78.8837L81.2932 79.1076L80.9567 65.6756L74.6904 64.668C74.6904 64.668 74.5779 57.3919 76.9284 52.8026C73.3479 57.5039 72.2279 64.1083 72.2279 64.1083L59.4693 61.1976C59.4693 61.1976 58.9093 55.1536 61.7076 49.8926C59.3576 53.1385 58.6857 54.258 57.3426 60.9737C51.747 59.5183 42.2334 59.6309 42.2334 59.6309C42.2334 59.6309 42.0099 53.363 45.2555 48.2133C38.9881 53.1391 39.5474 59.407 39.5474 59.407L29.7657 59.7881C29.7657 59.7881 20.881 100.291 57.4465 100.804C66.6313 100.804 75.3325 96.946 77.883 95.7108C84.8574 91.2447 86.6653 84.0328 86.6653 84.0328Z" fill="#FAB5A7"/>
<path d="M29.9597 60.0164C29.5679 62.0007 26.337 79.9875 35.274 91.2579C40.0615 97.2957 47.522 100.428 57.4482 100.567C66.6011 100.567 75.3243 96.6875 77.7805 95.4988C84.5719 91.1472 86.4181 84.0466 86.4363 83.9756C86.4577 83.89 86.5256 83.8234 86.6118 83.8032C86.6979 83.7818 86.7885 83.8133 86.8457 83.8806C86.8539 83.8919 87.7644 84.9472 89.1498 84.9472C90.0892 84.9472 91.0425 84.4705 91.982 83.5303C93.7195 81.7925 93.7163 79.4114 93.1353 77.7623C92.553 76.1127 91.3934 75.0026 90.1094 74.8649C87.2092 74.5567 85.5591 78.9221 85.5434 78.9649C85.5113 79.0535 85.429 79.1139 85.3346 79.1196L81.3057 79.3435C81.2441 79.346 81.1799 79.3246 81.1334 79.2812C81.0863 79.2378 81.0592 79.1774 81.0573 79.1133L80.7259 65.8768L74.6527 64.9007C74.5395 64.8825 74.4565 64.7862 74.4546 64.6718C74.4508 64.4177 74.3911 59.2724 75.811 54.9158C73.3227 59.2083 72.4694 64.0913 72.4606 64.1479C72.4493 64.212 72.4128 64.268 72.3587 64.3038C72.3046 64.341 72.2373 64.3523 72.1757 64.3384L59.417 61.4278C59.3175 61.4051 59.2438 61.3208 59.2347 61.2196C59.2298 61.1667 58.8397 56.6623 60.4954 52.0611C59.218 54.085 58.5904 55.9378 57.5742 61.0202C57.5612 61.0837 57.5226 61.1397 57.4679 61.1737C57.4126 61.2083 57.347 61.2183 57.2831 61.202C52.5109 59.9611 44.9219 59.8649 42.7099 59.8649L42.2366 59.8667H42.2334C42.1064 59.8667 42.0025 59.7661 41.9976 59.6391C41.9959 59.5806 41.8362 54.1579 44.379 49.2686C39.3595 53.8994 39.7771 59.3284 39.782 59.3856C39.7881 59.4504 39.7673 59.5139 39.7242 59.5623C39.682 59.6114 39.6211 59.6397 39.5567 59.6422L29.9597 60.0164ZM57.4465 101.039H57.444C47.3667 100.899 39.7832 97.7051 34.9031 91.5498C25.3434 79.4913 29.4922 59.9334 29.5352 59.7372C29.5581 59.6328 29.6489 59.5567 29.7563 59.5523L39.3025 59.1806C39.2816 57.9542 39.5179 52.4221 45.1099 48.0277C45.2002 47.9573 45.3279 47.9611 45.4132 48.0384C45.4987 48.1152 45.5159 48.2422 45.455 48.3397C42.6321 52.8177 42.4675 58.2265 42.4668 59.3938L42.7099 59.3932C44.8993 59.3932 52.3242 59.4875 57.1603 60.6844C58.4781 54.1479 59.1684 52.9976 61.5167 49.7542C61.5897 49.6535 61.7284 49.6284 61.8323 49.6925C61.9372 49.7579 61.9741 49.8938 61.9158 50.0032C59.4403 54.6573 59.6302 59.9957 59.6921 61.007L72.0418 63.824C72.2876 62.5774 73.5554 56.8422 76.741 52.6598C76.8146 52.563 76.9498 52.5384 77.0542 52.6032C77.1573 52.6686 77.1938 52.8013 77.1384 52.9101C75.0558 56.9762 74.93 63.2756 74.9256 64.4667L80.9944 65.4429C81.107 65.4605 81.19 65.5561 81.1925 65.6693L81.5227 78.8586L85.1573 78.6567C85.4837 77.846 87.1771 74.0799 90.1597 74.3957C91.6261 74.5529 92.9359 75.7825 93.5799 77.6051C94.2093 79.39 94.2081 81.9711 92.3159 83.8642C91.284 84.8957 90.2188 85.4189 89.1498 85.4189C88.0273 85.4189 87.1947 84.8435 86.7797 84.4781C86.2823 86.0491 84.0556 92.0384 78.01 95.9095C75.5066 97.1234 66.7011 101.039 57.4465 101.039Z" fill="#040606"/>
<path d="M67.869 29.8813C45.9974 29.1976 40.0166 36.8882 37.7956 39.9643C32.3277 42.0152 27.0318 51.0725 26.8604 60.1297C29.2524 59.6171 29.7657 59.7882 29.7657 59.7882L39.5475 59.407C39.5475 59.407 38.9882 53.1391 45.2556 48.2133C42.01 53.363 42.2335 59.6309 42.2335 59.6309C42.2335 59.6309 51.747 59.5184 57.3427 60.9737C58.6858 54.258 59.3577 53.1385 61.7077 49.8926C58.9094 55.1536 59.4694 61.1976 59.4694 61.1976L72.228 64.1083C72.228 64.1083 73.348 57.5039 76.9285 52.8026C74.578 57.3919 74.6904 64.6681 74.6904 64.6681L80.9568 65.6756L81.2932 79.1077L85.3222 78.8838C85.3222 78.8838 87.0011 74.2945 90.1345 74.6303C93.2686 74.9662 95.2829 80.563 92.1488 83.697C89.0153 86.8316 86.6654 84.0328 86.6654 84.0328C86.6654 84.0328 84.8575 91.2448 77.8831 95.7108C78.3685 95.4756 78.6339 95.3347 78.6339 95.3347C78.6339 95.3347 95.5489 94.1379 102.385 74.485C109.219 54.8322 93.3284 32.1026 67.869 29.8813Z" fill="#F36433"/>
<path d="M86.7798 84.478C86.3195 85.9327 84.3777 91.1724 79.2961 95.0139C82.5063 94.5227 96.2343 91.4503 102.161 74.4076C105.163 65.778 103.808 56.078 98.4465 47.7944C91.9035 37.6856 80.7506 31.2422 67.8488 30.1157C66.9559 30.0887 66.0548 30.0742 65.1839 30.0742C45.2274 30.0742 39.7779 37.622 37.9865 40.1025L37.8784 40.1849C32.3602 42.2541 27.3737 51.3862 27.1035 59.8378C28.9932 59.4522 29.6085 59.5139 29.7883 59.551L39.3026 59.1805C39.2817 57.9541 39.518 52.422 45.11 48.0277C45.2004 47.9573 45.3281 47.961 45.4133 48.0384C45.4988 48.1151 45.516 48.2422 45.4551 48.3396C42.6322 52.8176 42.4676 58.2264 42.4669 59.3937L42.7101 59.3925C44.8995 59.3925 52.3243 59.4874 57.1604 60.6843C58.4782 54.1478 59.1685 52.9975 61.5168 49.7541C61.5898 49.6535 61.7285 49.6283 61.8324 49.6925C61.9373 49.7579 61.9742 49.8937 61.9159 50.0032C59.4424 54.6535 59.6303 59.9956 59.6922 61.007L72.0419 63.8239C72.2878 62.5774 73.5555 56.8422 76.7411 52.6598C76.8147 52.5629 76.9499 52.5384 77.0543 52.6032C77.1574 52.6686 77.1939 52.8013 77.1386 52.9101C75.0559 56.9761 74.9301 63.2755 74.9257 64.4667L80.9946 65.4428C81.1071 65.4604 81.1901 65.556 81.1926 65.6692L81.5228 78.8585L85.1574 78.6566C85.4844 77.8466 87.1797 74.0868 90.1598 74.3956C91.6262 74.5529 92.9361 75.7824 93.58 77.6051C94.2094 79.39 94.2082 81.9711 92.316 83.8642C91.2841 84.8956 90.2189 85.4189 89.1499 85.4189C88.0274 85.4189 87.1948 84.8434 86.7798 84.478ZM77.8831 95.9466C77.8001 95.9466 77.7202 95.9032 77.6775 95.8264C77.6165 95.717 77.6511 95.5799 77.7561 95.5126C84.572 91.1472 86.4182 84.0466 86.4365 83.9755C86.4578 83.89 86.5258 83.8233 86.6119 83.8032C86.6981 83.7818 86.7886 83.8132 86.8458 83.8805C86.854 83.8919 87.7646 84.9472 89.1499 84.9472C90.0893 84.9472 91.0427 84.4705 91.9821 83.5302C93.7197 81.7925 93.7164 79.4113 93.1354 77.7623C92.5531 76.1126 91.3935 75.0025 90.1095 74.8648C87.2093 74.5566 85.5592 78.922 85.5435 78.9648C85.5115 79.0535 85.4291 79.1139 85.3347 79.1195L81.3058 79.3434C81.2442 79.3459 81.1801 79.3245 81.1335 79.2811C81.0864 79.2378 81.0593 79.1774 81.0574 79.1132L80.726 65.8768L74.6528 64.9007C74.5396 64.8824 74.4566 64.7862 74.4547 64.6717C74.4509 64.4176 74.3912 59.2724 75.8111 54.9157C73.3228 59.2082 72.4695 64.0912 72.4607 64.1478C72.4494 64.212 72.4129 64.268 72.3588 64.3044C72.3047 64.3409 72.2375 64.3522 72.1758 64.3384L59.4171 61.4277C59.3176 61.4051 59.2439 61.3208 59.2349 61.2195C59.23 61.1667 58.8398 56.6623 60.4955 52.0604C59.2181 54.0849 58.5906 55.9378 57.5743 61.0202C57.5613 61.0837 57.5227 61.1396 57.468 61.1736C57.4127 61.2082 57.3471 61.2183 57.2832 61.2019C52.511 59.961 44.922 59.8642 42.7101 59.8642L42.2367 59.8667H42.2335C42.1066 59.8667 42.0026 59.7661 41.9977 59.639C41.996 59.5805 41.8364 54.1579 44.3792 49.2686C39.3596 53.8994 39.7772 59.3283 39.7821 59.3856C39.7883 59.4503 39.7674 59.5139 39.7244 59.5623C39.6821 59.6114 39.6212 59.6396 39.5568 59.6422L29.7748 60.0239L29.692 60.012C29.6888 60.012 29.6139 59.9963 29.4322 59.9963C29.0564 59.9963 28.3133 60.0598 26.9095 60.3604C26.8419 60.3755 26.7665 60.3573 26.7105 60.312C26.6547 60.2661 26.6233 60.1975 26.6245 60.1252C26.7916 51.3025 31.8315 42.0063 37.6458 39.7686C39.5138 37.1837 45.1365 29.6025 65.1839 29.6025C66.0598 29.6025 66.9653 29.617 67.8765 29.6453C80.938 30.7849 92.2198 37.3057 98.8428 47.5378C104.284 55.9447 105.656 65.795 102.607 74.5623C95.9859 93.6007 79.7426 95.4661 78.7018 95.5654C78.6081 95.6145 78.3623 95.7409 77.9856 95.9233L77.8831 95.9466Z" fill="#231F20"/>
<path d="M49.3188 91.1649C49.3188 91.1649 59.0702 93.2555 65.0405 85.0951C64.5431 91.8624 59.966 101.416 49.3188 91.1649Z" fill="white"/>
<path d="M50.0376 91.5164C52.8705 94.112 55.4288 95.4271 57.6486 95.4271C61.806 95.4271 64.1747 90.6252 64.7287 85.8862C60.683 90.8743 55.1579 91.641 52.1496 91.641C51.2645 91.641 50.5394 91.5781 50.0376 91.5164ZM57.6486 95.8988C55.1586 95.8988 52.3011 94.363 49.1557 91.3353C49.0796 91.2617 49.0619 91.1479 49.111 91.0548C49.1607 90.9611 49.2645 90.9139 49.3682 90.9347C49.3792 90.9372 50.4871 91.1693 52.1496 91.1693C55.1954 91.1693 60.8947 90.3617 64.8501 84.9554C64.9123 84.8711 65.0211 84.8372 65.1223 84.8737C65.2204 84.9101 65.284 85.007 65.2758 85.112C64.8934 90.307 62.344 95.8988 57.6486 95.8988Z" fill="#231F20"/>
<path d="M49.3186 91.4008L49.2628 91.3945C45.5493 90.4913 42.7871 87.2744 42.6712 87.1379C42.5869 87.0385 42.5992 86.8901 42.6987 86.8058C42.7977 86.7215 42.9468 86.7335 43.0311 86.8328C43.0581 86.8649 45.8129 90.0699 49.3746 90.936C49.5011 90.9668 49.5785 91.0945 49.5478 91.2209C49.5213 91.3291 49.425 91.4008 49.3186 91.4008Z" fill="#231F20"/>
<path d="M66.8745 85.6441C64.6265 85.6441 63.5876 83.8982 63.5424 83.8195C63.4776 83.7076 63.5153 83.5636 63.6279 83.4982C63.7398 83.4327 63.8832 83.4705 63.9499 83.5824C63.992 83.6548 64.995 85.3346 67.2097 85.1585C67.3468 85.1441 67.4537 85.2441 67.4644 85.3736C67.4751 85.5038 67.3789 85.6177 67.2493 85.6284C67.1204 85.639 66.9959 85.6441 66.8745 85.6441Z" fill="#231F20"/>
<path d="M62.5855 72.6492C62.5855 74.2121 61.9992 75.4794 61.2758 75.4794C60.5517 75.4794 59.9653 74.2121 59.9653 72.6492C59.9653 71.0857 60.5517 69.819 61.2758 69.819C61.9992 69.819 62.5855 71.0857 62.5855 72.6492Z" fill="#231F20"/>
<path d="M43.9308 72.9635C43.9308 74.5264 43.3444 75.7937 42.621 75.7937C41.8969 75.7937 41.3105 74.5264 41.3105 72.9635C41.3105 71.4 41.8969 70.1334 42.621 70.1334C43.3444 70.1334 43.9308 71.4 43.9308 72.9635Z" fill="#231F20"/>
<path d="M107.409 35.702C104.471 35.702 100.733 32.4976 100.466 28.0907C90.1843 30.2272 82.0397 24.3517 80.9719 19.4108C74.6962 21.9479 69.2191 19.6775 69.2191 19.6775L64.1821 29.9731C91.0533 30.1202 100.866 51.8605 100.866 51.8605L109.945 41.1775C107.675 39.175 107.409 35.702 107.409 35.702Z" fill="white"/>
<path d="M64.5579 29.741C89.1804 30.063 99.536 48.7051 100.919 51.4334L109.618 41.1982C107.746 39.4146 107.29 36.7127 107.196 35.9334C104.143 35.7907 100.643 32.6227 100.25 28.3743C98.8795 28.6422 97.4986 28.7781 96.1403 28.7781C88.2925 28.7781 81.9696 24.1504 80.8056 19.7297C78.8808 20.4718 76.8433 20.8479 74.7462 20.8479C71.9925 20.8479 69.9708 20.2045 69.3364 19.9743L64.5579 29.741ZM100.866 52.0963L100.832 52.0938C100.753 52.0831 100.684 52.0315 100.651 51.958C100.553 51.7422 90.5839 30.3536 64.1806 30.2089C64.0994 30.2089 64.024 30.1661 63.9812 30.0976C63.9385 30.0284 63.9341 29.9429 63.9699 29.8699L69.0069 19.5737C69.0609 19.4617 69.1936 19.4114 69.3093 19.4592C69.3313 19.4687 71.5637 20.3762 74.7462 20.3762C76.8748 20.3762 78.9399 19.9775 80.883 19.1919C80.9471 19.1661 81.0207 19.1693 81.0823 19.202C81.1433 19.2347 81.1873 19.2926 81.2018 19.3611C82.1356 23.6806 88.361 28.3064 96.1403 28.3064C97.5533 28.3064 98.992 28.1561 100.418 27.8599C100.486 27.8454 100.555 27.8617 100.609 27.9032C100.663 27.9448 100.697 28.0077 100.701 28.0762C100.953 32.2385 104.514 35.4661 107.409 35.4661C107.532 35.4661 107.634 35.5611 107.644 35.6844C107.646 35.7177 107.931 39.0869 110.101 41.0007C110.197 41.0863 110.208 41.2322 110.125 41.3303L101.046 52.0133C101 52.0668 100.934 52.0963 100.866 52.0963Z" fill="#040606"/>
<path d="M131.842 31.1624C131.442 23.1498 124.499 21.4139 124.499 21.4139C123.697 10.197 115.019 7.39256 106.073 9.66238C95.1245 -6.22882 82.8409 4.72149 82.8409 4.72149C78.1674 -0.75335 66.8189 0.0472803 64.0149 7.2586C61.211 14.4699 69.2191 19.6775 69.2191 19.6775C69.2191 19.6775 74.6962 21.9479 80.972 19.4108C82.0397 24.3517 90.1844 30.2271 100.466 28.0907C100.733 32.4976 104.471 35.702 107.409 35.702C107.409 35.702 107.675 39.175 109.945 41.1775C109.945 41.1775 111.681 44.2492 118.758 44.2492C125.834 44.2492 132.242 39.175 131.842 31.1624Z" fill="white"/>
<path d="M100.466 27.8548L100.609 27.9032C100.664 27.9447 100.698 28.0076 100.701 28.0762C100.953 32.2385 104.514 35.4661 107.409 35.4661C107.532 35.4661 107.634 35.5611 107.644 35.6844C107.647 35.7177 107.932 39.0869 110.101 41.0007L110.15 41.0605C110.167 41.09 111.931 44.0133 118.758 44.0133C122.513 44.0133 126.046 42.5636 128.45 40.0359C130.687 37.6837 131.779 34.6196 131.606 31.1737C131.219 23.4259 124.509 21.6598 124.442 21.6429C124.343 21.6183 124.271 21.5328 124.264 21.4309C123.706 13.6391 119.085 9.17049 111.585 9.17049C109.851 9.17049 108.016 9.41264 106.131 9.89063C106.036 9.91578 105.935 9.87679 105.879 9.79629C101.986 4.14535 97.5065 1.27993 92.5657 1.27993C87.1182 1.27993 83.0383 4.86106 82.9981 4.89754C82.9496 4.93967 82.8836 4.95917 82.8245 4.95665C82.7616 4.95225 82.7025 4.9227 82.661 4.8749C80.7972 2.69063 77.6429 1.38623 74.224 1.38623C69.5631 1.38623 65.6423 3.72522 64.235 7.34409C61.5316 14.2963 69.2694 19.4284 69.3474 19.4793C69.3581 19.4793 71.5835 20.3762 74.7465 20.3762C76.8751 20.3762 78.9402 19.9775 80.8833 19.1919C80.9475 19.1661 81.021 19.1693 81.0826 19.202C81.1436 19.2347 81.1877 19.2925 81.2021 19.3611C82.1359 23.6806 88.3614 28.3064 96.1406 28.3064C97.5536 28.3064 98.9924 28.1561 100.418 27.8598L100.466 27.8548ZM118.758 44.485C111.956 44.485 109.993 41.7007 109.762 41.3297C107.769 39.551 107.293 36.7322 107.196 35.9334C104.144 35.7907 100.643 32.6227 100.251 28.3743C98.8798 28.6422 97.4989 28.7781 96.1406 28.7781C88.2928 28.7781 81.9699 24.1504 80.806 19.7297C78.8811 20.4718 76.8437 20.8479 74.7465 20.8479C71.4647 20.8479 69.2229 19.9341 69.1292 19.8951C69.0091 19.8221 60.9543 14.4787 63.7948 7.17302C65.2738 3.37113 69.3675 0.914532 74.224 0.914532C77.687 0.914532 80.8971 2.21074 82.8666 4.39313C83.7332 3.69125 87.6005 0.808228 92.5657 0.808228C97.631 0.808228 102.209 3.69691 106.174 9.39376C108.041 8.93213 109.86 8.69879 111.585 8.69879C119.312 8.69879 124.092 13.2649 124.721 21.2341C125.794 21.5699 131.708 23.7561 132.077 31.1504C132.257 34.7284 131.12 37.9133 128.791 40.3617C126.299 42.9819 122.641 44.485 118.758 44.485Z" fill="#040606"/>
<path d="M71.3591 30.5968L71.2484 30.5692C71.1333 30.5082 71.0893 30.3654 71.1509 30.2503L73.5543 25.71C73.6153 25.5943 73.7562 25.5509 73.8731 25.6119C73.9876 25.6729 74.0322 25.8157 73.9706 25.9308L71.5672 30.471C71.5245 30.5515 71.4433 30.5968 71.3591 30.5968Z" fill="#040606"/>
<path d="M82.7081 34.4691L82.593 34.4396C82.4792 34.3767 82.4383 34.2327 82.5012 34.1188L85.1725 29.3113C85.236 29.1975 85.3787 29.1566 85.4925 29.2201C85.607 29.283 85.6479 29.4264 85.585 29.5409L82.9143 34.3484C82.8703 34.4258 82.7904 34.4691 82.7081 34.4691Z" fill="#040606"/>
<path d="M90.9859 39.2768L90.8514 39.2352C90.7445 39.161 90.7181 39.0139 90.7916 38.9069L93.195 35.4346C93.2699 35.3271 93.417 35.3007 93.5239 35.3755C93.6308 35.4491 93.6572 35.5963 93.5836 35.7032L91.1796 39.1755C91.1337 39.2422 91.0601 39.2768 90.9859 39.2768Z" fill="#040606"/>
<path d="M98.3295 47.556L98.1956 47.5145C98.0887 47.4403 98.0623 47.2938 98.1359 47.1869L102.008 41.578C102.083 41.4705 102.231 41.4447 102.336 41.5177C102.443 41.5919 102.47 41.7384 102.396 41.846L98.5239 47.4542C98.478 47.5208 98.405 47.556 98.3295 47.556Z" fill="#040606"/>
<path d="M67.2493 103.545C75.1883 102.523 75.6284 99.0679 75.6284 99.0679C75.1857 97.0006 75.1857 97.0006 75.1857 97.0006C75.1857 97.0006 66.279 100.768 57.4463 100.804L57.4709 102.169C57.4709 102.169 59.31 104.567 67.2493 103.545Z" fill="white"/>
<path d="M57.7047 102.076C57.9707 102.341 59.423 103.563 63.6077 103.563C64.7075 103.563 65.9218 103.478 67.2191 103.311C74.418 102.384 75.3071 99.4234 75.3876 99.0705L75.0135 97.3253C73.4835 97.9353 65.5439 100.946 57.6863 101.038L57.7047 102.076ZM63.6077 104.034C58.6615 104.034 57.3375 102.382 57.2834 102.312L57.2351 102.173L57.2105 100.808C57.2093 100.745 57.2338 100.684 57.2773 100.639C57.3215 100.593 57.3825 100.568 57.4451 100.567C66.1268 100.532 75.0053 96.8215 75.0933 96.7838C75.1581 96.7561 75.2323 96.7592 75.2945 96.7919C75.3568 96.824 75.4008 96.8825 75.4159 96.9517L75.8586 99.0183L75.8624 99.0976C75.8435 99.246 75.3065 102.746 67.2788 103.779C65.9627 103.949 64.7277 104.034 63.6077 104.034Z" fill="#040606"/>
<path d="M83.9657 142.487C83.8531 142.487 83.7537 142.405 83.733 142.292L78.6174 113.157L61.5547 103.752C61.4934 103.718 61.4503 103.659 61.4368 103.59L60.8866 100.76C60.8621 100.631 60.9456 100.508 61.0733 100.483C61.2003 100.46 61.3243 100.542 61.3496 100.669L61.879 103.392L78.9432 112.799C79.0061 112.834 79.0494 112.894 79.062 112.965L84.1977 142.21C84.2203 142.338 84.1342 142.46 84.0059 142.483L83.9657 142.487Z" fill="#231F20"/>
<path d="M48.6138 116.726L48.5291 116.711C48.4074 116.663 48.3468 116.527 48.3939 116.405L50.4175 111.139C50.4634 111.017 50.5997 110.957 50.7221 111.003C50.8437 111.05 50.9043 111.186 50.8572 111.308L48.8336 116.575C48.798 116.668 48.7083 116.726 48.6138 116.726Z" fill="#231F20"/>
<path d="M81.1358 138.582C81.1358 139.451 80.4554 140.154 79.6159 140.154C78.7771 140.154 78.0967 139.451 78.0967 138.582C78.0967 137.714 78.7771 137.009 79.6159 137.009C80.4554 137.009 81.1358 137.714 81.1358 138.582Z" fill="#2B322B"/>
<path d="M79.6159 137.244C78.9085 137.244 78.3325 137.844 78.3325 138.581C78.3325 139.318 78.9085 139.917 79.6159 139.917C80.324 139.917 80.9 139.318 80.9 138.581C80.9 137.844 80.324 137.244 79.6159 137.244ZM79.6159 140.389C78.6481 140.389 77.8608 139.578 77.8608 138.581C77.8608 137.584 78.6481 136.772 79.6159 136.772C80.5837 136.772 81.3716 137.584 81.3716 138.581C81.3716 139.578 80.5837 140.389 79.6159 140.389Z" fill="#040606"/>
<path d="M79.2496 125.899C79.2496 126.767 78.5692 127.471 77.7297 127.471C76.8908 127.471 76.2104 126.767 76.2104 125.899C76.2104 125.03 76.8908 124.326 77.7297 124.326C78.5692 124.326 79.2496 125.03 79.2496 125.899Z" fill="#2B322B"/>
<path d="M77.7297 124.562C77.0222 124.562 76.4462 125.162 76.4462 125.899C76.4462 126.636 77.0222 127.235 77.7297 127.235C78.4377 127.235 79.0138 126.636 79.0138 125.899C79.0138 125.162 78.4377 124.562 77.7297 124.562ZM77.7297 127.707C76.7619 127.707 75.9746 126.896 75.9746 125.899C75.9746 124.902 76.7619 124.09 77.7297 124.09C78.6974 124.09 79.4854 124.902 79.4854 125.899C79.4854 126.896 78.6974 127.707 77.7297 127.707Z" fill="#040606"/>
<path d="M76.1051 114.683C76.1051 115.551 75.4247 116.255 74.5852 116.255C73.7463 116.255 73.0659 115.551 73.0659 114.683C73.0659 113.814 73.7463 113.111 74.5852 113.111C75.4247 113.111 76.1051 113.814 76.1051 114.683Z" fill="#2B322B"/>
<path d="M74.5851 113.346C73.8777 113.346 73.3017 113.946 73.3017 114.683C73.3017 115.42 73.8777 116.019 74.5851 116.019C75.2932 116.019 75.8692 115.42 75.8692 114.683C75.8692 113.946 75.2932 113.346 74.5851 113.346ZM74.5851 116.491C73.6174 116.491 72.8301 115.68 72.8301 114.683C72.8301 113.686 73.6174 112.875 74.5851 112.875C75.5529 112.875 76.3408 113.686 76.3408 114.683C76.3408 115.68 75.5529 116.491 74.5851 116.491Z" fill="#040606"/>
<path d="M64.4721 107.66C64.4721 108.528 63.7917 109.232 62.9519 109.232C62.113 109.232 61.4326 108.528 61.4326 107.66C61.4326 106.791 62.113 106.087 62.9519 106.087C63.7917 106.087 64.4721 106.791 64.4721 107.66Z" fill="#2B322B"/>
<path d="M62.9518 106.323C62.2444 106.323 61.6684 106.923 61.6684 107.66C61.6684 108.397 62.2444 108.996 62.9518 108.996C63.6602 108.996 64.2362 108.397 64.2362 107.66C64.2362 106.923 63.6602 106.323 62.9518 106.323ZM62.9518 109.468C61.984 109.468 61.1968 108.657 61.1968 107.66C61.1968 106.663 61.984 105.851 62.9518 105.851C63.9199 105.851 64.7079 106.663 64.7079 107.66C64.7079 108.657 63.9199 109.468 62.9518 109.468Z" fill="#040606"/>
<path d="M94.7627 141.535C94.7627 141.535 100.728 134.835 101.553 134.835C102.379 134.835 104.765 140.525 104.856 142.177C104.948 143.829 94.7627 141.535 94.7627 141.535Z" fill="#2B322B"/>
<path d="M95.2081 141.392C96.5174 141.671 100.771 142.54 103.148 142.54C104.225 142.54 104.513 142.36 104.587 142.282L104.622 142.19C104.52 140.368 102.156 135.2 101.547 135.072C101.05 135.151 97.9819 138.295 95.2081 141.392ZM103.148 143.012C100.276 143.012 94.9371 141.817 94.7114 141.766C94.6302 141.747 94.5642 141.688 94.5384 141.608C94.5133 141.529 94.5315 141.441 94.5869 141.378C96.0024 139.789 100.689 134.6 101.553 134.6C102.642 134.6 105.008 140.633 105.092 142.165C105.101 142.331 105.045 142.483 104.93 142.606C104.667 142.883 104.101 143.012 103.148 143.012Z" fill="#040606"/>
<path d="M95.1299 141.26C95.1299 141.26 106.234 147.684 106.508 148.326C106.784 148.968 104.398 150.346 104.398 150.346L95.1299 141.26Z" fill="#2B322B"/>
<path d="M96.6439 142.414L104.434 150.051C105.591 149.36 106.377 148.619 106.291 148.42C105.985 147.971 100.744 144.812 96.6439 142.414ZM104.398 150.582C104.337 150.582 104.278 150.558 104.232 150.514L94.9649 141.429C94.8801 141.346 94.87 141.212 94.9423 141.117C95.014 141.022 95.1454 140.997 95.2479 141.056C97.8689 142.572 106.442 147.571 106.725 148.234C107.048 148.987 105.288 150.104 104.515 150.55L104.398 150.582Z" fill="#040606"/>
<path d="M2.47967 89.0006C2.47967 89.0006 11.7549 74.6925 10.9689 68.7176C10.1829 62.7428 7.82475 60.0698 11.1261 54.5667C14.4275 49.0635 20.7158 50.3214 23.3883 53.466C26.0609 56.6107 25.432 63.8434 19.3009 67.7742C13.1698 71.705 10.9689 76.5793 8.45358 85.2271C5.93824 93.8749 5.41209 96.6554 2.63688 96.2333C-0.641639 95.7346 1.0648 91.5164 2.47967 89.0006Z" fill="#ACB0B2"/>
<path d="M17.4297 51.0088C14.9185 51.0088 12.7515 52.3157 11.328 54.688C8.97238 58.6151 9.55254 61.0434 10.3553 64.4044C10.6513 65.6459 10.9879 67.0528 11.2028 68.6868C11.9905 74.6792 3.05792 88.5421 2.67718 89.1289C1.97908 90.3717 0.420511 93.4641 1.19795 95.0585C1.45219 95.5798 1.93413 95.888 2.67227 96C4.99182 96.3528 5.63907 94.1421 7.61644 87.2748C7.80685 86.6132 8.00946 85.9094 8.22684 85.161C10.7869 76.3597 13.0782 71.4836 19.1737 67.5754C22.1083 65.6937 24.0655 62.7805 24.5426 59.583C24.8921 57.2427 24.3935 55.0126 23.2082 53.6188C21.8405 52.0088 19.6262 51.0088 17.4297 51.0088ZM3.14463 96.5107C2.9744 96.5107 2.79214 96.4956 2.60103 96.4666C1.71133 96.3314 1.0965 95.927 0.774228 95.2654C-0.0695356 93.5346 1.35147 90.5251 2.27384 88.8849C2.37382 88.7302 11.5005 74.5691 10.7348 68.7484C10.5228 67.1383 10.19 65.7446 9.89645 64.5138C9.09884 61.1748 8.46882 58.5371 10.924 54.4452C12.4359 51.9251 14.7461 50.5371 17.4297 50.5371C19.7607 50.5371 22.1128 51.6012 23.5681 53.3132C24.8393 54.8094 25.3785 57.1792 25.0093 59.6522C24.5119 62.9849 22.478 66.0176 19.4279 67.9729C13.4221 71.8232 11.2585 76.4276 8.68004 85.293C8.46265 86.0402 8.26004 86.744 8.06963 87.4056C6.16228 94.0314 5.4487 96.5107 3.14463 96.5107Z" fill="#040606"/>
<path d="M15.6335 68.2894C15.0091 68.2894 14.0461 67.9599 13.1348 67.1643C12.3186 66.4517 10.9688 64.8121 11.1002 61.8416C11.311 57.0976 13.8779 54.068 13.9872 53.941C14.072 53.8416 14.2211 53.8309 14.3193 53.9165C14.4183 54.0014 14.4293 54.1504 14.3446 54.2486C14.3188 54.2787 11.7745 57.2882 11.5719 61.8624C11.4546 64.4963 12.5261 66.0064 13.4448 66.8089C14.3217 67.5743 15.3149 67.8951 15.8005 67.8039C15.9375 67.7812 16.0518 67.8668 16.0751 67.9945C16.0984 68.1221 16.013 68.2454 15.8852 68.2687C15.8091 68.2819 15.7251 68.2894 15.6335 68.2894Z" fill="#231F20"/>
<path d="M14.9184 79.346C14.9184 79.346 13.9801 76.2523 11.918 75.9706C9.85588 75.6894 9.7625 76.9089 10.6996 78.2209C11.6367 79.5335 11.5433 80.4712 10.4184 81.5963C9.29333 82.7215 8.07497 85.0661 7.98115 87.5039C7.88707 89.9416 11.8241 88.2536 14.168 86.4724C16.5121 84.6907 15.8556 82.1592 14.9184 79.346Z" fill="#FAB5A7"/>
<path d="M11.3662 76.1654C11.0235 76.1654 10.5826 76.2283 10.4283 76.5289C10.2584 76.8585 10.432 77.4396 10.8921 78.0843C11.8894 79.4817 11.8009 80.5478 10.5855 81.7629C9.50967 82.839 8.30973 85.0968 8.21711 87.5126C8.20409 87.8421 8.27357 88.088 8.42342 88.2434C8.57749 88.4037 8.82921 88.4842 9.17261 88.4849C10.4578 88.4849 12.587 87.378 14.0257 86.2842C16.2106 84.6239 15.6518 82.2937 14.6951 79.4207C14.684 79.3855 13.7734 76.4616 11.8862 76.2044C11.6954 76.178 11.5222 76.1654 11.3662 76.1654ZM9.17312 88.9566C8.6966 88.9559 8.32935 88.8264 8.08373 88.5704C7.84125 88.3188 7.72756 87.9566 7.74548 87.4943C7.84377 84.9515 9.11369 82.5679 10.2515 81.4295C11.3065 80.3742 11.3735 79.5704 10.5077 78.3578C9.92677 77.5434 9.74913 76.8169 10.009 76.3125C10.154 76.0308 10.5077 75.6937 11.3662 75.6937C11.5448 75.6937 11.7413 75.7082 11.95 75.7371C14.137 76.0352 15.1041 79.1453 15.1441 79.278C16.1254 82.2214 16.7407 84.8132 14.3106 86.6597C12.856 87.766 10.6268 88.9566 9.17312 88.9566Z" fill="#040606"/>
<path d="M7.32454 79.8152C7.32454 79.8152 6.66818 84.5969 4.23072 84.6906C1.79351 84.7844 1.794 80.0963 2.73111 76.8145C3.66821 73.5328 6.29285 73.158 8.07443 74.7517C9.85584 76.3454 9.10539 78.4083 7.32454 79.8152Z" fill="#FAB5A7"/>
<path d="M5.86771 74.0749C4.52776 74.0749 3.4671 75.0968 2.95814 76.8792C2.26962 79.2899 2.07925 82.5693 3.08218 83.8982C3.36516 84.2737 3.71764 84.456 4.15979 84.456L4.22194 84.4554C6.43636 84.3699 7.08483 79.829 7.09149 79.7831C7.09961 79.7227 7.1308 79.6674 7.17865 79.6296C8.21647 78.8101 8.82814 77.8089 8.85637 76.8818C8.87851 76.1623 8.56233 75.5051 7.91753 74.9277C7.30272 74.3774 6.57441 74.0749 5.86771 74.0749ZM4.15979 84.9277C3.56781 84.9277 3.0785 84.6774 2.70513 84.1818C1.59902 82.7152 1.76729 79.3328 2.50494 76.7498C3.06745 74.7793 4.32437 73.6031 5.86771 73.6031C6.69109 73.6031 7.53067 73.9484 8.23194 74.5761C8.97503 75.2409 9.35378 76.0435 9.328 76.8957C9.29555 77.9397 8.6471 79.0453 7.54469 79.9408C7.43414 80.6478 6.67708 84.8328 4.24036 84.9265L4.15979 84.9277Z" fill="#040606"/>
<path d="M7.32458 80.0509L7.31182 80.0503C7.18159 80.0428 7.0821 79.9321 7.08946 79.8019C7.17668 78.227 6.84063 77.5918 6.83768 77.5862C6.77556 77.4723 6.81611 77.3289 6.92911 77.266C7.04085 77.2031 7.18454 77.2409 7.24793 77.3541C7.26509 77.383 7.65692 78.0906 7.55989 79.8283C7.55297 79.9535 7.44934 80.0509 7.32458 80.0509Z" fill="#231F20"/>
<path d="M158.959 66.634C158.356 79.2843 147.59 89.3617 134.395 89.3617C120.812 89.3617 109.802 78.6849 109.802 65.5145C109.802 61.6591 110.751 58.0214 112.426 54.7988C108.873 59.1434 106.746 64.6334 106.746 70.6082C106.746 84.6755 118.505 96.0786 133.012 96.0786C147.519 96.0786 159.279 84.6755 159.279 70.6082C159.279 69.2566 159.168 67.9296 158.959 66.634Z" fill="#ACB0B2"/>
<path d="M111.274 56.7297C108.459 60.8486 106.981 65.6039 106.981 70.6083C106.981 84.5228 118.659 95.8428 133.012 95.8428C147.366 95.8428 159.043 84.5228 159.043 70.6083C159.043 70.0347 159.023 69.458 158.982 68.8806C157.295 80.6649 146.907 89.5975 134.395 89.5975C120.704 89.5975 109.566 78.7944 109.566 65.5145C109.566 62.4673 110.14 59.5228 111.274 56.7297ZM133.012 96.3146C118.398 96.3146 106.51 84.7831 106.51 70.6083C106.51 64.7542 108.492 59.2352 112.243 54.6491C112.319 54.5554 112.454 54.5347 112.555 54.602C112.657 54.668 112.69 54.8001 112.635 54.907C110.911 58.2234 110.037 61.7918 110.037 65.5145C110.037 78.534 120.964 89.1259 134.395 89.1259C147.435 89.1259 158.122 79.2415 158.723 66.6227C158.73 66.5019 158.825 66.4051 158.946 66.3988C159.079 66.3925 159.172 66.4775 159.192 66.5963C159.406 67.9259 159.515 69.2756 159.515 70.6083C159.515 84.7831 147.626 96.3146 133.012 96.3146Z" fill="#040606"/>
<path d="M136.462 51.4095C121.419 48.9661 113.103 58.8183 109.857 63.9586C109.823 64.473 109.802 64.9913 109.802 65.5145C109.802 78.685 120.812 89.3617 134.394 89.3617C143.269 89.3617 151.04 84.7994 155.364 77.9655C156.4 69.4554 153.608 54.1938 136.462 51.4095Z" fill="#6E7177"/>
<path d="M110.089 64.0339C110.054 64.5616 110.037 65.0465 110.037 65.5144C110.037 78.5339 120.964 89.1257 134.394 89.1257C142.91 89.1257 150.66 84.9245 155.136 77.8842C156.15 69.4037 153.347 54.3905 136.424 51.6421C134.873 51.3899 133.333 51.2622 131.849 51.2622C119.973 51.2622 113.128 59.2396 110.089 64.0339ZM134.394 89.5974C120.704 89.5974 109.566 78.7943 109.566 65.5144C109.566 65.0182 109.585 64.5044 109.622 63.9427L109.657 63.8327C112.733 58.9616 119.706 50.7905 131.849 50.7905C133.358 50.7905 134.923 50.9201 136.5 51.1761C153.81 53.988 156.65 69.3566 155.598 77.9943L155.563 78.0918C151.004 85.2962 143.091 89.5974 134.394 89.5974Z" fill="#040606"/>
<path d="M133.012 45.1378C124.667 45.1378 117.237 48.9158 112.426 54.7988C110.978 57.5837 110.076 60.6806 109.857 63.9585C113.103 58.8183 121.419 48.9661 136.462 51.4095C153.608 54.1938 156.4 69.4554 155.364 77.9655C157.469 74.6384 158.762 70.7762 158.959 66.634C156.991 54.4554 146.124 45.1378 133.012 45.1378Z" fill="#919394"/>
<path d="M131.849 50.7906C133.358 50.7906 134.924 50.9202 136.501 51.1762C153.13 53.8774 156.404 68.1661 155.704 76.9441C157.511 73.7812 158.552 70.2346 158.724 66.6227C156.732 54.3309 145.918 45.3743 133.013 45.3743C125.022 45.3743 117.584 48.8636 112.608 54.9478C111.303 57.4692 110.479 60.1975 110.173 63.0416C113.479 58.1277 120.342 50.7906 131.849 50.7906ZM155.364 78.2013L155.285 78.1875C155.181 78.151 155.117 78.0466 155.131 77.9372C156.161 69.4661 153.382 54.3956 136.424 51.6422C134.873 51.39 133.333 51.2623 131.849 51.2623C119.932 51.2623 113.08 59.2956 110.057 64.0843C109.999 64.1761 109.887 64.217 109.784 64.1831C109.682 64.1491 109.615 64.0504 109.622 63.9428C109.839 60.6975 110.712 57.5843 112.217 54.69C117.309 48.4548 124.879 44.9019 133.013 44.9019C146.15 44.9019 157.16 54.0258 159.192 66.5963C159.003 70.6831 157.747 74.6416 155.563 78.0919C155.52 78.1617 155.444 78.2013 155.364 78.2013Z" fill="#040606"/>
<path d="M130.356 117.551C130.306 118.357 129.611 118.969 128.805 118.919C127.999 118.868 127.386 118.173 127.436 117.368L128.881 94.3479C128.931 93.5417 129.627 92.9284 130.432 92.9794C131.238 93.0297 131.851 93.7247 131.801 94.531L130.356 117.551Z" fill="#2B322B"/>
<path d="M130.34 93.212C129.694 93.212 129.157 93.7176 129.116 94.3623L127.672 117.382C127.652 117.709 127.759 118.025 127.976 118.27C128.194 118.516 128.493 118.663 128.82 118.684L128.899 118.686C129.544 118.686 130.081 118.181 130.121 117.536L131.566 94.5164C131.586 94.1893 131.478 93.8736 131.262 93.6277C131.044 93.3818 130.745 93.2346 130.418 93.2145L130.34 93.212ZM128.899 119.158L128.791 119.154C128.337 119.126 127.923 118.923 127.623 118.582C127.323 118.242 127.173 117.806 127.202 117.353L128.646 94.3327C128.704 93.4044 129.511 92.6812 130.448 92.744C130.9 92.7723 131.315 92.9749 131.615 93.3157C131.915 93.656 132.065 94.0931 132.036 94.5453L130.592 117.565C130.536 118.458 129.792 119.158 128.899 119.158Z" fill="#040606"/>
<path d="M124.718 105.977C124.718 105.977 120.645 103.157 122.682 101.511C124.9 99.7183 128.166 96.8088 129.968 96.9654C131.769 97.122 130.124 99.551 128.949 100.492C127.774 101.433 129.185 104.019 127.618 105.585C126.05 107.153 124.718 105.977 124.718 105.977Z" fill="#FAB5A7"/>
<path d="M129.823 97.195C128.307 97.195 125.631 99.3944 123.677 101C123.382 101.242 123.097 101.476 122.828 101.693C122.491 101.966 122.333 102.279 122.347 102.65C122.399 104.066 124.827 105.766 124.852 105.783C124.877 105.802 125.301 106.164 125.919 106.164C126.44 106.164 126.955 105.914 127.45 105.419C128.22 104.649 128.205 103.606 128.191 102.598C128.178 101.681 128.166 100.816 128.8 100.308C129.725 99.5673 130.694 98.1359 130.508 97.5202C130.487 97.4516 130.423 97.2422 129.947 97.2007L129.823 97.195ZM125.919 106.635C125.117 106.635 124.583 106.173 124.561 106.153C124.475 106.095 121.937 104.32 121.876 102.669C121.856 102.146 122.077 101.694 122.533 101.327C122.8 101.11 123.084 100.878 123.378 100.636C125.57 98.8346 128.327 96.5875 129.987 96.7309C130.644 96.7875 130.878 97.117 130.959 97.3837C131.265 98.395 129.873 100.053 129.095 100.676C128.641 101.04 128.651 101.759 128.663 102.591C128.677 103.646 128.694 104.841 127.783 105.752C127.197 106.339 126.57 106.635 125.919 106.635Z" fill="#040606"/>
<path d="M57.448 100.567C56.3271 100.552 55.2388 100.498 54.181 100.406C55.1629 100.464 56.107 100.493 57.0147 100.493C83.9837 100.492 78.7499 75.497 76.7144 67.3542C60.6007 62.1737 46.0451 61.1372 36.9773 61.1372C33.8548 61.1372 31.3827 61.2605 29.7222 61.3793C29.8249 60.7215 29.9126 60.2542 29.9595 60.0165L39.5565 59.6422C39.6209 59.6397 39.6818 59.6114 39.724 59.5624C39.7623 59.5196 39.7832 59.4642 39.783 59.407C39.7828 59.4001 39.7825 59.3932 39.7818 59.3856C39.781 59.3775 39.7715 59.2536 39.7715 59.0341C39.7712 57.7548 40.0947 53.2215 44.3788 49.2686C42.1315 53.5894 41.9949 58.3271 41.9949 59.4108C41.9949 59.5529 41.9971 59.6322 41.9974 59.6391C42.0023 59.7661 42.1062 59.8668 42.2332 59.8668H42.2364L42.7097 59.8649C44.9109 59.8649 52.4367 59.9605 57.2127 61.1837C57.2362 61.19 57.2596 61.1963 57.2829 61.202C57.3028 61.2076 57.323 61.2095 57.3429 61.2095C57.3868 61.2095 57.4296 61.1976 57.4677 61.1737C57.5224 61.1397 57.561 61.0837 57.574 61.0202C57.6782 60.4988 57.7784 60.012 57.8754 59.5548C58.7258 55.5561 59.3487 53.8781 60.4949 52.0611C59.3748 55.1749 59.191 58.2448 59.191 59.9202C59.191 60.4863 59.2119 60.8932 59.2247 61.0888C59.2301 61.1699 59.234 61.2146 59.2345 61.2196C59.2436 61.3208 59.3173 61.4051 59.4168 61.4278L72.1755 64.3385C72.178 64.3391 72.1812 64.3397 72.1843 64.3404C72.1982 64.3429 72.2132 64.3441 72.2277 64.3441C72.2736 64.3441 72.3195 64.3309 72.3585 64.3045C72.4126 64.268 72.449 64.212 72.4604 64.1479C72.4692 64.0913 73.3225 59.2083 75.8108 54.9158C74.528 58.851 74.4525 63.4303 74.4531 64.4661C74.4531 64.5768 74.4538 64.6473 74.4544 64.6718C74.4563 64.7863 74.5393 64.8825 74.6525 64.9007L80.7257 65.8768L81.0571 79.1133C81.059 79.1775 81.0861 79.2378 81.1332 79.2812C81.1766 79.3221 81.2363 79.3435 81.2942 79.3435C81.298 79.3435 81.3017 79.3435 81.3055 79.3435L85.3344 79.1196C85.4288 79.1139 85.5111 79.0536 85.5432 78.9649C85.5583 78.9234 87.0983 74.8491 89.8174 74.8491C89.913 74.8491 90.0104 74.8542 90.1092 74.8649C91.3932 75.0026 92.5528 76.1127 93.1351 77.7624C93.3483 78.368 93.4841 79.0718 93.4841 79.807C93.4841 81.0737 93.0816 82.4309 91.9818 83.5303C91.0423 84.4705 90.089 84.9473 89.1496 84.9473C87.7642 84.9473 86.8537 83.8919 86.8455 83.8806C86.8002 83.8278 86.7342 83.7969 86.6663 83.7969C86.6481 83.7969 86.6298 83.7988 86.6116 83.8032C86.5254 83.8234 86.4575 83.89 86.4361 83.9756C86.4361 83.9768 86.4355 83.9793 86.4343 83.9837C86.3588 84.268 84.4673 91.2089 77.7658 95.5058C76.3981 96.1674 73.1282 97.6422 68.9351 98.8309C65.6935 99.7133 61.5501 100.55 57.448 100.567Z" fill="#E8856B"/>
<path d="M57.2105 100.8C54.5741 100.75 52.1801 100.487 49.9991 100.049C50.5739 100.096 51.1622 100.148 51.7763 100.211C52.6023 100.295 53.4031 100.36 54.181 100.406C55.2388 100.498 56.3272 100.552 57.448 100.567C57.4468 100.567 57.4455 100.567 57.4451 100.567C57.3825 100.568 57.3215 100.593 57.2773 100.638C57.2356 100.682 57.2115 100.739 57.2105 100.8ZM68.9352 98.8308C73.1282 97.6421 76.3981 96.1673 77.7658 95.5056C77.7621 95.5081 77.7589 95.51 77.7558 95.5126C77.6546 95.5767 77.6187 95.7063 77.6703 95.8132C77.1125 96.0786 76.3283 96.4371 75.3587 96.8409C75.3405 96.8214 75.3191 96.8044 75.2945 96.7918C75.2606 96.7736 75.2229 96.7648 75.1858 96.7648C75.1543 96.7648 75.1229 96.771 75.0933 96.7836C75.0468 96.8038 72.5541 97.8453 68.9352 98.8308ZM29.4761 61.3975C29.5785 60.7478 29.6674 60.2748 29.7188 60.0157L29.7745 60.0239L39.5566 59.6421L29.9595 60.0163C29.9126 60.2541 29.8249 60.7214 29.7222 61.3792C29.6382 61.3849 29.5562 61.3912 29.4761 61.3975ZM60.4952 52.0604C60.4952 52.061 60.4955 52.0604 60.4952 52.0604V52.0604Z" fill="#040606"/>
<path d="M77.6702 95.8134C77.6186 95.7064 77.6545 95.5769 77.7557 95.5127C77.7589 95.5102 77.762 95.5083 77.7658 95.5058C84.4672 91.209 86.3588 84.2681 86.4342 83.9838C86.4356 83.9794 86.4361 83.9769 86.4361 83.9756C86.4576 83.8901 86.5254 83.8234 86.6116 83.8033C86.6298 83.7989 86.648 83.797 86.6663 83.797C86.7342 83.797 86.8003 83.8278 86.8456 83.8807C86.8538 83.892 87.7642 84.9473 89.1495 84.9473C90.089 84.9473 91.0424 84.4706 91.9818 83.5303C93.0816 82.431 93.4841 81.0737 93.4841 79.8071C93.4841 79.0719 93.3482 78.3681 93.1351 77.7624C92.5528 76.1127 91.3932 75.0027 90.1091 74.8649C90.0104 74.8542 89.9129 74.8492 89.8173 74.8492C87.0983 74.8492 85.5583 78.9234 85.5433 78.9649C85.5112 79.0536 85.4287 79.114 85.3344 79.1197L81.3055 79.3435C81.3018 79.3435 81.298 79.3435 81.2943 79.3435C81.2364 79.3435 81.1766 79.3222 81.1332 79.2813C81.086 79.2379 81.059 79.1775 81.0571 79.1134L80.7257 65.8769L74.6525 64.9008C74.5394 64.8825 74.4563 64.7863 74.4544 64.6719C74.4537 64.6473 74.4531 64.5769 74.4531 64.4662C74.4525 63.4304 74.5279 58.8511 75.8108 54.9159C73.3225 59.2083 72.4692 64.0914 72.4604 64.148C72.4491 64.2121 72.4127 64.2681 72.3586 64.3046C72.3195 64.331 72.2736 64.3442 72.2277 64.3442C72.2132 64.3442 72.1987 64.3429 72.1849 64.3404C72.1817 64.3398 72.178 64.3392 72.1755 64.3385L59.4168 61.4278C59.3173 61.4052 59.2436 61.3209 59.2345 61.2197C59.234 61.2146 59.2302 61.17 59.2246 61.0888C59.212 60.8932 59.191 60.4863 59.191 59.9203C59.191 58.2448 59.3747 55.175 60.4949 52.0612C60.4949 52.0619 60.4951 52.0612 60.4949 52.0612C59.3488 53.8782 58.7258 55.5561 57.8754 59.5549C57.7783 60.0121 57.6782 60.4989 57.574 61.0203C57.5609 61.0838 57.5224 61.1398 57.4676 61.1737C57.4296 61.1976 57.3869 61.2096 57.343 61.2096C57.323 61.2096 57.3028 61.2077 57.2829 61.202C57.2596 61.1964 57.2362 61.1901 57.2126 61.1838C52.4367 59.9605 44.9109 59.8643 42.7097 59.8643L42.2364 59.8668H42.2332C42.1062 59.8668 42.0023 59.7662 41.9974 59.6392C41.9971 59.6322 41.9949 59.553 41.9949 59.4108C41.9949 58.3272 42.1316 53.5895 44.3789 49.2687C40.0948 53.2215 39.7712 57.7549 39.7714 59.0341C39.7714 59.2536 39.781 59.3775 39.7817 59.3857C39.7825 59.3932 39.7828 59.4002 39.783 59.4071C39.7832 59.4643 39.7624 59.5197 39.7241 59.5624C39.6819 59.6115 39.6209 59.6398 39.5566 59.6423L29.7745 60.0241L29.7188 60.0159C29.7483 59.8662 29.7654 59.7882 29.7654 59.7882L39.5473 59.4071C39.5473 59.4071 38.9879 53.1391 45.2554 48.2134C42.0098 53.363 42.2332 59.631 42.2332 59.631C42.2332 59.631 42.4026 59.6285 42.7101 59.6285C44.7039 59.6285 52.494 59.7127 57.3425 60.9737C58.6856 54.258 59.3573 53.1385 61.7073 49.8926C58.909 55.1536 59.4691 61.1976 59.4691 61.1976L72.2277 64.1083C72.2277 64.1083 73.3476 57.5039 76.9282 52.8027C74.5776 57.392 74.6902 64.6681 74.6902 64.6681L80.9566 65.6756L81.2929 79.1077L85.3218 78.8838C85.3218 78.8838 86.8838 74.6127 89.8079 74.6127C89.9148 74.6127 90.0236 74.6184 90.1343 74.6303C93.2684 74.9662 95.2825 80.5631 92.1484 83.697C91.0234 84.8228 89.9997 85.1832 89.1495 85.1832C87.6309 85.1825 86.665 84.0329 86.665 84.0329C86.665 84.0329 84.8572 91.2448 77.8829 95.7108C77.8162 95.7436 77.745 95.7775 77.6702 95.8134Z" fill="#040606"/>
<path d="M57.4463 100.804C57.3674 100.802 57.2888 100.801 57.2104 100.8C57.2115 100.739 57.2355 100.682 57.2773 100.638C57.3215 100.593 57.3824 100.568 57.4451 100.567H57.4473C61.5494 100.55 65.6936 99.7133 68.9352 98.8309C72.5541 97.8454 75.0467 96.8039 75.0933 96.7837C75.1228 96.7712 75.1543 96.7649 75.1857 96.7649C75.2228 96.7649 75.2605 96.7737 75.2945 96.7919C75.319 96.8045 75.3405 96.8215 75.3587 96.841C72.18 98.1649 67.0103 99.973 61.3168 100.588C61.2733 100.521 61.1974 100.479 61.1156 100.479C61.1016 100.479 61.0873 100.481 61.0731 100.483C60.9899 100.499 60.9255 100.557 60.8975 100.631C59.7621 100.742 58.6084 100.804 57.4463 100.804Z" fill="#040606"/>
<path d="M60.8975 100.631C60.9254 100.557 60.9898 100.499 61.0731 100.483C61.0873 100.481 61.1016 100.479 61.1156 100.479C61.1973 100.479 61.2733 100.521 61.3168 100.588C61.1777 100.603 61.037 100.618 60.8975 100.631Z" fill="#040606"/>
<path d="M70.3268 177.292C69.4936 177.292 68.6673 177.284 67.8498 177.267C87.1342 176.376 92.7773 173.287 92.3415 161.729C91.9372 151.006 92.0944 147.199 82.2777 147.199C81.469 147.199 80.5912 147.225 79.6416 147.275C75.3775 147.537 71.6014 147.645 68.268 147.645C61.558 147.645 56.647 147.205 53.1968 146.69C55.4232 146.831 58.5794 146.974 62.349 146.985C62.3497 146.985 62.3502 146.985 62.3512 146.985C62.3657 146.985 62.3799 146.985 62.3947 146.985C62.4085 146.985 62.4222 146.985 62.4359 146.985C62.4376 146.985 62.4401 146.985 62.442 146.985C62.4708 146.985 62.4996 146.985 62.5285 146.985C62.5305 146.985 62.533 146.985 62.5349 146.985C62.5474 146.985 62.5595 146.985 62.5723 146.985C62.5745 146.985 62.5779 146.985 62.5804 146.985C62.5848 146.985 62.5904 146.985 62.5948 146.985C62.5968 146.985 62.5991 146.985 62.6008 146.985C62.6037 146.985 62.6069 146.985 62.6098 146.985C62.6184 146.985 62.626 146.985 62.6347 146.985C62.6452 146.985 62.6555 146.985 62.6661 146.985C62.668 146.985 62.67 146.985 62.672 146.985C62.6845 146.985 62.697 146.985 62.7098 146.985C62.7118 146.985 62.713 146.985 62.715 146.985C62.7452 146.985 62.7751 146.985 62.8054 146.985C62.8142 146.985 62.8226 146.985 62.8314 146.985C62.854 146.985 62.8771 146.985 62.8997 146.985C62.9054 146.985 62.9115 146.985 62.9169 146.985C62.9188 146.985 62.9213 146.985 62.9233 146.985C62.9257 146.985 62.9296 146.985 62.9321 146.985C62.9528 146.985 62.9738 146.985 62.9945 146.985C63.0004 146.985 63.0063 146.985 63.0122 146.985C63.0142 146.985 63.0159 146.985 63.0179 146.985C63.0328 146.985 63.0473 146.985 63.0623 146.985C63.0633 146.985 63.0643 146.985 63.0653 146.985C63.0707 146.985 63.076 146.985 63.0814 146.985C63.0839 146.985 63.0868 146.985 63.0893 146.985C63.0933 146.985 63.0972 146.985 63.1011 146.985C63.1055 146.985 63.1097 146.985 63.1144 146.985C63.1161 146.985 63.1188 146.985 63.1207 146.985C63.1261 146.985 63.1321 146.985 63.1375 146.985C63.1409 146.985 63.1436 146.985 63.147 146.985C63.152 146.985 63.1569 146.985 63.1621 146.985C63.163 146.985 63.165 146.985 63.166 146.985C70.4745 146.968 80.9496 146.433 91.541 144.149C92.5522 143.931 93.5646 143.697 94.5758 143.446C94.8751 147.239 95.4744 155.363 96.6434 172.644C93.3766 175.47 83.082 177.292 70.3268 177.292Z" fill="#1A1E1A"/>
<path d="M70.3333 177.526C68.6122 177.526 66.8924 177.49 65.2046 177.42C65.973 177.366 66.7622 177.316 67.5979 177.278C67.6828 177.275 67.7664 177.271 67.8501 177.267C68.6676 177.284 69.4938 177.292 70.327 177.292C83.0823 177.292 93.3769 175.47 96.6436 172.644C95.4746 155.363 94.8754 147.239 94.576 143.446C94.6534 143.427 94.7301 143.407 94.8081 143.389C95.1093 147.197 95.7111 155.361 96.8864 172.744C93.3322 175.96 81.7755 177.526 70.3333 177.526ZM53.197 146.69C53.1968 146.69 53.1972 146.69 53.197 146.69V146.69Z" fill="#040606"/>
<path d="M62.8057 146.985C62.7757 146.985 62.7453 146.985 62.7153 146.985C62.7134 146.985 62.7122 146.985 62.7102 146.985C62.6979 146.985 62.6846 146.985 62.6724 146.985C62.6704 146.985 62.6684 146.985 62.6665 146.985C62.6559 146.985 62.6456 146.985 62.635 146.985C62.6264 146.985 62.6188 146.985 62.6102 146.985C62.6073 146.985 62.6041 146.985 62.6011 146.985C62.5994 146.985 62.5972 146.985 62.5952 146.985C62.5901 146.985 62.5859 146.985 62.5807 146.985C62.5783 146.985 62.5748 146.985 62.5726 146.985C62.5599 146.985 62.548 146.985 62.5353 146.985C62.5333 146.985 62.5309 146.985 62.5289 146.985C62.4999 146.985 62.4711 146.985 62.4424 146.985C62.4405 146.985 62.438 146.985 62.4363 146.985C62.4225 146.985 62.4095 146.985 62.3957 146.985C62.3809 146.985 62.3661 146.985 62.3515 146.985C62.3506 146.985 62.3501 146.985 62.3493 146.985C58.5801 146.974 55.4229 146.831 53.1964 146.69C52.2893 146.554 51.4828 146.414 50.7715 146.274C52.7133 146.443 57.0585 146.751 62.8082 146.751C71.4383 146.75 83.2301 146.056 94.7887 143.15C94.795 143.228 94.8012 143.307 94.8082 143.389C94.7302 143.407 94.6535 143.427 94.5761 143.446C93.565 143.697 92.5525 143.931 91.5414 144.149C80.9493 146.433 70.4749 146.968 63.1663 146.985C63.1654 146.985 63.1634 146.985 63.1624 146.985C63.1573 146.985 63.1525 146.985 63.1474 146.985C63.144 146.985 63.1413 146.985 63.1378 146.985C63.1324 146.985 63.1265 146.985 63.1211 146.985C63.1191 146.985 63.1164 146.985 63.1148 146.985C63.1101 146.985 63.1059 146.985 63.1015 146.985C63.0975 146.985 63.0936 146.985 63.0897 146.985C63.0872 146.985 63.0842 146.985 63.0818 146.985C63.0764 146.985 63.071 146.985 63.0656 146.985C63.0646 146.985 63.0636 146.985 63.0627 146.985C63.0477 146.985 63.0332 146.985 63.0182 146.985C63.0162 146.985 63.0145 146.985 63.0126 146.985C63.0067 146.985 63.0007 146.985 62.9949 146.985C62.974 146.985 62.9533 146.985 62.9324 146.985C62.93 146.985 62.9261 146.985 62.9236 146.985C62.9212 146.985 62.9199 146.985 62.9172 146.985C62.9118 146.985 62.9057 146.985 62.9001 146.985C62.8774 146.985 62.8546 146.985 62.8318 146.985C62.8229 146.985 62.8145 146.985 62.8057 146.985Z" fill="#040606"/>
<path d="M134.395 89.1258C129.081 89.1258 124.16 87.4685 120.152 84.6578C123.786 86.1648 127.704 86.8968 131.502 86.8962C142.695 86.8956 152.837 80.5346 151.545 68.9075C150.297 57.6811 139.935 53.1176 131.101 51.2723C131.101 51.2723 131.104 51.2723 131.106 51.2723C131.112 51.2723 131.118 51.2723 131.124 51.2723C131.129 51.2717 131.135 51.2717 131.14 51.2717C131.146 51.2717 131.153 51.2717 131.158 51.2711C131.163 51.2711 131.17 51.2711 131.175 51.2704C131.181 51.2704 131.186 51.2704 131.192 51.2704C131.197 51.2704 131.203 51.2698 131.208 51.2698C131.214 51.2698 131.22 51.2692 131.227 51.2692C131.232 51.2692 131.238 51.2692 131.243 51.2692C131.249 51.2692 131.254 51.2685 131.261 51.2685C131.268 51.2685 131.272 51.2685 131.278 51.2679C131.284 51.2679 131.29 51.2679 131.295 51.2679C131.301 51.2679 131.306 51.2679 131.312 51.2673C131.319 51.2673 131.324 51.2673 131.33 51.2673C131.336 51.2666 131.341 51.2666 131.346 51.2666C131.353 51.2666 131.358 51.2666 131.364 51.2666C131.37 51.2666 131.375 51.266 131.381 51.266C131.387 51.266 131.392 51.266 131.399 51.266C131.405 51.266 131.41 51.266 131.416 51.266C131.422 51.2654 131.427 51.2654 131.433 51.2654C131.438 51.2654 131.444 51.2654 131.449 51.2648C131.455 51.2648 131.461 51.2648 131.468 51.2648C131.473 51.2648 131.476 51.2648 131.481 51.2648C131.488 51.2648 131.495 51.2648 131.502 51.2641C131.507 51.2641 131.512 51.2641 131.517 51.2641C131.524 51.2641 131.53 51.2641 131.537 51.2635C131.544 51.2635 131.549 51.2635 131.556 51.2635C131.561 51.2635 131.566 51.2635 131.571 51.2635C131.581 51.2635 131.59 51.2635 131.6 51.2635C131.602 51.2635 131.603 51.2635 131.606 51.2635C131.613 51.2629 131.622 51.2629 131.63 51.2629C131.634 51.2629 131.637 51.2629 131.641 51.2629C131.646 51.2629 131.653 51.2629 131.659 51.2629C131.664 51.2629 131.669 51.2629 131.676 51.2622C131.681 51.2622 131.687 51.2622 131.693 51.2622C131.699 51.2622 131.705 51.2622 131.71 51.2622C131.73 51.2622 131.752 51.2622 131.772 51.2622C131.775 51.2622 131.777 51.2622 131.779 51.2622C131.785 51.2622 131.789 51.2622 131.794 51.2622C131.812 51.2622 131.831 51.2622 131.849 51.2622C133.333 51.2622 134.873 51.3899 136.424 51.6421C153.347 54.3905 156.15 69.4038 155.136 77.8843C150.66 84.9245 142.91 89.1258 134.395 89.1258Z" fill="#4F5258"/>
<path d="M134.395 89.3616C128.635 89.3616 123.341 87.4358 119.149 84.2195C119.481 84.3723 119.815 84.5182 120.152 84.6578C124.16 87.4685 129.081 89.1258 134.395 89.1258C142.91 89.1258 150.66 84.9245 155.136 77.8842C156.15 69.4037 153.347 54.3905 136.424 51.6421C153.382 54.3956 156.161 69.466 155.13 77.9371C155.119 78.0283 155.162 78.1163 155.237 78.1641C150.889 84.888 143.183 89.3616 134.395 89.3616ZM131.106 51.2723C131.112 51.2723 131.117 51.2723 131.124 51.2723C131.118 51.2723 131.112 51.2723 131.106 51.2723ZM131.208 51.2698C131.215 51.2698 131.22 51.2692 131.227 51.2692C131.22 51.2692 131.214 51.2698 131.208 51.2698ZM131.243 51.2692C131.249 51.2692 131.255 51.2685 131.261 51.2685C131.254 51.2685 131.249 51.2692 131.243 51.2692ZM131.278 51.2679C131.283 51.2679 131.29 51.2679 131.295 51.2679C131.29 51.2679 131.284 51.2679 131.278 51.2679ZM131.312 51.2673C131.318 51.2673 131.324 51.2673 131.33 51.2673C131.323 51.2673 131.318 51.2673 131.312 51.2673ZM131.346 51.2666C131.352 51.2666 131.359 51.2666 131.364 51.2666C131.357 51.2666 131.352 51.2666 131.346 51.2666ZM131.381 51.266C131.386 51.266 131.393 51.266 131.399 51.266C131.392 51.266 131.387 51.266 131.381 51.266ZM131.481 51.2647C131.488 51.2647 131.496 51.2647 131.502 51.2641C131.495 51.2647 131.488 51.2647 131.481 51.2647ZM131.693 51.2622C131.699 51.2622 131.704 51.2622 131.71 51.2622C131.705 51.2622 131.699 51.2622 131.693 51.2622Z" fill="#040606"/>
<path d="M155.237 78.1642C155.162 78.1164 155.119 78.0283 155.13 77.9371C156.161 69.466 153.381 54.3956 136.424 51.6422C134.873 51.39 133.333 51.2623 131.849 51.2623C131.831 51.2623 131.812 51.2623 131.794 51.2623C131.789 51.2623 131.784 51.2623 131.779 51.2623C131.777 51.2623 131.775 51.2623 131.772 51.2623C131.752 51.2623 131.73 51.2623 131.71 51.2623C131.704 51.2623 131.699 51.2623 131.692 51.2623C131.687 51.2623 131.681 51.2623 131.675 51.2623C131.669 51.2629 131.664 51.2629 131.658 51.2629C131.653 51.2629 131.646 51.2629 131.64 51.2629C131.637 51.2629 131.634 51.2629 131.63 51.2629C131.622 51.2629 131.613 51.2629 131.606 51.2636C131.603 51.2636 131.601 51.2636 131.599 51.2636C131.59 51.2636 131.581 51.2636 131.571 51.2636C131.566 51.2636 131.56 51.2636 131.555 51.2636C131.548 51.2636 131.543 51.2636 131.537 51.2636C131.53 51.2642 131.523 51.2642 131.516 51.2642C131.511 51.2642 131.507 51.2642 131.502 51.2642C131.496 51.2648 131.487 51.2648 131.481 51.2648C131.476 51.2648 131.473 51.2648 131.468 51.2648C131.461 51.2648 131.455 51.2648 131.448 51.2648C131.443 51.2655 131.438 51.2655 131.433 51.2655C131.427 51.2655 131.421 51.2655 131.416 51.2661C131.409 51.2661 131.404 51.2661 131.399 51.2661C131.393 51.2661 131.386 51.2661 131.381 51.2661C131.375 51.2661 131.37 51.2667 131.364 51.2667C131.359 51.2667 131.352 51.2667 131.346 51.2667C131.34 51.2667 131.335 51.2667 131.33 51.2673C131.324 51.2673 131.318 51.2673 131.311 51.2673C131.306 51.268 131.301 51.268 131.295 51.268C131.29 51.268 131.283 51.268 131.278 51.268C131.272 51.2686 131.267 51.2686 131.261 51.2686C131.255 51.2686 131.249 51.2692 131.243 51.2692C131.238 51.2692 131.232 51.2692 131.227 51.2692C131.22 51.2692 131.215 51.2699 131.208 51.2699C131.203 51.2699 131.197 51.2705 131.192 51.2705C131.186 51.2705 131.181 51.2705 131.174 51.2705C131.169 51.2711 131.163 51.2711 131.158 51.2711C131.152 51.2717 131.146 51.2717 131.14 51.2717C131.135 51.2717 131.128 51.2717 131.123 51.2724C131.117 51.2724 131.112 51.2724 131.106 51.2724C131.104 51.2724 131.101 51.2724 131.101 51.2724C130.786 51.207 130.473 51.1447 130.163 51.0856C130.723 51.0491 131.294 51.0302 131.877 51.0302C133.33 51.0302 134.857 51.1485 136.462 51.4095C153.608 54.1938 156.4 69.4554 155.364 77.9655C155.322 78.0321 155.279 78.0982 155.237 78.1642Z" fill="#040606"/>
<path d="M61.618 143.121C61.5902 143.121 61.5624 143.121 61.5347 143.121C61.5342 143.121 61.5332 143.121 61.533 143.121C61.5268 143.121 61.5214 143.121 61.5153 143.121C61.5136 143.121 61.5119 143.121 61.5104 143.121C61.5072 143.121 61.5042 143.121 61.5013 143.121C61.4912 143.121 61.4806 143.121 61.4708 143.121C61.4664 143.121 61.4612 143.121 61.457 143.121C61.4539 143.121 61.4507 143.121 61.4475 143.121C61.4362 143.121 61.4239 143.121 61.4126 143.121C61.4111 143.121 61.4101 143.121 61.4084 143.121C61.3986 143.121 61.3883 143.121 61.3782 143.121C61.3711 143.121 61.364 143.121 61.3569 143.121C61.3352 143.121 61.3149 143.121 61.2932 143.121C61.2881 143.121 61.2824 143.121 61.2775 143.121C61.2753 143.121 61.2723 143.121 61.2701 143.121C61.2608 143.121 61.2507 143.121 61.2414 143.121C61.2296 143.121 61.2168 143.121 61.2053 143.121C61.2041 143.121 61.2026 143.121 61.2014 143.121C61.1957 143.121 61.1903 143.121 61.1846 143.121C61.1832 143.121 61.1819 143.121 61.1805 143.121C61.1628 143.121 61.1444 143.121 61.1267 143.121C61.1164 143.121 61.1068 143.121 61.0967 143.121C61.0916 143.121 61.0854 143.121 61.0802 143.121C61.0783 143.121 61.0761 143.121 61.0741 143.121C61.0638 143.121 61.0537 143.121 61.0434 143.121C61.0378 143.121 61.0321 143.121 61.0262 143.121C61.0167 143.121 61.0073 143.121 60.998 143.121C60.9967 143.121 60.9955 143.121 60.9943 143.121C60.9899 143.121 60.9852 143.121 60.981 143.121C60.9783 143.121 60.9761 143.121 60.9731 143.121C60.9729 143.121 60.9736 143.121 60.9731 143.121C60.963 143.121 60.9525 143.121 60.9425 143.121C60.9206 143.12 60.8988 143.12 60.8769 143.12C60.8747 143.12 60.8717 143.12 60.8693 143.12C60.8577 143.12 60.8457 143.12 60.8341 143.12C60.8327 143.12 60.8317 143.12 60.83 143.12C60.8202 143.12 60.8113 143.12 60.8015 143.12C60.7968 143.12 60.7921 143.12 60.7877 143.12C60.7828 143.12 60.7774 143.12 60.7727 143.12C60.7715 143.12 60.7703 143.12 60.769 143.12C60.7653 143.12 60.7609 143.12 60.757 143.12C60.7543 143.12 60.7521 143.12 60.7494 143.12C60.7234 143.12 60.6975 143.119 60.6715 143.119C60.6681 143.119 60.6636 143.119 60.6602 143.119C60.6573 143.119 60.6543 143.119 60.6514 143.119C60.6357 143.119 60.6194 143.119 60.6037 143.119C60.6003 143.119 60.5974 143.119 60.5939 143.119C60.5898 143.119 60.5855 143.119 60.5814 143.119C60.572 143.119 60.5625 143.119 60.5531 143.119C60.5443 143.119 60.5347 143.119 60.5259 143.119C60.5242 143.119 60.5222 143.119 60.5207 143.119C60.5109 143.119 60.5006 143.119 60.4907 143.119C60.4895 143.119 60.4878 143.119 60.4866 143.119C60.4644 143.119 60.4429 143.119 60.4207 143.119C60.4116 143.119 60.4028 143.118 60.3934 143.118C60.3026 143.118 60.2122 143.117 60.122 143.117C60.1188 143.117 60.1156 143.117 60.1122 143.117C60.1039 143.117 60.096 143.117 60.0876 143.117C60.0854 143.117 60.083 143.117 60.0808 143.117C54.3405 143.084 50.2248 142.878 49.4847 142.838C46.4604 138.119 46.2506 129.518 48.8424 116.553L50.201 113.016C48.7863 125.422 41.7685 141.681 63.5036 141.68C64.0148 141.68 64.5449 141.671 65.0882 141.653C73.6045 141.367 79.4935 141.207 83.4696 140.79L83.6947 142.07C81.8717 142.264 80.0393 142.425 78.2214 142.557C78.2195 142.557 78.2151 142.558 78.2132 142.558C78.2038 142.558 78.195 142.559 78.1855 142.56C78.1843 142.56 78.183 142.56 78.1817 142.56C78.1717 142.561 78.1629 142.562 78.1535 142.562C78.1509 142.562 78.1484 142.562 78.1465 142.563C78.1377 142.563 78.127 142.564 78.1182 142.565C78.117 142.565 78.1157 142.565 78.1145 142.565C78.1057 142.565 78.0969 142.566 78.088 142.567C78.0843 142.567 78.0805 142.567 78.0767 142.568C78.0692 142.568 78.0616 142.568 78.0541 142.569C78.0497 142.57 78.044 142.57 78.0396 142.57C78.0359 142.57 78.0302 142.571 78.0258 142.571C78.0176 142.572 78.0088 142.572 78.0006 142.573C77.9975 142.573 77.9969 142.573 77.9937 142.573C77.9837 142.574 77.9749 142.575 77.9648 142.575C77.9635 142.576 77.9629 142.576 77.961 142.576C77.9516 142.577 77.9403 142.577 77.9308 142.578C77.9296 142.578 77.9283 142.578 77.9277 142.578C77.9176 142.579 77.907 142.58 77.8975 142.58C77.8963 142.58 77.8944 142.58 77.8937 142.58C77.8843 142.582 77.8749 142.582 77.8654 142.583C77.8636 142.583 77.8604 142.583 77.8579 142.583C77.8485 142.584 77.8397 142.585 77.8302 142.585C77.829 142.585 77.8271 142.585 77.8265 142.585C77.8164 142.586 77.8051 142.587 77.795 142.588C77.7944 142.588 77.7931 142.588 77.7925 142.588C77.7812 142.589 77.7711 142.589 77.7598 142.59C72.5059 142.96 67.3948 143.094 63.0441 143.117C63.0431 143.117 63.0426 143.117 63.0414 143.117C63.0245 143.117 63.0075 143.117 62.9906 143.117C62.9881 143.117 62.9872 143.117 62.9847 143.117C62.9766 143.117 62.9685 143.117 62.9604 143.117C62.9591 143.118 62.9584 143.118 62.9574 143.118C62.9503 143.118 62.9426 143.118 62.9358 143.118C62.9336 143.118 62.9316 143.118 62.9292 143.118C62.9122 143.118 62.8945 143.118 62.8778 143.118C62.8766 143.118 62.8749 143.118 62.8737 143.118C62.8562 143.118 62.8383 143.118 62.8208 143.119C62.8203 143.119 62.8194 143.119 62.8189 143.119C62.8108 143.119 62.8037 143.119 62.7956 143.119C62.7931 143.119 62.7911 143.119 62.7889 143.119C62.7835 143.119 62.7781 143.119 62.7729 143.119C62.769 143.119 62.7648 143.119 62.7609 143.119C62.755 143.119 62.7484 143.119 62.7425 143.119C62.7398 143.119 62.7363 143.119 62.7334 143.119C62.7282 143.119 62.7231 143.119 62.7179 143.119C62.7138 143.119 62.7098 143.119 62.7059 143.119C62.6985 143.119 62.6919 143.119 62.6843 143.119C62.6828 143.119 62.6808 143.119 62.6791 143.119C62.6723 143.119 62.6649 143.119 62.658 143.119C62.6555 143.119 62.6541 143.119 62.6518 143.119C62.6462 143.119 62.6393 143.119 62.6336 143.119C62.629 143.119 62.6251 143.119 62.6204 143.119C62.6175 143.119 62.615 143.119 62.6121 143.119C62.6069 143.119 62.601 143.119 62.5959 143.119C62.5872 143.119 62.5791 143.119 62.5706 143.119C62.5448 143.119 62.518 143.119 62.4922 143.12C62.4902 143.12 62.4883 143.12 62.4866 143.12C62.4789 143.12 62.4708 143.12 62.4634 143.12C62.4617 143.12 62.4603 143.12 62.4585 143.12C62.4534 143.12 62.4474 143.12 62.4423 143.12C62.4384 143.12 62.4347 143.12 62.4308 143.12C62.4153 143.12 62.4001 143.12 62.3846 143.12C62.3817 143.12 62.3785 143.12 62.3755 143.12C62.3704 143.12 62.3647 143.12 62.3595 143.12C62.3556 143.12 62.3509 143.12 62.347 143.12C62.3453 143.12 62.3426 143.12 62.3406 143.12C62.3335 143.12 62.3259 143.12 62.3185 143.12C62.3175 143.12 62.3175 143.12 62.3163 143.12C62.2994 143.12 62.2819 143.121 62.265 143.121C62.262 143.121 62.2588 143.121 62.2559 143.121C62.2497 143.121 62.2436 143.121 62.2375 143.121C62.2345 143.121 62.2323 143.121 62.2294 143.121C62.2232 143.121 62.2183 143.121 62.2119 143.121C62.2067 143.121 62.2006 143.121 62.1955 143.121C62.1915 143.121 62.1876 143.121 62.1836 143.121C62.1814 143.121 62.18 143.121 62.1777 143.121C62.1704 143.121 62.1628 143.121 62.1557 143.121C62.1544 143.121 62.1535 143.121 62.1522 143.121C62.1443 143.121 62.1362 143.121 62.1284 143.121C62.1267 143.121 62.1247 143.121 62.123 143.121C62.1161 143.121 62.1105 143.121 62.1036 143.121C62.0952 143.121 62.0881 143.121 62.0795 143.121C62.079 143.121 62.0773 143.121 62.0768 143.121C62.0709 143.121 62.0652 143.121 62.0596 143.121C62.0562 143.121 62.0522 143.121 62.0488 143.121C62.0437 143.121 62.0385 143.121 62.0334 143.121C62.0286 143.121 62.0252 143.121 62.0208 143.121C62.0178 143.121 62.0161 143.121 62.0132 143.121C62.0071 143.121 62.0007 143.121 61.9945 143.121C61.9879 143.121 61.9803 143.121 61.9734 143.121C61.9717 143.121 61.9697 143.121 61.968 143.121C61.9614 143.121 61.9543 143.121 61.9473 143.121C61.9451 143.121 61.9432 143.121 61.941 143.121C61.9365 143.121 61.9326 143.121 61.9282 143.121C61.9139 143.121 61.9002 143.121 61.8862 143.121C61.884 143.121 61.8806 143.121 61.8784 143.121C61.8626 143.121 61.8479 143.121 61.8321 143.121C61.8312 143.121 61.829 143.121 61.828 143.121C61.8022 143.121 61.7774 143.121 61.7518 143.121C61.7069 143.121 61.6627 143.121 61.618 143.121Z" fill="#CACBC9"/>
<path d="M60.0809 143.116C53.7607 143.079 49.4124 142.833 49.3657 142.831C49.36 142.83 49.3544 142.83 49.3488 142.83C49.3033 142.83 49.2613 142.844 49.225 142.867C45.986 137.688 46.2776 128.276 48.5688 116.717L48.6141 116.725C48.7086 116.725 48.7983 116.667 48.8339 116.574L48.8425 116.552C46.2508 129.517 46.4606 138.118 49.4849 142.837C50.2249 142.877 54.3406 143.083 60.0809 143.116ZM77.9939 142.572C77.997 142.572 77.9976 142.572 78.0008 142.572C77.9983 142.572 77.9958 142.572 77.9939 142.572ZM78.0259 142.57C78.0303 142.57 78.036 142.569 78.0398 142.569C78.0348 142.569 78.031 142.57 78.0259 142.57Z" fill="#040606"/>
<path d="M61.6182 143.357C54.3877 143.357 49.3518 143.067 49.3518 143.067C49.3089 143.002 49.2664 142.936 49.2246 142.868C49.261 142.845 49.303 142.831 49.3484 142.831C49.3541 142.831 49.3597 142.831 49.3653 142.832C49.4121 142.834 53.7603 143.08 60.0806 143.117C60.0828 143.117 60.0852 143.117 60.0874 143.117C60.0958 143.117 60.1039 143.117 60.112 143.117C60.1154 143.117 60.1186 143.117 60.1218 143.117C60.212 143.117 60.3024 143.118 60.3932 143.118C60.4026 143.118 60.4114 143.119 60.4205 143.119C60.4424 143.119 60.4645 143.119 60.4863 143.119C60.4875 143.119 60.4893 143.119 60.4905 143.119C60.5008 143.119 60.5102 143.119 60.5205 143.119C60.5219 143.119 60.524 143.119 60.5257 143.119C60.5345 143.119 60.5441 143.119 60.5529 143.119C60.5622 143.119 60.5718 143.119 60.5812 143.119C60.5853 143.119 60.5895 143.119 60.5937 143.119C60.5972 143.119 60.6 143.119 60.6035 143.119C60.6195 143.119 60.6352 143.119 60.6512 143.119C60.6541 143.119 60.6571 143.119 60.66 143.119C60.6639 143.119 60.6676 143.119 60.6713 143.119C60.6973 143.119 60.7232 143.12 60.7492 143.12C60.7517 143.12 60.7544 143.12 60.7568 143.12C60.7607 143.12 60.7651 143.12 60.7688 143.12C60.7703 143.12 60.7713 143.12 60.7725 143.12C60.7772 143.12 60.7826 143.12 60.7875 143.12C60.7919 143.12 60.7966 143.12 60.8013 143.12C60.8111 143.12 60.8199 143.12 60.8298 143.12C60.8309 143.12 60.8327 143.12 60.8339 143.12C60.8455 143.12 60.8575 143.12 60.8691 143.12C60.8718 143.12 60.8742 143.12 60.8767 143.12C60.8986 143.12 60.9204 143.12 60.9423 143.121C60.9526 143.121 60.9619 143.121 60.9722 143.121C60.972 143.121 60.9727 143.121 60.9722 143.121C60.9749 143.121 60.9781 143.121 60.9808 143.121C60.985 143.121 60.9897 143.121 60.9941 143.121C60.9953 143.121 60.9963 143.121 60.9978 143.121C61.0071 143.121 61.0165 143.121 61.026 143.121C61.0317 143.121 61.0378 143.121 61.0432 143.121C61.0535 143.121 61.0636 143.121 61.0739 143.121C61.0761 143.121 61.0778 143.121 61.08 143.121C61.0852 143.121 61.0913 143.121 61.0965 143.121C61.1066 143.121 61.1162 143.121 61.1265 143.121C61.1442 143.121 61.1626 143.121 61.1803 143.121C61.182 143.121 61.1827 143.121 61.1844 143.121C61.1901 143.121 61.1955 143.121 61.2011 143.121C61.2024 143.121 61.2036 143.121 61.2051 143.121C61.2166 143.121 61.2294 143.121 61.2412 143.121C61.251 143.121 61.2601 143.121 61.2699 143.121C61.2721 143.121 61.2751 143.121 61.2773 143.121C61.2825 143.121 61.2879 143.121 61.293 143.121C61.3146 143.121 61.335 143.121 61.3567 143.121C61.3635 143.121 61.3711 143.121 61.378 143.121C61.3881 143.121 61.3984 143.121 61.4082 143.121C61.4099 143.121 61.4107 143.121 61.4124 143.121C61.4237 143.121 61.4359 143.121 61.4473 143.121C61.4507 143.121 61.4532 143.121 61.4568 143.121C61.461 143.121 61.4662 143.121 61.4706 143.121C61.4809 143.121 61.4905 143.121 61.5011 143.121C61.504 143.121 61.5069 143.121 61.5102 143.121C61.5114 143.121 61.5139 143.121 61.5151 143.121C61.5212 143.121 61.5266 143.121 61.5328 143.121C61.5332 143.121 61.534 143.121 61.5345 143.121C61.5622 143.121 61.59 143.121 61.6177 143.121C61.6625 143.121 61.7067 143.121 61.7516 143.121C61.7769 143.121 61.8025 143.121 61.8278 143.121C61.8288 143.121 61.831 143.121 61.8319 143.121C61.8476 143.121 61.8624 143.121 61.8781 143.121C61.8803 143.121 61.8838 143.121 61.886 143.121C61.9 143.121 61.9137 143.121 61.928 143.121C61.9324 143.121 61.9363 143.121 61.9408 143.121C61.943 143.121 61.9449 143.121 61.9471 143.121C61.954 143.121 61.9611 143.121 61.9677 143.121C61.9695 143.121 61.9715 143.121 61.9732 143.121C61.9801 143.121 61.9877 143.121 61.9943 143.121C62.0004 143.121 62.0069 143.121 62.013 143.121C62.0159 143.121 62.0176 143.121 62.0206 143.121C62.0245 143.121 62.0292 143.121 62.0332 143.121C62.0383 143.121 62.0435 143.121 62.0486 143.121C62.0525 143.121 62.0555 143.121 62.0594 143.121C62.065 143.121 62.0707 143.121 62.0766 143.121C62.0771 143.121 62.0788 143.121 62.0793 143.121C62.0879 143.121 62.095 143.121 62.1034 143.121C62.1097 143.121 62.1164 143.121 62.1228 143.121C62.1245 143.121 62.1265 143.121 62.1282 143.121C62.1363 143.121 62.1441 143.121 62.152 143.121C62.1533 143.121 62.1542 143.121 62.1555 143.121C62.1628 143.121 62.1702 143.121 62.1775 143.121C62.1798 143.121 62.1812 143.121 62.1834 143.121C62.1874 143.121 62.1913 143.121 62.1953 143.121C62.2004 143.121 62.2065 143.121 62.2117 143.121C62.2173 143.121 62.2235 143.121 62.2292 143.121C62.2321 143.121 62.2343 143.121 62.2373 143.121C62.2434 143.121 62.2495 143.121 62.2557 143.121C62.2586 143.121 62.2618 143.121 62.2647 143.121C62.282 143.121 62.2991 143.12 62.3161 143.12C62.3173 143.12 62.3173 143.12 62.3183 143.12C62.3259 143.12 62.333 143.12 62.3404 143.12C62.3424 143.12 62.345 143.12 62.3468 143.12C62.3512 143.12 62.3549 143.12 62.3593 143.12C62.3645 143.12 62.3701 143.12 62.3753 143.12C62.3783 143.12 62.3815 143.12 62.3844 143.12C62.3999 143.12 62.4151 143.12 62.4306 143.12C62.4345 143.12 62.4382 143.12 62.4421 143.12C62.4472 143.12 62.4531 143.12 62.4583 143.12C62.4601 143.12 62.4615 143.12 62.4632 143.12C62.4706 143.12 62.4787 143.12 62.4863 143.12C62.4885 143.12 62.4895 143.12 62.4919 143.12C62.5178 143.119 62.5441 143.119 62.5699 143.119C62.5784 143.119 62.587 143.119 62.5956 143.119C62.6008 143.119 62.6067 143.119 62.6119 143.119C62.6148 143.119 62.6173 143.119 62.6202 143.119C62.6249 143.119 62.6288 143.119 62.6334 143.119C62.6391 143.119 62.646 143.119 62.6516 143.119C62.6539 143.119 62.6553 143.119 62.6578 143.119C62.6647 143.119 62.672 143.119 62.6789 143.119C62.6806 143.119 62.6826 143.119 62.684 143.119C62.6917 143.119 62.6983 143.119 62.7057 143.119C62.7091 143.119 62.7143 143.119 62.7177 143.119C62.7229 143.119 62.728 143.119 62.7332 143.119C62.7366 143.119 62.7388 143.119 62.7423 143.119C62.7482 143.119 62.7548 143.119 62.7607 143.119C62.7646 143.119 62.7688 143.119 62.7727 143.119C62.7779 143.119 62.7833 143.119 62.7887 143.119C62.7909 143.119 62.7929 143.119 62.7954 143.119C62.8035 143.119 62.8106 143.119 62.8187 143.119C62.8192 143.119 62.8201 143.119 62.8206 143.119C62.8381 143.118 62.856 143.118 62.8735 143.118C62.8752 143.118 62.8759 143.118 62.8776 143.118C62.8943 143.118 62.912 143.118 62.929 143.118C62.9314 143.118 62.9331 143.118 62.9356 143.118C62.9424 143.118 62.9501 143.118 62.9572 143.118C62.9582 143.118 62.9589 143.118 62.9602 143.117C62.9683 143.117 62.9764 143.117 62.9844 143.117C62.9862 143.117 62.9887 143.117 62.9904 143.117C63.0073 143.117 63.0243 143.117 63.0412 143.117C63.0424 143.117 63.0429 143.117 63.0439 143.117C67.3946 143.094 72.5057 142.96 77.7596 142.59C77.7709 142.589 77.781 142.589 77.7923 142.588C77.7929 142.588 77.7942 142.588 77.7948 142.588C77.8049 142.587 77.8162 142.586 77.8263 142.585C77.8275 142.585 77.8281 142.585 77.83 142.585C77.8395 142.585 77.8483 142.584 77.8577 142.583C77.8602 142.583 77.8634 142.583 77.8652 142.583C77.8747 142.582 77.8841 142.582 77.8935 142.58C77.8948 142.58 77.8954 142.58 77.8973 142.58C77.9067 142.58 77.9174 142.579 77.9275 142.578C77.9287 142.578 77.9287 142.578 77.9306 142.578C77.9401 142.577 77.9514 142.577 77.9608 142.576C77.9627 142.576 77.9633 142.576 77.9646 142.575C77.9747 142.575 77.9835 142.574 77.9935 142.573C77.9954 142.573 77.9979 142.573 78.0004 142.573C78.0086 142.572 78.0174 142.572 78.0256 142.571C78.0306 142.571 78.0344 142.57 78.0394 142.57C78.0438 142.57 78.0495 142.57 78.0539 142.569C78.0614 142.568 78.069 142.568 78.0765 142.568C78.0803 142.567 78.0841 142.567 78.0878 142.567C78.0966 142.566 78.1048 142.565 78.1143 142.565C78.1155 142.565 78.1168 142.565 78.118 142.565C78.1268 142.564 78.1375 142.563 78.1463 142.563C78.1482 142.562 78.1507 142.562 78.1532 142.562C78.1627 142.562 78.1715 142.561 78.1815 142.56C78.1828 142.56 78.1841 142.56 78.1853 142.56C78.1947 142.559 78.2035 142.558 78.213 142.558C78.2149 142.558 78.2193 142.557 78.2211 142.557C80.0391 142.425 81.8721 142.264 83.6945 142.07L83.7329 142.292C83.7341 142.295 83.7347 142.3 83.7354 142.304C75.9467 143.136 67.9429 143.357 61.6182 143.357Z" fill="#040606"/>
<path d="M84.1639 142.018L83.9395 140.737C90.8 139.952 91.5955 138.289 90.4403 133.538C88.9644 127.47 85.6323 113.976 86.4472 110.317C86.3869 110.915 86.5384 111.848 86.9151 113.301C88.0828 117.827 94.2359 139.954 94.2919 140.146C94.2919 140.152 94.3013 140.219 94.324 140.455C91.1044 141.125 87.6577 141.634 84.1639 142.018ZM86.8409 109.516C86.944 109.431 87.0635 109.387 87.2006 109.387C87.2144 109.387 87.2282 109.387 87.2427 109.388C87.0842 109.395 86.9522 109.438 86.8409 109.516Z" fill="#CACBC9"/>
<path d="M84.1636 142.019C87.6574 141.635 91.104 141.126 94.3236 140.456C94.301 140.22 94.2915 140.153 94.2915 140.147C94.2356 139.955 88.0824 117.828 86.9147 113.302C86.538 111.849 86.3865 110.916 86.4469 110.318C86.5311 109.939 86.6607 109.665 86.8405 109.517C86.9518 109.439 87.0839 109.396 87.2423 109.389C87.4046 109.399 87.5913 109.469 87.8032 109.603L87.8982 109.767C87.6649 109.679 87.4668 109.634 87.3027 109.634C86.4871 109.634 86.494 110.738 87.143 113.243C88.3239 117.819 94.5248 140.114 94.5248 140.114C94.5248 140.114 94.533 140.172 94.5563 140.409C94.5475 140.411 94.5387 140.412 94.5299 140.414C91.2511 141.105 87.7322 141.627 84.1636 142.019Z" fill="#040606"/>
<path d="M84.2007 142.252C84.2013 142.238 84.2 142.223 84.1975 142.209L84.1636 142.018C87.7322 141.626 91.2511 141.104 94.5299 140.413C94.5387 140.411 94.5475 140.41 94.5563 140.408C94.5626 140.473 94.5701 140.55 94.5783 140.643C91.2964 141.335 87.775 141.859 84.2007 142.252Z" fill="#040606"/>
<path d="M83.7357 142.304C83.7351 142.3 83.7345 142.295 83.7332 142.292L83.6948 142.07L83.4697 140.79C83.6294 140.773 83.786 140.756 83.9395 140.738L84.1639 142.019L84.1979 142.21C84.2004 142.224 84.2017 142.239 84.2011 142.253C84.0457 142.27 83.8917 142.287 83.7357 142.304Z" fill="#040606"/>
<path d="M48.6141 116.726L48.5688 116.717C48.5839 116.641 48.5991 116.566 48.6141 116.49L48.5797 116.498C49.0661 115.167 49.6298 113.733 50.2827 112.24C50.2581 112.497 50.2308 112.756 50.2011 113.016L48.8425 116.552L48.8339 116.575C48.7983 116.668 48.7086 116.726 48.6141 116.726Z" fill="#040606"/>
</g>
</g>
<defs>
<clipPath id="clip0_7_6566">
<rect width="159" height="220" fill="white" transform="translate(0.516602 0.730591)"/>
</clipPath>
</defs>
</svg>
