<svg width="83" height="69" viewBox="0 0 83 69" fill="none" xmlns="http://www.w3.org/2000/svg">
<path d="M3.67814 30.1422C3.54269 30.4807 3.40741 32.1499 3.27211 35.1502C3.18167 37.3157 3.04917 39.4277 2.8745 41.4861C2.6995 43.5445 2.43718 44.833 2.08781 45.3519C1.06124 45.3519 0.548248 45.645 0.548248 46.2317C0.548248 46.5925 0.643846 46.801 0.835799 46.8577C1.02746 46.9139 1.1853 46.9422 1.30954 46.9422C1.50119 46.9422 1.70419 46.8971 1.91858 46.8069C2.24552 46.6601 2.51065 46.4233 2.71368 46.0964C3.01833 46.0964 3.47511 46.2033 4.08416 46.4177C5.66313 46.9592 6.85288 47.2467 7.65387 47.2805L8.48288 47.2975C9.65582 47.2975 10.6992 46.9253 11.6128 46.1809C12.0865 45.7749 12.3233 45.4534 12.3233 45.2166C12.3233 45.1151 12.2782 45.0643 12.188 45.0643C12.0528 45.0643 11.906 45.1629 11.7482 45.3603C11.5901 45.5576 11.2686 45.8197 10.7838 46.1471C10.0843 46.5869 9.30055 46.8069 8.43214 46.8069C7.48478 46.8069 6.59364 46.6771 5.75902 46.4177L4.92999 46.1639C3.93735 45.8256 3.29453 45.6394 3.00138 45.6057C3.46375 44.6583 3.88114 43.2514 4.25324 41.3846C4.62548 39.5179 4.90729 37.6654 5.09922 35.8269C5.29088 33.9886 5.38679 32.4884 5.38679 31.3265C5.38679 30.4468 5.22878 29.9506 4.91317 29.8377C4.65352 29.7362 4.47321 29.6854 4.37171 29.6854C4.10098 29.6854 3.8698 29.8377 3.67814 30.1422Z" fill="url(#paint0_linear_52_889)"/>
<path d="M11.4435 38.7031L11.4098 38.6184C11.3307 38.3252 11.1728 38.0291 10.936 37.7302C10.6991 37.4314 10.2703 37.248 9.65021 37.1803C9.13132 37.1917 8.70835 37.3892 8.38138 37.7725C8.054 38.156 7.81455 38.5622 7.66228 38.9906C7.51001 39.4194 7.43388 39.9439 7.43388 40.564C7.43388 41.3085 7.57507 41.9712 7.85688 42.5519C8.13868 43.1329 8.57303 43.4233 9.15951 43.4233C9.5204 43.4233 9.84484 43.1922 10.1324 42.7296C10.4199 42.2671 10.6763 41.771 10.9021 41.2407C11.0824 40.8347 11.2405 40.5246 11.3758 40.3102V40.3779C11.3758 41.3366 11.6239 42.1036 12.1203 42.6788C12.6165 43.254 13.1524 43.5416 13.7275 43.5416H13.829C14.6522 43.429 15.2896 42.583 15.7408 41.0039C16.0226 40.034 16.1638 39.4587 16.1638 39.2782C16.1638 39.1656 16.1073 39.1091 15.9945 39.1091C15.8255 39.1091 15.7181 39.2501 15.6731 39.5319C15.5378 40.1299 15.3234 40.8093 15.0302 41.5706C14.7368 42.3319 14.3197 42.8086 13.7782 43.0003C13.6879 43.023 13.6032 43.0341 13.5245 43.0341C13.2425 43.0341 13.0112 42.8932 12.8309 42.6111C12.7066 42.3405 12.6447 42.0304 12.6447 41.6807C12.6447 41.0491 12.8195 40.1863 13.1692 39.0921C13.4172 38.2914 13.5414 37.7106 13.5414 37.3495L13.5245 37.0958C13.5017 36.7125 13.2311 36.4587 12.7124 36.3345L12.5939 36.3175C12.0412 36.3175 11.6576 37.1126 11.4435 38.7031ZM9.19343 42.2558V41.8837C9.28358 40.3385 9.49797 39.1825 9.83626 38.4153C9.99413 38.0884 10.1464 37.9248 10.293 37.9248C10.5186 37.9248 10.716 38.1391 10.8853 38.5676C11.0092 38.8835 11.0713 39.1598 11.0713 39.3966C11.0713 39.4871 11.0092 39.6674 10.8853 39.938C10.5017 40.784 10.2027 41.41 9.98853 41.816C9.70645 42.38 9.49206 42.6618 9.34571 42.6618C9.2442 42.6618 9.19343 42.5265 9.19343 42.2558Z" fill="url(#paint1_linear_52_889)"/>
<path d="M0.215025 48.8321C0.537548 48.8561 0.821123 48.9874 1.06619 49.2263C1.31081 49.4653 1.43342 49.752 1.43342 50.0863V59.8336C1.43342 60.2278 1.2929 60.5746 1.01242 60.8728C0.731535 61.1716 0.394198 61.3209 0 61.3209H5.46504C5.34542 61.309 5.23481 61.2433 5.1335 61.1237C5.03191 61.0046 4.94543 60.8641 4.87376 60.7027C4.80208 60.5415 4.74525 60.3802 4.70348 60.219C4.66143 60.0576 4.64082 59.9295 4.64082 59.8336V56.1604C5.21419 56.3159 5.8234 56.3934 6.46842 56.3934C7.06565 56.3934 7.68684 56.3128 8.33188 56.1516C8.97692 55.9903 9.56821 55.7457 10.1057 55.4169C10.6433 55.0885 11.0851 54.6705 11.4316 54.1627C11.778 53.6551 11.9513 53.0548 11.9513 52.3619C11.9513 51.6094 11.7542 51.0033 11.36 50.5432C10.9658 50.0835 10.476 49.728 9.89073 49.4771C9.30538 49.2263 8.67231 49.056 7.99146 48.9664C7.31057 48.8768 6.67725 48.8321 6.09218 48.8321H0.215025ZM5.30378 55.9633C5.07664 55.9158 4.85583 55.8558 4.64082 55.7842V49.2263C4.77204 49.2024 4.89747 49.1905 5.01709 49.1905H5.39338C6.49215 49.1905 7.29859 49.498 7.81228 50.1132C8.32568 50.7286 8.58273 51.5676 8.58273 52.6307C8.58273 53.049 8.54069 53.4611 8.4573 53.867C8.37365 54.2733 8.2303 54.6374 8.02729 54.96C7.82398 55.2825 7.55832 55.5424 7.22988 55.7395C6.90129 55.9366 6.49215 56.035 6.00259 56.035C5.76344 56.035 5.53051 56.0113 5.30378 55.9633Z" fill="url(#paint2_radial_52_889)"/>
<path d="M14.7304 52.5411C13.954 52.6964 13.2196 52.9236 12.527 53.2219V55.6408C12.6584 55.2825 12.8703 54.9241 13.1629 54.5658C13.4551 54.2074 13.7867 53.888 14.1567 53.6073C14.5269 53.3266 14.9211 53.0965 15.339 52.9173C15.7568 52.7382 16.1569 52.6486 16.5391 52.6486C16.7775 52.6486 16.9805 52.7085 17.148 52.8277C17.315 52.9472 17.4495 53.1027 17.5508 53.2936C17.6522 53.4848 17.7268 53.6909 17.7748 53.9118C17.8224 54.1329 17.8465 54.3391 17.8465 54.5299V56.1604C17.5715 56.1963 17.2431 56.2443 16.861 56.3038C16.4785 56.3638 16.0784 56.4471 15.6604 56.5546C15.2422 56.6622 14.8242 56.7907 14.4061 56.9399C13.988 57.0895 13.6117 57.2715 13.2773 57.4865C12.9428 57.7015 12.6741 57.9496 12.471 58.23C12.2677 58.5108 12.1664 58.8364 12.1664 59.2066C12.1664 59.5291 12.2381 59.8189 12.3814 60.0757C12.5248 60.3327 12.7099 60.5503 12.9369 60.7295C13.1636 60.9087 13.4235 61.0463 13.7164 61.1417C14.0089 61.2374 14.2986 61.2851 14.5853 61.2851C15.2304 61.2851 15.8245 61.1327 16.3682 60.8282C16.9117 60.5235 17.4043 60.1623 17.8465 59.7441C17.9182 60.2458 18.1152 60.6341 18.4378 60.9087C18.7603 61.1837 19.1724 61.3209 19.6741 61.3209H22.1109C21.8359 61.2851 21.6151 61.2015 21.448 61.0701C21.2805 60.9388 21.1493 60.7774 21.0538 60.5861C20.958 60.3954 20.8925 60.1832 20.8567 59.9501C20.8208 59.7173 20.8029 59.4814 20.8029 59.2425V54.9779C20.8029 54.4403 20.6892 53.9986 20.4625 53.652C20.2358 53.3056 19.9401 53.0339 19.5758 52.8368C19.2116 52.6397 18.8056 52.5024 18.3576 52.4246C17.9097 52.3471 17.4651 52.3081 17.0234 52.3081C16.2707 52.3081 15.5065 52.386 14.7304 52.5411ZM15.4435 59.5291C15.2536 59.2306 15.1587 58.8903 15.1587 58.5077C15.1587 58.1615 15.2474 57.8748 15.4256 57.6476C15.6037 57.421 15.829 57.2357 16.102 57.0923C16.375 56.949 16.6658 56.8412 16.9743 56.7695C17.2829 56.698 17.5735 56.6442 17.8465 56.6084V59.2602C17.6446 59.4637 17.4162 59.6338 17.1611 59.7709C16.9057 59.9084 16.6358 59.9769 16.3514 59.9769C15.9359 59.9769 15.6333 59.828 15.4435 59.5291Z" fill="url(#paint3_radial_52_889)"/>
<path d="M25.3914 52.5411C24.6148 52.6964 23.8805 52.9236 23.1879 53.2219V55.6408C23.3193 55.2825 23.5312 54.9241 23.8238 54.5658C24.116 54.2074 24.4475 53.888 24.8177 53.6073C25.1876 53.3266 25.5818 53.0965 26 52.9173C26.4176 52.7382 26.8177 52.6486 27.1998 52.6486C27.4385 52.6486 27.6414 52.7085 27.8087 52.8277C27.976 52.9472 28.1103 53.1027 28.2117 53.2936C28.3129 53.4848 28.3877 53.6909 28.4357 53.9118C28.4834 54.1329 28.5074 54.3391 28.5074 54.5299V56.1604C28.2325 56.1963 27.9041 56.2443 27.5217 56.3038C27.1394 56.3638 26.7393 56.4471 26.3214 56.5546C25.9029 56.6622 25.485 56.7907 25.0672 56.9399C24.6488 57.0895 24.2726 57.2715 23.9382 57.4865C23.6037 57.7015 23.3349 57.9496 23.1319 58.23C22.9286 58.5108 22.8273 58.8364 22.8273 59.2066C22.8273 59.5291 22.899 59.8189 23.0423 60.0757C23.1857 60.3327 23.3707 60.5503 23.5978 60.7295C23.8245 60.9087 24.0844 61.0463 24.3772 61.1417C24.6697 61.2374 24.9597 61.2851 25.2463 61.2851C25.8914 61.2851 26.4853 61.1327 27.0291 60.8282C27.5725 60.5235 28.0652 60.1623 28.5074 59.7441C28.579 60.2458 28.776 60.6341 29.0985 60.9087C29.421 61.1837 29.8333 61.3209 30.335 61.3209H32.7718C32.4969 61.2851 32.276 61.2015 32.109 61.0701C31.9413 60.9388 31.8102 60.7774 31.7148 60.5861C31.6188 60.3954 31.5534 60.1832 31.5175 59.9501C31.4817 59.7173 31.4639 59.4814 31.4639 59.2425V54.9779C31.4639 54.4403 31.3502 53.9986 31.1233 53.652C30.8965 53.3056 30.6011 53.0339 30.2368 52.8368C29.8725 52.6397 29.4664 52.5024 29.0186 52.4246C28.5706 52.3471 28.1259 52.3081 27.6843 52.3081C26.9317 52.3081 26.1673 52.386 25.3914 52.5411ZM26.1044 59.5291C25.9145 59.2306 25.8197 58.8903 25.8197 58.5077C25.8197 58.1615 25.9083 57.8748 26.0864 57.6476C26.2644 57.421 26.4899 57.2357 26.7627 57.0923C27.0358 56.949 27.3268 56.8412 27.6352 56.7695C27.9439 56.698 28.2342 56.6442 28.5074 56.6084V59.2602C28.3053 59.4637 28.077 59.6338 27.822 59.7709C27.5666 59.9084 27.2969 59.9769 27.0121 59.9769C26.5968 59.9769 26.294 59.828 26.1044 59.5291Z" fill="url(#paint4_radial_52_889)"/>
<path d="M36.7673 52.3887C36.4922 52.5024 36.2027 52.592 35.8982 52.6576C35.5935 52.7234 35.2859 52.7651 34.9755 52.783C34.6646 52.801 34.3841 52.8098 34.1333 52.8098H33.7571C34.0317 52.9415 34.2139 53.1116 34.3034 53.3206C34.3931 53.5296 34.438 53.7715 34.438 54.0462V59.9233C34.438 60.2817 34.3511 60.5923 34.1781 60.855C34.0049 61.118 33.7269 61.2732 33.3449 61.3209H38.3977C38.2425 61.3209 38.1048 61.276 37.9857 61.1866C37.866 61.0968 37.7645 60.9834 37.681 60.846C37.5974 60.7089 37.5345 60.5624 37.493 60.4069C37.451 60.252 37.4301 60.1087 37.4301 59.9769V54.4762C37.705 54.2612 38.0094 54.0731 38.3441 53.9119C38.6782 53.7506 39.0249 53.6699 39.3833 53.6699C39.885 53.6699 40.267 53.8252 40.53 54.1357C40.7927 54.4466 40.9242 54.8345 40.9242 55.3004V59.6725C40.9242 59.8398 40.909 60.0218 40.8794 60.219C40.8494 60.416 40.7927 60.5952 40.7092 60.7565C40.6254 60.9177 40.5148 61.052 40.3776 61.1595C40.2402 61.267 40.0642 61.3209 39.8492 61.3209H44.9019C44.5794 61.3209 44.3495 61.1928 44.212 60.9357C44.0746 60.679 43.9883 60.3384 43.9525 59.9143C43.9166 59.4905 43.9135 59.0094 43.9434 58.4718C43.973 57.9343 43.9911 57.3852 43.997 56.8234C44.003 56.2622 43.9761 55.7125 43.9166 55.175C43.8565 54.6374 43.7253 54.1568 43.5224 53.7327C43.319 53.3087 43.0207 52.9683 42.6265 52.7114C42.2323 52.4546 41.7064 52.3261 41.0495 52.3261C40.3568 52.3261 39.7058 52.4935 39.0966 52.8277C38.4874 53.1623 37.9318 53.5565 37.4301 54.0103V51.9139C37.2628 52.1173 37.0418 52.2754 36.7673 52.3887Z" fill="url(#paint5_radial_52_889)"/>
<path d="M30.8259 3.48426C30.0842 3.79145 29.5064 4.36907 29.1992 5.11085C29.0205 5.54219 28.9465 5.99892 28.9756 6.45147C28.6761 6.1109 28.3009 5.84032 27.8696 5.66164C27.128 5.35442 26.311 5.35458 25.5691 5.66179C24.4996 6.10483 23.9898 7.33532 24.4328 8.40501C24.5844 8.77063 24.8691 9.05549 25.2349 9.20688C25.6003 9.35845 26.0033 9.35845 26.3691 9.20688C26.6309 9.09853 26.8349 8.89451 26.9433 8.63273C27.0518 8.37075 27.0518 8.08227 26.9433 7.82046C26.8643 7.62946 26.7154 7.48058 26.5243 7.40145C26.333 7.32229 26.1228 7.32229 25.9316 7.40145C25.8496 7.43535 25.8106 7.52943 25.8446 7.6116C25.8785 7.6937 25.973 7.73234 26.0547 7.69859C26.166 7.65239 26.2892 7.65239 26.4011 7.69859C26.513 7.74491 26.6 7.8319 26.6462 7.94357C26.7217 8.12607 26.7218 8.32712 26.6462 8.5096C26.5706 8.6921 26.4285 8.83419 26.246 8.90976C25.9595 9.02849 25.6441 9.02849 25.358 8.90976C25.0716 8.79121 24.8485 8.56818 24.73 8.28188C24.5483 7.84307 24.5483 7.35983 24.73 6.92118C24.9117 6.48237 25.2534 6.14061 25.6922 5.95891C26.0011 5.8306 26.3415 5.8306 26.6501 5.9586C26.9588 6.08646 27.1993 6.32703 27.3274 6.63626C27.3276 6.63646 27.3276 6.63657 27.3277 6.63674C27.3332 6.64988 27.341 6.66191 27.3498 6.67324C27.3518 6.67586 27.3538 6.67842 27.356 6.68088C27.3651 6.69128 27.3753 6.70083 27.3873 6.70871C27.3881 6.70927 27.389 6.70957 27.3899 6.71013C27.3976 6.71504 27.4057 6.71966 27.4144 6.7233C28.1746 7.03818 28.7664 7.62945 29.0808 8.3885C29.3941 9.14508 29.3947 9.97844 29.0831 10.7365C28.7054 11.4976 28.1051 12.1107 27.3538 12.5028C27.4204 12.1025 27.3008 11.6769 26.9926 11.3687C26.6721 11.048 26.2457 10.8713 25.7923 10.8713C25.3388 10.8713 24.9124 11.048 24.5919 11.3687C24.1699 11.7906 23.9375 12.3517 23.9375 12.9485C23.9375 13.1325 23.9621 13.3124 24.0051 13.4867L22.9376 12.4192C22.9775 12.3431 23.001 12.2591 23.001 12.1708C23.001 12.0269 22.9449 11.8914 22.843 11.7896C22.675 11.6217 22.4237 11.5903 22.2219 11.6908C22.0835 11.5128 22.0076 11.2958 22.0076 11.0667C22.0076 10.7942 22.1138 10.5381 22.3065 10.3454C22.5575 10.0944 22.9661 10.0944 23.2171 10.3454C23.2903 10.4185 23.3306 10.5159 23.3306 10.6194C23.3306 10.7229 23.2903 10.8203 23.2171 10.8935C23.1343 10.9762 22.9991 10.9766 22.916 10.8935C22.8794 10.8569 22.8794 10.7974 22.934 10.7608C22.9969 10.8236 23.0987 10.8236 23.1615 10.7608C23.2243 10.698 23.2243 10.5962 23.1615 10.5334C23.0313 10.4032 22.8191 10.4029 22.6886 10.5334C22.5265 10.6953 22.5265 10.959 22.6886 11.1209C22.8968 11.3292 23.2359 11.3295 23.4445 11.1209C23.5785 10.9871 23.6523 10.809 23.6523 10.6194C23.6523 10.43 23.5785 10.2519 23.4445 10.118C23.0679 9.74138 22.4554 9.74166 22.0791 10.118C21.8256 10.3713 21.686 10.7083 21.686 11.0667C21.686 11.1987 21.7052 11.3277 21.7419 11.4508C21.6188 11.4142 21.4898 11.395 21.3578 11.395C20.9994 11.395 20.6623 11.5346 20.409 11.788C20.0325 12.1645 20.0325 12.777 20.409 13.1535C20.543 13.2874 20.7211 13.3613 20.9104 13.3613C21.1 13.3613 21.2781 13.2874 21.4119 13.1535C21.6204 12.945 21.6204 12.606 21.4119 12.3976C21.2499 12.2356 20.9865 12.2353 20.8244 12.3976C20.6941 12.5279 20.6941 12.7401 20.8244 12.8704C20.8871 12.9333 20.989 12.9242 21.0518 12.8615C21.1146 12.7987 21.1146 12.6878 21.0518 12.625C21.0889 12.5885 21.1481 12.5888 21.1845 12.625C21.2675 12.7081 21.2675 12.8429 21.1845 12.926C21.0381 13.0724 20.7828 13.0724 20.6364 12.926C20.3854 12.6749 20.3854 12.2666 20.6364 12.0155C20.9912 11.6607 21.5881 11.6334 21.9814 11.9317C21.8814 12.1334 21.9129 12.3842 22.0807 12.552C22.1824 12.6539 22.3179 12.71 22.4618 12.71C22.5502 12.71 22.6342 12.6865 22.7103 12.6466L23.7777 13.7141C23.6035 13.6711 23.4236 13.6465 23.2395 13.6465C22.6427 13.6465 22.0816 13.8789 21.6598 14.3009C21.3391 14.6214 21.1623 15.0478 21.1623 15.5012C21.1623 15.9546 21.3391 16.381 21.6598 16.7016C21.9132 16.9551 22.246 17.0816 22.5789 17.0816C22.6508 17.0816 22.7227 17.0745 22.7938 17.0627C22.4018 17.814 21.7887 18.4144 21.0275 18.792C20.2692 19.1033 19.4358 19.1029 18.6795 18.7897C17.9205 18.4753 17.3292 17.8835 17.0143 17.1234C17.0132 17.1206 17.0114 17.1183 17.0101 17.1156C17.0069 17.1088 17.0036 17.102 16.9994 17.0956C16.9967 17.0915 16.9932 17.088 16.9901 17.0842C16.9866 17.0798 16.9833 17.0752 16.9793 17.0712C16.9763 17.0682 16.9728 17.0658 16.9695 17.063C16.9647 17.059 16.9601 17.0547 16.9548 17.0511C16.9525 17.0497 16.9501 17.0487 16.9478 17.0474C16.9412 17.0435 16.9346 17.0394 16.9273 17.0364C16.6181 16.9082 16.3775 16.6678 16.2496 16.3591C16.1218 16.0504 16.1218 15.7103 16.25 15.4012C16.4316 14.9624 16.7734 14.6206 17.2122 14.4389C17.6507 14.257 18.1341 14.257 18.5729 14.4389C18.8592 14.5575 19.0822 14.7805 19.2008 15.067C19.3194 15.3533 19.3194 15.6686 19.2008 15.9549C19.1252 16.1374 18.9831 16.2796 18.8006 16.3551C18.6185 16.431 18.4174 16.431 18.2346 16.3551C18.1229 16.3089 18.0359 16.2219 17.9896 16.1101C17.9434 15.9984 17.9434 15.8753 17.9896 15.7636C18.0236 15.6815 17.9846 15.5874 17.9026 15.5535C17.8211 15.5198 17.7265 15.5586 17.6925 15.6405C17.6133 15.8316 17.6133 16.0421 17.6925 16.2333C17.7716 16.4244 17.9205 16.5733 18.1115 16.6523C18.3734 16.7609 18.6618 16.7609 18.9238 16.6523C19.1856 16.5439 19.3896 16.3399 19.4979 16.0781C19.6495 15.7123 19.6495 15.3096 19.4979 14.9439C19.3465 14.5781 19.0617 14.2933 18.6961 14.1418C17.6262 13.6984 16.3957 14.2084 15.9528 15.278C15.6455 16.0198 15.6455 16.8368 15.9527 17.5786C16.1314 18.0099 16.402 18.3852 16.7427 18.6846C16.2901 18.6555 15.8333 18.7295 15.4019 18.9082C14.6601 19.2153 14.0825 19.7931 13.7753 20.5349C13.3322 21.6046 13.842 22.8351 14.9116 23.2781C15.2778 23.4297 15.6805 23.4297 16.0458 23.2781C16.4116 23.1267 16.6965 22.8418 16.8479 22.476C16.9564 22.2142 16.9564 21.9257 16.8479 21.6639C16.7395 21.402 16.5355 21.1981 16.2735 21.0896C15.8792 20.9258 15.4251 21.1141 15.2618 21.5086C15.2277 21.5906 15.2668 21.6847 15.3488 21.7187C15.4306 21.7524 15.525 21.7139 15.5589 21.6317C15.6544 21.401 15.9203 21.2912 16.1504 21.3867C16.333 21.4624 16.4752 21.6046 16.5507 21.787C16.6264 21.9694 16.6262 22.1704 16.5507 22.3529C16.4321 22.6394 16.2091 22.8624 15.9227 22.981C15.6365 23.0997 15.3208 23.0997 15.0347 22.981C14.5959 22.7993 14.2541 22.4575 14.0725 22.0187C13.8907 21.5801 13.8907 21.0968 14.0725 20.658C14.3366 20.0206 15.0697 19.7166 15.7077 19.9806C15.7175 19.9847 15.7276 19.9876 15.738 19.9897C15.7411 19.9903 15.7443 19.9903 15.7474 19.9907C15.7548 19.9917 15.7622 19.9927 15.7697 19.9927C15.7712 19.9927 15.7727 19.9923 15.7742 19.9923C15.7931 19.9917 15.8122 19.9883 15.8307 19.9806C16.5907 19.6656 17.4274 19.6653 18.1865 19.98C18.9428 20.2933 19.5326 20.8821 19.8483 21.6383C20.1195 22.4435 20.1285 23.3016 19.8745 24.1102C19.6385 23.7801 19.2531 23.5638 18.8172 23.5638C17.8812 23.5638 17.1196 24.3253 17.1196 25.2613C17.1196 26.0714 17.553 26.782 18.2001 27.1738H16.6952C16.6266 26.9549 16.4219 26.7956 16.1807 26.7956C15.943 26.7956 15.7411 26.9504 15.6696 27.1644C15.1687 27.0999 14.78 26.6717 14.78 26.1537C14.78 25.7986 15.0689 25.5098 15.4239 25.5098C15.6377 25.5098 15.8115 25.6836 15.8115 25.8974C15.8115 26.0147 15.7161 26.1102 15.5988 26.1102C15.5469 26.1102 15.5048 26.0681 15.5175 26.0037C15.6064 26.0037 15.6784 25.9318 15.6784 25.8429C15.6784 25.754 15.6064 25.6821 15.5175 25.6821C15.3332 25.6821 15.1832 25.8321 15.1832 26.0165C15.1832 26.2454 15.3696 26.4318 15.5988 26.4318C15.8934 26.4318 16.1332 26.192 16.1332 25.8974C16.1332 25.5063 15.815 25.1882 15.4239 25.1882C14.8915 25.1882 14.4584 25.6213 14.4584 26.1537C14.4584 26.6635 14.7443 27.1076 15.164 27.3346C14.7443 27.5616 14.4584 28.0058 14.4584 28.5156C14.4584 29.048 14.8915 29.4811 15.4239 29.4811C15.815 29.4811 16.1332 29.163 16.1332 28.7719C16.1332 28.4771 15.8934 28.2373 15.5988 28.2373C15.3696 28.2373 15.1832 28.4237 15.1832 28.6529C15.1832 28.8372 15.3332 28.9872 15.5175 28.9872C15.6064 28.9872 15.6721 28.9088 15.6721 28.82C15.6721 28.7312 15.5938 28.6529 15.5048 28.6529C15.5048 28.601 15.5469 28.5589 15.5988 28.5589C15.7161 28.5589 15.8115 28.6544 15.8115 28.7719C15.8115 28.9857 15.6377 29.1595 15.4239 29.1595C15.0689 29.1595 14.78 28.8707 14.78 28.5156C14.78 27.9974 15.1687 27.5692 15.6696 27.5047C15.741 27.7188 15.943 27.8737 16.1807 27.8737C16.422 27.8737 16.6267 27.7144 16.6953 27.4954H18.2002C17.5531 27.8872 17.1196 28.5979 17.1196 29.408C17.1196 30.344 17.8812 31.1055 18.8172 31.1055C19.2529 31.1055 19.6383 30.8894 19.8742 30.5594C20.136 31.3957 20.108 32.2654 19.8397 33.0503C19.1808 34.5993 17.3897 35.3347 15.8307 34.6887C15.8133 34.6815 15.7954 34.6783 15.7777 34.6774C15.7749 34.6772 15.7722 34.6766 15.7694 34.6766C15.7633 34.6766 15.7573 34.6776 15.7513 34.6783C15.7467 34.6788 15.7422 34.6788 15.7377 34.6797C15.7323 34.6808 15.7271 34.6828 15.7219 34.6844C15.7171 34.6859 15.7123 34.6867 15.7076 34.6887C15.0693 34.953 14.3365 34.6487 14.0724 34.0113C13.6972 33.1056 14.1289 32.0635 15.0346 31.6884C15.6259 31.4438 16.3058 31.7251 16.5507 32.3162C16.6262 32.4987 16.6263 32.6998 16.5507 32.8822C16.4751 33.0647 16.333 33.2069 16.1503 33.2824C15.9198 33.3784 15.6546 33.2681 15.5589 33.0374C15.5249 32.9553 15.4307 32.9165 15.3487 32.9504C15.2668 32.9845 15.2276 33.0786 15.2617 33.1606C15.4252 33.5551 15.8792 33.7434 16.2734 33.5796C16.5353 33.4712 16.7393 33.2672 16.8478 33.0054C16.9563 32.7434 16.9563 32.4549 16.8478 32.1931C16.5351 31.4382 15.6664 31.0783 14.9115 31.3912C14.3934 31.6057 13.9897 32.0094 13.7752 32.5275C13.5605 33.0456 13.5605 33.6163 13.7752 34.1344C14.0824 34.8762 14.6601 35.4538 15.402 35.7612C15.7728 35.9148 16.1624 35.9916 16.5522 35.9916C16.6157 35.9916 16.6791 35.9888 16.7425 35.9847C16.4019 36.2841 16.1313 36.6594 15.9526 37.0908C15.6454 37.8325 15.6454 38.6495 15.9528 39.3913C16.1673 39.9094 16.5709 40.313 17.089 40.5276C17.348 40.6348 17.6203 40.6885 17.8925 40.6885C18.1647 40.6885 18.4368 40.6348 18.696 40.5276C19.0616 40.376 19.3465 40.0912 19.4979 39.7255C19.6494 39.3597 19.6494 38.957 19.4979 38.5913C19.2741 38.0508 18.6526 37.7933 18.1114 38.0169C17.7171 38.1804 17.5291 38.6341 17.6924 39.0286C17.7265 39.1108 17.8207 39.1499 17.9026 39.1156C17.9845 39.0817 18.0235 38.9877 17.9895 38.9055C17.8941 38.6749 18.004 38.4095 18.2346 38.314C18.4172 38.2387 18.6182 38.2385 18.8006 38.3142C18.9831 38.3898 19.1252 38.5319 19.2007 38.7144C19.4456 39.3055 19.164 39.9855 18.5729 40.2304C18.134 40.4123 17.6507 40.4123 17.2121 40.2304C16.7733 40.0487 16.4316 39.7069 16.2499 39.2681C16.1218 38.9591 16.1216 38.6187 16.2496 38.3101C16.3774 38.0015 16.618 37.7609 16.9272 37.6329C16.9358 37.6294 16.9437 37.6248 16.9513 37.62C16.9524 37.6193 16.9535 37.6189 16.9545 37.6183C16.9663 37.6105 16.9765 37.601 16.9856 37.5906C16.9879 37.5881 16.9899 37.5854 16.992 37.5827C17.0007 37.5715 17.0084 37.5597 17.0138 37.5467C17.0139 37.5464 17.0142 37.5462 17.0143 37.5459C17.3292 36.7858 17.9205 36.194 18.6796 35.8796C19.4359 35.5663 20.2694 35.5657 21.0274 35.8771C21.7884 36.2547 22.4013 36.8547 22.7934 37.6058C22.7231 37.5942 22.6516 37.5869 22.5788 37.5869C22.2315 37.5869 21.9052 37.7221 21.6597 37.9678C21.339 38.2883 21.1623 38.7147 21.1623 39.1681C21.1623 39.6215 21.339 40.0478 21.6597 40.3684C22.0952 40.804 22.6672 41.0218 23.2395 41.0218C23.421 41.0218 23.6022 40.9973 23.7794 40.9534L22.7099 42.0228C22.5069 41.9173 22.2512 41.947 22.0806 42.1172C21.9126 42.2853 21.8813 42.5365 21.9818 42.7382C21.5815 43.0481 21.0029 43.0206 20.6364 42.6538C20.5148 42.5323 20.4477 42.3706 20.4477 42.1986C20.4477 42.0264 20.5148 41.8647 20.6364 41.7431C20.7871 41.5923 21.0331 41.5917 21.1845 41.7431C21.2674 41.8262 21.2674 41.9613 21.1843 42.0442C21.1491 42.0798 21.0874 42.0971 21.0516 42.0264C21.1146 41.9636 21.1146 41.8618 21.0519 41.799C20.9891 41.7359 20.8873 41.7362 20.8245 41.7987C20.7612 41.8618 20.7263 41.9458 20.7263 42.0352C20.7263 42.1246 20.7612 42.2086 20.8242 42.2716C20.9814 42.4287 21.2553 42.429 21.4119 42.2716C21.6201 42.0633 21.6203 41.7243 21.4119 41.5157C21.1356 41.2395 20.6858 41.2392 20.4089 41.5157C20.0325 41.8922 20.0325 42.5048 20.4089 42.8813C20.6704 43.1429 21.0141 43.2736 21.3577 43.2736C21.4872 43.2736 21.6168 43.2549 21.742 43.2176C21.7052 43.341 21.6859 43.4703 21.6859 43.6026C21.6859 43.961 21.8255 44.2979 22.079 44.5514C22.2672 44.7397 22.5145 44.8337 22.7617 44.8337C23.0089 44.8337 23.2563 44.7397 23.4445 44.5514C23.721 44.2748 23.721 43.8248 23.4445 43.5483C23.2359 43.3394 22.8966 43.34 22.6884 43.5483C22.5268 43.7104 22.5268 43.9739 22.6887 44.1361C22.819 44.2663 23.0309 44.266 23.1613 44.1361C23.2242 44.0733 23.2153 43.9717 23.1525 43.9087C23.0896 43.8459 22.9789 43.8461 22.9161 43.9085C22.8793 43.8719 22.8793 43.8123 22.916 43.7757C22.999 43.6928 23.1342 43.6928 23.217 43.7757C23.3681 43.9269 23.3681 44.1727 23.217 44.324C22.9661 44.5749 22.5574 44.5749 22.3064 44.324C22.1137 44.1313 22.0076 43.8751 22.0076 43.6026C22.0076 43.3736 22.0834 43.1567 22.2217 42.9787C22.2957 43.0158 22.3767 43.0375 22.4618 43.0375C22.6058 43.0375 22.7411 42.9813 22.8429 42.8796C22.9447 42.7778 23.0009 42.6424 23.0009 42.4984C23.0009 42.4101 22.9775 42.3261 22.9376 42.2499L24.005 41.1826C23.9621 41.3568 23.9374 41.5367 23.9374 41.7208C23.9374 42.3175 24.1698 42.8786 24.5918 43.3006C24.9227 43.6315 25.3575 43.797 25.7922 43.797C26.2269 43.797 26.6616 43.6315 26.9925 43.3006C27.3007 42.9924 27.4203 42.5669 27.3537 42.1666C28.1049 42.5586 28.7051 43.1715 29.0828 43.9323C29.3946 44.6905 29.3941 45.5241 29.0807 46.2806C28.7663 47.0397 28.1745 47.6311 27.4144 47.946C27.4105 47.9476 27.4071 47.95 27.4034 47.9519C27.3978 47.9548 27.392 47.9574 27.3867 47.9609C27.3823 47.9638 27.3786 47.9674 27.3746 47.9707C27.3704 47.9741 27.3661 47.9771 27.3622 47.9809C27.3587 47.9845 27.3558 47.9887 27.3526 47.9925C27.3491 47.9968 27.3453 48.0007 27.3422 48.0053C27.3381 48.0115 27.3349 48.0183 27.3317 48.0249C27.3303 48.0277 27.3286 48.0301 27.3274 48.033C27.0634 48.6708 26.3299 48.9747 25.6921 48.7104C25.2533 48.5287 24.9116 48.187 24.7299 47.7481C24.5482 47.3095 24.5482 46.8263 24.7299 46.3874C24.9747 45.7961 25.6546 45.5139 26.2459 45.7594C26.6227 45.9155 26.8022 46.349 26.6461 46.7257C26.5997 46.8374 26.5129 46.9244 26.4011 46.9706C26.2896 47.0174 26.1664 47.0168 26.0546 46.9706C25.9726 46.937 25.8784 46.9755 25.8445 47.0576C25.8104 47.1396 25.8494 47.2336 25.9315 47.2677C26.1226 47.3469 26.3331 47.3467 26.5242 47.2679C26.7154 47.1887 26.8642 47.0398 26.9432 46.8487C27.1672 46.3081 26.9096 45.6862 26.369 45.4623C26.0036 45.3109 25.6006 45.3109 25.2348 45.4623C24.8691 45.6138 24.5843 45.8987 24.4327 46.2643C24.2181 46.7825 24.2181 47.3532 24.4327 47.8713C24.6473 48.3894 25.0509 48.793 25.569 49.0075C25.9439 49.1629 26.3327 49.2364 26.7154 49.2364C27.5756 49.2364 28.4038 48.8633 28.9758 48.2138C28.946 48.6676 29.0199 49.1257 29.1991 49.5583C29.5063 50.3001 30.0841 50.8777 30.8259 51.1851C31.0878 51.2936 31.3594 51.3449 31.6266 51.3449C32.4509 51.3449 33.2345 50.8565 33.5691 50.0488C33.7206 49.683 33.7206 49.2802 33.5691 48.9146C33.4177 48.5488 33.1328 48.2639 32.767 48.1125C32.5051 48.0038 32.2166 48.0038 31.9549 48.1125C31.6931 48.2209 31.4891 48.4249 31.3806 48.6867C31.3014 48.8778 31.3014 49.0883 31.3806 49.2794C31.4597 49.4705 31.6086 49.6194 31.7996 49.6984C31.8819 49.7322 31.9758 49.6935 32.0097 49.6114C32.0436 49.5293 32.0047 49.4352 31.9227 49.4012C31.8111 49.3551 31.7241 49.2681 31.6777 49.1563C31.6315 49.0446 31.6315 48.9215 31.6777 48.8098C31.834 48.4332 32.2677 48.254 32.6439 48.4096C32.9303 48.5282 33.1534 48.7512 33.2719 49.0377C33.3905 49.324 33.3905 49.6394 33.2719 49.9257C33.0902 50.3645 32.7485 50.7062 32.3097 50.8879C31.8711 51.0696 31.3879 51.0696 30.949 50.8879C30.3114 50.6238 30.0076 49.8903 30.2716 49.2527C30.2722 49.2513 30.2724 49.2498 30.2729 49.2484C30.2761 49.2399 30.2789 49.2313 30.2807 49.2224C30.2817 49.2176 30.2817 49.2128 30.2822 49.208C30.2828 49.2023 30.2838 49.1968 30.2838 49.1911C30.2838 49.1855 30.2828 49.1799 30.2822 49.1744C30.2817 49.1695 30.2817 49.1647 30.2807 49.1599C30.279 49.1513 30.2763 49.143 30.2732 49.1349C30.2725 49.1331 30.2723 49.1313 30.2716 49.1296C29.9567 48.3694 29.9566 47.5328 30.271 46.7736C30.5814 46.0243 31.1624 45.4389 31.9084 45.1211C32.6938 44.8524 33.564 44.8243 34.4009 45.086C34.071 45.322 33.8548 45.7073 33.8548 46.1429C33.8548 47.0789 34.6163 47.8405 35.5523 47.8405C36.3624 47.8405 37.073 47.4071 37.4648 46.7601V48.2651C37.2459 48.3336 37.0865 48.5383 37.0865 48.7795C37.0865 49.0173 37.2415 49.2192 37.4554 49.2907C37.3909 49.7915 36.9627 50.1801 36.4447 50.1801C36.0896 50.1801 35.8008 49.8913 35.8008 49.5362C35.8008 49.3224 35.9747 49.1486 36.1884 49.1486C36.3057 49.1486 36.4012 49.2441 36.4012 49.3615C36.4012 49.4131 36.3602 49.4556 36.2947 49.4427C36.2947 49.3539 36.2228 49.2819 36.1339 49.2819C36.045 49.2819 35.9731 49.3539 35.9731 49.4427C35.9731 49.627 36.123 49.7769 36.3074 49.7769C36.5364 49.7769 36.7228 49.5905 36.7228 49.3615C36.7228 49.0667 36.483 48.8269 36.1884 48.8269C35.7973 48.8269 35.4792 49.1451 35.4792 49.5362C35.4792 50.0686 35.9123 50.5017 36.4447 50.5017C36.9545 50.5017 37.3986 50.216 37.6256 49.7963C37.8526 50.216 38.2967 50.5017 38.8066 50.5017C39.339 50.5017 39.7721 50.0686 39.7721 49.5362C39.7721 49.1451 39.454 48.8269 39.0629 48.8269C38.7683 48.8269 38.5283 49.0667 38.5283 49.3615C38.5283 49.5905 38.7146 49.7769 38.9438 49.7769C39.1282 49.7769 39.2781 49.627 39.2781 49.4427C39.2781 49.3539 39.1998 49.2882 39.111 49.2882C39.0221 49.2882 38.9438 49.3664 38.9438 49.4553C38.892 49.4553 38.8499 49.4132 38.8499 49.3615C38.8499 49.2441 38.9454 49.1486 39.0629 49.1486C39.2765 49.1486 39.4505 49.3224 39.4505 49.5362C39.4505 49.8913 39.1615 50.1801 38.8066 50.1801C38.2884 50.1801 37.8602 49.7915 37.7957 49.2907C38.0097 49.2192 38.1646 49.0173 38.1646 48.7795C38.1646 48.5383 38.0053 48.3336 37.7864 48.2651V46.76C38.1782 47.4071 38.8889 47.8405 39.699 47.8405C40.635 47.8405 41.3967 47.0789 41.3967 46.1429C41.3967 45.7072 41.1803 45.3218 40.8502 45.0858C41.6858 44.824 42.5548 44.8518 43.3394 45.1196C44.0872 45.4371 44.6694 46.0232 44.9803 46.7736C45.2947 47.5328 45.2944 48.3694 44.9797 49.1296C44.9789 49.1313 44.9787 49.1331 44.9781 49.1349C44.975 49.143 44.9723 49.1513 44.9706 49.1599C44.9696 49.1647 44.9696 49.1695 44.9691 49.1744C44.9685 49.1799 44.9676 49.1855 44.9676 49.1911C44.9676 49.1968 44.9685 49.2023 44.9691 49.208C44.9696 49.2128 44.9697 49.2176 44.9706 49.2224C44.9724 49.2313 44.9752 49.2399 44.9784 49.2484C44.9789 49.2498 44.9791 49.2513 44.9797 49.2527C45.1078 49.5618 45.1078 49.9021 44.98 50.2107C44.8521 50.5193 44.6115 50.7599 44.3021 50.8879C43.8636 51.0698 43.3799 51.0698 42.9414 50.8879C42.5027 50.7062 42.1609 50.3645 41.9793 49.9257C41.7343 49.3345 42.0161 48.6545 42.6073 48.4096C42.9842 48.254 43.4173 48.4332 43.5734 48.8098C43.6196 48.9215 43.6196 49.0446 43.5734 49.1563C43.5272 49.2681 43.4402 49.3549 43.3284 49.4012C43.2464 49.4352 43.2075 49.5293 43.2414 49.6113C43.2756 49.6934 43.3696 49.7327 43.4516 49.6984C43.6425 49.6194 43.7914 49.4705 43.8706 49.2794C43.9497 49.0883 43.9497 48.8778 43.8706 48.6867C43.6469 48.1464 43.025 47.8887 42.4841 48.1125C41.7293 48.4252 41.3694 49.2939 41.6822 50.0488C41.8967 50.5669 42.3004 50.9704 42.8183 51.1851C43.0774 51.2923 43.3498 51.346 43.6218 51.346C43.8941 51.346 44.1662 51.2923 44.4253 51.1851C45.1672 50.8777 45.7448 50.3001 46.052 49.5583C46.2313 49.1258 46.3053 48.6677 46.2755 48.2139C46.8475 48.8634 47.6757 49.2364 48.5363 49.2364C48.9188 49.2364 49.3077 49.1629 49.6824 49.0075C50.2004 48.7928 50.604 48.3894 50.8185 47.8713C51.0334 47.3532 51.0331 46.7825 50.8185 46.2643C50.506 45.5095 49.6369 45.1497 48.8821 45.4623C48.3415 45.6863 48.0839 46.3083 48.3079 46.8487C48.3871 47.0398 48.5359 47.1887 48.7272 47.2679C48.9182 47.3467 49.1287 47.3466 49.3196 47.2677C49.4016 47.2336 49.4406 47.1396 49.4066 47.0576C49.3724 46.9755 49.2782 46.9373 49.1965 46.9706C49.085 47.0168 48.9622 47.017 48.8501 46.9706C48.7382 46.9244 48.6512 46.8374 48.605 46.7256C48.449 46.349 48.6286 45.9155 49.0052 45.7594C49.5964 45.5149 50.2764 45.7963 50.5214 46.3874C50.7033 46.8263 50.7033 47.3095 50.5214 47.7481C50.3398 48.187 49.9981 48.5287 49.5593 48.7104C48.921 48.9739 48.1879 48.6703 47.9238 48.033C47.9233 48.0318 47.9225 48.0308 47.9219 48.0296C47.9182 48.0211 47.9138 48.0127 47.9086 48.0049C47.9069 48.0024 47.9048 48.0003 47.9029 47.9979C47.8984 47.9919 47.8937 47.9858 47.8883 47.9804C47.8866 47.9788 47.8847 47.9776 47.883 47.9761C47.8769 47.9705 47.8707 47.9651 47.8637 47.9605C47.8635 47.9603 47.8635 47.9603 47.8635 47.9603C47.8551 47.9548 47.8463 47.9499 47.8368 47.946C46.2816 47.3018 45.5346 45.5215 46.1569 43.9625C46.2762 43.7179 46.4194 43.4845 46.5866 43.2675C46.503 43.1994 46.4215 43.1281 46.3415 43.0545C46.1047 43.3589 45.9065 43.6963 45.7549 44.0623C45.4656 44.7608 45.3664 45.5054 45.4548 46.2361C45.0007 45.6569 44.4041 45.2004 43.7056 44.9111C43.6173 44.8745 43.5279 44.8421 43.4382 44.8115C43.4378 44.8114 43.4375 44.8112 43.4371 44.8111C43.4359 44.8105 43.4346 44.8104 43.4334 44.8099C43.0161 44.6684 42.5857 44.5923 42.1542 44.5814C43.5901 44.2038 44.9559 43.6514 46.2272 42.9481C46.1481 42.8709 46.0719 42.7904 45.9974 42.7083C43.5089 44.0689 40.6561 44.8431 37.6256 44.8431C27.9714 44.8431 20.1171 36.9888 20.1171 27.3345C20.1171 20.7987 23.7176 15.0887 29.0386 12.0814C29.1634 11.8881 29.2904 11.6965 29.4208 11.5079C29.1464 11.6507 28.8762 11.8006 28.6104 11.9571C28.9155 11.6399 29.168 11.2798 29.3626 10.8914C29.3676 10.8835 29.3734 10.8764 29.3771 10.8675C29.38 10.8603 29.3825 10.853 29.3854 10.8458C29.745 10.1069 29.8948 9.26925 29.7946 8.43116C30.159 8.89641 30.6154 9.28259 31.1429 9.56647C31.1889 9.5239 31.2356 9.48396 31.282 9.44289C31.3356 9.39535 31.3888 9.34718 31.4434 9.30161C30.9212 8.9656 30.5134 8.48067 30.271 7.89545C29.9566 7.1364 29.9567 6.29981 30.2716 5.5397C30.2723 5.53801 30.2725 5.53627 30.2732 5.53458C30.2762 5.52638 30.279 5.51801 30.2807 5.50941C30.2817 5.50457 30.2817 5.49975 30.2822 5.49491C30.2828 5.4893 30.2838 5.48377 30.2838 5.47812C30.2838 5.47242 30.2828 5.46688 30.2822 5.46124C30.2817 5.45644 30.2817 5.45166 30.2807 5.44686C30.2789 5.43783 30.2761 5.4291 30.2728 5.42055C30.2723 5.41922 30.2721 5.41787 30.2716 5.41657C30.0076 4.77893 30.3114 4.0455 30.949 3.78133C31.3878 3.59944 31.8712 3.59944 32.3097 3.78133C32.7485 3.96304 33.0902 4.30479 33.2719 4.7436C33.3905 5.02989 33.3905 5.34526 33.2719 5.63156C33.1534 5.91801 32.9303 6.14104 32.6439 6.25962C32.4614 6.33531 32.2602 6.33531 32.078 6.25962C31.8955 6.18407 31.7534 6.04193 31.6777 5.85929C31.5822 5.62873 31.6921 5.36331 31.9227 5.26784C32.0048 5.23375 32.0438 5.13966 32.0097 5.05767C31.9758 4.97572 31.8814 4.93689 31.7996 4.97066C31.4052 5.13417 31.2172 5.58789 31.3806 5.9824C31.4891 6.24436 31.6929 6.4484 31.9549 6.55675C32.2166 6.66542 32.5051 6.66511 32.767 6.55675C33.1328 6.40534 33.4177 6.12045 33.5691 5.75468C33.7206 5.38906 33.7206 4.98625 33.5691 4.62047C33.2346 3.81266 32.4504 3.32424 31.6264 3.32423C31.3591 3.32423 31.0876 3.37562 30.8259 3.48418M29.4962 7.2883C29.2219 6.62601 29.2219 5.89636 29.4962 5.2339C29.5998 4.98384 29.7379 4.75476 29.9053 4.55157C29.8296 4.84853 29.8398 5.16893 29.9516 5.47546C29.5736 6.43776 29.6663 7.47425 30.1224 8.32484C29.8658 8.01704 29.654 7.6692 29.4962 7.2883ZM29.3778 8.26548C29.0387 7.44657 28.4068 6.80528 27.5956 6.4518C27.4621 6.16451 27.2496 5.92889 26.9814 5.76813C27.9347 5.86334 28.8076 6.46618 29.1991 7.41144C29.3552 7.78827 29.4515 8.17972 29.4888 8.57461C29.4569 8.47051 29.42 8.36735 29.3778 8.26548ZM24.7418 14.5708C24.7702 14.5642 24.7972 14.5503 24.8193 14.5282C24.8821 14.4654 24.8821 14.3636 24.8193 14.3008C24.458 13.9396 24.259 13.4591 24.259 12.9484C24.259 12.4375 24.458 11.9573 24.8193 11.5961C25.0792 11.3362 25.4247 11.1929 25.7922 11.1929C26.1597 11.1929 26.5052 11.3362 26.7651 11.5961C27.1464 11.9774 27.1464 12.5981 26.7651 12.9794C26.5069 13.2376 26.0568 13.2376 25.7986 12.9794C25.6174 12.7981 25.6174 12.5032 25.7986 12.322C25.8615 12.2591 25.8615 12.1574 25.7986 12.0946C25.7358 12.0317 25.634 12.0317 25.5712 12.0946C25.2645 12.4011 25.2645 12.9002 25.5712 13.2068C25.7927 13.4284 26.1104 13.5197 26.4122 13.4826C25.4483 14.2643 24.5676 15.1448 23.7849 16.1078C23.7894 16.0692 23.7923 16.0303 23.7923 15.9908C23.7923 15.7223 23.6877 15.4699 23.4978 15.2802C23.1912 14.9736 22.6921 14.9736 22.3856 15.2802C22.3228 15.343 22.3228 15.4448 22.3856 15.5076C22.4484 15.5704 22.5502 15.5704 22.613 15.5076C22.7942 15.3264 23.0892 15.3264 23.2704 15.5076C23.3995 15.6367 23.4707 15.8084 23.4707 15.9908C23.4707 16.1733 23.3995 16.345 23.2704 16.4741C22.8891 16.8554 22.2684 16.8554 21.8871 16.4741C21.6272 16.2142 21.4839 15.8687 21.4839 15.5012C21.4839 15.1337 21.6272 14.7882 21.8871 14.5282C22.2483 14.167 22.7286 13.968 23.2395 13.968C23.7502 13.968 24.2306 14.167 24.5918 14.5282C24.6154 14.5518 24.6444 14.5665 24.6749 14.5724C24.685 14.5744 24.6953 14.5753 24.7056 14.5753C24.7178 14.5753 24.7299 14.5735 24.7418 14.5708ZM22.308 12.3245C22.2234 12.2397 22.2234 12.1018 22.308 12.017C22.3504 11.9747 22.4061 11.9535 22.4618 11.9535C22.5175 11.9535 22.5731 11.9746 22.6155 12.017C22.6566 12.0581 22.6793 12.1128 22.6793 12.1707C22.6793 12.2288 22.6566 12.2833 22.6155 12.3245C22.5744 12.3656 22.518 12.3862 22.4616 12.3862C22.4054 12.3862 22.3491 12.3657 22.308 12.3245ZM17.7025 18.9081C16.757 18.5164 16.1541 17.6435 16.059 16.6902C16.2198 16.9585 16.4555 17.171 16.7428 17.3045C17.0963 18.1158 17.7376 18.7477 18.5565 19.0868C18.6584 19.129 18.7615 19.1658 18.8655 19.1978C18.4706 19.1604 18.0793 19.0641 17.7025 18.9081ZM21.14 19.0932C21.1461 19.0907 21.1524 19.0886 21.1585 19.086C21.1693 19.0816 21.1793 19.0759 21.1885 19.0695C21.5739 18.8757 21.9314 18.6246 22.2465 18.3218C21.4307 19.7083 20.7971 21.2141 20.3787 22.8064C20.3678 22.3744 20.2917 21.9437 20.1499 21.5261C20.1495 21.5251 20.1494 21.5241 20.149 21.5231C20.1489 21.5228 20.1488 21.5226 20.1487 21.5223C20.1181 21.4325 20.0856 21.3431 20.049 21.2546C19.7593 20.5552 19.3021 19.9579 18.7219 19.5036C18.8925 19.524 19.0631 19.5354 19.2329 19.5354C19.8983 19.5354 20.5506 19.3806 21.14 19.0932ZM15.5249 19.2052C16.1874 18.9307 16.9169 18.9307 17.5793 19.2052C17.9604 19.363 18.3087 19.5748 18.6168 19.8315C17.7661 19.3753 16.7292 19.2829 15.7668 19.6607C15.4602 19.5487 15.1399 19.5383 14.8431 19.6138C15.0462 19.4467 15.2751 19.3087 15.5249 19.2052ZM17.4413 29.4079C17.4413 28.3533 18.2993 27.4953 19.3539 27.4953C19.4428 27.4953 19.5147 27.4234 19.5147 27.3345C19.5147 27.2456 19.4428 27.1737 19.3539 27.1737C18.2993 27.1737 17.4413 26.3157 17.4413 25.2613C17.4413 24.5026 18.0585 23.8854 18.8172 23.8854C19.3567 23.8854 19.7955 24.3242 19.7955 24.8635C19.7955 25.2404 19.4889 25.547 19.112 25.547C18.8557 25.547 18.6471 25.3384 18.6471 25.0819C18.6471 24.9931 18.5752 24.9211 18.4863 24.9211C18.3974 24.9211 18.3255 24.9931 18.3255 25.0819C18.3255 25.5157 18.6784 25.8686 19.112 25.8686C19.4252 25.8686 19.7053 25.7245 19.8897 25.4992C19.8277 26.1027 19.7955 26.7149 19.7955 27.3345C19.7955 27.954 19.8274 28.5661 19.8894 29.1695C19.7049 28.9445 19.425 28.8006 19.112 28.8006C18.6784 28.8006 18.3255 29.1535 18.3255 29.5871C18.3255 29.676 18.3974 29.7479 18.4863 29.7479C18.5752 29.7479 18.6471 29.676 18.6471 29.5871C18.6471 29.3308 18.8557 29.1223 19.112 29.1223C19.4889 29.1223 19.7955 29.4288 19.7955 29.8057C19.7955 30.3451 19.3567 30.7838 18.8172 30.7838C18.0585 30.7838 17.4413 30.1666 17.4413 29.4079ZM15.9633 27.3345C15.9633 27.2147 16.0608 27.1171 16.1807 27.1171C16.3006 27.1171 16.3981 27.2147 16.3981 27.3345C16.3981 27.4545 16.3006 27.5521 16.1807 27.5521C16.0608 27.5521 15.9633 27.4545 15.9633 27.3345ZM20.1401 33.1655C20.1429 33.1589 20.1463 33.1527 20.149 33.1461C20.1541 33.1339 20.157 33.1214 20.1589 33.1089C20.2917 32.7063 20.3661 32.2838 20.3766 31.8546C20.7945 33.4484 21.4284 34.9554 22.2444 36.3433C21.9272 36.0384 21.5627 35.7822 21.1598 35.5837C21.1594 35.5835 21.159 35.5832 21.1585 35.583C21.1585 35.583 21.1583 35.5829 21.1581 35.5829C21.0729 35.5409 20.9865 35.5006 20.8978 35.4638C20.1984 35.1741 19.4527 35.0751 18.7211 35.1643C19.3852 34.6421 19.8719 33.9431 20.1401 33.1655ZM18.6158 34.837C18.3116 35.0913 17.9645 35.3044 17.5793 35.464C16.9169 35.7382 16.1874 35.7382 15.5249 35.464C15.2755 35.3606 15.0469 35.223 14.844 35.0562C14.9697 35.0881 15.0994 35.1056 15.2308 35.1056C15.4095 35.1056 15.5905 35.073 15.7669 35.0086C16.1725 35.1679 16.5913 35.2444 17.0039 35.2444C17.5701 35.2444 18.1238 35.1008 18.6158 34.837ZM16.2499 37.2137C16.5241 36.5514 17.04 36.0355 17.7025 35.7611C18.0795 35.6049 18.4711 35.5086 18.8661 35.4712C18.7619 35.5032 18.6586 35.54 18.5565 35.5823C17.7376 35.9215 17.0963 36.5534 16.7428 37.3647C16.4541 37.4987 16.2176 37.7126 16.0568 37.9826C16.0824 37.7216 16.1467 37.4629 16.2499 37.2137ZM21.8871 40.141C21.6272 39.8811 21.4839 39.5356 21.4839 39.1681C21.4839 38.8005 21.6272 38.455 21.8871 38.1951C22.2565 37.8254 22.901 37.8254 23.2704 38.1951C23.3995 38.3242 23.4707 38.4959 23.4707 38.6784C23.4707 38.8609 23.3995 39.0325 23.2704 39.1616C23.0892 39.3429 22.7942 39.3429 22.613 39.1616C22.5502 39.0988 22.4484 39.0988 22.3856 39.1616C22.3228 39.2244 22.3228 39.3262 22.3856 39.389C22.6827 39.6862 23.2007 39.6862 23.4978 39.389C23.6877 39.1993 23.7923 38.9469 23.7923 38.6784C23.7923 38.639 23.7894 38.6001 23.7849 38.5615C24.5641 39.5203 25.4406 40.3968 26.3994 41.1759C26.1044 41.1414 25.797 41.2363 25.5712 41.4623C25.2645 41.769 25.2645 42.268 25.5712 42.5747C25.634 42.6375 25.7358 42.6375 25.7986 42.5747C25.8615 42.5118 25.8615 42.4101 25.7986 42.3473C25.6174 42.166 25.6174 41.8709 25.7986 41.6897C26.065 41.4233 26.4988 41.4233 26.7651 41.6897C27.1466 42.0712 27.1466 42.6917 26.7651 43.0731C26.2286 43.6096 25.3557 43.6096 24.8193 43.0731C24.458 42.7119 24.259 42.2315 24.259 41.7208C24.259 41.2099 24.458 40.7296 24.8193 40.3684C24.8821 40.3056 24.8821 40.2038 24.8193 40.141C24.7564 40.0782 24.6547 40.0782 24.5918 40.141C24.2189 40.5138 23.7292 40.7001 23.2395 40.7001C22.7497 40.7001 22.26 40.5137 21.8871 40.141ZM22.308 42.6521C22.2234 42.5674 22.2234 42.4294 22.308 42.3446C22.3928 42.2595 22.5307 42.2598 22.6155 42.3446C22.6566 42.3857 22.6793 42.4404 22.6793 42.4983C22.6793 42.5565 22.6566 42.6109 22.6155 42.6521C22.5744 42.6932 22.5181 42.7138 22.4618 42.7138C22.4055 42.7138 22.3492 42.6932 22.308 42.6521ZM29.4962 44.0623C29.2858 43.5543 28.9866 43.1006 28.6167 42.7157C30.0022 43.5303 31.5064 44.1634 33.0971 44.5814C32.665 44.5923 32.2341 44.6685 31.8164 44.8104C31.8157 44.8107 31.8149 44.8108 31.8142 44.8111C31.814 44.8112 31.8137 44.8113 31.8135 44.8114C31.7236 44.842 31.6341 44.8745 31.5456 44.9111C30.8471 45.2005 30.2504 45.6569 29.7963 46.2361C29.8848 45.5054 29.7856 44.7608 29.4962 44.0623ZM39.4624 45.0694C39.2363 45.2538 39.0915 45.5343 39.0915 45.8481C39.0915 46.2819 39.4445 46.6348 39.8783 46.6348C39.9672 46.6348 40.0391 46.5628 40.0391 46.4739C40.0391 46.3851 39.9672 46.3131 39.8783 46.3131C39.6217 46.3131 39.4131 46.1045 39.4131 45.8481C39.4131 45.4713 39.7197 45.1648 40.0966 45.1648C40.6363 45.1648 41.075 45.6036 41.075 46.1429C41.075 46.9016 40.4579 47.5188 39.699 47.5188C38.6445 47.5188 37.7864 46.6608 37.7864 45.6064C37.7864 45.5175 37.7145 45.4456 37.6256 45.4456C37.5367 45.4456 37.4648 45.5175 37.4648 45.6064C37.4648 46.6608 36.6068 47.5188 35.5523 47.5188C34.7936 47.5188 34.1764 46.9016 34.1764 46.1429C34.1764 45.6036 34.6152 45.1648 35.1545 45.1648C35.5314 45.1648 35.838 45.4713 35.838 45.8481C35.838 46.1045 35.6294 46.3131 35.373 46.3131C35.2841 46.3131 35.2122 46.3851 35.2122 46.4739C35.2122 46.5628 35.2841 46.6348 35.373 46.6348C35.8067 46.6348 36.1596 46.2819 36.1596 45.8481C36.1596 45.5352 36.0158 45.2554 35.7908 45.0709C36.3941 45.1329 37.0062 45.1648 37.6256 45.1648C38.2458 45.1648 38.8583 45.1316 39.4624 45.0694ZM27.5967 48.217C28.5434 47.8038 29.2106 47.0062 29.4897 46.083C29.4532 46.4818 29.3568 46.8772 29.1992 47.2577C28.9248 47.9202 28.4089 48.4361 27.7465 48.7104C27.4969 48.8139 27.2377 48.8783 26.9762 48.9037C27.2396 48.7471 27.4591 48.5129 27.5967 48.217ZM46.0521 47.2577C45.8949 46.8782 45.8027 46.4881 45.7663 46.0991C46.0482 47.0155 46.7134 47.8062 47.6547 48.217C47.7915 48.5113 48.0094 48.7445 48.2709 48.9011C47.3172 48.8062 46.444 48.2034 46.0521 47.2577ZM29.4963 47.3808C29.6551 46.9976 29.8667 46.652 30.1192 46.3489C29.6656 47.1986 29.5745 48.2332 29.9518 49.1935C29.8405 49.4986 29.8297 49.8174 29.9042 50.1132C29.296 49.3716 29.1043 48.327 29.4963 47.3808ZM45.2998 49.1935C45.6234 48.3698 45.6168 47.4694 45.2775 46.6507C45.2362 46.5508 45.1902 46.4538 45.1404 46.3595C45.3891 46.6601 45.598 47.002 45.7549 47.3808C46.0295 48.0433 46.0295 48.7728 45.7549 49.4352C45.6518 49.6844 45.5143 49.9129 45.3478 50.1156C45.4251 49.8109 45.409 49.4924 45.2998 49.1935ZM37.4083 48.7795C37.4083 48.6597 37.5057 48.5622 37.6256 48.5622C37.7456 48.5622 37.843 48.6597 37.843 48.7795C37.843 48.8995 37.7456 48.997 37.6256 48.997C37.5057 48.997 37.4083 48.8995 37.4083 48.7795Z" fill="url(#paint6_linear_52_889)"/>
<path d="M42.8184 3.48418C42.3004 3.69886 41.8968 4.10232 41.6823 4.62045C41.3694 5.37538 41.7294 6.24405 42.4842 6.55674C43.0247 6.78053 43.647 6.52298 43.8706 5.98238C43.9498 5.79125 43.9498 5.58083 43.8706 5.38982C43.7915 5.19871 43.6426 5.0498 43.4516 4.97065C43.3696 4.93675 43.2757 4.97584 43.2415 5.05766C43.2076 5.13981 43.2465 5.23389 43.3285 5.26783C43.4403 5.31413 43.5273 5.40112 43.5735 5.51281C43.6196 5.62446 43.6196 5.74763 43.5735 5.85927C43.4978 6.04192 43.3558 6.18406 43.1733 6.2596C42.9911 6.33529 42.7901 6.33529 42.6073 6.2596C42.0162 6.01474 41.7344 5.33475 41.9794 4.7436C42.161 4.30478 42.5027 3.96303 42.9415 3.78131C43.38 3.59943 43.8637 3.59943 44.3022 3.78131C44.6116 3.90932 44.8522 4.14994 44.98 4.45852C45.1079 4.76712 45.1079 5.10746 44.9797 5.41655C44.9792 5.41786 44.979 5.41921 44.9785 5.42054C44.9753 5.42909 44.9724 5.43781 44.9706 5.44684C44.9697 5.45164 44.9696 5.45643 44.9691 5.46123C44.9685 5.46687 44.9676 5.4724 44.9676 5.47811C44.9676 5.48376 44.9685 5.48929 44.9691 5.4949C44.9696 5.49975 44.9697 5.50456 44.9706 5.5094C44.9724 5.518 44.9751 5.52637 44.9782 5.53457C44.9788 5.53626 44.979 5.538 44.9797 5.53969C45.2945 6.2998 45.2948 7.13639 44.9804 7.89544C44.7155 8.53481 44.2533 9.0545 43.66 9.39093C43.7006 9.45185 43.7405 9.51448 43.7806 9.57687C43.8052 9.6153 43.8301 9.65287 43.8547 9.69188C44.4889 9.40147 45.0334 8.97056 45.4548 8.43365C45.3665 9.16405 45.4657 9.90849 45.7549 10.6068C45.9663 11.117 46.2673 11.5726 46.6395 11.9586C46.0526 11.6133 45.4454 11.2989 44.8183 11.0213C44.9865 11.2175 45.1566 11.4123 45.3207 11.6106C50.3522 14.0829 54.0314 18.8999 54.9244 24.6275C55.0344 24.6354 55.1443 24.6436 55.2543 24.6523C55.263 24.653 55.2718 24.6537 55.2805 24.6543C55.3208 24.6575 55.3611 24.6601 55.4013 24.6634C55.4259 24.6653 55.4506 24.6669 55.4752 24.669C55.5657 24.2225 55.9611 23.8854 56.4341 23.8854C57.0766 23.8854 57.6162 24.3288 57.7667 24.9253C57.8794 24.9409 57.9924 24.9554 58.105 24.9718C57.967 24.1735 57.2713 23.5637 56.4341 23.5637C55.9981 23.5637 55.6127 23.78 55.3771 24.1104C55.1154 23.2748 55.143 22.4058 55.4105 21.6213C55.7282 20.8733 56.3141 20.2909 57.0648 19.98C57.8234 19.6655 58.6601 19.6658 59.4206 19.9806C59.4304 19.9846 59.4407 19.9877 59.4512 19.9898C59.4533 19.9902 59.4553 19.9901 59.4574 19.9904C59.4658 19.9917 59.4742 19.9928 59.4828 19.9927C59.4838 19.9927 59.4847 19.9925 59.4857 19.9925C59.5051 19.9921 59.5247 19.9885 59.5437 19.9806C60.1801 19.7166 60.9148 20.0198 61.179 20.658C61.554 21.5637 61.1224 22.6058 60.2165 22.9809C59.9301 23.0993 59.615 23.0996 59.3286 22.9809C59.0424 22.8623 58.8194 22.6393 58.7007 22.3528C58.5446 21.9762 58.7243 21.5428 59.1009 21.3866C59.3308 21.2907 59.5968 21.4013 59.6923 21.6316C59.7266 21.714 59.8211 21.7521 59.9025 21.7187C59.9844 21.6846 60.0234 21.5905 59.9895 21.5085C59.8258 21.114 59.3713 20.9265 58.9778 21.0895C58.4372 21.3137 58.1796 21.9356 58.4036 22.476C58.555 22.8417 58.8399 23.1266 59.2055 23.278C59.5711 23.4296 59.9741 23.4293 60.3397 23.278C61.4092 22.8351 61.919 21.6045 61.4761 20.5348C61.1689 19.7931 60.5913 19.2154 59.8494 18.9081C59.4172 18.7291 58.9597 18.6552 58.5063 18.6848C59.4442 17.8584 59.8031 16.4955 59.2987 15.278C58.8552 14.2086 57.6261 13.6977 56.5554 14.1417C56.1898 14.2933 55.9049 14.578 55.7535 14.9438C55.602 15.3095 55.602 15.7122 55.7535 16.0778C55.8618 16.3398 56.0657 16.5438 56.3276 16.6522C56.5896 16.7609 56.8779 16.7609 57.1399 16.6522C57.3309 16.573 57.4798 16.4243 57.5589 16.2332C57.6381 16.042 57.6381 15.8314 57.5589 15.6405C57.5247 15.5583 57.4301 15.52 57.3488 15.5534C57.2668 15.5875 57.2279 15.6816 57.2618 15.7636C57.308 15.8753 57.308 15.9982 57.2618 16.11C57.2153 16.2219 57.1286 16.3087 57.0168 16.3551C56.8337 16.4311 56.6326 16.4307 56.4508 16.3551C56.2683 16.2795 56.126 16.1374 56.0506 15.9548C55.8056 15.3637 56.0873 14.6837 56.6785 14.4388C57.5834 14.0635 58.6262 14.4952 59.0016 15.4011C59.2658 16.0386 58.9617 16.7722 58.3241 17.0363C58.3234 17.0366 58.3228 17.0371 58.3221 17.0374C58.3131 17.0413 58.3044 17.0459 58.2963 17.0513C58.2923 17.054 58.2889 17.0573 58.2853 17.0602C58.2808 17.0638 58.2761 17.0672 58.272 17.0713C58.2682 17.0751 58.2652 17.0794 58.2618 17.0835C58.2585 17.0875 58.2549 17.0912 58.252 17.0956C58.2486 17.1008 58.2461 17.1064 58.2433 17.1119C58.2413 17.1157 58.2388 17.1192 58.2371 17.1233C57.922 17.8834 57.3309 18.4752 56.5717 18.7896C55.8224 19.0999 54.9977 19.103 54.2459 18.8004C53.5003 18.4352 52.8648 17.8397 52.458 17.0627C52.529 17.0745 52.6006 17.0815 52.6724 17.0815C53.0054 17.0815 53.338 16.9548 53.5915 16.7015C53.9122 16.3809 54.0887 15.9545 54.0887 15.5012C54.0887 15.0477 53.9122 14.6213 53.5915 14.3008C53.1696 13.8788 52.6086 13.6464 52.0118 13.6464C51.8277 13.6464 51.6478 13.6711 51.4735 13.7141L52.541 12.6465C52.6172 12.6864 52.7013 12.7099 52.7896 12.7099C52.9334 12.7099 53.0688 12.6536 53.1706 12.5519C53.2724 12.4501 53.3286 12.3149 53.3286 12.1709C53.3286 12.086 53.3071 12.0052 53.2702 11.9314C53.6636 11.6336 54.2602 11.6605 54.6148 12.0154C54.7364 12.1371 54.8036 12.2987 54.8036 12.4707C54.8036 12.6426 54.7364 12.8043 54.6148 12.926C54.4634 13.0769 54.2181 13.0772 54.0667 12.926C53.9838 12.843 53.9838 12.7078 54.0667 12.6251C54.1028 12.5883 54.1628 12.5882 54.1996 12.643C54.1368 12.7058 54.1368 12.8076 54.1996 12.8704C54.2624 12.9332 54.3642 12.9332 54.427 12.8704C54.4901 12.8072 54.525 12.7232 54.525 12.634C54.525 12.5446 54.4901 12.4606 54.427 12.3973C54.2649 12.2356 54.0014 12.2361 53.8393 12.3975C53.6311 12.6059 53.6311 12.945 53.8393 13.1534C53.9775 13.2917 54.1591 13.3609 54.341 13.3609C54.5225 13.3609 54.704 13.2916 54.8422 13.1534C55.0247 12.9711 55.1252 12.7286 55.1252 12.4707C55.1252 12.2128 55.0247 11.9703 54.8422 11.788C54.5888 11.5345 54.2521 11.3949 53.8936 11.3949C53.7616 11.3949 53.6326 11.4141 53.5095 11.4507C53.5461 11.3277 53.5654 11.1987 53.5654 11.0666C53.5654 10.7081 53.4256 10.3712 53.1722 10.1179C52.8078 9.75323 52.1717 9.75323 51.8067 10.1179C51.6726 10.2519 51.5991 10.4299 51.5991 10.6193C51.5991 10.8089 51.6726 10.987 51.8067 11.1208C52.0156 11.3292 52.3546 11.3291 52.5628 11.1207C52.7246 10.9587 52.7246 10.6954 52.5628 10.5333C52.4321 10.4029 52.2204 10.4029 52.0898 10.5333C52.0269 10.5961 52.036 10.6979 52.0989 10.7607C52.1617 10.8235 52.2726 10.8235 52.3354 10.7607C52.3718 10.7973 52.3718 10.8568 52.3354 10.8934C52.2525 10.976 52.1171 10.9763 52.0342 10.8934C51.961 10.8202 51.9208 10.7228 51.9208 10.6193C51.9208 10.5159 51.961 10.4185 52.0342 10.3453C52.277 10.1023 52.7013 10.1017 52.9447 10.3453C53.1376 10.538 53.2438 10.7942 53.2438 11.0666C53.2438 11.2957 53.1679 11.5127 53.0294 11.6907C52.8281 11.5906 52.5768 11.6218 52.4083 11.7895C52.238 11.9599 52.2081 12.2158 52.3138 12.4189L51.2463 13.4864C51.2893 13.3122 51.3139 13.1324 51.3139 12.9484C51.3139 12.3516 51.0815 11.7905 50.6594 11.3686C50.339 11.048 49.9127 10.8712 49.4591 10.8712C49.0056 10.8712 48.5794 11.048 48.2587 11.3686C47.9506 11.6768 47.831 12.1024 47.8976 12.5026C47.1466 12.1106 46.5465 11.498 46.1687 10.7374C45.8565 9.97909 45.8573 9.14533 46.1705 8.38842C46.4849 7.62938 47.0767 7.0381 47.8368 6.72323C47.8456 6.71961 47.8535 6.71498 47.8613 6.71008C47.8622 6.70952 47.8631 6.70919 47.864 6.7086C47.876 6.7007 47.8862 6.69113 47.8954 6.68066C47.8975 6.67831 47.8993 6.6759 47.9013 6.67343C47.9102 6.66195 47.9181 6.64976 47.9237 6.63642C47.9237 6.63642 47.9238 6.63627 47.9238 6.63618C48.188 5.99826 48.9226 5.69515 49.5593 5.95883C49.9981 6.14053 50.3399 6.48229 50.5215 6.9211C50.7033 7.35975 50.7033 7.84299 50.5215 8.2818C50.2764 8.87294 49.597 9.155 49.0053 8.90969C48.8228 8.83411 48.6808 8.69202 48.6051 8.50953C48.5294 8.32704 48.5294 8.12599 48.6051 7.9435C48.7006 7.71294 48.9651 7.60285 49.1965 7.69851C49.2791 7.73242 49.3725 7.69331 49.4067 7.61152C49.4406 7.52935 49.4017 7.43527 49.3197 7.40137C48.9249 7.23786 48.4713 7.426 48.3079 7.82039C48.1996 8.08219 48.1996 8.37068 48.3079 8.63265C48.4163 8.89443 48.6205 9.09846 48.8821 9.20681C49.6372 9.51966 50.5057 9.15972 50.8186 8.40493C51.0331 7.8868 51.0334 7.31607 50.8186 6.79799C50.6041 6.27983 50.2004 5.87636 49.6825 5.66171C48.4651 5.15769 47.1022 5.51609 46.2756 6.45379C46.3052 6.00042 46.2312 5.54289 46.0521 5.11077C45.7449 4.369 45.1672 3.79137 44.4253 3.48418C44.1665 3.37699 43.8945 3.32338 43.6223 3.32338C43.3502 3.32338 43.0778 3.37699 42.8184 3.48418ZM45.2775 8.01857C45.6167 7.19967 45.6234 6.29952 45.2997 5.47582C45.409 5.17682 45.4251 4.85831 45.3478 4.55363C45.5143 4.75629 45.6518 4.98472 45.7549 5.2339C46.0295 5.89635 46.0295 6.62584 45.7549 7.28829C45.5976 7.66799 45.388 8.0102 45.1384 8.31103C45.1886 8.21609 45.2359 8.11908 45.2775 8.01857ZM46.0521 7.41143C46.4441 6.46528 47.3181 5.86244 48.2723 5.76803C48.0107 5.92454 47.7929 6.15749 47.6559 6.45167C46.8443 6.80513 46.2127 7.44646 45.8734 8.26547C45.8312 8.36737 45.7943 8.47063 45.7624 8.57478C45.7997 8.17981 45.896 7.78833 46.0521 7.41143ZM48.4861 12.9794C48.1047 12.5981 48.1047 11.9774 48.4861 11.5961C48.7461 11.3362 49.0916 11.1929 49.4591 11.1929C49.8267 11.1929 50.1722 11.3362 50.4319 11.5961C50.7931 11.9573 50.9923 12.4375 50.9923 12.9484C50.9923 13.4591 50.7931 13.9396 50.4319 14.3008C50.3691 14.3636 50.3691 14.4654 50.4319 14.5282C50.4558 14.5521 50.4854 14.5668 50.5162 14.5725C50.5259 14.5743 50.5358 14.5753 50.5456 14.5753C50.5589 14.5753 50.5722 14.5731 50.5852 14.5698C50.6123 14.5629 50.6381 14.5494 50.6594 14.5282C51.0205 14.167 51.5008 13.968 52.0118 13.968C52.5226 13.968 53.0029 14.167 53.364 14.5282C53.6242 14.7882 53.7671 15.1336 53.7671 15.5012C53.7671 15.8687 53.6242 16.2142 53.364 16.4741C52.9827 16.8554 52.3621 16.8554 51.9808 16.4741C51.8517 16.345 51.7804 16.1733 51.7804 15.9908C51.7804 15.8084 51.8517 15.6367 51.9808 15.5076C52.1623 15.3262 52.4566 15.3265 52.6382 15.5076C52.701 15.5704 52.8028 15.5704 52.8656 15.5076C52.9284 15.4448 52.9284 15.343 52.8656 15.2802C52.5597 14.9739 52.0606 14.9736 51.7533 15.2802C51.5633 15.4699 51.4587 15.7223 51.4587 15.9908C51.4587 16.0308 51.4618 16.0702 51.4663 16.1093C50.6826 15.145 49.8 14.2645 48.8346 13.482C49.1376 13.5206 49.4574 13.4295 49.6799 13.2068C49.8285 13.0582 49.9105 12.8608 49.9105 12.6507C49.9105 12.4405 49.8285 12.2431 49.6799 12.0945C49.6171 12.0317 49.5154 12.0317 49.4525 12.0945C49.3897 12.1574 49.3897 12.2591 49.4525 12.3219C49.6338 12.5032 49.6338 12.7981 49.4525 12.9794C49.3234 13.1085 49.1464 13.173 48.9693 13.173C48.7922 13.173 48.6152 13.1085 48.4861 12.9794ZM52.6357 12.3245C52.5509 12.2396 52.5509 12.1017 52.6357 12.0171C52.678 11.9747 52.7337 11.9535 52.7896 11.9535C52.8452 11.9535 52.9008 11.9747 52.9432 12.017C52.9843 12.0581 53.0069 12.1128 53.0069 12.1709C53.0069 12.2288 52.9843 12.2833 52.9432 12.3243V12.3245C52.9021 12.3656 52.8458 12.3861 52.7896 12.3861C52.7332 12.3861 52.6769 12.3655 52.6357 12.3245ZM58.5073 17.3049C58.8023 17.1678 59.0358 16.9496 59.1925 16.6873C59.0983 17.6418 58.4951 18.516 57.5489 18.9081C57.1656 19.0668 56.7715 19.1615 56.3785 19.1971C57.2997 18.9172 58.0949 18.2501 58.5073 17.3049ZM53.0045 18.3215C53.3197 18.6242 53.6771 18.8754 54.0625 19.0693C54.0719 19.0757 54.0819 19.0815 54.0928 19.086C54.0993 19.0887 54.1059 19.0909 54.1124 19.0936C54.7016 19.3806 55.3535 19.5352 56.0186 19.5352C56.1884 19.5352 56.359 19.5239 56.5297 19.5034C55.9493 19.9578 55.4919 20.5551 55.2022 21.2546C54.9941 21.7569 54.8851 22.2832 54.8724 22.8109C54.4539 21.217 53.8211 19.7092 53.0045 18.3215ZM57.672 19.2052C58.3342 18.9307 59.0641 18.9307 59.7262 19.2052C59.9755 19.3085 60.2041 19.446 60.4069 19.6126C60.1017 19.5351 59.7833 19.551 59.4843 19.6606C58.5235 19.2834 57.4889 19.3747 56.6393 19.8286C56.9426 19.5758 57.2885 19.364 57.672 19.2052Z" fill="url(#paint7_linear_52_889)"/>
<path d="M46.9347 13.9518C50.437 16.397 52.9371 20.1812 53.6893 24.5555C53.8386 24.5619 53.9879 24.5707 54.1373 24.5787C53.3311 19.7165 50.4215 15.5557 46.3782 13.065C46.5729 13.3558 46.7594 13.6509 46.9347 13.9518Z" fill="url(#paint8_linear_52_889)"/>
<path d="M20.8886 27.3251C20.8886 36.5539 28.3968 44.0621 37.6256 44.0621C40.4749 44.0621 43.1598 43.3457 45.5108 42.0846C45.4298 41.9627 45.3539 41.8381 45.2851 41.7108C43.0002 42.9322 40.3926 43.6259 37.6256 43.6259C28.6372 43.6259 21.3247 36.3135 21.3247 27.3251C21.3247 22.2169 23.6874 17.651 27.3766 14.66C27.63 14.2827 27.8635 13.8929 28.1475 13.539C23.7664 16.5604 20.8886 21.6125 20.8886 27.3251Z" fill="url(#paint9_linear_52_889)"/>
<path d="M33.1494 8.25602C30.5041 11.0799 27.2273 14.2483 25.6777 18.9181C24.1281 23.5878 25.926 29.057 29.3341 31.3614C32.7423 33.6658 36.5281 30.6995 35.0304 26.9984C33.5328 23.2973 30.6015 20.9197 30.6015 20.9197C33.7191 21.9159 35.7918 27.2031 35.7918 27.2031C37.0114 21.4731 31.3792 16.6711 31.3792 16.6711C34.6517 17.7796 35.7943 22.0929 35.7943 22.0929C35.9118 21.4332 36.0726 19.3374 36.0717 17.8022C36.0708 16.2671 33.3136 12.9185 33.3136 12.9185C35.4082 14.0151 36.3537 16.7132 36.3537 16.7132C37.1612 11.1391 39.0764 8.46997 39.0764 8.46997C37.6307 12.207 37.4889 14.4549 37.4889 14.4549C39.9451 12.2632 41.3623 12.1544 41.3623 12.1544C39.4687 13.104 37.5117 15.038 37.2477 15.9794C36.9837 16.9208 36.9771 19.5969 36.9771 19.5969C41.3831 15.3768 42.8762 15.8763 42.8762 15.8763C39.2192 17.4729 36.9104 20.9179 36.9104 20.9179C36.6333 22.7376 37.0232 24.7692 37.0232 24.7692C40.7377 19.9223 43.907 19.8764 43.907 19.8764C39.3342 21.9235 37.1382 25.9813 37.1382 25.9813C36.7401 30.0326 38.0367 33.9246 41.5176 33.7013C44.9986 33.4779 49.3138 28.6946 49.6343 22.584C49.9548 16.4734 45.4782 12.8693 42.5724 8.58541C39.6666 4.30154 41.705 -3.06597e-06 41.705 -3.06597e-06C40.4084 0.965799 35.7947 5.43214 33.1494 8.25602Z" fill="url(#paint10_radial_52_889)"/>
<path d="M50.1634 25.2503C49.1088 30.0177 45.8769 33.6614 42.8766 34.5689C43.8145 36.241 46.1565 36.5786 47.5616 34.7139C49.3932 32.2834 49.7973 29.4351 49.7973 29.4351C50.3691 31.8634 47.7265 35.2918 47.7265 35.2918C51.9498 33.8415 52.8791 28.2769 52.8791 28.2769C53.4382 30.8506 51.0674 33.2891 51.0674 33.2891C51.5446 33.1071 52.9774 32.3902 53.9804 31.7875C54.9834 31.1848 56.0904 28.0693 56.0904 28.0693C56.1953 29.8684 54.8027 31.5446 54.8027 31.5446C58.7626 29.8861 61.2582 30.0908 61.2582 30.0908C58.2488 30.6117 56.724 31.4007 56.724 31.4007C59.1198 32.1464 59.7467 33.03 59.7467 33.03C58.3834 32.1648 56.3518 31.6444 55.633 31.8411C54.9142 32.0377 53.1626 33.0831 53.1626 33.0831C57.6488 34.3075 57.9081 35.4792 57.9081 35.4792C55.4302 33.7154 52.273 33.5577 52.273 33.5577C50.9751 34.0903 49.8002 35.142 49.8002 35.142C54.4249 35.6686 55.698 37.7219 55.698 37.7219C52.5665 35.5362 49.0531 35.6926 49.0531 35.6926C46.2491 37.0214 44.214 39.3954 45.7253 41.5829C47.2366 43.7703 52.0555 44.7144 56.1749 42.5271C60.2943 40.3397 60.8939 36.0004 62.554 32.421C64.2141 28.8416 67.825 28.4866 67.825 28.4866C66.6851 28.018 61.9564 26.7545 59.0733 26.1332C57.0144 25.6896 54.7139 25.1046 52.2344 25.1045C51.5569 25.1045 50.8664 25.1482 50.1634 25.2503Z" fill="url(#paint11_radial_52_889)"/>
<path d="M33.462 34.2083C28.7738 35.0873 29.7505 38.0174 30.4342 39.3848C31.2017 40.5433 32.079 39.7738 33.2032 39.0043C34.6066 38.0438 36.3947 37.0832 38.8339 39.8732C38.8339 39.8732 38.233 34.1276 34.3005 34.127C34.0361 34.127 33.7573 34.1529 33.462 34.2083Z" fill="url(#paint12_linear_52_889)"/>
<path d="M39.7253 39.4952C39.3341 40.898 39.2948 42.3008 39.3223 42.2498C40.7613 39.571 41.839 39.7074 42.7294 39.8438C43.1485 39.9079 43.526 39.9721 43.8803 39.7429C44.9872 39.0267 45.2151 37.0081 42.3501 36.7477C42.2878 36.742 42.2269 36.7393 42.1671 36.7393C40.8335 36.7394 40.1096 38.1173 39.7253 39.4952Z" fill="url(#paint13_linear_52_889)"/>
<path d="M36.4654 40.9719C36.4654 41.5788 36.9574 42.0707 37.5642 42.0707C38.1711 42.0707 38.663 41.5788 38.663 40.9719C38.663 40.3651 38.1711 39.8731 37.5642 39.8731C36.9574 39.8731 36.4654 40.3651 36.4654 40.9719Z" fill="url(#paint14_linear_52_889)"/>
<path d="M0.644943 68.9052V64.2931H1.57755V66.1841H2.24631V64.2931H3.18412V68.9052H2.24631V66.8477H1.57755V68.9052H0.644943Z" fill="#EE3338"/>
<path d="M5.54377 67.5984V65.605C5.54377 65.1507 5.40458 64.9235 5.12614 64.9235C5.04243 64.9235 4.97153 64.9445 4.9135 64.9862C4.85539 65.0281 4.81263 65.0854 4.7854 65.158C4.75802 65.2306 4.73878 65.3023 4.72769 65.3732C4.71658 65.4441 4.71108 65.5214 4.71108 65.605V67.5984C4.71108 68.0512 4.84942 68.2774 5.12614 68.2774C5.40458 68.2774 5.54377 68.0512 5.54377 67.5984ZM3.77839 67.3883V65.8382C3.77839 64.7484 4.22767 64.2034 5.12614 64.2034C6.02633 64.2034 6.47646 64.7484 6.47646 65.8382V67.3654C6.47646 67.5499 6.46273 67.7202 6.43543 67.8765C6.40811 68.0327 6.36157 68.1809 6.29585 68.321C6.23007 68.4611 6.14635 68.5803 6.04472 68.6785C5.94309 68.7767 5.81453 68.854 5.65906 68.9103C5.50367 68.9667 5.32599 68.9949 5.12614 68.9949C4.92801 68.9949 4.7512 68.9671 4.5958 68.9116C4.44032 68.8562 4.31223 68.7809 4.21146 68.6861C4.11059 68.5913 4.02735 68.4753 3.96165 68.3376C3.89585 68.2002 3.84884 68.0537 3.82068 67.8982C3.79251 67.7429 3.77839 67.5728 3.77839 67.3883Z" fill="#EE3338"/>
<path d="M7.05036 67.1911V64.2931H7.98297V67.1629C7.98297 67.3269 7.98382 67.4461 7.98554 67.5204C7.98724 67.5947 7.99151 67.6852 7.99833 67.7919C8.00517 67.8987 8.01711 67.9735 8.03426 68.0161C8.05132 68.0588 8.07475 68.1049 8.1047 68.1545C8.13457 68.204 8.17344 68.2365 8.22131 68.2518C8.2691 68.2672 8.32721 68.2749 8.39548 68.2749C8.46383 68.2749 8.52194 68.2672 8.56974 68.2518C8.61751 68.2365 8.65638 68.2045 8.68633 68.1558C8.71621 68.1071 8.73971 68.0614 8.75678 68.0186C8.77384 67.9759 8.7858 67.9021 8.79262 67.797C8.79945 67.692 8.80372 67.6032 8.8055 67.5306C8.80713 67.458 8.80806 67.3405 8.80806 67.1782V67.1629V64.2931H9.74068V67.1911C9.74068 67.3381 9.73641 67.4712 9.72788 67.5908C9.71934 67.7103 9.70313 67.8343 9.67923 67.9623C9.65526 68.0904 9.62282 68.2036 9.58187 68.3018C9.54083 68.4 9.48614 68.494 9.41785 68.5837C9.3495 68.6734 9.26882 68.7473 9.17573 68.8053C9.08263 68.8633 8.97029 68.9094 8.83879 68.9437C8.70721 68.9778 8.55948 68.9949 8.39548 68.9949C8.23155 68.9949 8.08376 68.9778 7.95225 68.9437C7.82067 68.9094 7.7088 68.8633 7.61655 68.8053C7.52431 68.7473 7.44401 68.6734 7.37574 68.5837C7.30739 68.494 7.25277 68.4 7.21173 68.3018C7.17077 68.2036 7.13787 68.0904 7.11313 67.9623C7.0883 67.8343 7.07169 67.7103 7.06317 67.5908C7.05455 67.4712 7.05036 67.3381 7.05036 67.1911Z" fill="#EE3338"/>
<path d="M10.2146 67.5857L11.1601 67.4037C11.1601 67.4977 11.1618 67.5806 11.1652 67.6522C11.1686 67.7239 11.1775 67.8021 11.1921 67.8867C11.2066 67.9713 11.2263 68.0405 11.251 68.0943C11.2758 68.148 11.3108 68.1933 11.3561 68.2301C11.4014 68.2668 11.4547 68.2852 11.5163 68.2852C11.7007 68.2852 11.7929 68.1672 11.7929 67.9315C11.7929 67.6086 11.6111 67.2876 11.2472 66.9681L10.9577 66.7222C10.8654 66.6452 10.792 66.5813 10.7373 66.5299C10.6826 66.4787 10.6182 66.4095 10.5438 66.3225C10.4695 66.2353 10.4115 66.1512 10.3696 66.07C10.3277 65.9889 10.2919 65.8911 10.262 65.7766C10.2321 65.6623 10.2172 65.5409 10.2172 65.4129C10.2172 65.0388 10.3359 64.7428 10.5733 64.5251C10.8107 64.3072 11.1259 64.1983 11.5188 64.1983C11.8451 64.1983 12.1226 64.3145 12.3515 64.5468C12.5804 64.7791 12.6949 65.0593 12.6949 65.3872L12.6923 65.4205V65.4975L11.7289 65.6306C11.7289 65.6118 11.7302 65.5824 11.7327 65.5423C11.7353 65.5021 11.7366 65.4692 11.7366 65.4436C11.7366 65.382 11.7323 65.3232 11.7238 65.2668C11.7152 65.2104 11.7011 65.1541 11.6815 65.0976C11.6618 65.0413 11.6315 64.9964 11.5905 64.9632C11.5496 64.9299 11.5 64.9133 11.4419 64.9133C11.3395 64.9133 11.2626 64.9533 11.2113 65.0337C11.1601 65.1139 11.1345 65.2087 11.1345 65.3181C11.1345 65.4137 11.1494 65.5034 11.1793 65.587C11.2092 65.6708 11.2544 65.749 11.3151 65.8215C11.3757 65.8941 11.4317 65.9544 11.4829 66.0022C11.5342 66.05 11.6025 66.1085 11.6879 66.1777C11.7733 66.2469 11.834 66.2977 11.8698 66.3301C12.0013 66.4463 12.1123 66.5552 12.203 66.6569C12.2934 66.7585 12.3788 66.8733 12.4591 67.0015C12.5394 67.1295 12.5996 67.2679 12.6398 67.4165C12.6799 67.5652 12.7 67.7258 12.7 67.8982C12.7 68.2211 12.5846 68.4855 12.3541 68.6912C12.1235 68.8971 11.8434 69 11.5137 69C11.3001 69 11.1105 68.9607 10.9449 68.8821C10.7792 68.8036 10.6455 68.6968 10.5438 68.5618C10.4422 68.427 10.3641 68.2774 10.3094 68.1134C10.2547 67.9495 10.2231 67.7736 10.2146 67.5857Z" fill="#EE3338"/>
<path d="M13.1765 68.9052V64.2931H15.1007V64.9338H14.1091V66.1892H14.8112V66.8451H14.1091V68.2647H15.1007V68.9052H13.1765Z" fill="#EE3338"/>
<path d="M18.4007 67.5984V65.605C18.4007 65.1507 18.2615 64.9235 17.983 64.9235C17.8993 64.9235 17.8284 64.9445 17.7704 64.9862C17.7123 65.0281 17.6695 65.0854 17.6423 65.158C17.6149 65.2306 17.5957 65.3023 17.5846 65.3732C17.5735 65.4441 17.568 65.5214 17.568 65.605V67.5984C17.568 68.0512 17.7063 68.2774 17.983 68.2774C18.2615 68.2774 18.4007 68.0512 18.4007 67.5984ZM16.6353 67.3883V65.8382C16.6353 64.7484 17.0846 64.2034 17.983 64.2034C18.8832 64.2034 19.3334 64.7484 19.3334 65.8382V67.3654C19.3334 67.5499 19.3196 67.7202 19.2923 67.8765C19.265 68.0327 19.2185 68.1809 19.1527 68.321C19.087 68.4611 19.0033 68.5803 18.9016 68.6785C18.8 68.7767 18.6714 68.854 18.516 68.9103C18.3606 68.9667 18.1829 68.9949 17.983 68.9949C17.7849 68.9949 17.6081 68.9671 17.4527 68.9116C17.2972 68.8562 17.1691 68.7809 17.0684 68.6861C16.9675 68.5913 16.8842 68.4753 16.8185 68.3376C16.7527 68.2002 16.7057 68.0537 16.6776 67.8982C16.6494 67.7429 16.6353 67.5728 16.6353 67.3883Z" fill="#EE3338"/>
<path d="M19.9277 68.9052V64.2931H21.852V64.9338H20.8603V66.1892H21.5624V66.8451H20.8603V68.9052H19.9277Z" fill="#EE3338"/>
<path d="M23.8195 68.9052V64.9901H23.1431V64.2931H25.4158V64.9901H24.7522V68.9052H23.8195Z" fill="#EE3338"/>
<path d="M26.7634 66.2123H27.0299C27.1017 66.2123 27.1631 66.1885 27.2144 66.1405C27.2657 66.0927 27.3028 66.032 27.3259 65.9587C27.3489 65.8853 27.3651 65.8178 27.3745 65.7562C27.3839 65.6947 27.3886 65.6367 27.3886 65.5819C27.3886 65.5273 27.3848 65.471 27.3771 65.4129C27.3694 65.3547 27.3557 65.2904 27.3361 65.2194C27.3164 65.1485 27.284 65.0905 27.2387 65.0452C27.1934 64.9999 27.1384 64.9772 27.0735 64.9772H26.7634V66.2123ZM25.8308 68.9052V64.2931H26.8454C27.0761 64.2931 27.2789 64.315 27.454 64.3584C27.6291 64.402 27.7823 64.4705 27.9139 64.5634C28.0454 64.6567 28.1453 64.7822 28.2136 64.9402C28.282 65.0981 28.3161 65.2873 28.3161 65.5078C28.3161 65.6033 28.3127 65.6888 28.3059 65.7639C28.2991 65.839 28.2832 65.925 28.2585 66.0213C28.2337 66.118 28.2 66.2033 28.1573 66.2777C28.1146 66.352 28.053 66.4249 27.9728 66.4968C27.8925 66.5684 27.7977 66.6282 27.6884 66.6761C27.9652 67.554 28.206 68.2971 28.4109 68.9052H27.445L26.9172 66.7812H26.7634V68.9052H25.8308Z" fill="#EE3338"/>
<path d="M29.7278 67.3447H30.2044L29.9713 65.6333L29.7278 67.3447ZM28.5594 68.9052L29.5561 64.2931H30.3812L31.3754 68.9052H30.4555L30.2659 67.9187H29.6638L29.4845 68.9052H28.5594Z" fill="#EE3338"/>
<path d="M32.7461 68.2518C32.8348 68.2518 32.9049 68.2506 32.9562 68.2479C33.0074 68.2455 33.0586 68.2391 33.1099 68.2289C33.1611 68.2185 33.1987 68.2045 33.2227 68.1865C33.2466 68.1685 33.2687 68.1426 33.2892 68.1083C33.3098 68.0742 33.323 68.0337 33.329 67.9867C33.3349 67.9396 33.338 67.8811 33.338 67.8112V65.3284C33.338 65.1763 33.2926 65.0756 33.2021 65.026C33.1116 64.9765 32.9596 64.9509 32.7461 64.9492V68.2518ZM31.7775 68.9052V64.2931H32.741C33.0484 64.2931 33.3016 64.3209 33.5006 64.3764C33.6996 64.432 33.8559 64.5234 33.9695 64.6506C34.0831 64.7779 34.1617 64.9304 34.2052 65.108C34.2488 65.2857 34.2706 65.5119 34.2706 65.787V67.2987C34.2706 67.4627 34.2654 67.6057 34.2552 67.7278C34.245 67.85 34.2257 67.9696 34.1976 68.0866C34.1694 68.2036 34.1309 68.3027 34.0823 68.3839C34.0335 68.465 33.9708 68.5406 33.894 68.6106C33.8171 68.6807 33.7244 68.7361 33.6159 68.7771C33.5075 68.8182 33.3802 68.8497 33.2341 68.8719C33.0881 68.8942 32.9203 68.9052 32.7307 68.9052H31.7775Z" fill="#EE3338"/>
<path d="M34.865 64.2931H35.7976V68.9052H34.865V64.2931Z" fill="#EE3338"/>
<path d="M36.8891 68.9052V64.9901H36.2126V64.2931H38.4854V64.9901H37.8217V68.9052H36.8891Z" fill="#EE3338"/>
<path d="M38.9003 64.2931H39.8329V68.9052H38.9003V64.2931Z" fill="#EE3338"/>
<path d="M42.1928 67.5984V65.605C42.1928 65.1507 42.0535 64.9235 41.7751 64.9235C41.6913 64.9235 41.6206 64.9445 41.5622 64.9862C41.5042 65.0281 41.4617 65.0854 41.4344 65.158C41.4071 65.2306 41.3878 65.3023 41.3767 65.3732C41.3655 65.4441 41.3599 65.5214 41.3599 65.605V67.5984C41.3599 68.0512 41.4983 68.2774 41.7751 68.2774C42.0535 68.2774 42.1928 68.0512 42.1928 67.5984ZM40.4273 67.3883V65.8382C40.4273 64.7484 40.8764 64.2034 41.7751 64.2034C42.6754 64.2034 43.1254 64.7484 43.1254 65.8382V67.3654C43.1254 67.5499 43.1117 67.7202 43.0844 67.8765C43.0571 68.0327 43.0105 68.1809 42.9447 68.321C42.879 68.4611 42.7952 68.5803 42.6937 68.6785C42.5919 68.7767 42.4634 68.854 42.308 68.9103C42.1525 68.9667 41.975 68.9949 41.7751 68.9949C41.5768 68.9949 41.3999 68.9671 41.2448 68.9116C41.0893 68.8562 40.9611 68.7809 40.8603 68.6861C40.7595 68.5913 40.6763 68.4753 40.6105 68.3376C40.5447 68.2002 40.4977 68.0537 40.4696 67.8982C40.4414 67.7429 40.4273 67.5728 40.4273 67.3883Z" fill="#EE3338"/>
<path d="M43.7198 68.9052V64.2906H44.391L45.4032 66.7042V64.2906H46.177V68.9052H45.5313L44.5218 66.3455V68.9052H43.7198Z" fill="#EE3338"/>
<path d="M47.7475 67.3447H48.2241L47.9908 65.6333L47.7475 67.3447ZM46.5791 68.9052L47.5758 64.2931H48.4008L49.3951 68.9052H48.4751L48.2855 67.9187H47.6835L47.5041 68.9052H46.5791Z" fill="#EE3338"/>
<path d="M49.7971 68.9052V64.2931H50.7298V68.2647H51.6469V68.9052H49.7971Z" fill="#EE3338"/>
<path d="M53.0458 67.5857L53.9912 67.4037C53.9912 67.4977 53.9929 67.5806 53.9963 67.6522C53.9997 67.7239 54.0087 67.8021 54.0233 67.8867C54.0378 67.9713 54.0575 68.0405 54.0823 68.0943C54.107 68.148 54.142 68.1933 54.1873 68.2301C54.2325 68.2668 54.2859 68.2852 54.3475 68.2852C54.532 68.2852 54.6241 68.1672 54.6241 67.9315C54.6241 67.6086 54.4423 67.2876 54.0784 66.9681L53.7889 66.7222C53.6966 66.6452 53.6232 66.5813 53.5685 66.5299C53.5138 66.4787 53.4494 66.4095 53.3751 66.3225C53.3007 66.2353 53.2427 66.1512 53.2008 66.07C53.1589 65.9889 53.1231 65.8911 53.0933 65.7766C53.0633 65.6623 53.0484 65.5409 53.0484 65.4129C53.0484 65.0388 53.1671 64.7428 53.4045 64.5251C53.6419 64.3072 53.9571 64.1983 54.35 64.1983C54.6763 64.1983 54.9538 64.3145 55.1827 64.5468C55.4116 64.7791 55.5261 65.0593 55.5261 65.3872L55.5235 65.4205V65.4975L54.56 65.6306C54.56 65.6118 54.5614 65.5824 54.5639 65.5423C54.5666 65.5021 54.5678 65.4692 54.5678 65.4436C54.5678 65.382 54.5635 65.3232 54.5549 65.2668C54.5464 65.2104 54.5323 65.1541 54.5127 65.0976C54.493 65.0413 54.4628 64.9964 54.4218 64.9632C54.3807 64.9299 54.3312 64.9133 54.2731 64.9133C54.1706 64.9133 54.0938 64.9533 54.0426 65.0337C53.9912 65.1139 53.9656 65.2087 53.9656 65.3181C53.9656 65.4137 53.9807 65.5034 54.0105 65.587C54.0404 65.6708 54.0857 65.749 54.1462 65.8215C54.2069 65.8941 54.2629 65.9544 54.3141 66.0022C54.3653 66.05 54.4337 66.1085 54.5191 66.1777C54.6044 66.2469 54.6651 66.2977 54.7011 66.3301C54.8325 66.4463 54.9436 66.5552 55.0341 66.6569C55.1247 66.7585 55.21 66.8733 55.2904 67.0015C55.3706 67.1295 55.4308 67.2679 55.471 67.4165C55.511 67.5652 55.5312 67.7258 55.5312 67.8982C55.5312 68.2211 55.4159 68.4855 55.1853 68.6912C54.9546 68.8971 54.6746 69 54.3448 69C54.1313 69 53.9417 68.9607 53.776 68.8821C53.6103 68.8036 53.4767 68.6968 53.3751 68.5618C53.2734 68.427 53.1952 68.2774 53.1406 68.1134C53.086 67.9495 53.0543 67.7736 53.0458 67.5857Z" fill="#EE3338"/>
<path d="M56.4459 68.9052V64.9901H55.7693V64.2931H58.042V64.9901H57.3784V68.9052H56.4459Z" fill="#EE3338"/>
<path d="M59.3898 66.2123H59.6562C59.7279 66.2123 59.7895 66.1885 59.8407 66.1405C59.8919 66.0927 59.9292 66.032 59.9521 65.9587C59.9752 65.8853 59.9914 65.8178 60.0009 65.7562C60.0102 65.6947 60.015 65.6367 60.015 65.5819C60.015 65.5273 60.0111 65.471 60.0035 65.4129C59.9957 65.3547 59.9821 65.2904 59.9624 65.2194C59.9428 65.1485 59.9102 65.0905 59.8651 65.0452C59.8198 64.9999 59.7647 64.9772 59.6998 64.9772H59.3898V66.2123ZM58.4571 68.9052V64.2931H59.4717C59.7023 64.2931 59.9051 64.315 60.0803 64.3584C60.2553 64.402 60.4086 64.4705 60.5402 64.5634C60.6718 64.6567 60.7717 64.7822 60.84 64.9402C60.9083 65.0981 60.9425 65.2873 60.9425 65.5078C60.9425 65.6033 60.939 65.6888 60.9323 65.7639C60.9253 65.839 60.9096 65.925 60.8848 66.0213C60.86 66.118 60.8263 66.2033 60.7837 66.2777C60.741 66.352 60.6794 66.4249 60.5992 66.4968C60.5188 66.5684 60.424 66.6282 60.3148 66.6761C60.5914 67.554 60.8324 68.2971 61.0374 68.9052H60.0713L59.5434 66.7812H59.3898V68.9052H58.4571Z" fill="#EE3338"/>
<path d="M61.4369 68.9052V64.2931H63.3611V64.9338H62.3696V66.1892H63.0715V66.8451H62.3696V68.2647H63.3611V68.9052H61.4369Z" fill="#EE3338"/>
<path d="M63.7993 68.9052V64.2931H65.7235V64.9338H64.7319V66.1892H65.4339V66.8451H64.7319V68.2647H65.7235V68.9052H63.7993Z" fill="#EE3338"/>
<path d="M66.5997 68.9052V64.9901H65.9232V64.2931H68.1959V64.9901H67.5322V68.9052H66.5997Z" fill="#EE3338"/>
<path d="M69.7664 68.9052V64.2931H71.6906V64.9338H70.6991V66.1892H71.4011V66.8451H70.6991V68.9052H69.7664Z" fill="#EE3338"/>
<path d="M80.1147 68.2518C80.2035 68.2518 80.2736 68.2506 80.3248 68.2479C80.376 68.2455 80.4272 68.2391 80.4786 68.2289C80.5298 68.2185 80.5673 68.2045 80.5912 68.1865C80.6151 68.1685 80.6375 68.1426 80.6579 68.1083C80.6784 68.0742 80.6916 68.0337 80.6977 67.9867C80.7036 67.9396 80.7065 67.8811 80.7065 67.8112V65.3284C80.7065 65.1763 80.6614 65.0756 80.5707 65.026C80.4803 64.9765 80.3282 64.9509 80.1147 64.9492V68.2518ZM79.1462 68.9052V64.2931H80.1096C80.417 64.2931 80.6702 64.3209 80.8693 64.3764C81.0682 64.432 81.2246 64.5234 81.3382 64.6506C81.4518 64.7779 81.5303 64.9304 81.5739 65.108C81.6175 65.2857 81.6392 65.5119 81.6392 65.787V67.2987C81.6392 67.4627 81.6341 67.6057 81.6238 67.7278C81.6136 67.85 81.5944 67.9696 81.5663 68.0866C81.538 68.2036 81.4995 68.3027 81.4508 68.3839C81.4023 68.465 81.3394 68.5406 81.2626 68.6106C81.1857 68.6807 81.093 68.7361 80.9846 68.7771C80.8761 68.8182 80.7489 68.8497 80.6029 68.8719C80.4567 68.8942 80.289 68.9052 80.0993 68.9052H79.1462Z" fill="#EE3338"/>
<path d="M74.1312 67.5984V65.605C74.1312 65.1507 73.9918 64.9235 73.7135 64.9235C73.6297 64.9235 73.5589 64.9445 73.5006 64.9862C73.4425 65.0281 73.4 65.0854 73.3727 65.158C73.3454 65.2306 73.3262 65.3023 73.315 65.3732C73.3038 65.4441 73.2983 65.5214 73.2983 65.605V67.5984C73.2983 68.0512 73.4367 68.2774 73.7135 68.2774C73.9918 68.2774 74.1312 68.0512 74.1312 67.5984ZM72.3656 67.3883V65.8382C72.3656 64.7484 72.8148 64.2034 73.7135 64.2034C74.6137 64.2034 75.0637 64.7484 75.0637 65.8382V67.3654C75.0637 67.5499 75.0501 67.7202 75.0227 67.8765C74.9954 68.0327 74.9489 68.1809 74.8831 68.321C74.8173 68.4611 74.7335 68.5803 74.632 68.6785C74.5303 68.7767 74.4018 68.854 74.2463 68.9103C74.0908 68.9667 73.9133 68.9949 73.7135 68.9949C73.5152 68.9949 73.3383 68.9671 73.1831 68.9116C73.0276 68.8562 72.8995 68.7809 72.7986 68.6861C72.6978 68.5913 72.6146 68.4753 72.5489 68.3376C72.4831 68.2002 72.4361 68.0537 72.4079 67.8982C72.3798 67.7429 72.3656 67.5728 72.3656 67.3883Z" fill="#EE3338"/>
<path d="M77.4847 67.5984V65.605C77.4847 65.1507 77.3454 64.9235 77.067 64.9235C76.9832 64.9235 76.9125 64.9445 76.8541 64.9862C76.7961 65.0281 76.7536 65.0854 76.7263 65.158C76.699 65.2306 76.6797 65.3023 76.6686 65.3732C76.6574 65.4441 76.6518 65.5214 76.6518 65.605V67.5984C76.6518 68.0512 76.7902 68.2774 77.067 68.2774C77.3454 68.2774 77.4847 68.0512 77.4847 67.5984ZM75.7192 67.3883V65.8382C75.7192 64.7484 76.1683 64.2034 77.067 64.2034C77.9673 64.2034 78.4173 64.7484 78.4173 65.8382V67.3654C78.4173 67.5499 78.4036 67.7202 78.3763 67.8765C78.349 68.0327 78.3024 68.1809 78.2366 68.321C78.1709 68.4611 78.0871 68.5803 77.9856 68.6785C77.8838 68.7767 77.7553 68.854 77.5999 68.9103C77.4444 68.9667 77.2669 68.9949 77.067 68.9949C76.8687 68.9949 76.6918 68.9671 76.5367 68.9116C76.3812 68.8562 76.253 68.7809 76.1522 68.6861C76.0514 68.5913 75.9681 68.4753 75.9024 68.3376C75.8366 68.2002 75.7896 68.0537 75.7615 67.8982C75.7333 67.7429 75.7192 67.5728 75.7192 67.3883Z" fill="#EE3338"/>
<path d="M46.8227 49.703C46.7296 50.1635 46.5534 50.604 46.289 50.9862H55.502V53.0927L52.2495 58.978C51.9481 59.5167 51.6863 59.7859 51.4642 59.7859C51.0624 59.6863 50.8615 59.0731 50.8615 57.947C50.8615 57.6688 50.8917 57.2517 50.9523 56.6959C51.013 56.1399 51.0435 55.7228 51.0435 55.4449C51.0435 53.3634 50.0773 52.3334 48.1456 52.3547C47.7963 52.3547 47.5113 52.3798 47.2904 52.4296C46.8411 52.5223 46.3815 52.7682 45.9111 53.1674L47.2904 54.4183C47.6467 54.0051 47.8784 53.752 47.9854 53.6592C48.2777 53.4027 48.5804 53.2743 48.8942 53.2743C49.3146 53.2743 49.5251 53.3991 49.5251 53.6486C49.5251 53.784 49.4253 53.9872 49.2258 54.258C48.7836 54.8498 48.5626 55.4876 48.5626 56.1719C48.5626 57.5122 49.1259 58.7311 50.252 59.8288C51.2785 60.8339 52.1087 61.3364 52.7433 61.3364L56.5393 54.6643C57.0097 53.8375 57.3091 53.2957 57.4374 53.0391V50.9862H58.528L58.5495 49.703H46.8227Z" fill="url(#paint15_linear_52_889)"/>
<path d="M58.5921 43.9719V44.2178C58.8985 44.8952 59.1053 45.3977 59.2123 45.7254C59.3262 45.918 59.6273 46.0944 60.1158 46.2548C60.6039 46.4152 60.9908 46.7199 61.2758 47.169L61.9707 48.591C62.0562 48.6196 62.1561 48.6337 62.2701 48.6337C62.4056 48.6337 62.4877 48.6196 62.5162 48.591C62.5162 48.413 62.5089 48.2596 62.4947 48.1312C62.352 47.8605 62.1776 47.3794 61.9707 46.6878C61.7498 45.9537 61.5859 45.4974 61.4789 45.3191C61.2865 44.9914 60.9087 44.7027 60.3457 44.4531C60.0035 44.3034 59.5579 44.143 59.0091 43.9719H58.5921ZM58.7952 50.9862H63.1471V49.703H58.7952V50.9862ZM60.1319 52.312V60.5664L61.9281 61.561V52.312H60.1319Z" fill="url(#paint16_linear_52_889)"/>
<path d="M61.4578 42.09L62.1313 42.8495C62.9869 43.8126 63.6175 44.8823 64.0238 46.059C64.3162 46.9007 64.4623 47.696 64.4623 48.4448V60.6942C64.4979 60.6942 64.8328 60.8584 65.4674 61.1865L66.0233 61.4752C66.1373 61.5322 66.2301 61.5714 66.3015 61.5929V48.4235C66.3015 47.8315 66.2228 47.1718 66.0662 46.4442C65.6954 44.7254 64.9183 43.274 63.7352 42.09H61.4578ZM66.6542 50.9861H67.7877V49.703H66.6542V50.9861ZM62.9118 50.9861H64.1308V49.703H62.9118V50.9861Z" fill="url(#paint17_linear_52_889)"/>
<path d="M66.0125 42.09L66.6861 42.8495C67.5416 43.8126 68.1722 44.8823 68.5786 46.059C68.8709 46.9007 69.0171 47.696 69.0171 48.4448V60.6942C69.0526 60.6942 69.3876 60.8584 70.0221 61.1865L70.578 61.4752C70.692 61.5322 70.7848 61.5714 70.8562 61.5929V48.4235C70.8562 47.8315 70.7775 47.1718 70.6209 46.4442C70.2501 44.7254 69.473 43.274 68.2899 42.09H66.0125ZM71.209 50.9861H72.3424V49.703H71.209V50.9861ZM67.4666 50.9861H68.6855V49.703H67.4666V50.9861Z" fill="url(#paint18_linear_52_889)"/>
<path d="M71.9042 49.703V50.9862H74.0961V53.7523C74.0888 53.7595 74.071 53.7809 74.0425 53.8166C73.8644 53.9738 73.7287 54.0917 73.6362 54.1703V54.9636C74.0425 54.8211 74.4595 54.6609 74.8873 54.4825C75.8424 54.0834 76.8938 53.8731 78.0414 53.8518C78.5547 53.8375 78.9593 53.8982 79.255 54.0335C79.5507 54.1689 79.8554 54.4363 80.1692 54.8354V55.819C79.549 55.3487 78.7293 55.1133 77.7101 55.1133C76.0275 55.1133 74.6201 55.6801 73.4866 56.8135C72.9019 57.3982 72.6099 57.9862 72.6099 58.5777C72.6099 59.1053 72.795 59.5828 73.1658 60.0105C73.9285 60.8946 75.012 61.3364 76.4164 61.3364C77.4356 61.3364 78.3303 61.1547 79.1001 60.791C79.3422 60.677 79.6523 60.5097 80.0304 60.2884C80.1229 60.3528 80.1692 60.499 80.1692 60.7269C81.1528 61.1333 81.7197 61.3646 81.8693 61.4219V57.3054C81.8693 55.4876 81.7161 54.2794 81.4096 53.6806C80.9534 52.7825 79.9234 52.3334 78.3196 52.3334C77.9347 52.3334 77.5459 52.3691 77.154 52.4403C76.2465 52.6048 75.7268 52.712 75.5946 52.7619C75.5906 52.7583 75.5865 52.7544 75.5823 52.7502C75.5538 52.7215 75.525 52.7071 75.4968 52.7071V50.9862H82.6179V49.703H71.9042ZM73.3368 59.3048C73.3368 59.0269 73.5185 58.6705 73.8822 58.2357C74.7874 57.1522 75.992 56.6104 77.4962 56.6104C77.9096 56.6104 78.4265 56.7139 79.0465 56.9205C79.795 57.1699 80.1692 57.4515 80.1692 57.765C80.1692 58.0717 79.6915 58.5136 78.7367 59.0909C77.6387 59.754 76.4271 60.0853 75.1012 60.0853C74.0746 60.0853 73.4866 59.8251 73.3368 59.3048Z" fill="url(#paint19_linear_52_889)"/>
<defs>
<linearGradient id="paint0_linear_52_889" x1="0.548239" y1="38.4915" x2="12.3233" y2="38.4915" gradientUnits="userSpaceOnUse">
<stop stop-color="#F89734"/>
<stop offset="0.511236" stop-color="#F9ED42"/>
<stop offset="0.983791" stop-color="#F89734"/>
<stop offset="1" stop-color="#F89734"/>
</linearGradient>
<linearGradient id="paint1_linear_52_889" x1="7.43389" y1="39.9295" x2="16.1638" y2="39.9295" gradientUnits="userSpaceOnUse">
<stop stop-color="#F89734"/>
<stop offset="0.511236" stop-color="#F9ED42"/>
<stop offset="0.983791" stop-color="#F89734"/>
<stop offset="1" stop-color="#F89734"/>
</linearGradient>
<radialGradient id="paint2_radial_52_889" cx="0" cy="0" r="1" gradientUnits="userSpaceOnUse" gradientTransform="translate(5.97563 55.0765) scale(6.11149 6.11149)">
<stop stop-color="#90C84B"/>
<stop offset="0.579782" stop-color="#90C84B"/>
<stop offset="1" stop-color="#22984F"/>
</radialGradient>
<radialGradient id="paint3_radial_52_889" cx="0" cy="0" r="1" gradientUnits="userSpaceOnUse" gradientTransform="translate(17.1387 56.8145) scale(4.74503)">
<stop stop-color="#90C84B"/>
<stop offset="0.579782" stop-color="#90C84B"/>
<stop offset="1" stop-color="#22984F"/>
</radialGradient>
<radialGradient id="paint4_radial_52_889" cx="0" cy="0" r="1" gradientUnits="userSpaceOnUse" gradientTransform="translate(27.7995 56.8145) scale(4.74503)">
<stop stop-color="#90C84B"/>
<stop offset="0.579782" stop-color="#90C84B"/>
<stop offset="1" stop-color="#22984F"/>
</radialGradient>
<radialGradient id="paint5_radial_52_889" cx="0" cy="0" r="1" gradientUnits="userSpaceOnUse" gradientTransform="translate(39.1234 56.6174) scale(5.2685)">
<stop stop-color="#90C84B"/>
<stop offset="0.579782" stop-color="#90C84B"/>
<stop offset="1" stop-color="#22984F"/>
</radialGradient>
<linearGradient id="paint6_linear_52_889" x1="13.6143" y1="27.3352" x2="50.9796" y2="27.3352" gradientUnits="userSpaceOnUse">
<stop stop-color="#F89734"/>
<stop offset="0.511236" stop-color="#F9ED42"/>
<stop offset="0.983791" stop-color="#F89734"/>
<stop offset="1" stop-color="#F89734"/>
</linearGradient>
<linearGradient id="paint7_linear_52_889" x1="41.5694" y1="14.1476" x2="61.6358" y2="14.1476" gradientUnits="userSpaceOnUse">
<stop stop-color="#F89734"/>
<stop offset="0.511236" stop-color="#F9ED42"/>
<stop offset="0.983791" stop-color="#F89734"/>
<stop offset="1" stop-color="#F89734"/>
</linearGradient>
<linearGradient id="paint8_linear_52_889" x1="46.3782" y1="18.8218" x2="54.1373" y2="18.8218" gradientUnits="userSpaceOnUse">
<stop stop-color="#F89734"/>
<stop offset="0.511236" stop-color="#F9ED42"/>
<stop offset="0.983791" stop-color="#F89734"/>
<stop offset="1" stop-color="#F89734"/>
</linearGradient>
<linearGradient id="paint9_linear_52_889" x1="20.8885" y1="28.8006" x2="45.5108" y2="28.8006" gradientUnits="userSpaceOnUse">
<stop stop-color="#F89734"/>
<stop offset="0.511236" stop-color="#F9ED42"/>
<stop offset="0.983791" stop-color="#F89734"/>
<stop offset="1" stop-color="#F89734"/>
</linearGradient>
<radialGradient id="paint10_radial_52_889" cx="0" cy="0" r="1" gradientUnits="userSpaceOnUse" gradientTransform="translate(38.543 19.8469) rotate(-38.0796) scale(14.2117)">
<stop stop-color="#90C84B"/>
<stop offset="0.579782" stop-color="#90C84B"/>
<stop offset="1" stop-color="#22984F"/>
</radialGradient>
<radialGradient id="paint11_radial_52_889" cx="0" cy="0" r="1" gradientUnits="userSpaceOnUse" gradientTransform="translate(54.8871 32.6296) rotate(-38.0796) scale(10.9171)">
<stop stop-color="#90C84B"/>
<stop offset="0.579782" stop-color="#90C84B"/>
<stop offset="1" stop-color="#22984F"/>
</radialGradient>
<linearGradient id="paint12_linear_52_889" x1="29.854" y1="37.0518" x2="38.8339" y2="37.0518" gradientUnits="userSpaceOnUse">
<stop stop-color="#F89734"/>
<stop offset="0.511236" stop-color="#F9ED42"/>
<stop offset="0.983791" stop-color="#F89734"/>
<stop offset="1" stop-color="#F89734"/>
</linearGradient>
<linearGradient id="paint13_linear_52_889" x1="39.3154" y1="39.4952" x2="44.646" y2="39.4952" gradientUnits="userSpaceOnUse">
<stop stop-color="#F89734"/>
<stop offset="0.511236" stop-color="#F9ED42"/>
<stop offset="0.983791" stop-color="#F89734"/>
<stop offset="1" stop-color="#F89734"/>
</linearGradient>
<linearGradient id="paint14_linear_52_889" x1="36.4654" y1="40.9719" x2="38.663" y2="40.9719" gradientUnits="userSpaceOnUse">
<stop stop-color="#F89734"/>
<stop offset="0.511236" stop-color="#F9ED42"/>
<stop offset="0.983791" stop-color="#F89734"/>
<stop offset="1" stop-color="#F89734"/>
</linearGradient>
<linearGradient id="paint15_linear_52_889" x1="52.0833" y1="47.8348" x2="52.6612" y2="61.9929" gradientUnits="userSpaceOnUse">
<stop stop-color="#F89734"/>
<stop offset="0.511236" stop-color="#F9ED42"/>
<stop offset="0.983791" stop-color="#F89734"/>
<stop offset="1" stop-color="#F89734"/>
</linearGradient>
<linearGradient id="paint16_linear_52_889" x1="60.8541" y1="47.4768" x2="61.432" y2="61.6349" gradientUnits="userSpaceOnUse">
<stop stop-color="#F89734"/>
<stop offset="0.511236" stop-color="#F9ED42"/>
<stop offset="0.983791" stop-color="#F89734"/>
<stop offset="1" stop-color="#F89734"/>
</linearGradient>
<linearGradient id="paint17_linear_52_889" x1="64.6809" y1="47.3205" x2="65.2587" y2="61.4786" gradientUnits="userSpaceOnUse">
<stop stop-color="#F89734"/>
<stop offset="0.511236" stop-color="#F9ED42"/>
<stop offset="0.983791" stop-color="#F89734"/>
<stop offset="1" stop-color="#F89734"/>
</linearGradient>
<linearGradient id="paint18_linear_52_889" x1="69.228" y1="47.1349" x2="69.8059" y2="61.293" gradientUnits="userSpaceOnUse">
<stop stop-color="#F89734"/>
<stop offset="0.511236" stop-color="#F9ED42"/>
<stop offset="0.983791" stop-color="#F89734"/>
<stop offset="1" stop-color="#F89734"/>
</linearGradient>
<linearGradient id="paint19_linear_52_889" x1="77.1169" y1="46.813" x2="77.6948" y2="60.9711" gradientUnits="userSpaceOnUse">
<stop stop-color="#F89734"/>
<stop offset="0.511236" stop-color="#F9ED42"/>
<stop offset="0.983791" stop-color="#F89734"/>
<stop offset="1" stop-color="#F89734"/>
</linearGradient>
</defs>
</svg>
