<svg width="30" height="30" viewBox="0 0 30 30" fill="none" xmlns="http://www.w3.org/2000/svg">
<g clip-path="url(#clip0_310_7)">
<path d="M29.8781 11.0995L29.8785 11.0993L29.8733 11.0861C29.8728 11.0849 29.8724 11.0838 29.8719 11.0827L27.5348 5.23992C27.4013 4.90629 27.0782 4.6875 26.7188 4.6875H24.375V0.878906C24.375 0.393516 23.9815 0 23.4961 0H6.50391C6.01852 0 5.625 0.393516 5.625 0.878906V4.6875H3.28125C2.92184 4.6875 2.59869 4.90629 2.46521 5.23998L0.128145 11.0827C0.127676 11.0838 0.127266 11.0849 0.126797 11.0861L0.121523 11.0993L0.121934 11.0995C0.0814453 11.2005 0.0585938 11.3104 0.0585938 11.4258V12.7148C0.0585938 14.0418 0.762598 15.2069 1.81641 15.8576V29.1211C1.81641 29.6065 2.20992 30 2.69531 30H27.3047C27.7901 30 28.1836 29.6065 28.1836 29.1211V15.8576C29.2374 15.2069 29.9414 14.0417 29.9414 12.7148V11.4258C29.9414 11.3104 29.9186 11.2005 29.8781 11.0995ZM7.38281 1.75781H22.6172V7.03125H7.38281V1.75781ZM3.87627 6.44531H5.625V7.91016C5.625 8.39555 6.01852 8.78906 6.50391 8.78906H23.4961C23.9815 8.78906 24.375 8.39555 24.375 7.91016V6.44531H26.1237L27.7644 10.5469H2.23564L3.87627 6.44531ZM18.6914 12.3047H22.5586V12.7148C22.5586 13.781 21.6912 14.6484 20.625 14.6484C19.5588 14.6484 18.6914 13.781 18.6914 12.7148V12.3047ZM13.0664 12.3047H16.9336V12.7148C16.9336 13.781 16.0662 14.6484 15 14.6484C13.9338 14.6484 13.0664 13.781 13.0664 12.7148V12.3047ZM7.44141 12.3047H11.3086V12.7148C11.3086 13.781 10.4412 14.6484 9.375 14.6484C8.30883 14.6484 7.44141 13.781 7.44141 12.7148V12.3047ZM1.81641 12.7148V12.3047H5.68359V12.7148C5.68359 13.781 4.81617 14.6484 3.75 14.6484C2.68383 14.6484 1.81641 13.781 1.81641 12.7148ZM7.08984 28.2422V20.0391H12.3633V28.2422H7.08984ZM26.4258 28.2422H14.1211V19.1602C14.1211 18.6748 13.7276 18.2812 13.2422 18.2812H6.21094C5.72555 18.2812 5.33203 18.6748 5.33203 19.1602V28.2422H3.57422V16.4018C3.63252 16.4046 3.69105 16.4062 3.75 16.4062C4.87582 16.4062 5.88486 15.8991 6.5625 15.1018C7.24014 15.8991 8.24918 16.4062 9.375 16.4062C10.5008 16.4062 11.5099 15.8991 12.1875 15.1018C12.8651 15.8991 13.8742 16.4062 15 16.4062C16.1258 16.4062 17.1349 15.8991 17.8125 15.1018C18.4901 15.8991 19.4992 16.4062 20.625 16.4062C21.7508 16.4062 22.7599 15.8991 23.4375 15.1018C24.1151 15.8991 25.1242 16.4062 26.25 16.4062C26.3089 16.4062 26.3675 16.4046 26.4258 16.4018V28.2422ZM28.1836 12.7148C28.1836 13.781 27.3162 14.6484 26.25 14.6484C25.1838 14.6484 24.3164 13.781 24.3164 12.7148V12.3047H28.1836V12.7148Z" fill="black"/>
<path d="M10.0195 5.27344H19.9805C20.4659 5.27344 20.8594 4.87992 20.8594 4.39453C20.8594 3.90914 20.4659 3.51562 19.9805 3.51562H10.0195C9.53414 3.51562 9.14062 3.90914 9.14062 4.39453C9.14062 4.87992 9.53414 5.27344 10.0195 5.27344Z" fill="black"/>
<path d="M23.7891 18.2812H16.7578C16.2724 18.2812 15.8789 18.6748 15.8789 19.1602V24.4336C15.8789 24.919 16.2724 25.3125 16.7578 25.3125H23.7891C24.2745 25.3125 24.668 24.919 24.668 24.4336V19.1602C24.668 18.6748 24.2745 18.2812 23.7891 18.2812ZM22.9102 23.5547H17.6367V20.0391H22.9102V23.5547Z" fill="black"/>
<path d="M10.3125 22.3828C9.82711 22.3828 9.43359 22.7763 9.43359 23.2617V24.4336C9.43359 24.919 9.82711 25.3125 10.3125 25.3125C10.7979 25.3125 11.1914 24.919 11.1914 24.4336V23.2617C11.1914 22.7763 10.7979 22.3828 10.3125 22.3828Z" fill="black"/>
</g>
<defs>
<clipPath id="clip0_310_7">
<rect width="30" height="30" fill="white"/>
</clipPath>
</defs>
</svg>