<svg width="51" height="51" viewBox="0 0 51 51" fill="none" xmlns="http://www.w3.org/2000/svg">
<path d="M25.542 49.0078C38.7968 49.0078 49.542 38.2626 49.542 25.0078C49.542 11.753 38.7968 1.00781 25.542 1.00781C12.2872 1.00781 1.54199 11.753 1.54199 25.0078C1.54199 38.2626 12.2872 49.0078 25.542 49.0078Z" stroke="black" stroke-width="2"/>
<path d="M36.3312 29.5408C36.5802 29.5408 36.819 29.4419 36.9951 29.2658C37.1712 29.0897 37.2702 28.8509 37.2702 28.6018V18.6438C37.2688 17.6476 36.8725 16.6926 36.168 15.9883C35.4634 15.284 34.5084 14.8879 33.5122 14.8868H32.2912V13.9468C32.2912 13.6977 32.1922 13.4587 32.016 13.2825C31.8398 13.1063 31.6008 13.0073 31.3517 13.0073C31.1025 13.0073 30.8635 13.1063 30.6873 13.2825C30.5112 13.4587 30.4122 13.6977 30.4122 13.9468V14.8858H26.1382V13.9468C26.1382 13.6977 26.0392 13.4587 25.863 13.2825C25.6868 13.1063 25.4478 13.0073 25.1987 13.0073C24.9495 13.0073 24.7105 13.1063 24.5343 13.2825C24.3582 13.4587 24.2592 13.6977 24.2592 13.9468V14.8858H20.0322V13.9468C20.0322 13.6977 19.9332 13.4587 19.757 13.2825C19.5808 13.1063 19.3418 13.0073 19.0927 13.0073C18.8435 13.0073 18.6045 13.1063 18.4283 13.2825C18.2522 13.4587 18.1532 13.6977 18.1532 13.9468V14.8858H16.9792C15.983 14.8871 15.028 15.2835 14.3237 15.988C13.6194 16.6925 13.2232 17.6476 13.2222 18.6438L13.2222 33.2978C13.2235 34.2938 13.6197 35.2487 14.324 35.953C15.0283 36.6573 15.9832 37.0535 16.9792 37.0548H33.5122C34.5082 37.0535 35.463 36.6573 36.1673 35.953C36.8716 35.2487 37.2678 34.2938 37.2692 33.2978C37.2692 33.0487 37.1702 32.8097 36.994 32.6335C36.8178 32.4573 36.5788 32.3583 36.3297 32.3583C36.0805 32.3583 35.8415 32.4573 35.6653 32.6335C35.4891 32.8097 35.3902 33.0487 35.3902 33.2978C35.3896 33.796 35.1915 34.2736 34.8392 34.6259C34.487 34.9782 34.0093 35.1763 33.5112 35.1768H16.9792C16.4812 35.176 16.0038 34.9778 15.6517 34.6255C15.2997 34.2733 15.1017 33.7958 15.1012 33.2978V18.6438C15.1017 18.1458 15.2997 17.6683 15.6517 17.3161C16.0038 16.9639 16.4812 16.7656 16.9792 16.7648H18.1542V17.7078C18.1542 17.957 18.2532 18.196 18.4293 18.3722C18.6055 18.5483 18.8445 18.6473 19.0937 18.6473C19.3428 18.6473 19.5818 18.5483 19.758 18.3722C19.9342 18.196 20.0332 17.957 20.0332 17.7078V16.7648H24.2602V17.7078C24.2602 17.957 24.3592 18.196 24.5353 18.3722C24.7115 18.5483 24.9505 18.6473 25.1997 18.6473C25.4488 18.6473 25.6878 18.5483 25.864 18.3722C26.0402 18.196 26.1392 17.957 26.1392 17.7078V16.7648H30.4122V17.7078C30.4122 17.957 30.5112 18.196 30.6873 18.3722C30.8635 18.5483 31.1025 18.6473 31.3517 18.6473C31.6008 18.6473 31.8398 18.5483 32.016 18.3722C32.1922 18.196 32.2912 17.957 32.2912 17.7078V16.7648H33.5122C34.0103 16.7654 34.488 16.9635 34.8402 17.3158C35.1925 17.668 35.3906 18.1456 35.3912 18.6438V28.6008C35.391 28.7243 35.4153 28.8466 35.4625 28.9607C35.5096 29.0748 35.5789 29.1785 35.6662 29.2658C35.7535 29.3531 35.8572 29.4223 35.9713 29.4695C36.0854 29.5167 36.2077 29.541 36.3312 29.5408Z" fill="black"/>
<path d="M19.2222 24.0557C19.7745 24.0557 20.2222 23.6079 20.2222 23.0557C20.2222 22.5034 19.7745 22.0557 19.2222 22.0557C18.6699 22.0557 18.2222 22.5034 18.2222 23.0557C18.2222 23.6079 18.6699 24.0557 19.2222 24.0557Z" fill="black"/>
<path d="M27.2222 24.0557C27.7745 24.0557 28.2222 23.6079 28.2222 23.0557C28.2222 22.5034 27.7745 22.0557 27.2222 22.0557C26.6699 22.0557 26.2222 22.5034 26.2222 23.0557C26.2222 23.6079 26.6699 24.0557 27.2222 24.0557Z" fill="black"/>
<path d="M31.2222 24.0557C31.7745 24.0557 32.2222 23.6079 32.2222 23.0557C32.2222 22.5034 31.7745 22.0557 31.2222 22.0557C30.6699 22.0557 30.2222 22.5034 30.2222 23.0557C30.2222 23.6079 30.6699 24.0557 31.2222 24.0557Z" fill="black"/>
<path d="M19.2222 28.0557C19.7745 28.0557 20.2222 27.6079 20.2222 27.0557C20.2222 26.5034 19.7745 26.0557 19.2222 26.0557C18.6699 26.0557 18.2222 26.5034 18.2222 27.0557C18.2222 27.6079 18.6699 28.0557 19.2222 28.0557Z" fill="black"/>
<path d="M19.2222 32.0559C19.7745 32.0559 20.2222 31.6082 20.2222 31.0559C20.2222 30.5036 19.7745 30.0559 19.2222 30.0559C18.6699 30.0559 18.2222 30.5036 18.2222 31.0559C18.2222 31.6082 18.6699 32.0559 19.2222 32.0559Z" fill="black"/>
<path d="M23.2222 24.0557C23.7745 24.0557 24.2222 23.6079 24.2222 23.0557C24.2222 22.5034 23.7745 22.0557 23.2222 22.0557C22.6699 22.0557 22.2222 22.5034 22.2222 23.0557C22.2222 23.6079 22.6699 24.0557 23.2222 24.0557Z" fill="black"/>
<path d="M23.2222 28.0557C23.7745 28.0557 24.2222 27.6079 24.2222 27.0557C24.2222 26.5034 23.7745 26.0557 23.2222 26.0557C22.6699 26.0557 22.2222 26.5034 22.2222 27.0557C22.2222 27.6079 22.6699 28.0557 23.2222 28.0557Z" fill="black"/>
<path d="M23.2222 32.0559C23.7745 32.0559 24.2222 31.6082 24.2222 31.0559C24.2222 30.5036 23.7745 30.0559 23.2222 30.0559C22.6699 30.0559 22.2222 30.5036 22.2222 31.0559C22.2222 31.6082 22.6699 32.0559 23.2222 32.0559Z" fill="black"/>
<path d="M27.2222 28.0557C27.7745 28.0557 28.2222 27.6079 28.2222 27.0557C28.2222 26.5034 27.7745 26.0557 27.2222 26.0557C26.6699 26.0557 26.2222 26.5034 26.2222 27.0557C26.2222 27.6079 26.6699 28.0557 27.2222 28.0557Z" fill="black"/>
<path d="M31.2222 28.0557C31.7745 28.0557 32.2222 27.6079 32.2222 27.0557C32.2222 26.5034 31.7745 26.0557 31.2222 26.0557C30.6699 26.0557 30.2222 26.5034 30.2222 27.0557C30.2222 27.6079 30.6699 28.0557 31.2222 28.0557Z" fill="black"/>
<path d="M27.2222 32.0559C27.7745 32.0559 28.2222 31.6082 28.2222 31.0559C28.2222 30.5036 27.7745 30.0559 27.2222 30.0559C26.6699 30.0559 26.2222 30.5036 26.2222 31.0559C26.2222 31.6082 26.6699 32.0559 27.2222 32.0559Z" fill="black"/>
</svg>
