<svg width="21" height="21" viewBox="0 0 21 21" fill="none" xmlns="http://www.w3.org/2000/svg">
<path fill-rule="evenodd" clip-rule="evenodd" d="M0.0394287 3.13977C0.0394287 1.48292 1.38257 0.139771 3.03943 0.139771H17.0394C18.6963 0.139771 20.0394 1.48292 20.0394 3.13977V17.1398C20.0394 18.7966 18.6963 20.1398 17.0394 20.1398H3.03943C1.38257 20.1398 0.0394287 18.7966 0.0394287 17.1398V3.13977Z" fill="black"/>
<path fill-rule="evenodd" clip-rule="evenodd" d="M14.9536 6.43274C15.3442 6.82326 15.3442 7.45643 14.9536 7.84695L8.74654 14.3469C8.35601 14.7375 7.72285 14.7375 7.33232 14.3469L4.33232 11.347C3.9418 10.9564 3.9418 10.3233 4.33232 9.93274C4.72285 9.54222 5.35601 9.54222 5.74654 9.93274L8.03943 12.2256L13.5394 6.43274C13.93 6.04221 14.5631 6.04221 14.9536 6.43274Z" fill="white"/>
</svg>
