<svg width="51" height="51" viewBox="0 0 51 51" fill="none" xmlns="http://www.w3.org/2000/svg">
<path d="M25.542 49.0078C38.7968 49.0078 49.542 38.2626 49.542 25.0078C49.542 11.753 38.7968 1.00781 25.542 1.00781C12.2872 1.00781 1.54199 11.753 1.54199 25.0078C1.54199 38.2626 12.2872 49.0078 25.542 49.0078Z" stroke="black" stroke-width="2"/>
<path d="M25.5399 13.0078C28.7052 13.0083 31.7408 14.2661 33.979 16.5044C36.2171 18.7428 37.4746 21.7784 37.4749 24.9438H41.4539L36.2949 30.1028L36.2019 30.2888L30.8439 24.9438H34.8229C34.8333 22.7838 34.0937 20.6872 32.7305 19.0117C31.3672 17.3363 29.4648 16.1858 27.3478 15.7568C25.2308 15.3277 23.0306 15.6467 21.1225 16.6592C19.2145 17.6717 17.717 19.3149 16.8856 21.3085C16.0542 23.3021 15.9405 25.5225 16.5638 27.5906C17.187 29.6587 18.5087 31.4464 20.3033 32.6486C22.0978 33.8508 24.254 34.393 26.4037 34.1826C28.5534 33.9721 30.5635 33.0222 32.0909 31.4948L33.9739 33.3778C32.5862 34.7658 30.8776 35.79 28.9995 36.3598C27.1214 36.9296 25.1317 37.0274 23.2068 36.6445C21.2819 36.2615 19.4811 35.4097 17.9641 34.1645C16.447 32.9193 15.2605 31.3191 14.5097 29.5057C13.7589 27.6924 13.467 25.7218 13.6598 23.7687C13.8525 21.8155 14.5241 19.94 15.615 18.3085C16.7058 16.6769 18.1822 15.3395 19.9134 14.4149C21.6447 13.4903 23.5772 13.007 25.5399 13.0078ZM26.8659 19.6388V26.2698L21.1899 29.6378L20.2349 28.0378L24.8769 25.2798V19.6388H26.8659Z" fill="black"/>
</svg>
