<svg width="33" height="33" viewBox="0 0 33 33" fill="none" xmlns="http://www.w3.org/2000/svg">
<path d="M16.542 32.0078C25.3785 32.0078 32.542 24.8444 32.542 16.0078C32.542 7.17126 25.3785 0.0078125 16.542 0.0078125C7.70544 0.0078125 0.541992 7.17126 0.541992 16.0078C0.541992 24.8444 7.70544 32.0078 16.542 32.0078Z" fill="black"/>
<path d="M12.4831 16.5378H14.2391V23.7648C14.2391 23.8332 14.2663 23.8989 14.3147 23.9472C14.363 23.9956 14.4287 24.0228 14.4971 24.0228H17.4741C17.5425 24.0228 17.6081 23.9956 17.6565 23.9472C17.7049 23.8989 17.7321 23.8332 17.7321 23.7648V16.5718H19.7501C19.8136 16.572 19.875 16.5487 19.9224 16.5064C19.9698 16.4642 20 16.4059 20.0071 16.3428L20.3141 13.6818C20.3183 13.6456 20.3148 13.6089 20.3039 13.5741C20.2929 13.5393 20.2746 13.5072 20.2503 13.48C20.2261 13.4528 20.1963 13.4311 20.163 13.4162C20.1297 13.4013 20.0936 13.3937 20.0571 13.3938H17.7321V11.7268C17.7321 11.2268 18.0031 10.9688 18.5321 10.9688H20.0521C20.1205 10.9688 20.1861 10.9416 20.2345 10.8932C20.2829 10.8449 20.3101 10.7792 20.3101 10.7108V8.26781C20.3106 8.1999 20.2844 8.13451 20.237 8.08584C20.1896 8.03716 20.125 8.00913 20.0571 8.00781H17.9621H17.8621C16.8983 8.01226 15.9684 8.36331 15.2421 8.99681C14.8979 9.29643 14.6336 9.67694 14.473 10.1041C14.3124 10.5313 14.2605 10.9916 14.3221 11.4438V13.3938H12.4831C12.4147 13.3938 12.349 13.421 12.3007 13.4694C12.2523 13.5178 12.2251 13.5834 12.2251 13.6518V16.2798C12.2251 16.3482 12.2523 16.4139 12.3007 16.4622C12.349 16.5106 12.4147 16.5378 12.4831 16.5378Z" fill="white"/>
</svg>
