<svg width="33" height="33" viewBox="0 0 33 33" fill="none" xmlns="http://www.w3.org/2000/svg">
<path d="M16.542 32.0078C25.3785 32.0078 32.542 24.8444 32.542 16.0078C32.542 7.17126 25.3785 0.0078125 16.542 0.0078125C7.70544 0.0078125 0.541992 7.17126 0.541992 16.0078C0.541992 24.8444 7.70544 32.0078 16.542 32.0078Z" fill="black"/>
<path d="M17.9 9.00781H13.308C11.25 9.00781 9.30796 10.5668 9.30796 12.3738C9.30482 12.8268 9.39447 13.2756 9.57139 13.6926C9.74831 14.1097 10.0087 14.486 10.3366 14.7986C10.6646 15.1111 11.053 15.3532 11.478 15.5099C11.903 15.6666 12.3557 15.7347 12.808 15.7098C12.954 15.7098 13.095 15.7098 13.234 15.6968C13.0887 15.9597 13.0088 16.2536 13.001 16.5538C13.0132 16.7966 13.0749 17.0343 13.1824 17.2524C13.2899 17.4705 13.4408 17.6642 13.626 17.8218C13.362 17.8218 13.108 17.8298 12.826 17.8298C10.277 17.8298 8.31396 19.4538 8.31396 21.1368C8.31396 22.7948 10.465 23.8368 13.014 23.8368C15.921 23.8368 17.526 22.1878 17.526 20.5288C17.5645 19.9311 17.4345 19.3345 17.1508 18.807C16.8671 18.2794 16.441 17.8421 15.921 17.5448C15.506 17.2508 14.712 16.5368 14.712 16.1168C14.712 15.6248 14.852 15.3818 15.593 14.8038C15.9794 14.5305 16.2977 14.1718 16.5231 13.7556C16.7486 13.3394 16.8751 12.8768 16.893 12.4038C16.9363 11.8653 16.8192 11.326 16.5563 10.854C16.2935 10.382 15.8966 9.99846 15.416 9.75181H16.872L17.9 9.00781ZM16.3 20.2388C16.3369 20.3938 16.3557 20.5525 16.356 20.7118C16.356 22.0518 15.493 23.0988 13.015 23.0988C11.253 23.0988 9.97996 21.9828 9.97996 20.6438C9.97996 19.3308 11.559 18.2368 13.321 18.2568C13.7087 18.2597 14.0937 18.3214 14.463 18.4398C15.42 19.1048 16.106 19.4808 16.299 20.2398L16.3 20.2388ZM13.478 15.2388C12.295 15.2038 11.171 13.9158 10.967 12.3628C10.763 10.8098 11.549 9.62281 12.735 9.65781C13.4118 9.77865 14.0282 10.1242 14.4844 10.6387C14.9406 11.1531 15.2099 11.8063 15.249 12.4928C15.449 14.0468 14.657 15.2768 13.474 15.2408L13.478 15.2388ZM22.578 12.2958V9.00781H21.478V12.2978H18.188V13.3978H21.478V16.6878H22.578V13.3948H25.868V12.2948L22.578 12.2958Z" fill="white"/>
</svg>
