<svg width="33" height="33" viewBox="0 0 33 33" fill="none" xmlns="http://www.w3.org/2000/svg">
<path d="M16.542 32.0078C25.3785 32.0078 32.542 24.8444 32.542 16.0078C32.542 7.17126 25.3785 0.0078125 16.542 0.0078125C7.70544 0.0078125 0.541992 7.17126 0.541992 16.0078C0.541992 24.8444 7.70544 32.0078 16.542 32.0078Z" fill="black"/>
<path d="M23.7548 8.57078C23.5638 8.37266 23.3342 8.21586 23.0801 8.11007C22.826 8.00429 22.553 7.95177 22.2778 7.95578H10.1688C9.89397 7.95205 9.62129 8.0047 9.3676 8.11047C9.1139 8.21625 8.88459 8.37291 8.69381 8.57078C8.49588 8.76136 8.33911 8.99047 8.23316 9.24399C8.12722 9.4975 8.07434 9.77004 8.07781 10.0448V22.1558C8.07421 22.4304 8.12693 22.7029 8.2327 22.9565C8.33847 23.21 8.49506 23.4391 8.69281 23.6298C8.88351 23.8275 9.11267 23.984 9.36617 24.0898C9.61967 24.1956 9.89215 24.2483 10.1668 24.2448H22.2778C22.8315 24.2427 23.3619 24.022 23.7537 23.6308C24.1455 23.2396 24.3669 22.7094 24.3698 22.1558V10.0448C24.3734 9.77011 24.3207 9.49762 24.2149 9.24411C24.1091 8.9906 23.9526 8.76144 23.7548 8.57078ZM13.9278 13.8258C14.231 13.525 14.5913 13.2879 14.9875 13.1285C15.3837 12.9691 15.8078 12.8907 16.2348 12.8978C16.6634 12.8901 17.0892 12.9683 17.4871 13.1277C17.885 13.287 18.247 13.5244 18.5518 13.8258C18.8597 14.1118 19.1042 14.4592 19.2696 14.8455C19.435 15.2318 19.5175 15.6486 19.5118 16.0688C19.5175 16.489 19.4351 16.9057 19.2697 17.2921C19.1043 17.6784 18.8598 18.0258 18.5518 18.3118C18.2471 18.6132 17.8851 18.8507 17.4871 19.01C17.0892 19.1694 16.6634 19.2475 16.2348 19.2398C15.8078 19.2469 15.3837 19.1684 14.9875 19.009C14.5913 18.8497 14.231 18.6126 13.9278 18.3118C13.6198 18.0258 13.3753 17.6784 13.2099 17.2921C13.0446 16.9057 12.9621 16.489 12.9678 16.0688C12.9621 15.6486 13.0447 15.2318 13.21 14.8455C13.3754 14.4592 13.6199 14.1118 13.9278 13.8258ZM22.5278 21.7258C22.5298 21.8117 22.5138 21.897 22.4809 21.9764C22.448 22.0558 22.3989 22.1274 22.3368 22.1868C22.2771 22.2467 22.206 22.2941 22.1277 22.326C22.0493 22.358 21.9654 22.3739 21.8808 22.3728H10.5398C10.4544 22.3746 10.3694 22.359 10.2901 22.3271C10.2108 22.2952 10.1388 22.2477 10.0784 22.1872C10.0179 22.1268 9.97034 22.0548 9.93845 21.9755C9.90656 21.8962 9.89104 21.8112 9.89281 21.7258V14.8498H11.3928C11.2499 15.2989 11.1774 15.7675 11.1778 16.2388C11.1689 16.8895 11.2964 17.5348 11.5522 18.1331C11.808 18.7315 12.1863 19.2696 12.6628 19.7128C13.1325 20.1787 13.6907 20.5459 14.3045 20.7927C14.9183 21.0395 15.5753 21.1609 16.2368 21.1498C17.1284 21.1568 18.0063 20.9299 18.7828 20.4918C19.5443 20.0688 20.1807 19.4524 20.6278 18.7048C21.0778 17.9614 21.3128 17.1077 21.3068 16.2388C21.3082 15.7676 21.2367 15.2991 21.0948 14.8498H22.5268V21.7228L22.5278 21.7258ZM22.5278 12.2538C22.5287 12.3502 22.5104 12.4458 22.474 12.535C22.4375 12.6242 22.3837 12.7053 22.3155 12.7735C22.2473 12.8416 22.1663 12.8955 22.077 12.932C21.9878 12.9684 21.8922 12.9867 21.7958 12.9858H19.9468C19.8504 12.9869 19.7547 12.9686 19.6654 12.9322C19.5761 12.8958 19.495 12.842 19.4268 12.7738C19.3586 12.7056 19.3048 12.6245 19.2683 12.5352C19.2319 12.4459 19.2137 12.3502 19.2148 12.2538V10.5018C19.2139 10.4063 19.2321 10.3115 19.2686 10.2232C19.305 10.1349 19.3588 10.0549 19.4268 9.98778C19.4937 9.91756 19.5745 9.862 19.664 9.82465C19.7535 9.78729 19.8498 9.76895 19.9468 9.77078H21.7918C21.8888 9.76895 21.9851 9.78729 22.0746 9.82465C22.1641 9.862 22.2449 9.91756 22.3118 9.98778C22.3799 10.0548 22.4337 10.1349 22.4701 10.2232C22.5066 10.3115 22.5248 10.4063 22.5238 10.5018L22.5278 12.2538Z" fill="white"/>
</svg>
