<svg width="182" height="60" viewBox="0 0 182 60" fill="none" xmlns="http://www.w3.org/2000/svg">
<path d="M22.5026 0C10.0942 0 0 10.0956 0 22.5026C0 39.1029 20.761 58.8336 21.6452 59.6612C21.8777 59.8789 22.1842 60 22.5026 60C22.821 60 23.1276 59.8789 23.36 59.6612C24.2428 58.8279 45.0038 39.0972 45.0038 22.4969C45.0038 10.0956 34.911 0 22.5026 0ZM22.5026 35.0031C20.0298 35.0034 17.6125 34.2704 15.5564 32.8968C13.5002 31.5231 11.8976 29.5706 10.9512 27.2861C10.0048 25.0016 9.75708 22.4878 10.2394 20.0625C10.7218 17.6373 11.9125 15.4095 13.661 13.661C15.4095 11.9125 17.6373 10.7218 20.0625 10.2394C22.4878 9.75708 25.0016 10.0048 27.2861 10.9512C29.5706 11.8976 31.5231 13.5002 32.8968 15.5564C34.2704 17.6125 35.0034 20.0298 35.0031 22.5026C34.999 25.8167 33.6807 28.9938 31.3372 31.3372C28.9938 33.6806 25.8167 34.999 22.5026 35.0031Z" fill="white"/>
<path opacity="0.3" d="M32.8173 25.092C34.2103 19.3949 30.7211 13.6473 25.0241 12.2543C19.327 10.8612 13.5793 14.3504 12.1863 20.0475C10.7933 25.7445 14.2825 31.4922 19.9795 32.8852C25.6766 34.2782 31.4243 30.7891 32.8173 25.092Z" fill="white"/>
<path fill-rule="evenodd" clip-rule="evenodd" d="M25.7136 9.43377C32.9682 11.2076 37.4112 18.5266 35.6374 25.7812C33.8635 33.0358 26.5445 37.4788 19.2899 35.705C12.0353 33.9311 7.59228 26.6122 9.36613 19.3576C11.14 12.103 18.459 7.65993 25.7136 9.43377ZM25.024 12.2539C30.7211 13.6469 34.2102 19.3946 32.8172 25.0917C31.4242 30.7887 25.6765 34.2779 19.9795 32.8848C14.2824 31.4918 10.7933 25.7442 12.1863 20.0471C13.5793 14.35 19.3269 10.8609 25.024 12.2539Z" fill="#111111"/>
<path d="M30.1026 25.8818C29.0056 26.9788 26.6811 26.4747 24.9259 24.6958C23.9658 23.8066 23.3383 22.616 23.1475 21.3214C23.0527 20.0432 22.4913 18.8445 21.5702 17.9532L16.9089 13.5005C17.2482 13.2953 17.6009 13.1131 17.9645 12.955L22.1627 17.3667C23.044 18.2881 24.2356 18.8501 25.5071 18.944C26.8053 19.1343 27.9997 19.7618 28.8929 20.7229C30.6658 22.4662 31.1996 24.7848 30.1026 25.8818Z" fill="white"/>
<path d="M27.623 31.8466C27.2758 32.0483 26.9175 32.2305 26.5498 32.3921L22.0432 27.6483C21.6825 27.2618 21.2438 26.9561 20.7562 26.7517C20.2686 26.5472 19.7432 26.4486 19.2146 26.4623C18.9045 26.4695 18.5963 26.4132 18.3088 26.297C18.0212 26.1807 17.7605 26.007 17.5425 25.7864L12.9648 21.2145C12.93 21.1818 12.9022 21.1423 12.8833 21.0984C12.8643 21.0546 12.8545 21.0073 12.8545 20.9595C12.8545 20.9117 12.8643 20.8644 12.8833 20.8206C12.9022 20.7767 12.93 20.7372 12.9648 20.7045C13.0311 20.6411 13.1192 20.6057 13.2109 20.6057C13.3026 20.6057 13.3908 20.6411 13.457 20.7045L17.0149 24.2624C17.0713 24.3158 17.1449 24.3474 17.2224 24.3514C17.3018 24.3472 17.3772 24.3158 17.4359 24.2624C17.4901 24.2069 17.5205 24.1324 17.5205 24.0548C17.5205 23.9773 17.4901 23.9028 17.4359 23.8473L13.8775 20.2897C13.8443 20.2566 13.818 20.2173 13.8001 20.1741C13.7821 20.1308 13.7729 20.0845 13.7729 20.0376C13.7729 19.9908 13.7821 19.9444 13.8001 19.9012C13.818 19.8579 13.8443 19.8186 13.8775 19.7856C13.9447 19.7218 14.0339 19.6862 14.1266 19.6862C14.2193 19.6862 14.3084 19.7218 14.3757 19.7856L17.9335 23.3435C17.9602 23.3718 17.9923 23.3944 18.028 23.4099C18.0637 23.4253 18.1022 23.4333 18.1411 23.4333C18.18 23.4333 18.2185 23.4253 18.2542 23.4099C18.2899 23.3944 18.322 23.3718 18.3486 23.3435C18.3768 23.3174 18.3993 23.2857 18.4147 23.2505C18.4301 23.2153 18.4381 23.1773 18.4381 23.1389C18.4381 23.1005 18.4301 23.0625 18.4147 23.0272C18.3993 22.992 18.3768 22.9604 18.3486 22.9343L14.7908 19.3764C14.7562 19.3448 14.7286 19.3063 14.7097 19.2634C14.6908 19.2206 14.681 19.1742 14.681 19.1274C14.681 19.0805 14.6908 19.0342 14.7097 18.9913C14.7286 18.9484 14.7562 18.9099 14.7908 18.8783C14.8228 18.8455 14.8611 18.8194 14.9033 18.8016C14.9456 18.7838 14.991 18.7746 15.0369 18.7746C15.0827 18.7746 15.1281 18.7838 15.1704 18.8016C15.2126 18.8194 15.2509 18.8455 15.283 18.8783L18.841 22.4367C18.8968 22.4918 18.9722 22.5224 19.0506 22.5218C19.129 22.5212 19.204 22.4896 19.259 22.4337C19.3141 22.3779 19.3447 22.3025 19.3441 22.2241C19.3436 22.1457 19.3119 22.0707 19.2561 22.0157L15.6982 18.4572C15.6353 18.3884 15.6004 18.2985 15.6004 18.2052C15.6004 18.1119 15.6353 18.022 15.6982 17.9532C15.7312 17.92 15.7705 17.8937 15.8138 17.8757C15.857 17.8578 15.9034 17.8485 15.9502 17.8485C15.9971 17.8485 16.0434 17.8578 16.0867 17.8757C16.1299 17.8937 16.1692 17.92 16.2023 17.9532L20.7622 22.5724C20.9818 22.7933 21.1544 23.0564 21.2696 23.3459C21.3847 23.6353 21.4401 23.945 21.4323 24.2564C21.4197 24.7848 21.5188 25.3099 21.7232 25.7974C21.9276 26.2848 22.2326 26.7236 22.6183 27.085L27.623 31.8466Z" fill="white"/>
<path d="M30.1016 27.1734C29.0045 28.2882 26.692 27.7248 24.913 25.9756C23.9531 25.0815 23.3258 23.8875 23.1341 22.5898C23.039 21.3133 22.4775 20.1165 21.5567 19.2274L16.0717 14.0151C16.3301 13.8274 16.5993 13.6552 16.8781 13.4993L20.4893 16.9326L22.1319 18.6523L22.2208 18.7353C22.7455 19.4983 23.0604 20.3858 23.1341 21.3088C23.3251 22.6034 23.9528 23.7939 24.913 24.6829C26.692 26.4619 28.9927 26.9777 30.0897 25.8689C30.3356 25.6125 30.5041 25.2919 30.5758 24.9439C30.6903 25.3255 30.7069 25.7297 30.624 26.1194C30.5411 26.509 30.3615 26.8715 30.1016 27.1734Z" fill="#111111"/>
<path d="M26.5563 32.3916C26.2649 32.5256 25.9659 32.6424 25.6609 32.7415L22.0437 28.9406C21.6816 28.5558 21.2427 28.2513 20.7555 28.047C20.2682 27.8427 19.7434 27.7431 19.2152 27.7546C18.9067 27.7655 18.5993 27.7133 18.3117 27.6011C18.0242 27.489 17.7626 27.3192 17.543 27.1023L16.8849 26.4382L12.9652 22.5186C12.9299 22.4874 12.9016 22.4491 12.8822 22.4062C12.8628 22.3632 12.8528 22.3167 12.8528 22.2695C12.8528 22.2224 12.8628 22.1758 12.8822 22.1329C12.9016 22.0899 12.9299 22.0516 12.9652 22.0205C13.0315 21.957 13.1196 21.9216 13.2113 21.9216C13.303 21.9216 13.3912 21.957 13.4574 22.0205L17.0153 25.5783C17.0599 25.6185 17.1159 25.6436 17.1756 25.65C17.2352 25.6564 17.2953 25.6438 17.3474 25.614L17.5371 25.7978C17.7527 26.0256 18.013 26.2064 18.3018 26.3288C18.5906 26.4513 18.9015 26.5128 19.2152 26.5094C19.7368 26.493 20.256 26.5864 20.7392 26.7835C21.2224 26.9807 21.6587 27.2772 22.02 27.6538C22.1865 27.926 22.3856 28.1769 22.6129 28.401L23.8822 29.587L26.5563 32.3916Z" fill="#111111"/>
<path d="M57.3963 30.5791H75.3081V25.6294H63.1503V21.4221H73.9779V16.9674H63.1503V13.1004H74.9987V8.49097H57.3963V30.5791Z" fill="white"/>
<path d="M83.0597 19.4732C83.3072 18.1429 84.1734 17.4623 85.6892 17.4623C86.772 17.4623 88.2259 17.9264 88.2259 19.1329C88.2259 20.1228 87.731 20.4012 86.8338 20.6178C83.1834 21.3602 77.4912 20.989 77.4912 26.1862C77.4912 29.4963 79.8733 31.0431 82.9669 31.0431C84.9158 31.0431 86.8957 30.5172 88.2569 29.0632C88.3497 29.5892 88.3497 30.0841 88.5662 30.5791H93.8563C93.2375 29.3107 93.2375 27.8258 93.2375 26.4646V19.4422C93.2375 14.8947 89.5562 14.0594 85.7511 14.0594C83.8949 14.0594 82.1007 14.3378 80.6467 15.1731C79.1927 16.0084 78.2337 17.3695 78.1409 19.4732H83.0597ZM82.7503 25.9697C82.7503 24.7013 83.7093 24.2063 84.9158 23.9279C86.0604 23.5876 87.4216 23.5257 88.1641 23.0617C88.2878 26.4028 87.4526 27.7949 84.9468 27.7949C83.7403 27.7949 82.7503 27.2999 82.7503 25.9697Z" fill="white"/>
<path d="M106.378 14.5234H103.13V9.66653H97.8709V14.5234H95.2104V17.9264H97.8709V25.0725C97.8709 29.4035 99.0155 30.7338 103.501 30.7338C104.46 30.7338 105.419 30.61 106.378 30.5791V26.7121C105.914 26.7121 105.481 26.774 105.017 26.774C103.872 26.774 103.13 26.4956 103.13 25.2272V17.9264H106.378V14.5234Z" fill="white"/>
<path d="M113.421 19.4732C113.669 18.1429 114.535 17.4623 116.051 17.4623C117.134 17.4623 118.588 17.9264 118.588 19.1329C118.588 20.1228 118.093 20.4012 117.196 20.6178C113.545 21.3602 107.853 20.989 107.853 26.1862C107.853 29.4963 110.235 31.0431 113.329 31.0431C115.278 31.0431 117.257 30.5172 118.619 29.0632C118.711 29.5892 118.711 30.0841 118.928 30.5791H124.218C123.599 29.3107 123.599 27.8258 123.599 26.4646V19.4422C123.599 14.8947 119.918 14.0594 116.113 14.0594C114.257 14.0594 112.462 14.3378 111.008 15.1731C109.554 16.0084 108.595 17.3695 108.503 19.4732H113.421ZM113.112 25.9697C113.112 24.7013 114.071 24.2063 115.278 23.9279C116.422 23.5876 117.783 23.5257 118.526 23.0617C118.65 26.4028 117.814 27.7949 115.309 27.7949C114.102 27.7949 113.112 27.2999 113.112 25.9697Z" fill="white"/>
<path d="M127.057 30.5791H132.316V21.8243C132.316 20.0919 133.182 18.3904 135.162 18.3904C137.266 18.3904 137.792 19.6588 137.792 21.2056V30.5791H143.051V20.2775C143.051 17.9573 142.618 14.0594 137.266 14.0594C135.348 14.0594 133.213 15.0803 132.223 16.7199H132.161V14.5234H127.057V30.5791Z" fill="white"/>
<path d="M162.104 20.4012C161.702 16.194 158.206 14.0594 154.184 14.0594C149.018 14.0594 145.77 17.7098 145.77 22.8142C145.77 27.7639 149.358 31.0431 154.184 31.0431C158.484 31.0431 161.763 28.5992 162.258 24.2682H157.154C156.906 26.0006 156.009 27.0215 154.153 27.0215C151.926 27.0215 151.029 24.8869 151.029 22.8142C151.029 20.5868 151.493 18.0811 154.432 18.0811C155.762 18.0811 156.999 19.0401 156.999 20.4012H162.104Z" fill="white"/>
<path d="M181.153 23.8351C181.401 18.3904 178.524 14.0594 172.77 14.0594C168.036 14.0594 164.107 17.5861 164.107 22.5049C164.107 27.8877 167.665 31.0431 172.893 31.0431C176.482 31.0431 179.885 29.4345 180.875 25.7222H175.956C175.461 26.9287 174.223 27.4855 172.955 27.4855C170.728 27.4855 169.459 26.0625 169.367 23.8351H181.153ZM169.367 20.8962C169.707 18.9163 170.913 17.617 172.77 17.617C174.533 17.617 175.801 19.071 175.894 20.8962H169.367Z" fill="white"/>
<path d="M57.3895 49.2451H59.6312V45.2615H61.8728C63.0008 45.2615 63.4149 45.7327 63.5719 46.8035C63.6861 47.6174 63.6719 48.6025 63.9289 49.2451H66.1705C65.7565 48.6882 65.785 47.4746 65.7422 46.8321C65.6708 45.7898 65.3567 44.7475 64.2573 44.4476V44.4191C65.3995 43.9622 65.8707 43.0627 65.8707 41.8633C65.8707 40.3213 64.7142 39.0505 62.8866 39.0505H57.3895V49.2451ZM59.6312 40.7925H62.087C63.1007 40.7925 63.629 41.2208 63.629 42.206C63.629 43.234 63.1007 43.6623 62.087 43.6623H59.6312V40.7925Z" fill="white"/>
<path d="M80.0442 46.0468C80.2013 43.7766 78.9733 41.6634 76.4604 41.6634C74.2188 41.6634 72.691 43.3482 72.691 45.5613C72.691 47.8458 74.1331 49.4449 76.4604 49.4449C78.1309 49.4449 79.3446 48.7168 79.9157 46.9606H78.1309C78.0024 47.4175 77.3457 47.9172 76.5318 47.9172C75.3896 47.9172 74.7756 47.3461 74.7185 46.0468H80.0442ZM74.7185 44.7617C74.7613 44.1906 75.0897 43.1912 76.4033 43.1912C77.3885 43.1912 77.8311 43.7337 78.0167 44.7617H74.7185Z" fill="white"/>
<path d="M86.4582 46.8463C86.5296 48.8024 88.2144 49.4449 89.9277 49.4449C91.5983 49.4449 93.2973 48.8167 93.2973 46.8749C93.2973 45.5042 92.1408 45.0759 90.9557 44.8046C89.8135 44.5333 88.657 44.4334 88.657 43.7052C88.657 43.0912 89.3281 43.0198 89.785 43.0198C90.5131 43.0198 91.1128 43.234 91.1699 44.0193H93.0975C92.9404 42.206 91.4412 41.6634 89.8421 41.6634C88.2572 41.6634 86.6295 42.1489 86.6295 44.0336C86.6295 45.3471 87.786 45.7327 88.9711 46.0039C90.4132 46.3038 91.2699 46.5322 91.2699 47.1462C91.2699 47.8601 90.5131 48.0885 89.942 48.0885C89.1567 48.0885 88.3857 47.7173 88.3857 46.8463H86.4582Z" fill="white"/>
<path d="M102.622 39.6502H100.595V41.8633H99.3671V43.2197H100.595V47.5745C100.595 49.0594 101.666 49.3307 102.922 49.3307C103.322 49.3307 103.765 49.3164 104.107 49.2593V47.6745C103.922 47.7173 103.708 47.7316 103.479 47.7316C102.794 47.7316 102.622 47.5602 102.622 46.8749V43.2197H104.107V41.8633H102.622V39.6502Z" fill="white"/>
<path d="M112.582 44.1335C112.654 43.3339 113.139 43.0198 113.924 43.0198C114.638 43.0198 115.238 43.1626 115.238 44.0193C115.238 44.6761 114.624 44.776 113.353 44.9188C111.968 45.0759 110.326 45.3329 110.326 47.2318C110.326 48.7453 111.426 49.4449 112.839 49.4449C113.753 49.4449 114.681 49.2022 115.324 48.5312C115.338 48.7739 115.395 49.0166 115.466 49.2451H117.522C117.337 48.9452 117.265 48.2741 117.265 47.6031V43.7623C117.265 41.9918 115.495 41.6634 114.024 41.6634C112.368 41.6634 110.669 42.2488 110.555 44.1335H112.582ZM115.238 46.3894C115.238 46.8463 115.181 48.0885 113.596 48.0885C112.939 48.0885 112.354 47.8886 112.354 47.1462C112.354 46.2467 113.168 46.1039 114.01 45.9897C114.567 45.9183 115.024 45.8326 115.238 45.6327V46.3894Z" fill="white"/>
<path d="M131.332 41.8633H129.305V45.7327C129.305 47.2318 128.834 47.8458 127.734 47.8458C126.778 47.8458 126.435 47.2461 126.435 46.0325V41.8633H124.408V46.4037C124.408 48.2313 124.95 49.4449 127.106 49.4449C127.963 49.4449 128.848 49.0594 129.362 48.217H129.405V49.2451H131.332V41.8633Z" fill="white"/>
<path d="M138.44 49.2451H140.467V45.9183C140.467 44.6047 140.967 43.5481 142.466 43.5481C142.709 43.5481 143.009 43.5767 143.194 43.6195V41.7348C143.052 41.692 142.909 41.6634 142.752 41.6634C141.738 41.6634 140.781 42.3059 140.396 43.234H140.367V41.8633H138.44V49.2451Z" fill="white"/>
<path d="M151.29 44.1335C151.362 43.3339 151.847 43.0198 152.632 43.0198C153.346 43.0198 153.946 43.1626 153.946 44.0193C153.946 44.6761 153.332 44.776 152.061 44.9188C150.676 45.0759 149.034 45.3329 149.034 47.2318C149.034 48.7453 150.134 49.4449 151.547 49.4449C152.461 49.4449 153.389 49.2022 154.032 48.5312C154.046 48.7739 154.103 49.0166 154.174 49.2451H156.23C156.045 48.9452 155.973 48.2741 155.973 47.6031V43.7623C155.973 41.9918 154.203 41.6634 152.732 41.6634C151.076 41.6634 149.377 42.2488 149.263 44.1335H151.29ZM153.946 46.3894C153.946 46.8463 153.889 48.0885 152.304 48.0885C151.647 48.0885 151.062 47.8886 151.062 47.1462C151.062 46.2467 151.876 46.1039 152.718 45.9897C153.275 45.9183 153.732 45.8326 153.946 45.6327V46.3894Z" fill="white"/>
<path d="M163.116 49.2451H165.143V45.3757C165.143 43.8765 165.614 43.2626 166.714 43.2626C167.67 43.2626 168.013 43.8622 168.013 45.0759V49.2451H170.04V44.7046C170.04 42.877 169.498 41.6634 167.342 41.6634C166.485 41.6634 165.6 42.0489 165.086 42.8913H165.043V41.8633H163.116V49.2451Z" fill="white"/>
<path d="M179.718 39.6502H177.69V41.8633H176.462V43.2197H177.69V47.5745C177.69 49.0594 178.761 49.3307 180.018 49.3307C180.417 49.3307 180.86 49.3164 181.203 49.2593V47.6745C181.017 47.7173 180.803 47.7316 180.574 47.7316C179.889 47.7316 179.718 47.5602 179.718 46.8749V43.2197H181.203V41.8633H179.718V39.6502Z" fill="white"/>
</svg>
