<svg width="51" height="51" viewBox="0 0 51 51" fill="none" xmlns="http://www.w3.org/2000/svg">
<path d="M25.542 49.0078C38.7968 49.0078 49.542 38.2626 49.542 25.0078C49.542 11.753 38.7968 1.00781 25.542 1.00781C12.2872 1.00781 1.54199 11.753 1.54199 25.0078C1.54199 38.2626 12.2872 49.0078 25.542 49.0078Z" stroke="black" stroke-width="2"/>
<path d="M34.2649 18.8239C33.706 18.0801 33.0933 17.3782 32.4319 16.7239C31.7776 16.0625 31.0757 15.4499 30.3319 14.8909C29.8067 14.3976 29.1367 14.0866 28.4209 14.0039H17.9979C17.5514 14.0047 17.1236 14.1827 16.8084 14.4989C16.4931 14.8151 16.3164 15.2435 16.3169 15.6899V33.8539C16.3174 34.2998 16.4948 34.7274 16.8101 35.0427C17.1254 35.358 17.553 35.5354 17.9989 35.5359H33.4709C33.9168 35.5354 34.3443 35.358 34.6597 35.0427C34.975 34.7274 35.1524 34.2998 35.1529 33.8539V20.7349C35.0702 20.0191 34.7592 19.3491 34.2659 18.8239H34.2649ZM31.4809 17.6799C32.0247 18.2176 32.5344 18.7887 33.0069 19.3899H29.7699V16.1539C30.3715 16.6264 30.943 17.136 31.4809 17.6799ZM33.8069 33.8539C33.8056 33.9426 33.7698 34.0273 33.7071 34.0901C33.6443 34.1528 33.5596 34.1886 33.4709 34.1899H17.9979C17.9092 34.1886 17.8245 34.1528 17.7617 34.0901C17.699 34.0273 17.6632 33.9426 17.6619 33.8539V15.6899C17.6632 15.6012 17.699 15.5165 17.7617 15.4537C17.8245 15.391 17.9092 15.3552 17.9979 15.3539H28.4249V20.0629C28.4249 20.2414 28.4958 20.4126 28.622 20.5388C28.7482 20.665 28.9194 20.7359 29.0979 20.7359H33.8069V33.8539Z" fill="black"/>
</svg>
