<?xml version="1.0" encoding="UTF-8"?>
<svg xmlns="http://www.w3.org/2000/svg" id="Layer_1" data-name="Layer 1" viewBox="0 0 64 64" width="30" height="30"><path d="M62.25,25.15A6,6,0,0,0,55,24.23V16a6,6,0,0,0-6-6H46V6a6,6,0,0,0-6-6H6A6,6,0,0,0,0,6V24a2,2,0,0,0,4,0V6A2,2,0,0,1,6,4H40a2,2,0,0,1,2,2v4H15a6,6,0,0,0-6,6V34a2,2,0,0,0,4,0V16a2,2,0,0,1,2-2H49a2,2,0,0,1,2,2V27.91L35.38,43.54a1.92,1.92,0,0,0-.49.78L32.06,52.8A2,2,0,0,0,34,55.44a1.94,1.94,0,0,0,.63-.11l8.49-2.83a1.92,1.92,0,0,0,.78-.48L51,44.88V58a2,2,0,0,1-2,2H15a2,2,0,0,1-2-2V42a2,2,0,0,0-4,0v8H6a2,2,0,0,1-2-2V32a2,2,0,0,0-4,0V48a6,6,0,0,0,6,6H9v4a6,6,0,0,0,6,6H49a6,6,0,0,0,6-6V40.88l7.25-7.24A6,6,0,0,0,62.25,25.15Zm-2.83,5.66L41.37,48.86l-4.25,1.41L38.54,46,54.36,30.21l.1-.1L56.59,28a2,2,0,0,1,2.83,2.83Z"/><circle cx="39" cy="30" r="2"/><path d="M31,32a2,2,0,0,0,0-4H20a2,2,0,0,0,0,4Z"/></svg>