<svg width="23" height="19" viewBox="0 0 23 19" fill="none" xmlns="http://www.w3.org/2000/svg">
<path fill-rule="evenodd" clip-rule="evenodd" d="M11.425 0.106262C9.09529 0.106262 7.07623 0.727512 5.36779 1.97001L6.61029 3.0572C8.0081 2.12532 9.56123 1.65939 11.425 1.65939C16.5503 1.65939 20.7437 5.85282 20.7437 10.9781H22.2969C22.2969 4.92095 17.4822 0.106262 11.425 0.106262ZM0.553101 1.65939L3.0381 3.98907C1.48498 5.85282 0.553101 8.33782 0.553101 10.9781H2.10623C2.10623 8.64845 2.88279 6.62939 4.2806 5.07626L7.69748 8.18251C7.07623 8.95907 6.7656 9.89095 6.7656 10.9781C6.7656 13.6184 8.78466 15.6375 11.425 15.6375C12.6675 15.6375 13.7547 15.1716 14.5312 14.395L19.1906 18.7438L20.2778 17.6566L1.64029 0.5722L0.553101 1.65939ZM8.78466 9.2697L13.2887 13.4631C12.8228 13.7738 12.2015 14.0844 11.425 14.0844C9.71654 14.0844 8.31873 12.6866 8.31873 10.9781C8.31873 10.3569 8.47404 9.73564 8.78466 9.2697ZM16.0844 11.7547L14.5312 10.3569C14.2206 9.11439 13.1334 8.0272 11.7356 7.87189L10.1825 6.47407C10.6484 6.31876 10.959 6.31876 11.425 6.31876C14.0653 6.31876 16.0844 8.33782 16.0844 10.9781V11.7547Z" fill="#515151"/>
</svg>
