<svg width="22" height="17" viewBox="0 0 22 17" fill="none" xmlns="http://www.w3.org/2000/svg">
<path fill-rule="evenodd" clip-rule="evenodd" d="M0.214627 11.3443C0.199972 5.2875 5.00267 0.461496 11.0594 0.446842C17.1162 0.432188 21.9422 5.23489 21.9569 11.2917L20.4038 11.2954C20.3914 6.17046 16.1881 1.98746 11.0632 1.99986C5.93824 2.01226 1.75524 6.21555 1.76764 11.3405L0.214627 11.3443ZM6.42669 11.3292C6.4203 8.6891 8.43434 6.6653 11.0745 6.65891C13.7146 6.65252 15.7384 8.66656 15.7448 11.3067C15.7512 13.9468 13.7371 15.9706 11.097 15.977C8.45689 15.9834 6.43308 13.9694 6.42669 11.3292ZM7.97971 11.3255C7.98384 13.0338 9.38494 14.4281 11.0933 14.424C12.8016 14.4199 14.1959 13.0188 14.1918 11.3104C14.1876 9.60212 12.7865 8.20779 11.0782 8.21192C9.36991 8.21606 7.97557 9.61715 7.97971 11.3255Z" fill="#515151"/>
</svg>
