<svg width="51" height="51" viewBox="0 0 51 51" fill="none" xmlns="http://www.w3.org/2000/svg">
<path d="M25.542 49.0078C38.7968 49.0078 49.542 38.2626 49.542 25.0078C49.542 11.753 38.7968 1.00781 25.542 1.00781C12.2872 1.00781 1.54199 11.753 1.54199 25.0078C1.54199 38.2626 12.2872 49.0078 25.542 49.0078Z" stroke="black" stroke-width="2"/>
<path d="M32.3095 11.1617C28.132 11.1617 24.7335 14.5602 24.7335 18.7378C24.7335 22.9154 28.132 26.3138 32.3095 26.3138C36.4872 26.3138 39.8856 22.9154 39.8856 18.7378C39.8856 14.5602 36.4872 11.1617 32.3095 11.1617ZM32.3095 24.4797C29.1434 24.4797 26.5676 21.9039 26.5676 18.7378C26.5676 15.5718 29.1434 12.9958 32.3095 12.9958C35.4757 12.9958 38.0515 15.5718 38.0515 18.7378C38.0515 21.9039 35.4757 24.4797 32.3095 24.4797Z" fill="black" stroke="black" stroke-width="0.2"/>
<path d="M31.8042 19.5292L31.8042 19.5292C31.6532 19.3782 31.5846 19.1784 31.5922 18.9825C31.5921 18.9816 31.5919 18.9805 31.5917 18.979L31.5917 18.9787C31.591 18.9737 31.5895 18.9629 31.5895 18.9505V15.6148C31.5895 15.2097 31.9178 14.8814 32.3228 14.8814C32.7278 14.8814 33.0561 15.2097 33.0561 15.6148V18.7068L35.2001 20.8507C35.2001 20.8507 35.2001 20.8507 35.2001 20.8507C35.4866 21.1371 35.4864 21.6014 35.2002 21.8878L31.8042 19.5292ZM31.8042 19.5292L34.1631 21.8878M31.8042 19.5292L34.1631 21.8878M34.1631 21.8878C34.1631 21.8878 34.1631 21.8878 34.1631 21.8878M34.1631 21.8878L34.1631 21.8878M34.1631 21.8878C34.4495 22.1743 34.9139 22.1743 35.2001 21.8878L34.1631 21.8878Z" fill="black" stroke="black" stroke-width="0.2"/>
<path d="M37.0668 26.9295C36.5614 26.9295 36.1513 27.3397 36.1513 27.8451V33.4541H13.5153V23.8672H22.3866C22.892 23.8672 23.3022 23.4571 23.3022 22.9517C23.3022 22.4462 22.892 22.0361 22.3866 22.0361H13.5153V18.9738H22.3866C22.892 18.9738 23.3022 18.5637 23.3022 18.0582C23.3022 17.5528 22.892 17.1427 22.3866 17.1427H13.4153C12.4597 17.1427 11.6842 17.9182 11.6842 18.8738V33.5541C11.6842 34.5097 12.4597 35.2852 13.4153 35.2852H36.2513C37.2069 35.2852 37.9824 34.5097 37.9824 33.5541V27.8451C37.9824 27.3397 37.5723 26.9295 37.0668 26.9295Z" fill="black" stroke="black" stroke-width="0.2"/>
<path d="M19.1242 26.9312H15.862C15.3565 26.9312 14.9464 27.3414 14.9464 27.8468C14.9464 28.3522 15.3565 28.7624 15.862 28.7624H19.1242C19.6297 28.7624 20.0398 28.3522 20.0398 27.8468C20.0398 27.3414 19.6297 26.9312 19.1242 26.9312Z" fill="black" stroke="black" stroke-width="0.2"/>
</svg>
