<svg width="122" height="23" viewBox="0 0 122 23" fill="none" xmlns="http://www.w3.org/2000/svg">
<path d="M5.44199 1.29781V22.5078H0.311992V1.29781H5.44199ZM27.8239 22.5078H22.6939L14.1139 9.48781V22.5078H8.98387V1.29781H14.1139L22.6939 14.4378V1.29781H27.8239V22.5078ZM35.3267 1.29781L40.5167 17.2578L45.7067 1.29781H51.1967L43.8167 22.5078H37.1867L29.8367 1.29781H35.3267ZM63.2436 0.967811C65.2436 0.967811 67.0536 1.43781 68.6736 2.37781C70.3136 3.29781 71.6036 4.58781 72.5436 6.24781C73.4836 7.88781 73.9536 9.74781 73.9536 11.8278C73.9536 13.9078 73.4736 15.7778 72.5136 17.4378C71.5736 19.0978 70.2836 20.3978 68.6436 21.3378C67.0236 22.2578 65.2236 22.7178 63.2436 22.7178C61.2636 22.7178 59.4536 22.2578 57.8136 21.3378C56.1936 20.3978 54.9036 19.0978 53.9436 17.4378C53.0036 15.7778 52.5336 13.9078 52.5336 11.8278C52.5336 9.74781 53.0036 7.88781 53.9436 6.24781C54.9036 4.58781 56.1936 3.29781 57.8136 2.37781C59.4536 1.43781 61.2636 0.967811 63.2436 0.967811ZM63.2436 5.73781C61.5636 5.73781 60.2236 6.28781 59.2236 7.38781C58.2436 8.46781 57.7536 9.94781 57.7536 11.8278C57.7536 13.6878 58.2436 15.1678 59.2236 16.2678C60.2236 17.3678 61.5636 17.9178 63.2436 17.9178C64.9036 17.9178 66.2336 17.3678 67.2336 16.2678C68.2336 15.1678 68.7336 13.6878 68.7336 11.8278C68.7336 9.96781 68.2336 8.48781 67.2336 7.38781C66.2536 6.28781 64.9236 5.73781 63.2436 5.73781ZM81.9654 1.29781V22.5078H76.8354V1.29781H81.9654ZM95.1973 1.08781C97.8973 1.08781 100.127 1.79781 101.887 3.21781C103.667 4.63781 104.817 6.55781 105.337 8.97781H99.9073C99.5073 7.99781 98.8873 7.22781 98.0473 6.66781C97.2273 6.10781 96.2473 5.82781 95.1073 5.82781C93.6073 5.82781 92.3973 6.37781 91.4773 7.47781C90.5573 8.57781 90.0973 10.0478 90.0973 11.8878C90.0973 13.7278 90.5573 15.1978 91.4773 16.2978C92.3973 17.3778 93.6073 17.9178 95.1073 17.9178C96.2473 17.9178 97.2273 17.6378 98.0473 17.0778C98.8873 16.5178 99.5073 15.7578 99.9073 14.7978H105.337C104.817 17.1978 103.667 19.1178 101.887 20.5578C100.127 21.9778 97.8973 22.6878 95.1973 22.6878C93.1373 22.6878 91.3273 22.2378 89.7673 21.3378C88.2073 20.4178 86.9973 19.1378 86.1373 17.4978C85.2973 15.8578 84.8773 13.9878 84.8773 11.8878C84.8773 9.78781 85.2973 7.91781 86.1373 6.27781C86.9973 4.63781 88.2073 3.36781 89.7673 2.46781C91.3273 1.54781 93.1373 1.08781 95.1973 1.08781ZM113.342 5.37781V9.81781H120.512V13.6878H113.342V18.3978H121.412V22.5078H108.212V1.29781H121.412V5.37781H113.342Z" fill="black"/>
</svg>
