<svg id="Capa_1" enable-background="new 0 0 512 512" height="30" viewBox="0 0 512 512" width="30" xmlns="http://www.w3.org/2000/svg"><g><path d="m512 256.226v-35.223c0-29.968-24.381-54.349-54.349-54.349h-46.251l-81.688-166.595-26.937 13.208 75.211 153.387h-244.547l75.211-153.387-26.937-13.208-81.687 166.595h-45.676c-29.969 0-54.35 24.381-54.35 54.349v35.223h31.377l30.002 255.715h350.731c54.8 0 99.384-45.385 99.384-100.186 0-32.709-15.887-61.775-40.346-79.897l8.902-75.632zm-482-35.223c0-13.426 10.923-24.349 24.35-24.349h403.301c13.426 0 24.349 10.923 24.349 24.349v5.223h-452zm382.11 260.136c-38.259 0-69.384-31.125-69.384-69.384 0-38.258 31.125-69.384 69.384-69.384 38.258 0 69.384 31.125 69.384 69.384s-31.126 69.384-69.384 69.384zm-60.358-148.283v-11.055c0-6.54 5.019-11.861 11.188-11.861 5.584 0 10.211 4.364 11.042 10.04-7.989 3.332-15.452 7.679-22.23 12.876zm90.916-15.672c-9.632-3.12-19.9-4.813-30.558-4.813-3.019 0-6.005.143-8.956.408-4.072-18.758-20.551-32.839-40.213-32.839-22.711 0-41.188 18.779-41.188 41.861v48.592c-5.791 12.601-9.026 26.61-9.026 41.362 0 26.97 10.803 51.46 28.304 69.384h-252.976l-26.471-224.913h388.258z"/><path d="m148.486 457.49c22.711 0 41.188-18.779 41.188-41.861v-93.828c0-23.082-18.477-41.861-41.188-41.861s-41.188 18.779-41.188 41.861v93.828c0 23.082 18.477 41.861 41.188 41.861zm-11.188-135.689c0-6.54 5.019-11.861 11.188-11.861s11.188 5.321 11.188 11.861v93.828c0 6.54-5.019 11.861-11.188 11.861s-11.188-5.321-11.188-11.861z"/><path d="m255.713 457.49c22.711 0 41.188-18.779 41.188-41.861v-93.828c0-23.082-18.477-41.861-41.188-41.861s-41.188 18.779-41.188 41.861v93.828c0 23.082 18.477 41.861 41.188 41.861zm-11.188-135.689c0-6.54 5.019-11.861 11.188-11.861s11.188 5.321 11.188 11.861v93.828c0 6.54-5.019 11.861-11.188 11.861s-11.188-5.321-11.188-11.861z"/><path d="m430.333 372.319-18.223 18.223-18.223-18.223-21.213 21.213 18.223 18.223-18.223 18.223 21.213 21.213 18.223-18.223 18.223 18.223 21.212-21.213-18.222-18.223 18.222-18.223z"/></g></svg>