<svg width="30" height="30" viewBox="0 0 30 30" fill="none" xmlns="http://www.w3.org/2000/svg">
<g clip-path="url(#clip0_313_15)">
<path d="M29.9199 21.3904C29.2719 18.7982 28.091 17.3717 26.8001 16.6231C27.1516 16.1751 27.362 15.6113 27.362 14.9989C27.362 14.6908 27.3084 14.3951 27.2109 14.12H27.362C28.8159 14.12 29.9987 12.9373 29.9987 11.4834V4.45253C29.9987 2.99869 28.8159 1.81592 27.362 1.81592H20.3311C18.8773 1.81592 17.6945 2.99869 17.6945 4.45253V11.4834C17.6945 11.8266 17.7611 12.1542 17.8809 12.4552C16.762 12.7603 15.9368 13.7848 15.9368 14.999V16.7567C15.9368 16.9995 16.0353 17.2193 16.1943 17.3783C17.7071 18.891 17.7848 21.3025 16.4295 22.9088H12.3041V22.03C12.3041 22.0299 12.3041 22.0299 12.3041 22.0298V13.2413C12.3041 12.2528 11.9758 11.3396 11.4229 10.6047H13.183C13.6684 10.6047 14.0619 10.2112 14.0619 9.72586C14.0619 9.24046 13.6684 8.84701 13.183 8.84701H10.5464V7.96816C10.5464 6.51433 9.36365 5.33155 7.90982 5.33155H6.15206C5.66667 5.33155 5.27321 5.72507 5.27321 6.2104V9.72586C5.27321 10.2112 5.66673 10.6047 6.15206 10.6047H6.72517L5.09978 15.9683C2.20706 16.4689 0 18.9964 0 22.0299V23.7877C0 26.2562 2.00895 28.1842 4.38757 28.1842C6.51359 28.1842 8.29355 26.8455 8.70599 24.6665C8.99785 24.6665 17.1275 24.6665 17.783 24.6665C18.1913 26.6699 19.9667 28.182 22.089 28.182C24.2112 28.182 25.9866 26.6699 26.3949 24.6665H27.3621C29.0772 24.6665 30.3363 23.0557 29.9199 21.3904ZM7.03091 7.08913H7.90976C8.39439 7.08913 8.78861 7.48341 8.78861 7.96798V8.84683C8.15252 8.84683 7.66695 8.84683 7.03085 8.84683V7.08913H7.03091ZM5.73505 26.0996C3.70143 27.0871 1.7577 25.6612 1.7577 23.7876C1.7577 22.3339 2.94042 21.1511 4.39407 21.151C4.39413 21.151 4.39413 21.151 4.39419 21.151C4.39425 21.151 4.39425 21.151 4.39431 21.151C5.84814 21.151 7.03091 22.3338 7.03091 23.7876C7.03091 24.8099 6.52226 25.7174 5.73505 26.0996ZM10.5464 22.9088H8.70025C8.29197 20.9055 6.51652 19.3933 4.39431 19.3933C4.39425 19.3933 4.39419 19.3933 4.39413 19.3933C4.39407 19.3933 4.39401 19.3933 4.39395 19.3933C3.63358 19.3934 2.9178 19.5877 2.29342 19.9292C3.03973 18.5638 4.48946 17.6356 6.15206 17.6356C8.5751 17.6356 10.5464 19.6069 10.5464 22.03V22.9088V22.9088ZM10.5464 17.7291C9.60424 16.7666 8.34963 16.1111 6.94824 15.9292L8.53888 10.6804C9.69002 10.9632 10.5464 12.004 10.5464 13.2412V17.7291ZM19.4522 4.45258C19.4522 3.96795 19.8465 3.57373 20.3311 3.57373H27.362C27.8466 3.57373 28.2408 3.96801 28.2408 4.45258V5.33143H19.4522V4.45258ZM19.4522 7.08913H28.2409V11.4835C28.2409 11.9681 27.8466 12.3623 27.362 12.3623C27.0704 12.3623 20.6668 12.3623 20.3311 12.3623C19.8465 12.3623 19.4523 11.9681 19.4523 11.4835V7.08913H19.4522ZM17.6945 15.8778V14.999C17.6945 14.5143 18.0888 14.1201 18.5734 14.1201C19.1895 14.1201 24.111 14.1201 24.7254 14.1201C25.2101 14.1201 25.6043 14.5144 25.6043 14.999C25.6043 15.4836 25.21 15.8778 24.7254 15.8778C24.0576 15.8778 19.3313 15.8778 18.5734 15.8778H17.6945ZM22.0888 26.4242C20.9431 26.4242 19.9662 25.6777 19.6034 24.6548H24.5743C24.2115 25.6777 23.2346 26.4242 22.0888 26.4242ZM27.362 22.9088H18.5231C19.3558 21.2561 19.3557 19.2883 18.523 17.6356H18.5734H23.8601C26.0869 17.6356 27.5113 19.0033 28.2146 21.8168C28.3533 22.3712 27.9344 22.9088 27.362 22.9088Z" fill="black"/>
<path d="M4.39435 24.6664C4.87973 24.6664 5.2732 24.2729 5.2732 23.7875C5.2732 23.3022 4.87973 22.9087 4.39435 22.9087C3.90898 22.9087 3.5155 23.3022 3.5155 23.7875C3.5155 24.2729 3.90898 24.6664 4.39435 24.6664Z" fill="black"/>
<path d="M23.8466 19.3931H22.0888C21.6034 19.3931 21.21 19.7866 21.21 20.2719C21.21 20.7572 21.6035 21.1508 22.0888 21.1508H23.8466C24.332 21.1508 24.7254 20.7572 24.7254 20.2719C24.7254 19.7866 24.332 19.3931 23.8466 19.3931Z" fill="black"/>
</g>
<defs>
<clipPath id="clip0_313_15">
<rect width="30" height="30" fill="white"/>
</clipPath>
</defs>
</svg>