<svg height="30" viewBox="-21 -21 682.66669 682.66669" width="30" xmlns="http://www.w3.org/2000/svg"><path d="m589.234375 419.703125c-35.335937-31.050781-88.40625-66.21875-160.714844-84.972656 46.308594-33.65625 76.480469-88.230469 76.480469-149.730469 0-102.007812-82.992188-185-185-185s-185 82.992188-185 185c0 61.5 30.171875 116.074219 76.484375 149.730469-72.3125 18.753906-125.382813 53.921875-160.71875 84.972656-32.257813 28.34375-50.765625 69.34375-50.765625 112.484375v107.8125h640v-107.8125c0-43.140625-18.507812-84.140625-50.765625-112.484375zm-404.234375-234.703125c0-74.4375 60.5625-135 135-135s135 60.5625 135 135-60.5625 135-135 135-135-60.5625-135-135zm405 405h-540v-57.8125c0-28.757812 12.308594-56.070312 33.769531-74.925781 44.660157-39.238281 121.894531-86.011719 236.230469-86.011719s191.570312 46.773438 236.230469 86.011719c21.460937 18.855469 33.769531 46.167969 33.769531 74.925781zm0 0"/></svg>