<svg width="30" height="30" viewBox="0 0 30 30" fill="none" xmlns="http://www.w3.org/2000/svg">
<g clip-path="url(#clip0_309_2)">
<path d="M3.04354 15.6016C2.52662 10.1985 1.74334 5.75277 1.73209 5.68604L0 5.98645C0.017168 6.08687 1.75781 16.1145 1.75781 24.2933H3.51562C3.51562 22.5785 3.43945 20.7872 3.32221 19.0199H8.84766V24.2933H10.6055C10.6055 21.7888 10.6055 17.0815 10.6055 17.2621C10.6055 15.6542 9.54481 15.5042 7.95504 15.5042L4.52502 15.5051C3.96035 15.5051 3.46195 15.5178 3.04354 15.6016V15.6016Z" fill="black"/>
<path d="M14.1211 22.5356H12.3633V24.2935H17.6367V22.5356H15.8789V11.9888H22.9102V8.47314H7.08984V11.9888H14.1211V22.5356Z" fill="black"/>
<path d="M30 5.98645L28.2679 5.68604C28.2567 5.75277 27.4732 10.1985 26.9563 15.6015C26.5379 15.5177 26.0396 15.5051 25.475 15.5051L22.045 15.5042C20.4551 15.5042 19.3945 15.6542 19.3945 17.262C19.3945 17.5909 19.3945 24.75 19.3945 24.2932H21.1523V19.0192H26.6778C26.5605 20.7866 26.4844 22.5785 26.4844 24.2933H28.2422C28.2422 16.1145 29.9828 6.08687 30 5.98645V5.98645Z" fill="black"/>
</g>
<defs>
<clipPath id="clip0_309_2">
<rect width="30" height="30" fill="white"/>
</clipPath>
</defs>
</svg>