<svg width="33" height="33" viewBox="0 0 33 33" fill="none" xmlns="http://www.w3.org/2000/svg">
<path d="M16.542 32.0078C25.3785 32.0078 32.542 24.8444 32.542 16.0078C32.542 7.17126 25.3785 0.0078125 16.542 0.0078125C7.70544 0.0078125 0.541992 7.17126 0.541992 16.0078C0.541992 24.8444 7.70544 32.0078 16.542 32.0078Z" fill="black"/>
<path d="M24.432 11.5358C23.8342 11.7963 23.2021 11.9694 22.555 12.0498C23.2368 11.6453 23.7467 11.0049 23.988 10.2498C23.3494 10.6287 22.6506 10.8955 21.922 11.0388C21.4754 10.5616 20.8956 10.2298 20.2579 10.0865C19.6202 9.94327 18.9542 9.99517 18.3464 10.2355C17.7386 10.4758 17.2172 10.8934 16.8499 11.434C16.4827 11.9746 16.2865 12.6132 16.287 13.2668C16.2847 13.5158 16.3102 13.7643 16.363 14.0078C15.067 13.9443 13.799 13.608 12.6419 13.0209C11.4848 12.4338 10.4646 11.6091 9.64799 10.6008C9.22849 11.3173 9.09838 12.1669 9.28424 12.9761C9.4701 13.7854 9.95789 14.4931 10.648 14.9548C10.1324 14.9414 9.6275 14.8042 9.17599 14.5548V14.5908C9.17717 15.3428 9.43731 16.0715 9.91265 16.6543C10.388 17.2371 11.0495 17.6384 11.786 17.7908C11.5073 17.8641 11.2201 17.9001 10.932 17.8978C10.7249 17.9013 10.518 17.8826 10.315 17.8418C10.5263 18.488 10.9326 19.0528 11.478 19.4586C12.0235 19.8644 12.6813 20.0912 13.361 20.1078C12.2083 21.0108 10.7862 21.5012 9.32199 21.5008C9.06132 21.5028 8.80078 21.4881 8.54199 21.4568C10.0323 22.4172 11.769 22.925 13.542 22.9188C14.7618 22.9273 15.9712 22.6933 17.0998 22.2305C18.2284 21.7677 19.2539 21.0852 20.1165 20.2227C20.9792 19.3603 21.6619 18.335 22.125 17.2064C22.588 16.0779 22.8222 14.8686 22.814 13.6488C22.814 13.5048 22.814 13.3658 22.802 13.2278C23.4436 12.7674 23.9959 12.1941 24.432 11.5358Z" fill="white"/>
</svg>
