<svg width="298" height="81" viewBox="0 0 298 81" fill="none" xmlns="http://www.w3.org/2000/svg">
<path d="M82.1242 42H100.869V36.9849H87.6736V30.12H97.005V25.3927H87.6736V19.8843H100.376V14.8692H82.1242V42ZM122.378 29.9145C122.378 24.2828 118.966 21.1997 113.663 21.1997C110.087 21.1997 107.127 22.5974 104.784 25.3927L107.662 28.8046C109.47 26.8725 110.95 26.0093 113.047 26.0093C115.513 26.0093 116.829 27.3247 116.829 29.5856V30.49H111.731C107.004 30.49 104.044 32.7509 104.044 36.4094C104.044 39.9857 106.757 42.4933 111.074 42.4933C113.663 42.4933 115.801 41.5478 117.281 40.0269V42H122.378V29.9145ZM116.829 34.3952C116.829 36.7383 114.979 38.4237 112.553 38.4237C110.786 38.4237 109.635 37.5604 109.635 36.2039C109.635 34.8473 110.663 34.1485 112.471 34.1485H116.829V34.3952ZM140.791 37.3549C139.352 37.4782 138.489 37.5193 138.16 37.5193C135.529 37.5193 134.378 36.6561 134.378 34.354V26.3381H140.133V21.6519H134.378V16.5135H128.829V21.6519H125.622V26.3381H128.829V34.8473C128.829 39.9446 131.83 42.4933 136.968 42.4933C138.201 42.4933 139.476 42.3289 140.791 42V37.3549ZM161.88 29.9145C161.88 24.2828 158.468 21.1997 153.165 21.1997C149.589 21.1997 146.629 22.5974 144.286 25.3927L147.163 28.8046C148.972 26.8725 150.452 26.0093 152.548 26.0093C155.015 26.0093 156.33 27.3247 156.33 29.5856V30.49H151.233C146.506 30.49 143.546 32.7509 143.546 36.4094C143.546 39.9857 146.259 42.4933 150.575 42.4933C153.165 42.4933 155.302 41.5478 156.782 40.0269V42H161.88V29.9145ZM156.33 34.3952C156.33 36.7383 154.48 38.4237 152.055 38.4237C150.287 38.4237 149.136 37.5604 149.136 36.2039C149.136 34.8473 150.164 34.1485 151.973 34.1485H156.33V34.3952ZM185.924 29.3801C185.924 24.4472 183.006 21.1997 178.278 21.1997C175.853 21.1997 173.756 22.063 172.318 23.5017V21.6519H167.22V42H172.77V30.12C172.77 27.7769 174.373 26.1737 176.634 26.1737C178.895 26.1737 180.416 27.7769 180.416 30.12V42H185.924V29.3801ZM190.115 31.8054C190.033 37.6837 195.048 42.6166 201.009 42.4933C204.955 42.4933 208.079 40.5612 209.847 37.4371L205.983 34.4774C204.667 36.3272 203.188 37.396 201.091 37.396C197.967 37.396 195.747 35.0529 195.747 31.8054C195.747 28.6401 197.967 26.2559 201.091 26.2559C203.229 26.2559 204.709 27.3658 205.983 29.2156L209.847 26.2148C208.079 23.0907 204.996 21.1997 201.009 21.1997C194.966 21.1997 190.115 25.8448 190.115 31.8054ZM232.25 33.6963C232.497 32.6687 232.62 31.641 232.62 30.6544C232.62 25.3516 228.674 21.1997 223.042 21.1997C217.164 21.0764 212.272 25.9682 212.395 31.8465C212.272 37.7248 217.246 42.6166 223.535 42.4933C226.536 42.4933 229.249 41.4656 231.675 39.4513L229.373 35.6695C227.605 37.026 225.714 37.7248 223.7 37.7248C220.74 37.7248 218.644 36.2861 217.986 33.6963H232.25ZM217.986 29.7911C218.602 27.2836 220.493 25.6804 222.837 25.6804C225.262 25.6804 227.194 27.2836 227.235 29.7911H217.986Z" fill="#FFB300"/>
<g clip-path="url(#clip0)">
<path d="M30.0291 0C13.4715 0 0 13.462 0 30.0032C0 52.1373 27.7052 78.4482 28.8868 79.5502C29.1966 79.8407 29.6054 80.0023 30.0302 80.0023C30.455 80.0023 30.8638 79.8407 31.1736 79.5502C32.353 78.4395 60.0626 52.1308 60.0626 29.9966C60.0626 13.462 46.5889 0 30.0291 0ZM30.0291 46.6709C26.1661 46.6735 22.4217 45.3377 19.4341 42.8909C16.4465 40.4442 14.4005 37.038 13.6449 33.2529C12.8893 29.4678 13.4708 25.538 15.2903 22.1333C17.1098 18.7285 20.0548 16.0596 23.6232 14.5813C27.1916 13.103 31.1627 12.9068 34.8597 14.0262C38.5566 15.1456 41.7507 17.5113 43.8974 20.7201C46.0442 23.9289 47.0109 27.7822 46.6326 31.6233C46.2544 35.4645 44.5547 39.0557 41.8232 41.7849C40.2753 43.334 38.4368 44.5628 36.4131 45.4012C34.3893 46.2396 32.2199 46.6711 30.0291 46.6709Z" fill="#FCB316"/>
<path d="M47.4735 33.2393C48.2875 29.9029 48.096 26.3994 46.9229 23.1721C45.7499 19.9448 43.6481 17.1384 40.8834 15.108C38.1187 13.0775 34.8152 11.9142 31.3906 11.765C27.966 11.6158 24.5742 12.4875 21.644 14.2699C18.7139 16.0523 16.377 18.6653 14.9289 21.7784C13.4808 24.8916 12.9865 28.3651 13.5085 31.7598C14.0305 35.1544 15.5454 38.3177 17.8617 40.8497C20.1779 43.3816 23.1914 45.1685 26.5211 45.9844C28.732 46.5261 31.0278 46.6262 33.2773 46.2788C35.5268 45.9315 37.686 45.1436 39.6316 43.9601C41.5773 42.7766 43.2712 41.2207 44.6167 39.3812C45.9622 37.5417 46.9329 35.4547 47.4735 33.2393Z" fill="white"/>
<path d="M46.5068 22.8727C48.1462 27.1334 48.0329 31.8689 46.1916 36.0464C44.3504 40.224 40.9298 43.7413 36.6773 45.4097C45.3357 42.2707 52.8409 30.6524 49.4161 21.7641C45.9914 12.8757 33.1158 9.54479 24.2548 12.9775C26.3632 12.1647 28.6552 11.7748 30.9143 11.8326C33.1735 11.8905 35.3989 12.3936 37.4629 13.3132C39.5268 14.2327 41.3887 15.5506 42.9414 17.1911C44.4942 18.8316 45.7074 20.7624 46.5112 22.8727H46.5068Z" fill="#EDA121"/>
<path d="M14.4346 35.4215C13.6182 33.309 13.2257 31.0559 13.2796 28.7912C13.3334 26.5265 13.8326 24.2947 14.7485 22.2236C15.6644 20.1526 16.9789 18.283 18.6169 16.7221C20.2549 15.1611 22.1562 13.7785 24.2661 12.9661C15.4137 16.379 8.1421 27.6237 11.5559 36.4985C14.9697 45.3734 27.9371 48.8041 36.8266 45.3912C34.7209 46.2087 32.3222 46.4859 30.0647 46.4331C27.8073 46.3802 25.5823 45.882 23.517 44.967C21.4517 44.0519 19.5866 42.7379 18.0282 41.1C16.4698 39.4622 15.2487 37.5325 14.4346 35.4215Z" fill="#EDA121"/>
<g filter="url(#filter0_d)">
<path d="M21.0427 22.0876H31.5824V24.9811H24.2474V28.1593H29.6359V30.8898H24.2474V34.8506H31.8673V37.7442H21.0427V22.0876Z" fill="#FCB316"/>
</g>
<g filter="url(#filter1_d)">
<path d="M40.2526 28.2541V29.8461H33.511V29.4666L36.775 25.9268C37.6652 24.9455 38.0628 24.3081 38.0628 23.6291C38.0771 23.4551 38.0544 23.28 37.9962 23.1153C37.9381 22.9506 37.8457 22.8001 37.7252 22.6735C37.6048 22.547 37.4589 22.4474 37.2972 22.3811C37.1355 22.3148 36.9615 22.2835 36.7868 22.2891C36.0124 22.2891 35.502 22.8553 35.502 23.6855C35.5095 23.9081 35.5323 24.13 35.5703 24.3496H33.689C33.6207 24.0974 33.5878 23.837 33.5911 23.5758C33.5911 22.0252 34.8641 20.5607 36.8165 20.5607C38.6414 20.5607 39.9856 21.8177 39.9856 23.4779C39.9873 24.0897 39.8143 24.6893 39.4871 25.2064C39.06 25.8574 38.569 26.4642 38.0212 27.0178L36.8343 28.263L40.2526 28.2541Z" fill="#FCB316"/>
</g>
</g>
<path d="M83.646 55.558V58.414H87.006V59.716H83.646V62.698H87.426V64H82.05V54.256H87.426V55.558H83.646ZM98.7298 56.16C99.3365 56.16 99.8778 56.286 100.354 56.538C100.839 56.79 101.217 57.1633 101.488 57.658C101.768 58.1527 101.908 58.75 101.908 59.45V64H100.326V59.688C100.326 58.9973 100.153 58.47 99.8078 58.106C99.4625 57.7327 98.9911 57.546 98.3938 57.546C97.7965 57.546 97.3205 57.7327 96.9658 58.106C96.6205 58.47 96.4478 58.9973 96.4478 59.688V64H94.8658V59.688C94.8658 58.9973 94.6931 58.47 94.3478 58.106C94.0025 57.7327 93.5311 57.546 92.9338 57.546C92.3365 57.546 91.8605 57.7327 91.5058 58.106C91.1605 58.47 90.9878 58.9973 90.9878 59.688V64H89.3918V56.286H90.9878V57.168C91.2491 56.8507 91.5805 56.6033 91.9818 56.426C92.3831 56.2487 92.8125 56.16 93.2698 56.16C93.8858 56.16 94.4365 56.2907 94.9218 56.552C95.4071 56.8133 95.7805 57.1913 96.0418 57.686C96.2751 57.2193 96.6391 56.8507 97.1338 56.58C97.6285 56.3 98.1605 56.16 98.7298 56.16ZM105.535 57.42C105.805 57.0653 106.174 56.7667 106.641 56.524C107.107 56.2813 107.635 56.16 108.223 56.16C108.895 56.16 109.506 56.328 110.057 56.664C110.617 56.9907 111.055 57.4527 111.373 58.05C111.69 58.6473 111.849 59.3333 111.849 60.108C111.849 60.8827 111.69 61.578 111.373 62.194C111.055 62.8007 110.617 63.2767 110.057 63.622C109.506 63.958 108.895 64.126 108.223 64.126C107.635 64.126 107.112 64.0093 106.655 63.776C106.197 63.5333 105.824 63.2347 105.535 62.88V67.668H103.939V56.286H105.535V57.42ZM110.225 60.108C110.225 59.576 110.113 59.1187 109.889 58.736C109.674 58.344 109.385 58.05 109.021 57.854C108.666 57.6487 108.283 57.546 107.873 57.546C107.471 57.546 107.089 57.6487 106.725 57.854C106.37 58.0593 106.081 58.358 105.857 58.75C105.642 59.142 105.535 59.604 105.535 60.136C105.535 60.668 105.642 61.1347 105.857 61.536C106.081 61.928 106.37 62.2267 106.725 62.432C107.089 62.6373 107.471 62.74 107.873 62.74C108.283 62.74 108.666 62.6373 109.021 62.432C109.385 62.2173 109.674 61.9093 109.889 61.508C110.113 61.1067 110.225 60.64 110.225 60.108ZM116.773 64.126C116.045 64.126 115.387 63.9627 114.799 63.636C114.211 63.3 113.749 62.8333 113.413 62.236C113.077 61.6293 112.909 60.9293 112.909 60.136C112.909 59.352 113.082 58.6567 113.427 58.05C113.772 57.4433 114.244 56.9767 114.841 56.65C115.438 56.3233 116.106 56.16 116.843 56.16C117.58 56.16 118.248 56.3233 118.845 56.65C119.442 56.9767 119.914 57.4433 120.259 58.05C120.604 58.6567 120.777 59.352 120.777 60.136C120.777 60.92 120.6 61.6153 120.245 62.222C119.89 62.8287 119.405 63.3 118.789 63.636C118.182 63.9627 117.51 64.126 116.773 64.126ZM116.773 62.74C117.184 62.74 117.566 62.642 117.921 62.446C118.285 62.25 118.579 61.956 118.803 61.564C119.027 61.172 119.139 60.696 119.139 60.136C119.139 59.576 119.032 59.1047 118.817 58.722C118.602 58.33 118.318 58.036 117.963 57.84C117.608 57.644 117.226 57.546 116.815 57.546C116.404 57.546 116.022 57.644 115.667 57.84C115.322 58.036 115.046 58.33 114.841 58.722C114.636 59.1047 114.533 59.576 114.533 60.136C114.533 60.9667 114.743 61.6107 115.163 62.068C115.592 62.516 116.129 62.74 116.773 62.74ZM132.715 56.286L130.321 64H128.641L127.087 58.302L125.533 64H123.853L121.445 56.286H123.069L124.679 62.488L126.317 56.286H127.983L129.551 62.46L131.147 56.286H132.715ZM140.977 59.954C140.977 60.2433 140.959 60.5047 140.921 60.738H135.027C135.074 61.354 135.303 61.8487 135.713 62.222C136.124 62.5953 136.628 62.782 137.225 62.782C138.084 62.782 138.691 62.4227 139.045 61.704H140.767C140.534 62.4133 140.109 62.9967 139.493 63.454C138.887 63.902 138.131 64.126 137.225 64.126C136.488 64.126 135.825 63.9627 135.237 63.636C134.659 63.3 134.201 62.8333 133.865 62.236C133.539 61.6293 133.375 60.9293 133.375 60.136C133.375 59.3427 133.534 58.6473 133.851 58.05C134.178 57.4433 134.631 56.9767 135.209 56.65C135.797 56.3233 136.469 56.16 137.225 56.16C137.953 56.16 138.602 56.3187 139.171 56.636C139.741 56.9533 140.184 57.4013 140.501 57.98C140.819 58.5493 140.977 59.2073 140.977 59.954ZM139.311 59.45C139.302 58.862 139.092 58.3907 138.681 58.036C138.271 57.6813 137.762 57.504 137.155 57.504C136.605 57.504 136.133 57.6813 135.741 58.036C135.349 58.3813 135.116 58.8527 135.041 59.45H139.311ZM144.144 57.406C144.377 57.014 144.685 56.7107 145.068 56.496C145.46 56.272 145.922 56.16 146.454 56.16V57.812H146.048C145.423 57.812 144.947 57.9707 144.62 58.288C144.303 58.6053 144.144 59.156 144.144 59.94V64H142.548V56.286H144.144V57.406ZM148.733 55.264C148.444 55.264 148.201 55.166 148.005 54.97C147.809 54.774 147.711 54.5313 147.711 54.242C147.711 53.9527 147.809 53.71 148.005 53.514C148.201 53.318 148.444 53.22 148.733 53.22C149.013 53.22 149.251 53.318 149.447 53.514C149.643 53.71 149.741 53.9527 149.741 54.242C149.741 54.5313 149.643 54.774 149.447 54.97C149.251 55.166 149.013 55.264 148.733 55.264ZM149.517 56.286V64H147.921V56.286H149.517ZM155.505 56.16C156.111 56.16 156.653 56.286 157.129 56.538C157.614 56.79 157.992 57.1633 158.263 57.658C158.533 58.1527 158.669 58.75 158.669 59.45V64H157.087V59.688C157.087 58.9973 156.914 58.47 156.569 58.106C156.223 57.7327 155.752 57.546 155.155 57.546C154.557 57.546 154.081 57.7327 153.727 58.106C153.381 58.47 153.209 58.9973 153.209 59.688V64H151.613V56.286H153.209V57.168C153.47 56.8507 153.801 56.6033 154.203 56.426C154.613 56.2487 155.047 56.16 155.505 56.16ZM163.812 56.16C164.41 56.16 164.937 56.2813 165.394 56.524C165.861 56.7573 166.225 57.0513 166.486 57.406V56.286H168.096V64.126C168.096 64.8353 167.947 65.4653 167.648 66.016C167.35 66.576 166.916 67.0147 166.346 67.332C165.786 67.6493 165.114 67.808 164.33 67.808C163.285 67.808 162.417 67.5607 161.726 67.066C161.036 66.5807 160.644 65.918 160.55 65.078H162.132C162.254 65.4793 162.51 65.8013 162.902 66.044C163.304 66.296 163.78 66.422 164.33 66.422C164.974 66.422 165.492 66.226 165.884 65.834C166.286 65.442 166.486 64.8727 166.486 64.126V62.838C166.216 63.202 165.847 63.51 165.38 63.762C164.923 64.0047 164.4 64.126 163.812 64.126C163.14 64.126 162.524 63.958 161.964 63.622C161.414 63.2767 160.975 62.8007 160.648 62.194C160.331 61.578 160.172 60.8827 160.172 60.108C160.172 59.3333 160.331 58.6473 160.648 58.05C160.975 57.4527 161.414 56.9907 161.964 56.664C162.524 56.328 163.14 56.16 163.812 56.16ZM166.486 60.136C166.486 59.604 166.374 59.142 166.15 58.75C165.936 58.358 165.651 58.0593 165.296 57.854C164.942 57.6487 164.559 57.546 164.148 57.546C163.738 57.546 163.355 57.6487 163 57.854C162.646 58.05 162.356 58.344 162.132 58.736C161.918 59.1187 161.81 59.576 161.81 60.108C161.81 60.64 161.918 61.1067 162.132 61.508C162.356 61.9093 162.646 62.2173 163 62.432C163.364 62.6373 163.747 62.74 164.148 62.74C164.559 62.74 164.942 62.6373 165.296 62.432C165.651 62.2267 165.936 61.928 166.15 61.536C166.374 61.1347 166.486 60.668 166.486 60.136ZM175.425 55.558V58.414H178.785V59.716H175.425V62.698H179.205V64H173.829V54.256H179.205V55.558H175.425ZM185.063 56.16C185.67 56.16 186.211 56.286 186.687 56.538C187.172 56.79 187.55 57.1633 187.821 57.658C188.092 58.1527 188.227 58.75 188.227 59.45V64H186.645V59.688C186.645 58.9973 186.472 58.47 186.127 58.106C185.782 57.7327 185.31 57.546 184.713 57.546C184.116 57.546 183.64 57.7327 183.285 58.106C182.94 58.47 182.767 58.9973 182.767 59.688V64H181.171V56.286H182.767V57.168C183.028 56.8507 183.36 56.6033 183.761 56.426C184.172 56.2487 184.606 56.16 185.063 56.16ZM192.125 57.588V61.858C192.125 62.1473 192.19 62.3573 192.321 62.488C192.461 62.6093 192.694 62.67 193.021 62.67H194.001V64H192.741C192.022 64 191.472 63.832 191.089 63.496C190.706 63.16 190.515 62.614 190.515 61.858V57.588H189.605V56.286H190.515V54.368H192.125V56.286H194.001V57.588H192.125ZM197.068 57.406C197.301 57.014 197.609 56.7107 197.992 56.496C198.384 56.272 198.846 56.16 199.378 56.16V57.812H198.972C198.347 57.812 197.871 57.9707 197.544 58.288C197.227 58.6053 197.068 59.156 197.068 59.94V64H195.472V56.286H197.068V57.406ZM207.915 59.954C207.915 60.2433 207.896 60.5047 207.859 60.738H201.965C202.012 61.354 202.24 61.8487 202.651 62.222C203.062 62.5953 203.566 62.782 204.163 62.782C205.022 62.782 205.628 62.4227 205.983 61.704H207.705C207.472 62.4133 207.047 62.9967 206.431 63.454C205.824 63.902 205.068 64.126 204.163 64.126C203.426 64.126 202.763 63.9627 202.175 63.636C201.596 63.3 201.139 62.8333 200.803 62.236C200.476 61.6293 200.313 60.9293 200.313 60.136C200.313 59.3427 200.472 58.6473 200.789 58.05C201.116 57.4433 201.568 56.9767 202.147 56.65C202.735 56.3233 203.407 56.16 204.163 56.16C204.891 56.16 205.54 56.3187 206.109 56.636C206.678 56.9533 207.122 57.4013 207.439 57.98C207.756 58.5493 207.915 59.2073 207.915 59.954ZM206.249 59.45C206.24 58.862 206.03 58.3907 205.619 58.036C205.208 57.6813 204.7 57.504 204.093 57.504C203.542 57.504 203.071 57.6813 202.679 58.036C202.287 58.3813 202.054 58.8527 201.979 59.45H206.249ZM211.082 57.42C211.352 57.0653 211.721 56.7667 212.188 56.524C212.654 56.2813 213.182 56.16 213.77 56.16C214.442 56.16 215.053 56.328 215.604 56.664C216.164 56.9907 216.602 57.4527 216.92 58.05C217.237 58.6473 217.396 59.3333 217.396 60.108C217.396 60.8827 217.237 61.578 216.92 62.194C216.602 62.8007 216.164 63.2767 215.604 63.622C215.053 63.958 214.442 64.126 213.77 64.126C213.182 64.126 212.659 64.0093 212.202 63.776C211.744 63.5333 211.371 63.2347 211.082 62.88V67.668H209.486V56.286H211.082V57.42ZM215.772 60.108C215.772 59.576 215.66 59.1187 215.436 58.736C215.221 58.344 214.932 58.05 214.568 57.854C214.213 57.6487 213.83 57.546 213.42 57.546C213.018 57.546 212.636 57.6487 212.272 57.854C211.917 58.0593 211.628 58.358 211.404 58.75C211.189 59.142 211.082 59.604 211.082 60.136C211.082 60.668 211.189 61.1347 211.404 61.536C211.628 61.928 211.917 62.2267 212.272 62.432C212.636 62.6373 213.018 62.74 213.42 62.74C213.83 62.74 214.213 62.6373 214.568 62.432C214.932 62.2173 215.221 61.9093 215.436 61.508C215.66 61.1067 215.772 60.64 215.772 60.108ZM220.57 57.406C220.803 57.014 221.111 56.7107 221.494 56.496C221.886 56.272 222.348 56.16 222.88 56.16V57.812H222.474C221.848 57.812 221.372 57.9707 221.046 58.288C220.728 58.6053 220.57 59.156 220.57 59.94V64H218.974V56.286H220.57V57.406ZM231.417 59.954C231.417 60.2433 231.398 60.5047 231.361 60.738H225.467C225.514 61.354 225.742 61.8487 226.153 62.222C226.564 62.5953 227.068 62.782 227.665 62.782C228.524 62.782 229.13 62.4227 229.485 61.704H231.207C230.974 62.4133 230.549 62.9967 229.933 63.454C229.326 63.902 228.57 64.126 227.665 64.126C226.928 64.126 226.265 63.9627 225.677 63.636C225.098 63.3 224.641 62.8333 224.305 62.236C223.978 61.6293 223.815 60.9293 223.815 60.136C223.815 59.3427 223.974 58.6473 224.291 58.05C224.618 57.4433 225.07 56.9767 225.649 56.65C226.237 56.3233 226.909 56.16 227.665 56.16C228.393 56.16 229.042 56.3187 229.611 56.636C230.18 56.9533 230.624 57.4013 230.941 57.98C231.258 58.5493 231.417 59.2073 231.417 59.954ZM229.751 59.45C229.742 58.862 229.532 58.3907 229.121 58.036C228.71 57.6813 228.202 57.504 227.595 57.504C227.044 57.504 226.573 57.6813 226.181 58.036C225.789 58.3813 225.556 58.8527 225.481 59.45H229.751ZM236.88 56.16C237.486 56.16 238.028 56.286 238.504 56.538C238.989 56.79 239.367 57.1633 239.638 57.658C239.908 58.1527 240.044 58.75 240.044 59.45V64H238.462V59.688C238.462 58.9973 238.289 58.47 237.944 58.106C237.598 57.7327 237.127 57.546 236.53 57.546C235.932 57.546 235.456 57.7327 235.102 58.106C234.756 58.47 234.584 58.9973 234.584 59.688V64H232.988V56.286H234.584V57.168C234.845 56.8507 235.176 56.6033 235.578 56.426C235.988 56.2487 236.422 56.16 236.88 56.16ZM249.065 56.286V64H247.469V63.09C247.217 63.4073 246.886 63.6593 246.475 63.846C246.074 64.0233 245.645 64.112 245.187 64.112C244.581 64.112 244.035 63.986 243.549 63.734C243.073 63.482 242.695 63.1087 242.415 62.614C242.145 62.1193 242.009 61.522 242.009 60.822V56.286H243.591V60.584C243.591 61.2747 243.764 61.8067 244.109 62.18C244.455 62.544 244.926 62.726 245.523 62.726C246.121 62.726 246.592 62.544 246.937 62.18C247.292 61.8067 247.469 61.2747 247.469 60.584V56.286H249.065ZM258.241 59.954C258.241 60.2433 258.222 60.5047 258.185 60.738H252.291C252.338 61.354 252.566 61.8487 252.977 62.222C253.388 62.5953 253.892 62.782 254.489 62.782C255.348 62.782 255.954 62.4227 256.309 61.704H258.031C257.798 62.4133 257.373 62.9967 256.757 63.454C256.15 63.902 255.394 64.126 254.489 64.126C253.752 64.126 253.089 63.9627 252.501 63.636C251.922 63.3 251.465 62.8333 251.129 62.236C250.802 61.6293 250.639 60.9293 250.639 60.136C250.639 59.3427 250.798 58.6473 251.115 58.05C251.442 57.4433 251.894 56.9767 252.473 56.65C253.061 56.3233 253.733 56.16 254.489 56.16C255.217 56.16 255.866 56.3187 256.435 56.636C257.004 56.9533 257.448 57.4013 257.765 57.98C258.082 58.5493 258.241 59.2073 258.241 59.954ZM256.575 59.45C256.566 58.862 256.356 58.3907 255.945 58.036C255.534 57.6813 255.026 57.504 254.419 57.504C253.868 57.504 253.397 57.6813 253.005 58.036C252.613 58.3813 252.38 58.8527 252.305 59.45H256.575ZM261.408 57.406C261.641 57.014 261.949 56.7107 262.332 56.496C262.724 56.272 263.186 56.16 263.718 56.16V57.812H263.312C262.686 57.812 262.21 57.9707 261.884 58.288C261.566 58.6053 261.408 59.156 261.408 59.94V64H259.812V56.286H261.408V57.406ZM267.985 64.126C267.378 64.126 266.832 64.0187 266.347 63.804C265.871 63.58 265.493 63.2813 265.213 62.908C264.933 62.5253 264.783 62.1007 264.765 61.634H266.417C266.445 61.9607 266.599 62.236 266.879 62.46C267.168 62.6747 267.527 62.782 267.957 62.782C268.405 62.782 268.75 62.698 268.993 62.53C269.245 62.3527 269.371 62.1287 269.371 61.858C269.371 61.5687 269.231 61.354 268.951 61.214C268.68 61.074 268.246 60.92 267.649 60.752C267.07 60.5933 266.599 60.4393 266.235 60.29C265.871 60.1407 265.553 59.912 265.283 59.604C265.021 59.296 264.891 58.89 264.891 58.386C264.891 57.9753 265.012 57.602 265.255 57.266C265.497 56.9207 265.843 56.65 266.291 56.454C266.748 56.258 267.271 56.16 267.859 56.16C268.736 56.16 269.441 56.384 269.973 56.832C270.514 57.2707 270.803 57.8727 270.841 58.638H269.245C269.217 58.2927 269.077 58.0173 268.825 57.812C268.573 57.6067 268.232 57.504 267.803 57.504C267.383 57.504 267.061 57.5833 266.837 57.742C266.613 57.9007 266.501 58.1107 266.501 58.372C266.501 58.5773 266.575 58.75 266.725 58.89C266.874 59.03 267.056 59.142 267.271 59.226C267.485 59.3007 267.803 59.3987 268.223 59.52C268.783 59.6693 269.24 59.8233 269.595 59.982C269.959 60.1313 270.271 60.3553 270.533 60.654C270.794 60.9527 270.929 61.3493 270.939 61.844C270.939 62.2827 270.817 62.6747 270.575 63.02C270.332 63.3653 269.987 63.636 269.539 63.832C269.1 64.028 268.582 64.126 267.985 64.126Z" fill="black"/>
<defs>
<filter id="filter0_d" x="20.2698" y="21.3146" width="13.9164" height="18.7485" filterUnits="userSpaceOnUse" color-interpolation-filters="sRGB">
<feFlood flood-opacity="0" result="BackgroundImageFix"/>
<feColorMatrix in="SourceAlpha" type="matrix" values="0 0 0 0 0 0 0 0 0 0 0 0 0 0 0 0 0 0 127 0"/>
<feOffset dx="0.772966" dy="0.772966"/>
<feGaussianBlur stdDeviation="0.772966"/>
<feColorMatrix type="matrix" values="0 0 0 0 0.898039 0 0 0 0 0.898039 0 0 0 0 0.898039 0 0 0 1 0"/>
<feBlend mode="normal" in2="BackgroundImageFix" result="effect1_dropShadow"/>
<feBlend mode="normal" in="SourceGraphic" in2="effect1_dropShadow" result="shape"/>
</filter>
<filter id="filter1_d" x="32.738" y="19.7877" width="9.83348" height="12.3773" filterUnits="userSpaceOnUse" color-interpolation-filters="sRGB">
<feFlood flood-opacity="0" result="BackgroundImageFix"/>
<feColorMatrix in="SourceAlpha" type="matrix" values="0 0 0 0 0 0 0 0 0 0 0 0 0 0 0 0 0 0 127 0"/>
<feOffset dx="0.772966" dy="0.772966"/>
<feGaussianBlur stdDeviation="0.772966"/>
<feColorMatrix type="matrix" values="0 0 0 0 0.898039 0 0 0 0 0.898039 0 0 0 0 0.898039 0 0 0 1 0"/>
<feBlend mode="normal" in2="BackgroundImageFix" result="effect1_dropShadow"/>
<feBlend mode="normal" in="SourceGraphic" in2="effect1_dropShadow" result="shape"/>
</filter>
<clipPath id="clip0">
<rect width="60.0582" height="80.002" fill="white"/>
</clipPath>
</defs>
</svg>
